<svg width="333" height="318" viewBox="0 0 333 318" fill="none" xmlns="http://www.w3.org/2000/svg">
<path fill-rule="evenodd" clip-rule="evenodd" d="M262.518 151.47C260.594 183.972 246.424 216.306 228.163 239.9C175.93 233.174 160.047 266.254 143.845 317.059L120.492 311.98L133.094 268.518L114.013 261.415L99.2888 307.373L78.6983 302.897L87.0343 272.237L67.8138 265.084L56.9821 298.172L31.2843 292.589C48.5911 232.017 50.3008 199.654 8.59158 174.962C5.94854 146.857 12.5788 114.821 28.1214 87.9189C9.41371 68.5124 -1.19793 37.2814 1.20091 7.75614L7.85306 2.482L21.8986 11.5719L34.0999 0.626953C37.4059 19.3102 46.1699 36.4815 64.9059 47.5354C86.4463 32.9142 113.994 25.5124 147.391 30.5264L136.687 81.9108L155.842 90.1522L145.75 141.4L194.761 76.3011L176.449 67.2075L189.754 42.6646C222.402 56.3862 242.283 76.2217 252.894 98.5909C286.863 101.815 305.513 77.7807 321.011 50.8802L331.026 52.4328C339.246 100.312 303.091 141.884 262.518 151.47ZM93.7075 141.973C86.15 114.872 60.1484 112.672 48.5331 133.618C38.9125 150.977 53.3826 178.139 65.4803 199.194C89.6076 196.369 119.857 191.51 128.759 173.492C139.21 152.348 117.936 134.25 93.7075 141.973ZM180.139 182.973C173.02 165.428 155.351 166.084 149.113 181.073C143.945 193.493 155.726 210.512 165.444 223.628C181.469 219.759 201.461 214.021 206.101 201.214C211.544 186.189 195.867 175.808 180.139 182.973Z" fill="#EC1C24"/>
</svg>
