<svg xmlns="http://www.w3.org/2000/svg" width="32" height="32" viewBox="0 0 32 32">
    <g fill="#FFF" fill-rule="nonzero">
        <path d="M12.489 16.409h-2.356v2.747h2.311c.204-.005.406-.028.605-.072a1.253 1.253 0 0 0 .853-.604c.089-.202.137-.42.142-.64a1.378 1.378 0 0 0-.426-1.111 1.884 1.884 0 0 0-1.13-.32zM20.498 14.978a1.698 1.698 0 0 0-.782.178 1.876 1.876 0 0 0-.498.39.951.951 0 0 0-.25.498 2.453 2.453 0 0 0-.07.463h3.218a1.893 1.893 0 0 0-.498-1.147 1.547 1.547 0 0 0-1.12-.382zM13.333 14.658a1.04 1.04 0 0 0 .356-.89 1.36 1.36 0 0 0-.107-.568 1.013 1.013 0 0 0-.32-.356c-.145-.08-.3-.14-.462-.177a2.898 2.898 0 0 0-.569 0h-2.098v2.32h2.214c.356.001.702-.115.986-.33z"/>
        <path d="M0 0v32h32V0H0zm18.462 11.627h4v.96h-4v-.96zM16 19.236c-.181.357-.45.663-.782.888-.351.23-.74.399-1.147.498-.42.112-.854.172-1.289.178H8v-9.858h4.676c.434-.01.867.038 1.288.142.357.064.699.197 1.005.392.284.178.507.438.64.746.13.356.187.733.169 1.111.025.446-.1.888-.356 1.254-.26.353-.605.634-1.004.817a2.391 2.391 0 0 1 1.36.89c.306.466.467 1.014.462 1.573.034.469-.048.94-.24 1.369zm8-1.503h-5.147c-.013.511.164 1.009.498 1.396.356.307.82.46 1.289.427.366.004.727-.094 1.04-.285.235-.145.424-.355.542-.604H24a3.484 3.484 0 0 1-1.324 1.777 3.813 3.813 0 0 1-2.072.57 4.204 4.204 0 0 1-1.537-.285 3.289 3.289 0 0 1-1.858-1.965 4.204 4.204 0 0 1-.249-1.537 4.133 4.133 0 0 1 .249-1.503c.17-.449.424-.862.747-1.217a3.627 3.627 0 0 1 1.146-.783c.478-.19.988-.286 1.502-.284a3.333 3.333 0 0 1 1.61.356c.447.221.83.555 1.11.968.308.421.537.894.676 1.396.055.523.055 1.05 0 1.573z"/>
    </g>
</svg>
