<svg xmlns="http://www.w3.org/2000/svg" width="32" height="32" viewBox="0 0 32 32">
    <path fill="#FFF" fill-rule="nonzero" d="M19.308 10.898h4.706v1.12h-4.706v-1.12zm.46 7.124a2.383 2.383 0 0 0 .586 1.628c.42.359.965.538 1.517.498.43.005.855-.11 1.223-.332.277-.169.499-.414.638-.705h2.092a4.068 4.068 0 0 1-1.559 2.074 4.515 4.515 0 0 1-2.436.664 4.983 4.983 0 0 1-1.81-.332 3.85 3.85 0 0 1-2.185-2.292 4.868 4.868 0 0 1-.293-1.794 4.786 4.786 0 0 1 .293-1.752c.2-.524.499-1.006.878-1.421a4.268 4.268 0 0 1 1.35-.913 4.751 4.751 0 0 1 1.767-.332 3.949 3.949 0 0 1 1.893.415 3.4 3.4 0 0 1 1.307 1.13c.361.491.63 1.043.795 1.629a8.67 8.67 0 0 1 0 1.835h-6.055zm1.015-3.007c-.22.118-.418.272-.586.456-.153.16-.255.363-.292.58a2.84 2.84 0 0 0-.084.54h3.786a2.2 2.2 0 0 0-.586-1.338 1.83 1.83 0 0 0-1.318-.446 2.011 2.011 0 0 0-.92.208zm-4.371 4.76c-.214.417-.53.774-.92 1.037a4.37 4.37 0 0 1-1.35.58c-.495.13-1.004.2-1.516.208H7V10.1h5.5c.511-.012 1.021.043 1.517.165a3.3 3.3 0 0 1 1.182.456c.334.208.597.512.753.872.152.414.22.855.198 1.296.03.52-.117 1.035-.418 1.462-.306.412-.713.74-1.182.954.64.15 1.205.517 1.6 1.037.361.545.55 1.184.544 1.836a3.294 3.294 0 0 1-.282 1.597zm-4.131-3.298H9.51v3.204h2.719c.239-.004.477-.032.71-.082a1.481 1.481 0 0 0 1.005-.706c.104-.235.16-.49.167-.746a1.6 1.6 0 0 0-.502-1.297 2.23 2.23 0 0 0-1.328-.373zm.994-2.043c.3-.258.457-.644.418-1.037a1.575 1.575 0 0 0-.126-.664 1.186 1.186 0 0 0-.376-.414 2.102 2.102 0 0 0-.544-.208 3.438 3.438 0 0 0-.67 0H9.51v2.707h2.604c.419.001.826-.134 1.16-.384z"/>
</svg>
