<svg xmlns="http://www.w3.org/2000/svg" width="32" height="32" viewBox="0 0 32 32">
    <g fill="#FFF" fill-rule="nonzero">
        <ellipse cx="7.953" cy="19.888" rx="1" ry="1" transform="rotate(-42.56 8.228 20.092)"/>
        <ellipse cx="7.231" cy="19.188" rx="1" ry="1" transform="rotate(-65.55 7.542 19.437)"/>
        <path d="M8.889 21.573a.267.267 0 0 0 .08.356c.115.115.275.133.355.053.08-.08 0-.24-.08-.355-.08-.116-.302-.143-.355-.054z"/>
        <ellipse cx="8.402" cy="20.682" rx="1" ry="1" transform="rotate(-34.38 8.66 20.85)"/>
        <ellipse cx="12.363" cy="22.385" rx="1" ry="1" transform="rotate(-10.14 12.505 22.625)"/>
        <path d="M0 0v32h32V0H0zm18.507 19.929a3.298 3.298 0 0 1 .933 2.56v3.787h-6.844v-2.57c-3.84.836-4.65-1.626-4.65-1.626a3.653 3.653 0 0 0-1.528-2.018c-1.254-.889.098-.835.098-.835a2.898 2.898 0 0 1 2.115 1.422 2.942 2.942 0 0 0 4.018 1.147c.065-.703.38-1.36.889-1.85-3.067-.346-6.294-1.528-6.294-6.826a5.333 5.333 0 0 1 1.423-3.707A4.96 4.96 0 0 1 8.8 5.76s1.156-.373 3.796 1.413c2.263-.619 4.652-.619 6.915 0 2.667-1.777 3.796-1.413 3.796-1.413a4.951 4.951 0 0 1 .133 3.653 5.333 5.333 0 0 1 1.422 3.707c-.053 5.298-3.289 6.436-6.355 6.809z"/>
        <ellipse cx="11.186" cy="22.417" rx="1" ry="1" transform="rotate(-.8 11.337 22.657)"/>
        <path d="M10.089 22c-.16-.053-.311 0-.347.107-.035.106.071.24.231.284.16.045.311 0 .347-.115.027-.107-.071-.232-.231-.276z"/>
    </g>
</svg>
