<svg xmlns="http://www.w3.org/2000/svg" width="32" height="32" viewBox="0 0 32 32">
    <g fill="#FFF" fill-rule="nonzero">
        <circle cx="16" cy="16" r="2.667"/>
        <path d="M22.222 11.289a2.667 2.667 0 0 0-1.51-1.511 4.444 4.444 0 0 0-1.485-.276c-.845 0-1.094-.044-3.227-.044s-2.382 0-3.227.044c-.507.007-1.009.1-1.484.276a2.667 2.667 0 0 0-1.511 1.51 4.444 4.444 0 0 0-.276 1.485c0 .845-.044 1.094-.044 3.227s0 2.382.044 3.227c.007.507.1 1.009.276 1.484.27.692.819 1.24 1.51 1.511.476.176.978.27 1.485.276.845 0 1.094.044 3.227.044s2.382 0 3.227-.044a4.444 4.444 0 0 0 1.484-.276 2.667 2.667 0 0 0 1.511-1.51c.176-.476.27-.978.276-1.485 0-.845.044-1.094.044-3.227s0-2.382-.044-3.227a4.444 4.444 0 0 0-.276-1.484zM16 20.098a4.098 4.098 0 1 1 0-8.196 4.098 4.098 0 0 1 0 8.196zm4.267-7.405a.96.96 0 1 1 0-1.92.96.96 0 0 1 0 1.92z"/>
        <path d="M0 0v32h32V0H0zm23.938 19.289a5.858 5.858 0 0 1-.374 1.938 4.08 4.08 0 0 1-2.337 2.337c-.62.233-1.276.36-1.938.374-.889 0-1.12.044-3.289.044s-2.444 0-3.289-.044a5.867 5.867 0 0 1-1.938-.374 4.08 4.08 0 0 1-2.337-2.337 5.858 5.858 0 0 1-.374-1.938C8 18.444 8 18.169 8 16s0-2.444.044-3.289c.014-.662.14-1.318.374-1.938a4.08 4.08 0 0 1 2.338-2.337 5.858 5.858 0 0 1 1.937-.374C13.556 8 13.831 8 16 8s2.444 0 3.289.044c.662.014 1.318.14 1.938.374a4.08 4.08 0 0 1 2.337 2.338c.234.62.36 1.275.374 1.937 0 .89.044 1.12.044 3.29 0 2.168.018 2.461-.044 3.306z"/>
    </g>
</svg>
