<svg xmlns="http://www.w3.org/2000/svg" width="32" height="32" viewBox="0 0 32 32">
    <path fill="#FFF" fill-rule="nonzero" d="M0 0v32h32V0H0zm24 9.911l-1.28 1.227a.373.373 0 0 0-.142.364v8.996c-.025.138.03.28.142.364L24 22.08v.276h-6.311v-.276l1.289-1.253c.133-.134.133-.16.133-.365v-7.27l-3.555 9.12h-.48l-4.223-9.12v6.124c-.023.25.061.499.231.684l1.68 2.044v.276H8v-.276L9.68 20a.818.818 0 0 0 .213-.684v-7.112a.622.622 0 0 0-.204-.524L8.196 9.902v-.275h4.648l3.61 7.857 3.102-7.83H24v.257z"/>
</svg>
