<svg xmlns="http://www.w3.org/2000/svg" width="32" height="32" viewBox="0 0 32 32">
    <g fill="#FFF" fill-rule="nonzero">
        <path d="M0 0v32h32V0H0zm23.858 16.178a8.56 8.56 0 0 1-3.414 2.284c1.778 6.08-4.355 7.05-4.266 3.93v-2.96l-.436-.108v3.067c.09 3.12-6.053 2.151-4.266-3.929a8.56 8.56 0 0 1-3.334-2.284c-.293-.445 0-.89.507-.56l.195.133V9.458a1.52 1.52 0 0 1 1.467-1.582h11.387a1.52 1.52 0 0 1 1.466 1.582v6.284l.187-.133c.48-.338.8.124.507.569z"/>
        <path d="M21.084 8.72h-10.08c-1.013 0-1.288.347-1.288 1.449v6.098a8.996 8.996 0 0 0 4.995.889c.319-.06.647.033.889.248l.08.072c.174.162.358.314.551.453 0-.498.32-.818 1.067-.782a8.96 8.96 0 0 0 5.093-.943V10.16c-.009-1.031-.347-1.44-1.307-1.44zm-7.253 7.698a1.831 1.831 0 1 1 1.956-1.831 1.893 1.893 0 0 1-1.956 1.83zm4.551 0a1.831 1.831 0 1 1 1.956-1.831 1.893 1.893 0 0 1-1.947 1.83h-.009z"/>
    </g>
</svg>
