<svg xmlns="http://www.w3.org/2000/svg" width="32" height="32" viewBox="0 0 32 32">
    <path fill="#FFF" fill-rule="nonzero" d="M0 32h32V0H0v32zm9.778-14.604c.205.037.413.055.622.053.3.003.6-.036.889-.116a3.289 3.289 0 0 1-2.667-3.226c.458.253.97.393 1.494.409a3.298 3.298 0 0 1-1.023-4.392 9.333 9.333 0 0 0 6.774 3.44 3.289 3.289 0 0 1 5.6-2.995 6.569 6.569 0 0 0 2.089-.8 3.298 3.298 0 0 1-1.45 1.778A6.578 6.578 0 0 0 24 11.03a6.658 6.658 0 0 1-1.644 1.707v.426A9.351 9.351 0 0 1 8 21.04c.26.03.52.045.782.044a6.596 6.596 0 0 0 4.08-1.404 3.289 3.289 0 0 1-3.084-2.284z"/>
</svg>
