<svg xmlns="http://www.w3.org/2000/svg" width="64" height="64" fill="none" xmlns:v="https://vecta.io/nano"><rect width="64" height="64" rx="16" fill="#fff"/><path fill-rule="evenodd" d="M41.517 12.937h8.769v38.08h-8.753v-3.978c-3.599 3.389-7.473 5.075-11.606 5.075-5.236 0-9.547-1.899-12.967-5.714-3.372-3.88-5.074-8.726-5.074-14.538 0-5.714 1.686-10.478 5.074-14.276a16.4 16.4 0 0 1 5.733-4.281 16.25 16.25 0 0 1 6.991-1.416c4.409 0 8.348 1.817 11.833 5.468v-4.42zM20.802 31.863c0 3.651.973 6.614 2.918 8.923a9.54 9.54 0 0 0 3.369 2.602 9.45 9.45 0 0 0 4.153.869c3.242 0 5.835-1.113 7.829-3.356 2.049-2.47 3.117-5.62 2.999-8.841 0-3.569-1.005-6.516-2.999-8.841a9.89 9.89 0 0 0-3.49-2.568 9.8 9.8 0 0 0-4.241-.821c-2.999 0-5.511 1.146-7.521 3.438-2.022 2.389-3.091 5.453-2.999 8.595h-.016z" fill="#5159f6"/></svg>