<svg xmlns="http://www.w3.org/2000/svg" width="64" height="64" fill="none" xmlns:v="https://vecta.io/nano"><rect width="64" height="64" rx="16" fill="#5163f0"/><path fill-rule="evenodd" d="M19.996 43.261c-1.751-1.798-3.13-3.952-4.052-6.33s-1.368-4.927-1.309-7.491c0-5.501 1.809-10.108 5.362-13.821 1.777-1.837 3.893-3.277 6.22-4.231s4.815-1.404 7.313-1.321c6.654 0 12.694 3.493 15.827 8.995l-8.963 5.299c-.695-1.243-1.702-2.265-2.911-2.955a7.31 7.31 0 0 0-3.953-.96c-2.519 0-4.586.844-6.185 2.531-1.615 1.704-2.374 3.881-2.374 6.463 0 2.599.775 4.776 2.374 6.463s3.666 2.531 6.185 2.531c3.101 0 5.668-1.468 6.864-3.949l8.979 5.282c-1.662 2.812-3.995 5.126-6.769 6.714s-5.895 2.397-9.058 2.348c-.953 0-1.857-.051-2.745-.169a15.37 15.37 0 0 1-5.171 3.911c-1.967.91-4.096 1.377-6.247 1.371l-1.97-.034 1.13-1.637a18.75 18.75 0 0 0 2.746-5.889c.258-.928.307-1.35.323-1.62-.565-.456-1.098-.962-1.615-1.502z" fill="#fff"/></svg>