<svg xmlns="http://www.w3.org/2000/svg" width="64" height="64" fill="none" xmlns:v="https://vecta.io/nano"><rect width="64" height="64" rx="16" fill="#0af"/><g fill="#fff"><path d="M32.186 50.726l-.419.601c-.314.452-.733.822-1.22 1.078s-1.03.389-1.581.39-1.092-.137-1.579-.392-.906-.624-1.222-1.075L15.747 36.382a16.04 16.04 0 0 1-1.142-16.681c1.287-2.596 3.262-4.79 5.709-6.341s5.274-2.4 8.171-2.456h.95c1.046.019 2.084.141 3.097.362a16.66 16.66 0 0 0-10.679 8.732c-1.424 2.758-2.065 5.854-1.853 8.951s1.271 6.084 3.061 8.624l9.124 13.152z"/><path fill-rule="evenodd" d="M36.953 35.892c-2.192 0-4.294-.871-5.843-2.42s-2.421-3.652-2.421-5.843.871-4.294 2.421-5.843 3.652-2.42 5.843-2.42 4.294.871 5.843 2.42 2.42 3.652 2.42 5.843-.871 4.294-2.42 5.843-3.652 2.42-5.843 2.42zm13.458-15.06a14.83 14.83 0 0 0-13.017-8.278l-.441-.01h-.451a14.83 14.83 0 0 0-13.017 8.278c-1.276 2.465-1.85 5.233-1.661 8.002s1.136 5.433 2.735 7.701l9.756 14.063c.296.425.691.772 1.15 1.01s.97.363 1.488.361 1.025-.123 1.483-.362.851-.585 1.145-1.009l9.765-14.072c1.599-2.269 2.544-4.933 2.732-7.702s-.389-5.537-1.667-8.001"/></g></svg>