<svg xmlns="http://www.w3.org/2000/svg" width="64" height="64" fill="none" xmlns:v="https://vecta.io/nano"><rect width="64" height="64" rx="16" fill="#fff"/><path fill-rule="evenodd" d="M49.29 13.92l-17.261 7.703-17.261-7.703c-1.211-.642-2.881.28-2.881 1.93v32.163c0 1.233.755 2.237 1.78 2.268a.58.58 0 0 0 .142 0h.102l11.313-1.148-2.143-2.984c-.936-1.277.199-2.386 1.4-1.955.241.086.503-.028.738.032l-2.838-9.354-.03-.097-.022-.071v-.022a1.57 1.57 0 0 1 .186-1.11 1.63 1.63 0 0 1 .887-.716c.375-.126.783-.115 1.15.031s.668.417.846.763v.014a5167.14 5167.14 0 0 1 3.256 7.837 1.68 1.68 0 0 1 .612-1.002 1.75 1.75 0 0 1 2.241.058c.305.269.503.635.557 1.033.057-.41.265-.785.585-1.055a1.76 1.76 0 0 1 1.154-.412c.844 0 1.498.729 1.645 1.514l1.919-5.284a1.62 1.62 0 0 1 .722-.839 1.68 1.68 0 0 1 1.105-.191c.38.064.724.257.974.545s.387.651.39 1.028v.049l-1.709 12.178 11.3 1.148h.103a.58.58 0 0 0 .142 0c1.025-.031 1.723-1.029 1.723-2.263V15.843c-.002-1.648-1.614-2.565-2.825-1.923z" fill="#ec1c24"/></svg>