<svg xmlns="http://www.w3.org/2000/svg" width="64" height="64" fill="none" xmlns:v="https://vecta.io/nano"><rect width="64" height="64" rx="16" fill="url(#A)"/><path d="M16.457 24.847v-10.51c0-1.892 2.01-3.057 3.541-2.121l23.476 13.73-4.096 9.096h-.153l-4.402-9.966c-.077-.153-.23-.306-.459-.306H16.457v.076zm15.361 3.994h-5.637v14.6c0 .229-.23.545-.545.545H22.4c-.23 0-.546-.229-.546-.545v-14.6h-5.398v21.737c0 1.882 2.01 3.058 3.541 2.121l17.849-10.434-6.029-13.425zm19.064 1.491l-3.78-2.198-5.407 11.848 9.264-5.408c.36-.228.656-.545.858-.92a2.48 2.48 0 0 0-.044-2.433c-.216-.368-.523-.674-.891-.889z" fill="#fff"/><defs><linearGradient id="A" x1="0" y1="30.629" x2="63.086" y2="31.086" gradientUnits="userSpaceOnUse"><stop stop-color="#c10b4c"/><stop offset="1" stop-color="#fe015b"/></linearGradient></defs></svg>