<svg xmlns="http://www.w3.org/2000/svg" width="22" height="22" viewBox="0 0 22 22">
    <g fill="#FFF" fill-rule="nonzero">
        <ellipse cx="5.468" cy="13.673" rx="1" ry="1" transform="rotate(-42.56 5.657 13.813)"/>
        <ellipse cx="4.971" cy="13.192" rx="1" ry="1" transform="rotate(-65.55 5.185 13.363)"/>
        <path d="M6.111 14.832a.183.183 0 0 0 .055.244c.08.08.19.092.245.037.055-.055 0-.165-.055-.245-.055-.08-.208-.097-.245-.036z"/>
        <ellipse cx="5.776" cy="14.219" rx="1" ry="1" transform="rotate(-34.38 5.953 14.335)"/>
        <ellipse cx="8.5" cy="15.39" rx="1" ry="1" transform="rotate(-10.14 8.597 15.555)"/>
        <path d="M0 3.438v15.124A3.438 3.438 0 0 0 3.438 22h15.124A3.438 3.438 0 0 0 22 18.562V3.438A3.438 3.438 0 0 0 18.562 0H3.438A3.437 3.437 0 0 0 0 3.438zM12.723 13.7c.458.467.692 1.108.642 1.76v2.603H8.659v-1.766c-2.64.575-3.196-1.118-3.196-1.118a2.512 2.512 0 0 0-1.05-1.387c-.862-.611.066-.575.066-.575.61.084 1.147.445 1.455.978a2.023 2.023 0 0 0 2.762.788c.045-.483.262-.934.611-1.27-2.108-.239-4.326-1.052-4.326-4.694a3.667 3.667 0 0 1 .977-2.548A3.41 3.41 0 0 1 6.05 3.96s.794-.257 2.61.972a9.008 9.008 0 0 1 4.754 0c1.833-1.223 2.61-.972 2.61-.972.35.795.382 1.693.091 2.512.642.692.992 1.604.978 2.548-.037 3.642-2.261 4.424-4.37 4.681z"/>
        <ellipse cx="7.691" cy="15.412" rx="1" ry="1" transform="rotate(-.8 7.795 15.577)"/>
        <path d="M6.936 15.125c-.11-.037-.214 0-.238.073-.025.074.049.165.159.196.11.03.214 0 .238-.08.018-.073-.049-.158-.159-.189z"/>
    </g>
</svg>
