<svg xmlns="http://www.w3.org/2000/svg" width="32" height="32" viewBox="0 0 32 32">
    <path fill="#000" fill-rule="evenodd" d="M23.148 16.382c-2.463 1.332-4.583 1.1-5.734 1.063-.846-.042-1.16.322-1.2.882a6.426 6.426 0 0 1-.626-.514 2.09 2.09 0 0 0-.092-.083c-.185-.201-.494-.31-.976-.285-1.134.036-3.208.262-5.624-1.004V9.578c0-1.243.316-1.633 1.454-1.633h11.34c1.077 0 1.458.463 1.458 1.633v6.804zm1.087-.68l-.21.147V8.776c0-.982-.739-1.776-1.648-1.776H9.565c-.908 0-1.646.793-1.646 1.776v7.079a7.323 7.323 0 0 1-.22-.153c-.547-.381-.905.138-.57.633.652.798 1.891 1.789 3.79 2.569-2.01 6.843 4.902 7.93 4.798 4.423l.007-3.452c.181.043.34.085.487.12l.006 3.332c-.105 3.508 6.812 2.42 4.798-4.423 1.9-.78 3.138-1.771 3.79-2.57.334-.494-.024-1.013-.57-.632zM13.53 12.486c-1.215 0-2.202.922-2.202 2.06 0 1.137.986 2.06 2.202 2.06s2.202-.923 2.202-2.06c0-1.138-.986-2.06-2.202-2.06m5.124 0c-1.216 0-2.202.922-2.202 2.06 0 1.137.986 2.06 2.202 2.06 1.215 0 2.202-.923 2.202-2.06 0-1.138-.987-2.06-2.202-2.06"/>
</svg>
