<svg width="14" height="16" viewBox="0 0 14 16" fill="none" xmlns="http://www.w3.org/2000/svg">
<path fill-rule="evenodd" clip-rule="evenodd" d="M4.88581 12.8345C4.77181 12.8548 4.66606 12.8045 4.65181 12.725C4.63681 12.6418 4.71931 12.5585 4.83406 12.5375C4.95031 12.5165 5.05381 12.5653 5.06956 12.6478C5.08306 12.7288 5.00206 12.8128 4.88581 12.8345ZM4.05031 12.833C3.93256 12.8353 3.83806 12.7678 3.83656 12.686C3.83656 12.6035 3.92806 12.5345 4.04656 12.5323C4.16281 12.53 4.25881 12.5968 4.25881 12.6793C4.26106 12.7633 4.16656 12.8308 4.05031 12.833ZM3.43381 12.5855C3.40981 12.6643 3.29881 12.7003 3.18781 12.6673C3.07756 12.632 3.00406 12.5398 3.02656 12.4603C3.04981 12.3808 3.16081 12.3433 3.27256 12.3793C3.38356 12.4138 3.45706 12.5053 3.43381 12.5848V12.5855ZM2.70856 12.3635C2.65531 12.425 2.53981 12.4093 2.45656 12.326C2.37031 12.2443 2.34631 12.1288 2.40106 12.068C2.45506 12.008 2.57056 12.0245 2.65531 12.107C2.74006 12.188 2.76631 12.3043 2.70856 12.3635ZM2.14756 11.7088C2.08756 11.7523 1.99006 11.7118 1.92856 11.6225C1.86856 11.5325 1.86856 11.4253 1.93006 11.3825C1.99006 11.3383 2.08756 11.3773 2.14981 11.4665C2.20981 11.5573 2.20981 11.6653 2.14756 11.7088ZM1.81606 11.1433C1.76956 11.1875 1.67806 11.1673 1.61581 11.096C1.55131 11.0263 1.53856 10.931 1.58731 10.8868C1.63531 10.8425 1.72381 10.8628 1.78831 10.934C1.85281 11.0053 1.86556 11.0975 1.81606 11.1433ZM1.16356 10.7308C1.09306 10.6978 1.05256 10.6303 1.07656 10.58C1.09681 10.5275 1.17406 10.514 1.24606 10.5485C1.31656 10.5815 1.35706 10.6498 1.33231 10.7008C1.31206 10.751 1.23481 10.7653 1.16431 10.7308H1.16356ZM13.7493 5.89704C13.7493 4.79678 13.3683 3.89753 12.7383 3.19178C12.8403 2.93828 13.1763 1.91303 12.6416 0.524034C12.6416 0.524034 11.8181 0.254034 9.94156 1.55753C9.13994 1.33366 8.3116 1.21987 7.47931 1.21928C6.64775 1.2198 5.82014 1.3336 5.01931 1.55753C3.14281 0.252534 2.31706 0.523285 2.31706 0.523285C1.78456 1.91228 2.11981 2.93754 2.22256 3.19104C1.59331 3.89679 1.20931 4.79603 1.20931 5.89629C1.20931 9.75804 3.50431 10.6213 5.68681 10.8763C5.40631 11.1283 5.15131 11.573 5.06281 12.224C4.50256 12.4813 3.07981 12.9268 2.20306 11.3863C2.20306 11.3863 1.68331 10.4188 0.69706 10.3475C0.69706 10.3475 -0.26219 10.3348 0.62956 10.9603C0.62956 10.9603 1.27381 11.2708 1.72081 12.4355C1.72081 12.4355 2.29831 14.2333 5.03131 13.6243C5.03581 14.4665 5.04481 15.2593 5.04481 15.5H9.91756C9.91756 15.1685 9.92956 14.0833 9.92956 12.7348C9.92956 11.7943 9.61531 11.1808 9.26281 10.8688C11.4513 10.619 13.7501 9.76629 13.7501 5.89629" fill="#96969C"/>
</svg>
