<svg width="15" height="12" viewBox="0 0 15 12" fill="none" xmlns="http://www.w3.org/2000/svg">
<path fill-rule="evenodd" clip-rule="evenodd" d="M14.618 0.983705L13.4894 2.06439C13.4416 2.10087 13.4046 2.14974 13.3825 2.20572C13.3603 2.2617 13.3539 2.32266 13.364 2.38201V10.3186C13.354 10.3779 13.3605 10.4389 13.3826 10.4948C13.4047 10.5508 13.4416 10.5997 13.4894 10.6362L14.5882 11.7169V11.9561H9.04827V11.7169L10.1886 10.6119C10.3031 10.4982 10.3031 10.4684 10.3031 10.2935V3.87129L7.13471 11.92H6.7073L3.01507 3.87129V9.27317C3.00276 9.38214 3.01464 9.49248 3.04989 9.59633C3.08514 9.70017 3.14287 9.79495 3.21898 9.87391L4.7012 11.6745V11.9145H0.5V11.6745L1.98222 9.87391C2.05764 9.79486 2.11413 9.69971 2.14741 9.59565C2.18069 9.49158 2.18991 9.38132 2.17436 9.27317V3.03686C2.18287 2.95105 2.17105 2.86444 2.13984 2.78405C2.10864 2.70366 2.05894 2.63175 1.99477 2.57415L0.674102 0.989979V0.75H4.77335L7.96131 7.68272L10.7164 0.75H14.618V0.983705Z" fill="#96969C"/>
</svg>
