<svg width="16" height="17" viewBox="0 0 16 17" fill="none" xmlns="http://www.w3.org/2000/svg">
<g clip-path="url(#clip0)">
<path d="M4.71875 9.75C7.22129 9.75 9.25 7.72129 9.25 5.21875C9.25 2.71621 7.22129 0.6875 4.71875 0.6875C2.21621 0.6875 0.1875 2.71621 0.1875 5.21875C0.1875 7.72129 2.21621 9.75 4.71875 9.75Z" fill="#96969C"/>
<path d="M11.2812 16.3125C13.7838 16.3125 15.8125 14.2838 15.8125 11.7812C15.8125 9.27871 13.7838 7.25 11.2812 7.25C8.77871 7.25 6.75 9.27871 6.75 11.7812C6.75 14.2838 8.77871 16.3125 11.2812 16.3125Z" fill="#96969C"/>
<path d="M8 16C12.1421 16 15.5 12.6421 15.5 8.5C15.5 4.35786 12.1421 1 8 1C3.85786 1 0.5 4.35786 0.5 8.5C0.5 12.6421 3.85786 16 8 16Z" fill="#96969C"/>
<path fill-rule="evenodd" clip-rule="evenodd" d="M6.05423 8.35769C5.76103 8.16454 5.51641 7.90626 5.33947 7.60301C5.16851 7.28279 5.08411 6.9235 5.09462 6.56066C5.08161 6.10017 5.23873 5.65102 5.53596 5.29905C5.84478 4.9456 6.24173 4.68028 6.68642 4.53009C7.17016 4.35927 7.67984 4.27352 8.19285 4.27663C8.52857 4.27345 8.86394 4.29917 9.19524 4.35352C9.43223 4.39016 9.66499 4.45026 9.89009 4.53295C10.0969 4.60298 10.2835 4.72221 10.434 4.88037C10.545 5.01047 10.6047 5.17651 10.602 5.34745C10.606 5.43625 10.5925 5.52496 10.5622 5.60852C10.5319 5.69208 10.4854 5.76885 10.4255 5.83445C10.3687 5.89491 10.2997 5.94266 10.2232 5.97456C10.1466 6.00647 10.0641 6.02181 9.98123 6.01958C9.8671 6.01874 9.75447 5.99348 9.65091 5.9455C9.39595 5.83138 9.1333 5.73528 8.8649 5.65789C8.61776 5.59278 8.363 5.56117 8.10745 5.56392C7.77463 5.55157 7.44532 5.63562 7.15913 5.80597C7.03825 5.87938 6.93932 5.98393 6.8727 6.10869C6.80607 6.23344 6.77419 6.3738 6.78041 6.5151C6.77862 6.70044 6.84909 6.8792 6.97687 7.01346C7.12882 7.17102 7.30836 7.29939 7.50658 7.39224C7.72872 7.50242 8.05999 7.64861 8.5004 7.83083C8.54922 7.84625 8.59683 7.8653 8.64281 7.8878C9.07258 8.05776 9.48462 8.26952 9.873 8.52003C10.1798 8.72008 10.4385 8.98559 10.6305 9.2975C10.8195 9.62516 10.9141 9.99872 10.9039 10.3768C10.9198 10.84 10.787 11.296 10.5251 11.6783C10.2584 12.0402 9.88947 12.314 9.46581 12.4644C8.95531 12.6467 8.41588 12.7345 7.87392 12.7235C7.12913 12.7497 6.38787 12.6097 5.70402 12.3134C5.52902 12.2356 5.37558 12.1164 5.25693 11.966C5.15858 11.8283 5.1076 11.6624 5.11168 11.4932C5.10677 11.404 5.12129 11.3147 5.15422 11.2316C5.18715 11.1485 5.23772 11.0736 5.30244 11.0119C5.43828 10.893 5.61466 10.8308 5.79508 10.8382C5.99589 10.841 6.19312 10.8918 6.3703 10.9863C6.59046 11.0965 6.76418 11.1791 6.89146 11.2341C7.03686 11.295 7.18745 11.3427 7.34142 11.3765C7.53121 11.4182 7.72512 11.4382 7.91943 11.4363C8.26298 11.4607 8.60484 11.3695 8.89054 11.1771C8.99752 11.0934 9.08302 10.9855 9.13996 10.8621C9.19691 10.7388 9.22366 10.6037 9.218 10.468C9.21842 10.2754 9.14507 10.0899 9.013 9.94966C8.83848 9.76987 8.63426 9.62151 8.40932 9.51112C8.14349 9.37064 7.76947 9.19977 7.28727 8.99849C6.85588 8.82661 6.4428 8.61194 6.05422 8.35769" fill="black"/>
<path fill-rule="evenodd" clip-rule="evenodd" d="M6.13477 0.916016C5.93663 0.849677 5.73404 0.797463 5.52852 0.759766C4.29462 1.15575 3.17297 1.84032 2.25664 2.75664C1.34032 3.67297 0.655754 4.79462 0.259766 6.02852C0.297469 6.23403 0.349683 6.43663 0.416016 6.63477C0.471415 6.81416 0.541441 6.9887 0.62539 7.15664C0.896838 5.65673 1.61983 4.27548 2.69766 3.19766C3.77548 2.11983 5.15673 1.39684 6.65664 1.12539C6.4887 1.04145 6.31415 0.971425 6.13477 0.916016Z" fill="black"/>
<path fill-rule="evenodd" clip-rule="evenodd" d="M6.13477 0.916016C4.75079 1.25736 3.48646 1.97057 2.47852 2.97852C1.47057 3.98646 0.757362 5.25079 0.416016 6.63477C0.471415 6.81416 0.541441 6.9887 0.62539 7.15664C0.896838 5.65673 1.61983 4.27548 2.69766 3.19766C3.77548 2.11983 5.15673 1.39684 6.65664 1.12539C6.4887 1.04145 6.31415 0.971425 6.13477 0.916016Z" fill="black"/>
<path fill-rule="evenodd" clip-rule="evenodd" d="M15.5844 10.3656C15.529 10.1862 15.4589 10.0117 15.375 9.84375C15.1036 11.3437 14.3806 12.7249 13.3027 13.8027C12.2249 14.8806 10.8437 15.6036 9.34375 15.875C9.51169 15.9589 9.68623 16.029 9.86563 16.0844C10.0638 16.1507 10.2664 16.2029 10.4719 16.2406C11.7058 15.8446 12.8274 15.1601 13.7437 14.2437C14.6601 13.3274 15.3446 12.2058 15.7406 10.9719C15.7029 10.7664 15.6507 10.5638 15.5844 10.3656Z" fill="black"/>
<path fill-rule="evenodd" clip-rule="evenodd" d="M15.375 9.84375C15.1036 11.3437 14.3806 12.7249 13.3027 13.8027C12.2249 14.8806 10.8437 15.6036 9.34375 15.875C9.51169 15.9589 9.68623 16.029 9.86563 16.0844C11.2496 15.743 12.5139 15.0298 13.5219 14.0219C14.5298 13.0139 15.243 11.7496 15.5844 10.3656C15.529 10.1862 15.4589 10.0117 15.375 9.84375Z" fill="black"/>
</g>
<defs>
<clipPath id="clip0">
<rect y="0.5" width="16" height="16" fill="white"/>
</clipPath>
</defs>
</svg>
