<svg width="17" height="14" viewBox="0 0 17 14" fill="none" xmlns="http://www.w3.org/2000/svg">
<path fill-rule="evenodd" clip-rule="evenodd" d="M16.0746 2.3988C15.4897 2.65831 14.8692 2.82862 14.2338 2.90405C14.9038 2.50373 15.4051 1.8731 15.6438 1.13005C15.0145 1.50386 14.3256 1.7668 13.6073 1.90742C13.1245 1.39189 12.4851 1.05015 11.7882 0.935281C11.0914 0.820407 10.3761 0.93882 9.7534 1.27213C9.13073 1.60545 8.63553 2.13501 8.34467 2.77861C8.05382 3.42221 7.98359 4.14383 8.14489 4.83143C6.87006 4.76782 5.6229 4.43655 4.48455 3.85916C3.34619 3.28177 2.34214 2.4712 1.53771 1.48017C1.25256 1.97041 1.10273 2.52757 1.10352 3.0947C1.10352 4.20572 1.66857 5.18848 2.53 5.76392C2.02055 5.74759 1.52233 5.61003 1.07666 5.36267V5.40254C1.07667 6.14299 1.33294 6.86061 1.80196 7.43357C2.27098 8.00653 2.92383 8.39952 3.64968 8.54581C3.37424 8.62205 3.08965 8.66025 2.80385 8.65933C2.59759 8.65933 2.39567 8.64027 2.20154 8.60214C2.40604 9.23926 2.80462 9.79651 3.34151 10.1959C3.8784 10.5952 4.52673 10.8167 5.19575 10.8294C4.06 11.72 2.65777 12.2029 1.21445 12.2004C0.958748 12.2009 0.703233 12.1864 0.449219 12.1571C1.91495 13.0987 3.62084 13.5985 5.36301 13.5965C11.2613 13.5965 14.4852 8.71133 14.4852 4.47351C14.4852 4.33485 14.4817 4.19619 14.4765 4.0584C15.1043 3.60509 15.6458 3.04302 16.0754 2.3988" fill="#96969C"/>
</svg>
