<svg width="15" height="15" viewBox="0 0 15 15" fill="none" xmlns="http://www.w3.org/2000/svg">
<path fill-rule="evenodd" clip-rule="evenodd" d="M7.53129 0C9.52916 0.000858173 11.4044 0.77493 12.8144 2.1799C14.2245 3.5848 15.0007 5.45226 15 7.43821C14.9983 11.5365 11.6475 14.8711 7.53137 14.8711H7.52828C6.27831 14.8707 5.05011 14.5585 3.95923 13.9664L0 15L1.05955 11.1484C0.405926 10.0211 0.0620855 8.74242 0.0625885 7.43242C0.0642412 3.33422 3.41469 0 7.53129 0ZM7.52885 13.6158H7.53137C10.9528 13.6158 13.7375 10.8444 13.7389 7.43785C13.7395 5.78709 13.0945 4.23494 11.9225 3.06718C10.7505 1.89935 9.19186 1.25594 7.53388 1.25536C4.1097 1.25536 1.32499 4.02655 1.32362 7.43278C1.32312 8.60018 1.65137 9.73704 2.27272 10.7206L2.42032 10.9544L1.79322 13.2342L4.14269 12.6209L4.3694 12.7547C5.32245 13.3176 6.41498 13.6154 7.52885 13.6158Z" fill="#96969C"/>
<path fill-rule="evenodd" clip-rule="evenodd" d="M7.53137 13.6158H7.52885C6.41498 13.6154 5.32245 13.3176 4.3694 12.7547L4.14269 12.6209L1.79322 13.2342L2.42032 10.9544L2.27272 10.7206C1.65137 9.73704 1.32312 8.60018 1.32362 7.43278C1.32499 4.02655 4.1097 1.25536 7.53388 1.25536C9.19186 1.25594 10.7505 1.89935 11.9225 3.06718C13.0945 4.23494 13.7395 5.78709 13.7389 7.43785C13.7375 10.8444 10.9528 13.6158 7.53137 13.6158ZM9.66124 8.38456C9.83233 8.44656 10.7497 8.89589 10.9364 8.98879C11.123 9.08183 11.2474 9.12831 11.294 9.20569C11.3406 9.28314 11.3406 9.65502 11.1851 10.0889C11.0296 10.5227 10.2841 10.9187 9.92553 10.972C9.60404 11.0198 9.19725 11.0398 8.75015 10.8984C8.4791 10.8128 8.13145 10.6986 7.68629 10.5072C5.81432 9.70264 4.59165 7.82675 4.49838 7.70282L4.4968 7.70072C4.39776 7.56917 3.7364 6.69076 3.7364 5.78158C3.7364 4.86741 4.2185 4.41809 4.38952 4.23215C4.56061 4.04621 4.76275 3.99973 4.88714 3.99973C5.01159 3.99973 5.13612 4.00094 5.24484 4.00631C5.35939 4.01203 5.51323 3.96304 5.66471 4.32512C5.82021 4.69699 6.19344 5.61116 6.24008 5.7042C6.28678 5.7971 6.3179 5.90559 6.25567 6.02952C6.19344 6.15346 6.1624 6.23098 6.06906 6.33939C5.97571 6.44781 5.87303 6.58154 5.7891 6.66478C5.69561 6.75739 5.59839 6.85787 5.70725 7.04381C5.81611 7.22982 6.19064 7.83798 6.74538 8.33043C7.45821 8.96318 8.05945 9.15935 8.24614 9.25225C8.43268 9.34529 8.54154 9.3297 8.65041 9.20583C8.75927 9.08183 9.11698 8.66354 9.24137 8.4776C9.36576 8.29166 9.49021 8.3227 9.66124 8.38456Z" fill="#96969C"/>
</svg>
