<svg xmlns="http://www.w3.org/2000/svg" width="32" height="32" viewBox="0 0 32 32">
    <path fill="#000" fill-rule="evenodd" d="M24.03 10.735a7.383 7.383 0 0 1-2.124.583 3.705 3.705 0 0 0 1.627-2.047 7.377 7.377 0 0 1-2.35.897 3.7 3.7 0 0 0-6.303 3.374 10.493 10.493 0 0 1-7.624-3.867 3.695 3.695 0 0 0-.501 1.863c0 1.282.652 2.416 1.646 3.08a3.7 3.7 0 0 1-1.677-.463v.046a3.7 3.7 0 0 0 2.969 3.627 3.615 3.615 0 0 1-.976.131c-.238 0-.471-.022-.695-.066a3.702 3.702 0 0 0 3.455 2.57 7.424 7.424 0 0 1-4.594 1.582 7.56 7.56 0 0 1-.883-.05 10.468 10.468 0 0 0 5.67 1.661c6.806 0 10.526-5.637 10.526-10.527 0-.16-.004-.32-.01-.479a7.483 7.483 0 0 0 1.845-1.915"/>
</svg>
