<svg xmlns="http://www.w3.org/2000/svg" width="36" height="36" viewBox="0 0 36 36">
    <path fill="#FFF" fill-rule="evenodd" d="M10.282 16h22.436c.446 0 .607.046.77.134.163.087.291.215.378.378.088.163.134.324.134.77v1.436c0 .446-.046.607-.134.77a.909.909 0 0 1-.378.378c-.163.088-.324.134-.77.134H10.282c-.446 0-.607-.046-.77-.134a.909.909 0 0 1-.378-.378c-.088-.163-.134-.324-.134-.77v-1.436c0-.446.046-.607.134-.77a.909.909 0 0 1 .378-.378c.163-.088.324-.134.77-.134zm10 10h12.436c.446 0 .607.046.77.134.163.087.291.215.378.378.088.163.134.324.134.77v1.436c0 .446-.046.607-.134.77a.909.909 0 0 1-.378.378c-.163.088-.324.134-.77.134H20.282c-.446 0-.607-.046-.77-.134a.909.909 0 0 1-.378-.378c-.088-.163-.134-.324-.134-.77v-1.436c0-.446.046-.607.134-.77a.909.909 0 0 1 .378-.378c.163-.088.324-.134.77-.134zm-16-20h28.436c.446 0 .607.046.77.134.163.087.291.215.378.378.088.163.134.324.134.77v1.436c0 .446-.046.607-.134.77a.909.909 0 0 1-.378.378c-.163.088-.324.134-.77.134H4.282c-.446 0-.607-.046-.77-.134a.909.909 0 0 1-.378-.378C3.046 9.325 3 9.164 3 8.718V7.282c0-.446.046-.607.134-.77a.909.909 0 0 1 .378-.378c.163-.088.324-.134.77-.134z"/>
</svg>
