<svg xmlns="http://www.w3.org/2000/svg" width="120" height="28" viewBox="0 0 120 28">
    <g fill="#fff" fill-rule="nonzero">
        <path d="M36.264 10.478c.03 1.11.045 3.089.045 5.938v2.558c-.042.364.05.73.257 1.031.235.202.528.322.837.346.44.054.66.182.66.383 0 .203-.173.31-.52.325h-.868c-.86-.054-1.722-.081-2.585-.081-.426 0-.853.023-1.277.066a4.706 4.706 0 0 1-.537.052c-.347 0-.52-.108-.52-.325 0-.215.23-.338.69-.367.607-.055.947-.259 1.02-.613.093-.71.13-1.428.11-2.144 0-1.395-.022-2.677-.065-3.846a6.076 6.076 0 0 0-.28-2.011c-.122-.192-.427-.315-.918-.369-.386-.039-.58-.155-.58-.346 0-.191.198-.302.595-.331h.25l3.686-.266zm-.168-4.023a1.718 1.718 0 0 1-.872 1.478 1.707 1.707 0 0 1-1.712-.019 1.719 1.719 0 0 1 .89-3.195c.946.01 1.704.787 1.694 1.736zm7.27 6.344a5.995 5.995 0 0 1 1.748-1.746 3.831 3.831 0 0 1 2.019-.575 3.062 3.062 0 0 1 1.646.464c.446.252.8.639 1.014 1.105.2.585.29 1.203.264 1.82l-.118 4.79c-.035.44.025.882.176 1.297a.975.975 0 0 0 .735.42c.317.054.477.182.477.382 0 .202-.154.306-.463.31-.26 0-.832-.031-1.718-.096h-.735c-.181 0-.702.04-1.564.119h-.58c-.324 0-.485-.109-.485-.325 0-.216.147-.331.44-.345a1.47 1.47 0 0 0 .64-.274c.157-.128.262-.751.316-1.871.054-1.12.078-2.233.073-3.338a7.295 7.295 0 0 0-.294-2.512 1.094 1.094 0 0 0-1.109-.679c-.67 0-1.293.492-1.865 1.475a9.348 9.348 0 0 0-.86 4.553 8.871 8.871 0 0 0 .118 1.723c.029.249.131.482.294.671.225.13.476.207.735.23.22.038.33.153.33.344 0 .193-.162.303-.485.333h-.52l-1.235-.096c-.934-.01-1.868.03-2.798.118h-.287c-.294 0-.44-.116-.44-.346 0-.232.13-.346.39-.346.303-.006.593-.124.814-.333.236-.518.356-1.08.354-1.65a45.27 45.27 0 0 0 .102-3.279 14.393 14.393 0 0 0-.177-3.006c-.133-.4-.45-.713-.852-.84-.323-.128-.484-.25-.484-.369 0-.117.244-.214.734-.287 1.065.013 2.129-.04 3.187-.155.29.737.447 1.521.463 2.315v-.001zm13.183 0a5.995 5.995 0 0 1 1.718-1.746 3.831 3.831 0 0 1 2.019-.575 3.062 3.062 0 0 1 1.646.464c.446.252.8.639 1.013 1.105.202.585.292 1.203.264 1.82l-.11 4.746c-.035.44.026.882.177 1.297a.973.973 0 0 0 .734.42c.318.053.477.18.477.383 0 .201-.154.304-.463.31-.26 0-.831-.033-1.718-.097h-.735c-.18 0-.702.04-1.564.118h-.58c-.323 0-.484-.107-.484-.324 0-.217.146-.331.44-.346.232-.039.45-.132.64-.273.156-.128.26-.751.316-1.871.053-1.12.077-2.234.072-3.339a7.288 7.288 0 0 0-.294-2.512 1.094 1.094 0 0 0-1.109-.678c-.67 0-1.293.491-1.865 1.474a9.348 9.348 0 0 0-.86 4.554 8.871 8.871 0 0 0 .119 1.724c.028.248.13.481.293.67.226.128.476.206.735.228.22.04.33.155.33.347 0 .192-.162.302-.484.332h-.522l-1.234-.096c-.934-.01-1.868.03-2.798.117h-.287c-.293 0-.44-.114-.44-.345 0-.231.13-.347.39-.347.302-.005.593-.123.814-.332.22-.506.33-1.054.324-1.606.069-.918.102-2.011.102-3.279a14.393 14.393 0 0 0-.177-3.006c-.133-.4-.45-.713-.85-.84-.324-.128-.485-.25-.485-.369 0-.117.244-.214.734-.287 1.065.013 2.13-.04 3.187-.155a6.69 6.69 0 0 1 .514 2.315v-.001zM75.128 17.633c-3.344 0-6.5.098-9.466.294.062-.59.208-1.168.434-1.717a30.706 30.706 0 0 1 2.07-2.541 70.852 70.852 0 0 1 3.636-4.009c1.17-1.189 2.35-2.368 3.54-3.537a16.025 16.025 0 0 1 2.262-1.967c.3-.162.635-.249.976-.25.27-.029.54.024.78.154.15.162.22.384.19.604V16.29c2.62 0 4.012-1.034 4.178-3.101.025-.492.205-.737.544-.737.337 0 .511.245.52.737 0 .142-.012.355-.036.64a40.47 40.47 0 0 0-.08 4.775c.064.899.095 1.451.095 1.659 0 .56-.181.84-.543.84-.285 0-.504-.345-.66-1.033a3.689 3.689 0 0 0-.927-1.893 3.31 3.31 0 0 0-2.284-.604c-.181 0-.453.012-.815.037v3.345c-.085.947.062 1.9.426 2.778.284.442.938.668 1.961.677.49 0 .735.175.735.523 0 .35-.245.539-.735.568l-1.344-.058c-1.958-.094-3.427-.14-4.406-.14-.725 0-1.67.05-2.835.154-.167.024-.337.039-.507.044a4.056 4.056 0 0 1-1.167-.096.413.413 0 0 1-.236-.427c0-.35.422-.562 1.264-.641.499-.016.985-.164 1.41-.428.334-.299.549-.71.602-1.157.132-.54.271-2.247.418-5.12zm-7.74-1.164l7.733-.155c.025-.35.037-2.184.037-5.504 0-1.42-.012-2.336-.037-2.749L72.03 11.26a62.68 62.68 0 0 0-4.642 5.21zM90.617 12.04c.381-.45.844-.823 1.366-1.098a3.347 3.347 0 0 1 1.528-.368 4.496 4.496 0 0 1 3.157 1.473 5.042 5.042 0 0 1 1.47 3.766 5.248 5.248 0 0 1-1.47 3.728 4.694 4.694 0 0 1-3.517 1.578 4.744 4.744 0 0 1-1.403-.208 5.236 5.236 0 0 1-1.322-.625c0 3.168.088 5.015.264 5.54.177.526.647.806 1.41.84.28 0 .42.109.42.324 0 .217-.187.325-.56.325h-.983a38.657 38.657 0 0 0-2.416-.089c-.49 0-1.056.027-1.697.081h-.617c-.41 0-.616-.102-.616-.31 0-.205.22-.32.66-.345a1.398 1.398 0 0 0 1.293-1.327c.21-2.772.28-5.553.213-8.334l-.074-3.875a2.586 2.586 0 0 0-.27-1.475 1.21 1.21 0 0 0-.86-.39c-.299-.029-.449-.14-.449-.331s.17-.307.507-.346c1.396 0 2.713-.032 3.95-.096v1.2c.026.05.03.17.016.362zm4.208 4.17a7.264 7.264 0 0 0-.632-3.36 1.88 1.88 0 0 0-1.659-1.171 1.705 1.705 0 0 0-1.572 1.275c-.41 1.23-.59 2.527-.529 3.824a5.32 5.32 0 0 0 .507 2.778 2.002 2.002 0 0 0 3.312-.266c.44-.964.636-2.022.573-3.08zm8.482-.7v.501a4.845 4.845 0 0 0 .822 2.86 2.583 2.583 0 0 0 2.204 1.171 4.223 4.223 0 0 0 2.82-1.252c.191-.168.325-.251.404-.251.205 0 .308.11.308.331 0 .221-.245.536-.735.943a4.601 4.601 0 0 1-1.74 1.025c-.688.23-1.41.347-2.137.346a4.867 4.867 0 0 1-3.65-1.364 4.9 4.9 0 0 1-1.49-3.61 5.625 5.625 0 0 1 1.572-4.052 5.213 5.213 0 0 1 3.92-1.636 4.003 4.003 0 0 1 3.364 1.474 4.694 4.694 0 0 1 1.191 2.851c0 .285-.077.455-.229.51a6.72 6.72 0 0 1-1.469.08l-5.155.074zm.074-.869h2.026a4.083 4.083 0 0 0 1.646-.191.849.849 0 0 0 .3-.737 2.814 2.814 0 0 0-.558-1.724 1.622 1.622 0 0 0-1.329-.738c-1.219-.015-1.916 1.116-2.093 3.39h.008zm12.742-3.957h2.203c.375-.009.75.032 1.116.118-.117.595-.223.911-.316.95-.093.04-1.099.116-3.018.23l-.132 5.245c-.016.55.02 1.1.11 1.643.071.342.25.65.514.877.291.245.663.371 1.042.354a3.511 3.511 0 0 0 1.557-.582.58.58 0 0 1 .265-.081c.152 0 .227.079.227.236 0 .157-.32.471-.962.942a4.19 4.19 0 0 1-2.254.598 3.561 3.561 0 0 1-2.402-.738c-.582-.49-.874-1.546-.874-3.167 0-1.78.033-3.553.096-5.32-.554.009-1.107-.01-1.66-.06-.322-.04-.484-.154-.484-.345 0-.193.186-.32.558-.384a5.133 5.133 0 0 0 1.976-.906 5.025 5.025 0 0 0 1.468-2.085c.094-.254.206-.5.338-.738a.294.294 0 0 1 .257-.125c.23 0 .345.192.345.575l.03 2.763zM16.737 17.927c.33 1.51-1.307 1.843-2.027 1.643a12.643 12.643 0 0 0-2.203-.228 12.62 12.62 0 0 0-2.204.228c-.735.2-2.357-.132-2.034-1.643.324-1.51 1.77-1.474 2.167-3.485a2.045 2.045 0 0 1 2.049-1.916s1.667-.132 2.063 1.909c.397 2.041 1.829 1.975 2.16 3.485l.029.007zm-2.71-5.526a1.932 1.932 0 0 0 2.203-1.57 1.94 1.94 0 0 0-1.02-2.496 1.932 1.932 0 0 0-2.203 1.57 1.94 1.94 0 0 0 1.02 2.497zm3.672-.405a1.93 1.93 0 0 0-2.343 1.325 1.934 1.934 0 0 0 .735 2.595 1.93 1.93 0 0 0 2.342-1.326 1.934 1.934 0 0 0-.734-2.595v.001zm-6.683.405a1.94 1.94 0 0 0 1.02-2.497 1.932 1.932 0 0 0-2.203-1.57 1.94 1.94 0 0 0-1.02 2.497 1.932 1.932 0 0 0 2.203 1.57zm-2.1 3.515a1.941 1.941 0 0 0 .734-2.595 1.93 1.93 0 0 0-2.307-1.325 1.941 1.941 0 0 0-.734 2.594 1.93 1.93 0 0 0 2.344 1.325h-.038v.001z"/>
        <path d="M12.375.051L0 10.995l1.314 1.473 11.112-9.83 11.074 9.83 1.315-1.475L12.485.053 12.426 0l-.051.051zM2.32 15.91c-.02 1.164.061 2.327.242 3.477a6.311 6.311 0 0 0 2.893 3.684c1.674.863 2.534 1.791 2.85 2.992l.242 1.04h3.488v-.62a6.978 6.978 0 0 0-1.189-3.456 7.429 7.429 0 0 0-1.94-1.525A7.724 7.724 0 0 1 5.97 19.07c-1.079-2.005-1.137-1.223-.735.331.398.738 0 .738-.44-.066a3.221 3.221 0 0 1-.462-2.52c.213-1.659.096-1.783-.793-2.616a3.212 3.212 0 0 0-.992-.818 8.228 8.228 0 0 0-.227 2.528zm19.975-2.565c-.385.202-.724.48-.998.818-.89.825-1.007.958-.794 2.616.201.868.034 1.78-.462 2.52-.463.774-.837.818-.441.066.389-1.554.323-2.335-.735-.331a7.724 7.724 0 0 1-2.937 2.43 7.428 7.428 0 0 0-1.976 1.534 6.978 6.978 0 0 0-1.19 3.456v.62h3.49l.241-1.04c.309-1.193 1.168-2.122 2.85-2.99a6.312 6.312 0 0 0 2.893-3.686c.182-1.15.263-2.313.242-3.477a8.18 8.18 0 0 0-.183-2.535v-.001z"/>
    </g>
</svg>
