<svg xmlns="http://www.w3.org/2000/svg" width="136" height="27" viewBox="0 0 136 27">
    <g fill="#8E8E8E" fill-rule="nonzero">
        <path d="M13.702 26.9C6.135 26.9 0 20.9 0 13.5S6.135.1 13.702.1c7.568 0 13.703 6 13.703 13.4S21.27 26.9 13.702 26.9zm-.102-1.1c6.89 0 12.475-5.462 12.475-12.2 0-6.738-5.585-12.2-12.475-12.2S1.125 6.862 1.125 13.6c0 6.738 5.585 12.2 12.475 12.2z"/>
        <path d="M18.353 8.062H12.28L2.839 18.138h2.723l1.48-1.296h6.086v1.296h5.225c3.546 0 6.255-1.108 6.255-5.038 0-3.9-2.725-5-6.304-5.038h.049zm-9.304 6.909l4.079-4.221v4.221h-4.08zm9.304 1.329h-3.018V9.933h3.018c2.546 0 4.09.7 4.09 3.167-.043 2.5-1.583 3.2-4.14 3.167l.05.033zM38.868 20.017v-.871c-.594.799-1.689 1.125-2.673 1.125-1.577 0-3.137-.998-3.137-3.05 0-2.251 1.764-3.195 3.527-3.195.724 0 1.636.1 2.25.327v-.345c0-1.089-.724-1.634-1.894-1.634-.872 0-1.874.363-2.506.98l-.984-1.597c1.058-.817 2.506-1.27 3.806-1.27 2.413 0 3.988 1.1 3.988 3.649v5.882h-2.377v-.001zm0-4.066a4.926 4.926 0 0 0-1.652-.309c-.91 0-1.653.418-1.653 1.452 0 1 .614 1.4 1.432 1.4.742 0 1.541-.381 1.894-1.035v-1.508h-.02zM49.357 20.017v-.727c-.54.654-1.467.981-2.432.981-2.245 0-3.99-2.015-3.99-4.865 0-2.814 1.707-4.919 3.972-4.919.89 0 1.943.4 2.454 1.053V7.273l2.376-.581v13.325h-2.38zM45.459 15.4c0 1.7.716 2.8 2.045 2.777.669 0 1.336-.381 1.819-1.035v-3.54c-.464-.617-1.188-1.053-1.856-1.053-1.266.051-1.963 1.251-1.963 2.876l-.045-.025zM65.787 20.017v-5.9c0-1.924-.818-2.469-1.931-2.469-.836 0-1.968.454-2.747 1.2.075.4.102.8.102 1.289v5.864h-1.3v-5.9c0-1.924-.835-2.469-1.93-2.469-.91 0-1.912.454-2.635 1.107v7.262h-1.3v-9.24h1.3v.78c.872-.69 1.912-1.071 2.952-1.071 1.132 0 2.045.4 2.454 1.434 1.022-1.017 2.432-1.434 3.397-1.434 1.746 0 2.863 1 2.863 3.667v5.864h-1.225v.016zM70.894 7.273v1.289h-1.337V7.273h1.337zm-.019 3.504v9.24h-1.3v-9.24h1.3zM73.771 11.884h-1.188v-1.107h1.188V8.834l1.3-.49v2.433h3.08v1.107h-3.08v5.028c0 1.7.614 2.3 1.738 2.251.52 0 .984-.181 1.282-.417l.445 1.144c-.557.218-1.298.417-1.968.4-1.615 0-2.803-.654-2.803-3.377v-5.029h.006zM85.115 20.017v-.871c-.595.799-1.69 1.125-2.673 1.125-1.578 0-3.138-.998-3.138-3.05 0-2.251 1.764-3.195 3.528-3.195.724 0 1.636.1 2.25.327v-.345c0-1.089-.724-1.634-1.894-1.634-.872 0-1.874.363-2.506.98l-.984-1.597c1.058-.817 2.506-1.27 3.805-1.27 2.413 0 3.988 1.1 3.988 3.649v5.882h-2.376v-.001zm0-4.066a4.926 4.926 0 0 0-1.653-.309c-.91 0-1.651.418-1.651 1.452 0 1 .613 1.4 1.431 1.4.743 0 1.541-.381 1.894-1.035v-1.508h-.021zM95.604 20.017v-.727c-.539.654-1.466.981-2.433.981-2.245 0-3.99-2.015-3.99-4.865 0-2.814 1.708-4.919 3.973-4.919.89 0 1.943.4 2.454 1.053V7.273l2.375-.581v13.325h-2.38zm-3.9-4.617c0 1.7.717 2.8 2.046 2.777.668 0 1.336-.381 1.82-1.035v-3.54c-.465-.617-1.19-1.053-1.858-1.053-1.265.051-1.989 1.251-1.989 2.876l-.018-.025zM101.898 18.238v1.779h-1.82v-1.779zM110.419 12.774c-.631-.726-1.263-1.162-2.302-1.162-1.763 0-2.989 1.634-2.989 3.8 0 2.1 1.227 3.7 3.068 3.721 1.095 0 1.764-.508 2.358-1.361l.816.763c-.816 1.162-1.838 1.725-3.249 1.7-2.58 0-4.344-2.16-4.344-4.883 0-2.687 1.82-4.938 4.344-4.938 1.337 0 2.352.5 3.17 1.488l-.872.872zM120.907 15.388c0 2.723-1.709 4.92-4.195 4.92-2.469 0-4.214-2.196-4.214-4.92 0-2.687 1.744-4.901 4.214-4.901 2.487.013 4.154 2.213 4.154 4.901h.041zm-6.998.037c0 2.1.92 3.8 2.76 3.8 1.82 0 2.785-1.615 2.785-3.757 0-2.215-.947-3.812-2.784-3.812-1.778-.056-2.757 1.544-2.757 3.769h-.004zM134.701 20.017v-5.9c0-1.924-.817-2.469-1.931-2.469-.836 0-1.969.454-2.747 1.2.074.4.102.8.102 1.289v5.864h-1.3v-5.9c0-1.924-.835-2.469-1.93-2.469-.91 0-1.912.454-2.636 1.107v7.262h-1.3v-9.24h1.3v.78c.873-.69 1.912-1.071 2.951-1.071 1.133 0 2.045.4 2.454 1.434 1.022-1.017 2.433-1.434 3.398-1.434 1.745 0 2.863 1 2.863 3.667v5.864h-1.224v.016z"/>
    </g>
</svg>
