<svg width="178" height="47" viewBox="0 0 178 47" fill="none" xmlns="http://www.w3.org/2000/svg">
<path d="M20.707 20.6999C20.795 21.4199 20.8245 22.02 20.8245 22.5297C20.8245 28.6201 16.5599 32.9998 10.6181 32.9998C4.64741 32.9998 0 28.4097 0 22.5001C0 16.6201 4.61789 12 10.5301 12C14.9123 12 18.7652 14.1003 20.1476 18.0295L15.4712 19.4104C14.3239 17.1299 12.4417 16.5298 10.5301 16.5298C7.32409 16.5298 4.88255 19.1098 4.88255 22.5001C4.88255 25.9201 7.38261 28.5001 10.6767 28.5001C13.2653 28.5001 15.148 27.1198 15.8829 24.9001H9.85317V20.6999H20.707ZM34.324 25.0198C34.324 22.6801 32.5884 21.1202 30.7647 21.1202C28.853 21.1202 27.1175 22.6801 27.1175 25.0198C27.1175 27.3895 28.853 28.9199 30.7647 28.9199C32.5884 28.9199 34.324 27.3895 34.324 25.0198ZM38.8538 25.0198C38.8538 29.7899 35.1474 32.9701 30.7647 32.9701C26.2944 32.9701 22.5881 29.7899 22.5881 25.0198C22.5881 20.2797 26.2944 17.1001 30.7647 17.1001C35.1474 17.1001 38.8538 20.2797 38.8538 25.0198ZM48.9118 28.2601C52.5886 28.2601 55.0006 25.9802 55.0006 22.5005C55.0006 19.0204 52.5886 16.7399 48.9118 16.7399H46.147V28.2601H48.9118ZM49.0884 12.4499C55.589 12.4499 59.8832 16.5302 59.8832 22.5005C59.8832 28.4698 55.589 32.5501 49.0884 32.5501H41.294V12.4499H49.0884ZM66.3525 23.3101H72.4408C72 21.6905 70.8234 20.9399 69.4705 20.9399C68.1467 20.9399 66.7939 21.7803 66.3525 23.3101ZM77.0887 26.2494H66.2645C66.6468 28.0502 67.8525 29.1595 69.441 29.1595C70.5291 29.1595 71.7939 28.8902 72.5885 27.42L76.7651 28.29C75.5002 31.4696 72.8236 33 69.441 33C65.1763 33 61.6466 29.7903 61.6466 25.0196C61.6466 20.2801 65.1763 17.0403 69.4705 17.0403C73.6471 17.0403 77.0002 20.0999 77.0887 25.0196V26.2494ZM83.2643 23.3101H89.3526C88.9113 21.6905 87.7351 20.9399 86.3822 20.9399C85.0584 20.9399 83.7056 21.7803 83.2643 23.3101ZM94 26.2494H83.1763C83.5585 28.0502 84.7642 29.1595 86.3527 29.1595C87.4409 29.1595 88.7057 28.8902 89.5002 27.42L93.6768 28.29C92.4121 31.4696 89.7353 33 86.3527 33C82.088 33 78.5583 29.7903 78.5583 25.0196C78.5583 20.2801 82.088 17.0403 86.3822 17.0403C90.5589 17.0403 93.9119 20.0999 94 25.0196V26.2494Z" fill="black"/>
</svg>
