<?xml version="1.0" encoding="UTF-8"?>
<svg width="95px" height="29px" viewBox="0 0 95 29" version="1.1" xmlns="http://www.w3.org/2000/svg" xmlns:xlink="http://www.w3.org/1999/xlink">
    <!-- Generator: Sketch 52.6 (67491) - http://www.bohemiancoding.com/sketch -->
    <title>GuardRails</title>
    <desc>Created with Sketch.</desc>
    <g id="home-S-9-photo-GDG" stroke="none" stroke-width="1" fill="none" fill-rule="evenodd" opacity=".5">
        <g id="GuardRails" transform="translate(1.000000, 1.000000)" fill="#FFFFFF">
            <path d="M22.0522287,11.8740445 C22.1898512,12.4757011 22.2707771,13.0983847 22.2707771,13.7406616 C22.2707771,18.4397005 18.3940868,22.262777 13.6291498,22.262777 C8.86421284,22.262777 4.98752255,18.4397005 4.98752255,13.7406616 C4.98752255,9.04162266 8.86421284,5.21854617 13.6291498,5.21854617 C15.8727844,5.21854617 17.9099851,6.07539318 19.4475774,7.46316996 C19.5735699,7.35803535 19.7097386,7.26532575 19.8478457,7.17500556 C18.2162437,5.67062496 16.033667,4.74066159 13.6291498,4.74066159 C8.59672124,4.74066159 4.50293624,8.77830828 4.50293624,13.7406616 C4.50293624,18.7030149 8.59720581,22.7406616 13.6291498,22.7406616 C18.6610939,22.7406616 22.7553634,18.7034928 22.7553634,13.7406616 C22.7553634,13.0056751 22.6540849,12.2950608 22.4844797,11.611208 C22.3395884,11.6977051 22.1942125,11.7832464 22.0522287,11.8740445 Z" id="Path" stroke="#FFFFFF" stroke-width="0.5"></path>
            <path d="M13.6893204,0 C10.0191026,0 6.68581474,1.43610811 4.22519024,3.76297296 C4.34309107,3.87583785 4.45951195,3.98918919 4.5749462,4.10448648 C6.9457885,1.86664865 10.1562424,0.486486486 13.6893204,0.486486486 C20.9656258,0.486486486 26.8853319,6.32432433 26.8853319,13.5 C26.8853319,20.6756757 20.9656258,26.5135135 13.6893204,26.5135135 C6.41301496,26.5135135 0.493308842,20.6756757 0.493308842,13.5 C0.493308842,11.6513513 0.889929154,9.89318919 1.59782734,8.29897296 C1.46759381,8.19340542 1.33440042,8.09270271 1.19578063,7.99832433 C0.431151929,9.6801081 0,11.5404324 0,13.5 C0,20.9437297 6.14120179,27 13.6893204,27 C21.237439,27 27.3786408,20.9437297 27.3786408,13.5 C27.3786408,6.05627028 21.237439,0 13.6893204,0 Z" id="Path" stroke="#FFFFFF" stroke-width="0.5"></path>
            <ellipse id="Oval" cx="13.6893204" cy="13.8" rx="4.5631068" ry="4.5"></ellipse>
            <ellipse id="Oval" cx="21.2944984" cy="9.3" rx="1.5210356" ry="1.5"></ellipse>
            <ellipse id="Oval" cx="2.73786408" cy="6" rx="1.5210356" ry="1.5"></ellipse>
            <path d="M36.3630939,19.0935 C33.9038835,19.0935 32.3210939,17.2488 32.3210939,14.385 C32.3210939,11.5341 33.9169644,9.6765 36.3630939,9.6765 C38.2859871,9.6765 39.7379676,10.9407 39.9734239,12.7725 L38.0897735,13.0692 C37.8935599,12.0372 37.2656764,11.418 36.3630939,11.418 C35.0419223,11.418 34.257068,12.5274 34.257068,14.385 C34.257068,16.2426 35.0419223,17.352 36.3761748,17.352 C37.4488091,17.352 38.0897735,16.7328 38.1028544,15.6621 L36.4677411,15.6621 L36.4677411,14.127 L39.9341812,14.127 L39.9341812,15.3525 C39.9341812,17.61 38.5214434,19.0935 36.3630939,19.0935 Z M43.3005372,19.0935 C41.7308285,19.0935 40.815165,18.1518 40.815165,16.5651 L40.815165,12.063 L42.6857346,12.063 L42.6857346,16.1394 C42.6857346,16.9908 43.0912427,17.4036 43.889178,17.4036 C44.6347896,17.4036 45.1057023,16.9134 45.1057023,16.1394 L45.1057023,12.063 L46.9762718,12.063 L46.9762718,18.9 L45.1972686,18.9 L45.1972686,18.2937 L45.1711068,18.2937 C44.7655987,18.7839 44.0592298,19.0935 43.3005372,19.0935 Z M50.3033851,19.0935 C48.92989,19.0935 48.0273074,18.2808 48.0273074,17.0424 C48.0273074,15.8943 48.7205955,15.2751 50.4995987,14.8494 C51.5983948,14.5914 51.9384984,14.3979 51.9384984,14.0367 C51.9384984,13.6368 51.5853139,13.4046 50.9835922,13.4046 C50.2641424,13.4046 49.7932298,13.8045 49.6624207,14.5011 L47.948822,14.127 C48.1581165,12.7725 49.3877217,11.8695 50.9835922,11.8695 C52.7233527,11.8695 53.8221489,12.8628 53.8221489,14.4624 L53.8221489,18.9 L52.1477929,18.9 L52.1477929,18.3582 L52.1216311,18.3582 C51.7815275,18.8355 51.1405631,19.0935 50.3033851,19.0935 Z M50.6696505,17.5455 C51.4545049,17.5455 52.0039029,17.1585 52.0039029,16.5909 L52.0039029,15.5976 L51.9777411,15.5976 C51.8600129,15.804 51.572233,15.9588 50.9443495,16.1394 C50.1071715,16.3587 49.8193916,16.5651 49.8193916,16.9263 C49.8193916,17.3391 50.1071715,17.5455 50.6696505,17.5455 Z M54.9909126,18.9 L54.9909126,12.063 L56.743754,12.063 L56.743754,12.6693 L56.7699159,12.6693 C57.0707767,12.2178 57.580932,11.934 58.2611392,11.934 C58.6012427,11.934 58.8890227,11.9727 59.1637217,12.0501 L58.8497799,13.8045 C58.5489191,13.7271 58.3265437,13.7013 58.0780065,13.7013 C57.2800712,13.7013 56.8614822,14.2302 56.8614822,15.2235 L56.8614822,18.9 L54.9909126,18.9 Z M62.2684595,19.0935 C60.4632945,19.0935 59.1682848,17.5842 59.1682848,15.4815 C59.1682848,13.3788 60.4632945,11.8695 62.2684595,11.8695 C62.9879094,11.8695 63.602712,12.0759 64.0343819,12.4758 L64.0605437,12.4758 L64.0605437,9.483 L65.9311133,9.483 L65.9311133,18.9 L64.2044337,18.9 L64.2044337,18.2937 L64.1782718,18.2937 C63.7989256,18.7452 63.0925566,19.0935 62.2684595,19.0935 Z M62.621644,17.4036 C63.458822,17.4036 64.0605437,16.7973 64.0605437,15.9717 L64.0605437,14.9913 C64.0605437,14.1528 63.458822,13.5594 62.621644,13.5594 C61.6013333,13.5594 61.0388544,14.256 61.0388544,15.4815 C61.0388544,16.6941 61.6144142,17.4036 62.621644,17.4036 Z M72.4892104,15.5202 L74.346699,18.9 L72.2668349,18.9 L70.5401553,15.7266 L69.3628738,15.7266 L69.3628738,18.9 L67.4268997,18.9 L67.4268997,9.87 L71.1549579,9.87 C73.090932,9.87 74.2812945,10.9794 74.2812945,12.7854 C74.2812945,14.1012 73.6141683,15.0816 72.4892104,15.5073 L72.4892104,15.5202 Z M69.3628738,13.9851 L70.9195016,13.9851 C71.848246,13.9851 72.3453204,13.5594 72.3453204,12.7725 C72.3453204,11.9985 71.8613269,11.6115 70.9195016,11.6115 L69.3628738,11.6115 L69.3628738,13.9851 Z M77.3467896,19.0935 C75.9732945,19.0935 75.070712,18.2808 75.070712,17.0424 C75.070712,15.8943 75.764,15.2751 77.5430032,14.8494 C78.6417993,14.5914 78.9819029,14.3979 78.9819029,14.0367 C78.9819029,13.6368 78.6287184,13.4046 78.0269968,13.4046 C77.3075469,13.4046 76.8366343,13.8045 76.7058252,14.5011 L74.9922265,14.127 C75.201521,12.7725 76.4311262,11.8695 78.0269968,11.8695 C79.7667573,11.8695 80.8655534,12.8628 80.8655534,14.4624 L80.8655534,18.9 L79.1911974,18.9 L79.1911974,18.3582 L79.1650356,18.3582 C78.824932,18.8355 78.1839676,19.0935 77.3467896,19.0935 Z M77.713055,17.5455 C78.4979094,17.5455 79.0473074,17.1585 79.0473074,16.5909 L79.0473074,15.5976 L79.0211456,15.5976 C78.9034175,15.804 78.6156375,15.9588 77.987754,16.1394 C77.150576,16.3587 76.8627961,16.5651 76.8627961,16.9263 C76.8627961,17.3391 77.150576,17.5455 77.713055,17.5455 Z M82.0081553,10.9407 L82.0081553,9.1347 L83.9048867,9.1347 L83.9048867,10.9407 L82.0081553,10.9407 Z M82.0343171,18.9 L82.0343171,12.063 L83.9048867,12.063 L83.9048867,18.9 L82.0343171,18.9 Z M85.139055,18.9 L85.139055,9.483 L87.0096246,9.483 L87.0096246,18.9 L85.139055,18.9 Z M91.0823495,19.0935 C89.3164272,19.0935 88.1391456,18.2421 87.8382848,16.6941 L89.4995599,16.2555 C89.7219353,17.1714 90.1928479,17.5842 91.0823495,17.5842 C91.7363948,17.5842 92.128822,17.3778 92.128822,17.0295 C92.128822,16.4877 91.4486149,16.2942 90.6245178,16.0362 C89.4472362,15.7137 88.2045502,15.3138 88.2045502,13.9335 C88.2045502,12.7596 89.3164272,11.8695 90.8207314,11.8695 C92.2203883,11.8695 93.4238317,12.6693 93.7508544,13.8819 L92.1026602,14.3592 C91.8672039,13.6884 91.4093722,13.3659 90.8207314,13.3659 C90.2713333,13.3659 89.9443107,13.5981 89.9443107,13.9077 C89.9443107,14.256 90.4675469,14.3979 91.1869968,14.6043 C92.3904401,14.9397 93.8685825,15.3783 93.8685825,16.965 C93.8685825,18.2421 92.7697864,19.0935 91.0823495,19.0935 Z" id="GuardRails-Copy"></path>
        </g>
    </g>
</svg>