<svg width="178" height="47" viewBox="0 0 178 47" fill="none" xmlns="http://www.w3.org/2000/svg">
<path fill-rule="evenodd" clip-rule="evenodd" d="M27.5896 21.9525C27.7672 21.8382 27.9491 21.7304 28.1304 21.6215C28.3426 22.4827 28.4693 23.3775 28.4693 24.3031C28.4693 30.5525 23.3469 35.6364 17.0515 35.6364C10.756 35.6364 5.63363 30.5519 5.63363 24.3031C5.63363 18.0542 10.7554 12.9697 17.0515 12.9697C20.0597 12.9697 22.7904 14.1408 24.8317 16.0352C24.6589 16.1489 24.4885 16.2657 24.3309 16.3981C22.4072 14.6505 19.8585 13.5715 17.0515 13.5715C11.09 13.5715 6.2399 18.3857 6.2399 24.3031C6.2399 30.2204 11.09 35.0346 17.0515 35.0346C23.0129 35.0346 27.863 30.2204 27.863 24.3031C27.863 23.4943 27.7618 22.7101 27.5896 21.9525ZM17.1267 7C26.5702 7 34.2535 14.6264 34.2535 24C34.2535 33.3736 26.5702 41 17.1267 41C7.68327 41 0 33.3736 0 24C0 21.5324 0.539415 19.1898 1.49604 17.072C1.66947 17.1908 1.83611 17.3176 1.99904 17.4506C1.11339 19.4581 0.617179 21.6721 0.617179 24C0.617179 33.036 8.02333 40.3874 17.1267 40.3874C26.2301 40.3874 33.6363 33.036 33.6363 24C33.6363 14.964 26.2301 7.61261 17.1267 7.61261C12.7065 7.61261 8.68989 9.35059 5.72372 12.1686C5.5793 12.0234 5.43365 11.8807 5.28614 11.7386C8.36463 8.80843 12.5349 7 17.1267 7ZM17.1267 30.0444C13.9738 30.0444 11.4178 27.5074 11.4178 24.3778C11.4178 21.2482 13.9738 18.7111 17.1267 18.7111C20.2797 18.7111 22.8356 21.2482 22.8356 24.3778C22.8356 27.5074 20.2797 30.0444 17.1267 30.0444ZM26.6416 20.6C25.5906 20.6 24.7386 19.7543 24.7386 18.7111C24.7386 17.6679 25.5906 16.8222 26.6416 16.8222C27.6926 16.8222 28.5445 17.6679 28.5445 18.7111C28.5445 19.7543 27.6926 20.6 26.6416 20.6ZM3.42535 16.4444C2.37436 16.4444 1.52238 15.5988 1.52238 14.5556C1.52238 13.5124 2.37436 12.6667 3.42535 12.6667C4.47633 12.6667 5.32832 13.5124 5.32832 14.5556C5.32832 15.5988 4.47633 16.4444 3.42535 16.4444ZM59.1954 23.9725H59.4035V30.12H57.4823V29.2492C56.6032 29.7223 55.5765 29.9966 54.4055 29.9966C51.1166 29.9966 48.418 27.7308 48.418 24.2322C48.418 20.717 51.1166 18.4845 54.4055 18.4845C56.7499 18.4845 58.2172 19.6507 59.0605 20.9669L57.0703 22.0331C56.5643 21.2501 55.603 20.5837 54.4055 20.5837C52.3647 20.5837 50.8805 22.1331 50.8805 24.2322C50.8805 26.3314 52.3647 27.8808 54.4055 27.8808C55.4006 27.8808 56.3451 27.4476 56.8005 27.0311L57.0703 26.8252L57.4823 26.4147V25.6983H55.0749V23.9725H59.1954ZM68.2088 29.9799C64.785 29.9799 63.1321 28.0807 63.1321 25.3484V18.6678H65.5608V25.2651C65.5608 26.8145 66.4716 27.8808 68.2088 27.8808C69.946 27.8808 70.8399 26.8145 70.8399 25.2651V18.6678H73.2855V25.3318C73.2855 28.0973 71.6326 29.9799 68.2088 29.9799ZM87.4599 29.78H84.7276L84.0361 27.8974H79.2124L78.504 29.78H75.7717L80.1231 18.6678H83.1253L87.4599 29.78ZM83.3783 25.8149L81.6242 21.0335L79.8701 25.8149H83.3783ZM99.6441 29.78H96.8949L94.6854 25.8316H92.9314V29.78H90.5364V18.6678H95.7986C98.143 18.6678 99.5766 20.1838 99.5766 22.2497C99.5766 24.2156 98.3285 25.2651 97.1142 25.5484L99.6441 29.78ZM95.4444 23.7491C96.4058 23.7491 97.131 23.1826 97.131 22.2497C97.131 21.3167 96.4058 20.7503 95.4444 20.7503H92.9314V23.7491H95.4444ZM107.848 29.78H103.412V18.6678H107.848C111.373 18.6678 113.818 20.8836 113.818 24.2322C113.818 27.5809 111.373 29.78 107.848 29.78ZM107.848 27.6975C110.074 27.6975 111.373 26.1148 111.373 24.2322C111.373 22.2663 110.159 20.7503 107.848 20.7503H105.807V27.6975H107.848ZM126.66 29.78H123.911L121.702 25.8316H119.948V29.78H117.553V18.6678H122.815C125.159 18.6678 126.593 20.1838 126.593 22.2497C126.593 24.2156 125.345 25.2651 124.13 25.5484L126.66 29.78ZM122.461 23.7491C123.422 23.7491 124.147 23.1826 124.147 22.2497C124.147 21.3167 123.422 20.7503 122.461 20.7503H119.948V23.7491H122.461ZM140.919 29.78H138.187L137.495 27.8974H132.672L131.963 29.78H129.231L133.582 18.6678H136.585L140.919 29.78ZM136.838 25.8149L135.083 21.0335L133.329 25.8149H136.838ZM146.391 29.78H143.996V18.6678H146.391V29.78ZM158.832 29.78H150.648V18.6678H153.043V27.6975H158.832V29.78ZM165.497 29.9799C163.338 29.9799 161.786 29.2635 160.741 28.214L162.039 26.4147C162.832 27.231 164.063 27.9141 165.615 27.9141C166.93 27.9141 167.571 27.3143 167.571 26.6812C167.571 24.7154 161.095 26.0648 161.095 21.8832C161.095 20.0339 162.714 18.5012 165.362 18.5012C167.15 18.5012 168.634 19.0343 169.747 20.0506L168.415 21.7832C167.504 20.9502 166.289 20.567 165.143 20.567C164.114 20.567 163.54 21.0168 163.54 21.6832C163.54 23.4492 170 22.2663 170 26.4147C170 28.4472 168.533 29.9799 165.497 29.9799Z" fill="white"/>
</svg>
