<svg xmlns="http://www.w3.org/2000/svg" width="150" height="30" viewBox="0 0 150 30">
    <path fill="#8E8E8E" fill-rule="nonzero" d="M0 30L5.869 0h10.9l-5.87 30H0zM26.384 0c8.321.038 15.058 6.731 15.096 15-.089 8.232-6.81 14.87-15.096 14.908V30h-6.968V0h6.968zm26.101 8.36V6.997h5.62v1.365l-1.751.3v12.325l1.752.3v1.354h-5.621v-1.353l1.752-.301V8.662l-1.752-.301zm13.258-1.364c2.042 0 3.684.629 4.927 1.886 1.243 1.257 1.865 2.881 1.865 4.873v2.138c0 1.998-.622 3.623-1.865 4.872-1.243 1.25-2.885 1.875-4.927 1.875h-6.556v-1.353l1.752-.301V8.662l-1.752-.301V6.996h6.556zm-2.687 1.666v12.324h2.687c1.447 0 2.588-.477 3.423-1.43.834-.952 1.252-2.173 1.252-3.663v-2.16c0-1.475-.418-2.69-1.252-3.642-.835-.953-1.976-1.43-3.423-1.43h-2.687zm26.25 1.45l-.053-.01-5.062 12.538h-1.408l-5.062-12.528-.053.011.215 6.329v4.534l1.751.3v1.354h-5.62v-1.353l1.752-.301V8.662l-1.752-.301V6.996h4.46l4.986 12.711h.065L88.5 6.997h4.47V8.36l-1.751.3v12.325l1.751.3v1.354h-5.62v-1.353l1.752-.301v-4.534l.204-6.34zm4.586 11.175l1.16-.162 5.47-14.129h1.817l5.373 14.13 1.15.16v1.354h-4.492v-1.353l1.182-.205-1.032-2.88h-6.265l-1.064 2.88 1.182.205v1.353h-4.481v-1.353zm5.018-4.857h4.966l-2.43-6.715h-.064L98.91 16.43zm21.555-9.434v3.46h-1.806l-.16-1.794h-3.472v12.324l1.752.3v1.354h-5.621v-1.353l1.752-.301V8.662h-3.482l-.15 1.794h-1.817v-3.46h13.004zm12.57 4.803h-1.494l-.398-2.213a4.094 4.094 0 0 0-1.268-.828c-.502-.214-1.1-.322-1.795-.322-1.626 0-2.876.59-3.75 1.768-.875 1.178-1.312 2.673-1.312 4.485v.248c0 1.812.429 3.31 1.285 4.496.856 1.186 2.043 1.778 3.562 1.778.71 0 1.354-.11 1.935-.333.58-.222 1.028-.494 1.343-.816l.398-2.214h1.494v2.783c-.452.58-1.129 1.098-2.032 1.553-.902.455-1.948.682-3.138.682-2.034 0-3.704-.752-5.008-2.256-1.304-1.505-1.956-3.396-1.956-5.673v-.226c0-2.292.641-4.189 1.924-5.69 1.282-1.5 2.963-2.25 5.04-2.25 1.19 0 2.236.23 3.138.693.903.462 1.58.98 2.032 1.552V11.8zm1.64-3.438V6.996h5.62v1.365l-1.751.3v5.405h7.587V8.662l-1.752-.301V6.996H150v1.365l-1.752.3v12.325l1.752.3v1.354h-5.62v-1.353l1.751-.301v-5.254h-7.587v5.254l1.751.3v1.354h-5.62v-1.353l1.752-.301V8.662l-1.752-.301z"/>
</svg>
