<svg xmlns="http://www.w3.org/2000/svg" width="144" height="24" viewBox="0 0 144 24">
    <g fill="#FFF" fill-rule="nonzero" opacity=".5">
        <path d="M17.366 23.038h-2.29L4.77 7.971c-1.05-1.555-2.1-3.11-2.863-4.763.096 1.75.191 3.597.191 5.346v14.484H0V.583h2.29l10.305 15.165a61.425 61.425 0 0 1 2.862 4.666c-.095-1.945-.19-3.986-.19-5.93V.584h2.003v22.454h.096zM35.4 22.941c-.573.194-.955.292-1.527.292-1.909 0-2.1-1.459-2.1-2.917-1.24 2.042-3.339 3.111-6.01 3.111-3.245 0-5.249-1.653-5.249-4.569s2.004-4.568 5.916-5.055c2.481-.291 3.912-.291 4.676-.874.381-.292.572-.68.572-1.556 0-2.722-1.622-3.5-4.103-3.5-2.671 0-4.103 1.167-4.293 3.792h-1.813c.19-3.5 2.48-5.444 6.392-5.444 3.626 0 5.82 1.653 5.82 4.666v8.846c0 .972 0 1.653 1.05 1.653.287 0 .382 0 .764-.098v1.653h-.096zm-8.016-7.582c-2.003.291-4.77.777-4.77 3.402 0 1.847 1.43 3.11 3.625 3.11 2.863 0 5.44-1.846 5.44-4.957V14.29c-.573.583-2.195.777-4.295 1.069zM39.407 9.624c1.24-2.042 2.767-3.306 5.248-3.306 2.29 0 4.007 1.167 4.58 3.111 1.05-1.944 2.862-3.11 5.248-3.11 2.671 0 5.152 1.458 5.152 5.054v11.568h-1.908V11.957c0-2.528-1.24-3.889-3.722-3.889-2.862 0-4.389 1.944-4.389 4.958v9.915h-1.908v-10.79c0-2.43-.954-3.986-3.53-3.986-3.245 0-4.676 2.528-4.676 5.638v9.235h-1.908V6.805h1.813v2.819zM65.17 9.915c.953-2.333 3.052-3.597 5.629-3.597 4.293 0 7.156 3.306 7.156 8.555s-2.767 8.554-7.252 8.554c-2.671 0-4.77-1.264-5.725-3.597v3.111h-1.717V.583h1.908v9.332zm0 4.958c0 4.277 2.098 6.999 5.438 6.999 3.244 0 5.343-2.722 5.343-7 0-4.276-2.099-6.901-5.439-6.901-3.244 0-5.343 2.722-5.343 6.902zM95.034 22.941c-.572.194-.954.292-1.526.292-1.909 0-2.1-1.459-2.1-2.917-1.335 2.139-3.339 3.208-6.01 3.208-3.245 0-5.249-1.652-5.249-4.569 0-2.916 2.004-4.568 5.916-5.054 2.481-.292 3.912-.292 4.676-.875.381-.292.572-.68.572-1.556 0-2.721-1.622-3.499-4.103-3.499-2.671 0-4.103 1.167-4.293 3.791h-1.813c.19-3.5 2.48-5.444 6.393-5.444 3.625 0 5.82 1.653 5.82 4.666v8.846c0 .972 0 1.653 1.05 1.653.286 0 .381 0 .763-.097v1.555h-.096zm-8.11-7.582c-2.004.291-4.77.777-4.77 3.402 0 1.847 1.43 3.11 3.625 3.11 2.863 0 5.439-1.846 5.439-4.957V14.29c-.573.583-2.1.777-4.294 1.069zM112.018 2.43h-7.728v20.608h-2.1V2.43h-7.728V.583h17.556zM124.232 22.941c-.573.194-.954.292-1.527.292-1.908 0-2.1-1.459-2.1-2.917-1.335 2.139-3.339 3.208-6.01 3.208-3.244 0-5.248-1.652-5.248-4.569 0-2.916 2.004-4.568 5.916-5.054 2.48-.292 3.912-.292 4.675-.875.382-.292.572-.68.572-1.556 0-2.721-1.622-3.499-4.102-3.499-2.672 0-4.103 1.167-4.294 3.791H110.3c.19-3.5 2.48-5.444 6.393-5.444 3.626 0 5.82 1.653 5.82 4.666v8.846c0 .972 0 1.653 1.05 1.653.286 0 .381 0 .763-.097v1.555h-.095zm-8.015-7.582c-2.004.291-4.771.777-4.771 3.402 0 1.847 1.431 3.11 3.626 3.11 2.862 0 5.438-1.846 5.438-4.957V14.29c-.572.583-2.194.777-4.293 1.069zM133.105 14.387l6.298 8.651h-2.48l-4.2-5.93c-.285-.388-.476-.583-.763-1.263-.19.389-.572.875-.763 1.166L127 22.941h-2.29l6.202-8.457-5.916-7.68h2.48l3.436 4.764c.382.486.668 1.069.954 1.555.668-.972.477-.68 1.05-1.555l3.53-4.763h2.29l-5.63 7.582zM143.315 23.038h-1.908V6.805h1.908z"/>
        <ellipse cx="141.825" cy="2.157" rx="2.117" ry="2.157"/>
    </g>
</svg>
