<svg xmlns="http://www.w3.org/2000/svg" width="131" height="40" viewBox="0 0 131 40">
    <g fill="none" fill-rule="nonzero" opacity=".5">
        <path fill="#FAFAFA" fill-opacity=".72" d="M32 20.086l-1.973 17.93h-.614c-.51 1.019-2.51 1.902-9.975 1.902-2.463 0-5.518-.23-9.292-.598 1.693.328 3.405.555 5.126.68-3.125-.224-5.981-.714-7.768-1.495-.883-1.577-1.462-4.792-1.842-8.455l.062.122a154.465 154.465 0 0 1-.469-5.499v-.305c-.034-.619-.069-1.224-.09-1.795-.09-1.97-.137-3.86-.165-5.525A4.9 4.9 0 0 0 5.69 17a19.721 19.721 0 0 0 4.953 1.36 28.768 28.768 0 0 1 4.139.054 25.68 25.68 0 0 0 5.084.788c2.283.088 4.711-.523 6.395-.564 1.683-.04 4.263-.313 4.766-.279.504.034.973 1.727.973 1.727zM30.633 2.694a9.268 9.268 0 0 0-2.688-.307 45.031 45.031 0 0 1-4.626.44 3.347 3.347 0 0 1-1.704-.51A25.51 25.51 0 0 0 16.622.314 29.384 29.384 0 0 0 12.466 0h-.214C2.078 0 0 6.582 0 10.644c0 2.791.956 4.746 5.409 6.149 7.355 2.582 9.828.81 9.828.81a7.337 7.337 0 0 0 4.474 1.395c2.5 0 4.882-1.124 4.848-3.713a10.953 10.953 0 0 0 4.848 1.32c4.398 0 6.593-3.895 6.593-7.35-.172-3.135-2.347-5.793-5.367-6.56z"/>
        <path fill="#FFF" d="M23.62 22.79a9.467 9.467 0 0 0-3.824 1.103 3.163 3.163 0 0 0-2.634-1.104 3.457 3.457 0 0 0-.602.061 8.927 8.927 0 0 1-2.98-.142c-1.085-.217-2.074-1.923-2.115-2.708a3.063 3.063 0 0 0 .256 3.595v9.878h2.558v-8.125a5.361 5.361 0 0 1 2.157-.677c1.21 0 1.555 1.192 1.52 2.404A11.808 11.808 0 0 1 20.39 25.3a5.322 5.322 0 0 1 2.213-.562c1.694 0 1.873 1.598 1.873 3.582v5.145H27V28.05c0-2.932-.436-5.254-3.353-5.254l-.028-.007zm-.727 7.71c-.131-.676-1.417-2.254-2.537-.108.291-.418.783-.66 1.3-.638.516.022.984.305 1.237.747zm.311.752c-.47 4.36-2.212 5.416-3.215 5.674a2.532 2.532 0 0 1-.594.074c-1.506-.053-2.818-1.02-3.284-2.424a.194.194 0 0 1 .057-.197.204.204 0 0 1 .206-.04c.275.083.562.122.85.115 1.037 0 3.146-.433 5.635-3.344a.203.203 0 0 1 .228-.054.202.202 0 0 1 .117.203v-.007zm-2.696 3.351c-.362.25-.68.556-.94.908a1.26 1.26 0 0 1 .366-.826 8.55 8.55 0 0 0-2.537 1.225 2.724 2.724 0 0 0 2.278.583c.81-.16 1.5-.678 1.87-1.402a1.058 1.058 0 0 0-1.023-.488h-.014zm-2.448-4.157a.997.997 0 0 0 .049-.237c0-.588-.488-1.066-1.089-1.066s-1.089.478-1.089 1.066c.002.168.044.333.124.481a2.67 2.67 0 0 1 2.005-.237v-.007z"/>
        <path fill="#FFF" d="M37.987 11.042l-.055-.626a7.724 7.724 0 0 0-2.741-4.852A12.36 12.36 0 0 0 29.928 3c3.913 1.346 5.352 4.455 5.352 6.306 0 3.365-2.172 7.086-6.523 7.086a11.056 11.056 0 0 1-4.797-1.272c0 2.497-2.343 3.58-4.796 3.58a7.975 7.975 0 0 1-3.79-.895 2.632 2.632 0 0 1-.685-.579 6.08 6.08 0 0 1-2.74.734 23.124 23.124 0 0 1-5.366-.922A22.345 22.345 0 0 1 5 16.608v.531a60.515 60.515 0 0 0 12.978 2.692s1.2.067 1.747.067a12.783 12.783 0 0 0 3.625-.444 18.218 18.218 0 0 1 5.242-.821c.777-.002 1.552.063 2.316.195.199.034.816 8.13-1.473 18.608-.041.208-.911 2.26-10.073 2.26-2.446 0-5.482-.147-9.23-.51 1.682.324 3.382.549 5.092.672 1.37.094 2.74.142 4.11.142a52.13 52.13 0 0 0 5.942-.317c1.786-.13 3.535-.56 5.173-1.272 1.172-5.848 1.7-14.509 1.94-20.471h-.336a14.864 14.864 0 0 1-1.953-.135 27.912 27.912 0 0 1-4.002-.834c1.312.371 2.65.65 4.002.834.638.085 1.281.13 1.925.135h.404a8.227 8.227 0 0 0 2.132-.343c2.549-.821 3.624-2.76 3.426-6.555zm7.873 18.594v-2.463-1.185-2.705-2.988c0-.969 0-1.817-.041-2.45-.041-.632 0-.995 0-1.09a.71.71 0 0 1 .596-.733c.105-.01.21-.01.315 0a.687.687 0 0 1 .685.41s.172.317.48.916.685 1.386 1.192 2.368c.507.983.912 1.865 1.282 2.645s.685 1.494 1.027 2.376v-1.615-1.562-1.554-3.352a.563.563 0 0 1 .275-.498c.167-.098.36-.147.555-.14h.089c.227 0 .449.073.63.208a.56.56 0 0 1 .206.525v8.19c0 1.265.034 2.328.054 3.21.021.881 0 1.346 0 1.426.007.099.007.198 0 .296a.665.665 0 0 1-.082.236.402.402 0 0 1-.212.182 1.205 1.205 0 0 1-.377.067h-.09a1.323 1.323 0 0 1-.623-.108.763.763 0 0 1-.35-.444l-.321-.828-.685-1.689c-.144-.639-.432-1.312-.768-2.146-.336-.835-.65-1.508-.925-2.107-.365-.82-.73-1.59-1.096-2.308V29.703a.715.715 0 0 1-.041.202.718.718 0 0 1-.117.182.496.496 0 0 1-.267.148c-.153.035-.31.051-.466.047-.16.004-.32-.016-.473-.06a.522.522 0 0 1-.267-.162.67.67 0 0 1-.103-.189.84.84 0 0 1 0-.208l-.082-.027zm9.127-.141c0-.047.055-.296.171-.747l.542-2.174.788-3.23.493-2.02c.178-.672.35-1.345.52-1.89.172-.545.323-1.063.474-1.528.15-.464.26-.82.342-1.07l.13-.39a.81.81 0 0 1 .782-.485h.095a.753.753 0 0 1 .809.552c.174.556.44 1.566.802 3.028.36 1.463.676 2.809.945 4.038l.583 3.069.418 2.147c.089.444.13.673.13.673v.175a.665.665 0 0 1-.144.41.794.794 0 0 1-.555.256h-.137a.945.945 0 0 1-.52-.141.673.673 0 0 1-.357-.512c-.105-.668-.425-2.29-.96-4.865l-2.521.107-.59 2.524-.397 1.696c-.082.343-.123.525-.123.538a.673.673 0 0 1-.384.539.981.981 0 0 1-.41.087c-.099.01-.198.01-.296 0-.438-.08-.685-.29-.685-.633v-.175l.055.02zm3.248-6.32l1.768-.074a118.64 118.64 0 0 0-.781-3.284 59.497 59.497 0 0 0-.994 3.358h.007zm6.167 6.414v-2.483c0-.889.041-1.737.062-2.544l.075-2.41c0-.8.055-1.527.082-2.18l.076-1.736c0-.505.04-.895.054-1.184v-.431a.668.668 0 0 1 .213-.471.788.788 0 0 1 .473-.195h.102c.378-.051.75.123.946.444l.069.155.185.397.274.598c.102.23.219.505.356.835.137.33.267.673.411 1.036.144.364.295.788.466 1.266.171.477.336.962.493 1.467a44.108 44.108 0 0 1 .946-2.686c.144-.363.281-.713.411-1.036.13-.323.254-.606.363-.841l.281-.606.199-.397.075-.155a.773.773 0 0 1 .35-.363c.198-.077.41-.112.623-.101a.77.77 0 0 1 .555.175.76.76 0 0 1 .185.485v.444c0 .287.014.682.042 1.184 0 .498.034 1.07.054 1.723.02.653.041 1.346.062 2.167.02.82.041 1.595.055 2.41.014.813 0 1.661.04 2.55.042.888 0 1.722 0 2.496a.594.594 0 0 1-.232.518 1.014 1.014 0 0 1-.596.169 1.244 1.244 0 0 1-.685-.169.562.562 0 0 1-.268-.518c0-2.656-.057-5.626-.17-8.91-.056.121-.145.357-.275.673l-.315.814c-.078.193-.174.45-.288.768-.117.316-.226.632-.322.949-.096.316-.192.673-.288.982a.771.771 0 0 1-.85.673.833.833 0 0 1-.87-.673c-.116-.41-.24-.828-.384-1.252-.143-.424-.26-.767-.363-1.036-.102-.27-.233-.606-.39-1.016-.158-.41-.274-.673-.336-.895-.164 3.916-.256 6.886-.274 8.91a.667.667 0 0 1-.199.47c-.41.287-.96.287-1.37 0a.587.587 0 0 1-.192-.463l.089-.007zm10.785-.25s0-.336.041-.955c.042-.619.042-1.487.062-2.59.02-1.104 0-2.16 0-3.184v-2.086-3.748a.904.904 0 0 1 .884-.835H77.935c.351.001.702.03 1.049.088.335.05.664.139.98.262.558.226 1.035.61 1.37 1.104.347.6.525 1.281.514 1.972a3.82 3.82 0 0 1 0 .437c.009.48-.028.96-.11 1.433a3.048 3.048 0 0 1-.74 1.454c.218.104.418.242.59.41a3.926 3.926 0 0 1 1.027 2.962c0 1.54-.342 2.63-1.028 3.284a3.4 3.4 0 0 1-2.055.888c-.456.046-.913.068-1.37.067h-2.008a1.003 1.003 0 0 1-.651-.269.94.94 0 0 1-.254-.673l-.062-.02zm1.857-11.648c.06 1.184.09 2.597.09 4.24 1.42 0 2.277-.155 2.569-.465a2.95 2.95 0 0 0 .35-1.79v-.249a2.234 2.234 0 0 0-.24-1.05 1.166 1.166 0 0 0-.555-.464 4.69 4.69 0 0 0-1.768-.229h-.446v.007zm0 10.848H78.56c.361.006.722-.03 1.075-.108a1.38 1.38 0 0 0 .686-.336c.413-.59.595-1.307.514-2.019a2.345 2.345 0 0 0-.494-1.69c-.457-.448-1.448-.672-2.974-.672h-.219c0 1.835-.03 3.445-.089 4.832l-.014-.007zm6.51.956c0-.047.055-.296.171-.747l.542-2.174.801-3.23.494-2.02c.178-.672.35-1.345.52-1.89.172-.545.33-1.063.473-1.528.144-.464.26-.82.343-1.07l.13-.39a.801.801 0 0 1 .754-.512h.096a.746.746 0 0 1 .808.552c.174.557.441 1.566.802 3.029.36 1.462.676 2.808.946 4.037l.596 3.049.404 2.2c.09.445.13.673.13.673v.175a.625.625 0 0 1-.144.41.794.794 0 0 1-.555.257h-.116a.952.952 0 0 1-.528-.142.673.673 0 0 1-.35-.511c-.104-.669-.424-2.29-.959-4.866l-2.521.108-.59 2.524-.397 1.695c-.082.344-.123.525-.123.539a.673.673 0 0 1-.384.538.981.981 0 0 1-.418.088 1.5 1.5 0 0 1-.295 0c-.438-.081-.685-.29-.685-.633v-.175l.055.014zm3.248-6.32l1.768-.074c-.288-1.278-.55-2.373-.788-3.284a47.352 47.352 0 0 0-1.008 3.358h.028zm10.785-6.312a.847.847 0 0 1 .254-.633.795.795 0 0 1 .623-.269H102.521a.496.496 0 0 1 .445.216c.12.187.185.404.185.626v.094c.006.187-.036.372-.123.538a.523.523 0 0 1-.48.25h-3.234c.06 1.157.09 2.516.09 4.077l2.28-.054a.635.635 0 0 1 .535.236c.13.183.196.403.185.626.015.236-.045.471-.17.673a.579.579 0 0 1-.508.249l-2.33.047V29.676c0 .168-.07.328-.192.444a.965.965 0 0 1-.685.196.852.852 0 0 1-.685-.23.666.666 0 0 1-.171-.484v-2.651-3.197-1.117V16.863h-.076zm6.757 5.848c-.062-1.525.17-3.048.685-4.489.249-.66.664-1.248 1.206-1.709a3.097 3.097 0 0 1 2.055-.727c1.53 0 2.62.785 3.269 2.356.526 1.468.758 3.021.685 4.576a17.54 17.54 0 0 1-.514 4.94c-.594 1.852-1.736 2.779-3.426 2.779-.819.033-1.62-.24-2.24-.767a4.082 4.082 0 0 1-1.193-1.885 17.383 17.383 0 0 1-.534-5.06l.007-.014zm1.767 0a15.3 15.3 0 0 0 .487 4.664c.18.787.892 1.346 1.713 1.346.365.006.722-.108 1.014-.323.37-.338.63-.776.747-1.259.344-1.443.487-2.926.425-4.408a10.82 10.82 0 0 0-.535-3.916 1.762 1.762 0 0 0-1.651-1.286c-.722 0-1.268.449-1.638 1.346a10.087 10.087 0 0 0-.562 3.823v.013zm7.716 0c-.063-1.525.17-3.048.685-4.489.247-.66.66-1.247 1.2-1.709a3.097 3.097 0 0 1 2.055-.727c1.53 0 2.62.785 3.269 2.356.525 1.468.758 3.021.685 4.576a17.607 17.607 0 0 1-.514 4.94c-.599 1.852-1.74 2.779-3.426 2.779-.82.033-1.62-.24-2.24-.767a4.102 4.102 0 0 1-1.193-1.885 17.41 17.41 0 0 1-.535-5.06l.014-.014zm1.775 0c-.078 1.57.086 3.142.486 4.664a1.74 1.74 0 0 0 1.707 1.346 1.65 1.65 0 0 0 1.007-.323c.366-.346.619-.791.726-1.279.343-1.444.486-2.926.425-4.408a10.807 10.807 0 0 0-.535-3.917 1.762 1.762 0 0 0-1.65-1.285c-.723 0-1.269.449-1.639 1.346a10.087 10.087 0 0 0-.555 3.822l.028.034zm8.16-5.882a.833.833 0 0 1 .254-.619c.278-.218.632-.322.987-.29a7.952 7.952 0 0 1 2.282.29c.732.204 1.4.583 1.946 1.104 1.115 1.086 1.704 2.853 1.768 5.303v1.016c.011.886-.058 1.771-.206 2.645a4.674 4.674 0 0 1-1.206 2.557 4.22 4.22 0 0 1-2.055 1.15 9.134 9.134 0 0 1-1.563.25l-.973.054h-.24a1.066 1.066 0 0 1-.685-.27.92.92 0 0 1-.253-.632v-.047c.05-1.62.075-3.19.075-4.71V16.795l-.13.033zm1.79.869v1.245l.047 1.917v3.096c0 1.265-.014 2.788-.04 4.57a4.161 4.161 0 0 0 2.74-.869 3.334 3.334 0 0 0 .754-1.736c.121-.768.172-1.545.15-2.322v-.908c-.054-2.01-.47-3.383-1.247-4.119a3.741 3.741 0 0 0-2.439-.868l.034-.006z"/>
    </g>
</svg>
