<svg xmlns="http://www.w3.org/2000/svg" width="113" height="32" viewBox="0 0 113 32">
    <g fill="#FFF" fill-rule="nonzero" opacity=".5">
        <path d="M.01 7.264c.745 0 1.5.022 2.244-.01.448-.023.732.11.984.495.558.838.58.816 1.52.496 1.73-.595 3.458-1.157 5.295-1.234.952-.044 1.893.044 2.812.33 2.275.706 3.304 2.447 3.774 4.64.273 1.279.35 2.58.35 3.891 0 3.174-.01 6.36.011 9.534 0 .452-.153.562-.558.529-.416-.033-.853-.077-1.258.01-1.313.298-1.87-.693-2.549-1.465-.153-.165-.087-.386-.087-.584-.033-3.218.054-6.426-.055-9.644a7.458 7.458 0 0 0-.306-1.896c-.361-1.19-1.17-1.84-2.374-1.973-1.794-.187-3.457.298-5.065 1.058-.296.144-.24.375-.24.607-.023 3.053-.034 6.095-.056 9.148-.01 1.41-.043 2.832-.043 4.243 0 .364-.055.518-.47.507-1.314-.033-2.626-.022-3.939-.033.01-6.227.01-12.444.01-18.649zM53.759 14.976c-.011-.696-.023-1.267-.145-1.828-.39-1.805-1.559-2.58-3.351-2.175-.78.179-1.514.482-2.238.818-.378.168-.5.393-.5.807.01 4.228.01 8.444.01 12.671 0 .808.1.707-.712.718-1.002.011-2.004-.034-3.006.011-.523.023-.601-.157-.601-.628.01-5.236.01-10.462.01-15.698 0-.393-.088-.707-.311-1.032-1.158-1.704-1.225-4.003-.156-5.64.156.493.29.964.501 1.413.98 2.12 2.55 3.341 4.932 3.375 1.147.022 2.294.022 3.44-.09 1.915-.18 3.708.101 5.077 1.649.212.235.367.067.534-.012 1.548-.74 3.14-1.334 4.843-1.592.958-.146 1.926-.146 2.873.067 1.68.393 2.75 1.47 3.328 3.073.435 1.2.646 2.456.657 3.734.045 3.644.034 7.288.056 10.933 0 .392-.156.46-.49.448a74.83 74.83 0 0 0-3.173-.011c-.445.011-.59-.112-.59-.583.022-2.781.011-5.573.011-8.354 0-.975-.022-1.94-.144-2.904-.346-2.546-1.715-3.532-4.22-3.05-1.993.381-3.663 1.38-5.2 2.657-.422.36-.879.752-1.435 1.223z"/>
        <path d="M50 20.448c0-.8.845-1.43 1.932-1.448 1.098-.017 2.004.586 2.064 1.359.024.284-.06.435-.53.337-.894-.186-1.752-.009-2.585.204-.748.196-.881.133-.881-.452zM62 21c-1.196-1.444-2.503-1.583-4-.338.514-1.14 1.307-1.746 2.078-1.653.838.105 1.676.955 1.922 1.991zM91.488 12.794c-.968-3.697-3.501-5.662-7.396-5.903-2.117-.132-4.075.46-5.978 1.262-.63.263-.63.274-.62-.417L77.53 0h-4.503a5.729 5.729 0 0 0-.023.439v24.733c0 .077.011.143 0 .22-.022.24.079.318.327.318.472-.011.945-.055 1.407.01.867.121 1.486-.153 1.835-.932.18-.384.416-.373.799-.22 2.364.933 4.762 1.668 7.362 1.361 2.961-.34 5.145-1.756 6.293-4.466 1.182-2.83 1.228-5.75.462-8.669zm-4.492 6.64c-.563 2.095-1.925 3.181-4.143 3.28-1.733.077-3.377-.307-4.953-1.01-.304-.131-.383-.318-.383-.636.012-3.072.012-6.145.012-9.217 0-.242-.023-.461.27-.593 1.835-.867 3.749-1.262 5.786-.976 1.813.252 2.905 1.327 3.389 3.017.304 1.032.382 2.085.36 3.084 0 1.075-.068 2.074-.338 3.05zM111.076 7.243c-.81-.088-1.362.141-1.688.873-.18.393-.417.415-.833.262-2.25-.83-4.524-1.517-6.989-1.354-3.252.219-5.717 1.954-6.797 4.945-.911 2.521-.968 5.108-.405 7.684 1.013 4.694 4.535 6.692 9.082 6.299 1.62-.142 3.15-.622 4.659-1.18.979-.36.979-.37 1.586.46.17.218.26.512.664.49.878-.032 1.756-.021 2.645-.032V7.243c-.653.01-1.294.065-1.924 0zm-3.106 14.474c-1.62.698-3.286 1.08-5.076.96-2.127-.153-3.466-1.212-3.961-3.242a12.326 12.326 0 0 1 0-5.938c.518-2.117 1.97-3.22 4.22-3.296 1.688-.055 3.264.338 4.783.993.349.153.439.35.439.71-.023 1.528-.012 3.056-.012 4.584h.034c0 1.506-.011 3.013.012 4.53 0 .338-.09.546-.44.699zM38.988 16.532c0-2.914-.011-5.817.011-8.731 0-.47-.135-.6-.596-.557-.45.044-.9.055-1.349 0-.776-.098-1.338.12-1.653.84-.202.459-.494.426-.921.273-2.226-.829-4.486-1.528-6.937-1.32-3.305.273-5.621 1.855-6.757 4.911-.944 2.565-.99 5.206-.393 7.847 1.023 4.497 4.44 6.56 9.039 6.155 1.832-.163 3.541-.72 5.227-1.397.237-.098.461-.196.596.11.428 1.004 1.26 1.2 2.271 1.07.315-.045.641-.034.956 0 .438.054.528-.12.517-.525-.022-2.892-.011-5.784-.011-8.676zm-4.823 5.075c-1.9.873-3.879 1.32-5.992.96-1.687-.284-2.732-1.32-3.16-2.881a11.9 11.9 0 0 1 0-6.461c.54-1.92 1.923-2.925 3.969-3.023 1.765-.087 3.406.316 5.003 1.015.303.13.393.316.382.633-.011 1.55-.011 3.088-.011 4.638h.022v4.584c.023.196.068.415-.213.535zM61.776 22.021c-.211-.076-.345.066-.467.209-.067.087-.145.164-.223.252-1.736 1.905-3.639 3.592-6.076 4.589-1.402.57-2.838.832-4.34.526-.19-.044-.39-.154-.568.033-.2.208-.056.416.011.613.768 2.114 3.105 3.735 5.398 3.757 1.569.01 2.77-.712 3.75-1.84 1.068-1.227 1.658-2.706 2.092-4.25.3-1.106.5-2.235.634-3.374.023-.208.045-.416-.211-.515zm-2.838 7.208c-1.046 1.687-3.405 2.41-5.397 1.676-.468-.176-.913-.395-1.336-.756 1.169-.778 2.315-1.424 3.595-1.84.122-.044.256-.132.367-.022.123.12-.033.23-.067.34-.077.24-.155.47-.289.865.512-.515.857-.931 1.302-1.26.545-.405 1.614-.175 1.959.405.133.252-.023.416-.134.592z"/>
    </g>
</svg>
