<svg width="118" height="38" viewBox="0 0 118 38" fill="none" xmlns="http://www.w3.org/2000/svg">
<path d="M20.2856 -0.000488281C21.7134 0.15346 23.1471 0.268435 24.5671 0.476948C25.3655 0.593871 26.0716 0.996281 26.634 1.59649C27.1523 2.15187 27.288 3.00736 26.9644 3.5569C26.7048 3.99828 26.3213 4.14443 25.8238 4.10254C25.3429 4.06259 25.1748 3.74982 25.0066 3.35813C24.9132 3.14377 24.6575 2.89433 24.4402 2.85633C23.4707 2.68387 22.4883 2.47731 21.5099 2.47146C17.2186 2.44613 12.9883 2.91674 8.90159 4.29546C7.15126 4.88592 5.49041 5.67808 4.10292 6.92233C2.94849 7.95905 2.13626 9.20038 2.48239 10.8324C2.59646 11.3713 3.02027 11.8438 3.28872 12.3534C3.46867 12.6925 3.77056 13.0462 3.76367 13.3872C3.74204 14.2807 2.81574 14.647 1.98384 14.1686C0.759589 13.4661 0.248256 12.3427 0.066339 11.0205C-0.307328 8.28936 0.927739 6.29192 3.01044 4.69202C5.36356 2.88654 8.10411 1.91802 10.9332 1.18726C13.9913 0.398999 17.1164 0.112537 20.2847 -0.000488281" fill="white"/>
<path d="M5.63281 24.9744C5.79015 24.4113 5.96518 23.6006 6.24543 22.827C7.90825 18.2387 9.77265 13.7362 12.2349 9.50455C13.2507 7.75948 14.2901 6.01732 15.7336 4.57137C16.0158 4.28881 16.4072 4.09589 16.7789 3.92635C17.1762 3.74414 17.6324 3.8143 17.8576 4.17384C18.0474 4.47589 18.1153 4.90071 18.1015 5.26512C18.0926 5.50578 17.8822 5.77276 17.6973 5.96568C15.8034 7.93389 14.4612 10.2655 13.2232 12.6644C11.1385 16.7002 9.40193 20.8773 8.11376 25.2336C8.07443 25.3652 8.03805 25.4987 7.99085 25.6273C7.72141 26.361 7.26515 26.6854 6.65056 26.587C6.03401 26.4876 5.64068 25.9605 5.63281 24.9744ZM37.5164 14.6823C37.4426 15.0004 37.3199 15.3053 37.1526 15.5865C35.8251 17.7379 34.3973 19.8162 32.6155 21.6285C32.3236 21.9236 31.986 22.1706 31.6154 22.3602C30.6636 22.8455 30.0146 22.4109 30.0441 21.2397C30.1788 19.5268 30.9576 17.9678 32.0206 16.5297C32.9793 15.2338 34.1642 14.2282 35.7425 13.7498C36.0208 13.6651 36.3128 13.593 36.6029 13.5793C37.3729 13.5403 37.6993 13.933 37.5164 14.6823ZM20.5116 16.707C21.2491 15.5427 22.1735 14.5488 23.3613 13.8258C23.6662 13.6407 24.0103 13.4994 24.3565 13.4117C24.5423 13.364 24.8609 13.4059 24.9514 13.5296C25.0478 13.6631 25.0261 13.9944 24.9189 14.1406C24.5158 14.6959 24.1224 15.2854 23.6042 15.719C22.912 16.2997 22.1223 16.7723 21.3416 17.2371C21.0712 17.3988 20.7044 17.3998 20.3818 17.4738L20.2737 17.3394C20.3504 17.127 20.3917 16.8931 20.5116 16.706V16.707ZM60.2186 9.13332C60.8617 7.75168 61.5727 6.41096 62.4174 5.15404C62.7557 4.64995 63.1173 4.1616 63.501 3.69055C63.6938 3.45378 63.8934 3.22286 64.0999 2.99486C64.1274 2.96368 64.1549 2.92958 64.1835 2.89353C64.3821 2.64312 64.6004 2.31573 64.9514 2.53204C64.9868 2.55348 65.0094 2.60999 65.0212 2.68501C65.0566 2.89937 65.0075 3.26768 64.9032 3.45768C64.4175 4.3346 63.9278 5.21542 63.3919 6.06409C63.2129 6.34665 63.029 6.62532 62.8382 6.89912C62.6839 7.12127 62.5206 7.33758 62.3495 7.54901C61.8392 8.18235 61.2718 8.77866 60.7339 9.3925C60.659 9.47398 60.5745 9.54627 60.4822 9.60783C60.3897 9.67312 60.2934 9.7345 60.2039 9.80271C60.1612 9.76967 60.1186 9.73654 60.0761 9.70332C60.1223 9.51235 60.137 9.30773 60.2177 9.13332H60.2186ZM71.586 17.0948C71.6005 17.0151 71.6277 16.9381 71.6666 16.8668C71.8692 16.5277 72.0875 16.2042 72.3235 15.8973C72.7894 15.2852 73.3368 14.7385 73.9509 14.2721C74.2638 14.036 74.5938 13.8231 74.9382 13.6349C74.9942 13.6047 75.0571 13.5842 75.1161 13.5589C75.2951 13.4829 75.4829 13.4224 75.6717 13.3932C75.8154 13.3721 75.9622 13.3871 76.0985 13.4371C76.1359 13.4546 76.1654 13.476 76.1831 13.5023C76.2735 13.6456 76.2765 13.9135 76.2027 14.0762C76.068 14.3686 75.8684 14.6384 75.6599 14.8869C75.5567 15.0107 75.4505 15.1305 75.3423 15.2494C75.0178 15.604 74.6736 15.9334 74.3019 16.2286C73.8037 16.6294 73.2509 16.9584 72.6598 17.2059C72.5794 17.2393 72.4974 17.2686 72.4139 17.2936C72.1652 17.3696 71.9026 17.4173 71.6499 17.4855C71.586 17.4953 71.5221 17.4787 71.5339 17.3394C71.5555 17.2108 71.5683 17.1767 71.585 17.0948H71.586ZM91.9587 20.4554C92.116 19.1624 92.5202 18.4706 92.4651 17.126C92.4533 16.8502 93.7395 15.6518 93.7316 15.3819C93.6628 15.5807 92.6146 16.1263 92.5221 16.3143C91.6657 18.037 89.4699 20.1533 87.9595 21.3908C87.5366 21.7376 87.0548 22.0338 86.5572 22.2609C86.337 22.3612 85.8994 22.3339 85.7617 22.1829C85.5965 22.0027 85.567 21.6119 85.6211 21.3411C85.6929 20.9776 85.8571 20.6142 86.0597 20.2985C86.7775 19.1809 87.5406 18.0906 88.2663 16.9769C89.1483 15.6226 88.9723 14.5225 87.69 13.5501C87.1276 13.1233 86.5051 12.7716 85.9004 12.4003C85.4834 12.1451 85.2887 11.8333 85.4313 11.3237C85.5597 10.8955 85.6382 10.4542 85.6653 10.0083C85.7096 8.91994 84.9937 8.42983 83.9593 8.80204C82.8166 9.21127 82.1037 10.5461 82.4263 11.7319C82.5944 12.3477 82.6436 12.9216 82.3466 13.5267C81.1666 15.9285 79.7998 18.1861 77.7888 20.0208C76.7347 20.9825 75.5921 21.76 74.242 22.218C73.2645 22.5493 72.2615 22.7734 71.231 22.485C70.5053 22.2833 70.108 21.6928 70.1139 20.9231C70.1179 20.2995 70.3922 20.0169 71.232 19.7762C71.3649 19.7365 71.499 19.7007 71.6342 19.6691C73.1475 19.3319 74.5045 18.6801 75.7327 17.7369C76.9402 16.8113 77.9531 15.7541 78.3975 14.2604C78.902 12.5718 77.8144 11.1522 76.0454 11.1619C75.1073 11.1668 74.2803 11.4981 73.5035 11.9707C71.4385 13.2286 70.0903 15.1032 68.9133 17.1552C68.3784 18.0778 67.7271 18.9291 66.9751 19.6886C66.3822 20.2888 65.6142 20.7457 64.861 21.153C64.325 21.4443 63.855 21.077 63.9622 20.4758C64.0566 19.9438 64.27 19.4206 64.4991 18.9247C64.977 17.8938 65.5149 16.8892 65.9987 15.8603C66.3615 15.0867 66.5533 14.2682 66.4766 13.401C66.3664 12.1441 65.4421 11.3315 64.1785 11.3695C63.087 11.4016 62.1706 11.8625 61.3318 12.5027C59.9699 13.5452 58.8803 14.8431 57.8577 16.2042C57.7347 16.3689 57.5863 16.6456 57.3886 16.6213C57.2155 16.5112 57.2795 16.3241 57.305 16.2296C57.7446 14.6365 58.4575 13.2792 59.8715 12.2357C62.4252 10.3503 64.6092 8.08101 66.1688 5.28168C66.6968 4.33266 67.0528 3.33491 67.0145 2.22999C66.9653 0.765528 65.7637 -0.0539078 64.3791 0.437169C63.5 0.748964 62.8205 1.33943 62.2394 2.03414C60.3711 4.26835 58.9944 6.78901 57.9068 9.47435C57.4663 10.5617 57.069 11.6657 56.0877 12.4325C55.7769 12.6761 55.6825 13.0405 55.7661 13.4634C55.8202 13.7391 55.7858 14.048 55.7219 14.3267C55.4131 15.6576 54.6402 16.7333 53.7827 17.7652C52.5831 19.2072 51.348 20.6064 49.697 21.57C48.575 22.2248 47.4097 22.7373 46.0734 22.6886C44.8737 22.6438 44.1579 21.9598 44.1657 20.8159C44.1774 20.2992 44.2574 19.7862 44.4037 19.29C44.8393 17.733 45.686 16.3962 46.7519 15.1899C47.5287 14.3101 48.4186 13.5647 49.5682 13.2256C49.8396 13.1457 50.2653 13.1983 50.4561 13.3698C50.5839 13.4848 50.5023 13.9642 50.3676 14.198C50.1198 14.6268 49.7658 14.9951 49.4531 15.3868C49.0263 15.9227 49.0008 16.4927 49.3921 16.8843C49.8002 17.2936 50.5426 17.3277 50.9871 16.8366C51.5161 16.2549 52.0609 15.6352 52.3844 14.9347C53.2694 13.022 52.2074 11.2828 50.0992 11.0664C48.9644 10.9495 48.0066 11.4377 47.0931 12.0184C45.0134 13.3426 43.7203 15.2932 42.6543 17.4495C42.2298 18.3133 41.7147 19.1304 41.1174 19.8873C40.7113 20.3979 40.139 20.8169 39.5647 21.1472C38.8538 21.5564 38.3287 21.2446 38.3011 20.4222C38.2833 19.7855 38.3378 19.1489 38.4634 18.5242C38.78 16.9038 39.5136 15.4345 40.2235 13.9574C40.4173 13.5579 40.5943 13.1321 40.668 12.6995C40.8352 11.7251 40.2648 11.2867 39.3041 11.54C38.9063 11.6397 38.4937 11.668 38.0858 11.6238C37.0434 11.5156 36.0109 11.4299 34.9952 11.7787C32.8259 12.5231 31.1552 13.9184 29.928 15.8038C28.9418 17.3199 27.8857 18.7532 26.5631 20.0013C25.5237 20.9806 24.3732 21.7483 23.0231 22.2082C22.0279 22.5483 21.0092 22.7792 19.962 22.4791C19.249 22.2745 18.8527 21.6607 18.8705 20.8968C18.8832 20.2966 19.1586 20.015 19.9649 19.7831C20.0977 19.7441 20.2304 19.7061 20.3661 19.6759C21.8785 19.3404 23.2955 18.6728 24.5128 17.7223C25.7007 16.8054 26.7007 15.758 27.1482 14.2848C27.5789 12.8641 26.8876 11.4767 25.4971 11.2506C24.8108 11.1386 24.0241 11.2331 23.3613 11.4591C21.6847 12.032 20.431 13.2188 19.3651 14.5868C18.0376 16.2919 16.9382 18.1198 16.6461 20.3112C16.3079 22.8542 17.9609 24.7182 20.55 24.7747C22.9169 24.8263 24.9435 23.9348 26.8237 22.6116C27.1855 22.3583 27.5287 22.0787 27.9279 21.7737C27.9397 22.0046 27.9437 22.1576 27.9545 22.3096C28.041 23.4632 28.6546 24.3265 29.637 24.6344C30.4053 24.883 31.2392 24.8424 31.9793 24.5204C33.2842 23.9621 34.3088 23.0452 35.2174 21.9754C35.9077 21.1637 35.9618 21.1842 36.4957 22.0748C37.3119 23.4369 38.4604 23.9007 39.9413 23.3122C40.7142 23.0043 41.3986 22.4762 42.1292 22.0436C42.1312 22.0484 42.1725 22.1206 42.201 22.1956C42.8894 24.0313 44.3231 24.7776 46.1904 24.8907C48.0823 25.0037 49.6616 24.1901 51.168 23.1992C51.7866 22.7919 52.3579 22.3135 53.0098 21.8224C52.9184 22.1244 52.8377 22.3651 52.7748 22.6087C52.706 22.8757 52.6283 23.1446 52.6027 23.4164C52.5565 23.889 52.5418 24.3713 53.1032 24.5935C53.5693 24.7776 53.944 24.6227 54.3255 24.0732C54.6903 23.548 55.0335 23.0082 55.3905 22.4781C57.2283 19.748 59.1488 17.0812 61.5933 14.8392C62.025 14.4436 62.5128 14.1006 62.9985 13.781C64.1087 13.0502 64.1746 14.0977 63.9986 14.6696C63.9887 14.6998 63.9711 14.732 63.9553 14.7632C63.4882 15.7249 63.0192 16.6856 62.5531 17.6482C62.0349 18.7171 61.6809 19.8289 61.7684 21.0322C61.8746 22.4898 63.1942 23.6026 64.5689 23.3901C64.976 23.3268 65.3979 23.2294 65.7617 23.0472C66.4992 22.6808 67.2013 22.2453 67.8247 21.8906C68.1915 22.4752 68.4836 23.1836 68.9831 23.6932C70.1041 24.8371 71.584 24.9121 73.0659 24.7094C75.833 24.3284 78.0681 22.9224 79.965 20.9581C81.5796 19.2881 82.7281 17.2994 83.741 15.2279C84.4146 13.8482 84.5975 13.8073 85.9072 14.6492C86.6172 15.1061 86.6841 15.4998 86.2111 16.1867C85.5837 17.0958 84.9328 17.9951 84.3782 18.9471C83.9849 19.6153 83.6754 20.3286 83.4568 21.0712C82.8747 23.1017 84.1707 24.6334 86.278 24.459C87.2062 24.383 88.0283 23.9787 88.7245 23.4048C89.6538 22.6389 90.5102 21.7854 91.3834 20.9835C91.9243 20.4554 91.9567 20.4476 91.9587 20.4554Z" fill="white"/>
<path d="M106.418 27.6929C105.04 30.314 103.491 32.8171 101.236 34.8077C100.561 35.404 99.7907 35.8113 98.8565 35.8259C97.9459 35.8396 97.3786 35.2208 97.6519 34.3576C97.8545 33.7194 98.2164 33.1094 98.6087 32.5579C99.5586 31.226 100.927 30.3442 102.241 29.4156C103.37 28.6176 104.521 27.8498 105.677 27.0898C105.934 26.9213 106.411 26.7342 106.537 26.7176C106.663 26.701 106.689 26.7761 106.682 26.8774C106.595 27.1502 106.549 27.4425 106.418 27.6929ZM94.228 14.427C95.4797 10.7371 97.0442 7.2012 99.477 4.10469C99.8605 3.61751 100.273 3.14884 100.704 2.70161C100.812 2.58956 101.062 2.52817 101.213 2.5691C101.325 2.5993 101.535 2.77956 101.513 3.06212C101.256 3.84551 101.041 4.67956 100.712 5.46684C99.4337 8.51659 97.5919 11.2234 95.4847 13.7616C95.231 14.0675 95.0107 14.4046 94.7383 14.6921C94.6164 14.8207 94.2024 15.1549 93.8189 15.6226C93.8159 15.4491 94.1758 14.582 94.228 14.427ZM115.631 16.2111C115.589 16.2861 115.553 16.365 115.509 16.4391C114.472 18.2144 113.206 19.8055 111.645 21.155C111.432 21.3401 111.168 21.4648 110.807 21.6928C110.79 21.3411 110.741 21.1219 110.777 20.9173C110.851 20.4954 110.971 20.0793 111.071 19.6603C111.494 17.9036 111.93 16.1497 112.333 14.3881C112.472 13.781 112.186 13.2188 111.728 13.0337C111.237 12.834 110.656 13.0581 110.307 13.6086C110.124 13.8999 109.957 14.2039 109.816 14.5177C108.705 16.9994 107.218 19.2384 105.312 21.1823C104.763 21.7396 104.073 22.182 103.394 22.5863C102.779 22.9527 102.236 22.6633 102.151 21.9559C102.096 21.5028 102.093 21.0147 102.2 20.5743C102.808 18.0994 103.706 15.7434 105.206 13.6437C105.442 13.3124 105.638 12.9334 105.757 12.5475C105.89 12.1188 105.708 11.7281 105.345 11.4582C105.003 11.2048 104.612 11.2107 104.284 11.4523C103.954 11.6959 103.605 11.9658 103.394 12.3039C102.682 13.4439 101.958 14.5859 101.365 15.7892C100.409 17.7253 99.2705 19.5239 97.765 21.08C97.1249 21.7396 96.4336 22.3466 95.4974 22.5805C94.7599 22.7656 94.1208 22.5707 93.7471 21.9988C93.0293 20.9036 92.6497 18.913 94.0362 17.3004C94.8494 16.3553 95.8092 16.4352 96.644 15.5096C99.2725 12.5962 101.367 9.33992 102.836 5.70458C103.295 4.56946 103.668 3.39925 103.625 2.14525C103.577 0.781148 102.474 -0.159108 101.122 0.0211486C100.054 0.165354 99.2734 0.812328 98.6215 1.58012C95.5407 5.19499 93.638 9.42176 92.2544 13.9048C91.9968 14.7379 91.809 15.7171 91.4874 16.9935C91.2081 18.7123 91.332 19.8893 91.4323 21.6344C91.8434 23.2869 92.989 24.4756 94.4109 24.6724C95.6164 24.8381 96.7394 24.5419 97.7178 23.8549C98.5045 23.3035 99.2164 22.6438 99.9549 22.0378C99.9893 22.1878 100.022 22.3905 100.081 22.5844C100.41 23.6669 100.981 24.5448 102.188 24.7728C103.093 24.9443 103.943 24.7085 104.733 24.2525C105.942 23.5568 106.868 22.5522 107.758 21.5077C107.884 21.3586 108.057 21.2485 108.266 21.0722C108.451 22.4606 107.88 23.6601 106.827 24.2768C105.498 25.0563 104.163 25.8261 102.842 26.6192C100.8 27.8469 98.8506 29.1935 97.1996 30.9288C96.4228 31.7453 95.8092 32.6456 95.523 33.7447C95.1248 35.2764 95.6381 36.6376 96.9488 37.3381C97.4277 37.5944 97.9863 37.7016 98.5084 37.8769H99.4475C102.004 37.2485 103.763 35.596 105.205 33.506C106.867 31.0954 108.297 28.5757 109.175 25.7647C109.289 25.3964 109.625 25.0037 109.965 24.8118C113.116 23.0404 115.52 20.5528 117.288 17.4359C117.44 17.1689 117.55 16.9467 117.711 16.6194C117.874 16.2929 117.711 16.101 117.711 16.101C116.998 15.0653 116.257 15.1042 115.631 16.2111Z" fill="#71C3BB"/>
</svg>
