<svg xmlns="http://www.w3.org/2000/svg" width="80" height="42" viewBox="0 0 80 42">
    <g fill="#8E8E8E" fill-rule="evenodd">
        <path fill-rule="nonzero" d="M2.47 41.712h1.381v-6.627h2.47v-1.287H0v1.287h2.47v6.627zM7.157 41.725h1.37V38.98h1.714l1.921 2.745h1.622l-2.12-3.02c.35-.095.677-.255.968-.471.277-.21.5-.482.652-.796.16-.35.24-.734.23-1.12v-.022a2.639 2.639 0 0 0-.17-.953 2.201 2.201 0 0 0-.466-.755 2.547 2.547 0 0 0-.943-.582 3.816 3.816 0 0 0-1.305-.208H7.157v7.927zm1.37-3.99v-2.658h1.992c.296-.007.59.045.867.15.219.092.407.245.541.443.133.215.2.465.192.719v.022c.004.248-.065.492-.197.7-.134.202-.322.36-.54.458-.27.113-.56.17-.852.165H8.527zM14.668 41.712h1.37v-7.914h-1.37v7.914zM21.203 41.846a4.93 4.93 0 0 0 1.286-.17 5.09 5.09 0 0 0 1.081-.445c.314-.169.61-.371.881-.604V37.29h-3.316V38.5h1.992v1.482c-.256.19-.541.337-.843.434-.336.11-.686.165-1.038.165a2.76 2.76 0 0 1-1.081-.214 2.432 2.432 0 0 1-.838-.588 2.734 2.734 0 0 1-.54-.895 3.371 3.371 0 0 1-.19-1.13v-.023c0-.367.066-.731.192-1.076.125-.327.309-.629.54-.89.229-.253.504-.458.812-.603a2.302 2.302 0 0 1 1-.222c.294-.003.587.03.873.101.241.067.473.167.689.297.216.13.42.281.61.45l.868-1.052a4.678 4.678 0 0 0-.83-.587 3.771 3.771 0 0 0-.962-.362 5.12 5.12 0 0 0-1.2-.127 4.122 4.122 0 0 0-1.321.215 3.927 3.927 0 0 0-2.5 2.602 4.252 4.252 0 0 0-.192 1.276v.025c-.002.443.06.884.183 1.31.121.399.304.776.541 1.117.232.336.518.631.846.873.34.25.718.441 1.119.568a4.47 4.47 0 0 0 1.351.2h-.013zM29.316 41.846a4.93 4.93 0 0 0 1.287-.17 5.09 5.09 0 0 0 1.08-.445c.315-.17.611-.372.885-.604V37.29h-3.32V38.5h1.993v1.482c-.257.19-.541.337-.844.434-.335.11-.685.165-1.038.165a2.76 2.76 0 0 1-1.08-.214 2.432 2.432 0 0 1-.838-.588 2.734 2.734 0 0 1-.541-.895 3.371 3.371 0 0 1-.19-1.13v-.023c.001-.367.066-.731.193-1.076.125-.327.308-.629.54-.89.228-.253.504-.458.811-.603a2.302 2.302 0 0 1 1-.222c.294-.004.587.03.873.101.245.066.48.166.697.297.217.13.422.28.611.45l.87-1.052a4.796 4.796 0 0 0-.832-.587 3.771 3.771 0 0 0-.962-.362 5.12 5.12 0 0 0-1.2-.127 4.104 4.104 0 0 0-1.32.215 3.919 3.919 0 0 0-1.961 1.48 4.252 4.252 0 0 0-.732 2.4v.023c-.003.443.06.884.183 1.31.12.399.303.776.54 1.117a3.73 3.73 0 0 0 1.965 1.44 4.47 4.47 0 0 0 1.352.201h-.022zM33.732 41.712h5.836v-1.244h-4.465v-2.124h3.908v-1.247h-3.908v-2.056h4.408v-1.243h-5.779v7.914zM40.578 41.725h1.37V38.98h1.714l1.914 2.745h1.621l-2.11-3.02c.348-.095.676-.255.967-.471.277-.21.5-.482.651-.796.166-.352.249-.739.24-1.129v-.022a2.697 2.697 0 0 0-.167-.952 2.25 2.25 0 0 0-.478-.755 2.547 2.547 0 0 0-.943-.582 3.816 3.816 0 0 0-1.306-.209h-3.473v7.936zm1.37-3.99v-2.658h1.993c.296-.007.59.044.867.15.224.09.416.243.554.443.133.215.2.465.192.719v.022c.004.248-.065.492-.197.7-.134.202-.322.36-.54.458-.27.114-.56.17-.852.165h-2.016zM48.5 41.712h2.114v-4.524l1.98 3.077h.047l1.991-3.1v4.547h2.15v-7.914H54.5l-1.86 3.063-1.859-3.063H48.5v7.914zM58.162 41.712h6.322v-1.867H60.3v-1.254h3.74v-1.73H60.3v-1.2h4.13v-1.863h-6.268v7.914zM68.649 41.846c.436.005.871-.054 1.292-.175a2.92 2.92 0 0 0 .994-.506c.273-.22.492-.502.638-.823.155-.344.232-.72.224-1.098v.01c.009-.328-.06-.655-.2-.952a1.875 1.875 0 0 0-.58-.686 3.516 3.516 0 0 0-.914-.483 8.772 8.772 0 0 0-1.211-.349 9.63 9.63 0 0 1-.665-.175 2.017 2.017 0 0 1-.41-.168.503.503 0 0 1-.212-.19.425.425 0 0 1-.06-.235v-.022a.408.408 0 0 1 .087-.258.556.556 0 0 1 .27-.181c.14-.052.286-.076.433-.072.242.001.482.032.716.09.255.067.502.159.738.275.256.12.5.263.73.428l1.081-1.55a4.482 4.482 0 0 0-1.422-.783 5.568 5.568 0 0 0-1.783-.274 4.042 4.042 0 0 0-1.26.189c-.348.11-.67.288-.951.524-.255.22-.46.495-.598.805a2.45 2.45 0 0 0-.208 1.015v.022c-.009.354.068.705.225 1.021.149.278.362.515.621.69.29.192.604.346.933.455.38.129.767.236 1.16.321.27.064.48.121.65.179.14.041.276.098.403.17.082.045.152.11.206.187a.422.422 0 0 1 .054.222v.022a.449.449 0 0 1-.227.4 1.302 1.302 0 0 1-.662.144 3.652 3.652 0 0 1-1.314-.242 4.389 4.389 0 0 1-1.213-.708l-1.203 1.46c.321.29.68.534 1.065.728.394.193.81.34 1.238.436.444.097.897.146 1.35.146l-.015-.009zM72.846 41.712h2.16v-3.009h2.77v3.009h2.16v-7.914h-2.16v2.962h-2.77v-2.962h-2.16v7.914z"/>
        <path d="M55.443 10.736c-.57-10.783-15.64-15.35-22.162-4.625-4.224-1.895-9.292.993-9.365 5.789-8.378.873-9.262 13.865 3.103 13.865h.413a4.457 4.457 0 0 1 .07-3.05h-1.294c-5.946-.04-7.519-8.8.424-7.988-1.44-4.83 3.573-8.858 7.787-5.215C38.195.549 52.162.275 52.805 13.075c7.776.549 7.533 8.943 1.84 9.737h-7.934c.58.872.69 1.981.294 2.953h7.64c8.639-.178 10.204-13.187.798-15.029z"/>
        <path d="M40.27 16.676l.079-.134c.792-1.438 3.943-1.532 5.178-.387.336.494.789.895 1.316 1.167 1.538.666 3.318-.03 4.018-1.572.7-1.542.066-3.37-1.431-4.125-1.549-.724-3.276 0-4.098 1.532-.916 1.7-4.467 1.18-5.156.423a3.766 3.766 0 0 0-1.703-1.213 2.89 2.89 0 0 0-2.906.452 2.997 2.997 0 0 0-1.053 2.787c.043.274.021.274.345 1.076.325.802-1.248 4.337-2.894 4.645a3.494 3.494 0 0 0-1.695.36 3.14 3.14 0 0 0-1.71 2.672 3.15 3.15 0 0 0 1.475 2.814c.959.595 2.16.615 3.138.05 1.505-.823 1.97-2.66 1.276-4.241-.779-1.768 1.537-4.557 2.851-4.645 1.314-.088 3.6 3.075 2.81 4.543-.81 1.521-.494 3.399.944 4.332 1.436.89 3.31.45 4.214-.99.905-1.441.508-3.353-.892-4.3a3.495 3.495 0 0 0-1.679-.494c-1.621-.436-3.273-3.13-2.508-4.584l.081-.168zm8.003-3.552c.746 0 1.351.615 1.351 1.373s-.605 1.372-1.351 1.372a1.362 1.362 0 0 1-1.351-1.372c0-.758.605-1.373 1.351-1.373zM31.678 25.96a1.362 1.362 0 0 1-1.351-1.372c0-.758.605-1.373 1.351-1.373.747 0 1.352.615 1.352 1.373 0 .364-.143.713-.396.97a1.34 1.34 0 0 1-.956.402zm5.727-9.904a1.013 1.013 0 0 1-1.005-1.021c0-.564.45-1.021 1.005-1.021.556 0 1.006.457 1.006 1.02 0 .565-.45 1.022-1.006 1.022zm5.368 7.176c.746 0 1.351.614 1.351 1.372 0 .758-.605 1.373-1.351 1.373a1.362 1.362 0 0 1-1.351-1.373c0-.758.605-1.372 1.351-1.372z"/>
    </g>
</svg>
