<svg xmlns="http://www.w3.org/2000/svg" width="127" height="35" viewBox="0 0 127 35">
    <g fill="#FFF" fill-rule="nonzero" opacity=".5">
        <path d="M11.774 34.543c.05.158-9.612-3.9-11.265-19.814C-1.144-1.212 5.747.132 6.789.316c1.959.37 4.451 4.269 6.816 4.163 2.365-.105 4.883-1.633 4.883-1.633s-2.238 2.687-4.96 2.872c-2.695.184-3.89-1.45-6.382.316-4.527 3.214-5.315 17.47 4.628 28.51"/>
        <path d="M12.664 7.351c-.05-.263 3.179 1.107 6.688-3.135 3.637-4.4 9.435-3.478 11.749-.395.712.948 1.78 2.687 1.22 6.192C31.965 12.33 31 14.018 31 14.018c.025-.422-.254-1.687-1.017-2.504 0 0 .458-.527.61-1.686.229-1.87-.788-3.979-2.72-4.822-4.68-1.976-8.622 4.848-15.208 2.345"/>
        <g>
            <path d="M21.894 19.795c.9-1.151 2.16-2.485 3.086-3.61l-.128-.157c-1.106.157-3.576.235-5.17.235h-4.09c-.13-.366-.155-.89-.155-1.23 0-.47.077-1.15.232-1.752h13.118c.386 1.125.592 1.753.592 2.276 0 .419-.206.863-.515 1.308l-6.379 8.188c-.849 1.152-2.083 2.512-3.01 3.61l.13.158a47.91 47.91 0 0 1 3.6-.157h1.878c1.75 0 3.241-.105 4.193-.524.283.602.386 1.125.386 1.675 0 1.125-.592 1.805-2.547 1.805H15.437c-.386-1.125-.54-1.596-.54-2.12 0-.418.154-.889.617-1.49l6.38-8.215zM36.298 23.693c.155 3.087 1.21 5.31 4.553 5.31 1.955 0 3.807-.601 5.453-1.412.67.602 1.132 1.674 1.287 2.46-1.878 1.255-4.63 2.066-7.357 2.066-6.174 0-8.077-4.604-8.077-9.601 0-5.52 2.752-9.68 8.18-9.68 5.041 0 7.742 3.532 7.742 7.953 0 1.177-.077 1.884-.283 2.93H36.298v-.026zm0-2.8h7.897v-.47c0-2.59-1.106-4.761-3.91-4.761-2.495 0-3.78 1.988-3.987 5.232zM68.503 27.696c0 1.308.155 2.485.669 3.374-.592.445-1.57.811-2.547.811-1.594 0-2.16-.863-2.16-2.459v-9.418c0-2.485-.54-3.558-2.418-3.558-1.57 0-3.576.864-4.939 2.303v12.87c-.54.106-1.286.158-2.006.158-.746 0-1.44-.026-2.032-.157V13.36l.231-.236h1.518c1.517 0 2.16.863 2.238 2.302 1.672-1.439 3.884-2.485 6.225-2.485 3.678 0 5.196 2.668 5.196 6.095v8.66h.025zM84.143 14.667c0 .524-.052.968-.206 1.44l-4.81-.08V27.12c0 .994.437 1.622 1.595 1.622h2.7c.206.523.31 1.256.31 1.936 0 .262 0 .55-.078.811-1.286.157-2.83.262-4.373.262-2.675 0-4.116-1.256-4.116-3.82v-11.85l-2.906.025c-.129-.47-.155-.915-.155-1.439 0-.47.052-.889.155-1.412l2.906.078v-3.27c0-1.7.463-2.46 2.161-2.46h1.518l.283.263v5.493l4.81-.104c.18.523.206.942.206 1.412zM93.3 31.62c-.54.105-1.286.157-2.006.157-.746 0-1.492-.026-2.032-.157V18.042c0-1.334-.438-1.936-1.724-1.936h-.437c-.129-.47-.206-.89-.206-1.36 0-.445.077-.89.206-1.413.977-.104 1.929-.157 2.47-.157h.54c1.954 0 3.163 1.256 3.163 3.297V31.62h.026zM88.413 6.557c.463-.261 1.363-.444 2.16-.444.695 0 1.724.183 2.161.444.232.445.36 1.152.36 1.675 0 .523-.128 1.177-.36 1.622-.386.288-1.44.47-2.16.47-.772 0-1.724-.182-2.161-.47-.232-.445-.36-1.125-.36-1.622.025-.576.128-1.23.36-1.675zM98.83 27.591c1.647.863 3.679 1.622 5.48 1.622 2.16 0 3.472-.916 3.523-2.302 0-1.047-.848-1.962-2.469-2.512l-2.186-.784c-2.753-.968-4.965-2.486-4.965-5.311 0-3.401 2.984-5.494 6.894-5.494 2.11 0 4.784.628 6.43 1.334 0 .968-.463 2.224-1.208 2.826-1.338-.602-3.293-1.23-5.196-1.23-1.724 0-2.83.89-2.83 2.145 0 1.073.772 1.675 2.418 2.276l2.34.864c2.907 1.046 4.965 2.72 4.965 5.572 0 3.453-3.087 5.52-7.485 5.52-2.855 0-5.376-.89-7.048-1.858.051-.863.643-2.092 1.337-2.668zM126.2 14.667c0 .524-.052.968-.206 1.44l-4.81-.08V27.12c0 .994.437 1.622 1.594 1.622h2.701c.206.523.309 1.256.309 1.936 0 .262 0 .55-.077.811-1.286.157-2.83.262-4.373.262-2.675 0-4.116-1.256-4.116-3.82v-11.85l-2.906.025c-.13-.47-.155-.915-.155-1.439 0-.47.052-.889.155-1.412l2.906.078v-3.27c0-1.7.463-2.46 2.16-2.46h1.519l.283.263v5.493l4.81-.104a4.7 4.7 0 0 1 .205 1.412z"/>
        </g>
    </g>
</svg>
