<svg xmlns="http://www.w3.org/2000/svg" width="112" height="21" viewBox="0 0 112 21">
    <path fill="#FFF" fill-rule="nonzero" d="M109.266 15.305c-.021.429.02.835.148 1.242.148.321.466.492.827.471a4.63 4.63 0 0 0 1.42-.364L112 20.53a14.491 14.491 0 0 1-3.328.45 4.783 4.783 0 0 1-2.607-.536c-.593-.385-1.017-.963-1.25-1.648a11.178 11.178 0 0 1-.403-3.554v-5.138h-2.629v-4.11h2.629V3.295h4.79v2.698h2.628v4.11h-2.628v5.181h.064v.021zm-13.248-4.367l-.212.321a10.613 10.613 0 0 0-.742 4.796v4.924h-4.811V6.314h4.472v2.398a5.612 5.612 0 0 1 1.336-2.141 3.203 3.203 0 0 1 1.632-.578h2.437v4.11h-2.353a2.422 2.422 0 0 0-1.759.835zM83.83 19.716c-.063-.3-.127-.621-.148-.921a6.512 6.512 0 0 1-1.886 1.52 6.673 6.673 0 0 1-2.947.6 4.431 4.431 0 0 1-3.391-1.22 4.104 4.104 0 0 1-1.145-2.977 4.235 4.235 0 0 1 .827-2.74c.827-.856 1.886-1.434 3.073-1.605 1.802-.407 2.968-.707 3.498-.878a16.38 16.38 0 0 0 1.696-.664 2.276 2.276 0 0 0-.36-1.434 1.585 1.585 0 0 0-1.294-.407 2.995 2.995 0 0 0-1.76.428c-.36.343-.635.792-.74 1.306l-4.558-.578c.127-.77.36-1.52.742-2.205.36-.578.848-1.07 1.42-1.434a4.957 4.957 0 0 1 1.802-.664 12.024 12.024 0 0 1 2.48-.235 16.869 16.869 0 0 1 3.454.3c.827.15 1.59.556 2.184 1.177.445.492.784 1.091.954 1.755.233.707.339 1.434.36 2.162v6.466a8.399 8.399 0 0 0 .106 1.627c.127.62.275 1.22.487 1.82h-4.472a3.756 3.756 0 0 1-.382-1.2zm-.423-5.181V13.7a25.75 25.75 0 0 1-2.057.75c-.678.149-1.292.449-1.844.877a1.578 1.578 0 0 0-.402 1.049c-.021.407.106.792.381 1.092.318.3.72.45 1.166.428.53 0 1.06-.171 1.505-.471.424-.257.763-.642.954-1.092.233-.535.318-1.135.297-1.713v-.085zm-15.643-1.948a2.612 2.612 0 0 0-.34-1.435 1.385 1.385 0 0 0-1.186-.75 1.694 1.694 0 0 0-1.42.707 3.995 3.995 0 0 0-.51 2.313v7.557h-4.79v-8.093a5.35 5.35 0 0 0-.105-1.306 1.849 1.849 0 0 0-.53-.899 1.19 1.19 0 0 0-.87-.32 1.636 1.636 0 0 0-1.42.727 4.29 4.29 0 0 0-.53 2.398v7.471h-4.79V6.314h4.451v2.14a6.4 6.4 0 0 1 1.95-1.905c.721-.385 1.548-.599 2.374-.578a4.042 4.042 0 0 1 2.374.621 4.899 4.899 0 0 1 1.42 1.863 7.874 7.874 0 0 1 2.057-1.97 4.643 4.643 0 0 1 2.268-.514 3.811 3.811 0 0 1 3.137 1.435 6.974 6.974 0 0 1 1.123 4.388V21h-4.684v-8.413h.02zM41.587 7.02c1.738.364 3.412.985 5.002 1.777a5.681 5.681 0 0 1 2.183 2.248c.466.92.7 1.948.678 2.997a7.014 7.014 0 0 1-.911 3.576c-.594 1.07-1.484 1.948-2.565 2.483-1.293.6-2.713.899-4.133.835-2.925 0-4.939-.664-6.062-1.991a8.383 8.383 0 0 1-1.908-5.031l5.066-.364a5.03 5.03 0 0 0 .657 2.205 2.652 2.652 0 0 0 2.353 1.22 2.314 2.314 0 0 0 1.76-.642c.38-.364.593-.9.614-1.434a2.11 2.11 0 0 0-.572-1.435 6.504 6.504 0 0 0-2.735-1.177 10.74 10.74 0 0 1-4.98-2.462 5.22 5.22 0 0 1-1.506-3.896c0-1.028.276-2.056.785-2.955A5.426 5.426 0 0 1 37.687.812 9.028 9.028 0 0 1 41.926.02c1.801-.128 3.582.364 5.023 1.434 1.272 1.2 1.993 2.869 2.035 4.624l-5.023.322a3.5 3.5 0 0 0-.848-1.991c-.488-.429-1.124-.664-1.76-.621a1.944 1.944 0 0 0-1.42.47c-.318.3-.487.707-.487 1.135 0 .322.148.621.36.857.53.428 1.145.685 1.78.77zm-9.602 7.686h-9.58a4.02 4.02 0 0 0 .635 2.012c.403.6 1.081.964 1.802.942.466 0 .932-.15 1.335-.406.34-.236.636-.557.848-.921l4.77.535a7.435 7.435 0 0 1-2.63 3.147 8.439 8.439 0 0 1-4.387.942 7.908 7.908 0 0 1-3.9-.813 6.207 6.207 0 0 1-2.353-2.612 8.828 8.828 0 0 1-.932-4.218 8.108 8.108 0 0 1 1.865-5.544 6.516 6.516 0 0 1 5.172-2.12 7.912 7.912 0 0 1 4.239.942c1.039.664 1.886 1.606 2.374 2.762.593 1.499.869 3.104.805 4.71v.62l-.063.022zm-5.66-5.01c-.402-.47-.975-.749-1.59-.706a2.08 2.08 0 0 0-1.8 1.049c-.34.407-.53.9-.53 1.434h4.705c0-.642-.233-1.263-.679-1.734l-.105-.043zm-10.45 5.524c.022.985-.19 1.97-.614 2.847a4.815 4.815 0 0 1-1.696 1.991c-.614.364-1.314.6-2.013.664-.784.15-1.569.235-2.374.278H0V.748h9.899a4.827 4.827 0 0 1 3.794 1.434 5.073 5.073 0 0 1 1.335 3.575c.021 1.092-.297 2.184-.954 3.062a4.221 4.221 0 0 1-1.844 1.434c1.102.257 2.056.9 2.734 1.798a5.45 5.45 0 0 1 .997 3.169h-.085zM9.412 5.35a2.312 2.312 0 0 0-1.696-.492H5.363V8.69h2.31a2.416 2.416 0 0 0 1.738-.492c.36-.385.53-.9.488-1.434a1.815 1.815 0 0 0-.403-1.392l-.085-.021zm.594 7.729a2.885 2.885 0 0 0-1.95-.535H5.34v4.089h2.692c.7.064 1.4-.129 1.95-.578.403-.407.594-.985.573-1.563a1.795 1.795 0 0 0-.467-1.434l-.084.021z" opacity=".5"/>
</svg>
