<svg xmlns="http://www.w3.org/2000/svg" width="60" height="34" viewBox="0 0 60 34">
    <path fill="#8E8E8E" fill-rule="nonzero" d="M42.914 25.5h8.572V34h-8.572v-8.5zm-17.143 0h8.572V34H25.77v-8.5zM8.4 25.5h8.571V34H8.4v-8.5zm8.8-8.5h8.571v8.5H17.2V17zm0-8.5h8.571V17H17.2V8.5zm-8.571 0H17.2V17H8.629V8.5zM8.57 0h8.572v8.5H8.57V0zM0 0h8.571v8.5H0V0zm51.429 0H60v8.5h-8.571V0zm-8.572 0h8.572v8.5h-8.572V0zm-8.514 17h8.571v8.5h-8.571V17zm-.057-8.5h8.571V17h-8.571V8.5zm8.571 0h8.572V17h-8.572V8.5z"/>
</svg>
