<svg xmlns="http://www.w3.org/2000/svg" width="143" height="51" viewBox="0 0 143 51">
    <g fill="#FFF" fill-rule="nonzero" opacity=".5">
        <path d="M1.548 42.433c.091.366.455.733.82.916.364.275.819.367 1.365.459.547.091 1.002 0 1.366-.184.455-.183.637-.458.729-.916.09-.55-.092-.917-.547-1.283-.182-.184-.728-.458-1.639-.825-.728-.367-1.275-.733-1.639-1.1-.455-.55-.637-1.191-.455-1.924.273-1.375 1.184-2.475 2.64-3.208 1.548-.733 3.096-.825 4.826-.275 0 .367-.09.825-.273 1.375-.182.55-.273 1.008-.273 1.283 0-.367-.182-.642-.546-.917-.364-.275-.729-.366-1.275-.458-.546-.092-1.002 0-1.366.092-.455.183-.728.366-.91.733.09.55.455 1.008.82 1.375.272.275.728.458 1.365.824.728.275 1.184.55 1.366.734a1.8 1.8 0 0 1 .82 1.191 3.57 3.57 0 0 1-.274 2.383c-.364.733-1.001 1.283-1.821 1.833-.82.458-1.73.733-2.732.916-1.092.092-2.003 0-3.004-.366-.092-.459 0-1.008.182-1.467.182-.458.364-.825.455-1.191zm10.562-6.507c-.546-.183-1.001-.642-1.365-1.192.09-.824.546-1.283 1.365-1.558.82-.274 1.366 0 1.73.734a2.194 2.194 0 0 1-.637 1.191c-.546.458-.91.642-1.093.825zm1.548 1.191v3.208c0 1.283.091 2.291.182 2.933 0 .183.183.275.547.183h.82c-.73.733-1.367 1.283-1.913 1.558-.82.55-1.73.642-2.64.367-.183-.642-.274-1.65-.183-2.933 0-1.833.091-2.841 0-3.208h-.91c.273-.55.82-1.008 1.457-1.466 1.001-.642 1.82-.917 2.64-.642zm1.821-2.108c.274-.55.729-1.008 1.366-1.466.82-.641 1.64-.825 2.459-.641.182 1.19.273 2.84.182 4.949v5.223c0 .184.182.275.455.184h.729c-.638.733-1.184 1.283-1.64 1.558-.728.55-1.547.733-2.458.733a17.612 17.612 0 0 1-.182-2.566V40.05c.091-1.375.091-2.291.091-2.933 0-1.1-.364-1.741-.91-2.016 0-.092 0-.092-.092-.092 0 .092-.09.092-.09.184 0-.092 0-.092.09-.184zm6.92-1.466c.82-.55 1.64-.733 2.55-.458v7.24c.273-.092.638-.367 1.002-.825.182-.275.546-.641 1.092-1.191 1.002-1.008 2.095-1.375 3.37-1.283 0 .183.182.366.364.825.182.274.273.641.273.916-.364-.183-.82-.183-1.457-.183-.455 0-1.002.091-1.457.183.364.458.82 1.283 1.275 2.474.546.917 1.275 1.467 2.185 1.558-.637.825-1.092 1.375-1.366 1.742-.637.641-1.183.916-1.73.916-.637-.091-1.274-.641-1.82-1.833-.274-.641-.547-1.1-.638-1.466-.273-.55-.547-.917-.82-1.1-.182.092-.273.367-.182.733 0 .55.091.917 0 1.008.091.275.273.367.455.459.183.091.456 0 .729-.092-.729.733-1.275 1.283-1.64 1.558-.728.55-1.547.825-2.458.733-.273-1.1-.273-2.75-.273-4.857 0-2.933.091-4.674 0-5.224-.09-.275-.182-.367-.455-.367-.364.092-.546.184-.728.184.91-1.008 1.547-1.558 1.73-1.65zm18.212.183c1.274-.091 2.367-.091 3.278.184 1.001.275 1.548.824 1.639 1.558.09.55-.182 1.008-.82 1.558-.728.641-1.184 1.1-1.366 1.374.365.55.91 1.467 1.457 2.933.638 1.192 1.275 1.833 2.003 1.833.274-1.466 1.002-2.75 2.095-4.032 1.183-1.375 2.55-2.108 4.006-2.292 1.275-.183 2.277.092 3.096.734.82.55 1.184 1.374 1.184 2.382 0 .917-.364 1.833-1.275 2.75-.82.916-1.73 1.65-2.914 2.2-1.184.55-2.367.733-3.369.55-1.184-.184-2.003-.917-2.55-2.109-.182.092-.728.55-1.547 1.375-.638.55-1.184.825-1.73.733-.729-.091-1.366-1.008-2.095-2.566-.364-.916-.637-1.558-.82-1.833-.363-.641-.637-1.1-1.092-1.283-.182.275-.273.733-.182 1.558 0 1.008.091 1.558 0 1.741 0 .184.182.275.455.184h.729c-.729.733-1.275 1.191-1.64 1.558-.728.55-1.547.733-2.458.733-.364-.917-.455-2.383-.455-4.4.091-2.749.091-4.398.091-4.857-.091-.274-.182-.366-.364-.274-.364.091-.638.183-.82.091.182-.55.82-1.1 1.913-1.558 1.183-.366 2.276-.641 3.55-.825zm10.471 9.807c.546.733 1.184.824 2.094.458.456-.55.729-1.375.729-2.475s-.182-2.016-.547-2.657c-.91-.55-1.639-.55-2.185 0-.455.458-.728 1.283-.728 2.29a3.494 3.494 0 0 0 .637 2.384zm-11.2-4.858c1.002.092 1.73 0 2.186-.366.09-.275.182-.642.182-1.1 0-.458-.091-.825-.182-1.191-.365-.184-.638-.275-.911-.367a2.583 2.583 0 0 0-1.184 0v3.024h-.09zm21.125 2.475c.728-.275 1.184-.55 1.548-.733 0-.642-.091-1.1-.273-1.375-.273-.367-.638-.458-1.275-.367-.273.092-.546.275-.546.734v1.19h-2.732c1.002-1.282 2.094-2.199 3.37-2.84 1.638-.825 3.186-.825 4.46 0 .092.641.183 1.558.183 2.658v2.84c0 .184.182.276.455.184h.729c-1.002 1.008-1.548 1.466-1.64 1.466-.728.459-1.547.642-2.458.642-.09-.092-.182-.367-.182-.642v-.916c-.182.183-.546.458-1.093.733-.546.275-1.092.55-1.639.642-1.456.366-2.367.091-2.55-1.009-.181-.824.456-1.65 1.913-2.382.182-.184.82-.459 1.73-.825zm-.637 2.474c.09.092.364.184.637.184h.91c.274-.184.456-.55.547-1.009.182-.55.091-1.008-.182-1.283-.182.092-.455.184-1.002.367-.455.092-.728.275-.91.458-.091.367-.091.642-.091.642.09 0 .09.275.09.641zm12.93-6.507V35.56c0-.183-.183-.366-.456-.458-.273-.183-.455-.092-.546.092.182-.55.637-1.1 1.457-1.65.91-.641 1.73-.825 2.458-.641.182 1.008.273 2.749.182 5.132-.09 2.474 0 4.124.183 5.132h.455c.09 0 .182 0 .273-.092-.273.459-.637 1.009-1.366 1.467-.82.641-1.639.916-2.367.641-.273.092-.456-.091-.456-.458v-.916c-.182.366-.546.733-1.183 1.008a4.21 4.21 0 0 1-1.912.458c-1.64.092-2.732-.458-3.187-1.65-.547-1.466.09-2.932 1.82-4.307 1.367-.733 2.823-1.558 4.645-2.2zm-2.55 6.324c.273.092.637.183 1.093.183.455 0 .82-.091 1.092-.183.273-.367.365-1.1.365-2.016v-2.383c-.274-.275-.729-.367-1.184-.367-.273 0-.729.184-1.275.367-.364.641-.546 1.375-.546 2.2-.091.916.09 1.65.455 2.199zm14.296-9.44c1.183-.183 3.004-.275 5.554-.183.182.55-.182 1.008-1.184 1.558-1.001.55-2.185.642-3.278.367-.182.183-.273.55-.182 1.1 0 .824.091 1.19 0 1.374h3.096c-.455.733-.82 1.192-1.093 1.466-.546.459-1.183.55-2.003.459v2.932a5.59 5.59 0 0 0 2.003.367c.82 0 1.548 0 2.186-.183.182 1.1-.547 1.741-2.277 2.108a11.696 11.696 0 0 1-5.008-.184v-8.615c0-.183-.182-.366-.364-.366h-.728c.364-1.192 1.457-1.925 3.278-2.2zm8.65 8.065a85.903 85.903 0 0 1-1.184-1.741c-.546-.55-1.092-1.008-1.73-1.191H90.6c.091-.367.455-.734 1.002-1.192.364-.275.91-.641 1.73-1.191.546.275 1.092.733 1.639 1.283l1.274 1.558c.274-.367.547-1.008 1.002-1.833.455-.642 1.002-1.008 1.73-1.1.273.092.546.367.729.825.273.458.455.825.637.916-1.002.184-1.64.367-2.094.55-.729.275-1.184.642-1.457 1.192.273.366.82.916 1.457 1.924.637.733 1.274 1.1 1.912 1.008.09.459-.273.917-.91 1.375l-1.64 1.1c-.637-.367-1.274-.825-1.82-1.466a12.553 12.553 0 0 1-1.458-1.833c0 .55-.273 1.1-.637 1.65-.364.55-.729.916-1.184 1.19-.455.276-.91.276-1.275.092-.455-.275-.728-.733-.82-1.558 1.64.184 2.733-.366 3.279-1.558zm10.744-4.949c.274 0 .456.092.456.55v1.008c.273-.458.728-.824 1.457-1.1.728-.274 1.456-.366 2.185-.366.82.092 1.457.275 2.003.733.546.55.82 1.283.82 2.291-.091 1.283-.82 2.475-2.277 3.575-1.275 1.008-2.731 1.558-4.097 1.833v2.29c0 .184.182.276.546.367.273.092.455.092.546-.091-.273.55-.82 1.1-1.456 1.558-.911.641-1.73.916-2.55.641-.182-1.283-.273-3.024-.182-5.224 0-3.116.09-4.949 0-5.499.09-.183-.091-.366-.455-.366-.274-.092-.456 0-.547.092.182-.459.638-.917 1.366-1.467.729-.733 1.457-1.008 2.185-.825zm.365 6.69c.728.459 1.274.55 1.82.367.456-.183.82-.641 1.093-1.191a7.019 7.019 0 0 0 .274-1.925c-.091-.733-.274-1.283-.547-1.741-1.275-.733-2.003-.55-2.367.733-.364.733-.455 2.016-.273 3.758zm6.738-8.798c.273-.55.728-1.008 1.366-1.466.82-.641 1.639-.825 2.458-.641.182 1.19.273 2.84.182 4.949v5.223c0 .184.182.275.455.184h.729c-.637.733-1.184 1.283-1.64 1.558-.728.55-1.547.733-2.458.733-.182-.642-.182-1.466-.182-2.566V40.05c.091-1.375.182-2.291.091-2.933 0-1.1-.364-1.741-.91-2.016 0-.092-.091-.092-.091-.092 0 .092-.091.092-.091.184 0-.092 0-.092.09-.184zm9.56 2.658c1.184-.55 2.368-.825 3.279-.641 1.183.183 2.003.916 2.55 2.108.454-.275 1-.734 1.82-1.558.82-.642 1.64-.825 2.459-.55.182.183.182.458.182.916v1.192c.09-.092.455-.55.82-1.375.364-.55.728-.917 1.274-.917.364.092.546.367.637.917 0 .275.092.733.183 1.375h-1.64c-.637 0-1.001.183-1.274.366v3.666c.09.092.364.183.728.183.273 0 .547 0 .638-.091-.365.55-.82 1.1-1.457 1.466-.91.55-1.821.825-2.823.733-.182-.366-.273-.916-.273-1.65.09-.916.09-1.557.09-2.016.092-.824 0-1.374-.09-1.741-.182-.55-.455-.825-.91-.916-.183.275-.274.55-.274.916 0 .458 0 .733-.09 1.008-.274.825-1.094 1.741-2.46 2.75-1.456 1.191-2.64 1.74-3.642 1.833a4.238 4.238 0 0 1-2.822-.734c-.729-.641-1.184-1.466-1.093-2.474 0-.825.455-1.65 1.275-2.566.82-.917 1.73-1.65 2.914-2.2zm-.182 5.866c.547.733 1.184.824 2.095.458.455-.55.728-1.375.728-2.475s-.182-2.016-.546-2.657c-.91-.55-1.64-.55-2.186 0-.455.458-.728 1.283-.728 2.29a3.494 3.494 0 0 0 .637 2.384zm15.662-5.316c.82-.55 1.73-.825 2.55-.916.91-.092 1.73 0 2.367.458.182.092.273.183.364.458 0 .092.091.275.091.55 0 .458-.273 1.1-.91 1.833-.91 1.008-2.186 1.558-3.734 1.65 0 .824.547 1.283 1.548 1.466 1.002.183 1.821.092 2.55-.367-.273.734-.82 1.283-1.64 1.742-.819.366-1.638.55-2.549.458-1.001-.092-1.73-.367-2.367-.825-.729-.55-1.002-1.375-1.002-2.291 0-.733.273-1.466.82-2.2a4.547 4.547 0 0 1 1.912-2.016zm.728 3.483a5.126 5.126 0 0 0 1.275-.917c.364-.458.546-1.008.455-1.741-.364-.367-.728-.55-1.092-.458-.364.091-.547.366-.82.733-.182.366-.273.825-.273 1.283 0 .458.182.825.455 1.1zM142.046 29.419l-1.639-.183-.455-1.467c.637.092 1.093 0 1.366-.183a.702.702 0 0 0 .182-.458c.091-.642-.273-1.833-.91-3.575-.547-1.558-.82-2.382-.73-2.474.274-.183.547-.367 1.003-.733-.183-.367-.911-3.208-2.277-8.523.455-.367.729-.917.91-1.742.092-.458.092-.825.092-1.191v-.458c-.273-.367-.729-.642-1.366-.825-.364-.092-.637 0-.82.366-.09.092-.182.459-.364 1.192 0 0 0 .183-.09.55 0 .275-.092.458-.183.641a8.07 8.07 0 0 1-.546.917l-.273.275c-.456.366-.729.824-.82 1.466v.916l.091 1.65c-1.366.183-2.367 0-3.096-.733-.637-.55-.91-1.375-1.092-2.566.455-.733.82-1.192 1.183-1.375.91-.092 1.457-.275 1.821-.458.091-.092.183-.183.183-.275 0-.642-.547-1.008-1.64-1.192h-1.638c0-.366-.547-.366-1.73-.183l-1.822.458c-.364.092-.546.459-.546 1.192 0 .366 0 .641.091.916-.182 1.008-.546 1.65-1.184 2.017l-.546.275h-.273c-.546.091-1.457-.184-2.64-1.009l-1.549-1.283c-.364-.275-1.001-.733-1.73-1.466l-1.001-1.008c-.182-.367-.82-.733-1.912-.917 0-.091-.092-.183-.274-.275-.182-.091-.364-.183-.455-.366-.182-.275-.364-.642-.637-.825 0 0-.273-.183-.638-.458a9.69 9.69 0 0 1-1.366-1.375c-.273-.367-.455-.642-.455-.825 0-.458-.546-.825-1.548-1.008.182-.183.364-.641.547-1.1.364-.55.364-1.008 0-1.374-.365-.367-.911-.459-1.457-.092-.273.183-.456.367-.638.55-.182.275-.182.55-.182.825 0 .366.091.824.273 1.283a2.157 2.157 0 0 0-1.274 1.1l-.365.733c-.09.183 0 .733.182 1.374.092.367.274.825.456 1.283.09.367.182 1.1.273 2.2l.273.825-1.548 1.1c-.637.275-1.457.916-2.55 1.833l-.09-.092-.547.55c-1.184 1.191-2.094 2.016-2.731 2.383-1.184.641-2.277.641-3.278.091-.729-.458-1.275-1.1-1.64-2.108a15.492 15.492 0 0 1-.637-2.749l-.182-.458c.364-.184.637-.275.91-.275.456-.458.638-.825.365-1.283l-.546-.459-2.732.092c-.091-.275-.273-.366-.546-.366l-.365.091c-.273.275-.728.367-1.274.458l-.82-.091c.182.091.273.366.182.825 0 .275 0 .458-.09.733-.274.458-.456 1.1-.638 1.833-.091.366-.182.641-.182.916-.091.55-.456.825-1.093 1.008l-.91.092c-.365-.183-1.093-.733-2.004-1.65L84.5 11.64c-.455-.55-.91-.916-1.639-1.283l-.91-.366c-.456.091-.91.091-1.275.091-.273-.091-.455-.183-.637-.275 0-.091 0-.275-.091-.55-.274-.55-.365-.916-.456-1.191-.182-.458-.09-.916.091-1.1 0 .184.091.367.273.55.183.183.274.367.274.367.182.458.455.825.91 1.191.455.367.91.642 1.366.917.728.458 1.002.366.82-.092-.456-.367-1.002-.825-1.366-1.375-.91-1.1-1.275-2.108-1.093-3.024.091-.275 0-.642-.364-.917-.273-.183-.547-.458-.91-.641.363-.275.637-.733.637-1.283.09-.642-.091-1.1-.547-1.375-.273-.183-.546-.275-.91-.183-.364.091-.547.275-.82.55a1.28 1.28 0 0 0-.182 1.008c0 .275.091.641.273 1.1h-.637c-.364 0-.637.366-.91 1.1 0 .091-.183.64-.456 1.74-.182.459-.273 1.009-.273 1.559-.091.641 0 1.191.091 1.65.091.274.273.458.637.55l.183.182c-.274.184-.547.275-.729.459h-.273c-.729.091-1.548.458-2.459 1.1l-1.183 1.008c-.456.275-.82.733-1.275 1.466l-.546.916.09 1.284c-2.276 1.1-4.461 1.74-6.464 1.924-2.004.183-3.734-.092-5.19-.916-1.002-.55-1.73-1.283-2.368-2.2-.546-.916-.82-1.924-.91-3.024.364-.184.637-.367.728-.55.182-.367.182-.733-.182-1.1-.273-.092-.637-.183-.91-.275-.73-.183-1.184-.183-1.549 0-.455 0-.91 0-1.365.092-.911.091-1.275.275-1.366.55l.455.366c-.091.092-.273.275-.455.55-.364.55-.638 1.192-.91 1.925.181.183.181.458.09.733-.182.458-.91.641-2.094.641-.455-.274-1.002-.55-1.548-1.008-1.093-.733-1.821-1.466-2.094-2.016-.182-.275-.364-.55-.638-.825-.455-.55-.82-.916-1.183-1.1-.182-.091-1.002 0-2.55.184-.09-.184 0-.458 0-.733l.182-.367 2.003.367c.547.183.82.091.729-.092-.182-.183-.364-.367-.638-.458-.91-.275-1.547-.55-1.82-.825-.274-.183-.456-.55-.547-1.008-.091-.458-.546-.825-1.184-.917l.091-.091c.091 0 .183-.184.365-.459s.273-.641.455-.916c.09-.183 0-.275 0-.458a.713.713 0 0 0-.364-.367c-.365-.183-.729-.275-1.002-.183-.637.091-.82.366-.82.733 0 .092-.09.275-.182.55-.09.366-.182.55-.182.641-.182.734-.182 1.192-.09 1.375a4.635 4.635 0 0 0-.456 1.466c-.091.275-.091.55-.091.734v.55c-.091.458-.091.916-.091 1.191l-1.548.275c-.091 0-.091.458 0 1.466.091.459.091 1.008.182 1.467-.273 0-.546.183-.91.366-.638.367-1.184.917-1.64 1.742l-.364 2.107c-.546-.091-1.001-.366-1.366-.641-.637-.55-1.001-1.466-1.092-2.658-.091-.733-.091-1.65.09-2.75.73-.091 1.185-.274 1.458-.458.09-.091.182-.183.09-.275 0-.641-.546-1.008-1.456-1.1h-1.457c0-.366-.546-.366-1.548-.183l-1.548.459c-.273.091-.455.458-.455 1.1 0 .274.09.641.09.916-.181.916-.454 1.65-1 2.016-.183.092-.365.183-.456.275h-.182c-.455.092-1.275-.183-2.276-.916l-1.366-1.192c-.364-.183-.82-.733-1.548-1.375l-.91-.916c-.183-.458-1.002-.825-2.46-1.008L11.838 7.79a3.954 3.954 0 0 0-1.639-.825l.364-.55c.365-.458.274-1.008-.273-1.466-.364-.55-.91-.55-1.275-.183-.364.366-.455 1.008-.182 2.016-.182 0-.364.183-.455.367l-.182.274c-.091.367-.091.825 0 1.284 0 .366.091.733.182 1.008s.182 1.008.273 2.108c0 .366 0 .733.091 1.008l-1.001.916a9.255 9.255 0 0 0-1.73 1.375c-.365.275-.638.641-.91.916-.183.184-.456 1.1-.82 2.566-.183.734-.274 1.467-.456 2.2-.09.55-.546 1.558-1.092 3.208-.274.275-.456.641-.729 1.191 0 .183-.09.458-.182.642.091.641 0 2.016-.273 4.032-.182.458-.364 1.1-.729 1.65.092.458.365.55.82.366.182-.091.455-.275.637-.458 0-.55 0-1.375.091-2.474l.091-1.375c.092-.367.456-1.1 1.093-2.291l.91-1.65c.456-.55.911-1.008 1.367-1.191l.546-.184c.182.459.273 1.283.364 2.567.091.641.091 1.19.091 1.65-.09.732-.09 1.19 0 1.649.091.183.091.275.182.366.456.367 1.002.917 1.548 1.742.273.458.455.825.638 1.191 1.092.092 1.639 0 1.912-.091.09 0 .09-.092.09-.184l-.09-.091c-1.002-.184-1.912-1.009-2.64-2.292-.183-.366-.456-.824-.547-1.283l-.182-.55c-.182-.458-.182-1.191 0-2.2l.455-1.557c.546-.458.82-1.1.82-1.833l-.183-1.192 1.366-.183c.82.458 1.821.733 2.914.825.546 0 1.093 0 1.457-.092.455-.091.82 0 1.093.275.09.092.182.184.182.367.09.458-.091 1.191-.456 2.383-.182.55-.364 1.1-.637 1.558.091 1.008 0 2.2 0 3.482-.182.55-.182 1.192-.182 1.742 0 .275.09.55.09.733 1.003.183 1.549.092 1.64-.183 0-.092 0-.184-.091-.367l-.091-.183c-.729-.733-.91-1.65-.547-2.841 0-.092.183-.459.547-1.192.182-.458.273-.733.182-.916-.091-.459-.091-1.192 0-2.017.091-.916.273-1.65.546-2.2.273-.64.547-1.099.729-1.282.182-.183.546-.275 1.001-.183.365.091.638.274.638.641 0 .458.09.642.09.642.092.091.183.366.274 1.008v.825c.364.458.637 1.191.91 2.2.183.457.274.916.274 1.374.364.641.91 1.558 1.73 2.658.09.641.273 1.1.455 1.374.091.184.273.184.364.184 1.002 0 1.64-.092 1.64-.275 0-.092 0-.184-.092-.275l-.091-.092c-.91.092-1.821-.825-2.64-2.566a10.965 10.965 0 0 1-.729-1.833l-.273-.825c-.273-.825-.455-2.016-.729-3.666l-.182-2.2c1.64.276 2.914.184 3.916-.458.455-.274.82-.641 1.001-.916 1.002-.367 1.821-1.008 2.368-1.833.273-.458.455-.825.455-1.191.273-.55.546-1.008.91-1.375-.182 2.566.183 4.399 1.184 5.407.456.367.91.642 1.548.733-.182 1.008-.364 2.017-.455 3.025l-1.457 2.2.455 4.765v.367c-.09.274-.273.55-.637.824v1.1c.091.642.364.825.91.367 0-.184.092-.367.092-.642.09-.458.364-.916.637-1.283V28.87c-.091-.916-.182-1.741-.364-2.291l1.457-2.016.09 1.1c.092.824.092 1.282.183 1.649l2.55 3.85.546.366c.364.091.637 0 .728-.458l-.728-.825-1.457-2.291-.273-2.567c0-.366.09-.733.09-1.1.183-.824.456-1.374.73-1.649l.363-.458c.273-.367.365-.825.273-1.375l.183-.092c.182-.091.364-.091.546-.091.728 0 1.639.183 2.732.733l3.186-.458h.183c.09.091.182.183.182.275.182.458-.091 1.374-.729 2.657 0 0-.09.092-.182.092-.09.092-.273.275-.364.458-.364.642-.455 1.558-.455 2.658l-.274 3.85h1.184c.729-.092 1.093-.367.91-.734l-1.092.092-.091-2.75.728-1.191c.456-.825.638-1.466.547-1.833l1.366-2.933.182 1.467c.182 1.1.455 1.924.728 2.566 1.366 2.84 2.094 4.49 2.186 4.857l2.458-.183a1.264 1.264 0 0 1-.273-.367c-.273-.275-.546-.458-.91-.55a2.767 2.767 0 0 1-.638-.458c-.455-.367-.637-.916-.729-1.375l-.637-2.383-.91-5.04.819-.733h1.457c1.002-.184 1.821-.642 2.367-1.558l.91-.825c.73-.642 1.185-1.008 1.458-1.1.09-.183.182-.367.273-.641.273-.55.455-.917.637-1.375l.274-.458c.273-.367.637-.55 1.001-.734 0 1.192.364 2.2 1.002 3.116.637.917 1.366 1.65 2.458 2.2 1.548.825 3.278 1.1 5.372.916 2.004-.183 4.189-.824 6.556-1.924l.183 1.741c-.274.55-.274 1.1-.183 1.65 0 .275.092.55.183.733 0 .458-.365 1.466-.911 3.024-.364.734-.455 1.375-.182 1.925.091.275.273.55.455.641.273.55 1.093 2.017 2.368 4.4.728.275 1.001.183.82-.275l-.274-.55c-.546-.55-.91-1.558-1.275-3.025l-.273-2.016c-.091-.641.182-1.466.82-2.474.364-.459.728-.917 1.001-1.283.273-.092.273-.459.182-1.009v-.733c.091-.366.182-.55.456-.641h.364l.182 2.383-1.093 2.2c-.455.457-.637 1.007-.546 1.649 0 .275.09.55.182.825.546.641 1.548 2.016 2.823 4.032.09.367.182.642.182 1.008 0 .184 0 .275-.091.367.82.091 1.457.091 1.82-.092.183-.091.274-.183.274-.275-.728-.275-1.366-1.008-2.094-2.291l-.82-1.833-.728-2.474 1.639-2.108c.637-.733 1.275-1.192 1.82-1.558.274-.184.456-.275.638-.275.547.275 1.548.458 2.914.55h1.912c.182 0 .364.916.455 2.566 0 .825.092 1.741 0 2.566-.09.275-.546.733-1.456 1.558l-1.366 1.191-1.184 1.192-.546.55c.182.824.455 1.191.82 1.008.181-.092.272-.184.454-.458 0-.275.456-.825 1.457-1.833l1.366-1.375c.82-.55 1.275-.917 1.366-1.375 0-.092 0-.183-.091-.366l-.091-.092c.182-.733.455-1.192.728-1.65.274-.366.365-.366.365-.183l.455 3.024c.273.275.455.825.546 1.65.091.367.091.733.091 1.1.091.641.182 1.1.456 1.191.09 0 .182 0 .364-.091 1.092.183 1.639.183 1.639.091 0 0-.091-.091-.364-.183-.547.092-1.002-.642-1.366-2.016l-.273-2.017c.09-.275 0-.641-.092-1.008l-.182-.55c-.09-.366-.273-1.374-.455-3.024l-.182-2.383c.091-.366.364-.733.91-1.1.274-.183.456-.366.729-.458.546.092 1.002.183 1.548.092.273 0 .455-.092.546-.092.638-.092 1.184-.458 1.73-.825.273-.183.456-.458.638-.641.09-.367.182-.642.364-.917.091-.183.182-.275.182-.366 1.093-.092 1.73-.367 2.003-.825a.787.787 0 0 0 0-.642c0-.55.091-1.1.364-1.833l.365-.824c.09-.184.182-.367.364-.55l.091.366c.182 1.283.455 2.291.637 2.841.365 1.008 1.002 1.742 1.821 2.2.638.366 1.275.55 2.004.458.637-.092 1.365-.275 2.094-.825.546-.366 1.093-.916 1.821-1.558-.364.917-.728 2.291-1.093 4.124-.182.55-.637 1.65-1.365 3.391-.274.275-.638.642-.82 1.192a6.34 6.34 0 0 1-.273.733c.09.642-.091 2.108-.455 4.216-.183.55-.456 1.1-.82 1.741.091.458.455.642.91.367.274-.092.456-.275.73-.459 0-.641.09-1.466.181-2.566l.182-1.466c.091-.367.547-1.1 1.366-2.383a12.87 12.87 0 0 1 1.093-1.65c.546-.55 1.092-1.008 1.639-1.283.273-.091.455-.183.637-.183.182.458.273 1.375.364 2.658 0 .641.091 1.191.091 1.741-.182.733-.182 1.283-.09 1.65l.182.366a5.604 5.604 0 0 1 1.73 1.833c.273.459.546.825.728 1.192 1.184.091 1.912.091 2.185-.092.091-.091.091-.183 0-.275-1.183-.275-2.185-1.1-2.913-2.474-.274-.459-.456-.917-.638-1.375l-.182-.642c-.182-.458-.091-1.283.091-2.29l.455-1.467c.638-.458.911-1.1 1.002-1.925 0-.275 0-.55-.091-.825l-.091-.366 1.548-.092c1.001.55 2.094.825 3.369.917h1.639c.546-.092 1.002 0 1.275.275.09.091.182.183.182.366.09.458-.091 1.283-.638 2.475-.273.55-.455 1.1-.728 1.65 0 1.1 0 2.29-.182 3.665a6.389 6.389 0 0 0-.273 1.833c0 .367 0 .55.09.825 1.184.183 1.822.183 1.913-.183.09-.183 0-.367-.182-.55-.91-.733-1.093-1.741-.547-2.933 0-.091.274-.55.638-1.283.182-.458.364-.733.273-.916-.091-.55-.091-1.283.091-2.108.182-.917.364-1.742.728-2.291.365-.734.638-1.1.911-1.284.273-.183.637-.274 1.184-.183.455.092.637.275.728.733v.367c0 .092 0 .183.091.275.182.092.182.458.273 1.008v.917c.365.458.729 1.19 1.002 2.29.182.55.273 1.009.364 1.467.364.733 1.093 1.65 1.912 2.841.091.642.274 1.1.547 1.375.182.183.273.183.455.275 1.184 0 1.821-.092 1.912-.275 0-.092 0-.275-.182-.367-1.002.092-2.003-.825-2.914-2.75a20.251 20.251 0 0 1-.82-1.924l-.272-.916c-.274-.917-.547-2.2-.729-3.85l-.182-2.29c1.821.274 3.37.183 4.462-.367.546-.275.91-.642 1.184-1.008 1.092-.367 2.003-.917 2.64-1.742.364-.458.546-.916.638-1.374.182 1.008.546 1.833 1.092 2.382.729.642 1.73.917 3.005.825h.364l.273 4.033c0 1.191.274 2.933.638 5.224-.547.183-1.093.366-1.548.825l-.546.55c-.092 0-.183 0-.274.091-.182.183-.364.458-.455.917 0 .183.091.55.364.824.091.184.456.459.91.917.183.183.456.458.82.733.182.183.365.275.365.275.182-.092.182-.458-.183-1.191l-.546-1.009c.364-.641.729-.824 1.002-.458a.835.835 0 0 1 .273.642c0 .55.273.733.91.641.274 0 .638-.183 1.002-.275.182.459.273.825.455 1.1.091.183.182.183.182.275 1.548 0 2.55 0 3.005-.275v-.733zM12.384 10.265c0-.092-.092-.092-.092-.184l-.273-1.1h.182c.091 0 .183.092.274.184.09.091.273.183.546.366l.728.367c-.455 0-.91.183-1.365.367zm99.978-1.925a2.248 2.248 0 0 1 0-1.1l.091-.458h.365c.273.092.455.183.546.275.182.275.455.458.637.641-.455.092-1.001.275-1.639.642z"/>
    </g>
</svg>
