<svg xmlns="http://www.w3.org/2000/svg" xmlns:xlink="http://www.w3.org/1999/xlink" width="121" height="44" viewBox="0 0 121 44">
    <defs>
        <path id="a" d="M0 0h36.476v18.713H0z"/>
        <path id="c" d="M0 44h120.897V0H0z"/>
    </defs>
    <g fill="none" fill-rule="evenodd">
        <g transform="translate(0 25.287)">
            <mask id="b" fill="#fff">
                <use xlink:href="#a"/>
            </mask>
            <path fill="#8F8F8F" d="M1.212 16.91a.49.49 0 0 0 .141-.236.603.603 0 0 0-.047-.45c0-.095.024-.166.024-.26 0-.048.023-.12.023-.167.142-.9.33-1.776.567-2.652.236-.948.495-1.895.778-2.842.52-1.8 1.156-3.577 1.77-5.353.212-.616.424-1.232.613-1.848.118-.378.26-.757.377-1.16.024-.047.024-.118.047-.166h.213c.59-.118 1.203-.236 1.793-.355.377-.071.73-.119 1.108-.166.377-.047.779-.094 1.156-.118l1.274-.071c.4-.024.802 0 1.18 0 .188 0 .377 0 .542.024.236.023.472.023.708.047.212.024.448.047.66.095.307.07.613.118.92.189.613.142 1.227.308 1.84.45.566.142 1.132.308 1.675.497.59.214 1.203.427 1.793.664.566.237 1.132.497 1.675.757.66.308 1.297.593 1.981.83.283.094.59.165.897.236.141.048.306.048.448.095.212.047.425.07.613.095.66.07 1.298.095 1.958.047.708-.047 1.416-.19 2.123-.332a22.64 22.64 0 0 0 1.817-.473 11.69 11.69 0 0 0 1.769-.758c.283-.142.566-.308.826-.497.07-.071.165-.119.236-.19-.048.284-.119.568-.19.853-.164.71-.306 1.445-.471 2.155-.165.734-.354 1.445-.519 2.179-.094.355-.165.734-.26 1.09-.07.307-.141.615-.212.947-.141.663-.26 1.326-.377 1.99a74.392 74.392 0 0 1-.378 2.25c-.07.45-.141.9-.212 1.373-.07.426-.141.829-.189 1.255-.26.071-.495.166-.731.26-.283.095-.566.19-.873.238a6.032 6.032 0 0 1-1.132.023c-.425-.023-.85-.07-1.274-.118a6.793 6.793 0 0 1-1.557-.38c-.26-.118-.519-.236-.778-.378-.283-.166-.543-.308-.826-.497-.26-.166-.543-.356-.826-.498a7.147 7.147 0 0 0-.849-.426 7.862 7.862 0 0 0-.943-.38l-.496-.141c-.189-.048-.377-.071-.566-.119-.283-.07-.543-.094-.826-.142-.33-.047-.637-.094-.967-.142a15.719 15.719 0 0 1-1.038-.166c-.377-.047-.731-.094-1.108-.118-.283-.024-.567-.047-.826-.047-.307 0-.59-.024-.897-.024h-.047c-.66 0-1.297.024-1.958.047-.283.024-.566.024-.849.071-.354.048-.708.071-1.061.119-.685.094-1.345.213-2.03.355-.565.118-1.155.237-1.721.355-.637.166-1.274.308-1.888.498-.636.19-1.273.379-1.91.592-.873.284-1.793.615-2.713.995m5.45-.593c.66-.165 1.297-.331 1.957-.473 1.085-.237 2.17-.45 3.279-.616l.708-.071c.26-.024.519-.047.778-.047.496-.048.991-.048 1.51-.048.495 0 .99 0 1.486.024.472 0 .944.07 1.416.118.754.119 1.51.237 2.24.355.213.048.449.072.661.119.212.047.401.095.614.142.353.071.707.213 1.037.332.26.118.543.26.802.402.26.142.52.332.779.498.519.331 1.038.686 1.604.947.26.118.519.237.779.331.235.071.495.143.73.19.166.047.355.07.543.095.142.023.307.047.448.047.614.047 1.25.071 1.864.024.236-.024.496-.071.732-.118.212-.048.424-.119.636-.19l.567-.213c.259-.119.518-.213.778-.355a.459.459 0 0 0 .236-.403c0-.024.023-.048.023-.071.095-.734.213-1.469.307-2.18.094-.71.212-1.42.307-2.107l.141-.995c.047-.379.118-.734.165-1.113.071-.402.142-.829.213-1.232.07-.355.141-.71.212-1.042a52.79 52.79 0 0 0 .401-1.87c.095-.45.165-.877.26-1.327.07-.331.118-.64.188-.971.095-.474.166-.923.236-1.397.024-.19.071-.38.095-.569 0-.023 0-.07.023-.095.236-.165.52-.307.755-.473.283-.19.401-.545.212-.83a.604.604 0 0 0-.353-.283c-.213-.071-.425 0-.59.165a.63.63 0 0 1-.142.119c-.188.142-.4.26-.59.379-.235.142-.448.308-.66.45a6.474 6.474 0 0 1-.684.402 5.58 5.58 0 0 1-.66.308c-.661.26-1.345.498-2.03.664-.707.165-1.438.307-2.17.426a6.996 6.996 0 0 1-1.226.047c-.401 0-.802-.047-1.203-.095-.165-.023-.354-.047-.52-.094-.212-.047-.448-.095-.66-.166-.4-.095-.778-.26-1.156-.403-.566-.237-1.108-.52-1.675-.758-.66-.284-1.32-.568-2.005-.805L19 1.137c-.307-.095-.637-.19-.944-.26-.283-.071-.566-.143-.873-.214-.353-.07-.707-.165-1.085-.237-.66-.142-1.345-.26-2.005-.331l-.566-.071C13.337 0 13.172 0 12.983 0H11.97a27.996 27.996 0 0 0-3.987.355c-.755.119-1.533.26-2.288.427C5.67.758 5.67.71 5.647.687A.26.26 0 0 0 5.41.545c-.142 0-.236.094-.283.213-.07.19-.118.379-.165.568 0 .048-.024.071 0 .119-.048.118-.071.26-.118.379-.048.165-.118.331-.165.473-.166.498-.33.995-.52 1.469-.306.853-.59 1.705-.896 2.534-.354.971-.707 1.966-1.061 2.96a47.64 47.64 0 0 0-.826 2.606 41.22 41.22 0 0 0-.66 2.274c-.095.378-.213.757-.307 1.16-.047.19-.118.403-.165.592-.048.19-.07.379-.095.569 0 .07 0 .142.024.213 0 .023 0 .023.023.047.024.095.071.19.142.26.118.143.283.19.472.19a6.504 6.504 0 0 1-.378.142c-.141.071-.283.142-.353.284a.808.808 0 0 0-.071.474.605.605 0 0 0 .283.355c.118.071.33.119.472.071 1.368-.544 2.713-1.09 4.128-1.54.566-.283 1.156-.473 1.77-.639" mask="url(#b)"/>
        </g>
        <path fill="#8F8F8F" d="M6.055 36.879c-.025.049-.05.122-.101.171l-.076.073c-.025-.024-.05-.049-.076-.097 0-.025-.025-.025-.025-.05 0-.024-.026-.048-.026-.073.076-.122.178-.244.254-.367.025-.024.05-.049.05-.073.026.024.026.049.026.073 0 .025.025.05.025.074v.073c0 .049-.025.122-.05.196zm-.152.244c0-.024 0-.024 0 0 .026-.024.026-.024 0 0 0-.024 0-.024 0 0zm-.025 0s-.025 0 0 0c-.025 0 0 0 0 0zm-.127-.17v.024-.025zm.76.586l.229-.293c.126-.172.228-.392.278-.587 0-.05.026-.123.026-.172 0-.073-.026-.147-.026-.22a.996.996 0 0 0-.177-.367.612.612 0 0 0-.279-.22c-.127-.025-.253-.025-.355.049l-.025-.025a.493.493 0 0 0-.203-.049c-.025 0-.076 0-.101.025a.403.403 0 0 0-.228.171c-.152.22-.355.416-.482.66-.05.099-.101.196-.126.319-.026.122 0 .269.025.416.076.27.279.49.507.612.101.073.253.073.355.073.126 0 .253-.049.355-.098.075-.122.151-.22.227-.294zM28.76 34.138c.102 0 .178-.048.255-.097.229-.168.458-.36.712-.53.153.17.305.314.458.482a.511.511 0 0 0 .712 0 .464.464 0 0 0 .153-.337.427.427 0 0 0-.153-.337c-.127-.144-.229-.265-.356-.41.33-.216.636-.433.967-.65a.387.387 0 0 0 .178-.216.455.455 0 0 0-.025-.265.442.442 0 0 0-.331-.169.493.493 0 0 0-.178.048l-1.069.723c-.178-.193-.356-.41-.534-.602a.517.517 0 0 0-.356-.145.533.533 0 0 0-.382.145.477.477 0 0 0-.152.361c0 .144.05.24.152.361l.458.506c-.254.193-.483.385-.738.578-.152.12-.127.361 0 .482.051.024.128.072.23.072M8.343 37.387c.267-.146.535-.268.802-.414a.271.271 0 0 0 .107-.414.352.352 0 0 0-.187-.145h-.08c-.054 0-.107.024-.187.048-.268.122-.562.244-.83.365-.16.073-.213.292-.133.438a.42.42 0 0 0 .508.122M11.083 36.408c.449-.1.898-.201 1.347-.326.118-.026.166-.15.142-.276a.2.2 0 0 0-.19-.15h-.046c-.45.1-.899.2-1.371.3-.118.025-.166.15-.142.276.024.15.142.2.26.176M14.468 35.595c.298.111.596.195.894.306.091.028.183-.028.229-.14a.261.261 0 0 0-.115-.278l-.893-.334h-.046c-.092 0-.16.056-.184.167-.045.14.023.25.115.279M17.313 35.937c.491.163.958.325 1.449.465.147.046.295-.047.344-.186.049-.14-.05-.28-.197-.326-.49-.14-.958-.302-1.45-.464-.023 0-.048-.024-.073-.024-.122 0-.245.093-.27.21-.024.07 0 .139.025.209.049.046.098.093.172.116zM21.333 36.624c.1.051.175.051.275.026.25-.026.5-.077.75-.128.1-.025.226-.05.326-.076.15-.051.3-.077.475-.153.15-.051.275-.23.225-.383a.397.397 0 0 0-.15-.204c-.05-.025-.1-.05-.15-.05h-.1c-.15.025-.325.05-.475.076-.376.05-.725.102-1.1.153-.076 0-.176.102-.226.178a.278.278 0 0 0-.025.28c.025.154.1.23.175.281M24.611 35.65c.23-.071.458-.118.687-.189.101-.024.203-.047.305-.094a3.25 3.25 0 0 0 .432-.165c.05-.023.076-.023.102-.07.025-.047.025-.07.025-.118-.025-.07-.076-.117-.152-.117h-.051c-.23.07-.483.14-.738.211-.228.071-.457.118-.686.188a.167.167 0 0 0-.127.212c.025.118.127.165.203.141M27.672 35.402c.279 0 .503-.225.503-.505a.502.502 0 1 0-1.007 0c0 .28.252.505.504.505M13.096 8.227c.072-.524.215-1.049.334-1.55.095-.405.262-.787.405-1.168.071-.167.143-.334.238-.5.19-.407.429-.764.69-1.122a8.715 8.715 0 0 1 1.383-1.43c.262-.192.524-.359.81-.478.476-.19 1-.286 1.5-.381.382-.072.739-.12 1.12-.167.238-.024.453-.048.691-.048.214 0 .429 0 .643.024.405.072.81.19 1.215.334.095.047.19.071.286.119.167.072.31.143.476.239.334.166.667.357.977.596.238.19.453.381.667.596.215.214.43.453.62.691.524.692.905 1.455 1.238 2.242.048.143.12.31.167.453.12.334.19.668.238 1.026.024.167.048.333.048.5.048.454.048.906-.024 1.36a11.094 11.094 0 0 1-.429 1.86c-.166.524-.357 1.025-.547 1.526-.31.644-.62 1.311-1.001 1.908a39.527 39.527 0 0 1-1.334 1.931c-.882 1.169-1.787 2.337-2.62 3.53-.239.334-.453.667-.691.978-.239.31-.477.643-.691.977l-.572.859c-.81-1.169-1.62-2.314-2.359-3.53-.38-.62-.714-1.264-1.072-1.908-.166-.333-.357-.667-.524-1a13.597 13.597 0 0 1-.476-1.026l-.429-1.074c-.167-.405-.286-.858-.405-1.263a21.9 21.9 0 0 1-.548-2.48c-.047-.835-.119-1.742-.024-2.624m-1.43 3.196c.049.358.12.74.192 1.097.095.405.19.81.31 1.216.095.358.214.692.357 1.025.286.787.643 1.55 1.024 2.313.333.668.738 1.336 1.12 1.98.762 1.288 1.643 2.504 2.501 3.72.334.453.667.93.977 1.407.047.047.071.095.119.143-.024.048-.048.071-.072.12-.142.285-.119.643.12.881a.738.738 0 0 0 .524.215c.071 0 .119-.024.19-.024a.68.68 0 0 0 .334-.19c.238-.191.357-.525.524-.787.143-.239.262-.453.429-.668.31-.43.619-.882.952-1.311.215-.263.43-.549.62-.835.214-.31.429-.596.643-.907.429-.596.881-1.192 1.334-1.788.905-1.192 1.834-2.385 2.573-3.696.762-1.336 1.358-2.79 1.691-4.293.12-.5.19-.977.262-1.478a6.46 6.46 0 0 0 0-1.36 8.741 8.741 0 0 0-.095-.787 7.094 7.094 0 0 0-.548-1.836c-.143-.334-.31-.691-.5-1.025-.12-.191-.215-.406-.334-.596-.285-.478-.619-.907-.976-1.336-.644-.74-1.43-1.359-2.311-1.765-.477-.214-.953-.429-1.453-.596A6.188 6.188 0 0 0 20.696 0h-.262c-.382 0-.787.048-1.168.095-.405.072-.833.12-1.238.191-.19.024-.381.072-.572.12a5.635 5.635 0 0 0-1.263.429c-.429.19-.81.5-1.167.787a9.519 9.519 0 0 0-1.096 1.097c-.31.381-.62.762-.857 1.192-.143.262-.262.525-.406.787-.166.358-.333.74-.452 1.097-.12.334-.238.691-.31 1.049-.166.692-.31 1.383-.333 2.099v.644c0 .19.023.405.023.596-.023.429.024.834.072 1.24"/>
        <path fill="#8F8F8F" d="M16.415 8.24c.048-.283.095-.567.19-.827.048-.141.095-.283.167-.425.119-.212.238-.401.38-.59.072-.095.167-.19.238-.283.119-.142.262-.26.404-.378.167-.119.357-.237.547-.355.167-.094.357-.189.547-.283.095-.047.214-.07.31-.095.047 0 .07-.023.118-.023.238-.024.452-.024.666 0 .167.023.333.047.476.094.19.048.356.118.547.166.332.117.642.236.95.354.215.118.453.213.643.354.095.071.166.166.261.26.143.189.238.378.357.59.143.355.238.732.31 1.134a8.384 8.384 0 0 1 0 1.89c-.025.14-.049.306-.096.448-.048.165-.095.354-.166.52a6.38 6.38 0 0 1-.38.685c-.096.118-.215.236-.334.354a.925.925 0 0 1-.238.189c-.07.07-.142.118-.237.189-.072.047-.167.118-.238.165-.19.142-.404.26-.619.354-.142.071-.308.118-.475.165a3.768 3.768 0 0 1-.5.118c-.19.024-.404.024-.594 0a5.381 5.381 0 0 1-.832-.212 4.016 4.016 0 0 1-.69-.402 3.15 3.15 0 0 1-.499-.472c-.071-.07-.119-.165-.19-.236-.095-.142-.19-.26-.286-.401-.142-.237-.285-.45-.404-.685-.048-.142-.071-.284-.119-.449-.095-.378-.19-.756-.261-1.157.023-.26.023-.496.047-.756m-.69 2.622c.167.377.381.708.595 1.062.024.024.024.047.048.071.047.095.095.166.142.236.072.142.167.26.262.402.19.26.404.52.642.732.238.212.5.401.785.543.166.094.333.142.499.213.166.07.357.118.523.165.214.047.452.07.69.094.238.024.451.048.69.024.309 0 .594-.047.88-.142a2.93 2.93 0 0 0 .903-.448c.785-.52 1.355-1.3 1.76-2.15.094-.212.213-.448.285-.684.047-.118.071-.237.119-.355.047-.118.071-.26.095-.378.024-.094.048-.212.071-.33a1.38 1.38 0 0 0 .048-.307c.047-.26.07-.52.095-.78.023-.236.023-.448.047-.685v-.66c-.024-.237-.047-.497-.071-.733-.024-.118-.048-.236-.048-.354-.023-.118-.047-.213-.07-.33-.024-.119-.072-.237-.096-.355a3.605 3.605 0 0 0-.19-.449c-.024-.047-.072-.094-.095-.141-.072-.095-.143-.166-.215-.26-.285-.307-.665-.543-1.022-.732a3.778 3.778 0 0 0-.856-.331c-.238-.07-.475-.07-.737-.095-.214-.023-.428-.023-.642-.023a1.168 1.168 0 0 0-.31-.094 2.917 2.917 0 0 0-.451-.048h-.071c-.143 0-.286 0-.428.024-.333.07-.619.165-.928.307-.309.141-.618.307-.88.472-.095.071-.214.142-.309.19-.095.07-.214.164-.309.235-.19.142-.38.307-.547.496a4.47 4.47 0 0 0-.594.732c-.262.378-.405.803-.476 1.252a5.57 5.57 0 0 0-.214 1.535c0 .33.048.661.095.992 0 .425.143.756.285 1.087M23.394 15.286h-.072c-.45.15-.902.325-1.33.499.072-.05.096-.15.048-.25-.047-.099-.166-.124-.26-.074l-.428.224c-.19.1-.404.2-.617.3-.072.024-.143.074-.238.1-.118.024-.261.024-.38.024h-.166c-.095 0-.19 0-.261-.025-.143 0-.285-.025-.427-.025-.238-.025-.475-.025-.736-.074-.024 0-.048 0-.072-.025a7.022 7.022 0 0 1-.498-.4l-.641-.523c-.214-.2-.428-.374-.641-.573-.048-.025-.071-.05-.143-.05a.325.325 0 0 0-.142.05c-.071.074-.071.224 0 .274.19.174.38.349.594.523.142.125.308.25.45.374h-.023l-.356-.224a6.863 6.863 0 0 1-.428-.424l-.237-.25a2.619 2.619 0 0 1-.214-.273c-.023-.05-.095-.05-.142-.05a.247.247 0 0 0-.143.05c-.07.074-.07.199 0 .299.095.1.167.224.262.324.094.125.213.224.308.35.095.099.19.198.309.298.118.1.237.2.38.274.047.025.095.05.142.1-.024 0-.047-.025-.071-.025-.024-.05-.095-.05-.143-.05h-.023a.33.33 0 0 0-.167-.05c-.332-.124-.664-.274-.997-.423h-.047c-.048 0-.095.025-.119.025a.251.251 0 0 0-.118.149c-.024.075 0 .125.023.2.024.05.071.1.143.124.38.15.76.324 1.14.474l.213.075c.166.15.356.299.546.423.166.1.332.2.522.3.119.05.214.1.333.15.142.05.285.124.427.149a.17.17 0 0 0 .214-.125v-.025h.118a.423.423 0 0 1 .167-.05c.213.075.427.125.664.2-.071.05-.142.075-.237.125-.048.024-.071.1-.024.15.024.05.095.05.142.05a6.12 6.12 0 0 0 .404-.225c.119.025.261.074.38.1.19.05.404.1.594.124.07 0 .118 0 .166-.025.047-.025.095-.075.095-.125.024-.1-.024-.249-.143-.274-.166-.025-.332-.075-.498-.125.38-.199.736-.374 1.116-.573a.697.697 0 0 0 .19-.1c.047-.024.047-.1.023-.15-.023-.024-.023-.049-.047-.049h-.024c-.024 0-.024 0-.048.025-.356.175-.712.349-1.044.524-.143.074-.285.149-.404.224a.335.335 0 0 0-.095-.075c-.047-.025-.094-.025-.166-.05-.047-.025-.095-.05-.166-.05 0 0-.024 0-.024-.025.356-.124.712-.274 1.069-.398.617-.25 1.21-.5 1.804-.748.119-.05.214-.1.332-.15a.19.19 0 0 0 .095-.1.253.253 0 0 0 .024-.224c-.024-.1-.119-.2-.237-.2M20.777 19.93c-.458-.147-.892-.343-1.326-.539l-.65-.294-.025-.024c.12-.025.241-.074.386-.098.144-.05.313-.073.458-.123.048-.024.096-.024.145-.049.12.05.24.099.361.147.073.025.169-.024.193-.098 0-.049 0-.073-.024-.122-.024-.025-.048-.049-.072-.049.144-.049.313-.098.458-.171.024 0 .048-.025.072-.05.024-.024.024-.048 0-.097-.024-.05-.072-.098-.12-.098h-.025c-.24.098-.506.171-.747.245-.193-.074-.41-.172-.603-.245-.12-.05-.265-.123-.385-.172 0 0 0-.024.023-.024.025-.05-.023-.123-.072-.123a9.51 9.51 0 0 1-.892-.318c-.29-.122-.578-.22-.868-.343-.24-.098-.458-.22-.699-.318-.024-.024-.048-.024-.096-.024h-.049c-.048 0-.072.049-.096.073-.024.049-.024.073-.024.122 0 .05.048.074.072.098.506.22 1.013.465 1.519.686.313.147.627.27.94.416.242.098.483.22.748.318-.29.099-.603.172-.892.246h-.024v-.074c0-.025-.024-.05-.049-.073-.12-.099-.24-.197-.385-.294l.024.024c-.338-.27-.7-.539-1.037-.832-.024-.025-.048-.05-.096-.05a.18.18 0 0 0-.097.05c-.024.024-.048.048-.048.098 0 .024.024.073.048.098.048.048.12.097.169.146-.024 0-.072.025-.072.05-.049.073-.025.146.048.17.313.197.602.392.916.588l-.024.025c-.024.049-.024.074-.024.122 0 .025.048.074.072.098.362.172.723.318 1.085.49.048.05.12.073.169.122l.796.514c.048.025.144.025.168-.049.024-.024.024-.073 0-.097.024.024.073.024.097.049l.434.147c.072.024.168-.025.193-.099.072-.097 0-.17-.073-.195M45.05 20.375c.666.447 1.978.8 3.179.8 2.938 0 4.36-1.672 4.36-3.604 0-1.84-1.071-2.86-3.178-3.678-1.718-.669-2.476-1.245-2.476-2.415 0-.854.647-1.876 2.347-1.876 1.127 0 1.959.372 2.365.595l.444-1.32c-.555-.315-1.479-.612-2.753-.612-2.421 0-4.029 1.449-4.029 3.399 0 1.764 1.257 2.823 3.29 3.548 1.68.65 2.346 1.318 2.346 2.489 0 1.263-.96 2.136-2.605 2.136a5.678 5.678 0 0 1-2.883-.817l-.407 1.355zM54.81 8.47v12.519h1.607v-5.87h6.024v5.87h1.626V8.469h-1.626v5.238h-6.024V8.47zM71.834 9.584c2.68 0 3.973 2.6 3.973 5.09 0 2.841-1.441 5.2-3.991 5.2-2.532 0-3.973-2.396-3.973-5.07 0-2.75 1.33-5.22 3.991-5.22m.074-1.32c-3.326 0-5.783 2.601-5.783 6.576 0 3.79 2.31 6.353 5.598 6.353 3.179 0 5.784-2.285 5.784-6.594 0-3.715-2.199-6.334-5.599-6.334M83.282 20.989l1.773-6.52a39.28 39.28 0 0 0 .961-4.087h.037c.167 1.263.425 2.49.813 4.087l1.57 6.52h1.682l3.53-12.52h-1.645l-1.644 6.316c-.388 1.56-.74 2.953-.998 4.328h-.037c-.185-1.32-.517-2.805-.869-4.291L86.94 8.469H85.26l-1.663 6.316c-.425 1.615-.813 3.101-1.017 4.346h-.036a92.288 92.288 0 0 0-.924-4.328L80.14 8.47h-1.7l3.16 12.52h1.682zM108.15 20.989h2.722l-.675-12.38h-3.637l-1.315 4.115a105.106 105.106 0 0 0-1.17 4.444h-.054c-.274-1.45-.658-2.993-1.042-4.426l-1.205-4.132h-3.71l-.785 12.379h2.576l.22-4.702c.09-1.543.146-3.453.219-5.124h.036a56.86 56.86 0 0 0 1.115 4.83l1.315 4.793h2.174l1.499-4.83a67.308 67.308 0 0 0 1.37-4.793h.055c0 1.8.055 3.6.11 5.087l.182 4.739zM120.367 13.477h-4.531v-2.571h4.805V8.61h-7.6v12.379h7.855v-2.296h-5.06v-2.939h4.53zM49.62 33.568h1.472c1.942 0 3.557.781 3.557 2.672 0 2.014-1.697 2.693-3.537 2.693-.633 0-1.145-.02-1.492-.083v-5.282zm0-5.816c.286-.062.756-.123 1.574-.123 1.8 0 3.026.637 3.026 2.26 0 1.336-1.104 2.323-2.985 2.323H49.62v-4.46zm-1.78 12.414c.594.082 1.534.164 2.761.164 2.25 0 3.803-.411 4.764-1.295a3.744 3.744 0 0 0 1.166-2.774c0-2.055-1.534-3.145-2.843-3.474v-.04c1.452-.535 2.331-1.707 2.331-3.043 0-1.089-.43-1.911-1.145-2.446-.858-.698-2.003-1.007-3.782-1.007-1.247 0-2.474.124-3.251.288v13.627z"/>
        <mask id="d" fill="#fff">
            <use xlink:href="#c"/>
        </mask>
        <path fill="#8F8F8F" d="M58.943 40.207h1.778V26.354h-1.778zM63.16 39.529c.735.493 2.187.883 3.516.883 3.25 0 4.825-1.85 4.825-3.987 0-2.034-1.186-3.165-3.516-4.07-1.902-.74-2.74-1.377-2.74-2.671 0-.946.715-2.076 2.596-2.076 1.248 0 2.168.41 2.618.658l.49-1.46c-.613-.349-1.636-.678-3.046-.678-2.679 0-4.457 1.603-4.457 3.761 0 1.953 1.39 3.124 3.639 3.926 1.86.72 2.597 1.46 2.597 2.754 0 1.398-1.064 2.364-2.883 2.364a6.276 6.276 0 0 1-3.19-.905l-.45 1.5zM73.958 26.354v13.853h1.778v-6.495h6.666v6.495h1.8V26.354h-1.8v5.796h-6.666v-5.796zM87.296 40.207h1.779v-5.282l1.308-1.521 4.539 6.803h2.106l-5.377-7.975 4.989-5.878H94.43l-4.212 5.2c-.347.452-.715.945-1.083 1.48h-.061v-6.68h-1.78v13.853zM105.533 32.232h-5.357v-4.377h5.664v-1.5h-7.443v13.852h7.75v-1.5h-5.97v-4.995h5.356zM108.46 40.207h1.78v-5.282l1.308-1.521 4.54 6.803h2.105l-5.377-7.975 4.989-5.878h-2.209l-4.212 5.2a34.74 34.74 0 0 0-1.083 1.48h-.062v-6.68h-1.778v13.853z" mask="url(#d)"/>
    </g>
</svg>
