<svg width="160" height="32" viewBox="0 0 160 32" fill="none" xmlns="http://www.w3.org/2000/svg">
<path fill-rule="evenodd" clip-rule="evenodd" d="M25.9667 14.0729C26.1339 13.9653 26.305 13.8639 26.4756 13.7614C26.6754 14.5719 26.7946 15.4141 26.7946 16.2852C26.7946 22.1671 21.9736 26.9519 16.0484 26.9519C10.1233 26.9519 5.30224 22.1665 5.30224 16.2852C5.30224 10.4039 10.1227 5.61856 16.0484 5.61856C18.8798 5.61856 21.4498 6.72074 23.371 8.50371C23.2084 8.61076 23.048 8.72063 22.8997 8.84524C21.0891 7.20047 18.6903 6.18494 16.0484 6.18494C10.4377 6.18494 5.87284 10.716 5.87284 16.2852C5.87284 21.8545 10.4377 26.3855 16.0484 26.3855C21.6592 26.3855 26.224 21.8545 26.224 16.2852C26.224 15.524 26.1287 14.786 25.9667 14.0729ZM16.1193 0C25.0072 0 32.2386 7.1778 32.2386 16C32.2386 24.8222 25.0072 32 16.1193 32C7.23131 32 0 24.8222 0 16C0 13.6776 0.507685 11.4727 1.40804 9.4795C1.57127 9.59135 1.7281 9.7107 1.88145 9.83582C1.0479 11.7253 0.580875 13.809 0.580875 16C0.580875 24.5045 7.55137 31.4234 16.1193 31.4234C24.6872 31.4234 31.6577 24.5045 31.6577 16C31.6577 7.4955 24.6872 0.576577 16.1193 0.576577C11.9591 0.576577 8.17872 2.21232 5.38703 4.86458C5.25111 4.72793 5.11402 4.59359 4.97519 4.45982C7.8726 1.70205 11.7976 0 16.1193 0ZM16.1193 21.6889C13.1518 21.6889 10.7462 19.3011 10.7462 16.3556C10.7462 13.41 13.1518 11.0222 16.1193 11.0222C19.0868 11.0222 21.4924 13.41 21.4924 16.3556C21.4924 19.3011 19.0868 21.6889 16.1193 21.6889ZM25.0744 12.8C24.0853 12.8 23.2834 12.0041 23.2834 11.0222C23.2834 10.0404 24.0853 9.24444 25.0744 9.24444C26.0636 9.24444 26.8655 10.0404 26.8655 11.0222C26.8655 12.0041 26.0636 12.8 25.0744 12.8ZM3.22386 8.88889C2.2347 8.88889 1.43282 8.09295 1.43282 7.11111C1.43282 6.12927 2.2347 5.33333 3.22386 5.33333C4.21301 5.33333 5.01489 6.12927 5.01489 7.11111C5.01489 8.09295 4.21301 8.88889 3.22386 8.88889ZM55.7134 15.9741H55.9092V21.76H54.101V20.9405C53.2736 21.3857 52.3073 21.6438 51.2052 21.6438C48.1097 21.6438 45.5699 19.5114 45.5699 16.2186C45.5699 12.9101 48.1097 10.809 51.2052 10.809C53.4116 10.809 54.7927 11.9066 55.5864 13.1453L53.7132 14.1488C53.237 13.4118 52.3322 12.7846 51.2052 12.7846C49.2844 12.7846 47.8875 14.2429 47.8875 16.2186C47.8875 18.1942 49.2844 19.6525 51.2052 19.6525C52.1417 19.6525 53.0307 19.2448 53.4592 18.8528L53.7132 18.659L54.101 18.2726V17.5984H51.8352V15.9741H55.7134ZM64.1965 21.6282C60.9741 21.6282 59.4185 19.8406 59.4185 17.2691V10.9814H61.7043V17.1907C61.7043 18.649 62.5615 19.6525 64.1965 19.6525C65.8315 19.6525 66.6729 18.649 66.6729 17.1907V10.9814H68.9746V17.2534C68.9746 19.8563 67.4189 21.6282 64.1965 21.6282ZM82.3152 21.44H79.7436L79.0928 19.6682H74.5528L73.8861 21.44H71.3145L75.41 10.9814H78.2356L82.3152 21.44ZM78.4737 17.7082L76.8228 13.208L75.1719 17.7082H78.4737ZM93.7826 21.44H91.1952L89.1157 17.7238H87.4648V21.44H85.2107V10.9814H90.1634C92.3699 10.9814 93.7191 12.4083 93.7191 14.3526C93.7191 16.2029 92.5445 17.1907 91.4016 17.4573L93.7826 21.44ZM89.83 15.7638C90.7348 15.7638 91.4174 15.2307 91.4174 14.3526C91.4174 13.4746 90.7348 12.9414 89.83 12.9414H87.4648V15.7638H89.83ZM101.504 21.44H97.329V10.9814H101.504C104.822 10.9814 107.123 13.0669 107.123 16.2186C107.123 19.3702 104.822 21.44 101.504 21.44ZM101.504 19.48C103.599 19.48 104.822 17.9904 104.822 16.2186C104.822 14.3683 103.679 12.9414 101.504 12.9414H99.5831V19.48H101.504ZM119.21 21.44H116.622L114.543 17.7238H112.892V21.44H110.638V10.9814H115.591C117.797 10.9814 119.146 12.4083 119.146 14.3526C119.146 16.2029 117.972 17.1907 116.829 17.4573L119.21 21.44ZM115.257 15.7638C116.162 15.7638 116.845 15.2307 116.845 14.3526C116.845 13.4746 116.162 12.9414 115.257 12.9414H112.892V15.7638H115.257ZM132.63 21.44H130.058L129.407 19.6682H124.867L124.201 21.44H121.629L125.725 10.9814H128.55L132.63 21.44ZM128.788 17.7082L127.137 13.208L125.486 17.7082H128.788ZM137.779 21.44H135.525V10.9814H137.779V21.44ZM149.489 21.44H141.786V10.9814H144.04V19.48H149.489V21.44ZM155.762 21.6282C153.73 21.6282 152.269 20.9539 151.285 19.9661L152.507 18.2726C153.254 19.041 154.412 19.6838 155.873 19.6838C157.111 19.6838 157.714 19.1194 157.714 18.5235C157.714 16.6733 151.619 17.9434 151.619 14.0077C151.619 12.2672 153.142 10.8246 155.635 10.8246C157.317 10.8246 158.714 11.3264 159.762 12.2829L158.508 13.9136C157.651 13.1296 156.508 12.769 155.428 12.769C154.46 12.769 153.92 13.1923 153.92 13.8195C153.92 15.4816 160 14.3683 160 18.2726C160 20.1856 158.619 21.6282 155.762 21.6282Z" fill="black"/>
</svg>
