<svg width="91" height="29" viewBox="0 0 91 29" fill="none" xmlns="http://www.w3.org/2000/svg">
<g clip-path="url(#clip0)">
<path d="M15.644 0C16.7451 0.117487 17.8508 0.205231 18.9458 0.364359C19.5616 0.45359 20.106 0.760692 20.5398 1.21874C20.9395 1.64259 21.0441 2.29546 20.7946 2.71485C20.5944 3.05169 20.2987 3.16323 19.9149 3.13126C19.5441 3.10077 19.4144 2.86208 19.2848 2.56315C19.2127 2.39956 19.0156 2.20921 18.848 2.18021C18.1003 2.04859 17.3427 1.89095 16.5881 1.88649C13.2788 1.86715 10.0164 2.22631 6.86478 3.27849C5.51495 3.7291 4.23413 4.33364 3.16412 5.28321C2.27383 6.07438 1.64745 7.02172 1.91438 8.26723C2.00235 8.67844 2.32919 9.03908 2.53622 9.42797C2.67499 9.68674 2.9078 9.95667 2.90249 10.2169C2.88581 10.8988 2.17146 11.1784 1.52991 10.8133C0.585785 10.2772 0.191451 9.4198 0.0511597 8.41074C-0.237007 6.32646 0.71546 4.8021 2.32161 3.58113C4.1363 2.20326 6.24978 1.46413 8.4315 0.906436C10.7899 0.304872 13.1999 0.0862564 15.6433 0" fill="#56448E"/>
<path d="M4.34473 19.0597C4.46606 18.6299 4.60104 18.0113 4.81717 17.4209C6.09951 13.9193 7.53731 10.4832 9.43618 7.25375C10.2195 5.92198 11.0211 4.59244 12.1343 3.48896C12.352 3.27331 12.6538 3.12608 12.9404 2.9967C13.2468 2.85765 13.5987 2.91119 13.7723 3.18557C13.9187 3.41608 13.971 3.74029 13.9604 4.01839C13.9536 4.20206 13.7913 4.4058 13.6487 4.55303C12.1882 6.05508 11.153 7.83449 10.1983 9.66521C8.59064 12.7452 7.25142 15.9329 6.258 19.2575C6.22767 19.3579 6.19961 19.4598 6.16321 19.5579C5.95543 20.1179 5.60356 20.3655 5.1296 20.2904C4.65413 20.2145 4.35079 19.8122 4.34473 19.0597ZM28.9329 11.2052C28.876 11.4479 28.7814 11.6807 28.6524 11.8952C27.6286 13.5371 26.5275 15.1232 25.1534 16.5062C24.9283 16.7314 24.6679 16.92 24.3822 17.0647C23.6481 17.435 23.1476 17.1033 23.1704 16.2095C23.2743 14.9023 23.8748 13.7126 24.6946 12.615C25.434 11.6261 26.3478 10.8587 27.5649 10.4936C27.7795 10.4289 28.0047 10.3739 28.2284 10.3634C28.8222 10.3337 29.074 10.6334 28.9329 11.2052ZM15.8191 12.7504C16.3878 11.8618 17.1007 11.1033 18.0167 10.5516C18.2518 10.4103 18.5172 10.3025 18.7842 10.2355C18.9275 10.1991 19.1732 10.2311 19.2429 10.3255C19.3173 10.4274 19.3006 10.6802 19.2179 10.7917C18.907 11.2156 18.6037 11.6655 18.204 11.9964C17.6702 12.4395 17.0612 12.8002 16.4591 13.1549C16.2506 13.2783 15.9677 13.2791 15.719 13.3356L15.6356 13.233C15.6947 13.0709 15.7266 12.8924 15.8191 12.7496V12.7504ZM46.4406 6.97044C46.9365 5.91603 47.4848 4.89285 48.1362 3.93362C48.3971 3.54892 48.676 3.17623 48.9719 2.81675C49.1205 2.63606 49.2745 2.45983 49.4337 2.28583C49.455 2.26203 49.4762 2.23601 49.4982 2.20849C49.6514 2.01739 49.8197 1.76755 50.0904 1.93262C50.1177 1.94898 50.1352 1.99211 50.1443 2.04937C50.1716 2.21296 50.1337 2.49403 50.0533 2.63903C49.6787 3.30826 49.301 3.98047 48.8877 4.62814C48.7497 4.84378 48.6079 5.05644 48.4608 5.26539C48.3417 5.43493 48.2158 5.60001 48.0839 5.76137C47.6903 6.2447 47.2528 6.69978 46.838 7.16824C46.7802 7.23042 46.715 7.28559 46.6438 7.33257C46.5725 7.38239 46.4982 7.42924 46.4292 7.48129C46.3963 7.45608 46.3634 7.4308 46.3306 7.40544C46.3663 7.2597 46.3776 7.10354 46.4398 6.97044H46.4406ZM55.2069 13.0463C55.2181 12.9855 55.2391 12.9267 55.2691 12.8723C55.4253 12.6135 55.5937 12.3667 55.7757 12.1324C56.135 11.6653 56.5572 11.2481 57.0307 10.8921C57.272 10.712 57.5265 10.5495 57.7921 10.4058C57.8353 10.3828 57.8838 10.3672 57.9293 10.3478C58.0674 10.2898 58.2122 10.2437 58.3578 10.2214C58.4686 10.2053 58.5818 10.2168 58.6869 10.2549C58.7157 10.2683 58.7385 10.2846 58.7521 10.3047C58.8219 10.414 58.8242 10.6185 58.7673 10.7427C58.6634 10.9657 58.5095 11.1717 58.3487 11.3613C58.2691 11.4558 58.1872 11.5472 58.1038 11.638C57.8535 11.9086 57.5881 12.16 57.3014 12.3853C56.9172 12.6911 56.4909 12.9422 56.035 13.1311C55.973 13.1566 55.9098 13.1789 55.8454 13.198C55.6536 13.256 55.4511 13.2924 55.2562 13.3445C55.2069 13.3519 55.1576 13.3393 55.1667 13.233C55.1834 13.1348 55.1933 13.1088 55.2062 13.0463H55.2069ZM70.9181 15.611C71.0394 14.6242 71.3511 14.0963 71.3086 13.0701C71.2995 12.8597 72.2914 11.9451 72.2853 11.7391C72.2323 11.8908 71.4239 12.3072 71.3526 12.4507C70.6921 13.7654 68.9987 15.3804 67.8339 16.3248C67.5079 16.5895 67.1363 16.8156 66.7526 16.9888C66.5827 17.0654 66.2452 17.0446 66.1391 16.9293C66.0117 16.7918 65.9889 16.4936 66.0306 16.2869C66.086 16.0095 66.2126 15.7322 66.3688 15.4912C66.9224 14.6383 67.5109 13.8063 68.0705 12.9563C68.7508 11.9227 68.615 11.0832 67.6261 10.3411C67.1924 10.0154 66.7124 9.74701 66.246 9.4637C65.9245 9.26888 65.7743 9.03093 65.8843 8.64203C65.9833 8.31526 66.0438 7.97846 66.0647 7.63819C66.0989 6.8076 65.5468 6.43357 64.749 6.71762C63.8679 7.02993 63.3181 8.04865 63.5668 8.9536C63.6965 9.42354 63.7344 9.86152 63.5054 10.3233C62.5954 12.1562 61.5413 13.8791 59.9905 15.2793C59.1776 16.0132 58.2964 16.6066 57.2552 16.9561C56.5014 17.2089 55.7279 17.38 54.9332 17.1599C54.3735 17.0059 54.0672 16.5553 54.0717 15.9679C54.0747 15.492 54.2863 15.2763 54.9339 15.0927C55.0364 15.0623 55.1399 15.035 55.2441 15.0109C56.4112 14.7536 57.4576 14.2561 58.4048 13.5363C59.336 12.8299 60.1171 12.0231 60.4599 10.8832C60.8489 9.59457 60.0102 8.51116 58.646 8.5186C57.9225 8.52231 57.2848 8.77513 56.6857 9.13578C55.0932 10.0957 54.0535 11.5264 53.1458 13.0924C52.7333 13.7965 52.231 14.4461 51.6511 15.0257C51.1938 15.4838 50.6016 15.8325 50.0207 16.1434C49.6074 16.3657 49.2449 16.0854 49.3276 15.6266C49.4004 15.2206 49.5649 14.8213 49.7416 14.4428C50.1102 13.6561 50.525 12.8894 50.8981 12.1042C51.1779 11.5138 51.3258 10.8892 51.2666 10.2274C51.1817 9.26813 50.4689 8.64798 49.4944 8.67698C48.6526 8.70152 47.9459 9.05324 47.299 9.54177C46.2487 10.3374 45.4085 11.3279 44.6198 12.3667C44.525 12.4923 44.4105 12.7035 44.2581 12.6849C44.1246 12.6009 44.1739 12.4581 44.1936 12.386C44.5326 11.1702 45.0824 10.1344 46.1729 9.33803C48.1423 7.89919 49.8265 6.16737 51.0293 4.03103C51.4365 3.30678 51.711 2.54534 51.6814 1.70211C51.6435 0.584495 50.7168 -0.0408639 49.6491 0.333905C48.9711 0.571854 48.4471 1.02247 47.999 1.55265C46.5581 3.2577 45.4965 5.18137 44.6577 7.2307C44.318 8.06054 44.0116 8.90303 43.2548 9.48824C43.0152 9.67413 42.9424 9.95224 43.0069 10.275C43.0486 10.4854 43.022 10.7211 42.9727 10.9338C42.7346 11.9495 42.1386 12.7704 41.4773 13.5579C40.5521 14.6584 39.5997 15.7262 38.3264 16.4616C37.4612 16.9613 36.5625 17.3524 35.532 17.3153C34.6068 17.2811 34.0547 16.7591 34.0608 15.8861C34.0698 15.4917 34.1315 15.1002 34.2443 14.7216C34.5802 13.5334 35.2332 12.5132 36.0552 11.5926C36.6543 10.9211 37.3406 10.3523 38.2271 10.0935C38.4364 10.0325 38.7647 10.0727 38.9118 10.2036C39.0104 10.2913 38.9475 10.6572 38.8436 10.8356C38.6525 11.1628 38.3795 11.4439 38.1383 11.7428C37.8092 12.1518 37.7895 12.5868 38.0913 12.8857C38.406 13.198 38.9786 13.224 39.3214 12.8493C39.7293 12.4053 40.1494 11.9324 40.3989 11.3978C41.0814 9.93811 40.2624 8.6108 38.6366 8.44572C37.7615 8.35649 37.0228 8.72903 36.3183 9.17221C34.7145 10.1827 33.7173 11.6714 32.8952 13.317C32.5679 13.9762 32.1706 14.5998 31.71 15.1774C31.3968 15.5671 30.9554 15.8868 30.5125 16.1389C29.9643 16.4512 29.5593 16.2133 29.5381 15.5857C29.5244 15.0998 29.5663 14.6139 29.6632 14.1372C29.9074 12.9006 30.4731 11.7792 31.0206 10.652C31.17 10.3471 31.3065 10.0221 31.3634 9.69198C31.4923 8.94839 31.0525 8.61378 30.3116 8.80711C30.0048 8.88318 29.6866 8.90484 29.372 8.87106C28.5682 8.78852 27.7719 8.72308 26.9886 8.98929C25.3157 9.55739 24.0273 10.6222 23.0809 12.0611C22.3203 13.2181 21.5058 14.3119 20.4859 15.2644C19.6843 16.0117 18.797 16.5977 17.7559 16.9487C16.9884 17.2082 16.2028 17.3844 15.3952 17.1554C14.8454 16.9992 14.5398 16.5308 14.5534 15.9478C14.5633 15.4897 14.7756 15.2749 15.3974 15.0979C15.4998 15.0681 15.6022 15.0391 15.7068 15.0161C16.8732 14.76 17.966 14.2506 18.9047 13.5252C19.8208 12.8255 20.592 12.0261 20.9371 10.9018C21.2692 9.81765 20.7361 8.75877 19.6638 8.58626C19.1345 8.50075 18.5278 8.57288 18.0167 8.74539C16.7238 9.18262 15.7569 10.0883 14.9349 11.1323C13.9111 12.4336 13.0633 13.8286 12.8381 15.5009C12.5772 17.4417 13.852 18.8642 15.8486 18.9073C17.674 18.9467 19.2369 18.2663 20.6868 17.2565C20.9659 17.0632 21.2305 16.8498 21.5384 16.617C21.5475 16.7933 21.5506 16.91 21.5589 17.026C21.6256 17.9064 22.0988 18.5652 22.8564 18.8002C23.449 18.99 24.092 18.959 24.6628 18.7132C25.6691 18.2871 26.4593 17.5874 27.16 16.771C27.6923 16.1515 27.734 16.1672 28.1458 16.8468C28.7752 17.8863 29.6609 18.2403 30.803 17.7912C31.399 17.5562 31.9268 17.1532 32.4903 16.823C32.4918 16.8267 32.5236 16.8817 32.5456 16.939C33.0765 18.3399 34.1821 18.9095 35.6222 18.9958C37.0812 19.082 38.2991 18.4611 39.4609 17.7049C39.9379 17.3941 40.3785 17.029 40.8812 16.6542C40.8107 16.8847 40.7485 17.0684 40.7 17.2543C40.6469 17.458 40.587 17.6633 40.5673 17.8707C40.5316 18.2314 40.5203 18.5994 40.9533 18.769C41.3127 18.9095 41.6017 18.7913 41.8959 18.3719C42.1772 17.9711 42.4419 17.5592 42.7172 17.1546C44.1345 15.0711 45.6155 13.0359 47.5007 11.3249C47.8336 11.023 48.2098 10.7613 48.5844 10.5174C49.4406 9.95967 49.4914 10.759 49.3556 11.1955C49.348 11.2186 49.3344 11.2431 49.3223 11.2669C48.962 12.0008 48.6003 12.734 48.2409 13.4687C47.8412 14.2844 47.5682 15.1328 47.6357 16.0512C47.7176 17.1636 48.7353 18.0127 49.7955 17.8506C50.1094 17.8023 50.4347 17.728 50.7153 17.5889C51.2841 17.3093 51.8255 16.9769 52.3063 16.7063C52.5892 17.1524 52.8144 17.693 53.1996 18.0819C54.0641 18.9549 55.2054 19.0121 56.3482 18.8575C58.4822 18.5667 60.2059 17.4937 61.6687 15.9946C62.9139 14.7201 63.7996 13.2025 64.5807 11.6216C65.1001 10.5687 65.2412 10.5374 66.2513 11.1799C66.7988 11.5286 66.8504 11.8291 66.4856 12.3533C66.0018 13.0471 65.4998 13.7334 65.0721 14.4599C64.7688 14.9698 64.5302 15.5142 64.3615 16.0809C63.9126 17.6305 64.9121 18.7995 66.5372 18.6664C67.253 18.6084 67.887 18.2998 68.4239 17.8618C69.1405 17.2773 69.801 16.626 70.4744 16.014C70.8915 15.611 70.9166 15.605 70.9181 15.611Z" fill="#56448E"/>
<path d="M82.0683 21.1344C81.0051 23.1347 79.8107 25.0449 78.0719 26.5641C77.5509 27.0192 76.9571 27.33 76.2367 27.3411C75.5345 27.3516 75.0969 26.8794 75.3077 26.2206C75.464 25.7335 75.743 25.268 76.0456 24.8471C76.7781 23.8307 77.8337 23.1577 78.8469 22.4491C79.7174 21.8401 80.6055 21.2541 81.4965 20.6741C81.6944 20.5455 82.063 20.4027 82.16 20.3901C82.2571 20.3774 82.2768 20.4347 82.2715 20.512C82.2048 20.7202 82.1691 20.9433 82.0683 21.1344ZM72.6672 11.0104C73.6326 8.19446 74.8391 5.49597 76.7152 3.13284C77.011 2.76105 77.3295 2.40338 77.6616 2.06207C77.745 1.97656 77.9376 1.92971 78.0537 1.96094C78.1401 1.984 78.3024 2.12156 78.2857 2.3372C78.087 2.93505 77.9217 3.57156 77.6677 4.17238C76.6818 6.49982 75.2615 8.56551 73.6364 10.5026C73.4407 10.736 73.2709 10.9933 73.0608 11.2127C72.9668 11.3108 72.6475 11.5659 72.3518 11.9228C72.3495 11.7905 72.627 11.1287 72.6672 11.0104ZM89.1731 12.3719C89.1405 12.4292 89.1124 12.4894 89.0791 12.5459C88.279 13.9008 87.3031 15.115 86.0988 16.1449C85.935 16.2862 85.731 16.3814 85.4527 16.5554C85.4398 16.2869 85.4019 16.1196 85.43 15.9635C85.4868 15.6415 85.5794 15.324 85.6567 15.0043C85.9828 13.6636 86.3187 12.3251 86.6297 10.9807C86.7366 10.5174 86.5159 10.0884 86.1633 9.9471C85.7841 9.79466 85.3359 9.96569 85.0675 10.3858C84.9257 10.6081 84.7975 10.8401 84.6883 11.0796C83.8314 12.9735 82.6848 14.6823 81.2152 16.1657C80.792 16.5911 80.2597 16.9287 79.7357 17.2373C79.2617 17.5168 78.8431 17.296 78.7771 16.7561C78.7347 16.4104 78.7324 16.0378 78.815 15.7017C79.2837 13.813 79.9768 12.015 81.1333 10.4126C81.3153 10.1598 81.4662 9.87051 81.5579 9.57605C81.6611 9.24887 81.5208 8.95069 81.2402 8.74471C80.977 8.55138 80.6752 8.55584 80.4219 8.74025C80.1679 8.92615 79.8987 9.13212 79.7357 9.39015C79.1866 10.2601 78.6285 11.1316 78.1712 12.05C77.4341 13.5275 76.556 14.9001 75.3949 16.0877C74.9013 16.5911 74.3682 17.0543 73.6462 17.2328C73.0775 17.3741 72.5846 17.2254 72.2964 16.7889C71.7428 15.9531 71.4501 14.4339 72.5193 13.2033C73.1465 12.482 73.8866 12.543 74.5304 11.8366C76.5575 9.61323 78.1727 7.12815 79.3057 4.35382C79.6598 3.48753 79.9472 2.59448 79.9139 1.63748C79.8775 0.596458 79.0266 -0.121106 77.9839 0.0164578C77.1603 0.126509 76.5582 0.620253 76.0555 1.2062C73.6796 3.96492 72.2122 7.19061 71.1453 10.6119C70.9466 11.2476 70.8017 11.9949 70.5538 12.969C70.3384 14.2807 70.4339 15.179 70.5113 16.5108C70.8283 17.7719 71.7117 18.6791 72.8083 18.8293C73.738 18.9557 74.604 18.7296 75.3586 18.2054C75.9652 17.7845 76.5143 17.2811 77.0838 16.8186C77.1103 16.9331 77.1353 17.0878 77.1808 17.2358C77.4349 18.0619 77.8755 18.7319 78.8059 18.9059C79.5036 19.0367 80.1596 18.8568 80.7685 18.5088C81.7013 17.9779 82.4148 17.2112 83.1011 16.4141C83.199 16.3003 83.3317 16.2163 83.4932 16.0817C83.6358 17.1413 83.1952 18.0567 82.3837 18.5274C81.3585 19.1223 80.3287 19.7097 79.3102 20.315C77.7352 21.2519 76.2321 22.2795 74.9589 23.6039C74.3598 24.227 73.8866 24.9141 73.6659 25.7528C73.3588 26.9218 73.7547 27.9606 74.7655 28.4952C75.1348 28.6908 75.5656 28.7726 75.9683 28.9064H76.6925C78.6641 28.4268 80.0208 27.1657 81.1325 25.5707C82.4141 23.731 83.5175 21.8081 84.1939 19.6628C84.2819 19.3818 84.5412 19.0821 84.8036 18.9356C87.2333 17.5838 89.0874 15.6854 90.4509 13.3066C90.5677 13.1029 90.6526 12.9334 90.777 12.6835C90.9029 12.4344 90.777 12.2879 90.777 12.2879C90.2272 11.4975 89.6554 11.5272 89.1731 12.3719Z" fill="#71C3BB"/>
</g>
<defs>
<clipPath id="clip0">
<rect width="91" height="29" fill="white"/>
</clipPath>
</defs>
</svg>
