<svg width="118" height="38" viewBox="0 0 118 38" fill="none" xmlns="http://www.w3.org/2000/svg">
<g clip-path="url(#clip0)">
<path d="M20.2856 0C21.7134 0.153949 23.1471 0.268923 24.5671 0.477436C25.3655 0.594359 26.0716 0.996769 26.634 1.59697C27.1523 2.15236 27.288 3.00785 26.9644 3.55738C26.7048 3.99877 26.3213 4.14492 25.8238 4.10303C25.3429 4.06308 25.1748 3.75031 25.0066 3.35862C24.9132 3.14426 24.6575 2.89482 24.4402 2.85682C23.4707 2.68436 22.4883 2.47779 21.5099 2.47195C17.2186 2.44662 12.9883 2.91723 8.90159 4.29595C7.15126 4.88641 5.49041 5.67856 4.10292 6.92282C2.94849 7.95954 2.13626 9.20087 2.48239 10.8329C2.59646 11.3717 3.02027 11.8443 3.28872 12.3539C3.46867 12.693 3.77056 13.0467 3.76367 13.3877C3.74204 14.2812 2.81574 14.6475 1.98384 14.1691C0.759589 13.4666 0.248256 12.3432 0.066339 11.021C-0.307328 8.28985 0.927739 6.29241 3.01044 4.69251C5.36356 2.88703 8.10411 1.91851 10.9332 1.18774C13.9913 0.399487 17.1164 0.113026 20.2847 0" fill="#56448E"/>
<path d="M5.63281 24.9749C5.79015 24.4118 5.96518 23.6011 6.24543 22.8274C7.90825 18.2392 9.77265 13.7367 12.2349 9.50504C13.2507 7.75996 14.2901 6.01781 15.7336 4.57186C16.0158 4.2893 16.4072 4.09637 16.7789 3.92684C17.1762 3.74463 17.6324 3.81478 17.8576 4.17432C18.0474 4.47637 18.1153 4.90119 18.1015 5.2656C18.0926 5.50627 17.8822 5.77325 17.6973 5.96617C15.8034 7.93437 14.4612 10.266 13.2232 12.6649C11.1385 16.7007 9.40193 20.8778 8.11376 25.2341C8.07443 25.3657 8.03805 25.4991 7.99085 25.6278C7.72141 26.3614 7.26515 26.6859 6.65056 26.5875C6.03401 26.4881 5.64068 25.961 5.63281 24.9749ZM37.5164 14.6828C37.4426 15.0009 37.3199 15.3058 37.1526 15.587C35.8251 17.7384 34.3973 19.8167 32.6155 21.629C32.3236 21.9241 31.986 22.1711 31.6154 22.3607C30.6636 22.846 30.0146 22.4114 30.0441 21.2402C30.1788 19.5273 30.9576 17.9683 32.0206 16.5302C32.9793 15.2343 34.1642 14.2287 35.7425 13.7503C36.0208 13.6656 36.3128 13.5934 36.6029 13.5798C37.3729 13.5408 37.6993 13.9335 37.5164 14.6828ZM20.5116 16.7075C21.2491 15.5431 22.1735 14.5493 23.3613 13.8263C23.6662 13.6412 24.0103 13.4999 24.3565 13.4122C24.5423 13.3645 24.8609 13.4064 24.9514 13.5301C25.0478 13.6636 25.0261 13.9949 24.9189 14.141C24.5158 14.6964 24.1224 15.2859 23.6042 15.7195C22.912 16.3002 22.1223 16.7728 21.3416 17.2376C21.0712 17.3993 20.7044 17.4003 20.3818 17.4743L20.2737 17.3399C20.3504 17.1274 20.3917 16.8936 20.5116 16.7065V16.7075ZM60.2186 9.13381C60.8617 7.75217 61.5727 6.41145 62.4174 5.15453C62.7557 4.65044 63.1173 4.16209 63.501 3.69104C63.6938 3.45427 63.8934 3.22335 64.0999 2.99535C64.1274 2.96417 64.1549 2.93007 64.1835 2.89402C64.3821 2.64361 64.6004 2.31622 64.9514 2.53253C64.9868 2.55396 65.0094 2.61048 65.0212 2.6855C65.0566 2.89986 65.0075 3.26817 64.9032 3.45817C64.4175 4.33509 63.9278 5.21591 63.3919 6.06458C63.2129 6.34714 63.029 6.62581 62.8382 6.8996C62.6839 7.12176 62.5206 7.33807 62.3495 7.5495C61.8392 8.18284 61.2718 8.77914 60.7339 9.39299C60.659 9.47447 60.5745 9.54676 60.4822 9.60832C60.3897 9.6736 60.2934 9.73499 60.2039 9.80319C60.1612 9.77016 60.1186 9.73703 60.0761 9.70381C60.1223 9.51283 60.137 9.30822 60.2177 9.13381H60.2186ZM71.586 17.0953C71.6005 17.0156 71.6277 16.9386 71.6666 16.8673C71.8692 16.5282 72.0875 16.2047 72.3235 15.8978C72.7894 15.2857 73.3368 14.739 73.9509 14.2726C74.2638 14.0365 74.5938 13.8236 74.9382 13.6353C74.9942 13.6051 75.0571 13.5847 75.1161 13.5593C75.2951 13.4833 75.4829 13.4229 75.6717 13.3937C75.8154 13.3725 75.9622 13.3876 76.0985 13.4376C76.1359 13.4551 76.1654 13.4765 76.1831 13.5028C76.2735 13.6461 76.2765 13.914 76.2027 14.0767C76.068 14.369 75.8684 14.6389 75.6599 14.8874C75.5567 15.0111 75.4505 15.131 75.3423 15.2499C75.0178 15.6045 74.6736 15.9339 74.3019 16.2291C73.8037 16.6299 73.2509 16.9589 72.6598 17.2064C72.5794 17.2398 72.4974 17.2691 72.4139 17.2941C72.1652 17.3701 71.9026 17.4178 71.6499 17.486C71.586 17.4958 71.5221 17.4792 71.5339 17.3399C71.5555 17.2112 71.5683 17.1771 71.585 17.0953H71.586ZM91.9587 20.4559C92.116 19.1629 92.5202 18.4711 92.4651 17.1265C92.4533 16.8507 93.7395 15.6523 93.7316 15.3824C93.6628 15.5811 92.6146 16.1268 92.5221 16.3148C91.6657 18.0375 89.4699 20.1538 87.9595 21.3912C87.5366 21.7381 87.0548 22.0343 86.5572 22.2613C86.337 22.3617 85.8994 22.3344 85.7617 22.1834C85.5965 22.0031 85.567 21.6124 85.6211 21.3416C85.6929 20.9781 85.8571 20.6147 86.0597 20.299C86.7775 19.1814 87.5406 18.0911 88.2663 16.9774C89.1483 15.623 88.9723 14.523 87.69 13.5506C87.1276 13.1238 86.5051 12.7721 85.9004 12.4008C85.4834 12.1456 85.2887 11.8338 85.4313 11.3242C85.5597 10.896 85.6382 10.4547 85.6653 10.0088C85.7096 8.92043 84.9937 8.43032 83.9593 8.80253C82.8166 9.21176 82.1037 10.5466 82.4263 11.7324C82.5944 12.3482 82.6436 12.9221 82.3466 13.5272C81.1666 15.929 79.7998 18.1866 77.7888 20.0213C76.7347 20.983 75.5921 21.7605 74.242 22.2185C73.2645 22.5498 72.2615 22.7739 71.231 22.4854C70.5053 22.2838 70.108 21.6933 70.1139 20.9236C70.1179 20.3 70.3922 20.0174 71.232 19.7767C71.3649 19.737 71.499 19.7012 71.6342 19.6696C73.1475 19.3324 74.5045 18.6806 75.7327 17.7374C76.9402 16.8118 77.9531 15.7546 78.3975 14.2609C78.902 12.5723 77.8144 11.1527 76.0454 11.1624C75.1073 11.1673 74.2803 11.4986 73.5035 11.9711C71.4385 13.229 70.0903 15.1037 68.9133 17.1557C68.3784 18.0783 67.7271 18.9296 66.9751 19.689C66.3822 20.2892 65.6142 20.7462 64.861 21.1535C64.325 21.4448 63.855 21.0775 63.9622 20.4763C64.0566 19.9443 64.27 19.4211 64.4991 18.9251C64.977 17.8943 65.5149 16.8897 65.9987 15.8608C66.3615 15.0871 66.5533 14.2687 66.4766 13.4015C66.3664 12.1446 65.4421 11.332 64.1785 11.37C63.087 11.4021 62.1706 11.863 61.3318 12.5031C59.9699 13.5457 58.8803 14.8436 57.8577 16.2047C57.7347 16.3694 57.5863 16.6461 57.3886 16.6218C57.2155 16.5117 57.2795 16.3246 57.305 16.2301C57.7446 14.637 58.4575 13.2797 59.8715 12.2362C62.4252 10.3508 64.6092 8.0815 66.1688 5.28217C66.6968 4.33314 67.0528 3.3354 67.0145 2.23048C66.9653 0.766016 65.7637 -0.0534195 64.3791 0.437657C63.5 0.749452 62.8205 1.33991 62.2394 2.03463C60.3711 4.26884 58.9944 6.7895 57.9068 9.47484C57.4663 10.5622 57.069 11.6662 56.0877 12.433C55.7769 12.6766 55.6825 13.041 55.7661 13.4639C55.8202 13.7396 55.7858 14.0485 55.7219 14.3271C55.4131 15.6581 54.6402 16.7338 53.7827 17.7657C52.5831 19.2077 51.348 20.6069 49.697 21.5705C48.575 22.2253 47.4097 22.7378 46.0734 22.6891C44.8737 22.6443 44.1579 21.9603 44.1657 20.8164C44.1774 20.2996 44.2574 19.7867 44.4037 19.2905C44.8393 17.7335 45.686 16.3967 46.7519 15.1904C47.5287 14.3106 48.4186 13.5652 49.5682 13.2261C49.8396 13.1462 50.2653 13.1988 50.4561 13.3703C50.5839 13.4853 50.5023 13.9647 50.3676 14.1985C50.1198 14.6272 49.7658 14.9956 49.4531 15.3872C49.0263 15.9231 49.0008 16.4931 49.3921 16.8848C49.8002 17.2941 50.5426 17.3282 50.9871 16.8371C51.5161 16.2554 52.0609 15.6357 52.3844 14.9351C53.2694 13.0225 52.2074 11.2832 50.0992 11.0669C48.9644 10.95 48.0066 11.4382 47.0931 12.0189C45.0134 13.343 43.7203 15.2937 42.6543 17.45C42.2298 18.3138 41.7147 19.1309 41.1174 19.8878C40.7113 20.3984 40.139 20.8173 39.5647 21.1477C38.8538 21.5569 38.3287 21.2451 38.3011 20.4227C38.2833 19.786 38.3378 19.1494 38.4634 18.5247C38.78 16.9043 39.5136 15.435 40.2235 13.9579C40.4173 13.5584 40.5943 13.1326 40.668 12.7C40.8352 11.7256 40.2648 11.2871 39.3041 11.5405C38.9063 11.6402 38.4937 11.6685 38.0858 11.6243C37.0434 11.5161 36.0109 11.4304 34.9952 11.7792C32.8259 12.5236 31.1552 13.9189 29.928 15.8043C28.9418 17.3204 27.8857 18.7537 26.5631 20.0018C25.5237 20.981 24.3732 21.7488 23.0231 22.2087C22.0279 22.5488 21.0092 22.7797 19.962 22.4796C19.249 22.275 18.8527 21.6611 18.8705 20.8972C18.8832 20.297 19.1586 20.0154 19.9649 19.7836C20.0977 19.7446 20.2304 19.7066 20.3661 19.6764C21.8785 19.3409 23.2955 18.6733 24.5128 17.7228C25.7007 16.8059 26.7007 15.7585 27.1482 14.2852C27.5789 12.8646 26.8876 11.4771 25.4971 11.2511C24.8108 11.139 24.0241 11.2336 23.3613 11.4596C21.6847 12.0325 20.431 13.2193 19.3651 14.5873C18.0376 16.2924 16.9382 18.1203 16.6461 20.3117C16.3079 22.8547 17.9609 24.7187 20.55 24.7752C22.9169 24.8268 24.9435 23.9353 26.8237 22.6121C27.1855 22.3588 27.5287 22.0791 27.9279 21.7742C27.9397 22.0051 27.9437 22.1581 27.9545 22.3101C28.041 23.4637 28.6546 24.327 29.637 24.6349C30.4053 24.8835 31.2392 24.8429 31.9793 24.5209C33.2842 23.9626 34.3088 23.0457 35.2174 21.9759C35.9077 21.1642 35.9618 21.1847 36.4957 22.0752C37.3119 23.4374 38.4604 23.9012 39.9413 23.3127C40.7142 23.0048 41.3986 22.4767 42.1292 22.0441C42.1312 22.0489 42.1725 22.121 42.201 22.1961C42.8894 24.0318 44.3231 24.7781 46.1904 24.8911C48.0823 25.0042 49.6616 24.1906 51.168 23.1997C51.7866 22.7924 52.3579 22.314 53.0098 21.8229C52.9184 22.1249 52.8377 22.3656 52.7748 22.6092C52.706 22.8762 52.6283 23.1451 52.6027 23.4169C52.5565 23.8895 52.5418 24.3718 53.1032 24.594C53.5693 24.7781 53.944 24.6232 54.3255 24.0737C54.6903 23.5485 55.0335 23.0087 55.3905 22.4786C57.2283 19.7485 59.1488 17.0817 61.5933 14.8397C62.025 14.4441 62.5128 14.1011 62.9985 13.7815C64.1087 13.0507 64.1746 14.0982 63.9986 14.6701C63.9887 14.7003 63.9711 14.7325 63.9553 14.7637C63.4882 15.7253 63.0192 16.6861 62.5531 17.6487C62.0349 18.7176 61.6809 19.8293 61.7684 21.0327C61.8746 22.4903 63.1942 23.603 64.5689 23.3906C64.976 23.3273 65.3979 23.2299 65.7617 23.0477C66.4992 22.6813 67.2013 22.2458 67.8247 21.8911C68.1915 22.4757 68.4836 23.1841 68.9831 23.6937C70.1041 24.8376 71.584 24.9126 73.0659 24.7099C75.833 24.3289 78.0681 22.9229 79.965 20.9586C81.5796 19.2886 82.7281 17.2999 83.741 15.2284C84.4146 13.8487 84.5975 13.8078 85.9072 14.6497C86.6172 15.1066 86.6841 15.5003 86.2111 16.1872C85.5837 17.0963 84.9328 17.9956 84.3782 18.9476C83.9849 19.6157 83.6754 20.3291 83.4568 21.0717C82.8747 23.1022 84.1707 24.6339 86.278 24.4595C87.2062 24.3835 88.0283 23.9791 88.7245 23.4052C89.6538 22.6394 90.5102 21.7859 91.3834 20.984C91.9243 20.4559 91.9567 20.4481 91.9587 20.4559Z" fill="#56448E"/>
<path d="M106.418 27.6929C105.04 30.314 103.491 32.8171 101.236 34.8077C100.561 35.404 99.7907 35.8113 98.8565 35.8259C97.9459 35.8396 97.3786 35.2208 97.6519 34.3576C97.8545 33.7194 98.2164 33.1094 98.6087 32.5579C99.5586 31.226 100.927 30.3442 102.241 29.4156C103.37 28.6176 104.521 27.8498 105.677 27.0898C105.934 26.9213 106.411 26.7342 106.537 26.7176C106.663 26.701 106.689 26.7761 106.682 26.8774C106.595 27.1502 106.549 27.4425 106.418 27.6929ZM94.228 14.427C95.4797 10.7371 97.0442 7.2012 99.477 4.10469C99.8605 3.61751 100.273 3.14884 100.704 2.70161C100.812 2.58956 101.062 2.52817 101.213 2.5691C101.325 2.5993 101.535 2.77956 101.513 3.06212C101.256 3.84551 101.041 4.67956 100.712 5.46684C99.4337 8.51659 97.5919 11.2234 95.4847 13.7616C95.231 14.0675 95.0107 14.4046 94.7383 14.6921C94.6164 14.8207 94.2024 15.1549 93.8189 15.6226C93.8159 15.4491 94.1758 14.582 94.228 14.427ZM115.631 16.2111C115.589 16.2861 115.553 16.365 115.509 16.4391C114.472 18.2144 113.206 19.8055 111.645 21.155C111.432 21.3401 111.168 21.4648 110.807 21.6928C110.79 21.3411 110.741 21.1219 110.777 20.9173C110.851 20.4954 110.971 20.0793 111.071 19.6603C111.494 17.9036 111.93 16.1497 112.333 14.3881C112.472 13.781 112.186 13.2188 111.728 13.0337C111.237 12.834 110.656 13.0581 110.307 13.6086C110.124 13.8999 109.957 14.2039 109.816 14.5177C108.705 16.9994 107.218 19.2384 105.312 21.1823C104.763 21.7396 104.073 22.182 103.394 22.5863C102.779 22.9527 102.236 22.6633 102.151 21.9559C102.096 21.5028 102.093 21.0147 102.2 20.5743C102.808 18.0994 103.706 15.7434 105.206 13.6437C105.442 13.3124 105.638 12.9334 105.757 12.5475C105.89 12.1188 105.708 11.7281 105.345 11.4582C105.003 11.2048 104.612 11.2107 104.284 11.4523C103.954 11.6959 103.605 11.9658 103.394 12.3039C102.682 13.4439 101.958 14.5859 101.365 15.7892C100.409 17.7253 99.2705 19.5239 97.765 21.08C97.1249 21.7396 96.4336 22.3466 95.4974 22.5805C94.7599 22.7656 94.1208 22.5707 93.7471 21.9988C93.0293 20.9036 92.6497 18.913 94.0362 17.3004C94.8494 16.3553 95.8092 16.4352 96.644 15.5096C99.2725 12.5962 101.367 9.33992 102.836 5.70458C103.295 4.56946 103.668 3.39925 103.625 2.14525C103.577 0.781148 102.474 -0.159108 101.122 0.0211486C100.054 0.165354 99.2734 0.812328 98.6215 1.58012C95.5407 5.19499 93.638 9.42176 92.2544 13.9048C91.9968 14.7379 91.809 15.7171 91.4874 16.9935C91.2081 18.7123 91.332 19.8893 91.4323 21.6344C91.8434 23.2869 92.989 24.4756 94.4109 24.6724C95.6164 24.8381 96.7394 24.5419 97.7178 23.8549C98.5045 23.3035 99.2164 22.6438 99.9549 22.0378C99.9893 22.1878 100.022 22.3905 100.081 22.5844C100.41 23.6669 100.981 24.5448 102.188 24.7728C103.093 24.9443 103.943 24.7085 104.733 24.2525C105.942 23.5568 106.868 22.5522 107.758 21.5077C107.884 21.3586 108.057 21.2485 108.266 21.0722C108.451 22.4606 107.88 23.6601 106.827 24.2768C105.498 25.0563 104.163 25.8261 102.842 26.6192C100.8 27.8469 98.8506 29.1935 97.1996 30.9288C96.4228 31.7453 95.8092 32.6456 95.523 33.7447C95.1248 35.2764 95.6381 36.6376 96.9488 37.3381C97.4277 37.5944 97.9863 37.7016 98.5084 37.8769H99.4475C102.004 37.2485 103.763 35.596 105.205 33.506C106.867 31.0954 108.297 28.5757 109.175 25.7647C109.289 25.3964 109.625 25.0037 109.965 24.8118C113.116 23.0404 115.52 20.5528 117.288 17.4359C117.44 17.1689 117.55 16.9467 117.711 16.6194C117.874 16.2929 117.711 16.101 117.711 16.101C116.998 15.0653 116.257 15.1042 115.631 16.2111Z" fill="#71C3BB"/>
</g>
<defs>
<clipPath id="clip0">
<rect width="118" height="38" fill="white"/>
</clipPath>
</defs>
</svg>
