<svg width="83" height="31" viewBox="0 0 83 31" fill="none" xmlns="http://www.w3.org/2000/svg">
<g clip-path="url(#clip0)">
<path d="M75.6273 24.6747C80.6373 19.633 80.518 11.507 75.4484 6.58388C70.3787 1.66081 62.2671 1.72012 57.2571 6.76182C55.5274 8.54125 54.3346 10.7359 53.8574 13.1084C54.4539 5.33828 61.2532 -0.474503 69.0069 0.118639C76.8201 0.71178 82.6652 7.47359 82.0688 15.1844C81.5916 21.8276 76.4623 27.2252 69.8419 28.0556C72.0487 27.5218 74.0169 26.3355 75.6273 24.6747Z" fill="#009AED"/>
<path d="M59.2255 24.0815C64.2952 26.9286 70.7964 25.1492 73.6592 20.0482C76.5221 14.9472 74.7328 8.54123 69.6035 5.69415C67.8738 4.74512 65.9056 4.27061 63.8777 4.32992C70.1999 3.14364 76.2836 7.29563 77.4764 13.5829C78.6693 19.8702 74.4943 25.9203 68.1721 27.1066C62.7445 28.1149 57.3766 25.2085 55.2891 20.1668C56.2434 21.8276 57.5555 23.1918 59.2255 24.0815Z" fill="#EF7E6E"/>
<path d="M71.2139 11.5664C70.5578 10.4987 69.6631 9.54971 68.5895 8.95656C67.516 8.30411 66.2634 8.00754 64.9513 8.00754C63.2216 8.00754 61.492 8.65999 60.2395 9.84628C58.7484 11.2105 57.8537 13.1679 57.9134 15.1846C57.8537 17.0826 58.6291 18.9213 60.0009 20.2856C61.313 21.6498 63.1023 22.4209 65.0109 22.3616C66.2634 22.3616 67.516 22.065 68.6492 21.4125C69.7228 20.7601 70.6174 19.8704 71.2139 18.7434C71.8699 17.6164 72.1681 16.3708 72.1681 15.1252C72.1681 13.939 71.8103 12.6934 71.2139 11.5664ZM65.0109 18.862C64.1163 18.862 63.2216 18.5061 62.5656 17.8537C61.9095 17.1419 61.5516 16.1336 61.6113 15.1846C61.5516 14.1762 61.9095 13.2272 62.5656 12.5154C63.162 11.863 64.0566 11.4478 65.0109 11.5071C65.9652 11.4478 66.8002 11.863 67.4563 12.5154C68.1124 13.2272 68.4703 14.1762 68.4106 15.1846C68.4703 16.1929 68.1124 17.1419 67.4563 17.8537C66.8002 18.5655 65.9056 18.9213 65.0109 18.862Z" fill="#2D3235"/>
<path d="M0.178711 8.42259H4.59233L7.81307 15.0065L10.9145 8.42259H14.851L7.63414 22.3021H7.45521L0.178711 8.42259Z" fill="#2D3235"/>
<path d="M20.8158 18.9805C22.128 19.0398 23.3805 18.5653 24.3348 17.6756L26.7205 20.0482C25.5276 21.3531 23.7383 22.3021 20.9351 22.3021C16.2829 22.3021 13.2411 19.2771 13.2411 15.1844C13.1814 11.329 16.2829 8.12605 20.2194 8.06673H20.5176C25.2294 8.06673 27.9134 11.8035 27.6152 16.5487H17.2968C17.7143 18.0315 18.8476 18.9805 20.8158 18.9805ZM23.4401 13.7609C23.2015 12.3374 21.949 11.2697 20.4579 11.3883C18.9669 11.2697 17.5951 12.278 17.2968 13.7609H23.4401Z" fill="#2D3235"/>
<path d="M35.6068 18.9805C36.919 19.0398 38.1715 18.5653 39.1258 17.6756L41.5115 20.0482C40.3186 21.3531 38.5293 22.3021 35.7261 22.3021C31.0739 22.3021 28.0321 19.2771 28.0321 15.1844C27.9725 11.329 31.0739 8.12605 35.0104 8.06673H35.3086C40.0204 8.06673 42.7044 11.8035 42.4062 16.5487H32.0879C32.5054 18.0315 33.6386 18.9805 35.6068 18.9805ZM38.2311 13.7609C37.9926 12.3374 36.74 11.2697 35.249 11.3883C33.7579 11.2697 32.3861 12.278 32.0879 13.7609H38.2311Z" fill="#2D3235"/>
<path d="M53.3215 20.4041C52.6057 21.5904 51.1743 22.3021 49.1464 22.3021C45.6275 22.3021 42.8242 19.2771 42.8242 15.1844C42.8242 11.0918 45.6871 8.06673 49.1464 8.06673C51.1743 8.06673 52.5461 8.7785 53.3215 9.96479V8.42262H57.2579V30.3095H53.3215V20.4041ZM53.3811 15.1844C53.3811 12.9898 52.1882 11.5663 50.1604 11.5663C48.1325 11.5663 46.88 12.9898 46.88 15.1844C46.88 17.3791 48.1921 18.8026 50.1604 18.8026C52.1286 18.8026 53.3811 17.3791 53.3811 15.1844Z" fill="#2D3235"/>
</g>
<defs>
<clipPath id="clip0">
<rect width="82.129" height="30.3095" fill="white"/>
</clipPath>
</defs>
</svg>
