<svg width="23" height="23" viewBox="0 0 23 23" fill="none" xmlns="http://www.w3.org/2000/svg">
<path d="M3.813 22.5H18.937C19.8488 22.5 20.7233 22.1378 21.368 21.493C22.0128 20.8483 22.375 19.9738 22.375 19.062V3.938C22.375 3.02619 22.0128 2.15172 21.368 1.50697C20.7233 0.862217 19.8488 0.5 18.937 0.5H3.813C3.36148 0.499869 2.91436 0.588706 2.49718 0.761435C2.08 0.934164 1.70095 1.1874 1.38167 1.50667C1.0624 1.82595 0.809164 2.205 0.636435 2.62218C0.463706 3.03936 0.374869 3.48648 0.375 3.938V19.062C0.375 19.9738 0.737217 20.8483 1.38197 21.493C2.02672 22.1378 2.90119 22.5 3.813 22.5ZM8.723 9.667H9.859V8.53C9.80682 7.93767 9.93474 7.3434 10.226 6.825C10.4265 6.55077 10.6928 6.33145 11.0004 6.18727C11.308 6.04309 11.647 5.97868 11.986 6C12.6725 5.9689 13.3599 6.03693 14.027 6.202L13.74 7.888C13.4409 7.80646 13.133 7.76146 12.823 7.754C12.383 7.754 11.986 7.913 11.986 8.365V9.667H13.819L13.691 11.311H11.986V17H9.859V11.286H8.723V9.666V9.667Z" fill="#96969C"/>
</svg>
