<svg width="38" height="67" viewBox="0 0 38 67" fill="none" xmlns="http://www.w3.org/2000/svg">
<path fill-rule="evenodd" clip-rule="evenodd" d="M35.2138 0.2013L18.9629 7.71251L2.71195 0.2013C1.57195 -0.425135 0 0.474709 0 2.08361V33.4459C0 34.6477 0.711016 35.6272 1.67586 35.6572C1.72022 35.6629 1.7651 35.6629 1.80945 35.6572H1.90594L12.5563 34.5381L10.5391 31.6282C9.65734 30.3828 10.7261 29.3012 11.8572 29.7219C12.0843 29.806 12.3307 29.6948 12.5519 29.7534L9.88 20.6318C9.86961 20.6002 9.8607 20.5687 9.8518 20.5372L9.83102 20.4681V20.447C9.75826 20.0767 9.82058 19.6923 10.0064 19.365C10.1923 19.0376 10.4891 18.7896 10.8418 18.6667C11.1946 18.5439 11.5793 18.5546 11.9249 18.6969C12.2704 18.8391 12.5533 19.1033 12.7211 19.4405V19.454C12.7463 19.5051 15.7863 27.0959 15.7863 27.0959C15.8572 26.7111 16.0613 26.3645 16.3621 26.1184C16.6628 25.8722 17.0404 25.7426 17.427 25.753C17.8137 25.7633 18.184 25.9128 18.4715 26.1746C18.759 26.4365 18.9448 26.7935 18.9955 27.1816C19.0491 26.7821 19.2451 26.4162 19.5467 26.1528C19.8482 25.8894 20.2345 25.7467 20.6328 25.7514C21.427 25.7514 22.043 26.462 22.181 27.2281L23.9875 22.0754C24.1126 21.7306 24.3533 21.4412 24.6677 21.2576C24.9821 21.074 25.3502 21.0079 25.7078 21.0709C26.0654 21.1338 26.3898 21.3218 26.6244 21.602C26.8591 21.8822 26.9892 22.2369 26.9919 22.6042V22.6523L25.3828 34.5275L36.0213 35.6467H36.1178C36.1622 35.6524 36.2071 35.6524 36.2514 35.6467C37.2163 35.6167 37.8738 34.6432 37.8738 33.4399V2.0761C37.8723 0.4687 36.3538 -0.425135 35.2138 0.2013Z" fill="#EC1C24"/>
<g style="mix-blend-mode:exclusion">
<path d="M30.5455 40.6851H27.2502C27.0376 40.6851 26.8337 40.7705 26.6834 40.9227C26.533 41.0748 26.4486 41.2811 26.4486 41.4963V53.3925C26.4486 53.6077 26.533 53.814 26.6834 53.9661C26.8337 54.1183 27.0376 54.2037 27.2502 54.2037H30.5455C35.4602 54.2037 37.9362 51.4997 37.9362 47.4722C37.9362 43.4447 35.4602 40.6851 30.5455 40.6851ZM31.5845 50.0891H30.7266C30.5848 50.0891 30.4489 50.0321 30.3487 49.9307C30.2485 49.8293 30.1922 49.6917 30.1922 49.5483V45.2819C30.1922 45.1385 30.2485 45.0009 30.3487 44.8995C30.4489 44.7981 30.5848 44.7411 30.7266 44.7411H31.5281C32.6548 44.7411 33.3984 45.695 33.3984 47.4722C33.3984 49.2493 32.7186 50.0906 31.592 50.0906L31.5845 50.0891ZM0.801562 54.2037H3.20625C3.41884 54.2037 3.62272 54.1183 3.77304 53.9661C3.92336 53.814 4.00781 53.6077 4.00781 53.3925V49.6069L5.21312 52.1276C5.27995 52.264 5.38331 52.3785 5.5114 52.4582C5.63949 52.5379 5.78715 52.5795 5.9375 52.5783H5.97016C6.11539 52.5792 6.25811 52.54 6.38308 52.4652C6.50805 52.3903 6.61057 52.2824 6.67969 52.1532L8.01562 49.6084V53.394C8.01562 53.6092 8.10007 53.8155 8.2504 53.9676C8.40072 54.1198 8.6046 54.2052 8.81719 54.2052H11.2219C11.3271 54.2052 11.4314 54.1843 11.5286 54.1435C11.6259 54.1027 11.7142 54.043 11.7887 53.9676C11.8631 53.8923 11.9221 53.8029 11.9624 53.7045C12.0027 53.606 12.0234 53.5006 12.0234 53.394V41.4963C12.0234 41.3897 12.0027 41.2843 11.9624 41.1858C11.9221 41.0874 11.8631 40.998 11.7887 40.9227C11.7142 40.8473 11.6259 40.7876 11.5286 40.7468C11.4314 40.706 11.3271 40.6851 11.2219 40.6851H8.62273C8.47715 40.6851 8.33433 40.7252 8.20958 40.8012C8.08484 40.8771 7.98289 40.986 7.91469 41.1162L5.87812 45.0115L3.84008 41.1177C3.77187 40.9875 3.66992 40.8786 3.54518 40.8027C3.42044 40.7267 3.27761 40.6866 3.13203 40.6866H0.801562C0.588975 40.6866 0.385094 40.772 0.234772 40.9242C0.0844501 41.0763 0 41.2826 0 41.4978L0 53.394C0.000393205 53.6089 0.0850168 53.8149 0.235296 53.9667C0.385576 54.1185 0.589232 54.2037 0.801562 54.2037ZM21.375 52.8998L21.5769 53.6164C21.6246 53.7859 21.7256 53.9351 21.8646 54.0413C22.0036 54.1476 22.1731 54.2051 22.3473 54.2052H24.5738C24.6987 54.2054 24.8218 54.176 24.9334 54.1194C25.045 54.0628 25.142 53.9806 25.2166 53.8793C25.2912 53.7779 25.3413 53.6604 25.3629 53.5359C25.3846 53.4115 25.3771 53.2837 25.3412 53.1627C24.5412 50.4737 22.4289 43.3711 21.8144 41.295C21.7649 41.1284 21.6636 40.9825 21.5256 40.8788C21.3876 40.7752 21.2203 40.7193 21.0484 40.7196H17.4266C17.2544 40.7196 17.0868 40.7757 16.9486 40.8796C16.8104 40.9835 16.7089 41.1297 16.6591 41.2965L13.1338 53.1642C13.0965 53.2857 13.088 53.4144 13.109 53.5399C13.13 53.6654 13.1798 53.7841 13.2545 53.8865C13.3293 53.9889 13.4267 54.072 13.539 54.1292C13.6514 54.1864 13.7754 54.2161 13.9012 54.2158H16.2257C16.3999 54.2157 16.5693 54.1581 16.7083 54.0519C16.8473 53.9456 16.9484 53.7964 16.9961 53.6269L17.198 52.9103C17.2457 52.7408 17.3467 52.5916 17.4857 52.4853C17.6247 52.3791 17.7942 52.3215 17.9684 52.3214H20.6046C20.7775 52.3209 20.9459 52.3769 21.0847 52.4811C21.2236 52.5853 21.3254 52.7322 21.375 52.8998ZM18.1658 49.1802L19.2345 45.3946L20.3033 49.1802H18.1658ZM4.00781 56.6344H0.801562C0.588975 56.6344 0.385094 56.7198 0.234772 56.872C0.0844501 57.0241 0 57.2304 0 57.4456L0 66.0985C0 66.3136 0.0844501 66.52 0.234772 66.6721C0.385094 66.8242 0.588975 66.9097 0.801562 66.9097H4.275C7.95328 66.9097 9.61875 64.781 9.61875 61.772C9.61875 58.763 7.68461 56.6344 4.00781 56.6344ZM4.275 63.6634H3.74063C3.66976 63.6634 3.6018 63.6349 3.55169 63.5842C3.50159 63.5334 3.47344 63.4647 3.47344 63.393V60.1481C3.47344 60.0764 3.50159 60.0076 3.55169 59.9569C3.6018 59.9062 3.66976 59.8777 3.74063 59.8777H4.275C5.31406 59.8777 5.87812 60.4411 5.87812 61.7705C5.87812 63.1 5.31109 63.6679 4.275 63.6679V63.6634ZM36.29 61.1907C35.9456 60.9574 35.2074 60.6949 34.0753 60.4035L33.5157 60.2638C33.4761 60.2548 33.4188 60.2393 33.3435 60.2172C32.4915 59.9998 32.0655 59.7285 32.0655 59.403C32.0592 59.3045 32.0784 59.206 32.121 59.1173C32.1637 59.0285 32.2285 58.9525 32.3089 58.8967C32.5353 58.7701 32.793 58.7122 33.0511 58.73C33.3566 58.7113 33.6606 58.7856 33.9239 58.9433C34.1287 59.086 34.4924 59.3234 34.5399 59.6133H36.5809C36.6615 59.6137 36.741 59.5955 36.8136 59.5603C36.8862 59.525 36.95 59.4736 37.0001 59.4099C37.0502 59.3461 37.0854 59.2717 37.1031 59.1922C37.1207 59.1127 37.1203 59.0302 37.102 58.9508C36.9582 58.2926 36.5845 57.709 36.0495 57.3074C35.192 56.6819 34.1585 56.3522 33.1016 56.367C32.0269 56.3484 30.9764 56.6913 30.115 57.3419C29.3891 57.8978 28.9275 58.5572 28.9275 59.5307C28.9501 60.0194 29.0778 60.4972 29.3016 60.9308C29.4982 61.3203 29.7868 61.6547 30.1417 61.9042C30.4327 62.0839 30.7436 62.2281 31.068 62.3339C31.4925 62.4871 32.0625 62.6573 32.778 62.8446L33.1802 62.9453C34.0541 63.1676 34.4914 63.4565 34.4924 63.8121C34.4933 63.9202 34.4645 64.0265 34.4092 64.1191C34.3539 64.2117 34.2743 64.2869 34.1792 64.3364C33.9147 64.4766 33.618 64.5425 33.3198 64.5272C32.8844 64.5272 32.5568 64.4495 32.3371 64.2943C32.1174 64.1441 31.9497 63.755 31.8666 63.393H29.5509C29.4715 63.3929 29.393 63.4107 29.3212 63.4452C29.2494 63.4796 29.186 63.5297 29.1357 63.592C29.0854 63.6543 29.0494 63.7271 29.0304 63.8052C29.0113 63.8832 29.0096 63.9646 29.0255 64.0434C29.1873 64.8336 29.5287 65.5216 30.1239 65.9813C30.878 66.5642 31.8131 66.9067 33.1001 66.9067C34.4969 66.9067 35.6547 66.5642 36.4043 65.9813C37.1539 65.3985 37.4805 64.4791 37.4805 63.3915C37.4805 62.8882 37.4285 62.5412 37.2311 62.1716C37.0015 61.7716 36.6784 61.4347 36.29 61.1907ZM27.6005 56.6344H25.3279C25.1403 56.6344 24.9587 56.7011 24.8147 56.8227C24.6707 56.9443 24.5734 57.1131 24.5397 57.2999L23.5912 62.5817L22.6427 57.2999C22.609 57.1131 22.5116 56.9443 22.3676 56.8227C22.2236 56.7011 22.042 56.6344 21.8545 56.6344H19.5804C19.4561 56.6343 19.3335 56.6635 19.2222 56.7197C19.111 56.7758 19.0142 56.8574 18.9394 56.958C18.8647 57.0585 18.8141 57.1753 18.7917 57.299C18.7692 57.4227 18.7755 57.5501 18.81 57.6709L21.2845 66.3223C21.3327 66.4913 21.434 66.6398 21.5729 66.7455C21.7119 66.8512 21.881 66.9083 22.0548 66.9082H25.1245C25.2983 66.9083 25.4675 66.8512 25.6064 66.7455C25.7454 66.6398 25.8466 66.4913 25.8949 66.3223L28.3694 57.6709C28.4039 57.5502 28.4102 57.423 28.3878 57.2994C28.3654 57.1757 28.3149 57.0591 28.2404 56.9585C28.1658 56.858 28.0692 56.7764 27.9582 56.7202C27.8471 56.6639 27.7247 56.6345 27.6005 56.6344ZM17.0985 56.6344H11.2204C11.1151 56.6344 11.0109 56.6553 10.9136 56.6961C10.8164 56.7369 10.728 56.7966 10.6536 56.872C10.5792 56.9473 10.5201 57.0367 10.4798 57.1351C10.4396 57.2336 10.4188 57.339 10.4188 57.4456V66.0985C10.4188 66.3136 10.5033 66.52 10.6536 66.6721C10.8039 66.8242 11.0078 66.9097 11.2204 66.9097H17.0985C17.3111 66.9097 17.515 66.8242 17.6653 66.6721C17.8156 66.52 17.9001 66.3136 17.9001 66.0985V64.7465C17.9001 64.603 17.8438 64.4655 17.7436 64.3641C17.6433 64.2626 17.5074 64.2057 17.3657 64.2057H13.8923C13.8214 64.2057 13.7534 64.1772 13.7033 64.1265C13.6532 64.0758 13.6251 64.007 13.6251 63.9353V63.3945C13.6251 63.3227 13.6532 63.254 13.7033 63.2033C13.7534 63.1525 13.8214 63.1241 13.8923 63.1241H16.5641C16.6343 63.1241 16.7038 63.1101 16.7686 63.0829C16.8335 63.0557 16.8924 63.0159 16.942 62.9657C16.9916 62.9154 17.031 62.8558 17.0578 62.7902C17.0847 62.7246 17.0985 62.6543 17.0985 62.5832V60.9608C17.0985 60.8174 17.0422 60.6798 16.942 60.5784C16.8418 60.477 16.7059 60.42 16.5641 60.42H13.8923C13.8214 60.42 13.7534 60.3915 13.7033 60.3408C13.6532 60.2901 13.6251 60.2213 13.6251 60.1496V59.6088C13.6251 59.5371 13.6532 59.4683 13.7033 59.4176C13.7534 59.3669 13.8214 59.3384 13.8923 59.3384H17.3672C17.4374 59.3384 17.5069 59.3244 17.5717 59.2972C17.6365 59.2701 17.6954 59.2302 17.745 59.18C17.7947 59.1298 17.834 59.0702 17.8609 59.0046C17.8877 58.9389 17.9016 58.8686 17.9016 58.7976V57.4456C17.9016 57.3389 17.8808 57.2333 17.8404 57.1348C17.8 57.0363 17.7409 56.9468 17.6663 56.8714C17.5917 56.7961 17.5031 56.7364 17.4057 56.6957C17.3083 56.655 17.2039 56.6342 17.0985 56.6344Z" fill="#000"/>
</g>
</svg>
