<svg xmlns="http://www.w3.org/2000/svg" width="192" height="48" viewBox="0 0 192 48">
    <path fill="#00C8F8" fill-rule="nonzero" d="M73.517 11.187a2.27 2.27 0 0 0-2.266 2.274v13.795a.712.712 0 1 1-1.292.444L58.114 12.347a2.987 2.987 0 0 0-2.36-1.16H54.65c-.452 0-.884.18-1.203.5-.319.321-.497.756-.496 1.209v22.323a2.277 2.277 0 0 0 1.105 2.045 2.259 2.259 0 0 0 2.318 0 2.277 2.277 0 0 0 1.106-2.045V20.96a.744.744 0 1 1 1.331-.459L71.3 36.677c.398.515 1.01.817 1.66.817h.732a2.09 2.09 0 0 0 1.482-.617c.393-.396.613-.931.612-1.49V13.461a2.275 2.275 0 0 0-.663-1.61 2.258 2.258 0 0 0-1.606-.664zm20.738 14.99h-7.509c-.34.001-.66-.16-.861-.435a1.078 1.078 0 0 1-.163-.954c.735-2.314 2.498-3.83 4.818-3.83 2.498 0 4.118 1.602 4.753 3.837.098.326.035.68-.168.952a1.07 1.07 0 0 1-.863.43h-.007zm-1.713-8.76c-6.067-1.136-11.624 3.72-11.624 9.922v.308c0 6.121 4.415 10.294 10.146 10.294 2.855 0 5.029-.891 6.749-2.353a1.704 1.704 0 0 0 0-2.558 2.043 2.043 0 0 0-2.559-.118 6.724 6.724 0 0 1-4.115 1.311c-2.455 0-4.464-1.279-5.331-3.61a1.078 1.078 0 0 1 .133-.976c.199-.285.523-.455.87-.457h11.976a1.266 1.266 0 0 0 1.26-1.24c0-5.086-2.498-9.575-7.494-10.495l-.011-.029zm27.34.264a2.267 2.267 0 0 0-2.262 2.271v8.898c0 3.08-1.835 4.922-4.458 4.922-2.694 0-4.229-1.766-4.229-4.847v-9.001a2.27 2.27 0 0 0-2.266-2.275 2.27 2.27 0 0 0-2.266 2.275v10.352c0 4.624 2.584 7.63 7.041 7.63 2.88 0 4.675-1.433 5.939-3.153a.132.132 0 0 1 .239.08v.902c-.001.466.182.913.51 1.243.329.33.774.516 1.238.516h1.028c.968 0 1.752-.788 1.752-1.76v-15.81c0-.603-.238-1.182-.664-1.608a2.258 2.258 0 0 0-1.602-.663v.028zm18.055-.34c-2.498.358-4.23 1.97-5.318 4.22a.132.132 0 0 1-.25-.058v-1.708c0-1.187-.958-2.15-2.14-2.15h-.261a2.145 2.145 0 0 0-2.142 2.15v15.424a2.277 2.277 0 0 0 1.106 2.045 2.259 2.259 0 0 0 2.318 0 2.277 2.277 0 0 0 1.105-2.045v-5.28c0-4.51 2.034-7.06 5.118-7.694.953-.197 1.784-.96 1.87-1.938v-1.72c-.001-.363-.158-.71-.432-.948a1.253 1.253 0 0 0-.996-.298h.022zm39.499 12.974c0 2.479-2.245 4.173-5.243 4.173-2.141 0-3.815-1.053-3.815-2.933v-.072c0-1.916 1.681-3.084 4.53-3.084a13.28 13.28 0 0 1 3.925.58.87.87 0 0 1 .603.838v.498zm-4.304-12.967a16.567 16.567 0 0 0-5.757.939 1.958 1.958 0 0 0-1.144 2.44 1.947 1.947 0 0 0 2.372 1.267 12.672 12.672 0 0 1 3.887-.587c2.883 0 4.564 1.268 4.824 3.582 0 .225-.032.87-.713.81a16.604 16.604 0 0 0-4.693-.599c-4.607 0-8.016 2.11-8.016 6.505v.072c0 3.987 3.294 6.129 7.038 6.129 2.83 0 4.825-1.107 6.17-2.59a.135.135 0 0 1 .236.09c0 1.143.923 2.07 2.063 2.07h.357a2.07 2.07 0 0 0 2.059-2.07V25.73c0-5.298-2.855-8.382-8.683-8.382zm16.673-7.29h-.143c-.581 0-1.14.233-1.55.646a2.204 2.204 0 0 0-.64 1.557v23.03c0 1.215.98 2.2 2.19 2.203h.143a2.19 2.19 0 0 0 1.552-.646c.412-.413.643-.973.643-1.557V12.26a2.199 2.199 0 0 0-2.195-2.202zm-35.024 16.12h-7.516a1.07 1.07 0 0 1-.866-.433 1.078 1.078 0 0 1-.165-.957c.742-2.314 2.498-3.83 4.825-3.83 2.498 0 4.118 1.602 4.754 3.837.097.326.034.68-.169.952a1.07 1.07 0 0 1-.863.43zm-1.72-8.762c-6.067-1.135-11.623 3.722-11.623 9.923v.308c0 6.121 4.418 10.294 10.142 10.294 2.834 0 5.036-.891 6.749-2.353a1.7 1.7 0 0 0 0-2.558 2.043 2.043 0 0 0-2.56-.118 6.724 6.724 0 0 1-4.096 1.311c-2.463 0-4.465-1.279-5.332-3.61a1.078 1.078 0 0 1 .134-.978c.2-.285.525-.454.873-.455h11.973c.68-.01 1.23-.557 1.245-1.24 0-5.086-2.52-9.575-7.494-10.495l-.01-.029zM35.35 15.707a1.965 1.965 0 0 0-2.784 0l-4.304 4.467a1.966 1.966 0 0 1-2.787 0l-6.734-6.763a1.956 1.956 0 0 0-1.392-.58h-5.19a1.974 1.974 0 0 0-1.802 1.97c0 1.027.783 1.883 1.803 1.97h3.544c.523 0 1.025.209 1.395.58l5.592 5.62a1.986 1.986 0 0 1 0 2.799l-3.365 3.223c-.37.37-.87.577-1.392.577h-2.587a1.974 1.974 0 0 0-1.803 1.97c0 1.027.783 1.883 1.803 1.97h4.218c.52.006 1.02-.193 1.395-.555l4.515-4.391a1.968 1.968 0 0 1 2.787 0l6 6.028c.769.773 2.017.773 2.786 0 .77-.772.77-2.025 0-2.797l-5.999-6.025a1.981 1.981 0 0 1 0-2.798l4.283-4.467a1.981 1.981 0 0 0 0-2.798h.018zM23.91 45.374C13.329 45.332 4.373 37.52 2.855 27.01c-.14-.967-.21-1.943-.21-2.92V24a21.384 21.384 0 0 1 .82-5.889C6.498 7.507 17.075.964 27.876 3.011c10.8 2.047 18.273 12.01 17.245 22.995-1.028 10.984-10.219 19.376-21.21 19.368zM23.91 0C13.25.026 3.887 7.11.924 17.387A23.624 23.624 0 0 0 0 24v.093C.051 37.336 10.779 48.034 23.972 48c13.194-.034 23.866-10.788 23.85-24.03C47.803 10.725 37.103 0 23.91 0z"/>
</svg>
