<?xml version="1.0" encoding="UTF-8"?>
<svg width="270px" height="54px" viewBox="0 0 270 54" version="1.1" xmlns="http://www.w3.org/2000/svg" xmlns:xlink="http://www.w3.org/1999/xlink">
    <!-- Generator: Sketch 51.1 (57501) - http://www.bohemiancoding.com/sketch -->
    <title>5</title>
    <desc>Created with Sketch.</desc>
    <defs></defs>
    <g id="home-S-5" stroke="none" stroke-width="1" fill="none" fill-rule="evenodd">
        <g id="DM_home_1320_l5_small" transform="translate(-455.000000, -2612.000000)" fill="#FEF4F4" fill-rule="nonzero">
            <g id="Group-9" transform="translate(109.000000, 2332.000000)">
                <g id="Group-22" transform="translate(0.000000, 279.000000)">
                    <g id="sloi" transform="translate(329.000000, 1.000000)">
                        <path d="M67.9081493,1.30202303 L19.5579333,45.302023 C17.515597,47.1606041 17.366634,50.3229224 19.2252151,52.3652587 C20.1727595,53.4064855 21.515359,54 22.923192,54 L281.076808,54 C283.838232,54 286.076808,51.7614237 286.076808,49 C286.076808,47.592167 285.483294,46.2495675 284.442067,45.302023 L236.091851,1.30202303 C235.171266,0.464266281 233.971306,-9.12387673e-14 232.726592,-8.43769499e-14 L71.273408,-7.10542736e-15 C70.0286943,-6.87677715e-15 68.8287338,0.464266281 67.9081493,1.30202303 Z" id="5"></path>
                    </g>
                </g>
            </g>
        </g>
    </g>
</svg>