<svg width="229" height="108" viewBox="0 0 229 108" fill="none" xmlns="http://www.w3.org/2000/svg">
<path d="M1.75487 60.9671C1.27055 59.1596 2.34321 57.3017 4.15072 56.8174L211.773 1.18506C213.581 0.700742 215.439 1.7734 215.923 3.58091L227.456 46.6211C227.94 48.4286 226.867 50.2865 225.06 50.7708L17.4372 106.403C15.6297 106.887 13.7718 105.815 13.2874 104.007L1.75487 60.9671Z" fill="#EC1C24"/>
<mask id="mask0" mask-type="alpha" maskUnits="userSpaceOnUse" x="1" y="1" width="227" height="106">
<rect x="0.87793" y="57.6943" width="221.723" height="51.3349" rx="4.21317" transform="rotate(-15 0.87793 57.6943)" fill="white"/>
<rect x="0.87793" y="57.6943" width="221.723" height="51.3349" rx="4.21317" transform="rotate(-15 0.87793 57.6943)" fill="white"/>
<rect x="0.87793" y="57.6943" width="221.723" height="51.3349" rx="4.21317" transform="rotate(-15 0.87793 57.6943)" fill="white"/>
</mask>
<g mask="url(#mask0)">
<rect x="6.76645" y="61.0656" width="211.867" height="41.7743" rx="3.61128" transform="rotate(-15 6.76645 61.0656)" stroke="#F5F7F9" stroke-width="1.20376"/>
<path d="M29.3466 87.4321C28.678 87.8487 28.045 88.0183 27.4476 87.941C26.8733 87.8235 26.5014 87.4482 26.3318 86.8152C26.2724 86.5936 26.3007 86.3825 26.4165 86.1819C26.5324 85.9812 26.72 85.7952 26.9794 85.624C27.2705 85.4442 27.5499 85.2845 27.8178 85.1449C28.0857 85.0053 28.3853 84.8572 28.7165 84.7006C29.0793 84.5355 29.3514 84.4117 29.5329 84.3292C31.2962 83.3139 32.8532 81.8451 34.2039 79.9227C35.5545 78.0004 36.5378 75.9729 37.1537 73.8404C35.9233 73.9326 34.7058 74.3267 33.5015 75.0225C32.3203 75.6783 31.1212 76.4575 29.9044 77.3602C28.6877 78.2629 27.613 78.8732 26.6804 79.1909C26.1192 79.3752 25.6179 79.3399 25.1764 79.085C24.7265 78.7985 24.4294 78.3862 24.2853 77.8482C23.946 76.5822 24.5139 74.9035 25.9889 72.8121L30.2715 66.5762C31.5441 64.7425 32.6869 63.69 33.6997 63.4187C34.4277 63.2236 34.9926 63.4963 35.3945 64.2366C32.1703 66.7628 29.5416 70.4354 27.5084 75.2545C28.0001 75.1906 29.5549 74.5365 32.1728 73.2923C34.8139 72.0079 36.3645 71.338 36.8245 71.2826C37.3078 71.187 37.6644 71.1254 37.8944 71.0977C38.1245 71.07 38.3946 71.0654 38.7049 71.084C39.0152 71.1027 39.2433 71.1942 39.3891 71.3587C39.5666 71.5146 39.7178 71.7625 39.8428 72.1022C39.9784 72.6086 39.9276 73.3685 39.6903 74.3819C39.096 76.8479 37.8567 79.2493 35.9725 81.586C34.1115 83.8825 31.9029 85.8313 29.3466 87.4321ZM56.2892 70.3413C56.0579 69.3517 55.7213 68.4751 55.2792 67.7115C54.8372 66.948 54.2561 66.4252 53.536 66.1433C52.8075 65.8296 52.0541 65.9297 51.2758 66.4436C49.0044 67.9681 47.24 69.8656 45.9826 72.1362C45.5571 72.8269 45.0646 73.0776 44.505 72.8883C43.9686 72.6589 43.6071 72.196 43.4205 71.4997C43.2764 70.9616 43.4213 70.3631 43.8553 69.704C44.3125 69.0048 44.831 68.4079 45.4109 67.9133C45.9822 67.3871 46.6876 66.791 47.5268 66.1251C48.3576 65.4276 48.91 64.9573 49.1841 64.7142C49.825 64.0676 50.3142 63.6143 50.6516 63.3542C51.0206 63.0857 51.4425 62.8879 51.9173 62.7607C52.4152 62.5933 52.9671 62.5642 53.573 62.6732C53.9952 62.7297 54.4209 62.9888 54.8499 63.4505C57.4704 66.1407 59.1665 68.9258 59.9382 71.806C60.0231 72.1225 60.5697 72.9598 61.5781 74.3179C62.6097 75.6359 63.1806 76.5006 63.2909 76.912C63.4181 77.3868 63.4071 77.9155 63.258 78.4983C63.1404 79.0725 62.8918 79.4105 62.512 79.5123C62.0287 79.6078 61.595 79.5714 61.2106 79.403C60.8178 79.203 60.5041 78.9817 60.2695 78.7393C60.0581 78.4567 59.7811 78.056 59.4385 77.5372C59.0378 77.8142 58.3746 78.3141 57.4489 79.0371C56.5231 79.7601 55.7893 80.3129 55.2473 80.6956C54.7285 81.0381 54.0683 81.4864 53.2669 82.0404C52.4887 82.5542 51.7367 82.9762 51.0111 83.3063C50.317 83.628 49.606 83.8863 48.8781 84.0814C46.441 84.7344 44.5218 84.2819 43.1205 82.7237C42.8266 82.2597 42.6129 81.8421 42.4795 81.4707C42.3692 81.0593 42.4014 80.6097 42.576 80.1219C42.7738 79.594 42.9928 79.1452 43.2329 78.7755C43.4646 78.3742 43.7755 77.9517 44.1654 77.508C44.587 77.0558 44.958 76.668 45.2785 76.3447C45.6306 76.0129 46.007 75.7085 46.4077 75.4315C48.3518 73.8251 51.3261 72.2648 55.3304 70.7509C55.7565 70.5689 56.0761 70.4323 56.2892 70.3413ZM45.5282 81.2645C46.9191 81.2649 48.2202 81.1198 49.4314 80.8292C50.6341 80.5069 51.806 80.0063 52.9471 79.3274C54.1198 78.6401 55.1416 77.9592 56.0126 77.2848C56.875 76.5788 57.6572 75.8265 58.3591 75.0278C57.3829 74.1699 56.1129 73.7978 54.549 73.9116C53.0082 73.9852 51.5608 74.4069 50.2066 75.1768C48.8757 75.9066 47.7349 76.8399 46.7843 77.9766C45.8337 79.1133 45.415 80.2092 45.5282 81.2645ZM68.181 77.3827C66.5183 77.7604 65.4452 77.0472 64.9618 75.2431C64.843 74.8 64.6584 73.9844 64.4079 72.7964C64.149 71.5767 63.8807 70.5122 63.6031 69.6028C63.3572 68.6849 63.1146 67.9697 62.8755 67.4571C62.6703 67.0711 62.1379 66.6031 61.2781 66.0533C60.4099 65.4717 59.9682 64.9625 59.9529 64.5256C59.9568 64.2871 60.158 63.9618 60.5564 63.5498C60.978 63.0976 61.1337 62.6657 61.0235 62.2543C60.9805 61.5873 60.6203 60.4965 59.9431 58.9819C59.289 57.4271 59.0493 56.4058 59.2239 55.918C59.3058 55.5907 59.5683 55.3677 60.0114 55.249C60.9926 54.9861 61.8453 55.8262 62.5695 57.7693C63.2388 59.761 63.6982 60.8422 63.9474 61.0129C64.2052 61.2152 64.5768 61.3361 65.0623 61.3756C65.5478 61.4151 66.1673 61.3848 66.9207 61.2847C67.6741 61.1846 68.2966 61.1026 68.7884 61.0387C69.3117 60.9663 70.0408 60.8388 70.9757 60.6562C71.9105 60.4735 72.4728 60.3568 72.6627 60.3059C69.8934 61.9978 68.2725 62.9749 67.8 63.2371C66.4837 63.8952 65.7128 64.3731 65.4873 64.671C65.0279 65.2351 64.9423 66.0552 65.2307 67.1313C65.6971 68.8721 66.142 70.2794 66.5655 71.3532C67.0121 72.387 67.6011 73.3825 68.3325 74.3399C68.7417 74.0946 69.1235 73.8735 69.4779 73.6768C69.8237 73.4484 70.0557 73.3015 70.1739 73.2359C70.3152 73.1302 70.5082 73.0276 70.7529 72.9281C71.0293 72.8201 71.4048 72.7025 71.8796 72.5753C71.9904 73.4954 71.6571 74.4668 70.8794 75.4893C70.0933 76.4801 69.1939 77.1113 68.181 77.3827ZM69.2619 50.7858C69.6711 50.5405 70.1061 50.6445 70.5667 51.0977C71.0506 51.5108 71.3457 52.0424 71.452 52.6924C71.5899 53.3339 71.3984 53.7583 70.8773 53.9658C70.2381 54.2389 69.707 54.0928 69.2842 53.5276C68.8931 52.954 68.6663 52.2345 68.6041 51.3692C68.5849 51.1708 68.6185 51.0431 68.705 50.986C68.8231 50.9204 69.0087 50.8537 69.2619 50.7858ZM75.5098 75.6225C75.1294 75.2155 74.8227 74.7041 74.5898 74.088C74.3886 73.4635 74.2676 72.8853 74.2268 72.3534C74.1776 71.7899 74.0786 71.1041 73.9299 70.2959C73.8128 69.4792 73.6737 68.7701 73.5126 68.1688C73.3453 67.6708 73.209 66.6558 73.1037 65.1235C72.9984 63.5913 72.9173 62.7819 72.8602 62.6954C72.8347 62.6005 72.7225 62.3083 72.5235 61.8188C72.3562 61.3209 72.2228 60.9496 72.1233 60.7049C72.0469 60.42 71.9579 60.0877 71.8561 59.7079C71.786 59.3196 71.7846 58.9977 71.8518 58.7422C71.9106 58.4551 72.0422 58.2502 72.2468 58.1275C72.7385 58.0636 73.3035 58.3363 73.9417 58.9455C74.5713 59.5231 74.9362 60.1886 75.0363 60.942C75.1675 61.1782 75.2811 61.7923 75.3773 62.7842C75.4735 63.7762 75.5338 64.7607 75.5581 65.738C75.6057 66.675 75.6295 67.1436 75.6295 67.1436C75.7058 67.4285 75.8045 67.86 75.9255 68.4382C76.0465 69.0164 76.142 69.4996 76.2122 69.8879C76.2823 70.2762 76.362 70.7636 76.4514 71.3503C76.5322 71.9053 76.5602 72.3897 76.5354 72.8034C76.5422 73.2087 76.5174 73.6224 76.4609 74.0446C76.4276 74.4267 76.3298 74.7582 76.1677 75.0391C75.997 75.2884 75.7777 75.4828 75.5098 75.6225ZM79.4895 65.7531C80.6713 65.6061 81.5945 65.4435 82.2592 65.2654C82.9555 65.0788 83.9556 64.76 85.2595 64.3088C86.595 63.8492 87.5793 63.5346 88.2123 63.365C89.6049 62.9918 90.6655 62.9621 91.394 63.2757C92.1543 63.5808 92.457 64.3308 92.3022 65.5257C92.1932 66.1316 91.9059 66.7683 91.4402 67.4358C90.9745 68.1034 90.4792 68.6601 89.9541 69.1061C89.4608 69.5436 88.7944 70.0953 87.9552 70.7612C87.1476 71.4186 86.5677 71.9132 86.2156 72.245C85.6442 72.7713 85.1096 73.1181 84.6117 73.2854C84.1053 73.4211 83.4773 73.4197 82.7278 73.2813C82.7318 73.0428 82.8179 72.7314 82.9863 72.347C83.1864 71.9542 83.4339 71.5486 83.7289 71.1304C84.0556 70.7036 84.398 70.2726 84.7563 69.8374C85.1378 69.362 85.5119 68.9225 85.8787 68.519C86.2455 68.1154 86.5733 67.7562 86.8621 67.4413C87.1509 67.1265 87.369 66.8645 87.5165 66.6553C87.664 66.4462 87.7219 66.3459 87.6903 66.3544C87.1183 66.3719 85.7943 66.8115 83.7184 67.673C81.6742 68.5261 80.4938 68.995 80.1773 69.0798C78.8796 69.4275 77.858 69.4129 77.1125 69.036C76.3901 68.619 76.0589 67.8257 76.1187 66.6563C76.1406 65.5988 76.5393 64.4913 77.3146 63.3337C77.3757 63.1817 78.1988 62.2657 79.784 60.5858C81.3693 58.9059 82.6468 57.5967 83.6166 56.6584C84.1795 56.1005 84.6455 55.6873 85.0145 55.4188C85.4152 55.1418 85.8572 54.9556 86.3404 54.86C86.8237 54.7644 87.3335 54.8314 87.8699 55.0608C88.742 55.4038 89.1626 55.8339 89.1315 56.351C89.1005 56.8682 88.6125 57.3891 87.6675 57.9137C84.4172 59.8362 81.6912 62.4493 79.4895 65.7531ZM92.4393 58.5687C92.6009 57.7791 92.524 56.9855 92.2085 56.1881C91.9162 55.3505 91.5796 54.4739 91.1985 53.5583C90.8492 52.6342 90.5326 51.7692 90.2488 50.9632C89.965 50.1573 89.9081 49.3753 90.0782 48.6174C90.2799 47.851 90.7942 47.2383 91.621 46.7792L92.1026 47.0573C92.2416 46.8165 92.54 46.6008 92.9978 46.4103C93.4556 46.2198 93.8829 46.1053 94.2797 46.0669C94.6679 45.9967 95.1797 45.9444 95.815 45.9099C96.4735 45.8352 96.866 45.7809 96.9926 45.747C99.0799 45.5609 100.658 45.5622 101.726 45.7508C102.786 45.9079 103.883 46.3941 105.017 47.2096C104.384 47.3792 103.401 47.5071 102.067 47.5931C100.724 47.6475 99.5299 47.747 98.4832 47.8918C97.4596 47.9965 96.4341 48.2204 95.4066 48.5635C94.4023 48.8666 93.7 49.4109 93.3 50.1966C92.9315 50.9738 92.9443 51.9711 93.3384 53.1885C93.8234 54.6189 94.5134 56.1811 95.4082 57.8749C97.4124 56.9987 100.069 56.4056 103.378 56.0955C103.089 56.4104 102.674 56.7592 102.132 57.1418C101.622 57.516 101.15 57.8459 100.718 58.1313C100.277 58.3852 99.7067 58.7246 99.0064 59.1497C98.3378 59.5663 97.8622 59.8803 97.5796 60.0917C96.9744 60.4914 96.5971 60.9826 96.448 61.5653C96.2988 62.148 96.3429 62.8825 96.5804 63.7687C96.7076 64.2435 96.8919 64.8047 97.1333 65.4524C97.4064 66.0916 97.6381 66.6401 97.8287 67.0979C98.0107 67.5241 98.1421 68.0147 98.223 68.5697C98.3271 69.0846 98.3308 69.5415 98.2341 69.9406C97.2083 69.9101 96.4532 69.434 95.9687 68.5122C95.4758 67.5588 95.0794 66.2063 94.7797 64.4547C94.6672 63.9082 94.501 63.4778 94.2811 63.1636C94.0612 62.8494 93.8351 62.6386 93.6028 62.5312C93.362 62.3922 93.0452 62.2226 92.6524 62.0226C92.2596 61.8225 91.9258 61.5897 91.6511 61.3241C91.5307 61.2546 91.4335 61.1449 91.3594 60.9952C91.3085 60.8053 91.2661 60.647 91.2322 60.5204C91.1983 60.3938 91.1474 60.2039 91.0796 59.9507C91.0434 59.689 91.0125 59.5107 90.9871 59.4157C91.7784 59.2037 92.2624 58.9214 92.4393 58.5687ZM119.623 53.3711C119.392 52.3815 119.055 51.5049 118.613 50.7413C118.171 49.9778 117.59 49.455 116.87 49.173C116.141 48.8594 115.388 48.9595 114.61 49.4733C112.338 50.9979 110.574 52.8954 109.316 55.1659C108.891 55.8566 108.398 56.1073 107.839 55.9181C107.302 55.6886 106.941 55.2258 106.754 54.5294C106.61 53.9914 106.755 53.3928 107.189 52.7338C107.646 52.0346 108.165 51.4377 108.745 50.9431C109.316 50.4168 110.021 49.8208 110.861 49.1549C111.691 48.4574 112.244 47.9871 112.518 47.744C113.159 47.0974 113.648 46.644 113.985 46.384C114.354 46.1155 114.776 45.9177 115.251 45.7904C115.749 45.6231 116.301 45.5939 116.907 45.703C117.329 45.7595 117.755 46.0186 118.184 46.4803C120.804 49.1704 122.5 51.9556 123.272 54.8358C123.357 55.1523 123.903 55.9896 124.912 57.3477C125.943 58.6656 126.514 59.5303 126.625 59.9418C126.752 60.4165 126.741 60.9453 126.592 61.528C126.474 62.1023 126.226 62.4403 125.846 62.5421C125.362 62.6376 124.929 62.6012 124.544 62.4328C124.152 62.2328 123.838 62.0115 123.603 61.7691C123.392 61.4865 123.115 61.0858 122.772 60.567C122.372 60.8439 121.708 61.3439 120.783 62.0669C119.857 62.7899 119.123 63.3427 118.581 63.7254C118.062 64.0679 117.402 64.5162 116.601 65.0701C115.822 65.584 115.07 66.006 114.345 66.3361C113.651 66.6578 112.94 66.9161 112.212 67.1112C109.775 67.7642 107.856 67.3116 106.454 65.7535C106.16 65.2895 105.947 64.8718 105.813 64.5005C105.703 64.089 105.735 63.6394 105.91 63.1516C106.108 62.6237 106.327 62.1749 106.567 61.8053C106.798 61.404 107.109 60.9815 107.499 60.5377C107.921 60.0855 108.292 59.6978 108.612 59.3745C108.964 59.0427 109.341 58.7383 109.741 58.4613C111.686 56.8548 114.66 55.2946 118.664 53.7807C119.09 53.5986 119.41 53.4621 119.623 53.3711ZM108.862 64.2942C110.253 64.2947 111.554 64.1496 112.765 63.859C113.968 63.5367 115.14 63.0361 116.281 62.3572C117.454 61.6698 118.475 60.989 119.346 60.3146C120.209 59.6086 120.991 58.8562 121.693 58.0576C120.717 57.1997 119.447 56.8276 117.883 56.9413C116.342 57.0149 114.895 57.4367 113.54 58.2066C112.209 58.9364 111.069 59.8697 110.118 61.0064C109.167 62.1431 108.749 63.239 108.862 64.2942ZM130.479 57.6877C131.756 57.5152 133.001 57.0968 134.214 56.4326C135.45 55.7283 136.911 54.7261 138.598 53.426C140.277 52.0942 141.273 51.3184 141.588 51.0985C141.777 51.0476 142.083 50.7961 142.505 50.3439C142.95 49.8515 143.367 49.3835 143.757 48.9398C144.178 48.4876 144.653 48.1061 145.18 47.7951C145.739 47.4758 146.224 47.4477 146.633 47.7111C147.075 47.966 147.446 48.2737 147.746 48.6342C147.151 49.2006 146.435 49.8843 145.598 50.6853C144.761 51.4862 144.183 52.0484 143.862 52.3717C143.565 52.6549 143.131 53.0596 142.559 53.5858C142.011 54.072 141.475 54.538 140.949 54.984C140.416 55.3983 139.784 55.8898 139.055 56.4585C136.497 58.433 133.78 59.9411 130.904 60.9831C130.107 61.2985 129.446 61.2381 128.922 60.8018C128.39 60.3339 128.021 59.6525 127.815 58.7578C127.564 57.5698 127.579 56.2939 127.858 54.93C128.16 53.526 128.666 52.1862 129.376 50.9105C130.086 49.6348 130.841 48.4656 131.642 47.4029C132.442 46.3403 133.285 45.3684 134.168 44.4871C134.855 43.7602 135.538 43.4586 136.215 43.5824C136.925 43.6976 137.402 44.2141 137.648 45.132C137.758 45.5435 137.698 45.9498 137.466 46.3512C137.234 46.7525 136.95 47.0831 136.612 47.3432C136.275 47.6032 135.835 47.9245 135.293 48.3072C134.743 48.6583 134.369 48.9109 134.173 49.0652C133.193 49.8368 132.289 51.1476 131.462 52.9976C130.666 54.8391 130.339 56.4024 130.479 57.6877ZM153.102 54.6282C151.439 55.0059 150.366 54.2927 149.882 52.4886C149.764 52.0455 149.579 51.23 149.329 50.0419C149.07 48.8223 148.801 47.7577 148.524 46.8483C148.278 45.9305 148.035 45.2152 147.796 44.7026C147.591 44.3166 147.059 43.8487 146.199 43.2988C145.331 42.7173 144.889 42.2081 144.874 41.7712C144.878 41.5327 145.079 41.2074 145.477 40.7953C145.899 40.3431 146.054 39.9113 145.944 39.4998C145.901 38.8329 145.541 37.7421 144.864 36.2274C144.21 34.6726 143.97 33.6513 144.145 33.1635C144.227 32.8363 144.489 32.6133 144.932 32.4946C145.913 32.2317 146.766 33.0718 147.49 35.0148C148.16 37.0066 148.619 38.0877 148.868 38.2584C149.126 38.4607 149.498 38.5817 149.983 38.6212C150.469 38.6607 151.088 38.6304 151.841 38.5303C152.595 38.4302 153.217 38.3482 153.709 38.2843C154.232 38.2119 154.962 38.0844 155.896 37.9017C156.831 37.7191 157.394 37.6023 157.583 37.5514C154.814 39.2433 153.193 40.2204 152.721 40.4827C151.404 41.1407 150.634 41.6187 150.408 41.9165C149.949 42.4806 149.863 43.3008 150.151 44.3769C150.618 46.1176 151.063 47.525 151.486 48.5988C151.933 49.6325 152.522 50.6281 153.253 51.5854C153.662 51.3401 154.044 51.1191 154.399 50.9224C154.744 50.694 154.976 50.547 155.095 50.4815C155.236 50.3757 155.429 50.2731 155.674 50.1737C155.95 50.0657 156.326 49.9481 156.8 49.8209C156.911 50.741 156.578 51.7123 155.8 52.7348C155.014 53.7257 154.115 54.3568 153.102 54.6282ZM154.183 28.0314C154.592 27.7861 155.027 27.89 155.487 28.3433C155.971 28.7564 156.266 29.2879 156.373 29.9379C156.511 30.5794 156.319 31.0039 155.798 31.2114C155.159 31.4844 154.628 31.3383 154.205 30.7732C153.814 30.1995 153.587 29.4801 153.525 28.6147C153.506 28.4164 153.539 28.2886 153.626 28.2315C153.744 28.166 153.929 28.0992 154.183 28.0314ZM160.431 52.868C160.05 52.4611 159.743 51.9496 159.511 51.3336C159.309 50.709 159.188 50.1309 159.148 49.599C159.098 49.0355 158.999 48.3496 158.851 47.5414C158.734 46.7247 158.594 46.0157 158.433 45.4143C158.266 44.9164 158.13 43.9013 158.024 42.3691C157.919 40.8368 157.838 40.0275 157.781 39.941C157.755 39.846 157.643 39.5538 157.444 39.0644C157.277 38.5665 157.144 38.1951 157.044 37.9504C156.968 37.6656 156.879 37.3332 156.777 36.9534C156.707 36.5651 156.705 36.2433 156.773 35.9878C156.831 35.7007 156.963 35.4958 157.168 35.3731C157.659 35.3092 158.224 35.5818 158.862 36.1911C159.492 36.7687 159.857 37.4341 159.957 38.1875C160.088 38.4238 160.202 39.0379 160.298 40.0298C160.394 41.0217 160.454 42.0063 160.479 42.9835C160.526 43.9206 160.55 44.3892 160.55 44.3892C160.627 44.674 160.725 45.1055 160.846 45.6837C160.967 46.2619 161.063 46.7451 161.133 47.1334C161.203 47.5217 161.283 48.0092 161.372 48.5959C161.453 49.1509 161.481 49.6353 161.456 50.049C161.463 50.4542 161.438 50.868 161.382 51.2902C161.348 51.6723 161.251 52.0037 161.088 52.2847C160.918 52.5339 160.698 52.7284 160.431 52.868ZM168.268 49.8011C167.41 50.7773 166.602 51.1803 165.845 51.0103C165.078 50.8086 164.504 49.9956 164.122 48.5713C163.631 46.7356 164.1 44.1842 165.532 40.9172C166.955 37.6186 168.378 35.2698 169.801 33.8708C170.56 33.1586 171.089 32.7284 171.388 32.5803C171.679 32.4006 172.337 32.2584 173.36 32.1537C175.391 31.8811 176.692 32.9402 177.265 35.3309C177.541 36.6139 177.546 37.9014 177.282 39.1935C177.009 40.4539 176.492 41.627 175.732 42.7129C174.971 43.7987 174.122 44.8065 173.183 45.7363C172.268 46.626 171.226 47.4821 170.055 48.3046C170.055 48.3046 169.957 48.3817 169.761 48.5361C169.588 48.6502 169.365 48.8289 169.091 49.0719C168.84 49.2749 168.566 49.5179 168.268 49.8011ZM166.277 47.6886C167.632 47.4273 169.093 46.6119 170.66 45.2423C172.258 43.8642 173.531 42.2849 174.478 40.5044C175.426 38.724 175.671 37.2335 175.214 36.0331C174.998 35.4803 174.777 35.0986 174.551 34.8878C174.348 34.6368 174.041 34.5665 173.629 34.6767C173.186 34.7955 172.722 35.0894 172.237 35.5586C171.784 36.0192 171.238 36.6404 170.599 37.4222C169.961 38.2039 169.591 38.6592 169.49 38.7881C168.733 39.6354 168.017 41.0145 167.342 42.9255C166.658 44.8049 166.303 46.3926 166.277 47.6886ZM177.071 29.531C177.249 29.687 177.499 29.9252 177.823 30.2457C178.169 30.526 178.411 30.7325 178.548 30.8653C178.686 30.9982 178.844 31.2101 179.024 31.5012C179.204 31.7922 179.345 32.1276 179.446 32.5075C179.506 32.729 179.591 33.0455 179.701 33.457C179.834 33.8283 179.926 34.1089 179.977 34.2988C180.02 34.4571 180.099 34.6902 180.216 34.9982C180.323 35.2746 180.427 35.5351 180.527 35.7799C180.658 36.0161 180.793 36.2682 180.933 36.5361C180.988 36.4875 181.292 35.914 181.846 34.8158C182.4 33.7176 182.906 32.8864 183.366 32.3223C183.825 31.7582 184.308 31.4083 184.815 31.2726C185.163 31.1793 185.473 31.1979 185.745 31.3285C186.041 31.4189 186.257 31.5305 186.395 31.6633C186.532 31.7961 186.775 32.0702 187.124 32.4856C187.464 32.8693 188.069 34.115 188.939 36.2225C189.833 38.29 190.414 39.5082 190.682 39.8773C191.038 40.6979 192.841 40.91 196.094 40.5135C196.139 41.3155 195.782 42.0726 195.023 42.7848C194.264 43.4971 193.35 43.9456 192.28 44.1305C191.201 44.2838 190.327 44.0601 189.657 43.4593C188.85 42.7257 188.202 41.763 187.713 40.571C186.383 37.1279 185.593 35.2535 185.341 34.9478C182.536 38.2776 181.75 42.3723 182.985 47.2317C182.303 47.3465 181.713 47.2333 181.214 46.8919C180.748 46.5421 180.389 46.0275 180.139 45.3482C179.881 44.6372 179.679 43.9451 179.532 43.272C179.377 42.5672 179.228 41.7589 179.086 40.8473C178.967 39.8955 178.848 39.1981 178.729 38.755C178.534 38.027 178.122 36.9331 177.493 35.4732C176.896 34.0049 176.551 32.8423 176.457 31.9855C176.355 31.097 176.559 30.2788 177.071 29.531ZM213.848 38.8601C213.956 39.1365 213.972 39.3866 213.896 39.6104C213.812 39.8026 213.648 39.9484 213.403 40.0479C213.19 40.139 212.973 40.2141 212.751 40.2735C212.521 40.3012 212.259 40.3374 211.966 40.3821C211.664 40.3951 211.466 40.4144 211.371 40.4398C211.086 40.5161 210.651 40.6665 210.067 40.8909C209.514 41.1069 208.993 41.3144 208.504 41.5134C208.046 41.7039 207.797 41.7875 207.757 41.7644C207.092 41.9425 206.02 42.2466 204.541 42.6769C203.085 43.067 201.756 43.4232 200.553 43.7455C199.374 44.0276 198.407 44.2187 197.654 44.3188C196.495 44.4257 195.701 44.2483 195.272 43.7866C194.867 43.2847 194.854 42.5418 195.235 41.5577C196.113 41.2886 197.579 41.0652 199.635 40.8876C201.691 40.7099 203.288 40.4685 204.427 40.1632C205.44 39.8918 206.673 39.4935 208.127 38.9683C209.612 38.4346 210.703 38.0745 211.4 37.8879C212.033 37.7183 212.537 37.7019 212.913 37.8386C213.289 37.9754 213.6 38.3159 213.848 38.8601Z" fill="#FCFCFD"/>
</g>
</svg>
