<svg xmlns="http://www.w3.org/2000/svg" width="62" height="62" viewBox="0 0 62 62">
    <g fill="none" fill-rule="nonzero" stroke="#595959">
        <path fill="#FFF" d="M30.662 19.76c-4.999.019-9.372 3.373-10.711 8.218l-2.334 8.474a3.25 3.25 0 0 0 2.484 4.041l.934.235-.137.494-.694 2.501a.682.682 0 0 0 .107.596c.128.171.328.27.543.268h4.693v9.891c0 1.655 1.358 3.022 3 3.022.738 0 1.445-.285 1.996-.787l.337-.306.337.306a2.968 2.968 0 0 0 1.996.787c1.642 0 3-1.367 3-3.022v-9.891h4.7a.663.663 0 0 0 .536-.267.686.686 0 0 0 .105-.603l-.83-2.989.498-.125.459-.115c1.822-.373 2.959-2.233 2.462-4.036l-2.333-8.474c-1.344-4.86-5.737-8.217-10.748-8.217H30.662zM31 4.5c-3.574 0-6.5 2.944-6.5 6.543 0 3.6 2.926 6.544 6.5 6.544s6.5-2.944 6.5-6.544C37.5 7.444 34.574 4.5 31 4.5z"/>
        <path d="M40.917 42.152l-3.5-12.326M21.083 40.978L24 29.826M31 56.24V43.912M25.167 44.5h11.666"/>
    </g>
</svg>
