<svg xmlns="http://www.w3.org/2000/svg" width="62" height="62" viewBox="0 0 62 62">
    <g fill="none" fill-rule="nonzero" stroke="#595959">
        <path d="M45.5 39.729c2.138-.338 3.76-1.362 4.733-2.932 1.039-1.688 1.442-3.852 1.464-7.08a.761.761 0 0 0 .013-.129c0-1.691-1.393-3.088-3.077-3.088H45.5v13.229z"/>
        <path stroke-linecap="round" stroke-linejoin="round" d="M32.135 4c0 3.654-1.392 4.742-3.172 6.345C27.184 11.943 25 14.059 25 18.353m14.97-8.259c-.193 2.438-1.282 3.304-2.637 4.525-1.305 1.172-2.869 2.675-3.247 5.435"/>
        <path fill="#FFF" d="M14.5 23.5V40a9.5 9.5 0 0 0 9.5 9.5h12a9.5 9.5 0 0 0 9.5-9.5V23.5h-31zM9.5 49.5v.5a7.5 7.5 0 0 0 7.5 7.5h26a7.5 7.5 0 0 0 7.5-7.5v-.5h-41z"/>
    </g>
</svg>
