<svg xmlns="http://www.w3.org/2000/svg" width="62" height="62" viewBox="0 0 62 62">
    <g fill="none" fill-rule="nonzero" stroke="#595959">
        <g transform="rotate(-15 67.306 1.134)">
            <rect width="51" height="30" x=".5" y=".5" fill="#FFF" rx="2"/>
            <path d="M9.489 13.5c-1.64 0-2.989 1.354-2.989 3s1.35 3 2.989 3c1.64 0 2.989-1.354 2.989-3s-1.35-3-2.989-3zM43.489 13.5c-1.64 0-2.989 1.354-2.989 3s1.35 3 2.989 3c1.64 0 2.989-1.354 2.989-3s-1.35-3-2.989-3zM26.124 5.034c-5.14 0-9.304 4.685-9.304 10.427 0 5.743 4.164 10.428 9.304 10.428 5.14 0 9.303-4.685 9.303-10.428 0-5.742-4.163-10.427-9.303-10.427zM5.31 30.5H2A1.5 1.5 0 0 1 .5 29v-3.164c.249.137.354.192.502.26.319.144.644.282 1.024.436.192.078.801.32.895.358.377.151.77.38.802.412.015.016.246.421.417.817.45 1.045.606 1.381.928 1.954l.068.12c.032.054.032.054.065.114l.071.128.038.065zM5.31.5H2A1.5 1.5 0 0 0 .5 2v3.164c.249-.137.354-.192.502-.26a28.06 28.06 0 0 1 1.024-.436c.192-.078.801-.32.895-.358.377-.151.77-.38.802-.412.015-.016.246-.421.417-.817.45-1.045.606-1.381.928-1.954l.068-.12c.032-.054.032-.054.065-.114l.071-.128A7.04 7.04 0 0 1 5.31.5zM47.19 30.5H50a1.5 1.5 0 0 0 1.5-1.5v-2.904h-.002a28.06 28.06 0 0 1-1.024.436c-.192.078-.801.32-.895.358-.377.151-.77.38-.802.412a7.284 7.284 0 0 0-.417.817c-.45 1.045-.606 1.381-.928 1.954l-.068.12c-.032.054-.032.054-.065.114l-.071.128a7.039 7.039 0 0 1-.038.065zM47.19.5H50A1.5 1.5 0 0 1 51.5 2v2.904h-.002a28.06 28.06 0 0 0-1.024-.436c-.192-.078-.801-.32-.895-.358-.377-.151-.77-.38-.802-.412a7.284 7.284 0 0 1-.417-.817c-.45-1.045-.606-1.381-.928-1.954l-.068-.12c-.032-.054-.032-.054-.065-.114l-.071-.128A7.04 7.04 0 0 0 47.19.5z"/>
        </g>
        <g transform="translate(9 27)">
            <rect width="51" height="30" x=".5" y=".5" fill="#FFF" rx="2"/>
            <path d="M9.489 13.5c-1.64 0-2.989 1.354-2.989 3s1.35 3 2.989 3c1.64 0 2.989-1.354 2.989-3s-1.35-3-2.989-3zM43.489 13.5c-1.64 0-2.989 1.354-2.989 3s1.35 3 2.989 3c1.64 0 2.989-1.354 2.989-3s-1.35-3-2.989-3zM26.124 5.034c-5.14 0-9.304 4.685-9.304 10.427 0 5.743 4.164 10.428 9.304 10.428 5.14 0 9.303-4.685 9.303-10.428 0-5.742-4.163-10.427-9.303-10.427zM5.31 30.5H2A1.5 1.5 0 0 1 .5 29v-3.164c.249.137.354.192.502.26.319.144.644.282 1.024.436.192.078.801.32.895.358.377.151.77.38.802.412.015.016.246.421.417.817.45 1.045.606 1.381.928 1.954l.068.12c.032.054.032.054.065.114l.071.128.038.065zM5.31.5H2A1.5 1.5 0 0 0 .5 2v3.164c.249-.137.354-.192.502-.26a28.06 28.06 0 0 1 1.024-.436c.192-.078.801-.32.895-.358.377-.151.77-.38.802-.412.015-.016.246-.421.417-.817.45-1.045.606-1.381.928-1.954l.068-.12c.032-.054.032-.054.065-.114l.071-.128A7.04 7.04 0 0 1 5.31.5zM47.19 30.5H50a1.5 1.5 0 0 0 1.5-1.5v-2.904h-.002a28.06 28.06 0 0 1-1.024.436c-.192.078-.801.32-.895.358-.377.151-.77.38-.802.412a7.284 7.284 0 0 0-.417.817c-.45 1.045-.606 1.381-.928 1.954l-.068.12c-.032.054-.032.054-.065.114l-.071.128a7.039 7.039 0 0 1-.038.065zM47.19.5H50A1.5 1.5 0 0 1 51.5 2v2.904h-.002a28.06 28.06 0 0 0-1.024-.436c-.192-.078-.801-.32-.895-.358-.377-.151-.77-.38-.802-.412a7.284 7.284 0 0 1-.417-.817c-.45-1.045-.606-1.381-.928-1.954l-.068-.12c-.032-.054-.032-.054-.065-.114l-.071-.128A7.04 7.04 0 0 0 47.19.5z"/>
        </g>
    </g>
</svg>
