<svg xmlns="http://www.w3.org/2000/svg" width="62" height="62" viewBox="0 0 62 62">
    <g fill="none" fill-rule="nonzero" stroke="#595959" stroke-width=".929">
        <path d="M18.32 31.464c-2.288 0-4.128.568-5.41 1.646-1.232 1.038-1.91 2.582-1.91 4.293 0 .54.09 1.062.294 1.912.032.134.052.207.076.292l.003.01c.023.075.036.121.053.182l.055.197-.108.173c-.236.38-.373.852-.373 1.41 0 .795.21 1.421.604 1.817.045.045.079.059.234.091.155.033.225.051.327.091l.226.087.057.235c.21.85.322 1.216.513 1.577.169.318.346.598.53.836-.012-.016-.009-.013.008 0l.014.011a.834.834 0 0 1 .152.145l.103.127v1.89l-.043.195c-.213.464-.63.847-1.33 1.22a9 9 0 0 1-.315.16c-.363.176-1.98.866-2.376 1.05-1.228.572-2.078 1.12-2.78 1.88-.85.92-1.37 2.144-1.459 3.582-.01.18.053.355.175.486a.64.64 0 0 0 .467.203h23.245c.358 0 .648-.29.648-.648l-.001-.04c-.089-1.449-.69-2.697-1.663-3.615-.8-.754-1.751-1.288-3.159-1.86-.438-.179-2.208-.842-2.608-1.01-.168-.07-.321-.137-.462-.204-.783-.37-1.263-.765-1.473-1.205l-.045-.2v-1.886l.102-.127a.832.832 0 0 1 .152-.145l.015-.01c.016-.014.02-.017.007-.001.184-.237.36-.515.529-.834.192-.362.308-.739.515-1.577l.058-.235.224-.087c.103-.04.173-.058.328-.09.155-.033.19-.047.234-.092.393-.396.604-1.022.604-1.817 0-.558-.137-1.03-.373-1.41l-.108-.173.055-.197.052-.182.003-.01a5.76 5.76 0 0 0 .077-.292c.205-.85.294-1.372.294-1.912 0-1.198-.328-2.324-.99-3.21-.563-.752-1.535-1.268-2.732-1.453l-.217-.034-.111-.189-.435-.735a.642.642 0 0 0-.552-.318zm0 0zM43.391 31.464c-2.287 0-4.128.568-5.41 1.646-1.232 1.038-1.91 2.582-1.91 4.293 0 .54.09 1.062.294 1.912.033.134.052.207.077.292l.003.01.053.182.054.197-.107.173c-.237.38-.374.852-.374 1.41 0 .795.21 1.421.605 1.817.044.045.078.059.234.091.154.033.224.051.327.091l.225.087.058.235c.209.85.321 1.216.513 1.577.168.318.346.598.53.836-.012-.016-.01-.013.008 0 .006.006.006.006.014.011a.834.834 0 0 1 .152.145l.102.127v1.89l-.042.195c-.214.464-.63.847-1.33 1.22a9 9 0 0 1-.315.16c-.364.176-1.98.866-2.376 1.05-1.228.572-2.08 1.12-2.78 1.88-.85.92-1.371 2.144-1.46 3.582-.01.18.053.355.175.486a.64.64 0 0 0 .467.203h23.246c.357 0 .647-.29.647-.648l-.001-.04c-.089-1.449-.69-2.697-1.663-3.615-.8-.754-1.75-1.288-3.158-1.86-.438-.179-2.209-.842-2.609-1.01-.168-.07-.32-.137-.461-.204-.783-.37-1.263-.765-1.473-1.205l-.045-.2v-1.886l.102-.127a.832.832 0 0 1 .152-.145l.014-.01c.017-.014.02-.017.008-.001.183-.237.359-.515.528-.834.192-.362.308-.739.515-1.577l.058-.235.225-.087c.102-.04.173-.058.327-.09.156-.033.19-.047.234-.092.394-.396.604-1.022.604-1.817 0-.558-.136-1.03-.373-1.41l-.108-.173.055-.197c.017-.06.03-.107.053-.182l.003-.01a5.76 5.76 0 0 0 .076-.292c.205-.85.294-1.372.294-1.912 0-1.198-.327-2.324-.99-3.21-.562-.752-1.534-1.268-2.731-1.453l-.217-.034-.112-.189-.435-.735a.642.642 0 0 0-.552-.318zm0 0zM54.018 31.464c-.66 0-1.197.54-1.197 1.206 0 .667.537 1.206 1.197 1.206s1.196-.539 1.196-1.206c0-.666-.536-1.206-1.196-1.206zM8.875 22.154c-1.873 0-3.41 1.258-3.41 2.876 0 1.619 1.537 2.877 3.41 2.877 1.873 0 3.41-1.258 3.41-2.877 0-1.618-1.537-2.876-3.41-2.876zM52.875 22.464c-1.873 0-3.41 1.259-3.41 2.877 0 1.618 1.537 2.876 3.41 2.876 1.873 0 3.41-1.258 3.41-2.876 0-1.618-1.537-2.877-3.41-2.877zM23.375 4.464c-6.507 0-11.91 4.244-11.91 9.774 0 5.53 5.403 9.773 11.91 9.773 6.507 0 11.91-4.243 11.91-9.773 0-5.53-5.403-9.774-11.91-9.774z"/>
        <path fill="#FFF" d="M36.375 7.567c-6.507 0-11.91 4.244-11.91 9.774 0 5.53 5.403 9.773 11.91 9.773 6.507 0 11.91-4.243 11.91-9.773 0-5.53-5.403-9.774-11.91-9.774z"/>
        <path d="M6.66 31.464c-.66 0-1.196.54-1.196 1.206 0 .667.537 1.206 1.197 1.206s1.196-.539 1.196-1.206c0-.666-.536-1.206-1.196-1.206z"/>
    </g>
</svg>
