<svg xmlns="http://www.w3.org/2000/svg" width="62" height="62" viewBox="0 0 62 62">
    <g fill="none" fill-rule="nonzero" stroke="#595959" stroke-width="1.114">
        <path d="M39.817 55.01l-.037.516.555-.517h-.518zm-20.76-13.73a.95.95 0 0 0-.035.03 2.86 2.86 0 0 1-.019.025l.386.394.422.364.108-.126-.421-.364-.44-.323zm-3.42 13.73l.007.562.557-.563h-.564z"/>
        <path stroke-linecap="round" stroke-linejoin="round" d="M17.5 23c-1.333 0-2.333.167-3 .5-.667.333-1.125.981-1.375 1.944.371-.74.557-1.851.557-3.333 0-2.222 3.34-2.929 4.733-.555.928 1.582.464 3.619-1.392 6.11 4.454.371 6.867-1.296 7.238-5"/>
    </g>
</svg>
