<svg xmlns="http://www.w3.org/2000/svg" width="98" height="35" viewBox="0 0 98 35">
    <g fill="#FFF" fill-rule="nonzero" opacity=".5">
        <path d="M43.837 5.93h5.285v5.102h3.806v4.13h-3.796v6.704c0 1.634.52 1.945 2.277 1.945h1.519v4.17H49.54c-4.215 0-5.704-.803-5.704-4.852V5.93zM26.516 16.284c.45-4.58 4.775-5.693 8.37-5.693 5.115 0 7.743 1.944 7.643 6.865l-.07 3.709c-.028 2.275.062 4.55.27 6.815h-4.596l-.1-1.734c-1.208 1.564-3.076 2.155-5.464 2.155-4.285 0-6.643-2.606-6.643-5.723a4.266 4.266 0 0 1 1.629-3.578c1.698-1.323 4.495-1.664 7.192-1.944l2.697-.281v-.42c0-1.635-.999-2.256-2.937-2.256-1.698 0-2.937.621-2.996 2.155l-4.995-.07zm11.058 4.009l-2.767.28c-2.837.281-3.456.902-3.456 2.005 0 1.102.759 1.904 2.487 1.904 1.728 0 3.736-.932 3.736-3.257v-.932zm16.423-9.291h5.294V27.98h-5.294V11.002zm18.75 14.302a5.896 5.896 0 0 1-4.805 2.255c-4.465 0-7.602-2.806-7.602-8.499 0-5.693 3.346-8.4 7.842-8.4a5.586 5.586 0 0 1 4.535 2.086v-1.734H78v14.964c0 2.776-.759 4.85-2.247 6.274-1.489 1.423-3.707 2.145-6.573 2.145-5.085 0-7.642-2.776-8.302-6.014l4.805-.1c.55 1.493 1.698 2.005 3.457 2.005a4.145 4.145 0 0 0 2.627-.732 3.082 3.082 0 0 0 .999-2.536l-.02-1.714zm.24-6.244c0-2.846-1.559-4.13-3.627-4.13-2.067 0-3.626 1.284-3.626 4.16 0 2.566 1.519 4.2 3.626 4.2 2.108 0 3.626-1.634 3.626-4.23zM88.1 10.63c4.775 0 9.06 2.807 9.06 8.921 0 6.114-4.285 8.88-9.06 8.88-4.774 0-8.99-2.776-8.99-8.88 0-6.104 4.176-8.92 8.98-8.92h.01zm0 13.532c2.108 0 3.667-1.664 3.667-4.61 0-2.948-1.609-4.661-3.677-4.661-2.067 0-3.626 1.663-3.626 4.65s1.489 4.61 3.626 4.61l.01.01zm-72.083-3.077h9.14c.062-.55.085-1.102.07-1.654 0-6.104-4.285-8.92-9.06-8.92s-8.99 2.806-8.99 8.92a8.727 8.727 0 0 0 2.367 6.394l-3.546 2.486h10.239c3.926 0 7.512-1.874 8.67-5.943h-5.264a3.673 3.673 0 0 1-3.456 1.824c-1.868 0-3.636-1.003-3.666-3.087h3.496v-.02zm.22-6.796c1.868 0 3.636 1.002 3.666 3.087H12.52c.03-2.145 1.898-3.087 3.716-3.087z"/>
        <path d="M58.776 5.744v4.163l-5.273-4.163h5.273zm-41.388-2.99c-.775-1.612-2.394-2.67-4.206-2.75a4.917 4.917 0 0 0-4.44 2.368v.059c.192.26.343.546.448.85a3.118 3.118 0 0 0-.548-.674l-.05-.05a3.432 3.432 0 0 0-1.432-.761 3.633 3.633 0 0 0-.915-.118c-1.772-.011-3.23 1.368-3.284 3.108.003.474.123.94.349 1.358a3.152 3.152 0 0 0 1.273 1.29 3.75 3.75 0 0 1-.686-.322A3.552 3.552 0 0 1 2.96 6.3l-.099-.059A4.065 4.065 0 0 0 .663 7.835a3.672 3.672 0 0 0 .309 4.593l.169.176c.348.325.752.586 1.194.772a4.594 4.594 0 0 0 2.984.127 4.147 4.147 0 0 0 1.125-.489c-.247.346-.55.65-.896.9l.736 1.504a8.626 8.626 0 0 1 2.528-3.82 10.708 10.708 0 0 1 7.083-2.385h.269a42.28 42.28 0 0 1-.607-1.163l.16-.117c1.73-1.33 2.686-3.108 1.67-5.18z"/>
    </g>
</svg>
