<svg xmlns="http://www.w3.org/2000/svg" width="70" height="47" viewBox="0 0 70 47">
    <path fill="#8E8E8E" fill-rule="evenodd" d="M35.079 0l-.264.385-9.804 14.327-.638.934-7.094-10.368-.264-.385-.264.385-8.13 11.881L.495 29.04l-.338.494H70v-.002l-.337-.492-8.129-11.88-8.128-11.88-.264-.386-.264.385-7.095 10.369-.64-.935-9.8-14.327L35.078 0zM24.757 16.21L35.08 1.127l9.537 13.942.782 1.143.385.562 8.298 12.128H33.44l-.519-.759h19.594l-10.126-14.8-2.944-4.304-2.944 4.303-6.853 10.017-4.892-7.147zm21.412 0l6.973-10.192 7.864 11.496 7.791 11.387H54.852l-.52-.759H67.233l-8.398-12.274-2.44-3.569-2.442 3.57-4.008 5.858-3.775-5.516zM17.015 6.019L32.67 28.901H1.36L17.014 6.018zm5.693 9.85L20.266 12.3l-2.44 3.568-8.398 12.274h21.677l-8.397-12.274zM35.04 34.591l-4.852 5.722 5.291 6.366h-4.11l-4.09-5.242h-.03v5.242h-3.171V34.59h3.17v4.982h.031l3.835-4.982h3.926zm-23.004 5.631c.027-1.175.04-3.052.04-5.63h9.121v12.087h-3.17v-9.426h-2.943c0 2.092-.03 3.683-.092 4.77-.062 1.085-.226 2.008-.49 2.764-.267.754-.698 1.311-1.297 1.672-.597.361-1.43.541-2.504.541l-.323-2.663c.447 0 .78-.088.992-.267.213-.178.37-.57.472-1.175.1-.606.164-1.497.194-2.673zm44.23-.556c-.205.214-.458.347-.76.396-.304.051-.71.074-1.216.074h-.533v-3.012h.533c.532 0 .948.027 1.246.078.297.053.544.19.74.412.198.222.295.572.295 1.047 0 .458-.103.791-.304 1.005m1.508-4.65c.663.284 1.18.721 1.546 1.318.365.593.55 1.338.55 2.231 0 .708-.096 1.323-.285 1.838a3.14 3.14 0 0 1-.831 1.275 3.466 3.466 0 0 1-1.354.747c-.534.163-1.15.246-1.846.246h-1.798v4.008h-3.17V34.592h4.852c.891 0 1.67.14 2.336.423zm-49.26 2.513a6.377 6.377 0 0 1 .814 3.122c0 1.874-.652 3.399-1.957 4.566-.407.372-.86.692-1.356.962a6.64 6.64 0 0 1-1.561.613 6.674 6.674 0 0 1-1.657.207c-.429 0-.82-.04-1.176-.117A24.77 24.77 0 0 1 0 46.44v-3.766c.334.393.744.705 1.234.935.488.23.987.345 1.501.345.78 0 1.452-.2 2.01-.604.558-.4.936-.94 1.139-1.62H1.539v-2.472h4.22a3.095 3.095 0 0 0-1.152-1.416c-.52-.35-1.13-.527-1.825-.527a3.63 3.63 0 0 0-1.564.348c-.493.23-.9.558-1.218.984v-3.771c.99-.404 1.954-.607 2.898-.607a6.553 6.553 0 0 1 3.283.906c.5.293.954.644 1.353 1.047.383.393.712.828.98 1.308zm52.634-.276v-2.661h8.407v2.661h-2.62v9.426h-3.17v-9.426H61.15zm-20.025 4.92l1.312-3.849h.03l1.291 3.85h-2.633zm-.39-7.582L36.046 46.68h3.365l.84-2.101h4.363l.796 2.101h3.38l-4.592-12.088h-3.464z"/>
</svg>
