<svg xmlns="http://www.w3.org/2000/svg" width="142" height="29" viewBox="0 0 142 29">
    <g fill="#8E8E8E" fill-rule="evenodd">
        <path fill-rule="nonzero" d="M44.333 21.473l-5.024-6.741v6.384c0 .492-.19.913-.57 1.262-.38.35-.85.524-1.41.524-.561 0-1.031-.174-1.41-.524-.38-.349-.57-.77-.57-1.262V7.538c0-.492.19-.913.57-1.262.379-.35.849-.524 1.41-.524.56 0 1.03.174 1.41.524.38.35.57.77.57 1.262v5.717l4.974-6.431c.557-.715 1.196-1.072 1.918-1.072.557 0 .983.146 1.28.438.296.292.444.66.444 1.102 0 .49-.165.932-.495 1.327l-4.219 5.055 4.815 6.216c.264.316.396.696.396 1.138 0 .507-.168.946-.506 1.317-.337.371-.785.557-1.343.557-.426 0-.809-.107-1.145-.321-.336-.215-.702-.584-1.095-1.108M52.994 7.538c0-.492.19-.913.57-1.262.379-.35.849-.524 1.41-.524.56 0 1.03.174 1.41.524.38.349.57.77.57 1.262v13.578c0 .492-.19.913-.57 1.263-.38.348-.85.524-1.41.524-.561 0-1.031-.176-1.41-.524-.38-.35-.57-.77-.57-1.263V7.538zM73.782 9.777c-.28 0-.602-.063-.965-.19-.61-.207-1.296-.31-2.054-.31-1.403 0-2.562.445-3.477 1.334-.916.89-1.374 2.128-1.374 3.716 0 1.477.487 2.688 1.46 3.633.974.945 2.236 1.417 3.787 1.417.709 0 1.369-.111 1.98-.333a3.116 3.116 0 0 1 1.163-.239c.66 0 1.138.278 1.435.834.148.286.223.564.223.834 0 .699-.405 1.247-1.213 1.643-1.105.556-2.425.834-3.96.834-2.689 0-4.875-.79-6.558-2.37-1.682-1.58-2.524-3.664-2.524-6.253 0-2.509.792-4.574 2.376-6.193 1.584-1.62 3.811-2.43 6.682-2.43 1.419 0 2.573.222 3.465.667.874.445 1.311.993 1.311 1.644 0 .301-.083.603-.247.905-.347.571-.85.857-1.51.857M88.977 21.473l-5.024-6.741v6.384c0 .492-.19.913-.569 1.262-.38.35-.85.524-1.41.524-.562 0-1.032-.174-1.411-.524-.38-.349-.57-.77-.57-1.262V7.538c0-.492.19-.913.57-1.262.38-.35.85-.524 1.41-.524.561 0 1.031.174 1.411.524.38.35.57.77.57 1.262v5.717l4.974-6.431c.557-.715 1.196-1.072 1.917-1.072.558 0 .984.146 1.28.438.296.292.445.66.445 1.102 0 .49-.166.932-.496 1.327l-4.218 5.055 4.815 6.216c.264.316.396.696.396 1.138 0 .507-.169.946-.506 1.317-.337.371-.785.557-1.343.557-.427 0-.81-.107-1.145-.321-.337-.215-.702-.584-1.096-1.108M97.639 7.538c0-.492.189-.913.569-1.262.38-.35.85-.524 1.41-.524.561 0 1.031.174 1.411.524.38.349.57.77.57 1.262v13.578c0 .492-.19.913-.57 1.263-.38.348-.85.524-1.41.524-.562 0-1.032-.176-1.411-.524-.38-.35-.57-.77-.57-1.263V7.538z"/>
        <path d="M97.639 7.538c0-.492.189-.913.569-1.262.38-.35.85-.524 1.41-.524.561 0 1.031.174 1.411.524.38.349.57.77.57 1.262v13.578c0 .492-.19.913-.57 1.263-.38.348-.85.524-1.41.524-.562 0-1.032-.176-1.411-.524-.38-.35-.57-.77-.57-1.263V7.538z"/>
        <path fill-rule="nonzero" d="M118.427 9.777c-.281 0-.603-.063-.966-.19-.61-.207-1.295-.31-2.054-.31-1.402 0-2.561.445-3.477 1.334-.915.89-1.373 2.128-1.373 3.716 0 1.477.486 2.688 1.46 3.633.973.945 2.235 1.417 3.786 1.417.71 0 1.37-.111 1.98-.333a3.116 3.116 0 0 1 1.163-.239c.66 0 1.139.278 1.436.834.148.286.222.564.222.834 0 .699-.404 1.247-1.212 1.643-1.106.556-2.426.834-3.96.834-2.69 0-4.875-.79-6.558-2.37-1.683-1.58-2.524-3.664-2.524-6.253 0-2.509.791-4.574 2.375-6.193 1.584-1.62 3.812-2.43 6.682-2.43 1.42 0 2.574.222 3.465.667.874.445 1.312.993 1.312 1.644 0 .301-.083.603-.248.905-.346.571-.85.857-1.51.857"/>
        <path d="M118.427 9.777c-.281 0-.603-.063-.966-.19-.61-.207-1.295-.31-2.054-.31-1.402 0-2.561.445-3.477 1.334-.915.89-1.373 2.128-1.373 3.716 0 1.477.486 2.688 1.46 3.633.973.945 2.235 1.417 3.786 1.417.71 0 1.37-.111 1.98-.333a3.116 3.116 0 0 1 1.163-.239c.66 0 1.139.278 1.436.834.148.286.222.564.222.834 0 .699-.404 1.247-1.212 1.643-1.106.556-2.426.834-3.96.834-2.69 0-4.875-.79-6.558-2.37-1.683-1.58-2.524-3.664-2.524-6.253 0-2.509.791-4.574 2.375-6.193 1.584-1.62 3.812-2.43 6.682-2.43 1.42 0 2.574.222 3.465.667.874.445 1.312.993 1.312 1.644 0 .301-.083.603-.248.905-.346.571-.85.857-1.51.857"/>
        <path fill-rule="nonzero" d="M131.865 9.277c-1.452 0-2.648.464-3.589 1.394-.94.929-1.41 2.147-1.41 3.656 0 1.43.486 2.629 1.46 3.597.973.969 2.153 1.453 3.539 1.453 1.583 0 2.812-.472 3.687-1.417.874-.945 1.312-2.156 1.312-3.633 0-1.493-.48-2.708-1.436-3.645-.957-.937-2.145-1.405-3.563-1.405m0 13.673c-2.69 0-4.897-.786-6.62-2.358-1.725-1.572-2.587-3.66-2.587-6.265 0-2.461.854-4.514 2.562-6.158 1.707-1.643 3.922-2.465 6.645-2.465 2.689 0 4.895.786 6.62 2.358 1.724 1.572 2.586 3.66 2.586 6.265 0 2.51-.87 4.573-2.611 6.193-1.741 1.62-3.94 2.43-6.595 2.43"/>
        <path d="M131.865 9.277c-1.452 0-2.648.464-3.589 1.394-.94.929-1.41 2.147-1.41 3.656 0 1.43.486 2.629 1.46 3.597.973.969 2.153 1.453 3.539 1.453 1.583 0 2.812-.472 3.687-1.417.874-.945 1.312-2.156 1.312-3.633 0-1.493-.48-2.708-1.436-3.645-.957-.937-2.145-1.405-3.563-1.405m0 13.673c-2.69 0-4.897-.786-6.62-2.358-1.725-1.572-2.587-3.66-2.587-6.265 0-2.461.854-4.514 2.562-6.158 1.707-1.643 3.922-2.465 6.645-2.465 2.689 0 4.895.786 6.62 2.358 1.724 1.572 2.586 3.66 2.586 6.265 0 2.51-.87 4.573-2.611 6.193-1.741 1.62-3.94 2.43-6.595 2.43"/>
        <path fill-rule="nonzero" d="M14.023 2.222c-3.23 0-6.266 1.252-8.55 3.525a11.933 11.933 0 0 0-3.54 8.512c0 3.216 1.257 6.239 3.54 8.512a12.04 12.04 0 0 0 8.55 3.526 12.04 12.04 0 0 0 8.55-3.526 11.933 11.933 0 0 0 3.54-8.512c0-3.215-1.257-6.238-3.54-8.512a12.038 12.038 0 0 0-8.55-3.525m0 25.999c-1.893 0-3.73-.37-5.459-1.098a13.978 13.978 0 0 1-4.457-2.991 13.911 13.911 0 0 1-3.005-4.438A13.823 13.823 0 0 1 0 14.26c0-1.884.37-3.713 1.102-5.434a13.908 13.908 0 0 1 3.005-4.438 13.979 13.979 0 0 1 4.457-2.992A13.99 13.99 0 0 1 14.023.298c1.892 0 3.73.369 5.459 1.097 1.67.703 3.17 1.71 4.457 2.992a13.908 13.908 0 0 1 3.004 4.438 13.821 13.821 0 0 1 1.103 5.434c0 1.885-.371 3.713-1.103 5.435a13.911 13.911 0 0 1-3.004 4.438 13.978 13.978 0 0 1-4.457 2.991 13.99 13.99 0 0 1-5.46 1.098"/>
        <path fill-rule="nonzero" d="M16.018 13.893a.967.967 0 0 1-.84-.484.96.96 0 0 1 .36-1.313L23.87 7.35a.969.969 0 0 1 1.319.357.96.96 0 0 1-.36 1.313l-8.332 4.746a.967.967 0 0 1-.479.127"/>
        <path fill-rule="nonzero" d="M16.017 13.893h-.002a.964.964 0 0 1-.964-.965l.015-5.566a.964.964 0 0 1 .966-.96h.003a.964.964 0 0 1 .963.965l-.015 5.567a.964.964 0 0 1-.966.96"/>
        <path fill-rule="nonzero" d="M20.853 16.494a.963.963 0 0 1-.458-.116l-4.837-2.6a.96.96 0 0 1-.39-1.304.968.968 0 0 1 1.308-.39l4.837 2.601a.96.96 0 0 1 .391 1.304.967.967 0 0 1-.851.505M14.038 27.897a.964.964 0 0 1-.966-.959l-.03-10.648a.964.964 0 0 1 .963-.965h.002c.533 0 .965.428.967.958l.03 10.65a.964.964 0 0 1-.963.964h-.003z"/>
        <path fill-rule="nonzero" d="M9.174 20.045a.967.967 0 0 1-.836-.479.96.96 0 0 1 .35-1.314l4.834-2.797a.97.97 0 0 1 1.321.348.96.96 0 0 1-.35 1.315L9.66 19.915a.966.966 0 0 1-.485.13"/>
        <path fill-rule="nonzero" d="M18.664 20.206a.963.963 0 0 1-.519-.15l-4.657-2.958a.96.96 0 0 1-.295-1.329.969.969 0 0 1 1.334-.294l4.657 2.958a.96.96 0 0 1 .295 1.329.967.967 0 0 1-.815.444M12.914 13.409a.96.96 0 0 0-.36-1.313L3.68 7.058a.968.968 0 0 0-1.318.358.96.96 0 0 0 .359 1.312l8.875 5.038a.967.967 0 0 0 1.319-.357z"/>
        <path fill-rule="nonzero" d="M12.075 13.893h.003a.964.964 0 0 0 .963-.965l-.015-5.566a.964.964 0 0 0-.966-.96h-.002a.964.964 0 0 0-.964.965l.015 5.567c0 .53.433.96.966.96"/>
        <path fill-rule="nonzero" d="M7.24 16.494a.963.963 0 0 0 .457-.116l4.837-2.6a.96.96 0 0 0 .391-1.304.968.968 0 0 0-1.31-.39L6.78 14.686a.96.96 0 0 0-.39 1.304.967.967 0 0 0 .85.505"/>
    </g>
</svg>
