<svg xmlns="http://www.w3.org/2000/svg" width="194" height="21" viewBox="0 0 194 21">
    <path fill="#FFF" fill-rule="nonzero" d="M187.235 19.704v-.416s1.965.102 1.673-2.023a4.518 4.518 0 0 0-.142-.683l-1.13-3.233-.334-.924h-6.037l-.334.924-1.079 3.131a3.049 3.049 0 0 0-.067 1.524c.385 1.395 2.158 1.293 2.158 1.293v.416h-4.792v-.416s1.029-.055 1.873-1.847l2.224-6.466 2.76-7.935.376-1.191.31-.841.836-.416s5.635 16.193 5.677 16.304c.15.427.343.833.577 1.21.226.362.51.675.836.924.111.075.233.128.36.157h.142v.415l-5.887.093zm-.434-8.73l-2.509-7.269v.083l-2.508 7.205-.335.924h5.703l-.351-.942zm-19.232 8.36s1.605.083 1.965-1.367c.046-.17.072-.348.075-.526V2.78a3.15 3.15 0 0 0-.05-.47c-.335-1.525-1.99-1.442-1.99-1.442V.481h6.23v.37s-1.673-.074-1.99 1.44a3.385 3.385 0 0 0-.051.472v14.705c.1 1.968 2.065 1.848 2.065 1.848v.37h-6.254v-.352zM161.94 2.707v11.769h-.56L153.145.48h2.567l5.67 9.69V2.717c-.101-1.95-2.234-1.848-2.234-1.848V.481h4.767v.37s-1.907-.102-2.007 1.866l.033-.01zm-.836 16.988h-.56L150.15 2.033v15.38c-.007.159.01.318.05.471.31 1.524 1.982 1.45 1.982 1.45v.37h-4.574v-.37s1.673.083 2.015-1.468a3.13 3.13 0 0 0 .05-.472V2.615c0-1.847-2.056-1.737-2.056-1.737V.481h4.18l9.299 15.805.008 3.409zm-22.953-.416s1.965.101 1.673-2.023a2.823 2.823 0 0 0-.168-.684l-1.128-3.233-.31-.923h-6.104l-.31.923-1.078 3.132a3.048 3.048 0 0 0-.075 1.524c.36 1.395 2.157 1.293 2.157 1.293v.416h-4.791v-.416s1.028-.055 1.873-1.847l2.224-6.466 2.751-7.935-.552-1.607a1.928 1.928 0 0 0-.644-.924l2.902.683c2.634 7.575 5.1 14.697 5.084 14.67.435 1.154.836 2.549 1.873 3.232.11.075.232.128.36.157h.116v.416h-5.853v-.388zm-.435-8.314l-2.508-7.279v.084l-2.509 7.205-.309.923h5.577l-.25-.933zm-15-9.32a1.755 1.755 0 0 0-.26.656c-.04.153-.057.312-.05.471v15.823c-.007.16.01.318.05.471.048.227.136.44.26.629l-2.509-1.71V2.006l-5.97 17.699h-.452l-6.238-17.8v15.805c.243 1.708 2.04 1.635 2.04 1.635v.369h-4.573v-.37s1.672.084 2.015-1.468a3.06 3.06 0 0 0 0-.471V2.624c-.084-1.847-1.999-1.69-1.999-1.69V.48h4.34l5.56 15.777L120.25.555h4.18v.37c-.637-.04-1.26.222-1.713.72zM93.752 20.332c-4.315 0-7.81-4.526-7.81-10.069 0-5.542 3.528-10.068 7.81-10.068 4.28 0 7.81 4.498 7.81 10.068 0 5.57-3.496 10.069-7.81 10.069zm0-19.722c-3.07 0-5.561 4.259-5.561 9.515s2.509 9.514 5.56 9.514c3.053 0 5.586-4.258 5.586-9.514 0-5.256-2.492-9.505-5.585-9.505V.61zM78.6 1.008h-1.906v17.55c.002.395.11.78.309 1.109l-2.508-1.709V1.008h-1.832c-2.901 0-3.344 2.77-3.344 5.182h-.577V.48h13.73V6.19h-.577c0-2.42-.435-5.182-3.295-5.182zM62.872 2.717v16.987h-.552L51.918 2.033v15.38c.005.158.022.316.05.471.335 1.524 2.015 1.45 2.015 1.45v.37h-4.582v-.37s1.672.083 2.015-1.468a2.601 2.601 0 0 0 0-.444V2.642c0-1.847-2.04-1.708-2.04-1.708V.48h4.18l8.83 14.992V2.781C62.287.814 60.155.934 60.155.934V.48h4.766v.37s-1.956-.074-2.048 1.866zM32.77 19.344s2.04.064 2.04-1.783V2.717c0-1.95-2.057-1.848-2.057-1.848V.481h12.216v4.84h-.568c0-2.42-.46-4.313-3.345-4.313h-2.049c-1.22 0-2.04.582-2.04 1.625v7.122h1.672c2.04-.074 2.333-1.782 2.333-3.51h.435v7.52h-.435c0-1.737-.242-3.39-2.182-3.474h-1.823v7.27c0 1.736 1.99 1.607 2.04 1.607h2.66c2.876 0 3.344-2.42 3.344-4.84h.577v5.394H32.753l.017-.378zm-5.653-1.026c-1.23 1.162-2.788 1.815-4.407 1.848h-.075c-5.853 0-7.885-5.367-7.885-9.672C14.75.334 22.276.14 22.276.14h.46C24.292.155 25.798.761 27 1.858a.875.875 0 0 0 .192.129c1.13.425 1.104-1.524 1.104-1.524h.527l-.075 3.417v2.772h-.569v-.047c0-.37-.075-.739-.117-1.108a8.071 8.071 0 0 0-.552-1.847 8.84 8.84 0 0 0-.334-.629A4.614 4.614 0 0 0 25.21 1.23a5.343 5.343 0 0 0-2.509-.628 4.16 4.16 0 0 0-1.513.213c-.837.286-3.345 1.653-3.88 7.833a15.63 15.63 0 0 0 .602 5.865c0 .102.075.185.092.287.216.638.479 1.256.786 1.847a6.568 6.568 0 0 0 1.195 1.626 4.526 4.526 0 0 0 1.673 1.053 4.134 4.134 0 0 0 2.4 0 8.464 8.464 0 0 0 1.22-.471 5.227 5.227 0 0 0 1.13-.739c1.672-1.552 1.797-5.025 1.797-5.025h.644v3.104l.05 3.417h-.468s-.109-2.355-1.33-1.302l.017.01zm-16.247-5.69c.023.35.023.703 0 1.053l-2.107-1.45c-.811-1.543-2.793-2.864-4.582-3.907-1.311-.76-2.174-2.212-2.283-3.843a5.053 5.053 0 0 1 .335-2.31 3.673 3.673 0 0 1 1.58-1.69c.5-.25 1.034-.408 1.58-.47.184-.014.368-.014.552 0h.05c.34-.002.678.05 1.004.156.488.136.95.367 1.363.684.31.212.786.582 1.078.157a1.71 1.71 0 0 0 .243-.582l.05-.314h.41l-.05 4.812H9.64a8.491 8.491 0 0 0-.31-1.552 5.671 5.671 0 0 0-.744-1.607 5.218 5.218 0 0 0-.602-.683A2.805 2.805 0 0 0 7.05.638 2.647 2.647 0 0 0 4.54.897a3.535 3.535 0 0 0-.769.84S1.898 4.63 6.564 7.113c2.826 1.525 4.306 3.603 4.306 5.515zM.092 7.271v-.795L2.375 8A7.295 7.295 0 0 0 4.79 9.922c2.801 1.496 4.315 3.574 4.315 5.496.005.409-.029.818-.1 1.219-.206.979-.733 1.838-1.48 2.411a4.248 4.248 0 0 1-1.965.813 4.55 4.55 0 0 1-1.464.074 4.485 4.485 0 0 1-1.438-.37 5.483 5.483 0 0 1-.669-.342c-.2-.171-.416-.32-.644-.443a.472.472 0 0 0-.602 0 1.48 1.48 0 0 0-.292.628 1.661 1.661 0 0 0-.05.342H0v-5.625h.502v.129c.03.782.168 1.555.41 2.29a6.15 6.15 0 0 0 .76 1.58c.185.254.395.484.627.684.244.229.53.399.837.499l.602.157c.442.092.895.092 1.338 0 1.169-.327 2.017-1.443 2.107-2.772.31-2.235-2.509-4.1-4.792-5.542C1.064 10.39.193 8.92.092 7.27z" opacity=".5"/>
</svg>
