<svg xmlns="http://www.w3.org/2000/svg" width="69" height="46" viewBox="0 0 69 46">
    <path fill="#8E8E8E" fill-rule="evenodd" d="M62.62 40.022h2.57l1.872 3.847v-2.788h-.699v-1.059H69v1.06h-.87v4.507h-1.399l-2.277-4.517v3.46h.793v1.057H62.61v-1.058h.785v-3.45h-.775v-1.059zM.519 36.147L.25 34.028l1.552-.194.15 1.075a5.396 5.396 0 0 0 1.745.283c.607 0 1.108-.104 1.5-.313.393-.209.59-.508.59-.896a.98.98 0 0 0-.313-.753c-.21-.194-.607-.34-1.194-.44l-1.06-.195C1.34 32.257.4 31.377.4 29.954c0-.876.345-1.542 1.037-2 .691-.458 1.55-.687 2.574-.687 1.005 0 1.93.195 2.776.582l.298 2.314-1.686.179-.194-1.388a4.182 4.182 0 0 0-1.268-.21c-.558 0-.998.098-1.321.292-.324.194-.485.445-.485.753 0 .329.114.585.343.77.229.183.637.325 1.223.425l1.03.179c.975.15 1.677.435 2.105.858.427.423.642.997.642 1.724 0 1.104-.361 1.875-1.082 2.313-.722.438-1.57.656-2.545.656-1.264 0-2.373-.189-3.328-.567zm8.193-8.551l3.955.015v1.656h-.82v1.85h3.566v-1.85h-.82v-1.671h3.954v1.671h-1.209v5.448h1.21v1.671h-3.926v-1.671h.791v-1.926h-3.567v1.926h.791v1.671H8.712v-1.671h1.209v-5.448H8.712v-1.671zm13.716 2.067c-.408.522-.612 1.296-.612 2.32 0 1.026.206 1.801.62 2.329.412.527 1.022.79 1.827.79.816 0 1.43-.263 1.843-.79.413-.528.62-1.303.62-2.329 0-1.024-.207-1.798-.62-2.32-.412-.523-1.027-.784-1.843-.784-.815 0-1.427.261-1.835.784m4.156-1.85c.672.362 1.194.9 1.567 1.611s.56 1.565.56 2.56c0 .995-.187 1.848-.56 2.559a3.83 3.83 0 0 1-1.56 1.62c-.666.368-1.442.552-2.328.552-.875 0-1.646-.184-2.313-.552-.667-.368-1.19-.909-1.567-1.62-.378-.711-.567-1.564-.567-2.56 0-.994.186-1.848.56-2.559.373-.711.892-1.249 1.56-1.612.666-.363 1.437-.545 2.312-.545.886 0 1.665.182 2.336.545zm2.41-.217h4.194v1.671h-.776l.761 3.283.388 1.896.343-1.896 1.03-3.85h2.388l1.045 3.85.343 1.896.328-1.896.746-3.283h-.925v-1.671h3.97v1.671h-.94l-2.269 7.12h-2.238l-.836-3.94-.403-1.866-.448 1.775-1 4.03h-2.238l-2.24-7.119h-1.223v-1.671zm18.073 0h4.18l1.805 5.104 1.567-5.104h4.269v1.671h-1.21v5.448h1.21v1.671h-4.09v-1.671h.955v-5.82l-.581 2.014-1.493 4.418h-1.254l-1.79-4.657-.568-1.642v5.687h.985v1.671h-3.985v-1.671h1.21v-5.448h-1.21v-1.671zm13.119 0h6.82l.926 2.761-1.582.537-.552-1.627H63.32v1.836h2.433v1.657H63.32v1.955h2.88l.523-1.463 1.567.552-.895 2.582H60.17v-1.671h1.209l.015-5.448h-1.209v-1.671zM0 40.022h2.495v1.06h-.52v1.237h.643l.908-1.238h-.388v-1.059h2.505v1.06h-.889L3.497 42.64l1.428 1.89h.954v1.058H2.996v-1.058h.624l-.888-1.19h-.757v1.19h.52v1.058H0v-1.058h.766v-3.45H0v-1.059zm7.269 0h2.684v1.06H9.3l1.134 1.52 1.087-1.52h-.596v-1.06h2.515v1.06h-.69l-1.749 2.324v1.135h.889v1.048H8.904v-1.048h.898v-1.135l-1.815-2.325h-.718v-1.059zm10.16 2.704c.398 0 .673-.06.827-.18.155-.12.232-.334.232-.643 0-.308-.086-.523-.26-.642-.173-.12-.44-.18-.798-.18h-.454v1.645h.454zm2.864 1.805v1.059h-1.691l-.984-1.815h-.652v.756h.454v1.059h-2.43v-1.06h.757v-3.45h-.756v-1.058h2.495c.845 0 1.432.16 1.763.478.33.318.496.786.496 1.403 0 .889-.334 1.462-1.002 1.72l.568.908h.982zm5.606 1.073c-.315.129-.697.194-1.144.194-.573 0-1.08-.125-1.522-.374a2.586 2.586 0 0 1-1.025-1.049c-.243-.45-.364-.972-.364-1.564 0-.599.116-1.123.35-1.574.232-.45.57-.799 1.01-1.044.442-.246.965-.37 1.57-.37.372 0 .72.051 1.044.152.325.101.61.24.856.416l.312 1.361-.993.255-.227-.983a2.09 2.09 0 0 0-.964-.208 1.52 1.52 0 0 0-.841.251 1.779 1.779 0 0 0-.619.704c-.154.303-.232.65-.232 1.04 0 .58.15 1.047.45 1.403.299.356.69.534 1.176.534.315 0 .652-.075 1.012-.226v-.899h-1.21v-.945h2.372v2.345c-.359.258-.696.452-1.011.58zm2.542-5.582h2.685v1.06h-.652l1.134 1.52 1.087-1.52h-.596v-1.06h2.515v1.06h-.69l-1.75 2.324v1.135h.89v1.048h-2.988v-1.048h.898v-1.135l-1.814-2.325h-.719v-1.059zm7.911 0h4.301v.757l-2.817 3.752h1.768l.322-.88 1.01.341-.547 1.597H36.22v-.84l2.77-3.668h-1.702l-.17.813-1.058-.151.292-1.72zm6.542 5.416l-.17-1.342.983-.123.094.681c.353.12.722.18 1.106.18.384 0 .7-.066.95-.199.248-.132.373-.321.373-.567a.623.623 0 0 0-.198-.478c-.133-.123-.385-.215-.756-.278l-.672-.123c-1.19-.214-1.786-.772-1.786-1.673 0-.555.219-.977.657-1.267.438-.29.981-.434 1.63-.434a4.16 4.16 0 0 1 1.758.368l.19 1.465-1.069.113-.122-.879a2.65 2.65 0 0 0-.804-.132c-.353 0-.632.062-.837.184-.204.123-.307.282-.307.478 0 .208.073.37.218.487.145.116.403.206.775.269l.652.113c.617.095 1.062.276 1.333.544.27.268.406.632.406 1.092 0 .699-.228 1.188-.685 1.465-.457.277-.994.416-1.612.416-.8 0-1.503-.12-2.107-.36zm5.84-5.416h5.096v2.014h-1.06v-.955h-.878v3.45h.765v1.058h-2.769v-1.058h.775v-3.45h-.87v.955h-1.058v-2.014zm8.48 2.93h1.275l-.633-1.805-.643 1.806zm-2.562 2.638V44.53h.936l1.38-3.45h-.738v-1.059H58.5l1.749 4.51h.831v1.058h-2.505V44.53h.464l-.284-.804H56.93l-.284.804h.52v1.059h-2.514zM17.255 18.839a9.05 9.05 0 0 1-1.15-.785 9.237 9.237 0 0 1-2.896-4.005 9.164 9.164 0 0 1-.558-3.153c0-5.05 4.108-9.156 9.156-9.156 5.05 0 9.157 4.106 9.157 9.156 0 1.386-.31 2.701-.865 3.88a9.156 9.156 0 0 1-12.845 4.063m17.719-17.1c.714 0 1.295.582 1.295 1.296 0 .715-.581 1.296-1.295 1.296a1.297 1.297 0 0 1-1.296-1.296c0-.714.581-1.295 1.296-1.295m13.165 0c5.05 0 9.156 4.106 9.156 9.156A9.174 9.174 0 0 1 55.737 16a9.156 9.156 0 0 1-7.6 4.053 9.108 9.108 0 0 1-5.702-2 9.239 9.239 0 0 1-2.896-4.005 9.173 9.173 0 0 1-.558-3.152c0-5.05 4.109-9.156 9.157-9.156M30.384 16.977a10.45 10.45 0 0 0 1.937-6.08c0-1.466-.302-2.86-.843-4.127l2.272-1.394c.367.192.78.311 1.223.311.444 0 .856-.12 1.224-.313l2.27 1.395a10.477 10.477 0 0 0-.843 4.127 10.445 10.445 0 0 0 1.53 5.464 10.576 10.576 0 0 0 3.397 3.442 10.452 10.452 0 0 0 5.587 1.607 10.496 10.496 0 0 0 9.306-5.62 10.449 10.449 0 0 0 1.207-4.893C58.65 5.09 53.944.383 48.138.383c-3.368 0-6.359 1.59-8.283 4.054l-2.234-1.371c0-.01.003-.02.003-.031a2.652 2.652 0 0 0-5.303 0c0 .012.003.021.003.033l-2.233 1.37C28.167 1.974 25.176.383 21.807.383c-5.806 0-10.513 4.707-10.513 10.513a10.504 10.504 0 0 0 10.513 10.513c3.54 0 6.673-1.75 8.577-4.432m-11.06-.068l5.69-5.302 2.469 2.469a6.512 6.512 0 0 1-5.676 3.327c-.88 0-1.717-.175-2.484-.494m-3.53-3.532l3.137-3.154 2.691 2.693-3.55 3.304a6.536 6.536 0 0 1-2.278-2.843m-.492-2.481a6.515 6.515 0 0 1 6.506-6.508 6.516 6.516 0 0 1 6.509 6.508c0 .636-.092 1.252-.264 1.833l-3.006-3.006-2.432 2.267-3.687-3.688-3.553 3.571a6.67 6.67 0 0 1-.073-.977m13.174 4.171a7.812 7.812 0 0 0 1.197-4.171 7.864 7.864 0 1 0-15.437 2.122c.133.483.313.946.534 1.387a7.915 7.915 0 0 0 2.29 2.76c.373.281.77.532 1.191.744a7.811 7.811 0 0 0 3.557.85 7.861 7.861 0 0 0 6.668-3.692M48.138 4.388a6.516 6.516 0 0 1 6.245 8.341l-3.006-3.006-2.432 2.267-3.688-3.688-3.553 3.57a6.514 6.514 0 0 1 6.433-7.485m0 13.015c-.88 0-1.717-.174-2.483-.493l5.69-5.302 2.469 2.468a6.51 6.51 0 0 1-5.675 3.327m-6.015-4.025l3.137-3.154 2.691 2.693-3.549 3.305a6.54 6.54 0 0 1-2.279-2.844m-1.558-.36c.134.483.314.947.534 1.387a7.909 7.909 0 0 0 2.29 2.761c.374.281.77.533 1.191.744a7.813 7.813 0 0 0 3.558.85 7.861 7.861 0 0 0 7.864-7.863 7.864 7.864 0 1 0-15.437 2.121"/>
</svg>
