<svg xmlns="http://www.w3.org/2000/svg" width="110" height="25" viewBox="0 0 110 25">
    <path fill="#8E8E8E" fill-rule="nonzero" d="M.796 2.991a.93.93 0 0 1-.786.455L0 3.445v1.654h6.065V25h1.55c0-.012-.006-.022-.006-.036 0-.33.173-.607.424-.78V3.268a.93.93 0 0 1-.265-.277H.796v.001zM0 1.53l.009-.001c.324 0 .595.174.765.424H7.79a.926.926 0 0 1 .764-.424.948.948 0 1 1 .503 1.753v20.89c.261.172.444.455.444.793 0 .014-.007.024-.007.036h4.543V5.098h4.675V0H0v1.529zm42.731 8.388h4.686v-4.91h-4.686v4.91zM49.833 0c1.39 0 2.517 1.144 2.517 2.554v7.423a2.443 2.443 0 0 1-.701 1.724 2.411 2.411 0 0 1-1.708.72h-.07a2.534 2.534 0 0 1 2.48 2.551v9.866h-4.935v-9.916H42.73v9.916h-4.934V0h12.038-.001zm21.419 24.87V.03h4.934v24.84h-4.934zm-11.825-5.004h4.686v-4.943h-4.686v4.943zm0-9.948h4.686v-4.91h-4.686v4.91zM66.53 0c1.391 0 2.519 1.144 2.519 2.554v7.423a2.443 2.443 0 0 1-.702 1.724 2.411 2.411 0 0 1-1.707.72h-1.005v.045h.896c1.39 0 2.518 1.145 2.518 2.555v7.422a2.443 2.443 0 0 1-.702 1.724 2.411 2.411 0 0 1-1.707.72h-2.526v-.017h-9.621V.03h1.824V0h10.214zm23.837 0c1.39 0 2.517 1.144 2.517 2.554V24.91H87.95V5.005h-4.686v19.866h-4.935V.03h1.825V0h10.214zM22.21 0h13.474v5.005H25.91v4.943h7.208v5.006H25.91v4.879h9.776v5.005h-14.71V0h1.236zM110 5.005h-9.776v4.943h7.207v5.006h-7.208v4.879H110v5.005H95.29V0H110v5.005z"/>
</svg>
