<svg xmlns="http://www.w3.org/2000/svg" width="132" height="32" viewBox="0 0 132 32">
    <g fill="none" fill-rule="nonzero">
        <path fill="#8E8E8E" d="M83.752 7.021c-.866-.333-1.68-.5-2.531-.487-1.012.015-1.79.443-2.35 1.286-.408.618-.664 1.294-.69 2.038a58.61 58.61 0 0 0-.027 2.326c0 .501.013.51.503.514 1.002.007 2.004 0 3.008.005.227 0 .466-.058.727.096-.129.625-.28 1.26-.383 1.903-.053.34-.214.41-.516.406-.885-.014-1.77-.007-2.658-.004-.74 0-.684-.07-.684.675V27.05c-.011.512-.012.521-.49.527-.699.009-1.398-.007-2.098.006-.3.005-.42-.106-.407-.41.016-.516.004-1.033.004-1.551v-9.583-.423c-.012-.502-.012-.508-.49-.515a42.217 42.217 0 0 0-1.608 0c-.298.009-.42-.102-.416-.407.013-.516.02-1.033 0-1.55-.014-.336.104-.465.44-.453.535.018 1.073-.016 1.608.011.377.02.484-.126.477-.49-.023-1.079.012-2.157.217-3.224.56-2.895 2.355-4.555 5.264-4.887 1.105-.126 2.18-.07 3.245.268.3.096.42.217.338.547-.175.68-.244 1.383-.483 2.105zM93.346 12.698c-.152.743-.297 1.381-.41 2.026-.05.292-.186.384-.467.38a102.2 102.2 0 0 0-2.588 0c-.902.006-.793-.111-.794.77-.004 3.638-.004 7.278 0 10.917 0 .164-.005.33 0 .494.006.211-.103.291-.3.29h-2.378c-.201 0-.298-.085-.294-.292.004-.187 0-.376 0-.564V15.871c0-.824.07-.771-.741-.771-.466 0-.932-.01-1.4 0-.27.007-.377-.106-.373-.373.007-.564.012-1.128 0-1.692-.007-.297.147-.346.391-.341.536.008 1.073.008 1.61 0 .496-.008.506-.015.511-.511.012-1.058-.014-2.115.196-3.157.123-.67.337-1.32.635-1.93.834-1.652 2.214-2.554 3.981-2.897 1.25-.243 2.501-.255 3.736.113.58.172.581.179.47.762-.092.484-.192.966-.293 1.448-.102.482-.107.493-.575.338a6.444 6.444 0 0 0-2.13-.327c-.953.016-1.706.408-2.258 1.19a3.987 3.987 0 0 0-.765 2.157c-.033.797 0 1.597-.027 2.396-.01.36.147.43.46.423 1.096-.013 2.191-.005 3.289-.005l.514.004zM48.289 15.182c-1.899 0-3.645.006-5.391 0-1.041-.005-.896.108-.91-.887-.005-.376.023-.754-.007-1.128-.031-.39.14-.473.49-.472 3.286.009 6.573.009 9.859 0 .434 0 .45.099.42.511-.019.244-.182.428-.298.629-2.028 3.532-4.027 7.086-6.125 10.579-.105.173-.252.334-.266.569.224.119.457.07.68.07 2.028.02 4.057.03 6.086.049.525.005.53.013.537.552.006.517-.007 1.034 0 1.55.005.267-.093.396-.365.377-.14-.01-.28 0-.42 0H42.304c-.885 0-1.003-.19-.56-.965 2.113-3.675 4.137-7.401 6.324-11.032.048-.082.088-.161.22-.402zM115.76 24.302c-.197.959-.374 1.802-.543 2.647-.057.282-.285.352-.5.429a9.794 9.794 0 0 1-4.128.549 8.108 8.108 0 0 1-4.431-1.717c-2.327-1.798-3.143-4.215-2.864-7.08.397-4.08 3.955-6.634 7.463-6.797 1.601-.074 3.16.141 4.632.82.683.316.605.31.46.871-.168.652-.233 1.33-.471 2.002-.831-.474-1.654-.854-2.567-.972-1.26-.163-2.519-.179-3.694.408-2.091 1.045-3.078 2.855-2.883 5.165.194 2.265 1.714 3.994 3.89 4.516 1.468.352 2.913.146 4.326-.335.398-.135.784-.301 1.31-.506zM99.612 20.131v6.898c0 .535-.008.54-.528.545-.675.005-1.35-.008-2.029.005-.291.006-.44-.084-.405-.398a3.274 3.274 0 0 0 0-.352V13.456c0-.824-.107-.754.739-.758.56 0 1.12-.005 1.679 0 .53.005.54.01.54.535.006 2.3.007 4.6.004 6.898zM99.932 8.01a1.071 1.071 0 0 1-.177.525 4.003 4.003 0 0 1-1.07 1.087c-.368.25-.746.255-1.102-.006a4.773 4.773 0 0 1-.679-.598c-.72-.776-.712-1.258.01-2.056.916-1.01 1.49-1.017 2.418-.028.405.43.6.783.6 1.077zM130.593 14.45c-1.855-2.06-4.223-2.555-6.766-1.88-3.084.817-5.015 2.875-5.51 6.12-.448 2.942.289 5.492 2.638 7.44a7.603 7.603 0 0 0 4.05 1.744c1.718.2 3.392.04 5-.635.253-.107.499-.205.57-.547.193-.913.42-1.818.64-2.734-.196-.021-.296.08-.408.15-1.54.966-3.218 1.325-5.012 1.171-1.833-.157-3.192-1.079-4.085-2.69-.274-.493-.457-1.026-.414-1.702h7.035c.605 0 1.287.157 1.794-.07.56-.252.957-.867 1.427-1.32a.964.964 0 0 0 .326-.599c.21-1.673-.146-3.18-1.285-4.449zm-2.116 3.988c-.35.011-.7 0-1.05 0h-5.163c-.229 0-.463.044-.737-.064.147-1.692 2.014-3.228 3.622-3.45 1.83-.252 3.47.908 3.757 2.735.017.092.028.185.034.279.014.418-.044.487-.463.501zM63.35 12.316c-4.484-.018-7.957 3.4-7.852 7.82-.122 4.527 3.487 7.839 7.845 7.823 4.53-.018 7.829-3.253 7.847-7.746.021-4.595-3.261-7.878-7.84-7.897zm4.628 9.548c-.46 1.655-2.161 3.601-4.943 3.443a4.83 4.83 0 0 1-4.44-3.824 5.453 5.453 0 0 1-.135-1.242c0-2.348 1.189-4.252 3.132-4.959 3.317-1.207 6.197 1.053 6.559 3.936a6.65 6.65 0 0 1-.173 2.646zM3.486 3.09l7.082-1.78v4.74L3.486 7.3zM11.985 3.242L25.23 0v7.8L11.985 9.446zM9.187 24.81L36.655 32V9.445L9.187 10.58z"/>
        <path fill="#BBB" d="M2.658 8.505l16.416-2.02v11.277L2.658 16.87z"/>
        <path fill="#8E8E8E" d="M0 10.62l9.187-1.175v6.203L0 15.225z"/>
        <path fill="#1E1E1E" d="M26.652 12.664v7.659l-1.562-1.55s-3.987 5.474-10.493 5.944c0 0 5.328-1.293 8.51-6.65h-1.923l5.468-5.403z"/>
        <path fill="#BBB" d="M26.652 12.523v7.659l-1.562-1.55s-3.784 5.585-10.604 5.409c0 0 5.439-.758 8.621-6.115h-1.923l5.468-5.403z"/>
    </g>
</svg>
