<svg fill="none" xmlns="http://www.w3.org/2000/svg" viewBox="0 0 40 32">
  <path d="M4 23.5h5l.4.1 8 7.1c.8.8 1.4 1.1 2.3 1.1a2 2 0 002-2V3a2 2 0 00-2-2c-1 0-1.5.3-2.4 1.1L9.4 9c-.1.2-.3.2-.4.2H4C1.4 9.2.3 10.4.3 13v6.7c0 2.6 1.2 3.8 3.5 3.8zm30 4.9c.7.4 1.6.3 2-.4 2.3-3.1 3.6-7.3 3.6-11.7A20 20 0 0036 4.6c-.4-.6-1.3-.8-2-.4-.6.5-.7 1.3-.2 2 2 2.7 3 6.4 3 10.1a18 18 0 01-3 10.1c-.4.7-.4 1.5.3 2zM4 20.9c-.6 0-.9-.3-.9-1v-7.1c0-.7.3-1 1-1h5.6c.4 0 .8-.1 1.2-.5l7.5-6.8.3-.1c.1 0 .2 0 .2.2V28c0 .2-.1.3-.2.3s-.2 0-.3-.2l-7.5-6.7c-.4-.4-.8-.5-1.2-.5H4zm23.6 2.9c.6.4 1.4.3 1.9-.4a12 12 0 002.1-7 12 12 0 00-2.1-7.2c-.5-.7-1.3-.8-2-.4-.6.5-.7 1.4-.2 2.1 1 1.4 1.6 3.4 1.6 5.4 0 2-.6 4-1.6 5.4-.5.7-.4 1.6.3 2.1z" fill="#A0A0A1"/>
</svg>
