<svg width="195" height="40" viewBox="0 0 195 40" fill="none" xmlns="http://www.w3.org/2000/svg">
<path fill-rule="evenodd" clip-rule="evenodd" d="M31.6399 17.6514C31.8436 17.5202 32.0522 17.3967 32.2601 17.2717C32.5034 18.2595 32.6487 19.286 32.6487 20.3476C32.6487 27.5162 26.7744 33.3476 19.5547 33.3476C12.335 33.3476 6.46068 27.5155 6.46068 20.3476C6.46068 13.1798 12.3343 7.34762 19.5547 7.34762C23.0046 7.34762 26.1361 8.6909 28.4771 10.8639C28.2789 10.9944 28.0836 11.1283 27.9028 11.2801C25.6967 9.27557 22.7738 8.0379 19.5547 8.0379C12.7181 8.0379 7.15595 13.5601 7.15595 20.3476C7.15595 27.1351 12.7181 32.6573 19.5547 32.6573C26.3913 32.6573 31.9535 27.1351 31.9535 20.3476C31.9535 19.4199 31.8373 18.5205 31.6399 17.6514ZM19.641 0.5C30.4709 0.5 39.2821 9.24795 39.2821 20C39.2821 30.7521 30.4709 39.5 19.641 39.5C8.81122 39.5 0 30.7521 0 20C0 17.1695 0.618604 14.4824 1.71567 12.0531C1.91456 12.1895 2.10566 12.3349 2.29252 12.4874C1.27684 14.7902 0.707785 17.3297 0.707785 20C0.707785 30.3649 9.20121 38.7973 19.641 38.7973C30.0809 38.7973 38.5743 30.3649 38.5743 20C38.5743 9.63514 30.0809 1.2027 19.641 1.2027C14.5719 1.2027 9.96561 3.19627 6.564 6.4287C6.39838 6.26216 6.23134 6.09843 6.06218 5.93541C9.59261 2.57438 14.3751 0.5 19.641 0.5ZM19.641 26.9333C16.0252 26.9333 13.094 24.0232 13.094 20.4333C13.094 16.8435 16.0252 13.9333 19.641 13.9333C23.2568 13.9333 26.188 16.8435 26.188 20.4333C26.188 24.0232 23.2568 26.9333 19.641 26.9333ZM30.5527 16.1C29.3474 16.1 28.3704 15.1299 28.3704 13.9333C28.3704 12.7367 29.3474 11.7667 30.5527 11.7667C31.758 11.7667 32.7351 12.7367 32.7351 13.9333C32.7351 15.1299 31.758 16.1 30.5527 16.1ZM3.92821 11.3333C2.72293 11.3333 1.74587 10.3633 1.74587 9.16667C1.74587 7.97005 2.72293 7 3.92821 7C5.13348 7 6.11054 7.97005 6.11054 9.16667C6.11054 10.3633 5.13348 11.3333 3.92821 11.3333ZM67.8857 19.9684H68.1243V27.02H65.9211V26.0212C64.9129 26.5638 63.7355 26.8784 62.3925 26.8784C58.6208 26.8784 55.5261 24.2795 55.5261 20.2664C55.5261 16.2342 58.6208 13.6734 62.3925 13.6734C65.0811 13.6734 66.7638 15.0111 67.7309 16.5208L65.4486 17.7438C64.8683 16.8457 63.7658 16.0813 62.3925 16.0813C60.0521 16.0813 58.35 17.8585 58.35 20.2664C58.35 22.6742 60.0521 24.4515 62.3925 24.4515C63.5337 24.4515 64.6168 23.9546 65.1391 23.4768L65.4486 23.2407L65.9211 22.7698V21.948H63.1602V19.9684H67.8857ZM78.2222 26.8593C74.2958 26.8593 72.4003 24.6808 72.4003 21.5467V13.8836H75.1855V21.4512C75.1855 23.2284 76.23 24.4515 78.2222 24.4515C80.2145 24.4515 81.2396 23.2284 81.2396 21.4512V13.8836H84.0442V21.5276C84.0442 24.6999 82.1487 26.8593 78.2222 26.8593ZM100.299 26.63H97.1661L96.373 24.4706H90.8412L90.0288 26.63H86.8954L91.8857 13.8836H95.3286L100.299 26.63ZM95.6187 22.0818L93.6071 16.5972L91.5955 22.0818H95.6187ZM114.272 26.63H111.12L108.586 22.1009H106.574V26.63H103.828V13.8836H109.862C112.551 13.8836 114.195 15.6226 114.195 17.9923C114.195 20.2473 112.764 21.4512 111.371 21.7761L114.272 26.63ZM109.456 19.7122C110.559 19.7122 111.39 19.0624 111.39 17.9923C111.39 16.9221 110.559 16.2724 109.456 16.2724H106.574V19.7122H109.456ZM123.681 26.63H118.594V13.8836H123.681C127.723 13.8836 130.528 16.4253 130.528 20.2664C130.528 24.1075 127.723 26.63 123.681 26.63ZM123.681 24.2412C126.234 24.2412 127.723 22.4258 127.723 20.2664C127.723 18.0114 126.33 16.2724 123.681 16.2724H121.34V24.2412H123.681ZM145.255 26.63H142.102L139.568 22.1009H137.557V26.63H134.81V13.8836H140.845C143.533 13.8836 145.178 15.6226 145.178 17.9923C145.178 20.2473 143.746 21.4512 142.354 21.7761L145.255 26.63ZM140.439 19.7122C141.541 19.7122 142.373 19.0624 142.373 17.9923C142.373 16.9221 141.541 16.2724 140.439 16.2724H137.557V19.7122H140.439ZM161.607 26.63H158.473L157.68 24.4706H152.149L151.336 26.63H148.203L153.193 13.8836H156.636L161.607 26.63ZM156.926 22.0818L154.914 16.5972L152.903 22.0818H156.926ZM167.882 26.63H165.135V13.8836H167.882V26.63ZM182.149 26.63H172.764V13.8836H175.51V24.2412H182.149V26.63ZM189.793 26.8593C187.317 26.8593 185.537 26.0376 184.338 24.8337L185.827 22.7698C186.737 23.7062 188.149 24.4897 189.928 24.4897C191.437 24.4897 192.172 23.8017 192.172 23.0755C192.172 20.8206 184.744 22.3685 184.744 17.5719C184.744 15.4506 186.601 13.6925 189.638 13.6925C191.688 13.6925 193.39 14.304 194.667 15.4698L193.139 17.4572C192.094 16.5017 190.702 16.0622 189.386 16.0622C188.207 16.0622 187.549 16.5781 187.549 17.3425C187.549 19.3682 194.957 18.0114 194.957 22.7698C194.957 25.1012 193.274 26.8593 189.793 26.8593Z" fill="black"/>
</svg>
