<svg width="93" height="34" viewBox="0 0 93 34" fill="none" xmlns="http://www.w3.org/2000/svg">
<g clip-path="url(#clip0)">
<path d="M84.8366 27.6786C90.4566 22.0231 90.3228 12.9076 84.6358 7.3851C78.9489 1.86259 69.8497 1.92913 64.2296 7.58471C62.2894 9.58079 60.9513 12.0426 60.416 14.7041C61.0851 5.98784 68.7123 -0.532711 77.41 0.132651C86.1747 0.798013 92.7314 8.38314 92.0624 17.0328C91.5271 24.4849 85.7732 30.5397 78.3467 31.4712C80.8222 30.8724 83.0301 29.5417 84.8366 27.6786Z" fill="#009AED"/>
<path d="M66.4373 27.0134C72.1242 30.2072 79.4169 28.2111 82.6284 22.489C85.8399 16.7668 83.8327 9.58093 78.0788 6.3872C76.1386 5.32262 73.9307 4.79033 71.6559 4.85686C78.7479 3.52614 85.5723 8.18367 86.9104 15.2365C88.2485 22.2893 83.5651 29.076 76.4731 30.4068C70.3847 31.5379 64.3632 28.2776 62.0215 22.622C63.092 24.485 64.5639 26.0154 66.4373 27.0134Z" fill="#EF7E6E"/>
<path d="M79.8864 12.9746C79.1505 11.7769 78.1469 10.7124 76.9426 10.047C75.7383 9.3151 74.3333 8.98242 72.8614 8.98242C70.9211 8.98242 68.9808 9.71432 67.5758 11.045C65.9032 12.5754 64.8996 14.7711 64.9665 17.0333C64.8996 19.1625 65.7694 21.2251 67.3082 22.7554C68.7801 24.2858 70.7873 25.1507 72.9283 25.0842C74.3333 25.0842 75.7383 24.7515 77.0095 24.0196C78.2138 23.2877 79.2174 22.2897 79.8864 21.0255C80.6224 19.7613 80.9569 18.364 80.9569 16.9668C80.9569 15.636 80.5555 14.2388 79.8864 12.9746ZM72.9283 21.1586C71.9247 21.1586 70.9211 20.7593 70.1851 20.0274C69.4492 19.229 69.0477 18.0979 69.1146 17.0333C69.0477 15.9022 69.4492 14.8376 70.1851 14.0392C70.8542 13.3073 71.8578 12.8415 72.9283 12.9081C73.9987 12.8415 74.9354 13.3073 75.6714 14.0392C76.4073 14.8376 76.8088 15.9022 76.7419 17.0333C76.8088 18.1644 76.4073 19.229 75.6714 20.0274C74.9354 20.8259 73.9318 21.2251 72.9283 21.1586Z" fill="#2D3235"/>
<path d="M0.201172 9.44727H5.15219L8.76509 16.8328L12.2442 9.44727H16.66L8.56437 25.0167H8.36366L0.201172 9.44727Z" fill="#2D3235"/>
<path d="M23.3515 21.2915C24.8234 21.358 26.2284 20.8257 27.2989 19.8277L29.9751 22.4891C28.637 23.9529 26.6299 25.0175 23.4853 25.0175C18.2666 25.0175 14.8545 21.6242 14.8545 17.0332C14.7876 12.7083 18.2667 9.11536 22.6824 9.04883H23.017C28.3025 9.04883 31.3132 13.2406 30.9787 18.5635H19.404C19.8724 20.2269 21.1436 21.2915 23.3515 21.2915ZM26.2953 15.4363C26.0277 13.8394 24.6227 12.6418 22.95 12.7749C21.2774 12.6418 19.7386 13.7729 19.404 15.4363H26.2953Z" fill="#2D3235"/>
<path d="M39.9433 21.2915C41.4152 21.358 42.8202 20.8257 43.8907 19.8277L46.5669 22.4891C45.2288 23.9529 43.2217 25.0175 40.0771 25.0175C34.8584 25.0175 31.4463 21.6242 31.4463 17.0332C31.3794 12.7083 34.8584 9.11536 39.2742 9.04883H39.6088C44.8943 9.04883 47.905 13.2406 47.5705 18.5635H35.9958C36.4642 20.2269 37.7354 21.2915 39.9433 21.2915ZM42.8871 15.4363C42.6195 13.8394 41.2145 12.6418 39.5418 12.7749C37.8692 12.6418 36.3304 13.7729 35.9958 15.4363H42.8871Z" fill="#2D3235"/>
<path d="M59.8145 22.8884C59.0116 24.2191 57.4058 25.0175 55.1311 25.0175C51.1836 25.0175 48.0391 21.6242 48.0391 17.0332C48.0391 12.4422 51.2505 9.04883 55.1311 9.04883C57.4058 9.04883 58.9447 9.84726 59.8145 11.178V9.44804H64.2302V33.9999H59.8145V22.8884ZM59.8814 17.0332C59.8814 14.5713 58.5432 12.9745 56.2685 12.9745C53.9937 12.9745 52.5886 14.5713 52.5886 17.0332C52.5886 19.495 54.0606 21.0919 56.2685 21.0919C58.4763 21.0919 59.8814 19.495 59.8814 17.0332Z" fill="#2D3235"/>
</g>
<defs>
<clipPath id="clip0">
<rect width="92.129" height="34" fill="white"/>
</clipPath>
</defs>
</svg>
