<svg xmlns="http://www.w3.org/2000/svg" width="24" height="24" viewBox="0 0 24 24">
    <path fill="#F7A80D" fill-rule="nonzero" d="M7.002 15.113l-2.198.95 2.036.875 2.36-.875-2.198-.95zM3.697 16.3l-.074 4.275L6.84 22v-4.438L3.697 16.3zm6.61 0l-2.906 1.113V21.6l2.907-1.187V16.3zM13.777 3l-2.214.95 2.051.876 2.361-.876L13.776 3zm-3.07 1.262v4.275l2.745.802.089-3.89-2.834-1.187zm6.14.238l-2.598 1.113v4.2l2.597-1.187V4.5zM3.378 9.017l-2.198.95 2.036.876 2.36-.876-2.198-.95zM.074 10.204L0 14.48l3.217 1.425v-4.438L.074 10.204zm6.61 0l-2.906 1.114v4.185l2.907-1.187v-4.112zm3.779-1.345l-2.199.95 2.036.876 2.361-.876-2.198-.95zm-3.306 1.188l-.074 4.275 3.217 1.425v-4.438l-3.143-1.262zm6.611 0l-2.907 1.113v4.186l2.907-1.188v-4.111zM20.694 3l-2.198.95 2.036.876 2.361-.876L20.694 3zM17.39 4.187l-.074 4.275 3.217 1.425V5.45l-3.143-1.263zm6.611 0l-2.907 1.114v4.186L24 8.299V4.187z"/>
</svg>
