<?xml version="1.0" encoding="UTF-8"?>
<svg width="24px" height="24px" viewBox="0 0 24 24" version="1.1" xmlns="http://www.w3.org/2000/svg" xmlns:xlink="http://www.w3.org/1999/xlink">
    <!-- Generator: Sketch 51.1 (57501) - http://www.bohemiancoding.com/sketch -->
    <title>icons/tech/ELK</title>
    <desc>Created with Sketch.</desc>
    <defs></defs>
    <g id="icons/tech/ELK" stroke="none" stroke-width="1" fill="none" fill-rule="evenodd">
        <g id="elastic-logo-(2)" fill-rule="nonzero">
            <path d="M23.9594937,12.5898305 C23.9594937,10.5762712 22.7139241,8.80677966 20.8405063,8.12542373 C20.921519,7.69830508 20.9620253,7.27118644 20.9620253,6.83389831 C20.9620253,3.08135593 17.9240506,0.0305084746 14.1974684,0.0305084746 C12.0101266,0.0305084746 9.98481013,1.0779661 8.70886076,2.84745763 C8.08101266,2.35932203 7.31139241,2.09491525 6.51139241,2.09491525 C4.52658228,2.09491525 2.9164557,3.71186441 2.9164557,5.70508475 C2.9164557,6.14237288 2.99746835,6.56949153 3.13924051,6.96610169 C1.27594937,7.63728814 0,9.43728814 0,11.440678 C0,13.4644068 1.2556962,15.2338983 3.12911392,15.9152542 C3.04810127,16.3322034 3.00759494,16.7694915 3.00759494,17.2067797 C3.00759494,20.9491525 6.03544304,23.9898305 9.76202532,23.9898305 C11.9493671,23.9898305 13.9746835,22.9322034 15.2405063,21.1627119 C15.8683544,21.6610169 16.6379747,21.9355932 17.4379747,21.9355932 C19.4227848,21.9355932 21.0329114,20.3186441 21.0329114,18.3254237 C21.0329114,17.8881356 20.9518987,17.4610169 20.8101266,17.0644068 C22.6734177,16.3932203 23.9594937,14.5932203 23.9594937,12.5898305" id="Shape" fill="#FFFFFF"></path>
            <path d="M9.41772152,10.3525424 L14.6632911,12.7525424 L19.9493671,8.09491525 C20.0303797,7.70847458 20.0607595,7.33220339 20.0607595,6.92542373 C20.0607595,3.65084746 17.4075949,0.986440678 14.1468354,0.986440678 C12.1924051,0.986440678 10.3797468,1.95254237 9.27594937,3.56949153 L8.39493671,8.1559322 L9.41772152,10.3525424 Z" id="Shape" fill="#FED10A"></path>
            <path d="M3.98987342,15.9254237 C3.90886076,16.3118644 3.87848101,16.7084746 3.87848101,17.1152542 C3.87848101,20.4 6.54177215,23.0644068 9.81265823,23.0644068 C11.7772152,23.0644068 13.6101266,22.0881356 14.7139241,20.4610169 L15.5848101,15.8949153 L14.4202532,13.6576271 L9.15443038,11.2474576 L3.98987342,15.9254237 Z" id="Shape" fill="#24BBB1"></path>
            <path d="M3.95949367,6.81355932 L7.55443038,7.66779661 L8.3443038,3.56949153 C7.85822785,3.19322034 7.25063291,2.98983051 6.62278481,2.98983051 C5.06329114,2.98983051 3.78734177,4.26101695 3.78734177,5.83728814 C3.78734177,6.17288136 3.84810127,6.50847458 3.95949367,6.81355932" id="Shape" fill="#EF5098"></path>
            <path d="M3.64556962,7.6779661 C2.04556962,8.20677966 0.921518987,9.75254237 0.921518987,11.4508475 C0.921518987,13.1084746 1.9443038,14.5830508 3.47341772,15.1728814 L8.5164557,10.5966102 L7.59493671,8.61355932 L3.64556962,7.6779661 Z" id="Shape" fill="#17A8E0"></path>
            <path d="M15.6253165,20.4610169 C16.121519,20.8372881 16.7189873,21.0508475 17.3367089,21.0508475 C18.8962025,21.0508475 20.1721519,19.779661 20.1721519,18.2033898 C20.1721519,17.8576271 20.1113924,17.5220339 20,17.2169492 L16.4151899,16.3728814 L15.6253165,20.4610169 Z" id="Shape" fill="#93C83E"></path>
            <path d="M16.3544304,15.4271186 L20.3037975,16.3525424 C21.9139241,15.8237288 23.0278481,14.2779661 23.0278481,12.5694915 C23.0278481,10.9220339 22.0050633,9.43728814 20.4759494,8.85762712 L15.3113924,13.4033898 L16.3544304,15.4271186 Z" id="Shape" fill="#0779A1"></path>
        </g>
    </g>
</svg>