<svg xmlns="http://www.w3.org/2000/svg" width="24" height="24" viewBox="0 0 24 24">
    <path fill="#000" fill-rule="nonzero" d="M7.172 20.648c-.914-.703-1.89-1.377-2.556-2.327-1.402-1.675-2.482-3.614-3.22-5.651C.95 11.344.797 9.924.221 8.65c-.601-.925.104-1.936 1.14-2.23.461-.087 1.272-.513.293-.208-.878.63-.962-.572-.062-.648.614-.08.84-.572.63-1.014-.66-.421 1.599-.883.462-1.51-1.183-1.25 1.656-1.49.955-.072-.167 1.091 1.985-.2 1.485 1.06.507.605 1.9.138 1.865.986.74.05.993.658 1.687.705.72.318 2.023.568 2.267 1.36-.713.553-2.365-1.14-2.444.389.215 2.26.16 4.586 1.005 6.738.4 1.302 1.369 2.328 2.244 3.342.837.994 1.971 1.694 3.127 2.283 1.014.467 2.107.777 3.213.972.448-.335 1.24-1.582 1.938-1.056.034.591-1.387 1.235-.067 1.17.776-.23 1.314.586 1.953-.15.588.682 2.446-.435 2.027.959-.566.357-1.392.141-1.959.633-.935-.457-1.68.408-2.715.299-1.149.201-2.319.282-3.484.284-1.912-.147-3.865-.21-5.684-.861-1.025-.291-2.024-.862-2.925-1.433zm1.615.685c1 .422 1.979.869 3.075 1.004 1.74.236 3.537.6 5.283.268-.79-.349-1.608.136-2.395-.25-.944.2-1.957-.05-2.917-.173-1.091-.476-2.27-.802-3.291-1.42-1.278-.456.66.585 1.005.67.798.443-.878-.228-1.115-.412-.668-.367-.754-.29-.066.082.139.08.276.163.42.23zm-1.904-1.316c.97.35-.005-.667-.448-.608-.197-.335-.753-.546-.36-.725-.705.24-.739-.91-1.07-.745-.745-.23-.29-1.046-1.178-1.547-.081-.528-.882-.986-1.138-1.781-.112-.408-.905-1.578-.418-.49.414 1.049 1.143 1.947 1.75 2.844.47.854 1.028 1.747 1.885 2.28.29.27.568.686.977.772zm4.271 1.763c.398.245 2.32.537 1.116.1-.202.042-2.231-.561-1.116-.1zm-4.389-3.486c.466.35 1.88.045.714-.208-.53-.277-1.726-.466-.911.166l.197.042zm2.256 1.17c1.139.314-.958-.706-.281-.117l.15.067.13.05zm.01-.59c.827.103-.985-.552-.182-.06l.182.06zm2.876 1.729c.773-.451.518 1.058 1.312.128.782-.56-.676.69.288.1.697-.457 1.727.216 2.378.435.467-.023.922.395 1.402.141.923-.243-1.806-.36-1.09-.792-.845.24-1.47-.287-1.885-.816-.948-.214-2.043-.688-2.516-1.509-.194-.307.278.044-.167-.46-.57-.496-.856-1.06-1.24-1.664-.457-.24-.51-.943-.557-.024.004-.58-.553-.97-.689-.808-.002-.558.596-.278.177-.692-.09-.578-.387-1.181-.476-1.835-.138-.315-.02-.99-.473-.277-.165.754-.054-.925.203-.372.337-.565-.122-.498-.14-.42.22-.477.139-1.153-.058-.896.117-.505.185-1.86-.175-1.62.219-.528.414-2.418-.534-1.697-.383.005-1.048.136-1.362.289.985.531-.1.192-.501.107-.052.492-.45.28-.946.284.793.096-.386.793-.84.523-.592.275.509.965.011 1.178.061.321-.905-.116-.83.627-.573-.237-.078.88.21.502.974.258.686.847.71 1.406-.159.326-.784-.766-.139-.715-.51-.81-.563-.293-.986.083-.098.027 1.079.535.34.786.65.098.669.654.801 1.007.39.398.31-.44.778.039-.296-.427-1.567-1.202-.544-.953-.005-.43-.185-.775.129-.767.31-.55-.325 1.357.375.657.193-.082.242-.55.59.045.506.487.183.84-.53.393.127.424.954.575.798 1.238.165.583.395.368.596.334.158.567.247.15.255-.12.721.152.552.57.778.86.497.22-.711-1.487.142-.513.898.793.337 1.124-.469.997.51-.04.674.675 1.313.65.581.27.975 1.31-.027.878-.348-.307-1.58-.686-.574-.102.928.42 1.667.672 2.562 1.2.64.448.918.96 1.16 1.062-.538.251-1.623-.201-.817-.34-.503-.09-1.068-.338-.587.274.41.335 1.45.3 1.637.337-.158.34-.43.368.006.394-.486.254.156.294.201.438zm-.994-2.747c-.296-.303-.373-.87-.053-.377.164.065.526.927.053.377zm-1.897-3.055c-.352-.773.25-.422.079.126l-.079-.126zM5.77 12.683c-.157-.253-.418-.997-.334-1.224.075.37.804 1.591.357.506-.494-.91.59.295.702.522.052.226-.305-.061-.063.468-.441-.603-.26.333-.662-.272zm-1.637-1.345c-.374-.364-.644-.698.017-.226.255.01-.566-.76.062-.244.66.117.325 1.058-.08.47zm.223-.557c-1.085-.945 1.364.494.178.175l-.178-.175zm3.112 1.768c-.47-.275-.125-1.94.035-.802.457-.144-.025.589.315.581-.053.463-.206.629-.35.221zm-2.899-2.078c-.697-.942 2.027.952.447.238-.165-.042-.364-.057-.447-.238zm.107-.36c.415-.086 1.718.712.521.228-.132-.144-.416-.078-.52-.228zm3.56 1.736c.045-.81.248-.484.002.116l-.002-.116zM4.985 9.829c.169-.242-.45-1.095.089-.306.232.18.672.302.283.379.612.527-.148.142-.372-.073zm2.702-.434c-.216-.371.272-1.637.327-.852-.228.611-.066.953.092.133.293-.645-.063 1.274-.42.719zm.893 9.048c.617.155.614-.094.056-.168-.3-.273-1.246-.562-.399-.033.056.139.233.135.343.201zM6.39 17.02c.339.249 1.28.703.483.095.269-.305-.513-.467-.254-.672-.66-.395-.521-.36-.058-.347-.793-.347.114-.321.072-.499-.306-.059-1.52-.528-.806.038-.726-.361-.173.135-.392.083-.743-.198.66.553-.118.366.425.33 1.146.846.18.35-.127.179.691.45.892.586zm7.71 4.424c.326-.308.014.492.54-.075.005-.406-.016-.646-.604-.153-.163.088-.235.462.065.228zm-5.33-3.348c.362.315 1.663.231.44.04-.182-.263-1.15-.2-.44-.04zm-5.965-3.919c-.526-.734-.327-1.064-.835-1.664-.096-.458-.87-1.498-.4-.397.43.645.558 1.643 1.235 2.061zm12.717 7.475c.55-.347-.127-.294-.1.032l.1-.032zm.883.235c.705-.498-.427-.096-.148.094l.148-.094zm-11.836-7.38c.517.114 2.067 1.246 1.153.08-.469-.136-.188-1.256-.666-1.058.321.524.264.747-.41.417-.844-.404-.474.2-.309.367-.225.05.298.19.232.195zm-2.356-1.819c.093-.375-.853-2.06-.446-.845.146.255.131.738.446.845zm16.178 8.735c.511-.101 1.678.255 1.866-.132-.621-.015-2.15-.43-2.222.098l.136.021.22.013zM2.449 10.535c.516-.198-.94-.41-.106-.037l.106.037zM.837 8.77c-.093-.523-.08-1.44.812-1.13-1.191.23.824 1.447.57.487.5.024.98-.29.716.186.987-.106 1.67-.944 2.624-.826.742-.096 1.554-.169 2.354-.462.658-.046 1.291-.739.93-1.15-.896-.074-1.835.036-2.827.23-1.098.222-2.096.647-3.205.83-1.08.141.218.39-.092.446-.564.191.672.32-.073.522-.46-.086-.94-.24-.743-.715C.868 7.32-.042 7.74.776 8.77h.061zM3.33 7.53c.243-.874 1.3.72.398.116-.108-.08-.286-.143-.398-.116zm.492-.417c.032-.402 1.018.213.163.145l-.163-.145zm.764-.341c.37-.435 2.095-.278.832-.043-.338-.25-.597.147-.832.043zm2.89-.343c.233-.599.906-.24.108-.12.017.063-.024.309-.108.12zm15.02 15.002c.556.002 1.688-.17.475-.17-.19.03-1.109.024-.476.17zM3.291 9.497c.45-.03.705-.487-.088-.46-1.23-.125 1.084.411-.158.258-.166.108.236.232.246.202zM2.659 6.01c.806-.267 1.907-.568 2.287.132-.387-.455-.156-.904.21-.237.516.673.775-.307.439-.533.383.465.818.686.256.03.611-.72-1.223.094-1.64.085-.2.088-2.07.467-1.552.523zm.472-.884c.46-.338 1.589.202.864-.337-.07-.06-1.586.41-.864.337zm1.675.068c.537.013-.232-.706.408-.38-.105-.336-.745-.399-1.059-.533-.177.307.36.917.65.913zm-.697-1.327c.867-.112-.22-.364-.175-.008l.175.008zm-1.277-.977c-.61-.779 1.147.13.527-.685-.522-.406-1.023.458-.527.685zm7.825 4.123c.28-.485-1.154-.654-.188-.172.089.029.069.205.188.172z"/>
</svg>
