<?xml version="1.0" encoding="UTF-8"?>
<svg width="24px" height="24px" viewBox="0 0 24 24" version="1.1" xmlns="http://www.w3.org/2000/svg" xmlns:xlink="http://www.w3.org/1999/xlink">
    <!-- Generator: Sketch 51.1 (57501) - http://www.bohemiancoding.com/sketch -->
    <title>icons/tech/Skype</title>
    <desc>Created with Sketch.</desc>
    <defs></defs>
    <g id="icons/tech/Skype" stroke="none" stroke-width="1" fill="none" fill-rule="evenodd">
        <g id="Skype-—-Worldvectorlogo-13" fill-rule="nonzero">
            <path d="M23.2863836,14.5167355 C23.4625438,13.7228626 23.551302,12.9126003 23.5511202,12.0999899 C23.5511202,5.87993955 18.4312634,0.837400504 12.1155192,0.837400504 C11.4487366,0.837400504 10.7953964,0.894166247 10.1598568,1.00213602 C9.13792327,0.368100756 7.92877749,0 6.63167263,0 C2.96906394,0 0,2.92443325 0,6.53138539 C0,7.73712846 0.33311509,8.86567254 0.911570332,9.83504282 C0.757316039,10.5804634 0.679788181,11.3393058 0.680163683,12.1000504 C0.680163683,18.3202217 5.7998977,23.3627607 12.1156419,23.3627607 C12.830977,23.3627607 13.5307212,23.2975315 14.2095345,23.1737834 C15.1431407,23.6679899 16.2104962,23.9488564 17.3445115,23.9488564 C21.0073043,23.9488564 23.9762455,21.024665 23.9762455,17.4174106 C23.9763069,16.3752544 23.7272839,15.3908312 23.2863836,14.5167355 Z" id="Shape" fill="#00AAF1"></path>
            <path d="M8.68437852,4.69632242 C7.72284399,5.04652897 6.97602046,5.55717884 6.46465473,6.21400504 C5.94942199,6.8755466 5.68818414,7.64239798 5.68818414,8.49321914 C5.68818414,9.38587406 5.93714578,10.1452292 6.42819437,10.7503678 C6.91163171,11.3464987 7.57270588,11.8228111 8.39263427,12.1663678 C9.19457801,12.5022469 10.2028849,12.7994358 11.3896266,13.0497733 C12.2623427,13.2297431 12.9679182,13.4017935 13.4877545,13.5613904 C13.9862302,13.7144584 14.3968082,13.9375315 14.7078875,14.2241411 C15.005156,14.4982972 15.1495243,14.8477179 15.1495243,15.2924736 C15.1495243,15.8552947 14.872757,16.3148615 14.303202,16.6977733 C13.7202046,17.0898136 12.9452072,17.2886448 11.9998772,17.2886448 C11.3123478,17.2886448 10.7534731,17.1906499 10.3389054,16.9973199 C9.92679284,16.8053804 9.60405115,16.5596977 9.37982609,16.2672846 C9.14651662,15.963204 8.92548338,15.5772695 8.72280307,15.1201814 C8.54142199,14.7003325 8.31560102,14.3752746 8.0523376,14.1555869 C7.77685934,13.9262267 7.43791304,13.8099748 7.04501279,13.8099748 C6.56630179,13.8099748 6.16486957,13.9571184 5.85164194,14.2472343 C5.53516113,14.540131 5.37464962,14.8978942 5.37464962,15.3106096 C5.37464962,15.9709421 5.62103325,16.6556373 6.10680307,17.3457128 C6.58772379,18.0289572 7.22123785,18.582529 7.98966752,18.9912544 C9.06445013,19.552806 10.4414731,19.8372997 12.0838465,19.8372997 C13.4522762,19.8372997 14.6546701,19.6292191 15.6575754,19.2186801 C16.670179,18.8039698 17.4517442,18.2198086 17.9808491,17.482398 C18.511734,16.7423275 18.7809514,15.8967053 18.7809514,14.9689874 C18.7809514,14.1936121 18.6245524,13.5263275 18.3159898,12.9856322 C18.0082251,12.4470529 17.5745064,11.9958892 17.0267417,11.644534 C16.4901483,11.3006751 15.8319591,11.0046348 15.0705269,10.7645743 C14.3184246,10.5278388 13.4679284,10.3086348 12.5424246,10.1130076 C11.8112532,9.94657935 11.2778517,9.81787406 10.9600818,9.73100252 C10.6499233,9.64660957 10.3401944,9.52836272 10.0396113,9.3795869 C9.7498312,9.23679597 9.52063427,9.06516877 9.35809719,8.86966247 C9.20458312,8.68515869 9.12994373,8.47060957 9.12994373,8.21404534 C9.12994373,7.79564736 9.36178005,7.44247859 9.83883376,7.13446851 C10.333688,6.81479093 11.0004092,6.65277582 11.8201535,6.65277582 C12.7027519,6.65277582 13.3451049,6.79889169 13.7293504,7.08677078 C14.1252583,7.38311335 14.4704655,7.80386902 14.7556419,8.33743073 C15.0020256,8.75534509 15.2241023,9.04582368 15.4380767,9.23214106 C15.668133,9.43278589 15.999468,9.53458942 16.4230588,9.53458942 C16.8892481,9.53458942 17.2843581,9.37196977 17.5975243,9.05120403 C17.9087877,8.73255416 18.0667826,8.36687154 18.0667826,7.9643728 C18.0667826,7.54621662 17.9463529,7.11391436 17.7090537,6.67961713 C17.4742097,6.24955164 17.1000307,5.83544584 16.5971969,5.44854408 C16.0978619,5.06436272 15.462445,4.75218136 14.708624,4.5209471 C13.9591611,4.29146599 13.0612788,4.17515365 12.0398977,4.17515365 C10.762312,4.17533501 9.63345269,4.35064987 8.68437852,4.69632242 Z" id="Shape" stroke="#00AAF1" stroke-width="0.5" fill="#FFFFFF"></path>
        </g>
    </g>
</svg>