<svg xmlns="http://www.w3.org/2000/svg" width="24" height="24" viewBox="0 0 24 24">
    <path fill="#35495E" fill-rule="nonzero" d="M23.552 18.969c.542.96.595 1.971.144 2.77-.45.8-1.33 1.257-2.416 1.257h-2.045c.024-.39.04-.782.04-1.177 0-.443-.02-.88-.05-1.315l1.346-.002c.33 0 .598-.274.598-.612a.628.628 0 0 0-.072-.292L12.523 4.392a.593.593 0 0 0-.52-.31.595.595 0 0 0-.512.296L10.13 6.792c4.138 3.182 6.92 8.113 7.3 13.71.03.435.05.872.05 1.316 0 .395-.017.787-.04 1.176h-6.68a12.122 12.122 0 0 0-.015-2.492 12.04 12.04 0 0 0-3.985-7.737l-.937 1.662a10.146 10.146 0 0 1 3.071 6.075c.056.431.087.87.087 1.316 0 .397-.026.79-.07 1.176H2.72c-1.086 0-1.966-.458-2.416-1.257-.45-.8-.398-1.809.144-2.77l1.271-2.223a7.467 7.467 0 0 1 1.942 1.535l-.757 1.317a.617.617 0 0 0 .103.725c.112.115.264.18.423.18h3.003a7.645 7.645 0 0 0-1.867-3.843A7.503 7.503 0 0 0 2.62 15.12l3.354-5.944c.712.406 1.388.874 2.021 1.398a14.539 14.539 0 0 1 5.196 9.927h1.797A16.383 16.383 0 0 0 8.901 8.97 16.03 16.03 0 0 0 6.87 7.586l2.863-5.073C10.273 1.552 11.102 1 12.003 1c.901 0 1.729.552 2.271 1.514l9.278 16.455z"/>
</svg>
