<?xml version="1.0" encoding="UTF-8"?>
<svg width="24px" height="24px" viewBox="0 0 24 24" version="1.1" xmlns="http://www.w3.org/2000/svg" xmlns:xlink="http://www.w3.org/1999/xlink">
    <!-- Generator: Sketch 51.1 (57501) - http://www.bohemiancoding.com/sketch -->
    <title>icons/tech/slack</title>
    <desc>Created with Sketch.</desc>
    <defs></defs>
    <g id="icons/tech/slack" stroke="none" stroke-width="1" fill="none" fill-rule="evenodd">
        <g id="slack-1" fill-rule="nonzero">
            <path d="M15.559125,1.4848125 C15.1944375,0.36215625 13.988625,-0.2521875 12.8661563,0.1126875 C11.7435,0.477375 11.1291563,1.6831875 11.4940313,2.80565625 L17.0203125,19.808625 C17.3998125,20.8574063 18.5326875,21.4467187 19.6201875,21.1337812 C20.7545625,20.80725 21.4459688,19.6024687 21.084,18.4884375 L15.559125,1.4848125" id="Shape" fill="#DFA22F"></path>
            <path d="M6.9961875,4.267125 C6.6313125,3.1445625 5.42559375,2.53021875 4.303125,2.89490625 C3.180375,3.2596875 2.5659375,4.46540625 2.93090625,5.5880625 L8.45728125,22.591125 C8.8366875,23.6398125 9.96965625,24.2292188 11.0571563,23.916 C12.1914375,23.5896563 12.8828438,22.384875 12.520875,21.2706563 L6.9961875,4.267125" id="Shape" fill="#3CB187"></path>
            <path d="M22.5151875,15.5667187 C23.6378438,15.2020312 24.252,13.9964062 23.8873125,12.8736562 C23.522625,11.7511875 22.3168125,11.13675 21.1943438,11.5015312 L4.191375,17.028 C3.14259375,17.4073125 2.55328125,18.5401875 2.86621875,19.6276875 C3.19275,20.7619687 4.39753125,21.4534687 5.5115625,21.0915 L22.5151875,15.5668125" id="Shape" fill="#CE1E5B"></path>
            <polyline id="Shape" fill="#392538" points="7.735125 20.3690625 11.7989062 19.0486875 10.4783438 14.9844375 6.41428125 16.305375 7.735125 20.3691563"></polyline>
            <path d="M16.2981563,17.5866563 C17.8345313,17.087625 19.2625313,16.6235625 20.3620313,16.2662812 L19.0412813,12.2012812 L14.9772188,13.5222188 L16.2981563,17.5866563" id="Shape" fill="#BB242A"></path>
            <path d="M19.732875,7.0036875 C20.8554375,6.639 21.4697813,5.43328125 21.1050938,4.31053125 C20.7404062,3.1880625 19.5345937,2.57371875 18.4119375,2.93840625 L1.408875,8.46496875 C0.3601875,8.84409375 -0.22921875,9.9770625 0.084,11.0645625 C0.41034375,12.19875 1.615125,12.89025 2.72934375,12.5282812 L19.732875,7.00359375" id="Shape" fill="#72C5CD"></path>
            <path d="M4.9520625,11.8062188 C6.05878125,11.4465938 7.48565625,10.9829063 9.0165,10.4856563 C8.51746875,8.94909375 8.05340625,7.52109375 7.696125,6.42140625 L3.631125,7.74253125 L4.9520625,11.8062187" id="Shape" fill="#248C73"></path>
            <path d="M13.515,9.024 L17.579625,7.70325 C17.1394003,6.34823162 16.6991191,4.99323162 16.2587812,3.63825 L12.1940625,4.959375 L13.515,9.024" id="Shape" fill="#62803A"></path>
        </g>
    </g>
</svg>