<svg width="166" height="74" viewBox="0 0 166 74" fill="none" xmlns="http://www.w3.org/2000/svg">
<g clip-path="url(#clip0)">
<path fill-rule="evenodd" clip-rule="evenodd" d="M30.2138 20.624C29.3422 20.624 28.4706 20.917 27.8896 21.503L1.59836 47.4342C0.726825 48.3133 0.436313 49.7783 0.87208 50.9503C1.4531 52.1223 2.61514 52.8549 3.92245 52.8549H18.1575C19.9006 52.8549 21.3531 51.3898 21.3531 49.6317C21.3531 47.8738 19.9006 46.4087 18.1575 46.4087H11.7662L27.0181 31.6118V49.4853C27.0181 51.2434 28.4706 52.7084 30.2138 52.7084H41.9794C50.9853 52.7084 58.3933 45.5297 58.3933 36.7394C58.3933 27.9492 50.9853 20.624 41.9794 20.624C40.2364 20.624 38.7838 22.0891 38.7838 23.8471C38.7838 25.6052 40.2364 27.0702 41.9794 27.0702C47.3539 27.0702 51.8568 31.3188 51.8568 36.7394C51.8568 42.0135 47.4992 46.4087 41.9794 46.4087H33.5546V23.8471C33.5546 22.5286 32.8283 21.3565 31.5211 20.917C31.0853 20.7705 30.6495 20.624 30.2138 20.624Z" fill="#A87BFF"/>
<path fill-rule="evenodd" clip-rule="evenodd" d="M124.63 28.0952C125.792 28.0952 126.809 29.1207 126.809 30.2928C126.809 31.4648 125.792 32.4904 124.63 32.4904C123.468 32.4904 122.451 31.4648 122.451 30.2928C122.451 29.1207 123.323 28.0952 124.63 28.0952ZM89.6231 47.1407C87.0085 47.1407 84.5392 45.3826 84.5392 40.6946C84.5392 36.0064 87.0085 34.2484 89.6231 34.2484C91.5114 34.2484 92.2377 34.9809 92.8187 35.5669V28.6812C92.8187 28.3882 92.9639 28.2417 93.2545 28.2417H96.8858C97.1764 28.0952 97.3216 28.3882 97.3216 28.6812V44.0642C97.3216 44.6502 97.4669 44.9431 97.7574 44.9431V45.2362C97.7574 46.1152 97.4669 47.2872 95.2881 47.2872C93.9807 47.2872 93.1093 46.8477 92.8187 45.9687C92.383 46.4082 91.6566 47.1407 89.6231 47.1407ZM72.7734 46.9943C73.064 46.9943 73.2092 46.8477 73.3544 46.5547L73.9354 44.7966H78.5837L79.1647 46.5547C79.1647 46.8477 79.4552 46.9943 79.7458 46.9943H83.2319C83.5223 46.9943 83.6676 46.8477 83.6676 46.5547C83.6676 46.4814 83.6313 46.3716 83.5768 46.2068V46.2067C83.5223 46.0419 83.4497 45.8222 83.3771 45.5292L78.5837 30.5858C78.4384 30.1463 78.2931 30.1463 77.8574 30.1463H74.3712C74.226 30.1463 73.9354 30.1463 73.9354 30.5858L69.142 45.5292C69.0764 45.7937 69.0109 45.9687 68.9587 46.108C68.8952 46.2773 68.8516 46.3939 68.8516 46.5547C68.8516 46.8477 68.9968 46.9943 69.2873 46.9943H72.7734ZM76.4049 36.446C76.4049 36.7389 76.9859 39.083 77.1311 39.669L77.5669 41.1341H74.9522L75.388 39.669C75.5333 39.083 76.1143 36.7389 76.1143 36.446C76.1143 36.2994 76.1143 36.1529 76.2596 36.1529C76.3157 36.1529 76.3502 36.1529 76.3713 36.1699C76.4049 36.1967 76.4049 36.2662 76.4049 36.446ZM92.6735 38.3505V42.8921C92.2377 43.1851 91.6566 43.3316 91.0756 43.1851C89.7684 43.1851 89.0421 42.5991 89.0421 40.548C89.0421 38.497 89.7684 37.911 91.0756 37.911C91.6566 37.911 92.2377 38.0575 92.6735 38.3505ZM100.372 34.8344C100.372 34.5414 100.517 34.3949 100.808 34.3949H102.551C103.713 34.3949 104.73 34.8344 104.875 36.1529C105.601 35.4204 106.763 34.2484 108.506 34.2484C110.249 34.2484 111.266 34.9809 111.847 36.2994C112.573 35.1274 114.026 34.2484 115.769 34.2484C118.675 34.2484 119.4 36.1529 119.4 38.6435V46.5547C119.4 46.8477 119.255 46.9943 118.965 46.9943H115.334C115.042 46.9943 114.897 46.8477 114.897 46.5547V39.5225C114.897 38.6435 114.317 38.3505 113.88 38.3505C113.155 38.3505 112.283 38.79 112.283 38.79V46.5547C112.283 46.8477 112.138 46.9943 111.847 46.9943H108.216C107.925 46.9943 107.78 46.8477 107.78 46.5547V39.5225C107.78 38.6435 107.199 38.3505 106.763 38.3505C106.037 38.3505 105.165 38.79 105.165 38.79V46.5547C105.165 46.8477 105.02 46.9943 104.73 46.9943H101.098C100.517 46.9943 100.372 46.8477 100.372 46.5547V34.8344ZM122.741 34.3949C122.451 34.3949 122.306 34.5414 122.306 34.8344V46.5547C122.306 46.8477 122.451 46.9943 122.741 46.9943H126.373C126.664 46.9943 126.809 46.8477 126.809 46.5547V34.8344C126.809 34.5414 126.664 34.3949 126.373 34.3949H122.741ZM129.278 37.1784H130.44V44.2107C130.44 46.2617 131.892 47.1407 133.636 47.1407C135.233 47.1407 136.25 46.9942 136.976 46.2617C137.122 46.1152 137.267 45.6757 137.267 44.9431V44.2107C137.267 43.6247 136.976 43.4781 136.686 43.6247C136.468 43.6247 136.323 43.6613 136.178 43.6978C136.033 43.7345 135.887 43.7711 135.669 43.7711C135.233 43.7711 135.088 43.4781 135.088 42.8921V37.1784H136.686C136.976 37.1784 137.122 37.032 137.122 36.7389V34.8344C137.122 34.5414 136.976 34.3949 136.686 34.3949H134.943V31.9043C134.943 31.6113 134.798 31.4648 134.507 31.4648H130.876C130.585 31.4648 130.44 31.6113 130.44 31.9043V34.3949H129.278C128.988 34.3949 128.842 34.5414 128.842 34.8344V36.7389C128.842 37.032 128.988 37.1784 129.278 37.1784ZM142.932 47.1407C140.753 47.1407 138.865 46.1152 138.865 43.1851C138.865 40.4015 141.044 39.2296 143.658 39.2296C144.675 39.2296 145.402 39.376 145.837 39.5225V39.2296C145.837 38.0575 145.692 37.6179 144.385 37.6179C143.113 37.6179 142.21 37.8963 141.6 38.0838C141.445 38.1319 141.308 38.174 141.189 38.2039C140.753 38.3505 140.317 38.497 140.027 38.497C139.737 38.497 139.591 38.3505 139.591 37.7645V36.1529C139.591 35.5669 139.882 35.1274 140.608 34.8344C141.624 34.2484 143.803 34.1019 145.256 34.1019C148.743 34.1019 150.34 35.4204 150.34 38.6435V44.0642C150.34 44.6502 150.485 44.9431 150.775 44.9431V45.2362C150.775 46.1152 150.485 47.2872 148.306 47.2872C146.999 47.2872 146.272 46.8477 145.837 46.1152C145.547 46.5547 144.82 47.1407 142.932 47.1407ZM145.982 41.4271V44.0642C145.692 44.2107 145.257 44.3571 144.82 44.5036V44.5037C143.803 44.5037 143.368 44.0642 143.368 42.8921C143.368 41.7201 143.948 41.2806 144.82 41.2806C145.402 41.2806 145.692 41.2806 145.982 41.4271ZM157.603 47.1407C154.988 47.1407 152.519 45.3826 152.519 40.6946C152.519 36.0064 154.988 34.2484 157.603 34.2484C159.491 34.2484 160.217 34.9809 160.798 35.5669V28.6812C160.798 28.3882 160.944 28.2417 161.234 28.2417H164.865C165.156 28.2417 165.301 28.3882 165.301 28.6812V44.0642C165.301 44.6502 165.447 44.9431 165.737 44.9431V45.2362C165.737 46.1152 165.447 47.2872 163.268 47.2872C161.96 47.2872 161.089 46.8477 160.798 45.9687C160.508 46.4082 159.636 47.1407 157.603 47.1407ZM160.798 38.3505V42.8921C160.363 43.1851 159.782 43.3316 159.201 43.1851C157.893 43.1851 157.167 42.5991 157.167 40.548C157.167 38.497 157.893 37.911 159.201 37.911C159.782 37.911 160.363 38.0575 160.798 38.3505Z" fill="#6B31BD"/>
</g>
<defs>
<clipPath id="clip0">
<path d="M0 0H166V73.7133H0V0Z" fill="white"/>
</clipPath>
</defs>
</svg>
