<svg width="166" height="74" viewBox="0 0 166 74" fill="none" xmlns="http://www.w3.org/2000/svg">
<path fill-rule="evenodd" clip-rule="evenodd" d="M83.7696 19.7344H76.065V44.6344C76.065 50.4966 78.2351 51.6574 84.3813 51.6574H89.3187V45.6211H87.1048C84.5415 45.6211 83.7841 45.1713 83.7841 42.8061V33.0985H89.3187V27.1202H83.7696V19.7344ZM63.0152 26.4818C57.7719 26.4818 51.4654 28.0924 50.81 34.7237L58.0923 34.8253C58.1798 32.6052 59.9857 31.7055 62.4617 31.7055C65.2873 31.7055 66.7437 32.6052 66.7437 34.9704V35.5798L62.8112 35.9861C58.8788 36.3924 54.8008 36.8858 52.3248 38.8011C50.7327 40.0387 49.8466 41.9722 49.9508 43.9814C49.9508 48.4941 53.388 52.2669 59.6362 52.2669C63.1171 52.2669 65.8407 51.4108 67.603 49.1471L67.7486 51.6574H74.4483C74.1463 48.3774 74.015 45.0839 74.055 41.7903L74.157 36.4215C74.3027 29.2968 70.4722 26.4818 63.0152 26.4818ZM66.9329 40.5279L62.8987 40.9342C58.7623 41.3404 57.8593 42.2402 57.8593 43.8363C57.8593 45.4325 58.9662 46.5933 61.4859 46.5933C64.0055 46.5933 66.9329 45.2438 66.9329 41.8773V40.5714V40.5279ZM98.5962 27.0767H90.8771V51.6574H98.5962V27.0767ZM118.215 47.7832C116.529 49.9142 113.931 51.1251 111.209 51.048C104.699 51.048 100.126 46.9851 100.126 38.7431C100.126 30.5012 105.005 26.5833 111.559 26.5833C114.116 26.5004 116.564 27.6178 118.171 29.6014V27.0912H125.876V48.7553C125.876 52.7747 124.769 55.7784 122.598 57.8389C120.429 59.8993 117.195 60.9442 113.015 60.9442C105.602 60.9442 101.873 56.9247 100.912 52.2378L107.918 52.0928C108.719 54.2548 110.394 54.9948 112.957 54.9948C114.317 55.0811 115.666 54.7079 116.787 53.9356C117.82 53.0046 118.359 51.6474 118.244 50.2644L118.215 47.7832ZM113.277 32.7648C116.292 32.7648 118.564 34.6221 118.564 38.7431C118.564 42.5014 116.35 44.8665 113.277 44.8665C110.204 44.8665 107.99 42.5014 107.99 38.7866C107.99 34.6221 110.262 32.7648 113.277 32.7648ZM140.6 26.5398C147.562 26.5398 153.811 30.6028 153.811 39.4541C153.811 48.3055 147.562 52.3104 140.6 52.3104C133.639 52.3104 127.493 48.291 127.493 39.4541C127.493 30.6172 133.58 26.5398 140.586 26.5398H140.6ZM145.945 39.4541C145.945 43.7202 143.674 46.129 140.6 46.129L140.586 46.1144C137.469 46.1144 135.298 43.7637 135.298 39.4396C135.298 35.1155 137.571 32.7067 140.586 32.7067C143.601 32.7067 145.945 35.1881 145.945 39.4541ZM35.5028 41.6742H48.8293C48.9187 40.8794 48.9528 40.0795 48.9312 39.28C48.9312 30.4431 42.683 26.3656 35.7212 26.3656C28.7593 26.3656 22.6131 30.4286 22.6131 39.28C22.4525 42.7051 23.6988 46.0477 26.065 48.5376L20.8945 52.1363H35.8232C41.547 52.1363 46.7757 49.4228 48.4652 43.5315H40.7897C39.757 45.3015 37.7994 46.3274 35.7503 46.1725C33.0268 46.1725 30.4489 44.7214 30.4051 41.7033H35.5028V41.6742ZM41.1683 36.3054C41.1247 33.2871 38.5468 31.8362 35.8232 31.8362C33.1725 31.8362 30.4489 33.2001 30.4051 36.3054H41.1683Z" fill="#BE1E28"/>
<path fill-rule="evenodd" clip-rule="evenodd" d="M31.4547 11.035C34.1032 11.1522 36.4688 12.7051 37.6018 15.0701C39.085 18.1117 37.6891 20.7229 35.159 22.6742L34.9263 22.8463C35.0572 23.1189 35.6825 24.3241 35.8133 24.5537H35.4207C31.6527 24.437 27.9712 25.6819 25.0676 28.0544C23.3499 29.5645 22.0744 31.5018 21.3743 33.6642L20.2983 31.4546C20.8038 31.0872 21.2458 30.6415 21.6069 30.1347C21.0988 30.4538 20.5449 30.6956 19.9638 30.8521C18.5304 31.2799 16.9921 31.2141 15.6016 30.6656C14.9564 30.3929 14.3656 30.0091 13.8567 29.5322L13.6095 29.2739C11.9004 27.398 11.7142 24.6119 13.1587 22.5307C13.9247 21.409 15.0599 20.5829 16.3722 20.1921L16.5177 20.2782C16.8989 20.7512 17.3616 21.1543 17.8845 21.469C18.2016 21.6602 18.5378 21.8189 18.8878 21.9425C18.696 21.8347 18.5115 21.7149 18.3353 21.5838C17.79 21.1731 17.3432 20.649 17.0266 20.0486C16.6961 19.4342 16.5215 18.7499 16.5177 18.0544C16.5966 15.5004 18.7265 13.4752 21.3161 13.4919C21.7677 13.492 22.2174 13.5499 22.6539 13.6641C23.4332 13.8648 24.1516 14.2488 24.7478 14.7832L24.8205 14.8549C25.1324 15.1466 25.4016 15.4798 25.6201 15.8449C25.4667 15.3988 25.2461 14.9781 24.9658 14.5967V14.5106C26.309 12.2552 28.8061 10.9177 31.4547 11.035ZM98.0915 25.5723V19.4604H90.3849L98.0915 25.5723Z" fill="#E68C00"/>
</svg>
