<svg width="" height="" viewBox="0 0 63 59" fill="none" xmlns="http://www.w3.org/2000/svg">
<path d="M54.7405 9.25584C66.9592 21.2655 64.5943 40.7567 54.3464 50.7976C41.9306 63.2011 19.0698 60.4447 8.2306 49.8132C-3.1998 38.1973 -2.21442 18.903 8.03353 8.46832C19.4639 -2.95074 42.3247 -2.95074 54.7405 9.25584Z" fill="black"/>
<path fill-rule="evenodd" clip-rule="evenodd" d="M30.1877 38.868C29.9951 38.9626 29.7806 38.9295 29.7138 38.7976C29.6438 38.6596 29.7475 38.4709 29.941 38.3745C30.1371 38.2774 30.3469 38.309 30.4179 38.4454C30.4841 38.5803 30.3835 38.7695 30.1877 38.868ZM28.6984 39.2992C28.4898 39.3642 28.2864 39.2951 28.2412 39.1526C28.1982 39.0081 28.3253 38.8397 28.5353 38.7742C28.7412 38.7099 28.947 38.777 28.9899 38.9215C29.0376 39.0675 28.9044 39.2349 28.6984 39.2992ZM27.4714 39.1857C27.4696 39.3361 27.2906 39.4568 27.0756 39.4566C26.8609 39.4521 26.682 39.3287 26.6807 39.1777C26.6807 39.0263 26.859 38.903 27.0768 38.9081C27.2925 38.9109 27.471 39.033 27.471 39.1844L27.4714 39.1857ZM26.0638 39.1733C26.0009 39.3087 25.787 39.3411 25.5954 39.2385C25.3992 39.14 25.2963 38.9501 25.3623 38.8153C25.4273 38.6821 25.6416 38.651 25.8355 38.7516C26.0286 38.8495 26.1359 39.0395 26.0638 39.1733ZM24.7237 38.3175C24.6395 38.4249 24.4447 38.4045 24.2887 38.2801C24.135 38.1536 24.0792 37.9657 24.1665 37.8589C24.2504 37.7502 24.4444 37.7679 24.6017 37.8919C24.7558 38.0198 24.812 38.209 24.7237 38.3175ZM23.839 37.4989C23.7791 37.6006 23.6056 37.6126 23.4576 37.5201C23.3064 37.4314 23.2342 37.2711 23.298 37.1683C23.3605 37.0659 23.5287 37.0554 23.6807 37.1467C23.8326 37.2381 23.9033 37.393 23.839 37.4989ZM22.4619 37.115C22.3192 37.0938 22.2119 36.9966 22.2285 36.8961C22.2373 36.7936 22.3679 36.7298 22.5141 36.7529C22.6568 36.7741 22.7645 36.8726 22.7469 36.9748C22.737 37.0734 22.6068 37.1385 22.4633 37.1146L22.4619 37.115ZM42.3689 22.1116C41.7964 20.184 40.6498 18.8064 39.1603 17.8971C39.2101 17.4 39.2753 15.4293 37.6 13.2735C37.6 13.2735 35.9925 13.2281 33.3276 16.4861C31.783 16.5101 30.2481 16.7409 28.7651 17.172C27.2839 17.6047 25.8687 18.2338 24.5585 19.0419C20.5366 17.7299 19.2063 18.633 19.2063 18.633C18.9803 21.343 20.111 22.9651 20.4259 23.3559C19.6721 24.919 19.4558 26.6939 20.0282 28.6215C22.0373 35.3871 26.575 35.7078 30.5959 35.0213C30.2273 35.6084 30.0044 36.52 30.1854 37.7065C29.3211 38.4481 27.0182 39.9673 24.6548 37.7237C24.6548 37.7237 23.2255 36.2985 21.4314 36.6858C21.4314 36.6858 19.7159 37.1615 21.63 37.7944C21.63 37.7944 22.9393 38.0038 24.3416 39.8123C24.3416 39.8123 26.3057 42.662 30.8578 40.176C31.304 41.6493 31.7324 43.0335 31.8577 43.4552L40.5386 40.9252C40.3661 40.3444 39.8229 38.4369 39.1213 36.0743C38.632 34.4266 37.753 33.515 36.9627 33.1514C40.7316 31.5775 44.3832 28.89 42.3698 22.1099" fill="#F2F2F2"/>
</svg>
