<svg width="166" height="74" viewBox="0 0 166 74" fill="none" xmlns="http://www.w3.org/2000/svg">
<path d="M49.5558 34.8583C49.6677 35.7737 49.7052 36.5367 49.7052 37.1848C49.7052 44.9281 44.2807 50.4964 36.7228 50.4964C29.1282 50.4964 23.2168 44.6606 23.2168 37.1471C23.2168 29.6714 29.0907 23.7974 36.6109 23.7974C42.185 23.7974 47.0858 26.4677 48.8442 31.4633L42.8959 33.2189C41.4366 30.3195 39.0424 29.5565 36.6109 29.5565C32.5329 29.5565 29.4273 32.8367 29.4273 37.1471C29.4273 41.4953 32.6074 44.7755 36.7974 44.7755C40.09 44.7755 42.4848 43.0206 43.4196 40.1985H35.7499V34.8583H49.5558ZM66.8764 40.3507C66.8764 37.376 64.6687 35.3927 62.349 35.3927C59.9173 35.3927 57.7098 37.376 57.7098 40.3507C57.7098 43.3635 59.9173 45.3092 62.349 45.3092C64.6687 45.3092 66.8764 43.3635 66.8764 40.3507ZM72.6382 40.3507C72.6382 46.4154 67.9237 50.4586 62.349 50.4586C56.6628 50.4586 51.9485 46.4154 51.9485 40.3507C51.9485 34.3242 56.6628 30.2817 62.349 30.2817C67.9237 30.2817 72.6382 34.3242 72.6382 40.3507ZM85.4318 44.4704C90.1086 44.4704 93.1766 41.5717 93.1766 37.1476C93.1766 32.723 90.1086 29.8236 85.4318 29.8236H81.915V44.4704H85.4318ZM85.6564 24.3694C93.9251 24.3694 99.3872 29.557 99.3872 37.1476C99.3872 44.737 93.9251 49.9247 85.6564 49.9247H75.7421V24.3694H85.6564ZM107.616 38.177H115.36C114.8 36.1178 113.303 35.1635 111.582 35.1635C109.898 35.1635 108.178 36.232 107.616 38.177ZM121.272 41.914H107.504C107.99 44.2035 109.524 45.6139 111.545 45.6139C112.929 45.6139 114.537 45.2715 115.548 43.4023L120.861 44.5084C119.252 48.5509 115.847 50.4967 111.545 50.4967C106.12 50.4967 101.63 46.4159 101.63 40.3504C101.63 34.3246 106.12 30.2055 111.582 30.2055C116.895 30.2055 121.16 34.0956 121.272 40.3504V41.914ZM129.128 38.177H136.872C136.31 36.1178 134.814 35.1635 133.094 35.1635C131.41 35.1635 129.689 36.232 129.128 38.177ZM142.783 41.914H129.016C129.502 44.2035 131.035 45.6139 133.056 45.6139C134.44 45.6139 136.049 45.2715 137.06 43.4023L142.372 44.5084C140.763 48.5509 137.359 50.4967 133.056 50.4967C127.631 50.4967 123.142 46.4159 123.142 40.3504C123.142 34.3246 127.631 30.2055 133.094 30.2055C138.406 30.2055 142.671 34.0956 142.783 40.3504V41.914Z" fill="#DFDFDF"/>
</svg>
