<svg width="166" height="74" viewBox="0 0 166 74" fill="none" xmlns="http://www.w3.org/2000/svg">
<g clip-path="url(#clip0)">
<path fill-rule="evenodd" clip-rule="evenodd" d="M26.9404 34.9151C27.1138 34.8035 27.2915 34.6983 27.4685 34.5919C27.6757 35.4329 27.7994 36.3066 27.7994 37.2104C27.7994 43.3128 22.7976 48.2771 16.6503 48.2771C10.5029 48.2771 5.50107 43.3122 5.50107 37.2104C5.50107 31.1086 10.5023 26.1437 16.6503 26.1437C19.5877 26.1437 22.2542 27.2872 24.2474 29.137C24.0787 29.2481 23.9123 29.3621 23.7584 29.4914C21.88 27.7849 19.3912 26.7313 16.6503 26.7313C10.8291 26.7313 6.09308 31.4323 6.09308 37.2104C6.09308 42.9885 10.8291 47.6894 16.6503 47.6894C22.4714 47.6894 27.2074 42.9885 27.2074 37.2104C27.2074 36.4207 27.1086 35.6549 26.9404 34.9151ZM16.7237 20.3145C25.945 20.3145 33.4475 27.7614 33.4475 36.9145C33.4475 46.0675 25.945 53.5145 16.7237 53.5145C7.50249 53.5145 0 46.0675 0 36.9145C0 34.5049 0.526723 32.2174 1.46084 30.1495C1.63019 30.2655 1.79291 30.3893 1.952 30.5192C1.08719 32.4794 0.602657 34.6413 0.602657 36.9145C0.602657 45.7378 7.83454 52.9163 16.7237 52.9163C25.6129 52.9163 32.8449 45.7378 32.8449 36.9145C32.8449 28.091 25.6129 20.9127 16.7237 20.9127C12.4075 20.9127 8.48542 22.6097 5.58904 25.3614C5.44802 25.2197 5.3058 25.0803 5.16176 24.9415C8.16781 22.0803 12.24 20.3145 16.7237 20.3145ZM16.7237 42.8166C13.645 42.8166 11.1491 40.3393 11.1491 37.2834C11.1491 34.2274 13.645 31.75 16.7237 31.75C19.8025 31.75 22.2983 34.2274 22.2983 37.2834C22.2983 40.3393 19.8025 42.8166 16.7237 42.8166ZM26.0147 33.5945C24.9885 33.5945 24.1565 32.7687 24.1565 31.75C24.1565 30.7313 24.9885 29.9056 26.0147 29.9056C27.041 29.9056 27.873 30.7313 27.873 31.75C27.873 32.7687 27.041 33.5945 26.0147 33.5945ZM3.34475 29.5367C2.31849 29.5367 1.48656 28.7109 1.48656 27.6922C1.48656 26.6736 2.31849 25.8478 3.34475 25.8478C4.371 25.8478 5.20295 26.6736 5.20295 27.6922C5.20295 28.7109 4.371 29.5367 3.34475 29.5367ZM57.8026 36.8876H58.0058V42.8905H56.1298V42.0401C55.2714 42.5021 54.2688 42.77 53.1254 42.77C49.9138 42.77 47.2787 40.5575 47.2787 37.1412C47.2787 33.7087 49.9138 31.5287 53.1254 31.5287C55.4146 31.5287 56.8474 32.6675 57.6708 33.9527L55.7275 34.9938C55.2334 34.2293 54.2947 33.5785 53.1254 33.5785C51.1326 33.5785 49.6833 35.0915 49.6833 37.1412C49.6833 39.191 51.1326 40.7039 53.1254 40.7039C54.097 40.7039 55.0193 40.2809 55.464 39.8742L55.7275 39.6732L56.1298 39.2723V38.5728H53.779V36.8876H57.8026ZM66.6039 42.7536C63.2606 42.7536 61.6466 40.8991 61.6466 38.2311V31.7077H64.0182V38.1498C64.0182 39.6627 64.9076 40.7039 66.6039 40.7039C68.3002 40.7039 69.1731 39.6627 69.1731 38.1498V31.7077H71.5611V38.2149C71.5611 40.9153 69.9471 42.7536 66.6039 42.7536ZM85.402 42.5585H82.734L82.0588 40.7201H77.3486L76.6568 42.5585H73.9888L78.2378 31.7077H81.1694L85.402 42.5585ZM81.4165 38.6866L79.7036 34.0178L77.9908 38.6866H81.4165ZM97.2995 42.5585H94.615L92.4575 38.703H90.7448V42.5585H88.4061V31.7077H93.5445C95.8337 31.7077 97.2336 33.188 97.2336 35.2053C97.2336 37.125 96.0149 38.1498 94.8291 38.4264L97.2995 42.5585ZM93.1986 36.6695C94.1374 36.6695 94.8456 36.1163 94.8456 35.2053C94.8456 34.2943 94.1374 33.7412 93.1986 33.7412H90.7448V36.6695H93.1986ZM105.31 42.5585H100.979V31.7077H105.31C108.752 31.7077 111.14 33.8714 111.14 37.1412C111.14 40.4111 108.752 42.5585 105.31 42.5585ZM105.31 40.525C107.484 40.525 108.752 38.9795 108.752 37.1412C108.752 35.2215 107.567 33.7412 105.31 33.7412H103.317V40.525H105.31ZM123.68 42.5585H120.995L118.838 38.703H117.126V42.5585H114.787V31.7077H119.925C122.214 31.7077 123.614 33.188 123.614 35.2053C123.614 37.125 122.396 38.1498 121.209 38.4264L123.68 42.5585ZM119.58 36.6695C120.518 36.6695 121.226 36.1163 121.226 35.2053C121.226 34.2943 120.518 33.7412 119.58 33.7412H117.126V36.6695H119.58ZM137.603 42.5585H134.936L134.26 40.7201H129.55L128.858 42.5585H126.19L130.439 31.7077H133.371L137.603 42.5585ZM133.618 38.6866L131.905 34.0178L130.192 38.6866H133.618ZM142.946 42.5585H140.608V31.7077H142.946V42.5585ZM155.095 42.5585H147.103V31.7077H149.442V40.525H155.095V42.5585ZM161.603 42.7536C159.495 42.7536 157.979 42.0541 156.959 41.0293L158.226 39.2723C159.001 40.0694 160.203 40.7365 161.718 40.7365C163.002 40.7365 163.628 40.1508 163.628 39.5326C163.628 37.613 157.305 38.9307 157.305 34.8475C157.305 33.0417 158.885 31.545 161.471 31.545C163.217 31.545 164.666 32.0656 165.753 33.058L164.452 34.7498C163.563 33.9364 162.376 33.5622 161.257 33.5622C160.252 33.5622 159.692 34.0014 159.692 34.6522C159.692 36.3766 166 35.2215 166 39.2723C166 41.257 164.567 42.7536 161.603 42.7536Z" fill="#DFDFDF"/>
</g>
<defs>
<clipPath id="clip0">
<path d="M0 0H166V73.7133H0V0Z" fill="white"/>
</clipPath>
</defs>
</svg>
