<svg width="166" height="75" viewBox="0 0 166 75" fill="none" xmlns="http://www.w3.org/2000/svg">
<g clip-path="url(#clip0)">
<path fill-rule="evenodd" clip-rule="evenodd" d="M122.025 26.9023H117.967V44.8425C117.967 49.5747 120.775 50.1538 123.027 50.1538C123.458 50.1471 123.889 50.1137 124.317 50.0539V46.4498C124.112 46.4644 123.907 46.4644 123.702 46.4498C122.64 46.4498 122.025 45.9907 122.025 44.1837V26.9023ZM41.4758 26.9422H37.3184V49.9042H41.4758V26.9422ZM87.6938 47.009C85.9696 46.9881 84.3106 46.3431 83.0205 45.192L81.1947 47.8776C82.959 49.4766 85.2601 50.3435 87.6343 50.3035C91.4048 50.3035 93.8459 48.1271 93.8459 45.212C93.8459 42.0201 91.0111 40.9681 88.6861 40.1052C87.0697 39.5053 85.6994 38.9968 85.6994 37.924C85.6994 36.8858 86.5627 36.3366 87.9816 36.3366C89.4844 36.3475 90.9432 36.8484 92.139 37.7643L93.6476 34.889C92.0832 33.6189 90.1195 32.9532 88.1106 33.0122C84.6576 33.0122 81.8298 34.7592 81.8298 38.0039C81.8298 41.2104 84.6798 42.2932 87.0083 43.1779C88.6165 43.7889 89.976 44.3054 89.976 45.3617C89.976 46.39 89.1425 47.009 87.6938 47.009ZM54.8709 33.0421C59.9015 33.0421 63.92 36.6461 63.92 41.6878C63.92 46.7294 59.8916 50.3335 54.8709 50.3335C49.8503 50.3335 45.9409 46.7793 45.9409 41.6878C45.9409 36.5962 49.9097 33.0421 54.8709 33.0421ZM58.3504 45.4572C57.4199 46.3671 56.1683 46.8679 54.8709 46.8492V46.8292H54.6725C51.9937 46.6895 49.9335 44.3932 50.0685 41.6978C49.9525 39.8682 50.8568 38.1254 52.415 37.1752C53.9733 36.2251 55.9272 36.2251 57.4855 37.1752C59.0438 38.1254 59.948 39.8682 59.832 41.6978V41.9972C59.8138 43.3026 59.2807 44.5473 58.3504 45.4572ZM70.5778 30.5563H63.0767V26.9622H82.2068V30.5563H74.7155V49.9541H70.5978L70.5778 30.5563ZM101.506 33.4215H97.7847L97.7653 56.4334H101.843V49.4449C101.845 48.9672 101.812 48.49 101.744 48.0173C102.878 49.4937 104.632 50.3537 106.487 50.3434C110.793 50.3434 113.988 46.8093 113.988 41.6978C113.988 36.5862 111.16 33.0521 106.715 33.0521C104.615 33.0029 102.64 34.0584 101.506 35.8375C101.526 35.4451 101.526 35.0519 101.506 34.6595V33.4215ZM105.832 46.8692C108.084 46.8692 109.96 45.0222 109.96 41.7477C109.96 38.4731 108.243 36.5563 105.862 36.5563C103.708 36.5563 101.704 38.1137 101.704 41.7777C101.704 44.3434 103.113 46.8692 105.792 46.8692H105.832ZM135.41 33.0021C140.441 33.0021 144.459 36.6062 144.459 41.6479C144.459 46.6895 140.431 50.2935 135.45 50.2935C130.469 50.2935 126.44 46.7294 126.44 41.6479C126.44 36.5663 130.449 33.0421 135.41 33.0421V33.0021ZM140.312 41.9074C140.301 44.6217 138.108 46.8148 135.41 46.8093V46.7894H135.152C132.473 46.6495 130.413 44.3533 130.548 41.6578C130.432 39.8282 131.336 38.0854 132.895 37.1353C134.453 36.1851 136.407 36.1851 137.965 37.1353C139.524 38.0854 140.427 39.8282 140.312 41.6578V41.9074ZM148.31 33.3815H152.436V49.9541H148.339L148.31 33.3815ZM155.801 36.8858H157.924V43.954C157.924 49.4948 162.468 50.1738 164.75 50.1738C165.169 50.1656 165.586 50.1322 166.001 50.0739V46.4698C165.755 46.5182 165.506 46.5383 165.256 46.5298C164.391 46.6249 163.53 46.3267 162.906 45.7164C162.282 45.1061 161.961 44.2476 162.031 43.375V36.9257H165.773V33.6512H162.031V28.919H158.063V33.6512H155.801V36.8858Z" fill="#DFDFDF"/>
<path fill-rule="evenodd" clip-rule="evenodd" d="M36.6401 16.143C36.5421 17.126 35.6973 17.8694 34.6994 17.8506C33.8417 17.8456 33.092 17.2761 32.8653 16.4572H0V15.4759H32.8852C33.1388 14.5206 34.0916 13.9185 35.0739 14.093C36.0561 14.2675 36.738 15.16 36.6401 16.143ZM37.2078 22.0898C37.4251 21.2522 38.188 20.6666 39.0617 20.6669L39.0518 20.6963C40.0447 20.698 40.8714 21.4512 40.9551 22.4305C41.039 23.4098 40.3519 24.2898 39.3734 24.4566C38.3948 24.6234 37.45 24.0217 37.1978 23.071H32.6076L30.2084 20.6963H0V19.7151H30.6248L33.0141 22.0898H37.2078ZM151.845 28.8606C151.845 27.8147 150.988 26.9667 149.931 26.9667C149.424 26.9667 148.937 27.1663 148.578 27.5214C148.22 27.8765 148.018 28.3583 148.018 28.8606C148.018 29.9066 148.874 30.7544 149.931 30.7544C150.988 30.7544 151.845 29.9066 151.845 28.8606ZM30.7338 25.3967C30.3174 25.3994 29.9135 25.5373 29.5838 25.7892L27.7596 23.9738H0V24.9551H27.3333L28.9592 26.5643C28.6225 27.3305 28.8327 28.2244 29.4766 28.7647C30.1206 29.3048 31.0461 29.3636 31.7544 28.9092C32.4628 28.4548 32.7866 27.5948 32.5515 26.7923C32.3164 25.99 31.5779 25.4349 30.7338 25.4261V25.3967Z" fill="#FF0000"/>
</g>
<defs>
<clipPath id="clip0">
<path d="M0 0.713379H166V74.4267H0V0.713379Z" fill="white"/>
</clipPath>
</defs>
</svg>
