<svg width="166" height="75" viewBox="0 0 166 75" fill="none" xmlns="http://www.w3.org/2000/svg">
<g clip-path="url(#clip0)">
<path d="M51.9684 45.8047L46.0791 37.8443V45.3827C46.0791 45.9641 45.8564 46.4612 45.4117 46.8735C44.9668 47.2859 44.4156 47.4924 43.7583 47.4924C43.1006 47.4924 42.5496 47.2859 42.1045 46.8735C41.6595 46.4612 41.4375 45.9641 41.4375 45.3827V29.3494C41.4375 28.7683 41.6595 28.2712 42.1045 27.8586C42.5496 27.4462 43.1006 27.2397 43.7583 27.2397C44.4156 27.2397 44.9668 27.4462 45.4117 27.8586C45.8564 28.2712 46.0791 28.7683 46.0791 29.3494V36.1002L51.9104 28.5056C52.5636 27.6615 53.3127 27.2397 54.1585 27.2397C54.8115 27.2397 55.3114 27.4123 55.6586 27.7573C56.0057 28.1027 56.1795 28.5366 56.1795 29.0588C56.1795 29.6373 55.986 30.1593 55.5993 30.6257L50.6538 36.5956L56.2982 43.9352C56.6076 44.3085 56.7623 44.7569 56.7623 45.2794C56.7623 45.8774 56.5649 46.3959 56.1695 46.8346C55.7741 47.2727 55.2493 47.4924 54.5951 47.4924C54.0949 47.4924 53.6468 47.3659 53.2524 47.1127C52.8581 46.8594 52.4297 46.4235 51.9684 45.8047Z" fill="#DFDFDF"/>
<path d="M62.1211 29.3494C62.1211 28.7683 62.343 28.2712 62.7884 27.8586C63.233 27.4462 63.7842 27.2397 64.4419 27.2397C65.0992 27.2397 65.6503 27.4462 66.0956 27.8586C66.5404 28.2712 66.7627 28.7683 66.7627 29.3494V45.383C66.7627 45.9645 66.5404 46.4615 66.0956 46.8739C65.6503 47.2859 65.0992 47.4927 64.4419 47.4927C63.7842 47.4927 63.233 47.2859 62.7884 46.8739C62.343 46.4615 62.1211 45.9645 62.1211 45.383V29.3494Z" fill="#DFDFDF"/>
<path d="M86.4912 31.993C86.162 31.993 85.785 31.9184 85.3598 31.768C84.6442 31.5245 83.8413 31.4025 82.9518 31.4025C81.3078 31.4025 79.9491 31.9274 78.876 32.9774C77.8025 34.028 77.2659 35.4907 77.2659 37.3656C77.2659 39.1097 77.8361 40.5397 78.9773 41.6552C80.1184 42.7711 81.5978 43.3291 83.416 43.3291C84.2474 43.3291 85.0213 43.1979 85.7368 42.9353C86.2012 42.7478 86.6553 42.6537 87.1006 42.6537C87.8738 42.6537 88.4349 42.9823 88.7832 43.6384C88.957 43.9761 89.0441 44.3043 89.0441 44.6228C89.0441 45.4484 88.5699 46.0952 87.6226 46.5636C86.3268 47.2201 84.7795 47.5483 82.981 47.5483C79.8281 47.5483 77.2659 46.6157 75.2929 44.7496C73.3204 42.8838 72.334 40.4223 72.334 37.3656C72.334 34.403 73.2621 31.9648 75.1189 30.0522C76.9755 28.1392 79.5866 27.1831 82.9518 27.1831C84.6151 27.1831 85.9688 27.4458 87.0136 27.9707C88.0381 28.4957 88.5508 29.1428 88.5508 29.9116C88.5508 30.2677 88.4541 30.6242 88.2609 30.9804C87.8547 31.6553 87.2647 31.993 86.4912 31.993Z" fill="#DFDFDF"/>
<path d="M104.302 45.8047L98.4131 37.8443V45.3827C98.4131 45.9641 98.1904 46.4612 97.7457 46.8735C97.3007 47.2859 96.7496 47.4924 96.0923 47.4924C95.4346 47.4924 94.8835 47.2859 94.4385 46.8735C93.9935 46.4612 93.7715 45.9641 93.7715 45.3827V29.3494C93.7715 28.7683 93.9935 28.2712 94.4385 27.8586C94.8835 27.4462 95.4346 27.2397 96.0923 27.2397C96.7496 27.2397 97.3007 27.4462 97.7457 27.8586C98.1904 28.2712 98.4131 28.7683 98.4131 29.3494V36.1002L104.244 28.5056C104.898 27.6615 105.647 27.2397 106.492 27.2397C107.146 27.2397 107.645 27.4123 107.993 27.7573C108.34 28.1027 108.514 28.5366 108.514 29.0588C108.514 29.6373 108.32 30.1593 107.933 30.6257L102.988 36.5956L108.633 43.9352C108.942 44.3085 109.097 44.7569 109.097 45.2794C109.097 45.8774 108.899 46.3959 108.504 46.8346C108.108 47.2727 107.583 47.4924 106.929 47.4924C106.429 47.4924 105.981 47.3659 105.586 47.1127C105.192 46.8594 104.763 46.4235 104.302 45.8047Z" fill="#DFDFDF"/>
<path d="M114.457 29.3494C114.457 28.7683 114.68 28.2712 115.125 27.8586C115.569 27.4462 116.121 27.2397 116.778 27.2397C117.436 27.2397 117.987 27.4462 118.432 27.8586C118.877 28.2712 119.099 28.7683 119.099 29.3494V45.383C119.099 45.9645 118.877 46.4615 118.432 46.8739C117.987 47.2859 117.436 47.4927 116.778 47.4927C116.121 47.4927 115.569 47.2859 115.125 46.8739C114.68 46.4615 114.457 45.9645 114.457 45.383V29.3494Z" fill="#DFDFDF"/>
<path fill-rule="evenodd" clip-rule="evenodd" d="M114.457 29.3494C114.457 28.7683 114.68 28.2712 115.125 27.8586C115.569 27.4462 116.121 27.2397 116.778 27.2397C117.436 27.2397 117.987 27.4462 118.432 27.8586C118.877 28.2712 119.099 28.7683 119.099 29.3494V45.383C119.099 45.9645 118.877 46.4615 118.432 46.8739C117.987 47.2859 117.436 47.4927 116.778 47.4927C116.121 47.4927 115.569 47.2859 115.125 46.8739C114.68 46.4615 114.457 45.9645 114.457 45.383V29.3494Z" fill="#E47D32"/>
<path d="M138.825 31.993C138.497 31.993 138.12 31.9184 137.695 31.768C136.979 31.5245 136.176 31.4025 135.286 31.4025C133.642 31.4025 132.284 31.9274 131.21 32.9774C130.137 34.028 129.6 35.4907 129.6 37.3656C129.6 39.1097 130.171 40.5397 131.312 41.6552C132.453 42.7711 133.933 43.3291 135.75 43.3291C136.582 43.3291 137.355 43.1979 138.071 42.9353C138.536 42.7478 138.99 42.6537 139.435 42.6537C140.208 42.6537 140.77 42.9823 141.117 43.6384C141.291 43.9761 141.378 44.3043 141.378 44.6228C141.378 45.4484 140.904 46.0952 139.957 46.5636C138.661 47.2201 137.114 47.5483 135.315 47.5483C132.163 47.5483 129.6 46.6157 127.628 44.7496C125.654 42.8838 124.668 40.4223 124.668 37.3656C124.668 34.403 125.597 31.9648 127.453 30.0522C129.31 28.1392 131.921 27.1831 135.286 27.1831C136.95 27.1831 138.303 27.4458 139.348 27.9707C140.372 28.4957 140.885 29.1428 140.885 29.9116C140.885 30.2677 140.789 30.6242 140.595 30.9804C140.189 31.6553 139.598 31.993 138.825 31.993Z" fill="#DFDFDF"/>
<path fill-rule="evenodd" clip-rule="evenodd" d="M138.825 31.993C138.497 31.993 138.12 31.9184 137.695 31.768C136.979 31.5245 136.176 31.4025 135.286 31.4025C133.642 31.4025 132.284 31.9274 131.21 32.9774C130.137 34.028 129.6 35.4907 129.6 37.3656C129.6 39.1097 130.171 40.5397 131.312 41.6552C132.453 42.7711 133.933 43.3291 135.75 43.3291C136.582 43.3291 137.355 43.1979 138.071 42.9353C138.536 42.7478 138.99 42.6537 139.435 42.6537C140.208 42.6537 140.77 42.9823 141.117 43.6384C141.291 43.9761 141.378 44.3043 141.378 44.6228C141.378 45.4484 140.904 46.0952 139.957 46.5636C138.661 47.2201 137.114 47.5483 135.315 47.5483C132.163 47.5483 129.6 46.6157 127.628 44.7496C125.654 42.8838 124.668 40.4223 124.668 37.3656C124.668 34.403 125.597 31.9648 127.453 30.0522C129.31 28.1392 131.921 27.1831 135.286 27.1831C136.95 27.1831 138.303 27.4458 139.348 27.9707C140.372 28.4957 140.885 29.1428 140.885 29.9116C140.885 30.2677 140.789 30.6242 140.595 30.9804C140.189 31.6553 139.598 31.993 138.825 31.993Z" fill="#E47D32"/>
<path fill-rule="evenodd" clip-rule="evenodd" d="M146.818 44.7637C148.839 46.6201 151.427 47.5484 154.579 47.5484C157.693 47.5484 160.269 46.5919 162.31 44.6793C164.35 42.7663 165.371 40.3291 165.371 37.3659C165.371 34.2903 164.359 31.8245 162.339 29.9678C160.318 28.1113 157.731 27.1831 154.579 27.1831C151.388 27.1831 148.791 28.1537 146.79 30.0945C144.788 32.0354 143.787 34.4592 143.787 37.3659C143.787 40.4414 144.797 42.9073 146.818 44.7637ZM150.372 33.048C151.474 31.951 152.877 31.4025 154.579 31.4025C156.241 31.4025 157.634 31.9557 158.756 33.0621C159.878 34.1686 160.438 35.6033 160.438 37.3659C160.438 39.1097 159.926 40.54 158.902 41.6556C157.876 42.7714 156.435 43.329 154.579 43.329C152.954 43.329 151.571 42.7573 150.43 41.6131C149.289 40.4698 148.718 39.0535 148.718 37.3659C148.718 35.5845 149.27 34.1451 150.372 33.048Z" fill="#DFDFDF"/>
<path fill-rule="evenodd" clip-rule="evenodd" d="M154.579 31.4025C152.877 31.4025 151.474 31.951 150.372 33.048C149.27 34.1451 148.718 35.5845 148.718 37.3659C148.718 39.0535 149.289 40.4698 150.43 41.6131C151.571 42.7573 152.954 43.329 154.579 43.329C156.435 43.329 157.876 42.7714 158.902 41.6556C159.926 40.54 160.438 39.1097 160.438 37.3659C160.438 35.6033 159.878 34.1686 158.756 33.0621C157.634 31.9557 156.241 31.4025 154.579 31.4025ZM154.579 47.5484C151.427 47.5484 148.839 46.6201 146.818 44.7637C144.797 42.9073 143.787 40.4414 143.787 37.3659C143.787 34.4592 144.788 32.0354 146.79 30.0945C148.791 28.1537 151.388 27.1831 154.579 27.1831C157.731 27.1831 160.318 28.1113 162.339 29.9678C164.359 31.8245 165.371 34.2903 165.371 37.3659C165.371 40.3291 164.35 42.7663 162.31 44.6793C160.269 46.5919 157.693 47.5484 154.579 47.5484Z" fill="#E47D32"/>
<path fill-rule="evenodd" clip-rule="evenodd" d="M10.0393 52.4764C12.0667 53.3363 14.2198 53.7725 16.4383 53.7725C18.6568 53.7725 20.81 53.3363 22.8374 52.4764C24.7948 51.6459 26.5528 50.4576 28.0619 48.9439C29.5715 47.43 30.7564 45.6668 31.5845 43.7036C32.442 41.6704 32.8767 39.511 32.8767 37.2859C32.8767 35.0605 32.442 32.9014 31.5845 30.8682C30.7564 28.9047 29.5715 27.1417 28.0619 25.628C26.5528 24.1143 24.7948 22.9256 22.8374 22.0952C20.81 21.2351 18.6568 20.7993 16.4383 20.7993C14.2198 20.7993 12.0667 21.2351 10.0393 22.0952C8.08185 22.9256 6.3239 24.1143 4.81473 25.628C3.30521 27.1417 2.12032 28.9047 1.29218 30.8682C0.434684 32.9014 0 35.0605 0 37.2859C0 39.511 0.434684 41.6704 1.29218 43.7036C2.12032 45.6668 3.30521 47.43 4.81473 48.9439C6.3239 50.4576 8.08185 51.6459 10.0393 52.4764ZM6.41649 27.2345C9.09344 24.5497 12.6527 23.0711 16.4383 23.0711C20.2241 23.0711 23.7833 24.5497 26.4602 27.2345C29.1372 29.9193 30.6114 33.4891 30.6114 37.2859C30.6114 41.0827 29.1372 44.6525 26.4602 47.3373C23.7833 50.0217 20.2241 51.5003 16.4383 51.5003C12.6527 51.5003 9.09344 50.0217 6.41649 47.3373C3.73954 44.6525 2.26532 41.0827 2.26532 37.2859C2.26532 33.4891 3.73954 29.9193 6.41649 27.2345Z" fill="#DFDFDF"/>
<path d="M18.7786 36.8535C18.3855 36.8535 18.0036 36.6482 17.7942 36.2813C17.4836 35.7369 17.672 35.0428 18.215 34.7313L27.9828 29.1266C28.5258 28.8153 29.218 29.004 29.5286 29.5487C29.8393 30.0932 29.651 30.7873 29.1079 31.0987L19.3401 36.7034C19.1626 36.805 18.9693 36.8535 18.7786 36.8535Z" fill="#DFDFDF"/>
<path d="M18.7774 36.8534H18.7743C18.1488 36.8517 17.6432 36.3417 17.6445 35.7144L17.662 29.1414C17.6634 28.5151 18.1704 28.0083 18.7945 28.0083H18.7977C19.4232 28.0101 19.9288 28.52 19.9273 29.1474L19.9098 35.7204C19.9085 36.3466 19.4014 36.8534 18.7774 36.8534Z" fill="#DFDFDF"/>
<path d="M24.4462 39.9243C24.2644 39.9243 24.08 39.8804 23.9092 39.7877L18.2393 36.717C17.6887 36.4185 17.4835 35.7294 17.7809 35.1776C18.0779 34.6254 18.7652 34.4195 19.3156 34.7179L24.9853 37.7885C25.5357 38.0865 25.7412 38.7758 25.4438 39.328C25.2391 39.7082 24.849 39.9243 24.4462 39.9243Z" fill="#DFDFDF"/>
<path d="M16.4575 53.3902C15.8338 53.3902 15.3268 52.8841 15.3251 52.2578L15.2891 39.6833C15.287 39.0559 15.7926 38.5456 16.4181 38.5435H16.4215C17.0456 38.5435 17.5523 39.0496 17.5544 39.6759L17.5904 52.2504C17.5921 52.8778 17.0868 53.388 16.4614 53.3902H16.4575Z" fill="#DFDFDF"/>
<path d="M10.755 44.1181C10.3647 44.1181 9.98491 43.9156 9.77456 43.5526C9.46043 43.0103 9.64388 42.3147 10.1848 41.9999L15.8514 38.6973C16.3923 38.3823 17.0856 38.5665 17.4 39.1088C17.7142 39.6514 17.5304 40.3466 16.9898 40.6619L11.3232 43.9642C11.1439 44.0686 10.9482 44.1181 10.755 44.1181Z" fill="#DFDFDF"/>
<path d="M21.8781 44.3083C21.6695 44.3083 21.4587 44.2507 21.2701 44.1298L15.8106 40.6373C15.2834 40.3003 15.1285 39.5976 15.4651 39.0687C15.8013 38.5398 16.5014 38.3844 17.0291 38.7218L22.4882 42.2143C23.0158 42.5517 23.1705 43.2543 22.8341 43.7832C22.6181 44.1227 22.252 44.3083 21.8781 44.3083Z" fill="#DFDFDF"/>
<path d="M15.1373 36.2813C15.4479 35.7369 15.2595 35.0428 14.7165 34.7313L4.31241 28.7826C3.7694 28.4708 3.07754 28.6599 2.76691 29.2043C2.45626 29.7491 2.6446 30.4432 3.18762 30.7546L13.5914 36.7034C13.7689 36.805 13.9622 36.8535 14.153 36.8535C14.546 36.8535 14.9279 36.6482 15.1373 36.2813Z" fill="#DFDFDF"/>
<path d="M14.1558 36.8534H14.1589C14.7844 36.8517 15.29 36.3417 15.2887 35.7144L15.2712 29.1414C15.2697 28.5151 14.7627 28.0083 14.1386 28.0083H14.1355C13.51 28.0101 13.0044 28.52 13.0059 29.1474L13.0233 35.7204C13.0247 36.3466 13.5317 36.8534 14.1558 36.8534Z" fill="#DFDFDF"/>
<path d="M8.48546 39.9243C8.66716 39.9243 8.85166 39.8804 9.02252 39.7877L14.6923 36.717C15.243 36.4185 15.4481 35.7294 15.1508 35.1776C14.8538 34.6254 14.1664 34.4195 13.616 34.7179L7.9463 37.7885C7.39595 38.0865 7.19049 38.7758 7.48786 39.328C7.69261 39.7082 8.08258 39.9243 8.48546 39.9243Z" fill="#DFDFDF"/>
</g>
<defs>
<clipPath id="clip0">
<path d="M0 0.713379H166V74.4267H0V0.713379Z" fill="white"/>
</clipPath>
</defs>
</svg>
