<svg width="166" height="75" viewBox="0 0 166 75" fill="none" xmlns="http://www.w3.org/2000/svg">
<g clip-path="url(#clip0)">
<path fill-rule="evenodd" clip-rule="evenodd" d="M33.2401 25.2056V31.3803H26.5921V37.5552H26.6364V43.7298H33.2844V37.5552H39.888V31.3803H46.5362V25.2056H33.2401ZM0 25.2056V31.3803H6.64797H6.69232V37.5552H13.3403V43.7298H19.9883V37.5552V31.3803H13.3403H13.296V25.2056H0ZM33.2844 49.9045H39.9324V43.7298H33.2844V49.9045ZM19.9883 49.9045H26.6364V43.7298H19.9883V49.9045ZM6.51502 49.9045H13.163V43.7298H6.51502V49.9045Z" fill="#008CE9"/>
<path fill-rule="evenodd" clip-rule="evenodd" d="M117 30.9447C115.58 30.8407 114.131 30.7346 112.783 31.3865C112.691 31.2281 112.7 31.0775 112.709 30.9329C112.712 30.889 112.715 30.8456 112.715 30.8028C112.714 30.5314 112.713 30.2601 112.712 29.9887C112.707 28.5665 112.703 27.1442 112.721 25.7222C112.727 25.3148 112.592 25.1875 112.181 25.2143C111.728 25.2441 111.268 25.2529 110.816 25.2125C110.319 25.1681 110.187 25.3342 110.189 25.8101C110.204 28.7355 110.202 31.661 110.201 34.5865C110.201 35.4857 110.201 36.385 110.201 37.2843C110.201 37.8932 110.201 38.5021 110.201 39.111C110.203 40.9378 110.204 42.7646 110.191 44.5912C110.189 44.9865 110.295 45.1373 110.719 45.1029C111.132 45.0693 111.553 45.0618 111.965 45.1038C112.54 45.1625 112.737 45.0129 112.729 44.4042C112.7 41.9052 112.704 39.4058 112.71 36.9065C112.711 36.2089 112.713 35.5115 112.713 34.8139C112.715 33.7069 113.274 33.1257 114.435 33.0614C115.086 33.0253 115.742 33.0325 116.395 33.0423C117.882 33.0645 118.496 33.6858 118.494 35.1309C118.493 36.1109 118.493 37.0909 118.494 38.0708C118.494 40.2306 118.495 42.3903 118.484 44.5501C118.482 44.958 118.568 45.1414 119.036 45.1047C119.548 45.0647 120.066 45.0812 120.581 45.1002C120.908 45.1122 121.03 45.0127 121.029 44.6813C121.025 43.5615 121.029 42.4417 121.033 41.3218C121.04 39.2446 121.047 37.1675 121.003 35.0914C120.946 32.4885 119.671 31.1383 117.15 30.9557L117 30.9447ZM73.5952 28.7448L73.8706 27.7101L73.9766 27.7253V28.3272L73.9762 36.8333C73.9762 37.4868 73.977 38.1402 73.9778 38.7937C73.9801 40.7092 73.9824 42.6247 73.9649 44.5401C73.9607 44.9977 74.1008 45.1454 74.563 45.1025C74.9361 45.0681 75.3178 45.0691 75.691 45.1023C76.1496 45.1431 76.2984 45.0019 76.2945 44.5398C76.2772 42.536 76.2794 40.5322 76.2817 38.5284V38.5283C76.2824 37.8491 76.2832 37.1699 76.2832 36.4907C76.2832 35.666 76.2828 34.8416 76.2824 34.017V34.017V34.0169V34.0169V34.0169V34.0169V34.0169C76.2811 31.2639 76.2797 28.511 76.293 25.7582C76.2952 25.3287 76.168 25.1985 75.7244 25.2122C74.7746 25.2416 73.8221 25.2422 72.8722 25.2116C72.4384 25.1976 72.2621 25.3177 72.1654 25.7434C71.5074 28.6404 70.8204 31.5313 70.1278 34.4208C70.1144 34.4766 70.1071 34.5355 70.0997 34.5955C70.0773 34.7767 70.0537 34.9675 69.8589 35.1045C69.8417 35.0461 69.8242 34.9899 69.8071 34.9347C69.771 34.8186 69.7366 34.7078 69.7105 34.5954C69.565 33.9702 69.419 33.345 69.2729 32.7198C68.7347 30.4151 68.1964 28.1103 67.6803 25.801C67.5758 25.333 67.3906 25.1864 66.8991 25.2093C66.2719 25.2385 65.6429 25.2323 65.0139 25.2262C64.751 25.2236 64.488 25.221 64.2252 25.221C63.4168 25.2211 63.4164 25.2211 63.4164 25.9719V34.5731V38.8737C63.4164 39.3707 63.4171 39.8676 63.4177 40.3646C63.4196 41.7706 63.4215 43.1766 63.4083 44.5824C63.4046 44.9706 63.5072 45.1385 63.9354 45.1021C64.3089 45.0705 64.6914 45.0631 65.0631 45.1034C65.5781 45.1593 65.6756 44.954 65.6742 44.4953C65.6612 40.3316 65.6622 36.1679 65.6632 32.0041C65.6634 30.8967 65.6637 29.7893 65.6637 28.682V27.6473C65.8282 27.8193 65.8621 27.9792 65.8936 28.1273V28.1273C65.9008 28.1612 65.9078 28.1944 65.9163 28.227C66.1088 28.9685 66.302 29.7098 66.4951 30.4511C67.1329 32.8991 67.7706 35.3471 68.3889 37.7997C68.5144 38.297 68.7198 38.5052 69.263 38.4408C69.6728 38.3922 70.095 38.4116 70.5095 38.4369C70.8882 38.4598 71.0593 38.3444 71.1551 37.9644C71.512 36.5486 71.8899 35.1378 72.2678 33.7269C72.3978 33.2417 72.5278 32.7565 72.6569 32.2711C72.9687 31.0983 73.2809 29.9256 73.593 28.7528L73.5937 28.7503L73.5944 28.7478L73.5945 28.7473L73.5952 28.7448ZM86.7637 42.5425L87.0443 41.512L87.0447 41.5104L87.0451 41.509L87.0455 41.5075L87.046 41.5053C87.2843 40.6304 87.5227 39.7556 87.76 38.8805C87.9142 38.3121 88.0688 37.7437 88.2234 37.1753C88.7441 35.2613 89.2648 33.3472 89.7701 31.4294C89.875 31.0317 90.0369 30.8589 90.4824 30.8974C90.9541 30.9382 91.4344 30.9328 91.9074 30.8993C92.3961 30.8647 92.4708 31.0209 92.3417 31.4528C91.7475 33.4374 91.1709 35.4268 90.5942 37.416L90.5941 37.4165L90.3179 38.3691C89.8081 40.1265 89.3 41.8842 88.792 43.6421C88.4744 44.7411 88.1568 45.8401 87.8387 46.939C87.711 47.38 87.5209 47.7964 87.3174 48.2104C86.7458 49.3735 85.7819 49.9029 84.4653 49.893L84.2204 49.8909C83.7869 49.887 83.3533 49.8831 82.9204 49.8972C82.6254 49.9068 82.4868 49.8325 82.502 49.5192C82.5106 49.344 82.4945 49.1582 82.4786 48.9736C82.4478 48.618 82.4175 48.2664 82.564 48.002C82.7412 47.682 83.1126 47.7243 83.4893 47.7671H83.4894C83.6746 47.7881 83.8611 47.8093 84.0264 47.7877C84.7041 47.6992 85.1194 47.3762 85.3064 46.7693C85.3824 46.5226 85.4454 46.2723 85.5086 46.022C85.5573 45.8289 85.606 45.6358 85.6606 45.4443C85.7146 45.2549 85.7504 45.0805 85.467 45.1018C85.1457 45.1259 85.0889 44.9313 85.031 44.733L85.0309 44.7329C85.0208 44.6985 85.0108 44.6639 84.9993 44.6303L84.4383 42.999C83.1234 39.1749 81.8085 35.3509 80.4952 31.5263L80.2806 30.9014C80.2806 30.9014 81.9066 30.8975 82.3885 30.9014C82.91 30.8936 83.0612 31.0584 83.1935 31.4914C84.0569 34.3211 84.9373 37.146 85.8176 39.9709L85.8176 39.9712L85.818 39.9723L85.8182 39.973L85.8213 39.983C86.0292 40.65 86.2371 41.3171 86.4448 41.9843C86.4849 42.1137 86.5321 42.241 86.5792 42.3685C86.6013 42.428 86.6233 42.4875 86.6446 42.5473L86.7637 42.5425ZM160.897 36.0727V33.8866C160.897 33.1989 160.896 32.5113 160.895 31.8237V31.8215C160.893 29.8069 160.89 27.7923 160.908 25.7778C160.913 25.3157 160.766 25.2037 160.306 25.2113C159.204 25.2299 158.101 25.2267 156.998 25.2235C156.574 25.2222 156.152 25.221 155.729 25.221H155.728C154.839 25.221 154.404 25.221 154.195 25.4384C153.996 25.6468 154.005 26.0548 154.023 26.8538L154.024 26.8916C154.032 27.2819 154.179 27.3712 154.551 27.3641C155.438 27.3473 156.325 27.352 157.214 27.3567L157.582 27.3586C157.681 27.3591 157.769 27.3584 157.845 27.3578C158.131 27.3554 158.269 27.3543 158.334 27.4226C158.396 27.4865 158.393 27.611 158.389 27.8518C158.388 27.9246 158.387 28.0081 158.387 28.1038C158.39 30.2271 158.389 32.3504 158.389 34.4737C158.388 35.4341 158.388 36.3944 158.388 37.3547C158.388 37.8628 158.388 38.3708 158.386 38.8789C158.381 40.084 158.377 41.2892 158.397 42.494C158.423 44.1587 159.399 45.0795 161.101 45.0934L161.261 45.0947H161.262C162.239 45.1027 163.215 45.1107 164.192 45.0889C164.357 45.0852 164.538 45.1064 164.72 45.1276C165.135 45.1762 165.552 45.2248 165.781 44.973C165.988 44.7468 165.948 44.382 165.907 44.0095C165.886 43.8099 165.864 43.6082 165.88 43.4241C165.909 43.0703 165.767 42.9651 165.407 42.9706C164.278 42.9877 163.148 42.9859 162.018 42.9713C161.11 42.9594 160.898 42.7412 160.897 41.8812C160.896 39.9451 160.896 38.0088 160.897 36.0727ZM98.8102 37.7892C98.8102 37.3975 98.8093 37.0057 98.8074 36.614V36.6136C98.8037 35.5971 98.8 34.5806 98.8213 33.5646C98.8314 33.1232 98.6829 33.0062 98.2476 33.03C97.8861 33.0495 97.5246 33.0457 97.1622 33.0418C96.9095 33.0391 96.6577 33.0365 96.405 33.0417C96.1062 33.0479 95.9707 32.9556 95.9836 32.6496C96.002 32.1936 96.0029 31.7357 95.9836 31.2798C95.9697 30.9633 96.1247 30.8957 96.4142 30.9013C96.7121 30.9071 97.01 30.9055 97.3079 30.9039C97.6639 30.902 98.0198 30.9001 98.3749 30.9107C98.7097 30.9206 98.8249 30.8143 98.8176 30.4876C98.8074 30.0529 98.8083 29.6179 98.8102 29.1829V29.1825C98.812 28.7612 98.813 28.3399 98.8047 27.9188C98.7973 27.6033 98.8867 27.4741 99.2363 27.4903C99.7693 27.5151 100.307 27.521 100.84 27.489C101.255 27.4641 101.333 27.6337 101.323 27.9877C101.313 28.3449 101.316 28.7025 101.32 29.0601C101.323 29.5021 101.327 29.944 101.305 30.3848C101.284 30.8319 101.451 30.925 101.88 30.9144C102.478 30.8994 103.076 30.9015 103.674 30.9035C104.166 30.9052 104.658 30.907 105.15 30.8992C105.503 30.8936 105.655 30.9871 105.632 31.3475C105.605 31.7645 105.603 32.1858 105.632 32.6027C105.658 32.9726 105.485 33.0486 105.142 33.0439C104.63 33.0368 104.118 33.0382 103.607 33.0395C103.009 33.041 102.411 33.0426 101.814 33.0308C101.428 33.0231 101.307 33.1326 101.308 33.5097C101.317 35.2226 101.316 36.9356 101.316 38.6485C101.315 39.714 101.315 40.7796 101.317 41.845C101.318 42.5582 101.637 42.9094 102.387 42.9446C103.296 42.9874 104.208 42.9847 105.119 42.9698C105.497 42.9636 105.66 43.0612 105.632 43.4477C105.603 43.8692 105.615 44.2942 105.627 44.7175L105.629 44.7602C105.636 45.0055 105.536 45.1001 105.282 45.0966C104.848 45.0907 104.414 45.0923 103.978 45.094C103.085 45.0973 102.191 45.1007 101.303 45.0379C99.8671 44.9363 98.8563 43.6627 98.8203 42.0137C98.7991 41.0382 98.8046 40.0619 98.8093 39.0857C98.812 38.6535 98.8139 38.2213 98.8139 37.7892H98.8102ZM134.203 30.9082C132.947 30.8698 131.686 30.8312 130.508 31.6023C130.489 31.5142 130.485 31.4257 130.48 31.3424C130.467 31.0894 130.456 30.8857 130.044 30.8966C128.939 30.9257 127.832 30.9156 126.727 30.9056L126.359 30.9023C126.06 30.8997 125.924 30.9807 125.938 31.2896C125.959 31.7456 125.959 32.2039 125.938 32.6597C125.924 32.9754 126.072 33.0513 126.364 33.0418C126.585 33.0346 126.805 33.0364 127.026 33.0383C127.241 33.0401 127.457 33.0419 127.672 33.0353C127.961 33.0264 128.105 33.0993 128.104 33.4139C128.095 36.4785 128.097 39.5434 128.103 42.6081C128.104 42.8758 128.009 42.9876 127.725 42.9797C127.505 42.9736 127.285 42.9756 127.065 42.9774C126.829 42.9793 126.593 42.9814 126.357 42.9735C126.056 42.9637 125.924 43.0591 125.938 43.3642C125.959 43.763 125.973 44.1662 125.936 44.5624C125.894 44.9936 126.05 45.1112 126.496 45.1056C127.889 45.0884 129.281 45.0911 130.674 45.0937C131.184 45.0947 131.694 45.0957 132.204 45.0957H132.205C133.068 45.0957 133.492 45.0957 133.696 44.8836C133.893 44.6783 133.883 44.2743 133.864 43.4794L133.863 43.4407C133.853 43.0485 133.702 42.9609 133.333 42.971C132.929 42.9821 132.525 42.9801 132.121 42.9781C131.771 42.9765 131.423 42.9747 131.074 42.9815C130.757 42.9876 130.607 42.9104 130.608 42.5699C130.613 41.5674 130.612 40.5649 130.611 39.5623C130.609 38.0521 130.607 36.5419 130.626 35.0318C130.639 33.8902 131.406 33.2102 132.594 33.1832C132.951 33.175 133.309 33.1764 133.666 33.1779C133.804 33.1784 133.942 33.179 134.08 33.179H134.081C135.07 33.1788 135.56 33.1787 135.784 32.9345C136.004 32.6948 135.967 32.22 135.895 31.279V31.2789C135.895 31.2599 135.895 31.2408 135.895 31.2218C135.91 31.0077 135.809 30.8971 135.584 30.9101C135.127 30.9365 134.665 30.9223 134.203 30.9082ZM146.995 36.9105C146.995 37.4008 146.996 37.8912 146.997 38.3815V38.3829C147 39.7373 147.003 41.0917 146.985 42.4457C146.979 42.8834 147.127 42.9959 147.562 42.9856C148.126 42.9723 148.69 42.9745 149.256 42.9766C149.8 42.9785 150.344 42.9805 150.888 42.9689C151.287 42.9604 151.408 43.0921 151.384 43.4594C151.357 43.8761 151.361 44.2967 151.383 44.714C151.399 45.0217 151.267 45.1012 150.968 45.0999C148.949 45.0911 146.928 45.0828 144.908 45.1043C144.474 45.1089 144.479 44.8942 144.484 44.6415C144.485 44.6133 144.485 44.5848 144.485 44.556C144.486 43.5652 144.485 42.5744 144.484 41.5837C144.483 38.9601 144.481 36.3368 144.501 33.7134C144.504 33.162 144.355 33 143.78 33.0252C143.188 33.0514 142.594 33.047 142 33.0426C141.544 33.0393 141.088 33.036 140.633 33.0464C140.232 33.0555 140.111 32.9176 140.133 32.5524C140.159 32.1353 140.152 31.7154 140.136 31.2973C140.126 31.0038 140.241 30.899 140.551 30.9005C142.551 30.9101 144.551 30.9141 146.551 30.898C146.942 30.8948 147.003 31.0532 147.001 31.3751C146.993 32.7494 146.994 34.1238 146.994 35.4982C146.995 35.9689 146.995 36.4397 146.995 36.9105ZM144.506 27.6207C144.67 27.787 145.002 27.787 145.679 27.787H145.857C146.507 27.787 146.83 27.787 146.99 27.6259C147.147 27.4677 147.147 27.154 147.147 26.5323C147.147 25.8904 147.147 25.5623 146.982 25.3947C146.811 25.2196 146.46 25.2196 145.745 25.2196C145.032 25.2196 144.683 25.2196 144.513 25.3939C144.35 25.5608 144.35 25.8875 144.35 26.5271C144.35 27.1455 144.35 27.4604 144.506 27.6207Z" fill="#DFDFDF"/>
</g>
<defs>
<clipPath id="clip0">
<path d="M0 0.713379H166V74.4267H0V0.713379Z" fill="white"/>
</clipPath>
</defs>
</svg>
