<svg width="166" height="74" viewBox="0 0 166 74" fill="none" xmlns="http://www.w3.org/2000/svg">
<path d="M83.7362 2.79137L85.4539 4.51469C85.4539 4.51469 85.4539 4.3916 85.3312 4.3916L83.7362 2.79137C83.6135 2.64776 83.7362 2.79137 83.7362 2.79137Z" fill="#BD9C15"/>
<path d="M72.5488 17.7271L74.2666 19.4504C74.3893 19.5735 74.3893 19.5735 74.5324 19.5735L72.8147 17.8501C72.6715 17.8501 72.5488 17.8501 72.5488 17.7271Z" fill="#BD9C15"/>
<path d="M85.4541 5.56114L87.1718 7.28447L85.4541 4.49432L83.7363 2.7915L85.4541 5.56114Z" fill="#BA9A16"/>
<path d="M72.7949 17.8501L74.5127 19.5734L77.805 20.2299L75.9646 18.5066L72.7949 17.8501Z" fill="#BA9A16"/>
<path d="M75.3086 24.5996L77.0263 26.3229L75.3086 24.5996Z" fill="#BD9C15"/>
<path d="M81.7522 18.7731L83.4699 20.4964C83.3472 20.3733 83.3472 20.3733 83.2041 20.2297L81.4863 18.5063C81.6295 18.65 81.6295 18.7731 81.7522 18.7731Z" fill="#BD9C15"/>
<path d="M81.5052 18.5064L83.2229 20.2297C82.0368 18.9167 81.9142 16.9267 82.6912 15.3469C83.7546 13.0902 85.9836 11.9208 88.0899 12.167C89.0101 12.2901 89.8076 12.7004 90.5847 13.3569L88.8669 11.6336C88.2126 10.9771 87.2923 10.5668 86.3721 10.4437C84.2658 10.177 82.0164 11.3669 80.9735 13.6236C80.176 15.3469 80.4418 17.3165 81.5052 18.5064Z" fill="#BD9C15"/>
<path d="M95.3317 6.4842L97.0494 8.20753C97.1721 7.94082 97.1721 7.67412 96.9267 7.40741L95.209 5.68408C95.4544 5.82769 95.4544 6.21749 95.3317 6.4842Z" fill="#BD9C15"/>
<path d="M93.6113 9.52071L95.3291 11.244L97.0468 8.06409L95.3291 6.48438L93.6113 9.52071Z" fill="#BA9A16"/>
<path d="M75.3086 24.7231L77.149 26.3029L81.0958 29.093L79.3985 27.3697L75.3086 24.7231Z" fill="#BA9A16"/>
<path d="M94.5316 11.7772L96.2493 13.5006C95.9835 12.7005 95.7176 11.9209 95.3291 11.2438L93.6113 9.52051C94.0203 10.3206 94.2657 10.9771 94.5316 11.7772Z" fill="#BD9C15"/>
<path d="M82.6899 24.6527L80.2422 27.2437L81.9639 28.8807L84.4115 26.2898L82.6899 24.6527Z" fill="#BA9A16"/>
<path d="M79.4004 27.3692L81.1181 29.0925C81.2408 29.0925 81.2408 29.2156 81.384 29.2156C81.5067 29.2156 81.7725 29.2156 81.9157 28.9489L80.1979 27.2256C80.0752 27.3487 79.8094 27.4923 79.6662 27.4923C79.5231 27.4923 79.4004 27.4923 79.4004 27.3692Z" fill="#BD9C15"/>
<path d="M82.6934 24.7231L84.4111 26.4465C84.5338 26.4465 84.7997 26.4465 84.9428 26.5696C85.5972 26.6927 86.2516 26.6927 86.9264 26.5696L85.2086 24.8462C84.5543 24.8462 83.8999 24.8462 83.225 24.8462C83.0819 24.7231 82.8161 24.7231 82.6934 24.7231Z" fill="#BD9C15"/>
<path d="M98.234 13.0905L99.9518 14.8139C99.9518 14.5472 99.9518 14.4241 99.8291 14.2805L98.1113 12.5571C98.234 12.7007 98.234 12.8238 98.234 13.0905Z" fill="#BD9C15"/>
<path d="M91.9141 21.2967L93.6318 23.0201C93.8977 22.7534 94.1635 22.3636 94.4293 21.9532C94.6952 21.5634 94.961 21.1531 95.0837 20.8864L93.366 19.1631C93.2433 19.5529 92.9774 19.9632 92.7116 20.2299C92.4253 20.6197 92.1595 21.03 91.9141 21.2967Z" fill="#BD9C15"/>
<path d="M86.9062 27.6357L88.624 29.3591C88.7467 29.4822 88.8898 29.4822 89.0125 29.4822C89.1352 29.4822 89.2784 29.4822 89.4011 29.3591L87.6833 27.6357C87.5606 27.7588 87.4175 27.7588 87.2948 27.7588C87.0289 27.7588 87.0289 27.7588 86.9062 27.6357Z" fill="#BD9C15"/>
<path d="M93.4902 19.1632L95.208 20.8866L98.623 20.4968L96.9053 18.7734L93.4902 19.1632Z" fill="#BA9A16"/>
<path d="M97.4375 18.2398L99.2779 19.84L99.9323 14.8137L98.235 13.0903L97.4375 18.2398Z" fill="#BA9A16"/>
<path d="M96.9043 18.7732L98.622 20.4965C98.8879 20.4965 99.1537 20.2298 99.2764 19.84L97.5587 18.1167C97.436 18.5065 97.1701 18.7732 96.9043 18.7732Z" fill="#BD9C15"/>
<path d="M92.6911 24.5994L94.5316 26.1791L93.6114 22.9992L91.9141 21.2964L92.6911 24.5994Z" fill="#BA9A16"/>
<path d="M87.5586 27.7593L89.399 29.3595L94.1433 26.9797L92.3028 25.2563L87.5586 27.7593Z" fill="#BA9A16"/>
<path d="M73.7351 11.5109C73.4693 11.5109 73.2034 11.7776 73.0807 12.1674L72.2832 17.3169C72.2832 17.7067 72.4059 17.9734 72.6717 17.9734L75.9641 18.6299C76.2299 19.43 76.4958 20.2096 76.8843 20.8866L75.1666 24.0666C75.0439 24.3333 75.0439 24.7231 75.2893 24.8667L79.236 27.6363C79.3587 27.6363 79.3587 27.7594 79.5018 27.7594C79.6245 27.7594 79.8904 27.7594 80.0335 27.4927L82.5283 24.8462C82.651 24.8462 82.9169 24.8462 83.06 24.9692C83.7144 25.0923 84.3688 25.0923 85.0436 24.9692L86.7614 27.7389C86.8841 27.862 87.0272 28.0056 87.1499 28.0056C87.2726 28.0056 87.4157 28.0056 87.5384 27.8825L92.2827 25.5027C92.5485 25.3796 92.6712 24.9692 92.6712 24.7025L91.8737 21.3995C92.1395 21.1328 92.4054 20.743 92.6712 20.3327C92.9371 19.9429 93.2029 19.5326 93.3256 19.2659L96.7407 18.8761C97.0065 18.8761 97.2723 18.6093 97.395 18.2195L98.1926 13.0701C98.1926 12.6803 98.0699 12.4136 97.804 12.4136L94.5117 11.7571C94.2458 10.957 93.98 10.1774 93.5915 9.50033L95.3092 6.32038C95.4319 6.05368 95.4319 5.66388 95.1865 5.52027L91.2398 2.75063C91.1171 2.75063 91.1171 2.62754 90.9739 2.62754C90.7081 2.62754 90.5854 2.62754 90.4422 2.89424L87.9474 5.54078C87.8247 5.54078 87.5589 5.54078 87.4157 5.41769C86.7614 5.29459 86.2297 5.29459 85.5753 5.41769L83.8575 2.64805C83.7349 2.52496 83.5917 2.38135 83.469 2.38135C83.3463 2.38135 83.2032 2.38135 83.0805 2.50444L78.3362 4.88428C78.0704 5.00737 77.9477 5.41769 77.9477 5.68439L78.7452 8.98744C78.4794 9.25414 78.2135 9.64394 77.9477 10.0543C77.6818 10.4441 77.416 10.8544 77.2933 11.1211L73.7351 11.5109ZM81.5059 18.5068C80.3198 17.1938 80.1971 15.2037 80.9742 13.624C82.0376 11.3673 84.2665 10.1979 86.3728 10.4441C87.4362 10.5672 88.3564 10.9775 89.1335 11.9007C90.3195 13.2137 90.4422 15.0806 89.6652 16.7834C88.6018 19.0402 86.3728 20.2096 84.2665 19.9634C83.2032 19.8403 82.2829 19.43 81.5059 18.5068Z" fill="#F3C91D"/>
<path d="M92.3047 25.2562L94.0224 26.9795C94.2883 26.8564 94.411 26.4461 94.411 26.1794L92.6932 24.4561C92.8364 24.8459 92.5705 25.1126 92.3047 25.2562Z" fill="#BD9C15"/>
<path d="M100.789 56.3172V35.8425C100.789 35.8425 102.364 32.8061 105.656 31.6162V32.9292V56.4609L100.789 56.3172Z" fill="#DFDFDF"/>
<path d="M91.4241 45.8746L98.0088 37.4221H92.7329L86.414 45.6079H86.1482V31.7393C82.9785 32.9292 81.2812 35.9655 81.2812 35.9655V56.4403H86.1482V51.0241L87.8659 48.911L92.7329 56.4403H98.3974L91.4241 45.8746Z" fill="#DFDFDF"/>
<path d="M127.006 46.6543C127.006 52.8706 123.325 56.8302 117.66 56.8302C111.873 56.8302 108.172 52.9937 108.172 46.6543C108.172 40.438 111.853 36.6016 117.66 36.6016C123.304 36.6221 127.006 40.4585 127.006 46.6543ZM113.039 46.6543C113.039 50.3472 114.757 52.727 117.517 52.727C120.155 52.727 121.996 50.3472 121.996 46.6543C121.996 42.9615 120.155 40.5816 117.517 40.5816C114.879 40.5816 113.039 42.9615 113.039 46.6543Z" fill="#DFDFDF"/>
<path d="M79.4395 50.9011C78.642 54.594 75.3496 56.8507 70.4827 56.8507C64.5523 56.8507 60.9941 53.1579 60.9941 46.798C60.9941 40.4381 64.5523 36.499 70.3395 36.499C76.1267 36.499 79.419 40.1919 79.419 46.4082V47.9879H66.2496V48.2546C66.3723 51.1678 67.9674 53.0142 70.728 53.0142C72.7116 53.0142 74.1431 52.3577 74.6748 51.0242L79.4395 50.9011ZM66.2701 44.6848H74.5725C74.4498 42.0383 72.8548 40.4586 70.4827 40.4586C68.1105 40.4586 66.3928 42.1614 66.2701 44.6848Z" fill="#DFDFDF"/>
<path d="M50.0743 37.0122H46.7819H41.8945V57.7537V64.3598C45.0642 63.1698 46.7615 60.1335 46.7615 60.1335V56.4407H49.9311C55.5956 56.4407 59.6855 52.4811 59.6855 46.7982C59.6855 40.9718 55.7388 37.0122 50.0743 37.0122ZM48.8882 52.3375H46.7819V40.9718H48.8882C52.8349 40.9718 55.0844 42.9618 55.0844 46.6546C55.0844 50.3475 52.8349 52.3375 48.8882 52.3375Z" fill="#DFDFDF"/>
<path d="M102.157 64.2775V60.5026H100.787V60.0308H104.059V60.5026H102.689V64.2775H102.157Z" fill="#DFDFDF"/>
<path d="M111.872 62.1439C111.872 63.498 111.136 64.3802 109.929 64.3802C108.702 64.3802 107.986 63.5185 107.986 62.1439C107.986 60.7694 108.743 59.9077 109.929 59.9077C111.136 59.9077 111.872 60.7694 111.872 62.1439ZM108.538 62.1439C108.538 63.1902 109.07 63.8878 109.949 63.8878C110.829 63.8878 111.34 63.2108 111.34 62.1439C111.34 61.0771 110.808 60.4001 109.949 60.4001C109.07 60.4001 108.538 61.0771 108.538 62.1439Z" fill="#DFDFDF"/>
<path d="M120.008 62.1439C120.008 63.498 119.272 64.3802 118.066 64.3802C116.839 64.3802 116.123 63.5185 116.123 62.1439C116.123 60.7694 116.88 59.9077 118.066 59.9077C119.272 59.9077 120.008 60.7694 120.008 62.1439ZM116.655 62.1439C116.655 63.1902 117.186 63.8878 118.066 63.8878C118.945 63.8878 119.456 63.2108 119.456 62.1439C119.456 61.0771 118.925 60.4001 118.066 60.4001C117.207 60.4001 116.655 61.0771 116.655 62.1439Z" fill="#DFDFDF"/>
<path d="M127.002 64.2775H124.426V60.0308H124.957V63.8057H127.002V64.2775Z" fill="#DFDFDF"/>
</svg>
