<svg width="166" height="75" viewBox="0 0 166 75" fill="none" xmlns="http://www.w3.org/2000/svg">
<g clip-path="url(#clip0)">
<path fill-rule="evenodd" clip-rule="evenodd" d="M10.3221 65.0001C10.1732 65.0378 10.0238 65.0758 9.8735 65.1136C9.03921 65.34 8.23698 65.599 7.46686 65.9871C5.67836 66.5582 3.97293 67.2409 2.24768 67.9315C2.1157 67.9844 1.98362 68.0372 1.85136 68.0901C1.65884 68.1548 1.37004 68.0901 1.2096 67.993C1.01706 67.896 0.88871 67.7018 0.824533 67.5078C0.792445 67.2813 0.824533 67.0548 0.920798 66.8607C1.01706 66.6665 1.2096 66.5695 1.40212 66.4724C1.59466 66.4077 1.7551 66.343 1.91555 66.2784C1.65884 66.2784 1.43422 66.2136 1.27377 66.0195C1.17751 65.9225 1.11333 65.793 1.08124 65.6636C1.06282 65.6451 1.05497 65.6372 1.05163 65.6276C1.04915 65.6206 1.04915 65.6127 1.04915 65.599C1.01706 65.5019 1.01706 65.4048 1.01706 65.3078C1.04915 65.0489 1.08124 64.7901 1.14542 64.5313C1.17751 64.4018 1.21762 64.2644 1.25772 64.1268C1.29784 63.9893 1.33795 63.8519 1.37004 63.7224C1.44204 63.4139 1.52412 63.1156 1.60499 62.8217C1.66829 62.5917 1.73084 62.3644 1.78719 62.1371C2.04389 61.1018 2.36479 60.0665 2.68567 59.0312C3.03864 57.8342 3.39161 56.6371 3.80877 55.4724L3.80882 55.4723C4.29012 54.1134 4.77144 52.7547 5.25276 51.4282C5.49234 50.7779 5.72134 50.1168 5.95192 49.4512C6.12281 48.958 6.29455 48.4622 6.47212 47.9665C6.72882 47.3194 6.95344 46.64 7.17806 45.9606C7.20278 45.8858 7.23226 45.8062 7.26284 45.7237C7.31164 45.592 7.36323 45.4527 7.40269 45.3134C7.43477 45.2326 7.45884 45.1436 7.4829 45.0546C7.50697 44.9657 7.53104 44.8767 7.56313 44.7958C7.54241 44.754 7.54845 44.7257 7.55532 44.6935C7.55911 44.6758 7.56313 44.657 7.56313 44.6341V44.634C7.62731 44.3752 7.69148 44.1164 7.78774 43.8576C7.85193 43.6958 7.98028 43.5664 8.17281 43.5664C8.30117 43.5664 8.42952 43.6311 8.4937 43.7605C8.50974 43.7767 8.51777 43.8009 8.52578 43.8252C8.53381 43.8495 8.54183 43.8738 8.55788 43.8899C9.5847 43.6634 10.6436 43.4693 11.6705 43.3076C13.4674 43.0163 15.2644 42.8546 17.0934 42.8223H17.9598H18.4732C18.7299 42.8223 18.9545 42.8223 19.2113 42.8546L19.9814 42.9517C20.8799 43.0488 21.8105 43.2105 22.709 43.4046C22.9921 43.4582 23.2655 43.5215 23.5346 43.584C23.7533 43.6346 23.9692 43.6846 24.185 43.7282C24.6021 43.8252 24.9871 43.9223 25.3721 44.0193L25.3723 44.0194C25.7894 44.1164 26.2387 44.2458 26.6559 44.3753L28.0999 44.8605C29.0304 45.1841 29.9288 45.5723 30.8273 45.9606C31.2124 46.1223 31.5894 46.3003 31.9665 46.4782C32.3435 46.6562 32.7206 46.8341 33.1056 46.9959C33.2225 47.0401 33.3396 47.0859 33.4569 47.1321C33.8546 47.2881 34.2568 47.4459 34.678 47.5458C34.9229 47.6281 35.1908 47.6872 35.4427 47.7427C35.4879 47.7526 35.5326 47.7625 35.5765 47.7723C35.7763 47.8299 36.0015 47.8618 36.207 47.891C36.2324 47.8946 36.2576 47.8982 36.2824 47.9017C36.8279 47.9665 37.3734 48.0312 37.9189 48.0312C38.4965 48.0636 39.042 48.0312 39.5875 47.9665C40.5822 47.8047 41.577 47.6106 42.5397 47.3841C43.4702 47.1576 44.4008 46.8341 45.2993 46.4782C45.6202 46.3488 45.9089 46.2194 46.1978 46.0577C46.5186 45.8958 46.8396 45.7018 47.1283 45.5076C47.2349 45.4359 47.3417 45.3598 47.4499 45.2826C47.6348 45.1506 47.8245 45.0153 48.0268 44.8929C48.0971 44.8487 48.1697 44.8043 48.2434 44.7594C48.4392 44.6402 48.6426 44.5162 48.8291 44.3753C48.8932 44.3429 48.9573 44.2782 49.0215 44.2135C49.2462 43.987 49.535 43.8899 49.8238 43.987C50.0163 44.0518 50.2089 44.1811 50.3051 44.3753C50.5618 44.7634 50.4013 45.2488 50.0163 45.5076C49.8559 45.6209 49.6793 45.726 49.5028 45.8311C49.3264 45.9363 49.1499 46.0415 48.9895 46.1546C48.9573 46.187 48.9573 46.2517 48.9573 46.2841C48.9413 46.4136 48.9172 46.5429 48.8932 46.6724C48.8691 46.8018 48.845 46.9312 48.8291 47.0606C48.7327 47.7077 48.6365 48.3224 48.5081 48.9694C48.46 49.1959 48.4198 49.4142 48.3798 49.6327C48.3397 49.851 48.2995 50.0694 48.2514 50.2959C48.1872 50.6032 48.1311 50.9025 48.0749 51.2018C48.0188 51.501 47.9626 51.8003 47.8984 52.1076C47.738 52.9489 47.5455 53.8224 47.3529 54.6636C47.2568 55.1162 47.1606 55.6011 47.0644 56.086L47.0641 56.0871C47.016 56.362 46.9679 56.645 46.9198 56.928C46.8716 57.2112 46.8235 57.4943 46.7754 57.7694C46.7432 58.0283 46.7031 58.279 46.6631 58.5298C46.6229 58.7806 46.5828 59.0313 46.5508 59.2901L46.3582 60.6489C46.2992 61.0796 46.2336 61.5172 46.1674 61.9584C46.0893 62.4783 46.0104 63.0033 45.9411 63.5283C45.8819 63.9753 45.8161 64.4291 45.7496 64.8866C45.6717 65.4226 45.5931 65.9638 45.5239 66.5048C45.5239 66.521 45.5159 66.5372 45.5078 66.5534C45.4998 66.5695 45.4918 66.5857 45.4918 66.6019C45.4918 66.8283 45.3634 67.0549 45.1709 67.1519C44.9356 67.2813 44.7003 67.382 44.4649 67.4826C44.3473 67.533 44.2296 67.5833 44.112 67.6372L43.3418 67.9284C43.0531 68.0255 42.7643 68.1225 42.4755 68.1872C42.1546 68.2519 41.8016 68.3166 41.4807 68.349C40.6464 68.4136 39.7801 68.3813 38.9458 68.3166C38.7532 68.3166 38.5286 68.2843 38.3361 68.2519H38.336C38.0793 68.2195 37.8226 68.1872 37.598 68.1225C37.2771 68.0577 36.9241 67.9607 36.6033 67.8637C36.2503 67.7342 35.8974 67.5725 35.5443 67.4107C34.8967 67.1114 34.2945 66.7206 33.6994 66.3345C33.5869 66.2615 33.4746 66.1886 33.3623 66.1166C33.2447 66.0411 33.127 65.962 33.0094 65.8829C32.774 65.7247 32.5387 65.5666 32.3035 65.4371C31.9504 65.2431 31.5654 65.0489 31.2124 64.8872C31.1339 64.8589 31.0545 64.8297 30.9742 64.8002C30.595 64.6605 30.1978 64.5144 29.8005 64.4342C29.6561 64.4018 29.5197 64.3695 29.3833 64.3372C29.247 64.3048 29.1106 64.2725 28.9662 64.2401C28.8218 64.2077 28.6694 64.1835 28.517 64.1592C28.3645 64.1349 28.2121 64.1107 28.0677 64.0783C27.0734 63.9167 26.047 63.755 25.0207 63.5933L25.0193 63.5931C24.8589 63.5769 24.6984 63.5587 24.538 63.5404C24.0567 63.4859 23.5753 63.4312 23.094 63.4312C22.4201 63.3989 21.7463 63.3989 21.0724 63.3989C20.3665 63.3989 19.6926 63.3989 19.0187 63.4636C18.6658 63.4636 18.3128 63.496 17.9598 63.5283L16.9972 63.6254C15.489 63.8519 14.0129 64.143 12.5368 64.4665C11.7887 64.6282 11.0628 64.8122 10.3221 65.0001ZM2.65359 65.599C2.62149 65.7283 2.55732 65.8254 2.46105 65.9225C3.71251 65.4048 4.96396 64.9519 6.15124 64.5636C7.01762 64.2725 7.88401 64.0137 8.75041 63.7548C9.32785 63.5756 9.92066 63.4276 10.5183 63.2781C10.784 63.2117 11.0507 63.1451 11.3175 63.0753C11.7026 62.9944 12.0958 62.9136 12.4889 62.8327C12.882 62.7518 13.2749 62.6709 13.66 62.5901C14.5905 62.3959 15.489 62.2342 16.4196 62.1048C16.6603 62.0724 16.901 62.0481 17.1416 62.0238C17.3823 61.9997 17.6229 61.9754 17.8636 61.943C18.1202 61.8999 18.3769 61.8855 18.6336 61.8712C18.762 61.8639 18.8903 61.8568 19.0187 61.846L19.1107 61.8427C19.9764 61.8115 20.8143 61.7812 21.6821 61.7812H21.7463C21.9548 61.7812 22.1554 61.7893 22.356 61.7974C22.5565 61.8055 22.7571 61.8136 22.9656 61.8136C23.3186 61.8136 23.7037 61.846 24.0888 61.8783C24.5505 61.9074 24.9863 61.9627 25.4429 62.0206C25.494 62.0271 25.5453 62.0336 25.5969 62.0401C26.0782 62.1371 26.5275 62.2018 27.0088 62.2666C27.2334 62.2989 27.4501 62.3313 27.6667 62.3637C27.8833 62.396 28.0999 62.4283 28.3244 62.4606C28.4459 62.4811 28.5642 62.4983 28.6814 62.5153C28.9354 62.5523 29.184 62.5884 29.4475 62.6548C29.5759 62.6872 29.7042 62.7115 29.8326 62.7356C29.961 62.7599 30.0892 62.7842 30.2176 62.8165L30.8915 63.0107C31.3086 63.1401 31.7579 63.3343 32.1751 63.5283C32.5601 63.6901 32.9452 63.8842 33.3302 64.1107C33.6568 64.2753 33.9832 64.4864 34.2902 64.6849C34.3453 64.7205 34.3997 64.7557 34.4534 64.7901C34.75 64.9895 35.0275 65.1505 35.3154 65.3175C35.4012 65.3673 35.488 65.4175 35.5764 65.4695C35.9294 65.6637 36.2823 65.8254 36.6353 65.9871V65.9872C37.3092 66.246 38.0152 66.4077 38.7532 66.5048C39.3308 66.5695 39.9084 66.6343 40.486 66.6666C40.9994 66.6989 41.5128 66.6989 42.0262 66.6343C42.4433 66.5695 42.8284 66.4401 43.2134 66.3107H43.2135C43.5344 66.1813 43.8553 66.0518 44.2083 65.9548C44.2644 65.4456 44.345 64.9612 44.4287 64.4584C44.4408 64.3861 44.4529 64.3133 44.4649 64.2401C44.5612 63.5935 44.6573 62.9791 44.7536 62.3648L44.7538 62.3636C44.9462 61.3284 45.1068 60.3254 45.2672 59.2901C45.4276 58.3841 45.5881 57.4783 45.7806 56.5724C45.8769 56.1195 45.9731 55.6989 46.0694 55.2784V55.2783C46.1336 55.0356 46.1898 54.7849 46.2459 54.5341C46.3021 54.2833 46.3582 54.0326 46.4224 53.79C46.5347 53.2886 46.655 52.7951 46.7753 52.3018C46.8957 51.8084 47.016 51.315 47.1283 50.8135C47.2406 50.3283 47.3449 49.8348 47.4492 49.3415C47.5535 48.8481 47.6578 48.3547 47.7701 47.8694C47.8664 47.4811 47.9626 47.0929 48.0268 46.7046C47.9787 46.7532 47.9225 46.7936 47.8664 46.8341C47.8102 46.8745 47.7541 46.915 47.7059 46.9635C47.3529 47.2223 46.9679 47.4488 46.5828 47.6429C45.8127 48.0635 45.0104 48.387 44.1761 48.6783C43.374 48.9371 42.5397 49.1311 41.7054 49.3253C40.7427 49.5194 39.7801 49.7135 38.8174 49.7782C37.9189 49.8429 37.0525 49.8106 36.154 49.7135C36.1259 49.71 36.0973 49.7064 36.0684 49.7029C35.8339 49.6736 35.5768 49.6417 35.3197 49.5841C35.2235 49.5517 35.1191 49.5356 35.0149 49.5194C34.9106 49.5032 34.8063 49.487 34.71 49.4547C34.2929 49.3577 33.8757 49.2606 33.4907 49.1311C32.5601 48.8076 31.6938 48.4193 30.7953 47.9988C30.0572 47.6429 29.2871 47.287 28.517 46.9635C27.8819 46.7073 27.2266 46.4715 26.5831 46.2399C26.4138 46.1789 26.2453 46.1183 26.0782 46.0576C25.3402 45.7988 24.5701 45.5723 23.7999 45.3781C23.3827 45.2811 22.9656 45.176 22.5484 45.0708C22.1313 44.9657 21.7141 44.8605 21.297 44.7634C21.0885 44.7149 20.8799 44.6745 20.6713 44.6341C20.4627 44.5936 20.2542 44.5532 20.0456 44.5046C19.783 44.4458 19.4939 44.4137 19.2265 44.3841C19.1999 44.3811 19.1733 44.3781 19.1471 44.3752C18.9867 44.3591 18.8264 44.351 18.6659 44.3429C18.5055 44.3348 18.345 44.3267 18.1844 44.3106C17.9598 44.2782 17.7031 44.2782 17.4465 44.2782C17.2776 44.2782 17.1053 44.2746 16.9307 44.2712C16.5742 44.2639 16.2081 44.2564 15.8419 44.2782L14.1092 44.3752C13.5958 44.4075 13.0503 44.4723 12.5368 44.537C12.0234 44.6017 11.5421 44.6663 11.0287 44.7634C10.6276 44.8443 10.2185 44.9253 9.80934 45.0061C9.4002 45.087 8.99108 45.1679 8.58996 45.2488H8.30117C8.28512 45.2811 8.2771 45.3216 8.26907 45.362C8.26105 45.4024 8.25303 45.4429 8.23698 45.4752C8.14514 45.7901 8.04276 46.0943 7.94191 46.3941C7.86662 46.6179 7.79216 46.8392 7.72357 47.0605C7.46686 47.9017 7.17806 48.7429 6.88927 49.5841C6.75785 49.9663 6.62564 50.3485 6.49339 50.7308C5.78601 52.7758 5.07737 54.8244 4.48263 56.8959C4.09756 58.19 3.74459 59.4842 3.42371 60.7783C3.10283 61.9754 2.84611 63.1724 2.65359 64.4018C2.65359 64.4342 2.64556 64.4746 2.63754 64.5151C2.62952 64.5555 2.62149 64.596 2.62149 64.6284C2.62149 64.693 2.61347 64.7496 2.60545 64.8063C2.59743 64.8629 2.5894 64.9195 2.5894 64.9842C2.68567 65.1783 2.71776 65.4048 2.65359 65.599Z" fill="#FEDD00"/>
<path fill-rule="evenodd" clip-rule="evenodd" d="M9.02551 58.7083C9.0341 58.6897 9.04223 58.672 9.05038 58.6562C9.08485 58.5559 9.11932 58.4557 9.11932 58.3887V58.2885C9.11932 58.2718 9.1107 58.2551 9.10208 58.2384C9.09346 58.2217 9.08485 58.2049 9.08485 58.1882C9.08485 58.1547 9.08485 58.1213 9.05038 58.0879C9.05038 58.1213 9.01594 58.1547 8.98149 58.1881L8.98143 58.1882C8.92972 58.2718 8.86939 58.3553 8.80908 58.4389C8.74875 58.5225 8.68842 58.606 8.63672 58.6897C8.63672 58.7064 8.64533 58.7231 8.65395 58.7398C8.66256 58.7565 8.67119 58.7732 8.67119 58.7899C8.67119 58.8066 8.67981 58.815 8.68842 58.8233C8.69704 58.8317 8.70566 58.84 8.70566 58.8567C8.74011 58.9236 8.77456 58.957 8.80902 58.9904L8.80908 58.9905L8.91249 58.8902C8.96516 58.8391 8.99771 58.7686 9.02551 58.7083Z" fill="#FEDD00"/>
<path fill-rule="evenodd" clip-rule="evenodd" d="M39.9349 54.9124C40.0734 54.9124 40.1772 54.8465 40.281 54.7807C40.5924 54.5505 40.9039 54.2873 41.25 54.057C41.4576 54.2873 41.6652 54.4846 41.8728 54.7149C42.1151 54.9782 42.5995 54.9782 42.8418 54.7149C42.9802 54.5834 43.0494 54.4188 43.0494 54.2544C43.0494 54.057 42.9802 53.9254 42.8418 53.7937C42.6688 53.5964 42.5303 53.4319 42.3574 53.2345C42.8072 52.9384 43.2224 52.6423 43.6723 52.3462C43.7761 52.2804 43.8799 52.1818 43.9146 52.0502C43.9492 51.9186 43.9146 51.787 43.8799 51.6883C43.7761 51.5567 43.6031 51.458 43.4301 51.458C43.3609 51.458 43.257 51.4909 43.1879 51.5238C42.7033 51.8528 42.2189 52.1818 41.7344 52.5108C41.4922 52.2475 41.25 51.9514 41.0077 51.6883C40.8692 51.5567 40.6962 51.4909 40.5233 51.4909C40.3156 51.4909 40.1425 51.5567 40.0041 51.6883C39.8657 51.8199 39.7965 51.9843 39.7965 52.1818C39.7965 52.3792 39.8657 52.5108 40.0041 52.6752C40.2118 52.9055 40.4194 53.1359 40.6271 53.3661C40.281 53.6293 39.9696 53.8925 39.6235 54.1556C39.4159 54.3202 39.4505 54.6492 39.6235 54.8136C39.6927 54.8465 39.7965 54.9124 39.9349 54.9124Z" fill="#DFDFDF"/>
<path fill-rule="evenodd" clip-rule="evenodd" d="M12.161 59.3498C12.5246 59.1505 12.8883 58.9843 13.2519 58.785C13.4701 58.6854 13.5428 58.4197 13.3974 58.2203C13.3246 58.1206 13.2519 58.0542 13.1428 58.021C13.1065 58.021 13.0701 58.021 13.0337 58.021C12.961 58.021 12.8883 58.0542 12.7792 58.0874C12.4155 58.2535 12.0155 58.4197 11.6519 58.5857C11.4337 58.6854 11.361 58.9843 11.47 59.1837C11.6519 59.4162 11.9428 59.4494 12.161 59.3498Z" fill="#FEDD00"/>
<path fill-rule="evenodd" clip-rule="evenodd" d="M15.8872 58.0127C16.498 57.8757 17.109 57.7387 17.7198 57.5673C17.8805 57.533 17.9448 57.3618 17.9127 57.1905C17.8805 57.0534 17.7519 56.9849 17.6555 56.9849C17.6233 56.9849 17.6233 56.9849 17.5912 56.9849C16.9803 57.1219 16.3694 57.259 15.7263 57.396C15.5656 57.4303 15.5013 57.6017 15.5334 57.7729C15.5656 57.9785 15.7263 58.047 15.8872 58.0127Z" fill="#FEDD00"/>
<path fill-rule="evenodd" clip-rule="evenodd" d="M20.4941 56.9028C20.8993 57.055 21.3045 57.169 21.7097 57.3211C21.8344 57.3591 21.959 57.2831 22.0214 57.1309C22.0525 56.9789 21.9902 56.8268 21.8655 56.7508C21.4604 56.5986 21.0551 56.4466 20.6499 56.2944C20.6187 56.2944 20.6187 56.2944 20.5876 56.2944C20.4629 56.2944 20.3694 56.3705 20.3382 56.5227C20.2759 56.7127 20.3694 56.8648 20.4941 56.9028Z" fill="#FEDD00"/>
<path fill-rule="evenodd" clip-rule="evenodd" d="M24.3632 57.3698C25.0314 57.5921 25.6661 57.8143 26.3345 58.0048C26.5349 58.0683 26.7354 57.9413 26.8022 57.7508C26.869 57.5603 26.7354 57.3698 26.5349 57.3064C25.8666 57.1159 25.2318 56.8936 24.5636 56.6714C24.5302 56.6714 24.4968 56.6396 24.4634 56.6396C24.2963 56.6396 24.1293 56.7666 24.0959 56.9254C24.0625 57.0205 24.0959 57.1159 24.1293 57.2111C24.1961 57.2746 24.2629 57.3381 24.3632 57.3698Z" fill="#FEDD00"/>
<path fill-rule="evenodd" clip-rule="evenodd" d="M29.8318 58.3089C29.9679 58.3786 30.07 58.3786 30.2061 58.3437C30.5461 58.3089 30.8863 58.2391 31.2264 58.1695C31.3626 58.1347 31.5326 58.0998 31.6686 58.0649C31.8728 57.9953 32.0769 57.9605 32.315 57.8559C32.519 57.7863 32.6891 57.5424 32.6211 57.3333C32.5871 57.2287 32.519 57.1242 32.417 57.0545C32.349 57.0197 32.281 56.9849 32.213 56.9849C32.1789 56.9849 32.1449 56.9849 32.0769 56.9849C31.8728 57.0197 31.6347 57.0545 31.4306 57.0894C30.9204 57.1591 30.4441 57.2287 29.9339 57.2984C29.8318 57.2984 29.6958 57.4378 29.6278 57.5424C29.5597 57.6468 29.5257 57.7863 29.5938 57.9256C29.6278 58.1347 29.7298 58.2392 29.8318 58.3089Z" fill="#FEDD00"/>
<path fill-rule="evenodd" clip-rule="evenodd" d="M34.2913 56.977C34.6026 56.8805 34.9139 56.8163 35.2252 56.7199C35.3635 56.6878 35.5019 56.6557 35.6402 56.5914C35.8477 56.5271 36.0207 56.4629 36.2282 56.3664C36.2974 56.3344 36.332 56.3344 36.3665 56.2701C36.4011 56.2057 36.4011 56.1737 36.4011 56.1094C36.3665 56.0129 36.2974 55.9487 36.1936 55.9487C36.159 55.9487 36.159 55.9487 36.1245 55.9487C35.8132 56.0451 35.4673 56.1415 35.1214 56.2379C34.8101 56.3344 34.4988 56.3986 34.1876 56.495C34.0493 56.5271 33.98 56.6557 34.0147 56.7842C34.0493 56.9448 34.1876 57.0092 34.2913 56.977Z" fill="#FEDD00"/>
<path fill-rule="evenodd" clip-rule="evenodd" d="M38.4539 56.6396C38.8341 56.6396 39.1383 56.3325 39.1383 55.9487C39.1383 55.5648 38.8341 55.2578 38.4539 55.2578C38.0737 55.2578 37.7695 55.5648 37.7695 55.9487C37.7695 56.3325 38.1117 56.6396 38.4539 56.6396Z" fill="#FEDD00"/>
<path fill-rule="evenodd" clip-rule="evenodd" d="M16.9416 25.3811C16.8444 24.8924 16.7471 24.3712 16.6824 23.8826C16.6176 23.3287 16.5527 22.775 16.5851 22.1887C16.5851 22.0584 16.577 21.9199 16.5689 21.7814C16.5608 21.643 16.5527 21.5045 16.5527 21.3742V20.4947C16.5851 19.5174 16.7796 18.5727 17.0064 17.628C17.1036 17.1394 17.2656 16.6508 17.4277 16.1947C17.5897 15.7061 17.8165 15.1849 18.0434 14.6962C18.1406 14.5171 18.2297 14.3379 18.3187 14.1587C18.4079 13.9796 18.497 13.8004 18.5942 13.6212C18.9182 13.0349 19.3395 12.5137 19.7608 11.9924V11.9924C20.2145 11.4712 20.7005 10.95 21.2515 10.494C21.2658 10.4825 21.2801 10.471 21.2943 10.4595C21.7681 10.0783 22.2731 9.67192 22.8393 9.41896C23.3901 9.15835 23.9411 8.9629 24.5568 8.8326V8.83259C24.8161 8.76744 25.0753 8.70229 25.3346 8.66972C25.6099 8.62085 25.8935 8.58013 26.1771 8.53941C26.4606 8.49869 26.7441 8.45797 27.0196 8.40911C27.538 8.34396 28.0889 8.27881 28.6074 8.27881H28.9639C29.6444 8.31138 30.3249 8.44169 30.973 8.63714C31.6535 8.86517 32.3016 9.15835 32.9498 9.45153C34.1487 10.0053 35.2181 10.8523 36.093 11.8621C36.5791 12.4485 37.0327 13.0349 37.4217 13.6864C37.5027 13.8167 37.5756 13.9551 37.6485 14.0936C37.7214 14.232 37.7943 14.3705 37.8753 14.5008C38.1345 14.9568 38.3614 15.4455 38.5558 15.9015C38.9123 16.7159 39.1715 17.5303 39.3011 18.4099C39.366 18.7682 39.3983 19.1265 39.4308 19.4849C39.4955 20.1038 39.4955 20.7228 39.4308 21.3417C39.3335 22.0258 39.2363 22.6773 39.0743 23.3613C38.6206 25.4137 37.8105 27.4008 36.7735 29.225C35.8474 30.8768 34.7009 32.3901 33.5627 33.8926C33.4662 34.0198 33.3699 34.1471 33.2738 34.2742C32.6581 35.0886 32.0424 35.903 31.4591 36.7174C31.3133 36.9292 31.1675 37.1327 31.0216 37.3363C30.8758 37.54 30.73 37.7435 30.5841 37.9553C30.3249 38.3462 30.0333 38.7371 29.7416 39.0954C29.4211 39.5097 29.1167 39.9402 28.8172 40.364C28.6927 40.5401 28.569 40.715 28.4454 40.8872C28.2569 41.1307 28.1132 41.3743 27.9584 41.6367C27.9269 41.69 27.8949 41.7442 27.8621 41.7992C27.7929 41.9086 27.7297 42.027 27.6661 42.1463C27.5213 42.4177 27.3744 42.6931 27.1492 42.8742C27.0196 43.0045 26.8576 43.1023 26.6955 43.1348C26.6469 43.1348 26.6065 43.1429 26.5659 43.1511C26.5254 43.1592 26.4849 43.1674 26.4362 43.1674C26.1771 43.1674 25.9178 43.0697 25.7234 42.8742C25.3993 42.5485 25.3669 42.0598 25.5614 41.6689C25.5776 41.6363 25.5937 41.6119 25.6099 41.5875C25.6261 41.563 25.6424 41.5386 25.6586 41.5061C25.6261 41.4735 25.6018 41.4409 25.5776 41.4083C25.5532 41.3758 25.5289 41.3432 25.4966 41.3106C25.0753 40.659 24.6216 40.0076 24.1679 39.3887C24.0243 39.1842 23.8803 38.9797 23.7361 38.775C22.7087 37.3169 21.6747 35.8494 20.7654 34.3068C20.7037 34.202 20.6414 34.0968 20.579 33.9912C20.117 33.21 19.642 32.4065 19.2424 31.6031C18.7239 30.5606 18.2377 29.5181 17.8489 28.4432C17.6545 27.9871 17.4924 27.531 17.3629 27.0424C17.2008 26.4886 17.0712 25.9348 16.9416 25.3811ZM18.9797 17.8162C18.8441 18.3722 18.7043 18.9448 18.6267 19.5174C18.5107 20.5952 18.5763 21.699 18.6377 22.7358C18.645 22.8584 18.6522 22.9801 18.659 23.1007C18.8535 24.2409 19.0803 25.3811 19.4044 26.4886C19.434 26.5898 19.4636 26.6932 19.4936 26.7979C19.6277 27.2665 19.7699 27.7625 19.9552 28.2152L20.5385 29.681C20.733 30.1697 20.9598 30.6257 21.1867 31.0818C21.3 31.3098 21.4216 31.5379 21.5431 31.7659C21.6646 31.9939 21.7861 32.222 21.8995 32.45C22.0367 32.6981 22.1712 32.9462 22.3054 33.1936C22.6467 33.8231 22.9855 34.448 23.3578 35.0561C24.2415 36.5176 25.2005 37.9034 26.1684 39.3024C26.3008 39.4937 26.4334 39.6853 26.5659 39.8773L27.3436 38.7045C27.6352 38.2485 27.9594 37.7925 28.2834 37.3689C28.4869 37.1031 28.6776 36.8243 28.8715 36.5407C28.9864 36.3727 29.1025 36.203 29.2232 36.0334C30.119 34.7468 31.0755 33.4806 32.0288 32.2186C32.2824 31.8829 32.5358 31.5475 32.7877 31.2121C33.4034 30.3652 34.0191 29.4856 34.6024 28.5735C35.0702 27.8385 35.459 27.024 35.84 26.2256C35.8812 26.1393 35.9223 26.0533 35.9634 25.9674C36.2227 25.2834 36.4819 24.5992 36.7087 23.8826V23.8825C36.8384 23.459 36.968 23.0356 37.0652 22.5796C37.1624 22.1561 37.2272 21.7651 37.292 21.3417C37.3892 20.7228 37.3892 20.1038 37.3244 19.4849C37.3244 19.2568 37.292 19.0288 37.2597 18.8008H37.2596C37.1948 18.3121 37.0975 17.8561 36.9355 17.4C36.9032 17.3023 36.8626 17.1964 36.8222 17.0906C36.7816 16.9847 36.7412 16.8788 36.7087 16.7811C36.255 15.7061 35.7366 14.6636 35.0237 13.719C34.7644 13.3932 34.4727 13.0674 34.1811 12.7743C33.8894 12.4811 33.5978 12.2205 33.2738 11.9599C32.8525 11.6341 32.3988 11.3735 31.9451 11.1455C31.7183 11.0152 31.5239 10.9174 31.2971 10.8197C31.2323 10.7871 31.1675 10.7627 31.1026 10.7383C31.0378 10.7138 30.973 10.6894 30.9082 10.6568C30.3573 10.4614 29.8065 10.2985 29.2555 10.2008C28.9639 10.1682 28.6722 10.1682 28.3805 10.1682C28.0837 10.1682 27.8142 10.1955 27.5219 10.2252C27.4951 10.2279 27.4681 10.2306 27.4409 10.2334C26.9224 10.2985 26.4362 10.3637 25.9178 10.4614C25.8895 10.4668 25.8611 10.4722 25.8328 10.4777C25.1781 10.6027 24.4974 10.7328 23.8763 10.9826C23.4874 11.1455 23.131 11.3735 22.7745 11.6341C22.0616 12.2205 21.4458 12.872 20.895 13.5886C20.5385 14.0773 20.2145 14.5659 19.9552 15.1197C19.8257 15.3477 19.7284 15.5758 19.6312 15.8038C19.5869 15.9226 19.5409 16.0413 19.4948 16.1604C19.3385 16.5642 19.1804 16.9724 19.0803 17.4C19.0478 17.5375 19.0138 17.6763 18.9797 17.8162Z" fill="#DFDFDF"/>
<path fill-rule="evenodd" clip-rule="evenodd" d="M22.8734 24.3395C22.6299 23.939 22.3936 23.5504 22.2031 23.1162C22.009 22.6646 21.815 22.2129 21.815 21.6322C21.7503 21.1805 21.6855 20.7289 21.6855 20.2773C21.6855 19.5675 21.7826 18.8577 21.9767 18.1803C22.0738 17.5673 22.2678 16.9866 22.6237 16.4704C22.8501 16.1155 23.1412 15.7607 23.4323 15.4703C23.6587 15.2122 23.9175 14.9864 24.1763 14.7928C24.2409 14.7444 24.3137 14.688 24.3865 14.6315C24.4593 14.5751 24.532 14.5186 24.5967 14.4702C24.7262 14.4057 24.8879 14.3089 25.0172 14.2121C25.3731 13.9863 25.7935 13.7605 26.2141 13.5669C26.6346 13.3733 27.0228 13.2443 27.4756 13.1475C27.6696 13.1152 27.8637 13.1152 28.0578 13.1152H28.1548C28.3489 13.1152 28.5753 13.1475 28.7694 13.1798C28.9311 13.212 29.0606 13.2443 29.1899 13.3088C29.481 13.3088 29.7722 13.3088 30.0633 13.3411C30.1473 13.3487 30.2297 13.3545 30.3106 13.3602C30.572 13.3787 30.819 13.3962 31.066 13.4701C31.4541 13.5669 31.8747 13.7282 32.2304 13.9218C32.7156 14.1799 33.2332 14.5025 33.6214 14.9219C33.6699 14.9864 33.7183 15.0428 33.7669 15.0993C33.8154 15.1558 33.864 15.2122 33.9125 15.2767C33.9287 15.309 33.9528 15.3412 33.9771 15.3735C34.0014 15.4058 34.0257 15.438 34.0418 15.4703C34.1389 15.6639 34.2359 15.8897 34.3006 16.0833C34.3168 16.1639 34.3411 16.2446 34.3653 16.3252C34.3896 16.4059 34.4139 16.4865 34.43 16.5672C34.4461 16.6478 34.4623 16.7203 34.4785 16.7929C34.4947 16.8655 34.5108 16.9381 34.527 17.0188C34.527 17.1801 34.5594 17.3413 34.5916 17.5025L34.5917 17.5028C34.6079 17.6642 34.6241 17.8338 34.6403 18.0033C34.6565 18.1725 34.6726 18.3417 34.6888 18.5029V19.4062C34.6726 19.5675 34.6645 19.7208 34.6565 19.8741C34.6484 20.0273 34.6403 20.1805 34.6241 20.3418C34.5917 20.6966 34.5594 21.0515 34.4947 21.4064C34.4947 21.5355 34.4623 21.6968 34.43 21.8258C34.3977 21.9871 34.3653 22.1484 34.333 22.2774C34.3284 22.3 34.3239 22.3232 34.3193 22.347C34.2909 22.4923 34.2592 22.6549 34.2035 22.7936C34.1713 22.8742 34.147 22.9549 34.1227 23.0355C34.0985 23.1162 34.0742 23.1969 34.0418 23.2775C33.9656 23.5313 33.8491 23.785 33.74 24.0231C33.7104 24.0877 33.6813 24.1511 33.6537 24.2131C33.1038 25.3745 32.3275 26.4392 31.2601 27.1489C30.9042 27.407 30.4838 27.6328 30.0309 27.7618C29.6427 27.8909 29.2546 27.9554 28.8341 27.9554C28.5254 27.9862 28.2462 27.9582 27.9402 27.9276C27.9256 27.9261 27.9109 27.9246 27.8961 27.9231C27.5726 27.8909 27.2492 27.8586 26.958 27.7941C26.9175 27.7825 26.876 27.771 26.8338 27.7593C26.64 27.7055 26.4323 27.6477 26.2465 27.5683C26.1709 27.536 26.0955 27.5074 26.0199 27.4787C25.8691 27.4213 25.7181 27.3639 25.5671 27.278C25.179 27.0844 24.8232 26.8263 24.4997 26.5359C24.1763 26.2456 23.8852 25.8907 23.6264 25.5358C23.5886 25.4794 23.5508 25.4256 23.5139 25.3731C23.4242 25.2454 23.3392 25.1244 23.2705 24.9874C23.2058 24.8906 23.1412 24.7939 23.0765 24.6647C23.0603 24.6487 23.0522 24.6325 23.0441 24.6164C23.036 24.6002 23.0279 24.5841 23.0118 24.568C22.9655 24.4911 22.9193 24.4152 22.8734 24.3395ZM23.4 18.4061C23.2705 18.761 23.2058 19.1481 23.1412 19.5352C23.125 19.7127 23.1169 19.882 23.1088 20.0514C23.1007 20.2208 23.0927 20.3901 23.0765 20.5676C23.1736 21.116 23.3029 21.6322 23.4323 22.1484C23.4603 22.246 23.4821 22.3376 23.5032 22.4258C23.531 22.5416 23.5573 22.6515 23.594 22.7614C23.7111 22.9949 23.8451 23.2114 23.9838 23.4357C24.0367 23.5212 24.0903 23.6079 24.1439 23.697C24.2086 23.7938 24.2733 23.8824 24.338 23.9711C24.4027 24.0599 24.4674 24.1486 24.532 24.2454C24.5806 24.2938 24.621 24.3502 24.6615 24.4067C24.7019 24.4631 24.7423 24.5196 24.7908 24.568C24.985 24.7939 25.2114 25.0197 25.4701 25.2132C25.7612 25.439 26.0847 25.6003 26.4081 25.7616C26.7962 25.8907 27.1521 25.9875 27.5403 26.0521C27.7991 26.0843 28.0901 26.0843 28.3489 26.0521C28.5753 26.0198 28.8018 25.9553 29.0282 25.8907C29.2546 25.8261 29.481 25.7616 29.6751 25.6648C29.9662 25.5358 30.2573 25.3745 30.5161 25.181C30.5647 25.1487 30.6213 25.1084 30.6778 25.068C30.7344 25.0277 30.7911 24.9874 30.8396 24.9552C30.8666 24.9349 30.8921 24.9162 30.9166 24.8981C31.0095 24.83 31.0863 24.7736 31.163 24.697C31.2924 24.6325 31.3894 24.5357 31.4865 24.4389C31.6482 24.2776 31.81 24.1163 31.9393 23.955C32.1335 23.6647 32.2952 23.342 32.4569 23.0195C32.5366 22.834 32.5945 22.6268 32.6484 22.4335C32.6601 22.3915 32.6717 22.3501 32.6833 22.3097C32.7401 22.1399 32.7719 21.9453 32.8007 21.7694C32.8047 21.7448 32.8087 21.7205 32.8127 21.6968C32.9098 20.8257 32.9098 19.9546 32.8127 19.1159C32.7156 18.5674 32.5863 18.0512 32.3922 17.5673C32.3623 17.5136 32.3335 17.461 32.3051 17.4093C32.1804 17.1815 32.0652 16.9711 31.9069 16.7608C31.8626 16.7165 31.8221 16.6722 31.7827 16.6292C31.7072 16.547 31.6362 16.4695 31.5512 16.4059C31.3787 16.2768 31.1774 16.1765 30.9762 16.0761C30.8755 16.0259 30.7749 15.9757 30.6778 15.922L30.6777 15.9219C30.2572 15.7606 29.8368 15.5993 29.384 15.438C29.2546 15.4058 29.1333 15.3655 29.012 15.3251C28.8907 15.2848 28.7694 15.2445 28.64 15.2122C28.446 15.1477 28.2195 15.1154 27.9931 15.0832C27.702 15.0509 27.4109 15.0509 27.0874 15.0832C27.055 15.0832 27.0309 15.0912 27.0066 15.0993C26.9823 15.1074 26.958 15.1154 26.9257 15.1154C26.9047 15.1207 26.8828 15.1259 26.8604 15.1313C26.7447 15.159 26.6135 15.1904 26.5052 15.2445C26.2465 15.3735 25.9877 15.5026 25.7612 15.6316C25.5024 15.7929 25.2437 15.9542 25.0172 16.1155C24.8232 16.2768 24.6291 16.4381 24.4674 16.6317C24.4189 16.6962 24.3622 16.7608 24.3056 16.8253C24.249 16.8898 24.1925 16.9543 24.1439 17.0188C23.9499 17.2769 23.7881 17.535 23.6264 17.8254C23.5293 18.019 23.4646 18.2125 23.4 18.4061Z" fill="#DFDFDF"/>
<path fill-rule="evenodd" clip-rule="evenodd" d="M32.6352 29.1607C32.6029 29.1607 32.5706 29.1607 32.5383 29.1607C31.9247 29.3651 31.3111 29.6035 30.7299 29.8418C30.8267 29.7737 30.859 29.6376 30.7944 29.5013C30.7299 29.3651 30.5684 29.3311 30.4392 29.3992C30.2454 29.5013 30.0517 29.6035 29.8578 29.7057C29.5995 29.8418 29.3089 29.9781 29.0183 30.1143C28.9213 30.1483 28.8244 30.2165 28.6953 30.2506C28.5338 30.2846 28.3401 30.2846 28.1786 30.2846C28.114 30.2846 28.0171 30.2846 27.9525 30.2846C27.8234 30.2846 27.6942 30.2846 27.5973 30.2506C27.4036 30.2506 27.2097 30.2165 27.016 30.2165C26.693 30.1825 26.3702 30.1825 26.0148 30.1143C25.9826 30.1143 25.9503 30.1143 25.918 30.0803C25.692 29.91 25.4659 29.7397 25.2398 29.5353C24.9492 29.297 24.6585 29.0586 24.3679 28.8202C24.0773 28.5477 23.7865 28.3093 23.4959 28.0368C23.4313 28.0028 23.3991 27.9688 23.3022 27.9688C23.2376 27.9688 23.173 28.0028 23.1084 28.0368C23.0115 28.1391 23.0115 28.3433 23.1084 28.4115C23.3667 28.6499 23.6251 28.8883 23.9158 29.1267C24.1095 29.297 24.3356 29.4672 24.5293 29.6376H24.497C24.3356 29.5353 24.1741 29.4332 24.0126 29.3311C23.8189 29.1607 23.6251 28.9564 23.4313 28.7521C23.3345 28.6499 23.2052 28.5137 23.1084 28.4115C23.0115 28.3093 22.9146 28.1731 22.8178 28.0368C22.7854 27.9688 22.6885 27.9688 22.624 27.9688C22.5594 27.9688 22.4625 28.0028 22.4302 28.0368C22.3333 28.1391 22.3333 28.3093 22.4302 28.4456C22.5594 28.5818 22.6563 28.7521 22.7854 28.8883C22.9146 29.0586 23.0761 29.1948 23.2052 29.3651C23.3345 29.5013 23.4636 29.6376 23.6251 29.7737C23.7865 29.91 23.948 30.0462 24.1418 30.1483C24.2064 30.1825 24.271 30.2165 24.3356 30.2846C24.3032 30.2846 24.271 30.2506 24.2387 30.2506C24.2064 30.1825 24.1095 30.1825 24.0449 30.1825C24.0449 30.1825 24.0449 30.1825 24.0126 30.1825C23.948 30.1483 23.8834 30.1143 23.7865 30.1143C23.3345 29.9441 22.8824 29.7397 22.4302 29.5353C22.3979 29.5353 22.3657 29.5353 22.3657 29.5353C22.3011 29.5353 22.2364 29.5695 22.2042 29.5695C22.1396 29.6035 22.075 29.6716 22.0427 29.7737C22.0103 29.876 22.0427 29.9441 22.075 30.0462C22.1073 30.1143 22.1718 30.1825 22.2687 30.2165C22.7854 30.4208 23.3022 30.6592 23.8189 30.8636C23.9158 30.8976 24.0126 30.9317 24.1095 30.9657C24.3356 31.1701 24.594 31.3745 24.8523 31.5447C25.0783 31.681 25.3044 31.8172 25.5627 31.9534C25.7242 32.0215 25.8534 32.0896 26.0148 32.1577C26.2087 32.2258 26.4024 32.328 26.5961 32.3621C26.7254 32.3961 26.8545 32.328 26.8869 32.1918C26.8869 32.1918 26.8869 32.1918 26.8869 32.1577C26.9514 32.1577 27.016 32.1577 27.0482 32.1577C27.1128 32.1237 27.2097 32.0896 27.2743 32.0896C27.565 32.1918 27.8556 32.2599 28.1786 32.3621C28.0817 32.4302 27.9848 32.4642 27.8556 32.5323C27.791 32.5665 27.7588 32.6686 27.8233 32.7367C27.8556 32.8048 27.9525 32.8048 28.0171 32.8048C28.2109 32.7026 28.4046 32.6005 28.5661 32.4983C28.7276 32.5323 28.9213 32.6005 29.0828 32.6345C29.3411 32.7026 29.6318 32.7707 29.8902 32.8048C29.9871 32.8048 30.0517 32.8048 30.1162 32.7707C30.1808 32.7367 30.2454 32.6686 30.2454 32.6005C30.2777 32.4642 30.2132 32.2599 30.0517 32.2258C29.8256 32.1918 29.5995 32.1237 29.3735 32.0556C29.8902 31.7831 30.3745 31.5447 30.8913 31.2722C30.9882 31.2382 31.0527 31.2041 31.1497 31.1361C31.2142 31.102 31.2142 30.9998 31.182 30.9317C31.1497 30.8976 31.1497 30.8636 31.1173 30.8636H31.0851C31.0527 30.8636 31.0527 30.8636 31.0205 30.8976C30.536 31.1361 30.0517 31.3745 29.5995 31.6128C29.4058 31.715 29.212 31.8172 29.0505 31.9193C29.0182 31.8852 28.9859 31.8512 28.9213 31.8172C28.8568 31.7831 28.7922 31.7831 28.6953 31.7491C28.6307 31.715 28.5661 31.681 28.4692 31.681C28.4692 31.681 28.437 31.681 28.437 31.6468C28.9213 31.4766 29.4058 31.2722 29.8902 31.102C30.7299 30.7615 31.5372 30.4208 32.3446 30.0803C32.506 30.0122 32.6352 29.9441 32.7967 29.876C32.8613 29.8418 32.8935 29.8078 32.9258 29.7397C32.9904 29.6376 32.9904 29.5353 32.9582 29.4332C32.9258 29.297 32.7967 29.1607 32.6352 29.1607Z" fill="#DFDFDF"/>
<path fill-rule="evenodd" clip-rule="evenodd" d="M29.0754 35.5039C28.4523 35.3032 27.8619 35.0356 27.2716 34.768C26.9765 34.6343 26.6812 34.5004 26.3861 34.3666L26.3533 34.3332C26.5173 34.2998 26.6812 34.2329 26.878 34.1994C27.0748 34.1325 27.3044 34.0991 27.5012 34.0322C27.5668 33.9988 27.6324 33.9988 27.6979 33.9652C27.8619 34.0322 28.0259 34.0991 28.1899 34.1659C28.2883 34.1994 28.4195 34.1325 28.4523 34.0322C28.4523 33.9652 28.4523 33.9318 28.4195 33.865C28.3867 33.8315 28.3538 33.7981 28.3211 33.7981C28.5178 33.7311 28.7474 33.6643 28.9442 33.5639C28.977 33.5639 29.0099 33.5304 29.0426 33.497C29.0754 33.4636 29.0754 33.4301 29.0426 33.3633C29.0099 33.2963 28.9442 33.2295 28.8786 33.2295H28.8459C28.5178 33.3633 28.1572 33.4636 27.8292 33.5639C27.5668 33.4636 27.2716 33.3298 27.0092 33.2295C26.8452 33.1626 26.6485 33.0622 26.4846 32.9953C26.4846 32.9953 26.4846 32.9619 26.5173 32.9619C26.5501 32.8949 26.4846 32.7946 26.4189 32.7946C25.9925 32.6608 25.599 32.5271 25.2054 32.3598C24.812 32.1926 24.4184 32.0588 24.0248 31.8916C23.6968 31.7578 23.4017 31.5905 23.0737 31.4568C23.0409 31.4233 23.0081 31.4233 22.9425 31.4233C22.9097 31.4233 22.9097 31.4233 22.8769 31.4233C22.8113 31.4233 22.7786 31.4902 22.7458 31.5237C22.7129 31.5905 22.7129 31.624 22.7129 31.6909C22.7129 31.7578 22.7786 31.7912 22.8113 31.8246C23.5 32.1257 24.1887 32.4601 24.8775 32.7612C25.3039 32.9619 25.7302 33.1291 26.1566 33.3298C26.4845 33.4636 26.8125 33.6308 27.1732 33.7646C26.7797 33.8984 26.3533 33.9988 25.9598 34.0991C25.9598 34.0991 25.9598 34.0991 25.927 34.0991C25.927 34.0656 25.927 34.0322 25.927 33.9988C25.927 33.9652 25.8942 33.9318 25.8613 33.8984C25.6974 33.7646 25.5334 33.6308 25.3366 33.497L25.3694 33.5304C24.9103 33.1626 24.4183 32.7947 23.9592 32.3933C23.9264 32.3598 23.8936 32.3264 23.828 32.3264C23.7953 32.3264 23.7296 32.3598 23.6968 32.3933C23.664 32.4267 23.6312 32.4601 23.6312 32.5271C23.6312 32.5605 23.664 32.6274 23.6968 32.6608C23.7624 32.7278 23.8608 32.7947 23.9264 32.8615C23.8936 32.8615 23.828 32.8949 23.828 32.9284C23.7624 33.0288 23.7953 33.1291 23.8936 33.1626C24.3199 33.4301 24.7135 33.6977 25.1399 33.9652L25.1071 33.9988C25.0743 34.0656 25.0743 34.0991 25.0743 34.1659C25.0743 34.1994 25.1399 34.2663 25.1726 34.2998C25.6646 34.5339 26.1566 34.7346 26.6485 34.9687C26.7141 35.0356 26.8125 35.0691 26.878 35.1359C27.2388 35.3701 27.5996 35.6042 27.9604 35.8383C28.0259 35.8717 28.1572 35.8717 28.1899 35.7714C28.2227 35.738 28.2227 35.671 28.1899 35.6376C28.2227 35.6711 28.2883 35.671 28.3211 35.7046C28.5178 35.7714 28.7146 35.8383 28.9114 35.9053C29.0099 35.9387 29.141 35.8717 29.1738 35.7714C29.2722 35.6376 29.1738 35.5373 29.0754 35.5039Z" fill="#DFDFDF"/>
<path fill-rule="evenodd" clip-rule="evenodd" d="M62.0938 36.1123C62.9987 36.7213 64.7833 37.2034 66.417 37.2034C70.4135 37.2034 72.349 34.9198 72.349 32.2809C72.349 29.769 70.8911 28.3735 68.0256 27.257C65.6881 26.3436 64.6575 25.557 64.6575 23.9585C64.6575 22.7913 65.5373 21.3958 67.8498 21.3958C69.3829 21.3958 70.5141 21.9032 71.067 22.2077L71.6703 20.4062C70.9162 19.9749 69.6595 19.5688 67.9251 19.5688C64.6324 19.5688 62.4456 21.548 62.4456 24.2123C62.4456 26.6227 64.1549 28.069 66.9197 29.0586C69.2071 29.9466 70.1119 30.8601 70.1119 32.4586C70.1119 34.184 68.8049 35.3766 66.5679 35.3766C65.0597 35.3766 63.627 34.8691 62.6467 34.2601L62.0938 36.1123Z" fill="#47489E"/>
<path fill-rule="evenodd" clip-rule="evenodd" d="M75.3691 19.8481V36.9499H77.5559V28.9319H85.75V36.9499H87.9619V19.8481H85.75V27.0035H77.5559V19.8481H75.3691Z" fill="#47489E"/>
<path fill-rule="evenodd" clip-rule="evenodd" d="M90.7598 28.5511C90.7598 23.1212 94.1028 19.5688 98.6271 19.5688C103.252 19.5688 106.243 23.1465 106.243 28.2212C106.243 34.1079 102.699 37.2288 98.3757 37.2288C93.9017 37.2288 90.7598 33.7273 90.7598 28.5511ZM103.931 28.3227C103.931 24.9227 102.171 21.3704 98.5266 21.3704C94.907 21.3704 93.0973 24.7451 93.0973 28.5003C93.0973 32.1541 95.0579 35.4273 98.5014 35.4273C101.97 35.4273 103.931 32.2049 103.931 28.3227Z" fill="#47489E"/>
<path fill-rule="evenodd" clip-rule="evenodd" d="M114.098 36.9499L116.51 28.0439C117.139 25.8363 117.516 24.1617 117.817 22.4617H117.868C118.094 24.187 118.446 25.8617 118.974 28.0439L121.11 36.9499H123.397L128.199 19.8481H125.962L123.724 28.4752C123.197 30.6066 122.719 32.5096 122.368 34.3872H122.317C122.065 32.5857 121.613 30.5558 121.135 28.5259L119.074 19.8481H116.787L114.525 28.4752C113.947 30.6826 113.419 32.7125 113.142 34.4125H113.093C112.79 32.7632 112.338 30.6319 111.835 28.5005L109.824 19.8481H107.512L111.81 36.9499H114.098Z" fill="#47489E"/>
<path fill-rule="evenodd" clip-rule="evenodd" d="M147.926 36.9502H151.63L150.711 20.0405H145.764L143.975 25.6603C143.429 27.542 142.857 29.7749 142.384 31.7318H142.31C141.937 29.7498 141.416 27.6424 140.893 25.6854L139.253 20.0405H134.208L133.139 36.9502H136.644L136.942 30.5275C137.066 28.4201 137.141 25.8109 137.239 23.5278H137.29C137.687 25.7356 138.258 28.1441 138.806 30.1261L140.595 36.6743H143.553L145.591 30.0759C146.237 28.094 146.932 25.6854 147.455 23.5278H147.529C147.529 25.9865 147.604 28.4451 147.678 30.4773L147.926 36.9502Z" fill="#47489E"/>
<path fill-rule="evenodd" clip-rule="evenodd" d="M164.544 26.689H158.38V23.1765H164.916V20.0405H154.578V36.9502H165.265V33.8141H158.38V29.8H164.544V26.689Z" fill="#47489E"/>
<path fill-rule="evenodd" clip-rule="evenodd" d="M65.8887 63.1466C66.6952 63.2589 67.9746 63.3712 69.6434 63.3712C72.7028 63.3712 74.8165 62.8097 76.1237 61.6024C77.0693 60.6759 77.709 59.4405 77.709 57.8122C77.709 55.0045 75.6231 53.5166 73.8431 53.0673V53.0111C75.8178 52.2812 77.0137 50.6809 77.0137 48.8559C77.0137 47.3678 76.4297 46.2449 75.4561 45.5148C74.2881 44.5603 72.7306 44.1392 70.3109 44.1392C68.6143 44.1392 66.9456 44.3076 65.8887 44.5321V63.1466ZM68.3084 46.1887C68.6977 46.1045 69.3375 46.0202 70.45 46.0202C72.8974 46.0202 74.5662 46.8906 74.5662 49.1086C74.5662 50.9335 73.0643 52.2812 70.5056 52.2812H68.3084V46.1887ZM70.3109 54.1342H68.3084V61.3498C68.7812 61.4339 69.4765 61.462 70.3387 61.462C72.8419 61.462 75.1502 60.5355 75.1502 57.7841C75.1502 55.201 72.953 54.1342 70.3109 54.1342Z" fill="#47489E"/>
<path fill-rule="evenodd" clip-rule="evenodd" d="M80.9902 44.2793V63.2025H83.4099V44.2793H80.9902Z" fill="#47489E"/>
<path fill-rule="evenodd" clip-rule="evenodd" d="M86.7266 62.2762C87.7278 62.9501 89.7025 63.4835 91.5103 63.4835C95.9324 63.4835 98.074 60.9567 98.074 58.0367C98.074 55.2572 96.4609 53.713 93.2903 52.4777C90.7037 51.4669 89.5634 50.5966 89.5634 48.8278C89.5634 47.5364 90.5369 45.9922 93.0956 45.9922C94.7922 45.9922 96.0437 46.5537 96.6556 46.8906L97.323 44.8972C96.4887 44.4199 95.0981 43.9707 93.179 43.9707C89.5356 43.9707 87.1159 46.1606 87.1159 49.1086C87.1159 51.7759 89.0072 53.3762 92.0665 54.4711C94.5975 55.4537 95.5987 56.4644 95.5987 58.2333C95.5987 60.1424 94.1524 61.462 91.6772 61.462C90.0084 61.462 88.4231 60.9005 87.3385 60.2267L86.7266 62.2762Z" fill="#47489E"/>
<path fill-rule="evenodd" clip-rule="evenodd" d="M101.416 44.2793V63.2025H103.836V54.3305H112.903V63.2025H115.35V44.2793H112.903V52.1968H103.836V44.2793H101.416Z" fill="#47489E"/>
<path fill-rule="evenodd" clip-rule="evenodd" d="M119.559 63.2025H121.978V55.987L123.758 53.9094L129.933 63.2025H132.797L125.482 52.3091L132.268 44.2793H129.265L123.535 51.3825C123.062 52.0002 122.562 52.674 122.061 53.404H121.978V44.2793H119.559V63.2025Z" fill="#47489E"/>
<path fill-rule="evenodd" clip-rule="evenodd" d="M144.367 52.3091H137.08V46.3289H144.784V44.2793H134.66V63.2025H145.201V61.153H137.08V54.3305H144.367V52.3091Z" fill="#47489E"/>
<path fill-rule="evenodd" clip-rule="evenodd" d="M148.348 63.2025H150.768V55.987L152.548 53.9094L158.723 63.2025H161.587L154.272 52.3091L161.058 44.2793H158.054L152.325 51.3825C151.853 52.0002 151.351 52.674 150.851 53.404H150.768V44.2793H148.348V63.2025Z" fill="#47489E"/>
</g>
<defs>
<clipPath id="clip0">
<path d="M0 0.713379H166V74.4267H0V0.713379Z" fill="white"/>
</clipPath>
</defs>
</svg>
