<svg width="166" height="75" viewBox="0 0 166 75" fill="none" xmlns="http://www.w3.org/2000/svg">
<path d="M88.5078 30.0045C88.7435 30.0695 88.9791 30.141 89.2081 30.2222L97.2833 22.8142L97.6085 20.9126L95.6935 21.3612L88.5078 30.0045Z" fill="#85754E"/>
<path d="M88.0009 29.8743L97.3804 15.7571L97.2344 13.1924L94.9244 14.4048L87.4102 29.7541C87.6093 29.7898 87.8051 29.8321 88.0009 29.8743Z" fill="#85754E"/>
<path d="M69.1055 27.6053L70.2207 29.1591L78.7107 31.675C79.016 31.4605 79.3313 31.2622 79.6566 31.0769L70.994 27.1665L69.1055 27.6053Z" fill="#85754E"/>
<path d="M93.6156 33.001L105.481 32.1104L107.3 30.4526L105.07 29.3799L92.5801 32.0714C92.9485 32.3607 93.2903 32.6695 93.6156 33.001Z" fill="#85754E"/>
<path d="M101.653 27.6055L99.7642 27.1699L91.1016 31.0804C91.4268 31.2656 91.7421 31.4639 92.0475 31.6785L100.538 29.1625L101.653 27.6055Z" fill="#85754E"/>
<path d="M90.545 30.7812L103.426 23.5552L104.395 21.2635L101.863 21.2603L89.7285 30.4171C90.004 30.5276 90.2762 30.6479 90.545 30.7812Z" fill="#85754E"/>
<path d="M86.8756 29.6759L91.1505 18.0779L90.5796 16.1763L89.0628 17.4863L86.3379 29.6174C86.5171 29.6336 86.6963 29.6532 86.8756 29.6759Z" fill="#85754E"/>
<path d="M77.1452 33.001C77.4705 32.6695 77.8157 32.3607 78.1807 32.0714L65.6913 29.3799L63.4609 30.4526L65.2798 32.1104L77.1452 33.001Z" fill="#85754E"/>
<path d="M76.6821 33.499H61.3516V37.6793L75.4341 35.2283C75.7959 34.614 76.2141 34.0354 76.6821 33.499Z" fill="#85754E"/>
<path d="M80.2194 30.7812C80.4849 30.6479 80.757 30.5276 81.0358 30.4171L68.9015 21.2603L66.3691 21.2635L67.3383 23.5552L80.2194 30.7812Z" fill="#85754E"/>
<path d="M94.0781 33.499C94.5461 34.0354 94.9643 34.614 95.3261 35.2316L109.409 37.6825V33.5023H94.0781V33.499Z" fill="#85754E"/>
<path d="M81.5528 30.219C81.7818 30.1377 82.0174 30.0662 82.2531 30.0012L75.0674 21.3612L73.1523 20.9126L73.4776 22.8142L81.5528 30.219Z" fill="#85754E"/>
<path d="M84.5867 9.66586C84.5933 9.23354 84.9518 8.88247 85.3965 8.88247C85.8413 8.88247 86.1997 9.23354 86.2063 9.66586V11.4407H84.5867V9.66586ZM83.5777 19.2226L84.9053 29.5886C85.0646 29.5821 85.2239 29.5756 85.3832 29.5756C85.5525 29.5756 85.7184 29.5789 85.8844 29.5886L87.212 19.2258L87.202 12.6629H87.836V11.4407H87.202V8.56392H86.7307V7.67976V7.55299L85.3998 6.81836L84.0589 7.53999V7.67976V8.56392H83.5876V11.4439H82.957V12.6661H83.5876L83.5777 19.2226Z" fill="#85754E"/>
<path d="M84.4239 29.6174L81.699 17.4863L80.1822 16.1763L79.6113 18.0779L83.8862 29.6759C84.0621 29.6532 84.2414 29.6336 84.4239 29.6174Z" fill="#85754E"/>
<path d="M83.3473 29.7575L75.833 14.4083L73.523 13.1958L73.377 15.7605L82.7532 29.8778C82.9523 29.829 83.1481 29.79 83.3473 29.7575Z" fill="#85754E"/>
<path d="M127.754 68.2796H129.281V67.844H128.275V66.8331H129.065V66.404H128.275V65.7571H129.194V65.3216H127.754V68.2796ZM123.333 66.8006C123.333 67.6327 124.027 68.3218 124.966 68.3218C125.338 68.3218 125.709 68.2081 125.958 67.9935L125.872 67.4994C125.633 67.7432 125.344 67.8765 124.992 67.8765C124.272 67.8765 123.871 67.3954 123.871 66.8038C123.871 66.209 124.299 65.7311 124.953 65.7311C125.338 65.7311 125.597 65.8026 125.859 66.0269L125.942 65.5751C125.693 65.3801 125.334 65.2825 124.966 65.2825C124.037 65.2793 123.333 65.9652 123.333 66.8006ZM121.086 68.2796H121.521V65.3216H121.073V67.2621L120.011 65.3216H119.576V68.2796H120.024V66.3325L121.086 68.2796ZM117.355 68.2796H117.863L117 65.3216H116.592L115.732 68.2796H116.197L116.336 67.7627H117.213L117.355 68.2796ZM117.106 67.3629H116.446L116.768 66.1472L117.106 67.3629ZM113.724 68.2796H114.299L113.539 66.8298C113.86 66.7193 114.09 66.4398 114.09 66.1017C114.09 65.6694 113.701 65.3216 113.213 65.3216H112.171V68.2796H112.666V66.8851H113.027L113.724 68.2796ZM113.207 65.7734C113.406 65.7734 113.562 65.9262 113.562 66.1114C113.562 66.3 113.406 66.4495 113.203 66.4495H112.669V65.7734H113.207ZM110.216 66.9208V66.4918H109.426V65.7604H110.346V65.3248H108.905V68.2828H109.426V66.9208H110.216ZM103.794 68.2796H104.352L103.538 66.716L104.285 65.3216H103.771L103.276 66.2675L102.792 65.3216H102.231L102.981 66.7518L102.164 68.2763H102.682L103.246 67.2036L103.794 68.2796ZM98.5134 67.3174C98.5134 67.9545 98.9648 68.3218 99.5257 68.3218C100.087 68.3218 100.551 67.9545 100.551 67.3174V65.3216H100.03V67.3207C100.03 67.6717 99.8045 67.87 99.5257 67.87C99.2569 67.87 99.0278 67.6717 99.0278 67.3207V65.3216H98.5101V67.3174H98.5134ZM95.2409 68.2796H96.7676V67.844H95.7619V66.8331H96.5519V66.404H95.7619V65.7571H96.6813V65.3216H95.2409V68.2796ZM92.8711 68.2796H93.3059V65.3216H92.8578V67.2621L91.7957 65.3216H91.3609V68.2796H91.809V66.3325L92.8711 68.2796ZM89.0011 68.2796H89.4359V65.3216H88.9878V67.2621L87.9258 65.3216H87.491V68.2796H87.939V66.3325L89.0011 68.2796ZM85.1378 66.8006C85.1378 67.3922 84.6731 67.8733 84.0823 67.8733C83.4916 67.8733 83.0302 67.3922 83.0302 66.8006C83.0302 66.2057 83.4916 65.7279 84.0823 65.7279C84.6731 65.7279 85.1378 66.2057 85.1378 66.8006ZM82.4892 66.8006C82.4892 67.6425 83.1995 68.3218 84.0823 68.3218C84.9685 68.3218 85.6755 67.6425 85.6755 66.8006C85.6755 65.9554 84.9685 65.2793 84.0823 65.2793C83.2028 65.2793 82.4892 65.9554 82.4892 66.8006ZM80.8065 65.7669V65.3248H78.8615V65.7669H79.5784V68.2828H80.0962V65.7669H80.8065ZM75.6819 68.2796H77.2087V67.844H76.203V66.8331H76.9929V66.404H76.203V65.7571H77.1224V65.3216H75.6819V68.2796ZM73.4416 68.2796H74.0158L73.2557 66.8298C73.5777 66.7193 73.8067 66.4398 73.8067 66.1017C73.8067 65.6694 73.4184 65.3216 72.9305 65.3216H71.885V68.2796H72.3828V66.8851H72.7446L73.4416 68.2796ZM72.9238 65.7734C73.123 65.7734 73.279 65.9262 73.279 66.1114C73.279 66.3 73.123 66.4495 72.9205 66.4495H72.3861V65.7734H72.9238ZM68.1909 68.2796H69.1534C69.711 68.2796 70.1591 67.883 70.1591 67.3629C70.1591 66.9956 69.9268 66.703 69.5716 66.586C69.7475 66.482 69.8471 66.3032 69.8471 66.0627C69.8471 65.6434 69.4555 65.3248 68.9709 65.3248H68.1909V68.2796ZM69.1368 66.8656C69.4123 66.8656 69.6347 67.0801 69.6347 67.3467C69.6347 67.6295 69.4156 67.8375 69.1335 67.8375H68.6888V66.8656H69.1368ZM68.9576 65.7669C69.1601 65.7669 69.3227 65.9229 69.3227 66.1147C69.3227 66.313 69.1634 66.4625 68.9974 66.4625H68.6855V65.7701H68.9576V65.7669ZM64.6529 67.0249H66.392V66.6023H64.6529V67.0249ZM61.3172 68.0878C61.523 68.2438 61.7388 68.3251 62.0773 68.3251C62.5951 68.3251 63.0398 68.0098 63.0398 67.4344C63.0398 67.0281 62.834 66.7973 62.3959 66.56L62.1238 66.4072C61.9047 66.2837 61.8217 66.1992 61.8217 66.0464C61.8217 65.8904 61.9479 65.6986 62.2665 65.6986C62.4524 65.6986 62.6382 65.7539 62.8374 65.8969L62.8805 65.4613C62.6648 65.3346 62.4789 65.2793 62.2333 65.2793C61.689 65.2793 61.3372 65.6369 61.3372 66.1082C61.3372 66.404 61.4965 66.6315 61.8184 66.8168L62.1304 66.9891C62.4225 67.1581 62.5287 67.2621 62.5287 67.4702C62.5287 67.727 62.3196 67.9025 62.0408 67.9025C61.7554 67.9025 61.5828 67.805 61.377 67.623L61.3172 68.0878ZM59.2561 68.2796H59.8303L59.0703 66.8298C59.3922 66.7193 59.6212 66.4398 59.6212 66.1017C59.6212 65.6694 59.2329 65.3216 58.745 65.3216H57.6995V68.2796H58.1941V66.8851H58.5558L59.2561 68.2796ZM58.7384 65.7734C58.9375 65.7734 59.0935 65.9262 59.0935 66.1114C59.0935 66.3 58.9375 66.4495 58.7351 66.4495H58.2007V65.7734H58.7384ZM54.3905 68.2796H55.9172V67.844H54.9116V66.8331H55.7015V66.404H54.9116V65.7571H55.8309V65.3216H54.3905V68.2796ZM51.1345 68.2796H52.575V67.8375H51.6556V65.3216H51.1345V68.2796ZM47.8819 68.2796H49.3223V67.8375H48.403V65.3216H47.8819V68.2796ZM45.4325 68.2796H45.9502V65.3216H45.4325V68.2796ZM42.8934 68.2796L43.7298 65.3216H43.2419L42.6777 67.4409L42.1035 65.3216H41.5625L42.4022 68.2796H42.8934Z" fill="#85754E"/>
<path d="M151.701 60.3484H154.14V59.5975H152.584V55.3425H151.701V60.3484ZM148.979 60.3484H149.842L148.382 55.3425H147.688L146.235 60.3484H147.024L147.257 59.4773H148.737L148.979 60.3484ZM148.555 58.7979H147.436L147.984 56.737L148.555 58.7979ZM143.516 60.3484H144.392V55.3425H143.516V60.3484ZM140.788 60.3484H141.761L140.476 57.8942C141.024 57.7089 141.412 57.2376 141.412 56.6655C141.412 55.9374 140.755 55.3425 139.932 55.3425H138.163V60.3484H139.002V57.9885H139.616L140.788 60.3484ZM139.912 56.1096C140.247 56.1096 140.509 56.3664 140.509 56.6817C140.509 57.0036 140.247 57.2539 139.902 57.2539H138.996V56.1096H139.912ZM135.222 57.8455C135.222 58.8466 134.435 59.6625 133.433 59.6625C132.431 59.6625 131.651 58.8466 131.651 57.8455C131.651 56.8378 132.431 56.0284 133.433 56.0284C134.435 56.0316 135.222 56.8378 135.222 57.8455ZM130.738 57.8455C130.738 59.2692 131.943 60.4199 133.433 60.4199C134.93 60.4199 136.128 59.2692 136.128 57.8455C136.128 56.4152 134.93 55.271 133.433 55.271C131.946 55.271 130.738 56.4152 130.738 57.8455ZM126.782 59.0254H126.842L127.857 56.9515V60.3484H128.72V55.3425H127.917L126.871 57.4749L125.829 55.3425H125.003V60.3484H125.77V56.945L126.782 59.0254ZM120.436 60.3484H123.021V59.6138H121.319V57.904H122.656V57.1758H121.319V56.0804H122.872V55.3425H120.433V60.3484H120.436ZM116.274 59.0254H116.334L117.349 56.9515V60.3484H118.209V55.3425H117.406L116.36 57.4749L115.315 55.3425H114.492V60.3484H115.258V56.945L116.274 59.0254ZM106.191 60.3484H108.63V59.5975H107.074V55.3425H106.191V60.3484ZM103.466 60.3484H104.329L102.868 55.3425H102.175L100.721 60.3484H101.511L101.743 59.4773H103.227L103.466 60.3484ZM103.044 58.7979H101.926L102.473 56.737L103.044 58.7979ZM98.1454 60.3484H98.8822V55.3425H98.1222V58.6256L96.3266 55.3425H95.5897V60.3484H96.3498V57.0523L98.1454 60.3484ZM92.6524 57.8455C92.6524 58.8466 91.8658 59.6625 90.8635 59.6625C89.8611 59.6625 89.0812 58.8466 89.0812 57.8455C89.0812 56.8378 89.8611 56.0284 90.8635 56.0284C91.8658 56.0316 92.6524 56.8378 92.6524 57.8455ZM88.1718 57.8455C88.1718 59.2692 89.3766 60.4199 90.8668 60.4199C92.3637 60.4199 93.5618 59.2692 93.5618 57.8455C93.5618 56.4152 92.3637 55.271 90.8668 55.271C89.3766 55.271 88.1718 56.4152 88.1718 57.8455ZM85.2709 60.3484H86.1472V55.3425H85.2709V60.3484ZM83.2795 56.0934V55.3425H79.9871V56.0934H81.1985V60.3484H82.0747V56.0934H83.2795ZM77.5011 60.3484H78.3641L76.9037 55.3425H76.21L74.7563 60.3484H75.5462L75.7786 59.4773H77.2622L77.5011 60.3484ZM77.0796 58.7979H75.9611L76.5087 56.737L77.0796 58.7979ZM72.1808 60.3484H72.9176V55.3425H72.1575V58.6256L70.3619 55.3425H69.6251V60.3484H70.3852V57.0523L72.1808 60.3484ZM62.8178 60.3484H63.5546V55.3425H62.7946V58.6256L60.999 55.3425H60.2622V60.3484H61.0222V57.0523L62.8178 60.3484ZM57.5539 60.3484H58.4135L56.9531 55.3425H56.2595L54.8057 60.3484H55.5957L55.828 59.4773H57.3083L57.5539 60.3484ZM57.1324 58.7979H56.0139L56.5615 56.737L57.1324 58.7979ZM52.0941 60.3484H52.9703V55.3425H52.0941V60.3484ZM47.6466 60.3484H50.0861V59.5975H48.5295V55.3425H47.6466V60.3484ZM44.9217 60.3484H45.7813L44.321 55.3425H43.6273L42.1736 60.3484H42.9602L43.1958 59.4773H44.6761L44.9217 60.3484ZM44.5002 58.7979H43.3817L43.9293 56.737L44.5002 58.7979ZM39.8171 60.3484H40.7895L39.5051 57.8942C40.0527 57.7089 40.441 57.2376 40.441 56.6655C40.441 55.9374 39.7839 55.3425 38.9575 55.3425H37.1917V60.3484H38.0315V57.9885H38.6455L39.8171 60.3484ZM38.9442 56.1096C39.2794 56.1096 39.5416 56.3664 39.5416 56.6817C39.5416 57.0036 39.2794 57.2539 38.9342 57.2539H38.0281V56.1096H38.9442ZM35.197 56.0934V55.3425H31.9046V56.0934H33.116V60.3484H33.9922V56.0934H35.197ZM27.3177 60.0201C27.6695 60.2866 28.0346 60.4199 28.6021 60.4199C29.4784 60.4199 30.2285 59.8836 30.2285 58.9116C30.2285 58.2258 29.88 57.8325 29.1398 57.4294L28.6785 57.1726C28.3067 56.9646 28.1673 56.8215 28.1673 56.5647C28.1673 56.2982 28.3798 55.9796 28.9208 55.9796C29.2327 55.9796 29.5481 56.0706 29.8833 56.3144L29.9563 55.5798C29.5912 55.3653 29.2759 55.271 28.861 55.271C27.9417 55.271 27.3442 55.8789 27.3442 56.672C27.3442 57.1726 27.6131 57.5594 28.1607 57.8747L28.6884 58.1673C29.183 58.4533 29.3589 58.6321 29.3589 58.9832C29.3589 59.4187 29.0104 59.7113 28.5358 59.7113C28.0545 59.7113 27.7624 59.5455 27.4106 59.24L27.3177 60.0201ZM22.0106 58.7199C22.0106 59.7991 22.7773 60.4232 23.7265 60.4232C24.6757 60.4232 25.4657 59.8023 25.4657 58.7199V55.3458H24.5828V58.7296C24.5828 59.3245 24.2011 59.6593 23.7298 59.6593C23.2751 59.6593 22.8901 59.3245 22.8901 58.7296V55.3458H22.0139V58.7199H22.0106ZM19.3653 60.3484H20.225L18.7646 55.3425H18.0709L16.6172 60.3484H17.4071L17.6394 59.4773H19.1197L19.3653 60.3484ZM18.9438 58.7979H17.8253L18.3729 56.737L18.9438 58.7979Z" fill="#85754E"/>
<path d="M138.161 50.4666H140.746V49.7319H139.043V48.0221H140.381V47.294H139.043V46.1986H140.597V45.4639H138.157V50.4666H138.161ZM135.412 50.4666H136.385L135.1 48.0124C135.648 47.8271 136.036 47.3558 136.036 46.7837C136.036 46.0555 135.379 45.4607 134.556 45.4607H132.787V50.4666H133.627V48.1066H134.241L135.412 50.4666ZM134.536 46.2278C134.871 46.2278 135.134 46.4846 135.134 46.7999C135.134 47.1217 134.871 47.372 134.526 47.372H133.62V46.2278H134.536ZM130.792 46.2116V45.4607H127.5V46.2116H128.711V50.4666H129.588V46.2116H130.792ZM124.775 50.4666H125.512V45.4607H124.752V48.7438L122.956 45.4607H122.219V50.4666H122.979V47.1705L124.775 50.4666ZM117.656 50.4666H120.241V49.7319H118.539V48.0221H119.873V47.294H118.539V46.1986H120.095V45.4639H117.656V50.4666ZM111.217 47.9636C111.217 49.3711 112.392 50.5381 113.985 50.5381C114.612 50.5381 115.239 50.3463 115.664 49.979L115.518 49.1436C115.117 49.5597 114.629 49.7807 114.028 49.7807C112.81 49.7807 112.13 48.9648 112.13 47.9636C112.13 46.9559 112.853 46.1465 113.962 46.1465C114.612 46.1465 115.05 46.2668 115.495 46.6471L115.634 45.8832C115.21 45.5549 114.606 45.3892 113.985 45.3892C112.405 45.3892 111.217 46.5496 111.217 47.9636ZM104.463 50.4666H105.346V45.4607H104.463V47.2842H102.899V45.4607H102.023V50.4666H102.899V48.0286H104.463V50.4666ZM97.2106 50.1383C97.5624 50.4015 97.9275 50.5381 98.4951 50.5381C99.3713 50.5381 100.125 50.0017 100.125 49.0298C100.125 48.3439 99.7729 47.9506 99.0361 47.5508L98.5747 47.294C98.203 47.086 98.0636 46.9429 98.0636 46.6861C98.0636 46.4228 98.276 46.101 98.8137 46.101C99.129 46.101 99.441 46.1953 99.7762 46.4391L99.8492 45.7012C99.4841 45.4867 99.1688 45.3957 98.754 45.3957C97.8346 45.3957 97.2339 46.0035 97.2339 46.7967C97.2339 47.2972 97.5027 47.6841 98.0503 47.9994L98.578 48.2919C99.0759 48.578 99.2485 48.7568 99.2485 49.1078C99.2485 49.5434 98.8967 49.8359 98.4221 49.8359C97.9408 49.8359 97.6487 49.6734 97.2969 49.3646L97.2106 50.1383ZM94.7877 50.4666H95.6474L94.187 45.4607H93.4933L92.0396 50.4666H92.8262L93.0619 49.5954H94.5421L94.7877 50.4666ZM94.3629 48.916H93.2444L93.792 46.8552L94.3629 48.916ZM89.464 50.4666H90.2009V45.4607H89.4408V48.7438L87.6452 45.4607H86.9084V50.4666H87.6685V47.1705L89.464 50.4666ZM83.9744 47.9636C83.9744 48.9648 83.1878 49.7807 82.1855 49.7807C81.1864 49.7807 80.4031 48.9648 80.4031 47.9636C80.4031 46.9559 81.1831 46.1465 82.1855 46.1465C83.1845 46.1465 83.9744 46.9559 83.9744 47.9636ZM79.4904 47.9636C79.4904 49.3874 80.6952 50.5381 82.1855 50.5381C83.6823 50.5381 84.8805 49.3874 84.8805 47.9636C84.8805 46.5334 83.6823 45.3892 82.1855 45.3892C80.6952 45.3892 79.4904 46.5334 79.4904 47.9636ZM75.5308 49.1436H75.5906L76.6062 47.0697V50.4666H77.4658V45.4607H76.6626L75.6171 47.5898L74.5716 45.4607H73.7485V50.4666H74.5152V47.0632L75.5308 49.1436ZM66.9446 50.4666H67.6814V45.4607H66.9213V48.7438L65.1257 45.4607H64.3889V50.4666H65.149V47.1705L66.9446 50.4666ZM61.3022 50.4666H62.1851V45.4607H61.3022V47.2842H59.739V45.4607H58.8628V50.4666H59.739V48.0286H61.3022V50.4666ZM55.9288 47.9636C55.9288 48.9648 55.1422 49.7807 54.1398 49.7807C53.1408 49.7807 52.3575 48.9648 52.3575 47.9636C52.3575 46.9559 53.1375 46.1465 54.1398 46.1465C55.1388 46.1465 55.9288 46.9559 55.9288 47.9636ZM51.4448 47.9636C51.4448 49.3874 52.6496 50.5381 54.1398 50.5381C55.6367 50.5381 56.8348 49.3874 56.8348 47.9636C56.8348 46.5334 55.6367 45.3892 54.1398 45.3892C52.6496 45.3892 51.4448 46.5334 51.4448 47.9636ZM46.9309 50.1383C47.1699 50.382 47.6246 50.5381 48.0992 50.5381C48.8659 50.5381 49.47 50.057 49.47 49.1013V45.4607H48.5937V49.0948C48.5937 49.5889 48.3382 49.7807 47.9664 49.7807C47.6014 49.7807 47.3093 49.6182 47.0703 49.3581L46.9309 50.1383ZM40.6679 50.4666H41.6371L40.3526 48.0124C40.9003 47.8271 41.2886 47.3558 41.2886 46.7837C41.2886 46.0555 40.6314 45.4607 39.805 45.4607H38.036V50.4666H38.8757V48.1066H39.4897L40.6679 50.4666ZM39.7884 46.2278C40.1236 46.2278 40.3858 46.4846 40.3858 46.7999C40.3858 47.1217 40.1236 47.372 39.7784 47.372H38.8724V46.2278H39.7884ZM34.9493 50.4666H35.8255V45.4607H34.9493V50.4666ZM30.1367 50.1383C30.4885 50.4015 30.8503 50.5381 31.4212 50.5381C32.2974 50.5381 33.0508 50.0017 33.0508 49.0298C33.0508 48.3439 32.7023 47.9506 31.9622 47.5508L31.5008 47.294C31.1291 47.086 30.9897 46.9429 30.9897 46.6861C30.9897 46.4228 31.2021 46.101 31.7431 46.101C32.0551 46.101 32.3704 46.1953 32.7056 46.4391L32.7787 45.7012C32.4136 45.4867 32.0983 45.3957 31.6834 45.3957C30.764 45.3957 30.1666 46.0035 30.1666 46.7967C30.1666 47.2972 30.4354 47.6841 30.9831 47.9994L31.5075 48.2919C32.0053 48.578 32.1779 48.7568 32.1779 49.1078C32.1779 49.5434 31.8294 49.8359 31.3548 49.8359C30.8735 49.8359 30.5815 49.6734 30.2297 49.3646L30.1367 50.1383Z" fill="#85754E"/>
</svg>
