<svg width="166" height="74" viewBox="0 0 166 74" fill="none" xmlns="http://www.w3.org/2000/svg">
<g clip-path="url(#clip0)">
<path fill-rule="evenodd" clip-rule="evenodd" d="M110.162 25.7972H105.72V38.4349L93.1203 25.3965H93.0043V48.4525H97.4462V35.8149L110.046 48.8532H110.162V25.7972ZM51.2949 25.7972H69.5561V29.9276H62.6174V48.4525H58.2045V29.9276H51.2949V25.7972ZM73.9786 25.7972H87.7688V30.0817H78.4205V34.9826H86.5204V38.9588H78.4205V44.1681H88.0011V48.4525H73.9786V25.7972ZM125.936 25.3965C129.217 25.3965 131.54 26.4753 133.659 28.7871L130.872 32.2085C129.507 30.5132 127.881 29.681 125.936 29.681C123.991 29.681 122.423 30.3899 121.233 31.777C120.043 33.164 119.462 34.921 119.462 37.1094C119.462 39.2979 120.072 41.0857 121.32 42.4728C122.568 43.8598 124.194 44.5688 126.227 44.5688C127.475 44.5688 128.666 44.1989 129.768 43.4283V39.7603H125.152V35.7224H134.181V45.74C132.12 47.8052 129.45 48.8532 126.227 48.8532C122.946 48.8532 120.275 47.7436 118.155 45.5242C116.036 43.2741 114.991 40.4692 114.991 37.1094C114.991 33.7497 116.008 30.9447 118.069 28.7254C120.13 26.5061 122.743 25.3965 125.936 25.3965ZM148.185 25.7972H139.823V48.4525H144.236V40.4692H147.169L151.639 48.4525H156.807L151.843 39.6678C154.253 38.5273 155.762 36.2156 155.762 33.1332C155.762 30.8831 155.037 29.0953 153.555 27.7699C152.104 26.4445 150.304 25.7972 148.185 25.7972ZM147.779 29.8659H144.236V36.4005H147.779C149.898 36.4005 151.261 35.2292 151.261 33.1332C151.261 31.068 149.898 29.8659 147.779 29.8659ZM165.381 25.7972H160.939V48.4525H165.381V25.7972Z" fill="#7C006F"/>
<path d="M11.298 34.8859L0 44.6758L11.298 38.9974L18.3527 35.4515V28.7729L11.298 34.8859Z" fill="#7C006F"/>
<path d="M27.3831 37.2007L23.2655 33.487L23.2236 33.4497L18.3516 35.9982V41.9233L23.2655 45.6093L27.3831 45.6108H36.7026L27.3831 37.2007Z" fill="#00BAE8"/>
<path d="M18.3528 41.0873V35.3203L11.0117 38.9087V44.675L18.3528 41.0873Z" fill="#9FA29F"/>
</g>
<defs>
<clipPath id="clip0">
<path d="M0 0.140137H166V73.8534H0V0.140137Z" fill="white"/>
</clipPath>
</defs>
</svg>
