<svg width="166" height="74" viewBox="0 0 166 74" fill="none" xmlns="http://www.w3.org/2000/svg">
<path d="M22.43 70.2307H24.5856V59.5387H28.4414V57.4614H18.5742V59.5387H22.43V70.2307Z" fill="#DFDFDF"/>
<path fill-rule="evenodd" clip-rule="evenodd" d="M32.3419 70.2307H30.1816V57.4622H35.6568C36.3563 57.4509 37.0524 57.5647 37.7148 57.7982C38.2704 57.9945 38.7779 58.3144 39.2019 58.7355C39.5236 59.0846 39.773 59.4984 39.9347 59.9513C40.1159 60.4408 40.207 60.9612 40.2031 61.4855V61.5209C40.2187 62.1432 40.0947 62.7607 39.8409 63.3248C39.602 63.8309 39.25 64.2705 38.8141 64.6069C38.3547 64.955 37.8377 65.2128 37.2887 65.3674L40.6292 70.2307H38.0727L35.0432 65.8094H32.3419V70.2307ZM32.3419 59.5225V63.8022H35.4992C35.9592 63.8087 36.4158 63.7185 36.8413 63.5369C37.1869 63.3794 37.4824 63.1233 37.6935 62.7986C37.9023 62.463 38.0106 62.0707 38.0045 61.6712V61.6359C38.0162 61.2272 37.9109 60.8241 37.702 60.4775C37.4904 60.1596 37.1944 59.9123 36.8499 59.7657C36.4132 59.5945 35.9489 59.5119 35.4821 59.5225H32.3419Z" fill="#DFDFDF"/>
<path d="M42.3711 70.2307H44.1124V57.4614H42.3711V70.2307Z" fill="#DFDFDF"/>
<path d="M52.8587 70.2309C53.5516 70.2311 54.2416 70.1378 54.9114 69.9533C55.511 69.7803 56.0897 69.5371 56.6362 69.2281C57.1368 68.9519 57.6079 68.6218 58.042 68.2433V62.7999H52.751V64.774H55.929V67.1913C55.5202 67.5008 55.0659 67.7396 54.5836 67.8986C54.0484 68.0768 53.4898 68.1674 52.9278 68.1672C52.3362 68.1706 51.7499 68.0519 51.2029 67.818C50.6973 67.6001 50.2417 67.2737 49.8662 66.8601C49.4903 66.4363 49.1974 65.9406 49.0038 65.4008C48.8009 64.8088 48.6988 64.1847 48.7019 63.5565V63.5206C48.7027 62.9215 48.8064 62.3273 49.0081 61.7658C49.2077 61.2318 49.5 60.7402 49.8704 60.3155C50.2343 59.9013 50.6741 59.5664 51.1641 59.3307C51.6635 59.0886 52.2084 58.9648 52.7596 58.9681C53.2287 58.963 53.6966 59.0187 54.1524 59.1337C54.538 59.2433 54.9078 59.4059 55.252 59.6172C55.5976 59.8307 55.9238 60.0765 56.2265 60.3513L57.6107 58.6369C57.2041 58.2688 56.7602 57.9476 56.2869 57.6789C55.8032 57.4109 55.2868 57.2121 54.7518 57.088C54.1235 56.9424 53.481 56.8734 52.8372 56.8821C52.1208 56.8801 51.4089 56.998 50.7285 57.2313C49.4657 57.6697 48.3705 58.5149 47.6023 59.6441C47.2259 60.2047 46.935 60.8223 46.7398 61.4749C46.5349 62.1482 46.4316 62.8504 46.4337 63.5565V63.5967C46.4304 64.3196 46.5292 65.039 46.727 65.732C46.9198 66.3829 47.2109 66.9978 47.5894 67.5539C47.9601 68.1029 48.4162 68.5839 48.939 68.9774C49.4819 69.3845 50.0848 69.6975 50.7243 69.9041C51.423 70.1253 52.1499 70.2355 52.8804 70.2309H52.8587Z" fill="#DFDFDF"/>
<path d="M65.6202 70.2309C66.3136 70.2311 67.0041 70.1378 67.6742 69.9533C68.2743 69.7803 68.8534 69.5371 69.4004 69.2281C69.902 68.9508 70.3749 68.6208 70.8115 68.2433V62.7999H65.5122V64.774H68.6927V67.1913C68.2835 67.5008 67.8289 67.7396 67.3463 67.8986C66.8108 68.0768 66.2516 68.1674 65.6892 68.1672C65.0972 68.1706 64.5104 68.0519 63.9631 67.818C63.457 67.6001 63.0011 67.2737 62.6252 66.8601C62.2491 66.4363 61.956 65.9406 61.7622 65.4008C61.5593 64.8088 61.457 64.1847 61.4601 63.5565V63.5206C61.461 62.9215 61.5648 62.3273 61.7665 61.7658C61.9663 61.2318 62.2588 60.7402 62.6296 60.3155C62.9938 59.9013 63.4339 59.5664 63.9242 59.3307C64.424 59.0886 64.9694 58.9648 65.5209 58.9681C65.9903 58.9626 66.4587 59.0182 66.9148 59.1337C67.3055 59.2414 67.6801 59.4041 68.0282 59.6172C68.3747 59.8296 68.7012 60.0754 69.0034 60.3513L70.393 58.6369C69.9838 58.2697 69.5383 57.9487 69.0638 57.6789C68.5798 57.4109 68.063 57.2121 67.5275 57.088C66.8987 56.9424 66.2557 56.8734 65.6115 56.8821C64.896 56.8801 64.1849 56.998 63.5056 57.2313C62.2398 57.6679 61.142 58.5135 60.3726 59.6441C59.996 60.2047 59.7049 60.8223 59.5096 61.4749C59.3044 62.1482 59.201 62.8504 59.2032 63.5565V63.5967C59.1998 64.3196 59.2987 65.039 59.4966 65.732C59.6896 66.3829 59.9809 66.9978 60.3597 67.5539C60.7318 68.1018 61.1881 68.5828 61.7104 68.9774C62.2537 69.3845 62.8571 69.6975 63.497 69.9041C64.1962 70.1253 64.9237 70.2355 65.6547 70.2309H65.6202Z" fill="#DFDFDF"/>
<path d="M73.1328 70.2307H82.4195V68.2242H75.3136V64.7961H81.5334V62.7852H75.3136V59.4678H82.3292V57.4614H73.1328V70.2307Z" fill="#DFDFDF"/>
<path fill-rule="evenodd" clip-rule="evenodd" d="M86.323 70.2307H84.1602V57.4622H89.642C90.3423 57.451 91.0394 57.5645 91.7025 57.7979C92.2587 57.9939 92.7669 58.3135 93.1914 58.7342C93.5195 59.0823 93.7763 59.4954 93.9465 59.9487C94.1243 60.4386 94.214 60.9581 94.2109 61.4813V61.5167C94.2232 62.1442 94.0931 62.7659 93.8313 63.3319C93.592 63.8376 93.2395 64.2767 92.8031 64.6128C92.3432 64.9605 91.8255 65.218 91.2759 65.3724L94.6077 70.2307H92.048L89.0277 65.814H86.323V70.2307ZM86.323 59.5336V63.8089H89.5055C89.9662 63.8166 90.4236 63.7264 90.8493 63.5439C91.1953 63.3865 91.4911 63.1307 91.7025 62.8063C91.9116 62.4711 92.02 62.0792 92.0139 61.6801V61.6448C92.0256 61.2365 91.9202 60.8339 91.711 60.4876C91.4935 60.1666 91.1893 59.9192 90.8365 59.7765C90.3995 59.6046 89.9344 59.5221 89.467 59.5336H86.323Z" fill="#DFDFDF"/>
<path d="M96.9297 70.2307H100.337V62.9314L103.53 67.8965H103.604L106.816 62.896V70.2307H110.279V57.4614H106.602L103.604 62.4044L100.607 57.4614H96.9297V70.2307Z" fill="#DFDFDF"/>
<path d="M112.021 70.2307H122.469V67.2188H115.554V65.1947H121.736V62.4044H115.554V60.4688H122.379V57.4614H112.021V70.2307Z" fill="#DFDFDF"/>
<path d="M129.229 70.2176C129.901 70.2248 130.571 70.1283 131.217 69.9311C131.772 69.7639 132.291 69.4843 132.748 69.1074C133.169 68.7487 133.505 68.2887 133.731 67.7644C133.97 67.2032 134.088 66.591 134.075 65.9738V65.9916C134.089 65.455 133.983 64.9226 133.767 64.4382C133.558 63.9925 133.251 63.6084 132.873 63.3191C132.443 62.9841 131.969 62.7186 131.467 62.5313C130.859 62.2945 130.236 62.1045 129.603 61.9627C129.187 61.8598 128.85 61.7658 128.579 61.6763C128.36 61.6102 128.148 61.5186 127.947 61.4031C127.814 61.3357 127.702 61.2286 127.622 61.0943C127.557 60.9785 127.526 60.8445 127.531 60.7093V60.6735C127.529 60.5209 127.576 60.372 127.665 60.2526C127.773 60.112 127.918 60.0091 128.081 59.9572C128.294 59.8735 128.52 59.8341 128.746 59.8409C129.118 59.8427 129.488 59.8923 129.849 59.9886C130.24 60.096 130.621 60.246 130.984 60.4362C131.378 60.631 131.754 60.8648 132.108 61.1345L133.772 58.6053C133.12 58.0414 132.379 57.6091 131.583 57.3294C130.697 57.0229 129.77 56.8717 128.838 56.8818C128.18 56.8755 127.527 56.9797 126.898 57.1907C126.364 57.3703 125.866 57.6608 125.435 58.0457C125.042 58.4048 124.728 58.8527 124.515 59.3573C124.298 59.8781 124.189 60.4431 124.195 61.0136V61.0495C124.18 61.6267 124.299 62.1989 124.54 62.7148C124.769 63.1675 125.098 63.5532 125.497 63.8384C125.943 64.1531 126.425 64.403 126.932 64.5815C127.518 64.7914 128.113 64.9663 128.717 65.1053C129.133 65.2082 129.457 65.3023 129.719 65.3963C129.935 65.464 130.143 65.5571 130.34 65.6738C130.465 65.7478 130.574 65.852 130.655 65.9782C130.714 66.0883 130.743 66.2139 130.739 66.3408V66.3767C130.744 66.6474 130.61 66.899 130.39 67.0302C130.074 67.2019 129.723 67.2821 129.37 67.263C128.68 67.2646 127.994 67.1311 127.348 66.8691C126.672 66.5937 126.042 66.2038 125.481 65.7141L123.629 68.0956C124.124 68.5677 124.675 68.9666 125.268 69.2819C125.875 69.5982 126.515 69.837 127.174 69.9938C127.857 70.1525 128.555 70.232 129.254 70.231L129.229 70.2176Z" fill="#DFDFDF"/>
<path d="M135.818 70.2307H139.354V65.3763H143.891V70.2307H147.427V57.4614H143.891V62.2405H139.354V57.4614H135.818V70.2307Z" fill="#DFDFDF"/>
<path fill-rule="evenodd" clip-rule="evenodd" d="M108.067 19.7353C107.146 2.24627 82.7896 -5.16249 72.2496 12.233C65.4223 9.16083 57.2323 13.8447 57.1143 21.6231C43.5734 23.0389 42.1451 44.112 62.1288 44.112H62.7972C62.254 42.5023 62.2942 40.7475 62.9107 39.1654H60.8184C51.2087 39.0986 48.6666 24.8911 61.5042 26.209C59.176 18.3728 67.2788 11.8412 74.0885 17.7494C80.1906 3.21244 102.765 2.7672 103.804 23.5286C116.371 24.4192 115.978 38.0345 106.779 39.3213H93.9543C94.8911 40.7358 95.0699 42.5348 94.4305 44.112H106.779C120.739 43.8227 123.268 22.7228 108.067 19.7353Z" fill="#0097E1"/>
<path fill-rule="evenodd" clip-rule="evenodd" d="M83.3874 29.6159L83.5142 29.396C84.7961 27.044 89.8975 26.8915 91.8969 28.7632C92.4415 29.5708 93.1738 30.2264 94.0276 30.6707C96.5162 31.7602 99.3982 30.6215 100.531 28.1008C101.665 25.5801 100.638 22.5919 98.2145 21.3573C95.7076 20.1724 92.9119 21.3573 91.5819 23.8618C90.0988 26.6402 84.3499 25.7918 83.2342 24.553C82.5153 23.6393 81.5601 22.9518 80.478 22.5692C78.8944 21.9315 77.0993 22.2136 75.7745 23.3084C74.4497 24.403 73.7985 26.1424 74.0685 27.8654C74.1385 28.3143 74.1035 28.3143 74.6286 29.6249C75.1535 30.9355 72.6072 36.7165 69.9428 37.2192C68.9951 37.1793 68.0525 37.3813 67.1997 37.8072C65.5703 38.6385 64.5097 40.3122 64.4305 42.1773C64.3513 44.0424 65.2658 45.8044 66.8184 46.7779C68.371 47.7516 70.3167 47.7831 71.8985 46.8602C74.3354 45.5138 75.0879 42.5111 73.9635 39.9257C72.7035 37.0352 76.453 32.475 78.5792 32.3314C80.7054 32.1878 84.4068 37.3584 83.1292 39.7596C81.8167 42.2462 82.3286 45.3162 84.6562 46.8423C86.9807 48.298 90.0134 47.5778 91.4778 45.2221C92.9423 42.8665 92.3 39.7417 90.0331 38.1933C89.2076 37.6949 88.2734 37.4172 87.3162 37.3853C84.6911 36.6717 82.018 32.2685 83.2562 29.8898L83.3874 29.6159ZM96.342 23.808C97.5501 23.808 98.5295 24.8128 98.5295 26.0522C98.5295 27.2915 97.5501 28.2964 96.342 28.2964C95.1338 28.2964 94.1544 27.2915 94.1544 26.0522C94.1544 24.8128 95.1338 23.808 96.342 23.808ZM69.4791 44.7956C68.2709 44.7956 67.2915 43.7909 67.2915 42.5514C67.2915 41.312 68.2709 40.3072 69.4791 40.3072C70.6872 40.3072 71.6666 41.312 71.6666 42.5514C71.6666 43.1467 71.4361 43.7175 71.0259 44.1383C70.6157 44.5592 70.0593 44.7956 69.4791 44.7956ZM78.7499 28.6015C77.8509 28.6015 77.1223 27.854 77.1223 26.9318C77.1223 26.0098 77.8509 25.2622 78.7499 25.2622C79.6487 25.2622 80.3773 26.0098 80.3773 26.9318C80.3773 27.854 79.6487 28.6015 78.7499 28.6015ZM87.4387 40.3342C88.6469 40.3342 89.6263 41.3389 89.6263 42.5783C89.6263 43.8178 88.6469 44.8225 87.4387 44.8225C86.2305 44.8225 85.2511 43.8178 85.2511 42.5783C85.2511 41.3389 86.2305 40.3342 87.4387 40.3342Z" fill="#0097E1"/>
</svg>
