<svg width="26" height="26" viewBox="0 0 26 26" fill="none" xmlns="http://www.w3.org/2000/svg">
<g clip-path="url(#clip0)">
<path d="M20.4832 2.5681C17.3568 -0.119928 10.4391 -1.45155 5.25519 2.40766C0.391868 5.65478 0.151367 11.5897 0.151367 11.5897C0.979711 14.8368 4.26648 17.9507 10.5994 16.4337C9.85129 12.0688 11.3177 1.02455 20.4832 2.5682V2.5681Z" fill="#00ACD2"/>
<path d="M17.227 13.1247C13.8059 15.9525 3.39237 20.2676 0.151817 11.5898C-0.622292 15.6307 1.52586 22.3561 7.47336 24.898C12.7284 27.4694 18.2049 24.4914 18.2049 24.4914C20.6139 22.1533 21.7126 17.8288 17.227 13.1247Z" fill="#C8E9EB"/>
<path d="M11.0479 9.15862C15.2172 10.6957 24.1299 17.3573 18.2049 24.4915C22.1054 23.1387 26.6793 17.9629 25.9158 11.5619C25.5241 5.74339 20.4838 2.5684 20.4838 2.5684C17.2463 1.65941 12.8953 2.93752 11.0479 9.15862Z" fill="#662D91"/>
</g>
<defs>
<clipPath id="clip0">
<rect width="26" height="26" fill="white"/>
</clipPath>
</defs>
</svg>
