<svg width="26" height="26" viewBox="0 0 26 26" fill="none" xmlns="http://www.w3.org/2000/svg">
<path d="M3.71162 17.3198H0.0205078V26H8.66013V22.2683H3.71162V17.3198ZM22.2888 17.3604V22.2683H17.3403V22.2278V26H25.9799V17.3198H22.2483L22.2888 17.3604ZM0.0205078 8.68019H3.75218L3.71162 8.63963V3.73167H8.66014V2.0004e-06H0.0205121L0.0205078 8.68019ZM17.3403 0V3.73167H22.2888V8.68019H25.9799V0H17.3403Z" fill="#446CA9"/>
<path d="M16.8536 8.68019L11.9051 3.73167H17.3403V0H8.66013V3.73167L13.6087 8.68019H16.8536ZM12.3918 17.3198H9.14687L13.2436 21.4165L14.0548 22.2683H8.66013V26H17.3403V22.2278L14.8661 19.7941L12.3918 17.3198ZM22.2888 8.68019V14.0749L21.437 13.2231L17.3403 9.12636V12.4119L19.774 14.8456L22.2483 17.3198H25.9799V8.68019H22.2888ZM8.66013 13.5881L3.75218 8.68019H0.0205078V17.3198H3.71162V11.9251L8.66013 16.8736V13.5881Z" fill="#76C4D5"/>
</svg>
