<svg width="26" height="26" viewBox="0 0 26 26" fill="none" xmlns="http://www.w3.org/2000/svg">
<g clip-path="url(#clip0)">
<path d="M12.9946 26V21.008C18.3354 21.008 22.4651 15.7647 20.4262 10.1963C20.0466 9.1715 19.4478 8.2419 18.6716 7.47247C17.8955 6.70305 16.9607 6.11237 15.9326 5.74168C10.3187 3.72018 5.03425 7.81518 5.03317 13.1105C5.03317 13.1105 5.03317 13.1127 5.031 13.1127H0C0 4.67352 8.22033 -1.89799 17.1362 0.862349C21.0329 2.06918 24.1291 5.14043 25.3457 9.00468C28.1287 17.8479 21.5042 26 12.9957 26" fill="#0069FF"/>
<path d="M13.0064 21.0211H7.98843V16.0464H13.0064V21.0211ZM7.98734 24.8452H4.13393L4.13284 24.8441V21.0211H7.98843V24.8441L7.98734 24.8452ZM4.13501 21.0211H0.902344V17.8176C0.902344 17.8176 0.902344 17.8155 0.90451 17.8155H4.13501V21.0221V21.0211Z" fill="#0069FF"/>
</g>
<defs>
<clipPath id="clip0">
<rect width="26" height="26" fill="white"/>
</clipPath>
</defs>
</svg>
