<svg width="26" height="26" viewBox="0 0 26 26" fill="none" xmlns="http://www.w3.org/2000/svg">
<path d="M21.3915 25.9393H5.68317C4.33983 25.9393 3.25 24.83 3.25 23.465V2.47325C3.25 1.10825 4.33875 0 5.68317 0H21.3915C22.7348 0 23.8247 1.10717 23.8247 2.47325V23.465C23.8247 24.8311 22.7348 25.9393 21.3915 25.9393Z" fill="#6762A6"/>
<path d="M16.1443 22.3709V12.0684C16.1443 12.0684 16.803 9.60385 8.02797 13.077C8.01172 13.1204 8.01172 3.55127 8.01172 3.55127L10.8793 3.53394V9.6656C10.8793 9.6656 18.9068 6.45027 18.9068 12.1031V22.3699H16.1443V22.3709ZM17.778 7.24327H14.7371C15.8312 5.8826 16.8225 3.55019 16.8225 3.55019H19.9674C19.9674 3.55019 19.429 5.0701 17.778 7.24435V7.24327ZM8.06372 22.3525V16.4863L10.9486 19.4189L8.06372 22.3525Z" fill="white"/>
</svg>
