<svg width="26" height="26" viewBox="0 0 26 26" fill="none" xmlns="http://www.w3.org/2000/svg">
<path d="M8.88899 20.0818C8.88899 20.0818 7.88365 20.6582 9.60399 20.8532C11.6883 21.0872 12.7543 21.0536 15.0521 20.6257C15.0521 20.6257 15.6555 20.9983 16.4994 21.3223C11.3492 23.4976 4.84274 21.1955 8.88899 20.0818ZM8.25957 17.2435C8.25957 17.2435 7.13182 18.0658 8.85324 18.2402C11.0806 18.4677 12.8399 18.4861 15.883 17.9087C15.883 17.9087 16.3033 18.329 16.9663 18.5587C10.7382 20.3538 3.80382 18.7006 8.25957 17.2424" fill="#D7DDE1"/>
<path d="M13.5633 12.426C14.833 13.8668 13.2307 15.1625 13.2307 15.1625C13.2307 15.1625 16.4526 13.5234 14.9727 11.4705C13.5915 9.55512 12.5309 8.60396 18.2693 5.32471C18.2693 5.32471 9.2625 7.54121 13.5644 12.427" fill="#E76F00"/>
<path d="M20.3756 22.1814C20.3756 22.1814 21.1199 22.7859 19.5566 23.2539C16.584 24.1411 7.18389 24.4087 4.57305 23.2885C3.6338 22.8866 5.39422 22.3276 5.94888 22.2106C6.52522 22.0871 6.85564 22.1099 6.85564 22.1099C5.8113 21.3851 0.107552 23.5334 3.9588 24.1487C14.4585 25.8279 23.1002 23.3925 20.3756 22.1814ZM9.37222 14.3012C9.37222 14.3012 4.59038 15.4203 7.67897 15.8276C8.98222 15.9988 11.5822 15.9609 14.0035 15.7604C15.9816 15.5958 17.9685 15.2459 17.9685 15.2459C17.9685 15.2459 17.2719 15.5405 16.766 15.8807C11.9116 17.1395 2.53097 16.5534 5.23172 15.2664C7.51539 14.1777 9.37222 14.3023 9.37222 14.3023V14.3012ZM17.949 19.0267C22.8857 16.4993 20.6031 14.0694 19.0106 14.3965C18.6206 14.4767 18.4462 14.546 18.4462 14.546C18.4462 14.546 18.5903 14.3229 18.8676 14.2254C22.0191 13.1334 24.4425 17.4461 17.8493 19.1545C17.8493 19.1545 17.9262 19.0874 17.949 19.0267Z" fill="#D7DDE1"/>
<path d="M14.973 0.0283203C14.973 0.0283203 17.7073 2.72365 12.3806 6.8674C8.11006 10.1932 11.4066 12.0891 12.3795 14.2536C9.88564 12.0371 8.05697 10.0849 9.28439 8.26815C11.0849 5.60207 16.0769 4.30965 14.973 0.0283203Z" fill="#E76F00"/>
<path d="M9.85689 25.8777C14.5943 26.1767 21.87 25.712 22.0422 23.502C22.0422 23.502 21.7107 24.3394 18.126 25.0045C14.083 25.7553 9.0953 25.6675 6.13672 25.1865C6.13672 25.1865 6.74339 25.6805 9.85689 25.8777Z" fill="#D7DDE1"/>
</svg>
