<svg width="26" height="26" viewBox="0 0 26 26" fill="none" xmlns="http://www.w3.org/2000/svg">
<path d="M6.9043 8.48154H12.4228V8.91804H7.41016V12.2033H12.1238V12.6398H7.41016V16.2468H12.4802V16.6833H6.9043V8.48154ZM12.9171 8.48154H13.5035L16.1017 12.0885L18.7575 8.48154L22.3698 3.8999L16.4351 12.4675L19.4933 16.6833H18.884L16.1017 12.8466L13.308 16.6833H12.7102L15.7913 12.4675L12.9171 8.48154ZM19.7117 8.91804V8.48154H26.0005V8.91804H23.1033V16.6833H22.5974V8.91804H19.7117Z" fill="#F5F7F9"/>
<path d="M0 8.48145H0.632324L9.3517 21.4665L5.7484 16.6832L0.528853 9.10175L0.505859 16.6832H0V8.48145Z" fill="#F5F7F9"/>
</svg>
