<svg width="26" height="26" viewBox="0 0 26 26" fill="none" xmlns="http://www.w3.org/2000/svg">
<path d="M0 19.1338L1.95 9.96117H6.461C8.411 10.0738 9.386 10.9795 9.386 12.5655C9.386 15.2836 7.06983 16.8685 4.9985 16.7548H2.80258L2.31508 19.1338H0ZM3.29117 15.0572H4.75367C5.85108 14.9434 6.82608 14.6043 6.9485 12.6793C6.9485 11.9989 6.33858 11.6598 5.486 11.6598H3.9L3.29008 15.0572H3.29117ZM8.93317 16.7548L10.8832 7.58325H13.1993L12.7118 9.96117H14.9056C16.8556 10.0738 17.5879 10.9795 17.3431 12.1127L16.4905 16.7548H14.053L14.9056 12.5655C15.028 11.9989 15.028 11.6598 14.1743 11.6598H12.3457L11.2493 16.7548H8.93317ZM16.3345 19.1338L18.2845 9.96117H22.7955C24.7455 10.0738 25.7205 10.9795 25.7205 12.5655C25.7205 15.2836 23.4043 16.8685 21.333 16.7548H19.1382L18.6507 19.1338H16.3345ZM19.6257 15.0572H21.0882C22.1856 14.9434 23.1606 14.6043 23.283 12.6793C23.283 11.9989 22.6731 11.6598 21.8205 11.6598H20.2356L19.6257 15.0572Z" fill="#6983B5"/>
</svg>
