<svg width="474" height="542" viewBox="0 0 474 542" fill="none" xmlns="http://www.w3.org/2000/svg">
<path d="M21.576 42.75H452.616C464.283 42.75 473.741 52.208 473.741 63.875C473.741 75.542 464.283 85 452.616 85H21.576C9.90899 85 0.450989 75.542 0.450989 63.875C0.450989 52.208 9.90899 42.75 21.576 42.75Z" fill="#696969"/>
<path d="M25.333 0H112V20H25.333V0Z" fill="#009FE3"/>
<path d="M138.667 0H225.333V20H138.667V0Z" fill="#C7D302"/>
<path d="M250.5 0H337.167V20H250.5V0Z" fill="#F07E16"/>
<path d="M361.861 0H448.528V20H361.861V0Z" fill="#DF2815"/>
<path d="M361.861 107H448.528V253.5H361.861V107Z" fill="#DF2815"/>
<path d="M250.5 107H337.328V345H250.5V107Z" fill="#F07E16"/>
<path d="M138.667 107H225.328V463.5H138.667V107Z" fill="#C7D302"/>
<path d="M25.333 107H112V541.5H25.333V107Z" fill="#009FE3"/>
</svg>
