<svg xmlns="http://www.w3.org/2000/svg" width="18" height="18" viewBox="0 0 18 18">
    <path fill="#2C1C1C" fill-rule="nonzero" d="M5.77 2c-.325 0-.54.215-.54.538v1.616c0 .324.215.538.54.538.323 0 .538-.214.538-.538V2.538c0-.323-.215-.538-.539-.538zm6.46 0c-.323 0-.538.215-.538.538v1.616c0 .324.215.538.539.538.324 0 .538-.214.538-.538V2.538c0-.323-.214-.538-.538-.538zM3.616 3.077C2.7 3.077 2 3.777 2 4.692v9.693C2 15.3 2.7 16 3.615 16h10.77C15.3 16 16 15.3 16 14.385V4.692c0-.915-.7-1.615-1.615-1.615h-1.077v1.077c0 .593-.484 1.077-1.077 1.077a1.079 1.079 0 0 1-1.077-1.077V3.077H6.846v1.077c0 .593-.484 1.077-1.077 1.077a1.079 1.079 0 0 1-1.077-1.077V3.077H3.615zm-.538 3.77h11.846v7.538c0 .324-.214.538-.538.538H3.615c-.324 0-.538-.214-.538-.538V6.846zm6.461 1.268v1.077h1.077V8.115H9.538zm2.154 0v1.077h1.077V8.115h-1.077zm-6.461-.038v1.077h1.077V8.077H5.23zm2.154.038v1.077h1.077V8.115H7.385zM5.23 10.27v1.077h1.077V10.27H5.23zm2.154 0v1.077h1.077V10.27H7.385zm2.153 0v1.077h1.077V10.27H9.538zm2.154 0v1.077h1.077V10.27h-1.077zm-6.461 2.154V13.5h1.077v-1.077H5.23zm2.154 0V13.5h1.077v-1.077H7.385zm2.153 0V13.5h1.077v-1.077H9.538zm2.154 0V13.5h1.077v-1.077h-1.077z"/>
</svg>
