<svg width="31" height="30" viewBox="0 0 31 30" fill="none" xmlns="http://www.w3.org/2000/svg">
<path fill-rule="evenodd" clip-rule="evenodd" d="M19.4267 2.46074C23.4081 -4.08426 34.6016 4.4069 28.8845 10.0353C26.5715 8.38252 21.6778 4.17536 19.4267 2.46074ZM25.7235 24.709L27.432 27.8411L25.8789 29.1569L23.2143 27.3892C21.4286 28.7237 19.1231 29.5366 16.2967 29.5366C12.9116 29.5366 10.1858 28.7071 8.08703 27.3494L5.36261 29.1565L3.80949 27.8407L5.39253 24.9392C-0.532993 17.6608 3.39639 4.30116 15.1543 4.30116C27.0152 4.30116 30.5501 17.383 25.7235 24.709ZM15.1631 6.51082C1.50905 6.51082 0.348628 27.5803 16.1284 27.5803C29.4326 27.5803 29.0827 6.51082 15.1631 6.51082ZM21.2457 18.6029L20.9768 16.0917H24.2499V18.0627L21.2457 18.6029ZM14.5616 18.8651L10.2093 14.7354L11.0484 13.5539L15.0999 15.682L21.6377 11.1131L22.2844 11.9236L15.9879 18.5948L14.5616 18.8651ZM15.564 8.37776L17.4445 8.23598L17.5751 11.6911L15.3504 11.603L15.564 8.37776ZM13.0959 8.37776H14.5164L14.7857 11.6911L12.827 11.4211L13.0959 8.37776ZM6.48835 18.9912L6.21907 16.2814L9.88019 16.7931L9.79893 18.6407L6.48835 18.9912ZM16.4452 25.9327L14.48 26.2026L13.9418 23.2694H16.4452V25.9327ZM11.0525 2.46074C8.80137 4.17502 3.90809 8.38252 1.59439 10.0353C-4.12271 4.40724 7.07077 -4.08426 11.0525 2.46074Z" fill="#101113"/>
</svg>
