<svg width="39" height="24" viewBox="0 0 39 24" fill="none" xmlns="http://www.w3.org/2000/svg">
<path fill-rule="evenodd" clip-rule="evenodd" d="M37.6838 7.6584C37.4118 7.74748 35.9912 8.18608 34.0502 8.78312L34.3008 13.5095C35.7747 14.2048 35.7685 16.5552 34.3212 17.2464L35.3469 22.885L31.6817 23.1542L32.5481 17.2892C30.9538 16.6895 30.9079 14.4472 32.2376 13.6234L32.1938 9.3533C32.1295 9.37302 32.0663 9.3924 32.0017 9.41246L20.2781 5.47764L18.2867 6.53606L29.1926 10.274C24.3282 11.7649 19.1952 13.334 19.1952 13.334C19.1952 13.334 2.39277 8.5203 1.44417 8.24694C0.495568 7.97358 0.794768 6.6911 0.794768 6.6911L18.4788 0.193359L38.3032 6.1709C38.3029 6.17056 38.5633 7.36974 37.6838 7.6584ZM19.2507 14.8868L28.5888 12.4286L28.5721 19.9137C24.9766 23.3586 13.983 22.868 9.66061 20.0919L9.77893 12.4816L19.2507 14.8868Z" fill="#101113"/>
</svg>
