<svg width="28" height="32" viewBox="0 0 28 32" fill="none" xmlns="http://www.w3.org/2000/svg">
<path fill-rule="evenodd" clip-rule="evenodd" d="M12.6668 22.8801C13.1892 24.0896 13.61 25.3406 13.9248 26.6201C14.8428 30.3601 11.4088 31.1591 11.4088 31.1591L7.5804 24.8045L0.858601 22.9107C0.858601 22.9107 1.457 19.2931 4.4626 19.4223C5.69 19.4733 7.0466 19.6025 8.223 19.7385C9.1002 18.4159 10.2426 16.6784 11.47 14.873L0.25 11.0242C0.25 11.0242 0.93 5.49585 6.744 6.75045C9.1886 7.27745 12.9456 8.02205 15.7914 8.57625C16.7604 7.21625 17.6274 6.02965 18.2904 5.20345C21.0376 1.80005 25.3658 -0.892751 26.8822 0.321049C28.3986 1.53485 27.1576 6.51585 24.4002 9.96005C22.3976 12.4897 15.9818 19.3577 12.6668 22.8801ZM25.7296 21.5847C27.8376 25.9673 22.7376 28.8607 22.7376 28.8607L17.7634 21.0407L22.6186 15.2165C23.6658 17.3381 24.8082 19.6909 25.7296 21.5983V21.5847Z" fill="#101113"/>
</svg>
