<svg width="46" height="45" viewBox="0 0 46 45" fill="none" xmlns="http://www.w3.org/2000/svg">
<path fill-rule="evenodd" clip-rule="evenodd" d="M24.1618 17.4739C31.6901 17.4739 31.6427 29.0096 24.2906 29.0096C16.2399 29.0091 16.604 17.4739 24.1618 17.4739ZM38.7157 39.5995C38.3161 39.9602 37.8898 40.254 37.4448 40.4999L37.0127 37.8031C37.0299 37.7882 37.0492 37.7754 37.0664 37.7601C39.0131 36.0037 39.0714 33.0244 37.949 29.6271C34.5381 31.5056 30.366 32.9487 26.2062 33.8323C25.3542 34.0134 24.4919 34.1673 23.6266 34.3043C25.2526 35.5847 26.8919 36.6697 28.4686 37.4672C29.0513 36.4559 30.1183 35.7148 31.6487 35.7148C36.4601 35.7148 36.4295 43.0869 31.7305 43.0869C29.363 43.0869 28.1371 41.5255 27.9713 39.8399C25.4307 38.6521 22.814 36.8492 20.3469 34.7105C18.1382 34.9059 15.9616 34.942 13.9296 34.7803C14.4318 38.7292 16.1387 41.0867 18.3208 41.7996C20.2073 42.416 22.2452 41.619 24.224 39.8008L26.2496 41.1406C23.5782 43.8043 20.5916 45.143 17.5566 44.1516C13.6647 42.8806 11.9045 39.1231 11.5182 34.4814C6.90354 33.6889 3.40482 31.6792 2.63029 28.0147C2.5183 27.4849 2.46601 26.9659 2.46206 26.4578C-0.915297 25.072 -0.22019 19.389 4.021 19.389C8.5197 19.389 8.78462 25.8319 4.95981 26.67C4.96869 26.9515 4.98596 27.2316 5.04318 27.5022C5.54046 29.8551 7.93066 31.3685 11.4333 32.0622C11.4585 29.966 11.718 27.757 12.1427 25.5598C7.33669 18.6162 4.85868 10.9344 9.20445 7.01561C11.6603 4.80216 14.8191 4.6013 18.154 5.64767L17.1629 7.88388C14.4224 7.16849 12.2454 7.60089 10.8542 8.85505C8.14132 11.301 9.2898 16.5749 12.8877 22.3396C13.1038 21.5337 13.3341 20.7352 13.5872 19.9564C15.4155 14.3278 18.4939 8.43947 22.2003 4.96988C21.5521 2.83113 22.7844 0.09375 25.7282 0.09375C30.5391 0.09375 30.5091 7.46583 25.8101 7.46583C24.9359 7.46583 24.2205 7.24963 23.6532 6.89638C20.5028 9.92021 17.6641 15.252 15.8921 20.7094C15.4002 22.2238 15.012 23.6507 14.6997 25.0067C15.6252 26.2639 16.6533 27.5269 17.7712 28.7737C18.8516 29.9788 19.9917 31.1335 21.1599 32.2056C22.6325 32.0315 24.153 31.7836 25.703 31.4541C29.8529 30.5725 33.9145 29.166 37.0798 27.4067C36.8193 26.8288 36.5331 26.2446 36.2199 25.6568L37.6792 23.3335C38.2125 24.2582 38.6915 25.1898 39.1202 26.1179C41.9835 24.0905 43.6446 21.7167 43.1113 19.1901C42.572 16.6387 40.062 15.0991 36.6047 14.3684C36.5124 18.2085 35.692 22.4712 34.4079 26.4612L31.5732 27.2682C31.7414 26.7957 31.9062 26.3188 32.064 25.8329C33.3689 21.8152 34.1804 17.6168 34.253 14.0062C30.5604 13.6283 26.185 13.9672 22.0435 14.8473C21.7479 14.9101 21.4781 14.9819 21.191 15.0477L22.0153 12.3736C25.9857 11.5726 30.3181 11.2268 34.1795 11.588C33.9436 8.88226 33.1696 6.69354 31.7153 5.45324L32.1563 2.76285C34.9535 4.32672 36.2801 7.73843 36.5578 11.9175C41.1567 12.7709 44.7156 14.8488 45.5246 18.678C46.312 22.4054 43.9361 25.7142 40.0378 28.3526C41.6288 32.8033 41.6347 36.9675 38.7157 39.5995ZM15.97 30.3989C15.3277 29.683 14.7027 28.9433 14.0993 28.1874C13.8798 29.7102 13.7752 31.1157 13.7816 32.3907C15.0731 32.505 16.4678 32.5312 17.9369 32.4703C17.2611 31.797 16.603 31.1053 15.97 30.3989Z" fill="#96969C"/>
</svg>
