<svg xmlns="http://www.w3.org/2000/svg" width="62" height="62" viewBox="0 0 62 62">
    <path fill="#FFF" fill-rule="nonzero" stroke="#595959" d="M14.06 57.5h24.92v-5.668l.531.033 2.175.136c4.937.454 9.174-3.49 9.174-8.48v-5.473l.276-.138 3.762-1.88a2.467 2.467 0 0 0 1.211-1.518c.18-.651.088-1.36-.254-1.978l-4.961-8.54-.064-.188C49.254 11.14 41.64 4.5 28.68 4.5 14.154 4.5 6.5 13.693 6.5 26.68c0 4.5 1.35 8.845 3.894 12.542 2.404 3.495 3.666 7.427 3.666 11.42V57.5zM30.3 14.933c.696.189 1.37.482 2.126.895l3.226-2.324 2.858 2.859-2.316 3.318c.385.671.672 1.374.885 2.137l3.981.658v4.1l-3.977.553c-.19.692-.481 1.363-.893 2.116l2.324 3.225-2.858 2.859-3.34-2.332c-.476.236-.742.362-1.057.5a9.6 9.6 0 0 1-1.058.397l-.658 3.985h-4.087l-.657-3.873c-.696-.19-1.37-.482-2.126-.896l-3.226 2.324-2.863-2.862 2.324-3.226c-.413-.756-.706-1.43-.895-2.127l-3.873-.657v-4.075l3.972-.76c.19-.7.483-1.375.898-2.134l-2.324-3.226 2.862-2.863 3.203 2.307c.62-.388 1.326-.672 2.15-.881l.657-3.87h4.084l.657 3.873zM27.6 20.7a3.834 3.834 0 0 0-3.82 3.82 3.834 3.834 0 0 0 3.82 3.82 3.834 3.834 0 0 0 3.82-3.82 3.834 3.834 0 0 0-3.82-3.82z"/>
</svg>
