<svg xmlns="http://www.w3.org/2000/svg" width="62" height="62" viewBox="0 0 62 62">
    <g fill="none" fill-rule="nonzero" stroke="#595959">
        <path fill="#FFF" stroke-width=".946" d="M35.073 5.586l-.06.016-.137.02H15.021c-1.944 0-3.548 1.585-3.548 3.512v44.163c0 2.322 1.927 4.23 4.266 4.23h29.585c2.34 0 4.267-1.908 4.267-4.23l.01-33.092c.018-.09.018-.186-.01-.371v-.337a.661.661 0 0 0-.185-.478L36.196 5.81a.673.673 0 0 0-.494-.188h-.359l-.12-.015a.663.663 0 0 0-.15-.021z"/>
        <path stroke-width=".946" d="M48.885 19.576L35.601 6.291v10.825c0 1.392 1.068 2.46 2.46 2.46h10.824z"/>
        <path d="M21.34 31.574h18.383H21.34zm0 4.596h18.383H21.34zm0 4.596h18.383H21.34zm0 4.596h10.34-10.34z"/>
    </g>
</svg>
