<svg xmlns="http://www.w3.org/2000/svg" width="62" height="62" viewBox="0 0 62 62">
    <path fill="#FFF" fill-rule="nonzero" stroke="#595959" d="M48.234 57.302c1.17 0 3.017-1.38 5.14-3.667 1.324-1.428 2.718-3.189 3.159-3.83.56-.804.825-1.715.751-2.56-.076-.821-.445-1.512-1.001-1.904-1.027-.714-9.795-6.53-10.725-7.1-.885-.543-2.248-.453-3.645.288-.703.369-2.708 1.5-4.742 2.663l-.275.158-.26-.182c-1.902-1.33-4.576-3.599-7.998-7.017-3.407-3.407-5.649-6.053-7.012-7.993l-.182-.26.157-.275c1.163-2.034 2.295-4.04 2.664-4.744.749-1.416.835-2.786.282-3.661C23.79 16.02 17.992 7.253 17.45 6.5c-.84-1.164-2.81-1.394-4.453-.25-.79.558-2.434 1.861-3.87 3.2-2.296 2.144-3.664 4.008-3.625 5.183.235 7.506 6.45 16.784 16.166 26.494 9.712 9.718 18.987 15.929 26.51 16.175h.057z"/>
</svg>
