<svg width="178" height="48" viewBox="0 0 178 48" fill="none" xmlns="http://www.w3.org/2000/svg">
  <path fill-rule="evenodd" clip-rule="evenodd" d="M21.8201 47.1747C33.871 47.1747 43.6402 45.9901 43.6402 44.5288C43.6402 43.0674 33.871 41.8828 21.8201 41.8828C9.76915 41.8828 0 43.0674 0 44.5288C0 45.9901 9.76915 47.1747 21.8201 47.1747Z" fill="url(#paint0_radial)"/>
  <path fill-rule="evenodd" clip-rule="evenodd" d="M36.5719 22.7617C36.5719 22.7617 36.009 20.8387 35.4424 20.7991C34.878 20.7564 32.0131 21.0652 30.1358 21.114C28.2583 21.1629 25.5585 21.8595 23.017 21.7618C20.4746 21.6679 18.5926 21.1287 17.3617 20.8581C16.7014 20.7106 14.6089 20.7393 12.7469 20.7944C10.3259 20.4818 8.40624 19.6945 7.23527 19.2197C6.97651 19.2554 6.74615 19.2717 6.48047 19.2717C6.51272 21.1699 6.56801 23.3279 6.66629 25.5759C6.68932 26.233 6.72311 26.9226 6.76458 27.6261L6.783 27.9729L6.78531 27.9636C6.92429 30.1666 7.13161 32.4558 7.31052 34.2399L7.24448 34.0979C7.66603 38.3108 8.3118 41.9854 9.28388 43.8091C11.2711 44.6965 14.4492 45.2574 17.9307 45.5141C15.9903 45.3535 14.0584 45.0906 12.227 44.709C16.438 45.1302 19.835 45.3939 22.5724 45.3939C30.8805 45.3939 33.1012 44.3886 33.6732 43.2258H34.3604L36.5719 22.7608V22.7617Z" fill="url(#paint1_radial)"/>
  <path fill-rule="evenodd" clip-rule="evenodd" d="M30.0057 19.2012L30.0039 19.2028L30.0057 19.2012Z" fill="url(#paint2_radial)"/>
  <path fill-rule="evenodd" clip-rule="evenodd" d="M30.0361 19.1792L30.0293 19.1815L30.0361 19.1792Z" fill="url(#paint3_radial)"/>
  <path fill-rule="evenodd" clip-rule="evenodd" d="M30.0911 19.1338L30.0762 19.1458L30.0911 19.1338Z" fill="url(#paint4_radial)"/>
  <path fill-rule="evenodd" clip-rule="evenodd" d="M30.1367 19.0981C31.7991 19.5713 33.2911 19.8901 34.6195 20.0577C33.2902 19.8871 31.8014 19.5659 30.1367 19.0981Z" fill="url(#paint5_radial)"/>
  <path fill-rule="evenodd" clip-rule="evenodd" d="M6.47768 18.6631C7.02055 18.8353 7.61103 19.0005 8.25142 19.1564C9.45307 19.4481 11.9256 20.2207 14.2645 20.2207C15.3764 20.2207 16.459 19.8615 17.3604 19.3775C17.8749 20.123 20.3059 21.5317 23.3267 21.5317C23.6108 21.5317 23.8957 21.5223 24.1897 21.5006C26.0556 21.3517 28.0874 20.7094 30.0025 19.2037L30.0032 19.203L30.027 19.1836L30.0338 19.1813L30.0739 19.1479L30.0884 19.1363L30.1337 19.1006C31.7961 19.5737 33.288 19.8926 34.6164 20.0601C35.4004 20.1672 36.1306 20.2168 36.8025 20.2168L37.1764 20.2114C36.9108 27.0858 36.3149 37.0685 35.0034 43.811C33.8631 44.461 31.8015 44.9824 29.2291 45.3151C27.2181 45.5579 24.9154 45.6813 22.5727 45.6813C21.017 45.6813 19.4444 45.6269 17.9287 45.5152C15.9883 45.3547 14.0564 45.0917 12.2251 44.71C16.436 45.1313 19.833 45.2988 22.5703 45.2988C32.8358 45.2988 33.8117 42.9368 33.8586 42.6932C36.4209 30.6176 35.7313 21.2834 35.5079 21.2439C34.823 21.1198 33.9538 21.0221 32.9141 21.0221C31.3362 21.0221 29.3674 21.2524 27.0385 21.9715C25.8783 22.3322 24.4869 22.4835 22.9757 22.4835C22.3615 22.4835 21.0415 22.4105 21.0193 22.4082C13.2018 21.5348 10.1641 20.3588 6.47768 19.2775L6.47461 18.667" fill="url(#paint6_radial)"/>
  <path fill-rule="evenodd" clip-rule="evenodd" d="M17.3612 19.562L17.3658 19.5496C18.5813 20.5418 20.4779 21.0909 22.3284 21.0909C25.1035 21.0909 27.7456 19.8443 27.7318 16.9664C29.7781 17.9966 31.5779 18.4365 33.1306 18.4365C38.0049 18.4365 40.4375 14.1095 40.4375 10.2666C40.4375 8.13027 38.8987 4.2261 34.4344 2.99271C33.9338 2.85308 32.3696 2.5459 31.4544 2.65217C28.5641 2.99271 27.3901 3.14397 26.3213 3.14397C25.7515 3.14397 25.2064 3.00589 24.4354 2.5808C23.365 1.99126 20.0394 0.521281 18.8677 0.349848C17.2022 0.112478 15.6827 0 14.2943 0H14.0571C2.76889 0 0.470703 7.3181 0.470703 11.8327C0.470703 14.9139 1.52727 17.1037 6.46918 18.6637H6.47838C14.6238 21.5323 17.3604 19.5627 17.3604 19.5627L17.3612 19.562Z" fill="url(#paint7_radial)"/>
  <path fill-rule="evenodd" clip-rule="evenodd" d="M34.4345 2.99219C38.822 4.56689 40.4376 8.12975 40.4376 10.2661C40.4376 14.1105 38.0051 18.4359 33.1307 18.4359C31.5781 18.4359 29.7783 17.9961 27.732 16.9659C27.7458 19.8438 25.1021 21.0904 22.3286 21.0904C20.4796 21.0904 18.5829 20.5404 17.3659 19.5491L17.3613 19.5615C17.8781 20.3046 20.3091 21.5295 23.3275 21.5295C23.6117 21.5295 23.895 21.4775 24.1906 21.4984C27.8272 21.7382 30.1207 19.1108 30.1353 19.0976C31.8008 19.5653 33.2897 19.8865 34.6181 20.0571C35.3913 20.1572 36.1092 20.2084 36.7726 20.2084L37.1788 20.2007H37.2219C38.121 20.1696 38.9134 20.0393 39.6099 19.8205C42.487 18.8711 43.694 16.637 43.4376 12.2627L43.3738 11.5382C43.1888 9.57021 42.1607 7.68682 40.3401 5.94844C38.8881 4.653 36.9147 3.605 34.4338 2.99297" fill="url(#paint8_radial)"/>
  <path fill-rule="evenodd" clip-rule="evenodd" d="M26.6641 26.3155C25.0769 26.3155 23.1666 27.1696 22.4179 27.583C21.8674 26.7871 20.7946 26.3155 19.4962 26.3155C19.2897 26.3155 19.0631 26.3395 18.8281 26.383C17.1604 26.5141 16.5776 26.4318 15.521 26.217C14.3162 25.9718 13.2321 24.0116 13.1729 23.1514C12.329 24.581 12.5871 26.2015 13.4547 27.2697V38.5571H16.2889V29.2648C16.2889 29.2648 17.618 28.4704 18.6876 28.4704C20.0283 28.4704 20.4137 29.838 20.3738 31.2211C21.3882 30.3136 22.1806 29.6472 23.0798 29.1888C23.5881 28.9281 24.5541 28.5418 25.5361 28.5418C27.4174 28.5418 27.6162 30.374 27.6162 32.6438V38.5431L28.5108 38.5547H30.3905V32.3342C30.3928 28.9739 29.9029 26.3148 26.6641 26.3148V26.3155Z" fill="url(#paint9_radial)"/>
  <path fill-rule="evenodd" clip-rule="evenodd" d="M25.8579 35.1475C25.7143 34.3765 24.2823 32.5644 23.043 35.0258C23.9744 34.0088 25.0379 34.0577 25.8579 35.1475Z" fill="url(#paint10_radial)"/>
  <path fill-rule="evenodd" clip-rule="evenodd" d="M22.6389 42.5092C23.7462 42.2253 25.6842 41.0043 26.2071 36.0072H26.2079C26.2171 35.9117 26.1649 35.8163 26.0758 35.776C25.9852 35.7372 25.8831 35.7644 25.8225 35.8373C23.0612 39.1729 20.7169 39.6708 19.5659 39.6708C19.0035 39.6708 18.6623 39.5546 18.6224 39.541C18.6199 39.5402 18.6186 39.5397 18.6184 39.5397C18.5424 39.5079 18.4549 39.5281 18.3919 39.5847C18.3297 39.6406 18.3059 39.7306 18.329 39.8105C18.7766 41.3681 20.3799 42.5914 21.9801 42.5914C22.2082 42.5914 22.4301 42.5612 22.6389 42.5092ZM22.1643 40.8841C22.5683 40.3442 22.9683 40.0044 23.211 39.8454V39.8446C23.6962 39.8415 24.0909 39.9625 24.3474 40.4032C23.79 41.7451 21.663 42.8047 19.7556 41.3394C19.7556 41.3394 21.2168 40.2557 22.5744 39.9346C22.3732 40.1013 22.2135 40.4458 22.1643 40.8841Z" fill="url(#paint11_radial)"/>
  <path fill-rule="evenodd" clip-rule="evenodd" d="M20.4948 35.0817C20.5155 34.9924 20.5508 34.9063 20.5508 34.8063C20.5508 34.1268 20.008 33.5713 19.3399 33.5713C18.6719 33.5713 18.1328 34.1275 18.1328 34.8063C18.1328 35.0064 18.1874 35.1887 18.2695 35.3532C18.8677 35.0646 19.7445 34.7807 20.4948 35.0824V35.0817Z" fill="url(#paint12_radial)"/>
  <path fill-rule="evenodd" clip-rule="evenodd" d="M117.793 25.7129C117.793 23.5564 118.054 21.8328 118.578 20.5404C118.905 19.7065 119.354 19.0503 119.925 18.5678C120.569 18.0093 121.341 17.73 122.238 17.73C123.954 17.73 125.173 18.6337 125.9 20.4412C126.415 21.6668 126.671 23.4222 126.671 25.7121C126.671 28.2603 126.48 30.1585 126.095 31.4082C125.427 33.5415 124.143 34.608 122.238 34.608C121.218 34.608 120.382 34.314 119.728 33.7206C119.149 33.2202 118.705 32.498 118.394 31.5455C117.995 30.3082 117.794 28.3635 117.794 25.7121L117.793 25.7129ZM110.506 18.2396C110.316 18.4297 110.224 18.674 110.224 18.9727H110.226L110.238 19.0805L110.243 19.3745L110.263 19.8408L110.287 20.4807L110.311 21.2626L110.334 22.1888L110.354 23.2283L110.365 24.381C110.37 24.7929 110.372 25.2072 110.372 25.6245C110.372 26.0395 110.37 26.4723 110.365 26.9153L110.354 28.1959L110.34 29.4169C110.336 29.8037 110.329 30.1696 110.322 30.5077L110.321 30.5471L110.296 31.544L110.28 32.3895L110.266 33.0318L110.261 33.46L110.247 33.6089C110.231 33.8083 110.295 33.9944 110.437 34.1698C110.581 34.345 110.835 34.4335 111.204 34.4335C111.587 34.4335 111.849 34.3614 111.991 34.2077C112.134 34.0604 112.206 33.8882 112.206 33.6973L112.219 33.5593L112.225 33.2032L112.237 32.6462L112.255 31.9101L112.281 31.0351L112.298 30.0344L112.31 28.9539L112.323 27.805C112.328 27.3993 112.329 27.0076 112.329 26.6259L114.938 26.5748C115.191 26.5748 115.38 26.4777 115.507 26.2884C115.632 26.0954 115.696 25.8494 115.696 25.5484C115.696 25.2498 115.626 25.0062 115.488 24.824C115.35 24.6401 115.149 24.5493 114.887 24.5493L112.329 24.6129C112.329 22.8171 112.299 21.2502 112.23 19.9152L113.052 19.9105L113.812 19.8943L114.474 19.8819L115.036 19.8718L115.465 19.8593L115.744 19.8516L115.844 19.8392C116.088 19.8392 116.267 19.7453 116.383 19.5545C116.472 19.3885 116.517 19.1837 116.517 18.9347V18.8245C116.5 18.5173 116.43 18.2769 116.307 18.1023C116.203 17.9372 116.034 17.8534 115.807 17.8534H115.77L115.636 17.8657L115.268 17.8728L114.719 17.8851L113.989 17.8975L113.15 17.91L112.207 17.9224L111.205 17.9301C110.917 17.9301 110.686 18.0325 110.506 18.2396ZM85.1582 33.3847C85.1659 33.3677 85.1835 33 85.2073 32.2801C85.2311 31.5602 85.2542 30.5634 85.2749 29.2944C85.2964 28.0222 85.3072 26.8028 85.3072 25.6284C85.3072 25.211 85.3025 24.7945 85.2934 24.3779L85.2742 23.2228C85.271 22.8683 85.2642 22.5239 85.2558 22.1841L85.232 21.2665L85.2082 20.4862L85.1897 19.8477L85.1774 19.3861L85.1705 19.0929L85.1582 18.9805V18.8936C85.1582 18.6539 85.2542 18.4367 85.4446 18.2443C85.6274 18.0349 85.8616 17.9324 86.1526 17.9324H86.9481C87.3789 17.9208 87.7789 17.9201 88.1551 17.9201C88.5291 17.9201 88.9192 17.9503 89.3285 18.0178C89.7354 18.0838 90.1024 18.1854 90.4272 18.318C91.0961 18.619 91.6051 19.0426 91.9561 19.5917C92.3139 20.1673 92.5058 20.9259 92.5304 21.8677C92.5396 22.0399 92.5396 22.2082 92.5304 22.368C92.5304 23.0615 92.4897 23.6099 92.4098 24.0187C92.2609 24.6897 91.9844 25.249 91.5775 25.6912C91.8385 25.8223 92.0589 25.9805 92.2378 26.1644C93.0047 26.923 93.39 28.0602 93.39 29.5767C93.39 31.3515 93.0066 32.6106 92.2401 33.363C91.6926 33.9215 90.9318 34.2613 89.9542 34.3877C89.4797 34.4374 88.9714 34.4622 88.4247 34.4622C87.9378 34.4622 87.5677 34.4521 87.3112 34.4381H86.1733C85.9261 34.4381 85.6819 34.3334 85.4439 34.1239C85.2558 33.9044 85.1597 33.6609 85.1597 33.3862L85.1582 33.3847ZM52.3025 33.4848L52.291 33.6989H52.2933C52.2933 33.7912 52.3025 33.8703 52.3195 33.9386C52.3394 34.0061 52.3785 34.0759 52.4354 34.1573C52.4922 34.2342 52.589 34.297 52.7318 34.3443C52.8731 34.3908 53.0474 34.4126 53.2585 34.4126C53.4682 34.4126 53.6409 34.3939 53.7791 34.3559C53.9151 34.321 54.0156 34.2613 54.0747 34.1883C54.1338 34.1123 54.1776 34.0449 54.2014 33.9812C54.2268 33.9207 54.2414 33.84 54.2506 33.7509L54.2621 33.6135V33.2567L54.2759 32.7006L54.2928 31.9512L54.3067 31.0505C54.3105 30.7333 54.3158 30.3881 54.3251 30.0111C54.3328 29.6395 54.3373 29.261 54.3373 28.8739L54.3427 27.6444C54.3489 27.2077 54.3496 26.7772 54.3496 26.3537C54.3496 25.0008 54.3427 24.0288 54.3258 23.4284C54.7351 24.2523 55.1443 25.1396 55.5544 26.0876C55.8638 26.7795 56.2117 27.5925 56.591 28.5195C56.9726 29.4495 57.2882 30.2461 57.5439 30.9187C57.7965 31.5874 58.043 32.2374 58.2856 32.868C58.5276 33.4972 58.6481 33.8137 58.6481 33.823C58.7448 34.0798 58.8739 34.252 59.0405 34.3334C59.1855 34.4187 59.419 34.4591 59.7384 34.4591H59.8352C60.0072 34.4498 60.1461 34.4226 60.2567 34.3776C60.3688 34.3319 60.4472 34.2621 60.4963 34.1705C60.5447 34.0798 60.5762 33.9914 60.5877 33.9021C60.6 33.816 60.6068 33.7012 60.6068 33.5593C60.6068 33.4778 60.5977 32.9278 60.5769 31.917C60.5562 30.9032 60.5363 29.6745 60.5155 28.2185C60.4963 26.7632 60.4848 25.4669 60.4848 24.3275C60.4848 23.9939 60.4871 23.6549 60.4917 23.3121L60.4971 22.3649C60.4971 22.0717 60.5017 21.787 60.5094 21.5031L60.5278 20.7343L60.5416 20.0781C60.5447 19.871 60.5508 19.691 60.5608 19.5351L60.5723 19.1348V18.8688L60.5862 18.778C60.61 18.5196 60.5339 18.3172 60.3581 18.1729C60.1838 18.0263 59.948 17.9464 59.6548 17.9301H59.5564C59.3108 17.9301 59.1011 17.9822 58.9314 18.0915C58.7356 18.2133 58.6327 18.4065 58.6251 18.6648L58.6112 18.9773L58.5828 19.7965L58.5452 20.9795C58.5337 21.4208 58.5229 21.9406 58.5152 22.5394C58.5061 23.1399 58.5029 23.7348 58.5029 24.3282C58.5029 24.7021 58.5061 25.3018 58.5152 26.1256C58.5229 26.9502 58.5276 27.5738 58.5276 27.9888C58.1175 26.9711 57.7359 26.0596 57.3765 25.2522C56.9688 24.3523 56.4912 23.3369 55.9437 22.202C55.397 21.0695 54.9509 20.1596 54.6092 19.4722C54.2659 18.785 54.0878 18.4344 54.0709 18.4173C53.9242 18.1008 53.6701 17.9425 53.3107 17.9425C53.2056 17.9425 53.088 17.9542 52.9606 17.9783C52.516 18.1055 52.2948 18.3855 52.2948 18.8277C52.2948 18.937 52.3003 19.3544 52.3186 20.0851L52.3266 20.5213C52.3386 21.1772 52.3532 21.9738 52.3662 22.9071C52.3809 24.063 52.39 25.2086 52.39 26.3521V27.9826C52.39 28.5016 52.3878 29.0074 52.3832 29.5007C52.3785 29.9917 52.3717 30.4464 52.3647 30.8628L52.3394 32.0109L52.3164 32.896L52.3025 33.4848ZM62.7046 32.6789C62.5779 33.2001 62.5165 33.4856 62.5165 33.5376L62.5158 33.5383L62.492 33.7361C62.492 34.1271 62.7369 34.3714 63.226 34.4622C63.3412 34.4863 63.4502 34.5002 63.5577 34.5002C63.7275 34.5002 63.8825 34.463 64.0215 34.397C64.2512 34.29 64.3924 34.0837 64.4515 33.7733C64.4515 33.7548 64.4945 33.5468 64.5859 33.1512L65.0297 31.198C65.1668 30.601 65.3086 29.9771 65.4568 29.3249V29.3247C65.5335 28.9871 65.612 28.6419 65.6924 28.2891L68.5204 28.1657C69.1193 31.1305 69.4787 33.0007 69.5946 33.7733C69.6184 34.0146 69.752 34.2109 69.9923 34.3644C70.1828 34.4785 70.3786 34.5327 70.5782 34.5235L70.7471 34.5119C71.0174 34.4863 71.2263 34.3861 71.3699 34.2139C71.4736 34.0814 71.5273 33.9246 71.5273 33.7431L71.515 33.5429C71.515 33.5197 71.4659 33.2474 71.3676 32.7355C71.2685 32.2219 71.1111 31.3958 70.8969 30.264C70.6811 29.1307 70.4577 27.957 70.2288 26.7477C69.9301 25.3041 69.5762 23.7433 69.1723 22.0577C68.7699 20.376 68.4705 19.2116 68.2754 18.5694C68.1533 18.1435 67.8485 17.9333 67.3655 17.9333H67.2572C66.7958 17.9899 66.5132 18.1854 66.4057 18.5205L66.2606 18.9696C66.1638 19.2589 66.0333 19.6732 65.8728 20.2069C65.7241 20.6892 65.5672 21.2153 65.3975 21.7842V21.7844V21.7844L65.3437 21.9646C65.1533 22.6015 64.9606 23.3299 64.7633 24.1429C64.5651 24.9589 64.3801 25.7291 64.2081 26.4467L63.3097 30.1725L62.7046 32.6789ZM66.1531 26.2505L68.1356 26.1636C67.814 24.6874 67.5199 23.4276 67.2565 22.3773C66.8679 23.6115 66.4994 24.9015 66.1531 26.2505ZM73.1275 30.7853C73.1068 31.8101 73.0953 32.7641 73.0953 33.6469L73.093 33.6477C73.0776 33.8339 73.1459 34.0084 73.3041 34.1814C73.4576 34.352 73.7187 34.4381 74.0835 34.4381C74.449 34.4381 74.7062 34.3536 74.8567 34.1883C75.0049 34.0208 75.0802 33.84 75.0802 33.6484C75.0994 31.3175 75.2007 27.8942 75.3865 23.3803C75.4595 23.5967 75.5853 23.9412 75.7659 24.4097C75.9456 24.879 76.0914 25.2692 76.2051 25.5795C76.3202 25.8851 76.4553 26.2854 76.6089 26.7717C76.7664 27.2604 76.9061 27.7398 77.0374 28.2153C77.1833 28.7304 77.5081 28.9888 78.0133 28.9888C78.2652 28.9888 78.4671 28.9352 78.6176 28.8251C78.7697 28.7196 78.8857 28.5225 78.9655 28.2402C79.0729 27.85 79.1797 27.4714 79.2895 27.1076C79.4001 26.7484 79.5198 26.3808 79.6512 26.017C79.7802 25.6493 79.8885 25.3538 79.9752 25.1296L80.3299 24.1918L80.3797 24.0601C80.5038 23.7317 80.5893 23.5054 80.6409 23.3795C80.7707 27.162 80.8368 30.5844 80.8368 33.6477C80.8368 33.92 80.9334 34.1131 81.1339 34.2442C81.3289 34.3714 81.5824 34.4374 81.891 34.4374C82.1621 34.4374 82.3848 34.3706 82.5591 34.2442C82.7334 34.1116 82.8201 33.9184 82.8201 33.6477C82.8201 32.7579 82.8132 31.7968 82.7993 30.769C82.7871 29.7404 82.771 28.7599 82.7502 27.8259C82.7318 26.892 82.7096 25.9673 82.6865 25.052C82.6634 24.1343 82.6396 23.3027 82.6182 22.5534C82.6108 22.3228 82.6039 22.1004 82.5973 21.8863L82.5972 21.8838C82.5823 21.4034 82.5688 20.9647 82.5544 20.5676C82.5353 19.992 82.5191 19.5382 82.5053 19.2054L82.4868 18.695C82.4684 18.4522 82.4016 18.2661 82.2818 18.138C82.1636 18.0077 81.9547 17.9402 81.6583 17.9333C81.3542 17.9333 81.1201 17.9744 80.9596 18.0519C80.7968 18.1311 80.6655 18.2684 80.5642 18.4685L80.4789 18.65L80.2585 19.1116L79.9415 19.812C79.8193 20.0827 79.6834 20.4063 79.5322 20.7809C79.3992 21.109 79.2656 21.458 79.1262 21.8222L79.1261 21.8223L79.0684 21.9732C78.9102 22.3921 78.7366 22.8754 78.5485 23.4153C78.3627 23.9582 78.1815 24.5082 78.0118 25.0667C77.8329 24.4896 77.6486 23.9287 77.4558 23.3788C77.2654 22.8272 77.0911 22.3432 76.9314 21.9235C76.8071 21.591 76.6848 21.2739 76.5673 20.9695L76.5672 20.9693L76.4745 20.729C76.3272 20.3527 76.1958 20.0331 76.0775 19.7678L75.7712 19.0805L75.5624 18.6221L75.484 18.4406C75.3136 18.1008 74.9619 17.9309 74.4275 17.9309H74.3115C74.1089 17.9457 73.9322 18.0217 73.784 18.1528C73.6373 18.2878 73.5582 18.4662 73.5483 18.6927L73.5245 19.1915C73.5068 19.5258 73.4853 19.9804 73.4615 20.5582L73.3786 22.5604C73.3441 23.3128 73.3148 24.1506 73.2849 25.0706L73.1997 27.8515C73.1705 28.7847 73.1483 29.7621 73.1275 30.7853ZM87.3021 24.8139C87.3021 22.9253 87.2706 21.295 87.2031 19.9307L87.7037 19.9183C88.6557 19.9183 89.3146 20.0044 89.6816 20.1797C89.9412 20.2891 90.1493 20.4682 90.3028 20.7181C90.4564 20.9679 90.5463 21.3705 90.5715 21.9274V22.2167C90.5715 23.2958 90.4403 23.9854 90.1808 24.2763C89.8544 24.6114 88.8946 24.7898 87.3021 24.8139ZM87.2031 19.9307V19.9299V19.9307ZM87.2031 32.4361C87.6422 32.4438 88.0407 32.45 88.3985 32.45L88.8992 32.4361C89.3714 32.4361 89.7738 32.3941 90.1031 32.3127C90.4342 32.2305 90.6837 32.0986 90.8534 31.9256C91.2366 31.5338 91.4277 30.7511 91.4277 29.576C91.4277 28.6497 91.2443 28.0013 90.8779 27.625C90.3581 27.1193 89.2455 26.8641 87.5447 26.8641H87.3021C87.3021 28.9786 87.2698 30.8365 87.2031 32.4352V32.4361ZM94.6905 32.6789C94.5645 33.2001 94.5015 33.4856 94.5015 33.5376L94.4997 33.5383L94.4765 33.7361C94.4765 34.1271 94.722 34.3714 95.211 34.4622C95.3277 34.4863 95.4361 34.5002 95.5417 34.5002C95.7139 34.5002 95.8686 34.463 96.0075 34.397C96.2354 34.29 96.379 34.0837 96.4355 33.7733C96.4355 33.7548 96.4808 33.5468 96.5725 33.1512L97.0162 31.198C97.1829 30.4581 97.3608 29.6768 97.5488 28.8517L97.5497 28.8483L97.6775 28.2891L100.505 28.1657C101.105 31.1305 101.462 33.0007 101.58 33.7733C101.604 34.0146 101.735 34.2109 101.975 34.3644C102.168 34.4785 102.362 34.5327 102.563 34.5235L102.732 34.5119C103.004 34.4863 103.211 34.3861 103.354 34.2139C103.46 34.0814 103.512 33.9246 103.512 33.7431L103.5 33.5429C103.5 33.5197 103.452 33.2474 103.351 32.7355L102.883 30.264C102.668 29.1307 102.445 27.957 102.214 26.7477C101.915 25.3041 101.562 23.7433 101.158 22.0577C100.755 20.376 100.454 19.2116 100.261 18.5694C100.139 18.1435 99.8384 17.9333 99.3512 17.9333H99.241C98.7807 17.9899 98.4982 18.1854 98.3926 18.5205L98.2462 18.9696C98.1499 19.2589 98.0193 19.6732 97.8581 20.2069C97.6961 20.7398 97.5173 21.3262 97.3293 21.9646C97.1394 22.6015 96.9467 23.3299 96.7467 24.1429L96.1919 26.4467C95.9853 27.3112 95.7862 28.1366 95.5972 28.9219L95.5963 28.9238V28.9245C95.4926 29.3525 95.3925 29.7686 95.2953 30.1725L94.6905 32.6789ZM98.1406 26.2505L100.123 26.1636C99.8014 24.6874 99.5068 23.4276 99.2438 22.3773C98.8538 23.6115 98.487 24.9015 98.1406 26.2505ZM120.321 31.0863C119.957 30.0616 119.776 28.2704 119.776 25.7129C119.776 23.7651 119.986 22.2951 120.401 21.3037C120.819 20.2441 121.431 19.7159 122.238 19.7159C123.073 19.7159 123.689 20.2115 124.089 21.2013C124.488 22.1958 124.689 23.6983 124.689 25.7129C124.689 28.0703 124.529 29.7652 124.21 30.797C123.981 31.5145 123.703 31.9985 123.372 32.2483C123.041 32.4996 122.664 32.6214 122.238 32.6214C121.326 32.6214 120.686 32.1109 120.321 31.0863ZM128.422 25.7129C128.422 23.5564 128.683 21.8328 129.207 20.5404C129.533 19.7065 129.982 19.0503 130.553 18.5678C131.198 18.0093 131.969 17.73 132.866 17.73C134.581 17.73 135.801 18.6337 136.53 20.4412C137.045 21.6668 137.299 23.4222 137.299 25.7121C137.299 28.2603 137.109 30.1585 136.725 31.4082C136.054 33.5415 134.768 34.608 132.867 34.608C131.846 34.608 131.01 34.314 130.357 33.7206C129.779 33.2202 129.334 32.498 129.022 31.5455C128.623 30.3082 128.423 28.3635 128.423 25.7121L128.422 25.7129ZM130.952 31.0863C130.59 30.0616 130.407 28.2704 130.407 25.7129H130.406C130.406 23.7651 130.614 22.2951 131.031 21.3037C131.449 20.2441 132.06 19.7159 132.868 19.7159C133.7 19.7159 134.317 20.2115 134.716 21.2013C135.116 22.1958 135.316 23.6983 135.316 25.7129C135.316 28.0703 135.158 29.7652 134.84 30.797C134.611 31.5145 134.331 31.9985 133.999 32.2483C133.67 32.4996 133.293 32.6214 132.868 32.6214C131.952 32.6214 131.314 32.1109 130.952 31.0863ZM139.555 18.93C139.555 18.6477 139.649 18.4088 139.837 18.2179C140.009 18.017 140.376 17.9053 140.94 17.8805C141.918 17.8805 142.771 17.9922 143.499 18.2179C144.331 18.4607 145.057 18.8859 145.679 19.4925C146.929 20.7436 147.589 22.7815 147.661 25.6082C147.68 26.0185 147.685 26.4095 147.685 26.7826C147.685 27.957 147.609 28.9724 147.455 29.8304C147.224 31.1119 146.775 32.094 146.106 32.7766C145.501 33.4173 144.739 33.8594 143.815 34.0992C143.269 34.2434 142.685 34.3365 142.065 34.3861C141.616 34.4195 141.253 34.4381 140.975 34.449L140.707 34.4366C140.356 34.411 140.089 34.3102 139.911 34.1239C139.723 33.9099 139.629 33.6648 139.629 33.391V33.3444C139.685 31.4773 139.716 29.6628 139.716 27.8973C139.716 27.1875 139.711 26.4878 139.702 25.7944L139.678 24.2755L139.654 22.8427L139.623 21.5822L139.594 20.4939L139.574 19.6693L139.568 19.1193L139.558 18.9309L139.555 18.93ZM141.599 21.3635C141.584 20.6506 141.572 20.172 141.562 19.9315C142.779 20.0044 143.689 20.3396 144.292 20.9329C145.158 21.7917 145.629 23.3703 145.701 25.6718C145.709 26.0379 145.713 26.387 145.713 26.7205C145.722 27.8127 145.666 28.7048 145.541 29.3968C145.38 30.2973 145.099 30.9637 144.697 31.3974C144.117 31.9908 143.097 32.3235 141.635 32.3988C141.668 30.3493 141.684 28.5947 141.684 27.1348V25.7703C141.677 25.0706 141.666 24.3398 141.649 23.5758L141.599 21.3635Z" fill="#6A737B"/>
  <defs>
  <radialGradient id="paint0_radial" cx="0" cy="0" r="1" gradientUnits="userSpaceOnUse" gradientTransform="translate(21.8197 44.5327) scale(20.4506 2.47991)">
  <stop stop-opacity="0.69"/>
  <stop offset="1" stop-opacity="0.01"/>
  </radialGradient>
  <radialGradient id="paint1_radial" cx="0" cy="0" r="1" gradientUnits="userSpaceOnUse" gradientTransform="translate(12.3625 32.2381) scale(20.6836 18.0738)">
  <stop offset="0.2096" stop-color="#FDFEFF"/>
  <stop offset="0.7239" stop-color="#D9DDE3"/>
  <stop offset="1" stop-color="#C4CAD2"/>
  </radialGradient>
  <radialGradient id="paint2_radial" cx="0" cy="0" r="1" gradientUnits="userSpaceOnUse" gradientTransform="translate(30.0051 19.201) scale(0.000746569)">
  <stop stop-color="#F0F3FF"/>
  <stop offset="0.3497" stop-color="#E9E9EF"/>
  <stop offset="0.4806" stop-color="#E2E3EA"/>
  <stop offset="0.6726" stop-color="#CED2DA"/>
  <stop offset="0.9013" stop-color="#AEB6C1"/>
  <stop offset="1" stop-color="#9EA8B5"/>
  </radialGradient>
  <radialGradient id="paint3_radial" cx="0" cy="0" r="1" gradientUnits="userSpaceOnUse" gradientTransform="translate(30.0307 19.1801) scale(0.0026965)">
  <stop stop-color="#F0F3FF"/>
  <stop offset="0.3497" stop-color="#E9E9EF"/>
  <stop offset="0.4806" stop-color="#E2E3EA"/>
  <stop offset="0.6726" stop-color="#CED2DA"/>
  <stop offset="0.9013" stop-color="#AEB6C1"/>
  <stop offset="1" stop-color="#9EA8B5"/>
  </radialGradient>
  <radialGradient id="paint4_radial" cx="0" cy="0" r="1" gradientUnits="userSpaceOnUse" gradientTransform="translate(30.0782 19.1377) scale(0.00724554)">
  <stop stop-color="#F0F3FF"/>
  <stop offset="0.3497" stop-color="#E9E9EF"/>
  <stop offset="0.4806" stop-color="#E2E3EA"/>
  <stop offset="0.6726" stop-color="#CED2DA"/>
  <stop offset="0.9013" stop-color="#AEB6C1"/>
  <stop offset="1" stop-color="#9EA8B5"/>
  </radialGradient>
  <radialGradient id="paint5_radial" cx="0" cy="0" r="1" gradientUnits="userSpaceOnUse" gradientTransform="translate(31.4777 19.5009) scale(2.80807 0.601088)">
  <stop stop-color="#F0F3FF"/>
  <stop offset="0.3497" stop-color="#E9E9EF"/>
  <stop offset="0.4806" stop-color="#E2E3EA"/>
  <stop offset="0.6726" stop-color="#CED2DA"/>
  <stop offset="0.9013" stop-color="#AEB6C1"/>
  <stop offset="1" stop-color="#9EA8B5"/>
  </radialGradient>
  <radialGradient id="paint6_radial" cx="0" cy="0" r="1" gradientUnits="userSpaceOnUse" gradientTransform="translate(21.2609 32.8444) scale(14.3452 12.624)">
  <stop offset="0.2096" stop-color="#E2E7EB"/>
  <stop offset="0.8129" stop-color="#BEC5CE"/>
  <stop offset="1" stop-color="#B2B9C4"/>
  </radialGradient>
  <radialGradient id="paint7_radial" cx="0" cy="0" r="1" gradientUnits="userSpaceOnUse" gradientTransform="translate(12.4384 10.71) scale(26.3521 13.9063)">
  <stop offset="0.2096" stop-color="#FDFEFF"/>
  <stop offset="0.7239" stop-color="#D9DDE3"/>
  <stop offset="1" stop-color="#C4CAD2"/>
  </radialGradient>
  <radialGradient id="paint8_radial" cx="0" cy="0" r="1" gradientUnits="userSpaceOnUse" gradientTransform="translate(13.331 10.5786) scale(0.675985 0.47993)">
  <stop offset="0.2096" stop-color="#E2E7EB"/>
  <stop offset="0.8129" stop-color="#BEC5CE"/>
  <stop offset="1" stop-color="#B2B9C4"/>
  </radialGradient>
  <radialGradient id="paint9_radial" cx="0" cy="0" r="1" gradientUnits="userSpaceOnUse" gradientTransform="translate(12.7082 24.9725) scale(34.1036 29.6258)">
  <stop offset="0.2096" stop-color="#E30E6F"/>
  <stop offset="0.6402" stop-color="#BF0766"/>
  <stop offset="1" stop-color="#9E005D"/>
  </radialGradient>
  <radialGradient id="paint10_radial" cx="0" cy="0" r="1" gradientUnits="userSpaceOnUse" gradientTransform="translate(12.7026 24.9632) scale(34.1272 16.5875)">
  <stop offset="0.2096" stop-color="#E30E6F"/>
  <stop offset="0.6402" stop-color="#BF0766"/>
  <stop offset="1" stop-color="#9E005D"/>
  </radialGradient>
  <radialGradient id="paint11_radial" cx="0" cy="0" r="1" gradientUnits="userSpaceOnUse" gradientTransform="translate(12.7097 24.9716) scale(34.1084 29.5447)">
  <stop offset="0.2096" stop-color="#E30E6F"/>
  <stop offset="0.6402" stop-color="#BF0766"/>
  <stop offset="1" stop-color="#9E005D"/>
  </radialGradient>
  <radialGradient id="paint12_radial" cx="0" cy="0" r="1" gradientUnits="userSpaceOnUse" gradientTransform="translate(12.708 24.9748) scale(34.101 25.1292)">
  <stop offset="0.2096" stop-color="#E30E6F"/>
  <stop offset="0.6402" stop-color="#BF0766"/>
  <stop offset="1" stop-color="#9E005D"/>
  </radialGradient>
  </defs>
  </svg>
  