<?xml version="1.0" encoding="UTF-8"?>
<svg width="105px" height="36px" viewBox="0 0 105 36" version="1.1" xmlns="http://www.w3.org/2000/svg" xmlns:xlink="http://www.w3.org/1999/xlink">
    <!-- Generator: Sketch 51.1 (57501) - http://www.bohemiancoding.com/sketch -->
    <title>pickd@1x</title>
    <desc>Created with Sketch.</desc>
    <defs></defs>
    <g id="home-L-4" stroke="none" stroke-width="1" fill="none" fill-rule="evenodd">
        <g id="DM_home_1320_l_1" transform="translate(-68.000000, -4889.000000)" fill="#8E8E8E">
            <g id="клиенты" transform="translate(61.000000, 4075.000000)">
                <g id="logos" transform="translate(0.000000, 103.000000)">
                    <g id="pickd" transform="translate(7.000000, 710.000000)">
                        <path d="M43,24.816 L43,12.216 L47.968,12.216 C50.902,12.216 52.756,13.89 52.756,16.464 C52.756,19.29 50.488,20.766 47.716,20.766 L45.214,20.766 L45.214,24.816 L43,24.816 Z M45.214,18.768 L47.788,18.768 C49.462,18.768 50.506,17.832 50.506,16.482 C50.506,15.006 49.444,14.232 47.788,14.232 L45.214,14.232 L45.214,18.768 Z M56.55,24.816 L56.55,12.216 L58.764,12.216 L58.764,24.816 L56.55,24.816 Z M69.38,25.032 C65.708,25.032 62.972,22.17 62.972,18.516 C62.972,14.934 65.654,12 69.47,12 C71.792,12 73.196,12.81 74.402,13.962 L72.98,15.6 C71.972,14.664 70.892,14.034 69.452,14.034 C67.04,14.034 65.294,16.014 65.294,18.516 C65.294,20.982 67.04,22.998 69.452,22.998 C71,22.998 71.99,22.368 73.07,21.36 L74.492,22.8 C73.178,24.168 71.738,25.032 69.38,25.032 Z M78.2139999,24.816 L78.2139999,12.216 L80.4279999,12.216 L80.4279999,18.552 L86.4219999,12.216 L89.1399999,12.216 L83.9019999,17.634 L89.3739999,24.816 L86.6919999,24.816 L82.3899999,19.146 L80.4279999,21.162 L80.4279999,24.816 L78.2139999,24.816 Z M92.6639999,24.816 L92.6639999,12.216 L97.3619999,12.216 C101.322,12.216 104.058,14.934 104.058,18.516 C104.058,22.062 101.322,24.816 97.3619999,24.816 L92.6639999,24.816 Z M94.8779999,22.8 L97.3619999,22.8 C100.008,22.8 101.736,21.018 101.736,18.516 C101.736,16.05 100.008,14.232 97.3619999,14.232 L94.8779999,14.232 L94.8779999,22.8 Z" id="PICKD-Copy"></path>
                        <g id="Group-2" fill-rule="nonzero">
                            <path d="M25.2475516,3 L15.7524484,3 L20.5,11.0343181 L25.2475516,3 Z M19.6390735,13.5087293 L13.1390735,2.50872931 C12.7451644,1.84211389 13.2257,1 14,1 L27,1 C27.7743,1 28.2548356,1.84211389 27.8609265,2.50872931 L21.3609265,13.5087293 C20.9738648,14.1637569 20.0261352,14.1637569 19.6390735,13.5087293 Z" id="Path-2-Copy-7"></path>
                            <path d="M32.2490753,15 L22.7539721,15 L27.5015237,23.0343181 L32.2490753,15 Z M26.6405972,25.5087293 L20.1405972,14.5087293 C19.7466881,13.8421139 20.2272237,13 21.0015237,13 L34.0015237,13 C34.7758237,13 35.2563594,13.8421139 34.8624503,14.5087293 L28.3624503,25.5087293 C27.9753885,26.1637569 27.027659,26.1637569 26.6405972,25.5087293 Z" id="Path-2-Copy-8"></path>
                            <path d="M30.7606913,5.87916512 L21.2655881,5.87916512 L26.0131397,13.9134832 L30.7606913,5.87916512 Z M25.1522132,16.3878944 L18.6522132,5.38789444 C18.2583041,4.72127902 18.7388397,3.87916512 19.5131397,3.87916512 L32.5131397,3.87916512 C33.2874397,3.87916512 33.7679754,4.72127902 33.3740662,5.38789444 L26.8740662,16.3878944 C26.4870045,17.042922 25.5392749,17.042922 25.1522132,16.3878944 Z" id="Path-2-Copy-9" transform="translate(26.013140, 10.379165) rotate(60.000000) translate(-26.013140, -10.379165) "></path>
                            <path d="M25.2490753,15 L15.7539721,15 L20.5015237,23.0343181 L25.2490753,15 Z M19.6405972,25.5087293 L13.1405972,14.5087293 C12.7466881,13.8421139 13.2272237,13 14.0015237,13 L27.0015237,13 C27.7758237,13 28.2563594,13.8421139 27.8624503,14.5087293 L21.3624503,25.5087293 C20.9753885,26.1637569 20.027659,26.1637569 19.6405972,25.5087293 Z" id="Path-2-Copy-10" transform="translate(20.501524, 19.500000) rotate(180.000000) translate(-20.501524, -19.500000) "></path>
                            <path d="M12.2490753,15 L2.75397212,15 L7.50152373,23.0343181 L12.2490753,15 Z M6.6405972,25.5087293 L0.140597202,14.5087293 C-0.253311909,13.8421139 0.227223722,13 1.00152373,13 L14.0015237,13 C14.7758237,13 15.2563594,13.8421139 14.8624503,14.5087293 L8.36245026,25.5087293 C7.9753885,26.1637569 7.02765896,26.1637569 6.6405972,25.5087293 Z" id="Path-2-Copy-11" transform="translate(7.501524, 19.500000) rotate(180.000000) translate(-7.501524, -19.500000) "></path>
                            <path d="M19.2490753,15 L9.75397212,15 L14.5015237,23.0343181 L19.2490753,15 Z M13.6405972,25.5087293 L7.1405972,14.5087293 C6.74668809,13.8421139 7.22722372,13 8.00152373,13 L21.0015237,13 C21.7758237,13 22.2563594,13.8421139 21.8624503,14.5087293 L15.3624503,25.5087293 C14.9753885,26.1637569 14.027659,26.1637569 13.6405972,25.5087293 Z" id="Path-2-Copy-12" transform="translate(14.501524, 19.500000) scale(1, -1) rotate(180.000000) translate(-14.501524, -19.500000) "></path>
                            <path d="M12.2490753,26 L2.75397212,26 L7.50152373,34.0343181 L12.2490753,26 Z M6.6405972,36.5087293 L0.140597202,25.5087293 C-0.253311909,24.8421139 0.227223722,24 1.00152373,24 L14.0015237,24 C14.7758237,24 15.2563594,24.8421139 14.8624503,25.5087293 L8.36245026,36.5087293 C7.9753885,37.1637569 7.02765896,37.1637569 6.6405972,36.5087293 Z" id="Path-2-Copy-13" transform="translate(7.501524, 30.500000) scale(1, -1) rotate(180.000000) translate(-7.501524, -30.500000) "></path>
                        </g>
                    </g>
                </g>
            </g>
        </g>
    </g>
</svg>