<svg xmlns="http://www.w3.org/2000/svg" width="98" height="37" viewBox="0 0 98 37">
    <g fill="#FFF" fill-rule="nonzero" opacity=".5">
        <path d="M90.199 29.841a15.561 15.561 0 0 0 2.822-17.79 15.47 15.47 0 0 0-15.84-8.493C70.636 4.403 65.344 9.316 64 15.796 64.67 6.848 72.131-.054 81.078 0c8.948.054 16.326 7.046 16.888 16.002.562 8.956-5.885 16.82-14.754 17.998a15.4 15.4 0 0 0 6.987-4.159z"/>
        <path d="M70.75 29.048a12.797 12.797 0 0 0 14.7-1.546 12.701 12.701 0 0 0 3.382-14.345 12.769 12.769 0 0 0-12.469-7.914c7.247-1.358 14.313 3.104 16.178 10.216 1.865 7.113-2.107 14.451-9.093 16.803C76.46 34.613 68.84 31.176 66 24.392a12.676 12.676 0 0 0 4.75 4.656z"/>
        <path d="M84.877 14.234a8.324 8.324 0 0 0-3.155-3.086A8.629 8.629 0 0 0 77.408 10a8.19 8.19 0 0 0-5.621 2.205 8.222 8.222 0 0 0-2.786 6.298 8.249 8.249 0 0 0 2.466 6.019 8.134 8.134 0 0 0 5.955 2.477 8.63 8.63 0 0 0 4.335-1.126 8.263 8.263 0 0 0 3.106-3.122A8.52 8.52 0 0 0 86 18.468a8.396 8.396 0 0 0-1.123-4.234zm-7.419 8.622a3.794 3.794 0 0 1-2.892-1.21 4.418 4.418 0 0 1-1.152-3.157 4.335 4.335 0 0 1 1.166-3.142 3.802 3.802 0 0 1 2.892-1.204 3.889 3.889 0 0 1 2.92 1.19 4.362 4.362 0 0 1 1.145 3.128 4.39 4.39 0 0 1-1.158 3.185 3.838 3.838 0 0 1-2.921 1.21zM0 10h5.407l3.959 8.042L13.17 10H18L9.168 27h-.19zM24.949 23.034a5.937 5.937 0 0 0 4.14-1.558l2.82 2.833C30.499 25.867 28.383 27 25.069 27 19.534 27 16 23.41 16 18.502a8.403 8.403 0 0 1 2.493-6.095 8.33 8.33 0 0 1 6.11-2.403c5.549 0 8.722 4.49 8.37 10.106H20.816c.458 1.791 1.812 2.924 4.132 2.924zm3.088-6.232a3.31 3.31 0 0 0-3.49-2.832 3.528 3.528 0 0 0-3.723 2.832h7.213z"/>
        <path d="M41.947 23.034a5.935 5.935 0 0 0 4.139-1.558l2.82 2.833C47.496 25.867 45.38 27 42.067 27c-5.534 0-9.066-3.59-9.066-8.498a8.404 8.404 0 0 1 2.493-6.095 8.327 8.327 0 0 1 6.108-2.403c5.576 0 8.742 4.483 8.368 10.106H37.816c.458 1.791 1.812 2.924 4.131 2.924zm3.116-6.232a3.31 3.31 0 0 0-3.49-2.832 3.528 3.528 0 0 0-3.722 2.832h7.212zM63.373 24.964c-.878 1.439-2.5 2.302-4.916 2.302-4.122 0-7.457-3.647-7.457-8.633C51 13.647 54.335 10 58.457 10c2.409 0 4.03.863 4.916 2.302v-1.87H68V37h-4.627V24.964zm.09-6.33c0-2.684-1.404-4.411-3.798-4.411s-3.89 1.727-3.89 4.41c0 2.684 1.53 4.41 3.89 4.41 2.36 0 3.799-1.72 3.799-4.41z"/>
    </g>
</svg>
