<svg xmlns="http://www.w3.org/2000/svg" width="178" height="39" viewBox="0 0 178 39">
    <path fill="#FFF" fill-rule="nonzero" d="M144.865 12.536V2.937c0-1.72 1.81-2.794 3.203-1.934l21.173 12.536-3.691 8.31h-.14l-3.97-9.098c-.07-.143-.208-.286-.417-.286h-16.158v.071zm13.86 3.654h-5.085v13.324c0 .215-.209.502-.487.502h-2.926c-.209 0-.487-.215-.487-.502V16.19h-4.875v19.843c0 1.72 1.81 2.794 3.203 1.934l16.089-9.527-5.433-12.25zm17.202 1.36l-3.413-2.005-4.875 10.817 8.358-4.943c1.393-.86 1.393-3.009-.07-3.868zm-108.51-.214c0-2.579-2.089-4.728-4.666-4.728h-6.337c-.21 0-.418.215-.418.43V27.58c0 .215.139.43.418.43h2.507c.209 0 .418-.215.418-.43v-5.588H60.8l2.856 5.803c.07.071.14.215.348.215h2.856c.348 0 .487-.358.348-.645l-2.925-5.588c1.81-.86 3.134-2.435 3.134-4.441zm-4.944 1.79h-3.134v-3.438h3.134c.905 0 1.602.717 1.602 1.648 0 .931-.697 1.79-1.602 1.79zm73.477-6.16v2.436c0 .215-.21.43-.418.43h-3.134v12.106c0 .215-.209.43-.418.43h-2.647c-.208 0-.417-.215-.417-.43V15.903h-3.135c-.208 0-.417-.215-.417-.43v-2.435c0-.215.209-.43.417-.43h9.751c.279-.072.418.143.418.358zm-59.06 7.665c0 2.507 1.81 4.585 4.318 4.585 1.044 0 2.159-.358 2.925-1.075a.415.415 0 0 1 .557 0l1.741 1.863c.14.143.14.43 0 .573-1.462 1.504-3.343 2.22-5.293 2.22-4.388 0-7.94-3.581-7.94-8.094s3.552-8.167 7.94-8.167c2.16 0 3.83.717 5.293 2.078.21.215.21.43 0 .644l-1.74 1.791a.415.415 0 0 1-.558 0c-.836-.716-1.88-1.146-2.925-1.146-2.508.072-4.318 2.22-4.318 4.728zm-64.005-7.45l-4.806 7.307v7.02c0 .215-.209.43-.418.43H5.154c-.21 0-.418-.215-.418-.43V20.56L.07 13.18c-.14-.286 0-.645.348-.645h2.786c.139 0 .278.144.348.215l2.995 4.513 2.995-4.513c.07-.071.139-.215.348-.215h2.786c.209 0 .418.359.209.645zm85.386-.358a.382.382 0 0 0-.348-.215h-.209c-.14 0-.279.143-.348.215L90.54 28.01c-.139.286.07.573.349.573h2.437a.775.775 0 0 0 .766-.573l.766-1.791h5.99l.766 1.79c.21.43.348.574.766.574h2.438c.348 0 .487-.287.348-.573l-6.895-15.187zm-2.09 10.315l1.672-3.725 1.672 3.725h-3.343zM24.934 12.536c-4.248 0-7.66 3.51-7.66 7.952 0 4.37 3.412 7.88 7.66 7.88 4.249 0 7.662-3.51 7.662-7.88s-3.413-7.952-7.662-7.952zm0 12.322c-2.298 0-4.248-2.006-4.248-4.37 0-2.436 1.95-4.442 4.248-4.442 2.368 0 4.249 2.006 4.249 4.442 0 2.364-1.95 4.37-4.249 4.37zM49.31 12.966v9.026c0 3.367-2.717 6.09-6.13 6.09-3.342 0-6.058-2.794-6.058-6.09v-9.026c0-.215.208-.43.417-.43h2.647c.209 0 .418.215.418.43v8.883c0 1.504 1.114 2.794 2.646 2.794 1.533 0 2.647-1.218 2.647-2.794v-8.883c0-.215.14-.43.418-.43h2.646c.21 0 .349.215.349.43zm70.552 11.175c0 2.293-1.95 4.657-5.154 4.657-2.856 0-4.458-1.218-4.945-1.72-.21-.214-.279-.286-.14-.644l1.045-1.863c.21-.286.627-.215.766-.143.07.072 1.672 1.218 3.134 1.218.906 0 1.533-.573 1.533-1.361 0-.932-.766-1.648-2.23-2.293-1.88-.788-4.247-2.292-4.247-5.014 0-2.221 1.671-4.513 5.084-4.513 2.298 0 4.04 1.218 4.666 1.719.279.143.209.573.14.716l-1.115 1.72c-.14.214-.557.43-.766.286-.21-.143-1.811-1.361-3.134-1.361-.766 0-1.393.573-1.393 1.146 0 .86.627 1.433 2.368 2.22 1.671.789 4.388 2.15 4.388 5.23z" opacity=".5"/>
</svg>
