<svg xmlns="http://www.w3.org/2000/svg" width="96" height="102" viewBox="0 0 96 102">
    <g fill="none" fill-rule="evenodd">
        <path fill="#0AF" d="M51.188 67.672c-15.897 0-28.821-12.85-28.821-28.65 0-15.796 12.924-28.645 28.82-28.645C67.074 10.377 80 23.226 80 39.022c0 15.8-12.927 28.65-28.812 28.65m23.377-46.244C67.922 8.39 55.245.387 40.65.015h-.008L39.493 0l-1.16.015C23.74.387 11.061 8.39 4.42 21.425c-6.757 13.26-5.716 28.439 2.783 40.607l25.433 36.402A8.363 8.363 0 0 0 39.49 102h.002a8.36 8.36 0 0 0 6.856-3.566L71.78 62.032c8.504-12.168 9.545-27.347 2.784-40.604"/>
        <path fill="#001DFF" d="M59.001 60.84c-11.108 0-20.14-9.02-20.14-20.113 0-11.09 9.032-20.11 20.14-20.11 11.101 0 20.135 9.02 20.135 20.11C79.136 51.82 70.102 60.84 59 60.84m32.856-36.672c-6.223-12.271-18.1-19.804-31.773-20.154h-.007L58.999 4l-1.086.014c-13.673.35-25.55 7.883-31.773 20.151-6.33 12.48-5.355 26.766 2.608 38.218l23.826 34.261A7.825 7.825 0 0 0 58.997 100H59a7.821 7.821 0 0 0 6.423-3.356L89.25 62.383c7.967-11.452 8.942-25.738 2.608-38.215"/>
    </g>
</svg>
