<svg xmlns="http://www.w3.org/2000/svg" width="62" height="62" viewBox="0 0 62 62">
    <path fill="#FFF" fill-rule="nonzero" stroke="#595959" d="M5.504 7.915h-.2v-.202h.202l-.002.202zm.035 0l-.036.037v.088a.66.66 0 0 0 .003.136v48.712a.563.563 0 0 0 .275.492.567.567 0 0 0 .564.002.567.567 0 0 0 .279-.5v-19.76l.312-.126c2.543-1.029 6.439-1.79 11.835-1.79 2.322 0 4.386.301 6.85.928.858.219 1.47.391 3.15.878 6.132 1.78 9.615 2.43 15.412 2.43 3.15 0 6.228-.59 9.109-1.577 1.767-.606 3.115-1.233 3.88-1.668l.275-.155V8.297l-.817.452c-3.202 1.73-7.548 3.104-12.447 3.104-3.908 0-6.823-.761-11.16-2.579-.367-.154-.602-.254-1.345-.571C26.09 6.32 23.234 5.5 18.77 5.5c-7.124 0-11.102.913-12.906 2.128a.516.516 0 0 0-.15.116l-.15.171h-.026z"/>
</svg>
