<svg xmlns="http://www.w3.org/2000/svg" width="62" height="62" viewBox="0 0 62 62">
    <path fill="#FFF" fill-rule="nonzero" stroke="#595959" d="M32.735 10.503c-8.329.16-12.437 6.5-9.613 12.966l.168.383-.349.233c-.347.23-.635.863-.556 1.728.167 1.665.733 2.357 1.423 2.495l.36.073.04.365c.195 1.86 1.43 4.337 2.095 4.622l.303.13v.33c0 1.736-.032 2.902-.136 4.355l-.031.142c-.637 1.672-2.069 2.595-5.27 3.874a129.256 129.256 0 0 1-1.064.42 70.01 70.01 0 0 0-1.075.434c-4.238 1.756-6.324 3.568-6.91 6.926-.032.18.246.561.554.561H49.36c.316 0 .44-.067.494-.174.047-.096.055-.251.026-.42-.595-3.339-2.68-5.144-6.907-6.893-.317-.131-.64-.261-1.075-.433a577.006 577.006 0 0 0-1.063-.42c-3.203-1.279-4.636-2.202-5.273-3.874l-.032-.145a58.417 58.417 0 0 1-.136-4.353v-.33l.303-.13c.613-.263 1.792-2.797 1.995-4.624l.05-.445h.447c.463 0 1.068-.81 1.324-2.516.084-.917-.2-1.57-.433-1.63l-.756-.188.487-.609c.844-1.054 1.125-3.85.497-6.218-.756-2.846-2.56-4.58-5.338-4.58h-.325l-.91-2.055zm-13.079 5.43c-5.994.458-9.123 5.297-7.031 10.031l.194.44-.431.211a.881.881 0 0 0-.179.282c-.112.257-.16.584-.12.962.17 1.35.554 1.857.888 1.857h.439l.057.435c.192 1.457 1.101 3.362 1.585 3.653l.242.146v.569c0 .479 0 .613-.006.81-.009.325-.03.624-.097 1.442l-.022.11c-.306.967-1.193 1.598-2.97 2.383-.23.101-2.06.87-2.612 1.121C6.145 41.96 4.5 43.7 4.5 46.72c0 .064.022.196.082.316.087.174.222.264.498.264h4.545c1.448-3.778 4.142-5.578 9.683-7.761l.188-.075c2.375-.934 3.429-1.458 3.859-2.025.055-.906.083-1.66.09-2.45-.92-1.12-1.682-2.785-2.103-4.45-1.134-.91-1.904-2.38-2.112-4.462-.096-1.038.075-1.99.467-2.822-.747-2.45-.758-4.997-.04-7.322zm25.058-.03c-.788.013-1.628.073-2.43.178.695 2.42.705 5.19.017 7.297.326.803.455 1.728.368 2.698l-.036.126-.001.039c-.303 2.003-1.024 3.453-2.075 4.327-.413 1.638-1.131 3.278-2.002 4.38.007.77.034 1.508.091 2.491.428.564 1.476 1.085 3.826 2.013l.22.086c5.525 2.173 8.23 3.983 9.683 7.762h4.545c.28 0 .416-.087.5-.252a.724.724 0 0 0 .08-.294c.002-3.598-1.55-5.231-5.08-6.57-.22-.084-.448-.167-.738-.271l-.735-.262c-2.476-.89-3.551-1.553-4.048-2.919l-.028-.125c.008.087-.1-1.023-.113-1.228-.02-.292-.024-.571-.024-1.248v-.283l.243-.146c.508-.304 1.42-2.2 1.513-3.52l.033-.466h.466c.324 0 .717-.532.887-1.89.078-.634-.117-1.146-.234-1.185l-.662-.218.42-.557c.629-.838.843-3.013.367-4.841-.57-2.189-1.922-3.505-4.018-3.505h-.327l-.708-1.617z"/>
</svg>
