<svg xmlns="http://www.w3.org/2000/svg" fill="none" viewBox="0 0 387 82">
  <defs/>
  <path fill="#fff" d="M316.7 25.6V4.8c0-3.7 4-6 7-4.1l46.3 27-8.1 18h-.3l-8.7-19.6c-.1-.4-.4-.7-.9-.7h-35.3v.2zm30.3 7.9h-11.1v28.8c0 .5-.5 1-1.1 1h-6.4c-.5 0-1-.4-1-1V33.5h-10.7v42.9c0 3.7 4 6 7 4.2L358.8 60 347 33.5zm37.6 3L377 32l-10.6 23.4 18.2-10.7a5 5 0 00-.1-8.4zM147.4 36c0-5.6-4.6-10.3-10.2-10.3h-13.9c-.5 0-1 .5-1 1V58c0 .5.4 1 1 1h5.5c.4 0 .9-.5.9-1v-12h3.2l6.2 12.5c.2.1.3.4.8.4h6.2c.8 0 1.1-.7.8-1.3l-6.4-12.1c4-1.9 6.9-5.3 6.9-9.6zm-10.9 3.8h-6.8v-7.4h6.8c2 0 3.5 1.6 3.5 3.6s-1.5 3.8-3.5 3.8zm160.7-13.3v5.3c0 .5-.5 1-1 1h-6.8v26.1c0 .5-.4 1-.9 1h-5.8c-.4 0-.9-.5-.9-1v-26H275c-.5 0-1-.5-1-1v-5.2c0-.5.5-1 1-1h21.3c.6-.1.9.4.9.8zM168 43.1c0 5.4 4 10 9.4 10 2.3 0 4.7-.9 6.4-2.4a1 1 0 011.2 0l3.8 4a1 1 0 010 1.3 16 16 0 01-11.5 4.8c-9.6 0-17.4-7.8-17.4-17.6 0-9.7 7.8-17.6 17.4-17.6 4.7 0 8.3 1.5 11.5 4.5.5.4.5 1 0 1.4l-3.8 3.9a1 1 0 01-1.2 0 10 10 0 00-6.4-2.5c-5.5.1-9.4 4.8-9.4 10.2zM28 27L17.6 42.8V58c0 .4-.4.9-.9.9h-5.5c-.4 0-.9-.5-.9-1V43L.1 27c-.3-.5 0-1.3.8-1.3h6c.4 0 .7.3.8.5l6.6 9.7 6.5-9.7c.2-.2.3-.5.8-.5h6c.5 0 1 .8.5 1.4zm186.7-.8l-.3-.3a.8.8 0 00-.5-.2h-.4c-.3 0-.6.4-.8.5L198 59a.8.8 0 00.3 1.2h5.8c.4.1.8 0 1-.2.4-.3.6-.6.7-1l1.6-3.8h13.1l1.7 3.8c.5 1 .8 1.3 1.7 1.3h5.3c.8 0 1-.6.8-1.3l-15-32.8zm-4.6 22.3l3.7-8 3.6 8h-7.3zm-155.7-23c-9.3 0-16.8 7.7-16.8 17.3 0 9.4 7.5 17 16.8 17s16.7-7.6 16.7-17a17 17 0 00-16.7-17.2zm0 26.7c-5 0-9.3-4.3-9.3-9.4 0-5.3 4.3-9.6 9.3-9.6 5.2 0 9.3 4.3 9.3 9.6 0 5.1-4.3 9.4-9.3 9.4zm53.3-25.7V46a13 13 0 01-8.3 12.2A13.3 13.3 0 0181.1 46V26.5c0-.4.5-1 1-1h5.7c.5 0 1 .6 1 1v19.2c0 3.3 2.4 6 5.7 6 3.4 0 5.8-2.6 5.8-6V26.5c0-.4.3-1 1-1h5.7c.5 0 .8.6.8 1zM262 50.7c0 5-4.3 10-11.3 10-6.2 0-9.7-2.6-10.8-3.7-.4-.4-.6-.6-.3-1.4l2.3-4c.5-.6 1.4-.5 1.7-.3.1.2 3.6 2.6 6.8 2.6 2 0 3.4-1.2 3.4-2.9 0-2-1.7-3.6-4.9-5-4-1.7-9.3-5-9.3-10.8 0-4.8 3.7-9.8 11.1-9.8 5 0 8.9 2.7 10.2 3.8.7.3.5 1.2.3 1.5l-2.4 3.7c-.3.5-1.2 1-1.7.6-.4-.3-4-2.9-6.8-2.9-1.7 0-3 1.2-3 2.5 0 1.8 1.3 3 5.1 4.8 3.7 1.7 9.6 4.6 9.6 11.3z"/>
</svg>
