<svg width="387" height="82" viewBox="0 0 387 82" fill="none" xmlns="http://www.w3.org/2000/svg">
<path d="M316.674 25.5928V4.83603C316.674 1.11897 320.633 -1.20503 323.678 0.654621L369.967 27.7597L361.896 45.7281H361.59L352.912 26.0548C352.761 25.7475 352.457 25.438 351.998 25.438H316.674V25.5928ZM346.973 33.4912H335.86V62.3013C335.86 62.7678 335.403 63.3869 334.791 63.3869H328.397C327.942 63.3869 327.332 62.9226 327.332 62.3013V33.4912H316.674V76.3977C316.674 80.1148 320.633 82.4388 323.678 80.5792L358.849 59.9793L346.973 33.4912ZM384.584 36.4343L377.123 32.0981L366.465 55.4862L384.735 44.7994C387.782 42.9398 387.782 38.2941 384.584 36.4343ZM147.356 35.9701C147.356 30.3932 142.788 25.7475 137.156 25.7475H123.299C122.844 25.7475 122.386 26.2119 122.386 26.6762V58.1198C122.386 58.5842 122.689 59.0484 123.297 59.0484H128.78C129.236 59.0484 129.693 58.5842 129.693 58.1198V46.0376H132.892L139.134 58.5842C139.286 58.7411 139.439 59.0484 139.894 59.0484H146.139C146.899 59.0484 147.204 58.2746 146.899 57.6553L140.504 45.5734C144.463 43.7159 147.356 40.3063 147.356 35.9701ZM136.546 39.8418H129.693V32.4077H136.546C138.526 32.4077 140.047 33.9556 140.047 35.9701C140.047 37.9843 138.524 39.8418 136.546 39.8418ZM297.184 26.5215V31.7886C297.184 32.253 296.727 32.7172 296.27 32.7172H289.418V58.896C289.418 59.3602 288.963 59.8247 288.506 59.8247H282.718C282.263 59.8247 281.808 59.3602 281.808 58.8937V32.8721H274.955C274.497 32.8721 274.04 32.4077 274.04 31.9435V26.6762C274.04 26.2119 274.495 25.7475 274.953 25.7475H296.27C296.88 25.5906 297.184 26.0571 297.184 26.5215ZM168.063 43.0945C168.063 48.5165 172.024 53.0096 177.504 53.0096C179.79 53.0096 182.225 52.2336 183.901 50.6856C184.067 50.536 184.284 50.4532 184.51 50.4532C184.735 50.4532 184.952 50.536 185.119 50.6856L188.924 54.7122C189.071 54.886 189.153 55.105 189.153 55.3313C189.153 55.5579 189.071 55.7769 188.924 55.9506C185.726 59.2033 181.617 60.7533 177.351 60.7533C167.761 60.7533 159.993 53.0096 159.993 43.2494C159.993 33.4912 167.761 25.5928 177.351 25.5928C182.073 25.5928 185.729 27.1406 188.924 30.0837C189.381 30.5481 189.381 31.0123 188.924 31.479L185.119 35.3508C184.952 35.5011 184.734 35.5843 184.508 35.5843C184.283 35.5843 184.065 35.5011 183.899 35.3508C182.073 33.803 179.79 32.8721 177.504 32.8721C172.022 33.0291 168.063 37.6725 168.063 43.0945ZM28.1333 26.988L17.6273 42.7849V57.9651C17.6273 58.4293 17.172 58.8937 16.7144 58.8937H11.2327C10.7774 58.8937 10.3198 58.4293 10.3198 57.9651V42.9398L0.114408 26.9859C-0.190639 26.3666 0.114408 25.5928 0.877026 25.5928H6.96658C7.27163 25.5928 7.57668 25.9024 7.7292 26.0571L14.2763 35.8152L20.8235 26.0571C20.9761 25.9001 21.1286 25.5928 21.5837 25.5928H27.6757C28.131 25.5928 28.5862 26.3666 28.131 26.9859L28.1333 26.988ZM214.808 26.2119C214.74 26.0712 214.632 25.9529 214.496 25.8707C214.362 25.7884 214.206 25.7456 214.047 25.7475H213.592C213.284 25.7475 212.982 26.0571 212.83 26.2119L197.908 59.0484C197.838 59.1774 197.804 59.3219 197.808 59.4676C197.814 59.6134 197.855 59.7556 197.933 59.8805C198.008 60.0054 198.116 60.1086 198.246 60.1802C198.375 60.2517 198.52 60.2893 198.669 60.2891H203.998C204.378 60.297 204.75 60.1793 205.054 59.9543C205.358 59.7294 205.575 59.4104 205.673 59.0484L207.349 55.1767H220.443L222.118 59.0484C222.574 59.9793 222.878 60.2891 223.794 60.2891H229.121C229.884 60.2891 230.188 59.6698 229.884 59.0484L214.808 26.2119ZM210.241 48.5165L213.896 40.4632L217.549 48.5165H210.241ZM54.4765 25.5906C45.1885 25.5906 37.7262 33.1817 37.7262 42.7849C37.7262 52.2336 45.1862 59.8247 54.4765 59.8247C63.7645 59.8247 71.2245 52.2336 71.2245 42.7849C71.2245 33.3363 63.7645 25.5951 54.4765 25.5951V25.5906ZM54.4765 52.2336C49.45 52.2336 45.1885 47.8974 45.1885 42.7849C45.1885 37.5201 49.45 33.1839 54.4765 33.1839C59.6532 33.1839 63.7645 37.5201 63.7645 42.7849C63.7645 47.8974 59.5007 52.2336 54.4765 52.2336ZM107.769 26.5215V46.0376C107.772 47.771 107.428 49.4878 106.755 51.0893C106.083 52.6908 105.096 54.1456 103.85 55.3694C102.605 56.5933 101.126 57.5623 99.4985 58.2207C97.8714 58.8792 96.1282 59.2139 94.3694 59.2056C87.0619 59.2056 81.1204 53.1645 81.1204 46.0376V26.5215C81.1204 26.0571 81.578 25.5928 82.0354 25.5928H87.8223C88.2776 25.5928 88.733 26.0571 88.733 26.5215V45.7281C88.733 48.9809 91.1711 51.7691 94.5197 51.7691C97.8707 51.7691 100.307 49.1356 100.307 45.7281V26.5215C100.307 26.0571 100.611 25.5928 101.219 25.5928H107.006C107.461 25.5928 107.769 26.0571 107.769 26.5215ZM262.011 50.6856C262.011 55.6432 257.748 60.7533 250.742 60.7533C244.501 60.7533 240.999 58.1198 239.931 57.0362C239.476 56.572 239.323 56.4171 239.629 55.6411L241.911 51.6144C242.368 50.9952 243.282 51.15 243.588 51.3049C243.74 51.4596 247.24 53.9384 250.44 53.9384C252.421 53.9384 253.789 52.6978 253.789 50.9952C253.789 48.9807 252.113 47.4329 248.917 46.0376C244.805 44.3329 239.629 41.0801 239.629 35.1961C239.629 30.3955 243.282 25.438 250.742 25.438C255.77 25.438 259.575 28.0692 260.946 29.155C261.554 29.4646 261.401 30.3932 261.248 30.7028L258.813 34.4221C258.511 34.8866 257.595 35.3508 257.14 35.0412C256.681 34.7317 253.178 32.0981 250.287 32.0981C248.611 32.0981 247.24 33.3363 247.24 34.577C247.24 36.4343 248.611 37.6725 252.419 39.3774C256.072 41.0823 262.011 44.0254 262.011 50.6833V50.6856Z" fill="white"/>
</svg>
