<svg width="1200" height="40" viewBox="0 0 720 24" fill="none" xmlns="http://www.w3.org/2000/svg">
  <g clip-path="url(#clip0)">
  <path d="M22.1366 18.5782L12.3338 24.1053V19.8017L18.4426 16.4527L22.1366 18.5782ZM22.8084 17.9729V6.41737L19.2226 8.48293V15.9117L22.8084 17.9729ZM1.67066 18.5782L11.4735 24.1053V19.8017L5.36253 16.4527L1.67174 18.5782H1.67066ZM1 17.9729V6.41737L4.5858 8.48293V15.9117L1 17.9729ZM1.42104 5.66743L11.4735 0V4.16004L5.03255 7.69121L4.98113 7.72013L1.42104 5.66743ZM22.3873 5.66743L12.3349 0V4.16004L18.7758 7.68799L18.8272 7.71692L22.3873 5.66743Z" fill="black"/>
  <path d="M11.4736 18.8213L5.44618 15.5173V8.97561L11.4736 12.4436V18.8213ZM12.3349 18.8213L18.3624 15.5205V8.97453L12.3349 12.4436V18.8213ZM5.85437 8.22031L11.9043 4.90663L17.9542 8.22031L11.9043 11.7022L5.85437 8.22031Z" fill="black"/>
  </g>
  <path fill-rule="evenodd" clip-rule="evenodd" d="M42.8527 2H38.76L36 6.865L33.18 2H29.1473L36 13.9922L42.8527 2Z" fill="black"/>
  <path fill-rule="evenodd" clip-rule="evenodd" d="M27.9955 2H24L36 22.981L48 2H44.0044L36 16.0078L27.9955 2Z" fill="black"/>
  <g clip-path="url(#clip1)">
  <path fill-rule="evenodd" clip-rule="evenodd" d="M66.9626 7.88215C67.2219 7.95907 67.4792 8.04268 67.7342 8.13287C70.3265 9.05255 72.0017 10.4935 72.0017 11.9822C72.0017 13.5365 70.2122 15.0544 67.4601 15.9938C67.3147 16.0438 67.1661 16.0916 67.0135 16.1374C67.0671 16.3568 67.1156 16.5774 67.1589 16.7991C67.701 19.6268 67.2835 21.951 65.9957 22.7187C64.7494 23.4616 62.7346 22.7323 60.6949 20.9231C60.4726 20.7254 60.2566 20.5225 60.0458 20.3124C59.8786 20.4799 59.7114 20.6391 59.5452 20.7889C57.439 22.6855 55.2768 23.473 53.9879 22.7063C52.7406 21.9655 52.3491 19.8016 52.8507 17.0779C52.9047 16.7814 52.968 16.487 53.0397 16.1936C52.8216 16.1312 52.6045 16.0604 52.3906 15.9855C49.7433 15.0523 48.0017 13.5157 48.0017 11.9833C48.0017 10.4987 49.6249 9.06712 52.1652 8.15472C52.4498 8.05277 52.7458 7.95705 53.0532 7.86654C52.9878 7.59501 52.9286 7.32243 52.8766 7.04778C52.3501 4.27521 52.7188 2.05924 53.9713 1.31226C55.2757 0.534073 57.4484 1.37052 59.6148 3.35345C59.7497 3.47721 59.8823 3.60346 60.0126 3.73214C60.2072 3.53881 60.4066 3.35044 60.6108 3.16723C62.6785 1.31122 64.7266 0.536154 65.978 1.28001C67.2835 2.05612 67.6667 4.41358 67.081 7.33908C67.0457 7.52114 67.0052 7.70216 66.9626 7.88215ZM66.7677 15.121C66.905 15.0794 67.0392 15.0357 67.1714 14.9909C69.5507 14.1805 71.0165 12.9383 71.0165 11.9832C71.0165 11.0854 69.6599 9.92021 67.4346 9.13266C67.2046 9.05047 66.9664 8.97244 66.7198 8.89962C66.4244 9.88484 66.029 10.9252 65.5505 11.9874C66.0254 13.0037 66.4321 14.0505 66.7677 15.121ZM66.2995 20.2687C66.4587 19.3854 66.4244 18.2545 66.183 17.004H66.1841C66.1466 16.8095 66.1029 16.6097 66.054 16.4058C64.9821 16.6547 63.8939 16.8275 62.7977 16.9229C62.1856 17.8443 61.5123 18.7237 60.7825 19.555C60.9843 19.7547 61.1862 19.9451 61.3869 20.122C63.1337 21.669 64.7546 22.2558 65.512 21.8043C65.8678 21.592 66.156 21.0625 66.2995 20.2687ZM54.5133 21.7928C54.8691 22.004 55.459 21.9967 56.1987 21.7273H56.1997C57.0226 21.4277 57.9579 20.8326 58.8911 19.994C59.0472 19.8536 59.1991 19.709 59.3489 19.5602C58.6466 18.7851 57.9506 17.8998 57.2848 16.9364C56.1196 16.8386 55.0293 16.6784 54.0451 16.4537C53.9785 16.7263 53.9213 16.9999 53.8693 17.2756C53.4396 19.6049 53.7538 21.3423 54.5133 21.7928ZM49.9274 13.4543C50.5911 14.039 51.5586 14.5737 52.7311 14.9857V14.9868C52.9275 15.0552 53.1256 15.1187 53.3252 15.1772C53.6518 14.0967 54.048 13.0386 54.5112 12.0093C54.0347 10.945 53.6404 9.89212 53.3397 8.88609C53.0609 8.9662 52.7852 9.05567 52.5116 9.15346C50.3352 9.93373 49.0295 11.0833 49.0295 11.9832C49.0295 12.4067 49.3312 12.9289 49.9274 13.4543ZM54.4956 2.22778C53.7413 2.67825 53.4407 4.46975 53.8922 6.84594C53.9411 7.1011 53.9962 7.35503 54.0576 7.60749C55.0532 7.37548 56.1352 7.20278 57.2661 7.09459C57.8909 6.18151 58.5752 5.31058 59.3145 4.48744C59.1928 4.36884 59.0732 4.2544 58.9535 4.14412C57.0788 2.43273 55.3008 1.74921 54.4956 2.22778ZM63.5332 8.24211C63.7857 8.64921 64.0296 9.06163 64.2646 9.4791C64.5028 9.90252 64.7338 10.3322 64.9554 10.766C65.2602 10.0336 65.5182 9.31992 65.7253 8.6364C65.0355 8.47411 64.3 8.34198 63.5332 8.24211ZM61.4504 6.99887C60.9833 6.35905 60.5089 5.76917 60.0355 5.2417C59.5549 5.77541 59.0763 6.36321 58.6081 6.99783C59.555 6.95235 60.5036 6.9527 61.4504 6.99887ZM55.1 10.766C55.3164 10.3332 55.5432 9.90668 55.7794 9.48638C56.0156 9.06503 56.2611 8.64993 56.516 8.24003C55.7534 8.33782 55.0231 8.46682 54.3364 8.62496C54.5566 9.35042 54.8115 10.0649 55.1 10.766ZM54.3218 15.4341C55.0535 15.5954 55.7932 15.718 56.5378 15.8014V15.8003C56.0198 14.9732 55.5407 14.1223 55.1021 13.2504C54.7963 13.9963 54.5341 14.7288 54.3218 15.4341ZM58.6175 17.0186C59.0704 17.6347 59.553 18.2284 60.0636 18.7976V18.7987C60.5338 18.266 61.0072 17.6678 61.4754 17.0124C60.5232 17.0535 59.5698 17.0556 58.6175 17.0186ZM65.7731 15.3884C65.5588 14.6955 65.2873 13.9662 64.9658 13.2119C64.5247 14.0889 64.0457 14.9462 63.5301 15.7816C64.3228 15.6838 65.0761 15.5517 65.7731 15.3884ZM62.2255 15.9096C62.6291 15.2854 63.0141 14.6455 63.3782 13.9953H63.3792C63.7465 13.3409 64.0898 12.673 64.4123 11.9926C64.0877 11.3195 63.7413 10.6578 63.3751 10.0086C63.0109 9.3605 62.625 8.72587 62.2172 8.10478C60.7583 7.99142 59.2929 7.99142 57.8341 8.10478C57.0081 9.34932 56.2768 10.6541 55.6462 12.0082C56.2814 13.3643 57.0169 14.6712 57.8466 15.9179C58.5478 15.9647 59.275 15.9886 60.0241 15.9886C60.7752 15.9886 61.5118 15.9616 62.2255 15.9096ZM66.1102 7.1258C66.6158 4.59876 66.3027 2.67409 65.4974 2.19552C64.7411 1.74817 63.0827 2.37447 61.3079 3.96414C61.1185 4.13268 60.9344 4.30746 60.7544 4.48536C61.4895 5.30873 62.1687 6.18042 62.7873 7.09459C63.9213 7.20487 65.0043 7.38069 66.002 7.61789C66.0405 7.45455 66.0769 7.29018 66.1102 7.1258Z" fill="black"/>
  <path d="M60.023 9.77348C61.209 9.77348 62.1693 10.7618 62.1693 11.9822C62.1693 13.2025 61.208 14.1909 60.023 14.1909C58.837 14.1909 57.8757 13.2025 57.8757 11.9822C57.8757 10.7629 58.837 9.77348 60.023 9.77348Z" fill="black"/>
  </g>
  <path fill-rule="evenodd" clip-rule="evenodd" d="M96 0H72V24H96V0ZM80.147 18.945L78.31 20.056C78.842 21.184 79.889 22.118 81.694 22.118C83.691 22.118 85.061 21.055 85.061 18.718V11.018H82.805V18.687C82.805 19.815 82.338 20.105 81.597 20.105C80.824 20.105 80.501 19.573 80.147 18.945ZM88.122 18.751L86.286 19.814V19.815C86.946 21.12 88.299 22.118 90.394 22.118C92.536 22.118 94.131 21.007 94.131 18.977C94.131 17.092 93.052 16.254 91.135 15.432L90.571 15.192C89.605 14.772 89.185 14.498 89.185 13.822C89.185 13.274 89.605 12.855 90.265 12.855C90.909 12.855 91.328 13.129 91.715 13.822L93.471 12.694C92.73 11.389 91.699 10.889 90.265 10.889C88.252 10.889 86.962 12.179 86.962 13.869C86.962 15.706 88.042 16.576 89.669 17.269L90.233 17.511C91.264 17.962 91.875 18.236 91.875 19.009C91.875 19.653 91.28 20.121 90.345 20.121C89.234 20.121 88.606 19.541 88.122 18.751Z" fill="black"/>
  <path d="M107.953 9.07848C107.75 9.21899 107.519 9.36329 107.261 9.5038L107.265 9.54557C107.281 9.54557 107.304 9.53418 107.336 9.51519C107.367 9.51139 107.382 9.52658 107.386 9.55317L107.429 9.53038H107.449V9.54937C107.453 9.57215 107.289 9.69367 106.968 9.91393L106.992 9.9595H106.972L106.921 9.94051C106.921 9.9557 106.902 9.96709 106.855 9.97089V9.98988L106.906 10.0506C106.89 10.0506 106.863 10.0468 106.831 10.0316C106.726 10.0392 106.624 10.1152 106.522 10.2519L106.546 10.2937C106.636 10.2139 106.687 10.1722 106.702 10.1722L106.706 10.2367C106.691 10.2367 106.667 10.2481 106.636 10.2671L106.694 10.3468C106.8 10.2329 106.917 10.138 107.042 10.0582C107.105 10.0772 107.14 10.0962 107.14 10.1152L107.187 10.1114C107.539 9.86076 107.883 9.68228 108.223 9.57215L108.227 9.61393C108.164 9.70507 108.121 9.75064 108.098 9.75443C108.102 9.78481 108.109 9.81139 108.125 9.83798C108.129 9.89494 107.977 10.2747 107.664 10.9772C106.949 12.6063 106.35 13.8139 105.866 14.5962C105.866 14.6114 105.878 14.6342 105.897 14.6608C106.018 14.6342 106.093 14.6038 106.124 14.5772H106.143L106.147 14.619L106.198 14.6152L106.241 14.5924C106.241 14.6038 106.257 14.6114 106.288 14.6076L106.292 14.6532C106.296 14.6949 106.268 14.7595 106.218 14.8506C106.167 14.9038 106.112 15.0177 106.057 15.1886L106.061 15.2114L106.108 15.2076C106.304 14.9949 106.448 14.7899 106.55 14.5848C107.117 14.4215 107.547 14.2658 107.848 14.1101C108.152 14.0835 108.379 14.0076 108.536 13.8823L108.532 13.8595L108.414 13.8937L108.391 13.8975L108.387 13.8747C108.61 13.8443 108.762 13.7949 108.844 13.7304C109.274 13.4076 109.599 13.1797 109.822 13.0468C110.502 12.5608 110.822 12.0975 110.783 11.6494C110.779 11.6038 110.631 11.4215 110.334 11.1025C110.33 11.0418 110.431 10.9544 110.638 10.8405L111.233 10.3392C111.365 10.176 111.444 9.91013 111.467 9.54177L111.459 9.45823C111.436 9.2038 111.244 8.99874 110.885 8.83924C110.67 8.69874 110.287 8.62279 109.736 8.6076C109.29 8.63798 108.692 8.79747 107.953 9.07848ZM111.135 9.10886L111.111 9.15443L110.455 8.88481C110.896 8.9038 111.123 8.97595 111.135 9.10886ZM108.469 10.8861C108.516 10.6468 108.567 10.5139 108.622 10.4835L109.118 9.40507C109.114 9.34051 109.216 9.28734 109.431 9.24937L109.501 9.24177L109.505 9.30633C109.716 9.27215 109.845 9.25317 109.9 9.24937C110.291 9.21519 110.494 9.29494 110.509 9.47722L110.556 9.47342L110.549 9.37089L110.595 9.36709C110.709 9.42785 110.767 9.5 110.775 9.58734C110.779 9.6481 110.748 9.72405 110.681 9.81519C110.65 9.81899 110.635 9.7962 110.631 9.75443L110.584 9.75823L110.568 9.88734C110.369 10.1797 110.228 10.3278 110.138 10.3354C110.06 10.4418 110.009 10.4949 109.986 10.4949C109.923 10.5671 109.755 10.6924 109.478 10.8633C109.384 10.8709 109.044 11 108.453 11.2506C108.426 11.2392 108.391 11.2354 108.36 11.2392L108.356 11.1975C108.348 11.1177 108.387 11.0152 108.469 10.8861ZM111.197 9.55696L111.201 9.60253C111.178 9.60253 111.135 9.53418 111.064 9.39747L111.061 9.3557C111.104 9.3519 111.15 9.42026 111.197 9.55696ZM106.872 10.0734L106.877 10.1196C106.86 10.1196 106.835 10.1427 106.802 10.1734H106.781L106.777 10.0888L106.872 10.0734ZM108.311 10.0392L108.315 10.1038C108.289 10.1038 108.258 10.138 108.219 10.1949L108.215 10.1532C108.258 10.1038 108.28 10.0658 108.28 10.0392H108.311ZM108.115 10.4873L108.135 10.583L108.075 10.5873L108.055 10.4917L108.115 10.4873ZM108.041 10.643C108.037 10.7152 108.013 10.7532 107.97 10.757L107.941 10.7608C107.975 10.7114 107.989 10.6734 107.984 10.6468L108.041 10.643ZM107.931 10.8671L107.936 10.8911L107.892 10.9631L107.84 10.9671L107.836 10.9431C107.888 10.9391 107.914 10.9151 107.91 10.8671H107.931ZM107.881 11.0684L107.845 11.1785H107.799L107.781 11.0684H107.881ZM110.232 11.1481L110.33 11.2051C110.334 11.2316 110.318 11.2506 110.287 11.2506C110.244 11.2241 110.212 11.2127 110.189 11.2165V11.1519L110.232 11.1481ZM108.35 11.3911L108.354 11.4758L108.258 11.4911L108.254 11.4065L108.35 11.3911ZM109.868 11.5468C109.935 11.5775 109.966 11.6043 109.97 11.6273V11.6465C109.907 11.6504 109.849 11.6197 109.794 11.5507L109.868 11.5468ZM107.91 12.0139C108.176 11.9911 108.594 11.8696 109.169 11.6494L109.313 11.638C109.603 11.6152 109.818 11.6684 109.962 11.8013L109.97 11.8848C109.864 12.181 109.747 12.3557 109.618 12.4089L109.028 12.8722C108.586 13.1532 108.348 13.2937 108.309 13.2975C107.605 13.6734 107.167 13.8671 106.995 13.8823L106.972 13.8861C106.988 13.8063 107.3 13.1835 107.91 12.0139ZM108.549 11.7671L108.553 11.8271L108.457 11.8471L108.453 11.7871L108.549 11.7671ZM110.683 11.6722L110.699 11.8468C110.674 11.8886 110.654 11.9114 110.629 11.9152L110.599 11.619C110.654 11.6342 110.683 11.6532 110.683 11.6722ZM107.073 13.1608C107.041 13.3051 107.008 13.381 106.976 13.381V13.362C106.964 13.2937 106.996 13.2253 107.073 13.1608ZM107.66 13.9734C107.832 13.943 108.305 13.7038 109.079 13.2519L109.083 13.2937C109.083 13.3127 109.02 13.3696 108.883 13.4608C108.493 13.6506 108.258 13.776 108.188 13.8405C107.762 13.9848 107.55 14.076 107.554 14.1101C107.175 14.2544 106.929 14.3608 106.808 14.4291C106.78 14.4329 106.737 14.4215 106.687 14.3949C106.679 14.319 106.714 14.262 106.788 14.2165C106.855 14.2127 106.917 14.2203 106.976 14.243C107.046 14.2089 107.167 14.1709 107.343 14.1253L107.339 14.0835L107.195 14.0949C107.21 14.0684 107.347 14.0076 107.601 13.9089L107.672 13.9013V13.9203C107.55 13.9316 107.484 13.9658 107.468 14.0266C107.472 14.0532 107.488 14.0684 107.519 14.0646C107.617 14.019 107.66 13.9848 107.66 13.9734ZM106.981 13.4532V13.4809C106.989 13.5254 106.956 13.5532 106.89 13.5532L106.882 13.5198C106.882 13.4921 106.915 13.4643 106.981 13.4532ZM108.039 13.7494C107.984 13.7532 107.879 13.7987 107.722 13.8823L107.699 13.8861L107.695 13.8443C107.808 13.8329 107.91 13.7911 107.988 13.7152C108.02 13.7114 108.035 13.7228 108.039 13.7494ZM106.89 14.0675L106.96 14.0532L106.964 14.096C106.949 14.096 106.925 14.1175 106.894 14.146L106.847 14.1532C106.843 14.1103 106.859 14.0817 106.89 14.0675ZM106.417 14.3152L106.464 14.3342C106.448 14.4671 106.405 14.5354 106.343 14.5392C106.288 14.5165 106.241 14.5051 106.198 14.5089L106.194 14.4443C106.19 14.4215 106.206 14.4063 106.237 14.3987C106.268 14.3949 106.284 14.4177 106.288 14.4595C106.366 14.3646 106.409 14.3152 106.417 14.3152ZM98.7518 8.88861C98.486 9.07848 98.1811 9.26456 97.841 9.44684L97.845 9.5038C97.8684 9.5038 97.8958 9.48861 97.9349 9.46962C97.9739 9.46583 97.9974 9.48101 97.9974 9.51899L98.0599 9.48481L98.0912 9.48101L98.0951 9.5076C98.099 9.53418 97.884 9.69747 97.458 9.98988L97.4932 10.043L97.4619 10.0468L97.3954 10.0241C97.3954 10.043 97.3681 10.0544 97.3055 10.0582L97.3094 10.0886L97.3798 10.1646C97.3564 10.1646 97.3251 10.1608 97.286 10.1456C97.1492 10.157 97.0124 10.2557 96.8795 10.438L96.9147 10.4911C97.0319 10.3886 97.0984 10.3354 97.1179 10.3354L97.1257 10.419C97.1062 10.419 97.0749 10.4342 97.0358 10.4532L97.1101 10.5595C97.2508 10.4114 97.4033 10.2861 97.5752 10.1835C97.6612 10.2063 97.7042 10.2291 97.7042 10.2595L97.7668 10.2557C98.2241 9.92532 98.6775 9.68988 99.127 9.54177L99.1309 9.59874C99.0489 9.72025 98.9902 9.78101 98.959 9.78481C98.9629 9.82658 98.9785 9.86076 99.002 9.89494C99.0098 9.97089 98.8065 10.4684 98.3922 11.3949C97.4463 13.5443 96.6567 15.1316 96.0195 16.1646C96.0195 16.1835 96.0352 16.2139 96.0547 16.2481C96.2111 16.2101 96.3127 16.176 96.3557 16.138L96.3909 16.1342L96.3948 16.1911L96.4534 16.1873L96.516 16.1532C96.516 16.1722 96.5394 16.1797 96.5785 16.176L96.5824 16.2329C96.5863 16.2899 96.5551 16.3772 96.4808 16.4949C96.4143 16.5671 96.3479 16.7152 96.2736 16.9392L96.2775 16.9658L96.3362 16.962C96.5902 16.6848 96.7857 16.4114 96.9186 16.1456C97.6651 15.9329 98.2319 15.7241 98.6267 15.519C99.0215 15.4848 99.3264 15.3861 99.5296 15.219L99.5257 15.1886L99.3772 15.2304L99.342 15.2342L99.3381 15.2038C99.6274 15.162 99.8306 15.0975 99.9401 15.0139C100.507 14.5886 100.933 14.2886 101.222 14.1101C102.117 13.4722 102.539 12.857 102.489 12.2722C102.485 12.2114 102.285 11.9722 101.898 11.5544C101.891 11.4747 102.027 11.3608 102.301 11.2089L103.079 10.5443C103.251 10.3279 103.356 9.97848 103.392 9.4962L103.38 9.38228C103.349 9.04431 103.098 8.77089 102.622 8.56203C102.34 8.37595 101.836 8.27722 101.109 8.26582C100.511 8.31899 99.7212 8.52405 98.7518 8.88861ZM102.942 8.93798L102.919 8.99494L102.051 8.64177C102.629 8.66456 102.926 8.76329 102.942 8.93798ZM99.4319 11.2772C99.4906 10.9658 99.557 10.7873 99.6313 10.7456L100.28 9.32912C100.272 9.24177 100.409 9.17342 100.694 9.12785L100.788 9.12026L100.796 9.2C101.078 9.15823 101.25 9.13544 101.316 9.12785C101.832 9.08608 102.098 9.18481 102.121 9.43165L102.18 9.42785L102.168 9.28355L102.231 9.27975C102.383 9.3595 102.465 9.45823 102.473 9.57595C102.481 9.6557 102.438 9.75443 102.34 9.87215C102.301 9.87595 102.278 9.84937 102.274 9.79241L102.211 9.7962L102.195 9.96709C101.934 10.3468 101.746 10.5405 101.629 10.5519C101.523 10.6924 101.457 10.7646 101.429 10.7684C101.347 10.8633 101.124 11.0266 100.757 11.2544C100.636 11.2658 100.186 11.4329 99.4085 11.7633C99.3694 11.7443 99.3303 11.7405 99.2834 11.7443L99.2795 11.6911C99.2717 11.581 99.3186 11.4443 99.4319 11.2772ZM103.024 9.53038L103.028 9.58355C102.997 9.58734 102.938 9.4962 102.852 9.31393L102.848 9.26076C102.903 9.25317 102.962 9.34431 103.024 9.53038ZM97.3173 10.2063L97.3212 10.2475C97.3016 10.2475 97.2704 10.271 97.2313 10.3004L97.2 10.3063L97.1961 10.224L97.3173 10.2063ZM99.2052 10.1608L99.213 10.2443C99.1857 10.2481 99.1466 10.2861 99.0997 10.3658L99.0958 10.3089C99.1505 10.2443 99.1779 10.1949 99.1779 10.1608H99.2052ZM98.9574 10.7532L98.9847 10.8671L98.912 10.8709L98.8847 10.757L98.9574 10.7532ZM98.8417 10.9582C98.8339 11.0532 98.8104 11.1025 98.7596 11.1063L98.7283 11.1101C98.7635 11.0456 98.7831 11 98.7792 10.9658L98.8417 10.9582ZM98.7127 11.2544L98.7166 11.281L98.6619 11.3722L98.6033 11.376L98.5994 11.3494C98.658 11.3456 98.6853 11.3152 98.6814 11.2582L98.7127 11.2544ZM98.6212 11.5203L98.5945 11.6608L98.5412 11.6646L98.5212 11.5241L98.6212 11.5203ZM101.75 11.6228L101.879 11.6987C101.883 11.7367 101.863 11.7595 101.824 11.7633C101.769 11.7291 101.726 11.7139 101.695 11.7139L101.687 11.6304L101.75 11.6228ZM99.2678 11.9456L99.2717 12.0279L99.1505 12.0456L99.1466 11.9632L99.2678 11.9456ZM101.269 12.143C101.355 12.181 101.398 12.219 101.402 12.2494L101.406 12.276C101.324 12.2835 101.25 12.2418 101.179 12.1506L101.269 12.143ZM98.6893 12.7582C99.041 12.7278 99.5961 12.5684 100.35 12.2797L100.534 12.2646C100.917 12.2342 101.203 12.3025 101.39 12.4772L101.402 12.5911C101.261 12.9861 101.105 13.2139 100.937 13.2861L100.155 13.8899C99.5726 14.262 99.2599 14.4481 99.213 14.4519C98.2866 14.9494 97.7081 15.2038 97.4853 15.2228L97.4502 15.2266C97.4814 15.1203 97.8919 14.3 98.6893 12.7582ZM99.5336 12.4354L99.5375 12.5054L99.4124 12.5354L99.4085 12.4654L99.5336 12.4354ZM102.34 12.3139L102.36 12.538C102.332 12.5987 102.305 12.6291 102.274 12.6291L102.238 12.2342C102.305 12.2608 102.336 12.2873 102.34 12.3139ZM97.5831 14.2734C97.544 14.4671 97.501 14.5658 97.458 14.5696L97.4541 14.543C97.4463 14.4443 97.4893 14.357 97.5831 14.2734ZM98.3648 15.3443C98.5915 15.3025 99.213 14.9835 100.233 14.3949L100.237 14.4481C100.241 14.4709 100.151 14.543 99.9752 14.6684C99.4554 14.9152 99.1505 15.0861 99.0606 15.1734C98.4977 15.3633 98.2202 15.481 98.2241 15.5266C97.7238 15.7203 97.3954 15.8608 97.2391 15.9481C97.2039 15.9519 97.1492 15.9367 97.0788 15.9063C97.071 15.8076 97.114 15.7278 97.2156 15.6633C97.3016 15.6557 97.3876 15.6671 97.4658 15.7013C97.5596 15.6557 97.7199 15.6025 97.9505 15.5494L97.9466 15.4924L97.7629 15.5076C97.7863 15.4772 97.9622 15.3975 98.2984 15.2646L98.3922 15.257L98.3961 15.2835C98.2397 15.2949 98.1498 15.3443 98.1303 15.4241C98.1342 15.4582 98.1537 15.4772 98.1928 15.4734C98.3062 15.3975 98.3648 15.3557 98.3648 15.3443ZM97.4407 14.657L97.4472 14.6861C97.4538 14.7278 97.421 14.7528 97.3554 14.757L97.3489 14.7278C97.3423 14.6903 97.3751 14.6653 97.4407 14.657ZM98.8651 15.0443C98.7909 15.0519 98.6541 15.1089 98.4469 15.2228L98.4156 15.2266L98.4117 15.1696C98.5603 15.1582 98.6893 15.1013 98.7948 14.9987C98.8378 14.9911 98.8612 15.0101 98.8651 15.0443ZM97.3485 15.4579L97.4423 15.4468L97.4463 15.4913C97.4228 15.4913 97.3954 15.5135 97.3564 15.5413L97.2977 15.5468C97.2938 15.5079 97.3094 15.4746 97.3485 15.4579ZM96.727 15.7924L96.7935 15.819C96.77 15.9899 96.7192 16.0772 96.6293 16.0848C96.559 16.0544 96.4964 16.043 96.4378 16.0468L96.43 15.9633C96.4261 15.9291 96.4456 15.9101 96.4886 15.8987C96.5277 15.8949 96.5511 15.9215 96.5551 15.9785C96.6606 15.8532 96.7192 15.7924 96.727 15.7924ZM114.066 8.33038L114.016 8.31139L113.183 8.43671C113.152 8.42152 113.113 8.41393 113.07 8.41772C113.023 8.42152 112.952 8.43671 112.847 8.46329L112.444 8.62658L112.476 8.67595C112.495 8.67595 112.522 8.66456 112.558 8.64557L112.698 8.65696L112.679 8.78608C112.55 8.84304 112.472 8.92658 112.452 9.03671C112.257 9.12025 112.159 9.18101 112.159 9.21899L112.163 9.24177L112.194 9.23798L112.249 9.21139L112.311 9.28355L112.319 9.38228C112.323 9.41266 111.991 10.0924 111.326 11.4177C110.752 12.6937 110.451 13.3924 110.42 13.5177C110.224 13.5709 110.107 13.6506 110.076 13.7532C110.079 13.7873 110.138 13.8063 110.251 13.8177L110.255 13.8671L110.205 13.9506L110.212 14.0494C110.216 14.1025 110.361 14.1405 110.642 14.1709C110.642 14.1519 110.65 14.1443 110.67 14.1405C110.674 14.2013 110.658 14.3228 110.615 14.5051L110.646 14.5013C110.764 14.3456 110.818 14.2392 110.814 14.1785L110.838 14.1747C110.865 14.1709 110.896 14.2051 110.932 14.2734C110.896 14.2886 110.771 14.562 110.56 15.0975L110.592 15.1468L110.623 15.143C110.885 14.5013 111.049 14.1443 111.115 14.076C111.459 14.0456 112.05 13.9886 112.894 13.9013L112.945 13.8709C112.945 13.8899 112.956 13.8975 112.976 13.8937L113.031 13.8899L113.081 13.8595C113.081 13.8785 113.093 13.8861 113.113 13.8823L113.75 13.8291C113.918 13.8139 114 13.7646 113.992 13.681C113.988 13.6582 114.09 13.6316 114.293 13.6051C114.313 13.6051 114.34 13.6089 114.379 13.6203C114.379 13.6051 114.477 13.5899 114.68 13.5709C114.684 13.4684 114.719 13.4114 114.782 13.4076L114.778 13.3582C114.723 13.362 114.657 13.3772 114.582 13.4C114.45 13.3924 114.364 13.3848 114.328 13.3696C114.293 13.3886 114.266 13.4 114.246 13.4L113.801 13.4152L113.746 13.4418C113.746 13.4266 113.734 13.419 113.715 13.4228L113.691 13.4266L113.633 13.4532C113.633 13.438 113.586 13.4266 113.492 13.4152L113.437 13.4456L113.328 13.4532L113.324 13.4266C113.894 13.3658 114.18 13.2899 114.172 13.1987C114.207 13.1949 114.227 13.2139 114.231 13.2481L114.399 13.2063L114.395 13.157L113.027 13.1949C113.027 13.2139 113.019 13.2215 112.999 13.2253L112.831 13.2101C112.788 13.2139 112.753 13.2253 112.726 13.2481L112.663 13.2253C112.491 13.2405 112.362 13.2595 112.276 13.2861C112.159 13.2785 112.03 13.2785 111.885 13.2899L111.577 13.3165L111.436 13.3013C111.428 13.2139 111.604 12.781 111.967 12.0025C112.073 11.7405 112.171 11.5772 112.261 11.5165C112.28 11.5165 112.307 11.5203 112.347 11.5354L112.565 11.4633L112.679 11.4823C112.866 11.4671 113.085 11.4139 113.336 11.3266C113.398 11.3228 113.445 11.3266 113.476 11.338L113.644 11.3L114.141 11.2582C114.352 11.2392 114.582 11.1937 114.829 11.1215L114.825 11.0722C114.731 11.0797 114.684 11.0646 114.68 11.0304C114.672 10.962 114.606 10.9354 114.477 10.9468L114.473 10.8975L114.61 10.8595L114.969 10.8291L114.965 10.7797C114.95 10.7797 114.879 10.7797 114.743 10.776L114.739 10.7228L114.879 10.7114C114.915 10.7076 114.934 10.6886 114.93 10.6582C114.743 10.662 114.649 10.6544 114.649 10.6316C113.347 10.6924 112.698 10.7038 112.694 10.6658C112.675 10.6658 112.648 10.6772 112.612 10.7L112.577 10.6468C112.921 9.93671 113.124 9.57595 113.183 9.57215C113.187 9.59874 113.171 9.64431 113.14 9.70506L113.144 9.72785L113.199 9.72405C113.336 9.40507 113.449 9.24177 113.547 9.23418C113.953 9.2 113.488 9.17342 114.364 9.04051C114.399 9.0557 114.426 9.06329 114.442 9.0595C114.786 8.99114 115.263 8.92279 115.876 8.85063L115.872 8.80127L115.544 8.83165L115.54 8.78228C115.579 8.77848 115.61 8.76709 115.638 8.74431L115.642 8.77089C115.661 8.77089 115.685 8.7595 115.716 8.73671C115.771 8.73291 115.814 8.73671 115.845 8.7519C115.958 8.72152 116.048 8.70633 116.119 8.69874L116.322 8.67975C116.373 8.64937 116.396 8.62279 116.392 8.5962V8.57342C116.341 8.57722 116.283 8.57342 116.212 8.56203C116.208 8.53544 116.224 8.51646 116.259 8.50886L116.638 8.47469L116.814 8.43291C116.814 8.4519 116.826 8.4595 116.838 8.4595C116.857 8.4595 116.881 8.4481 116.912 8.42532C117.002 8.43671 117.057 8.44051 117.068 8.43671C117.139 8.37215 117.221 8.31899 117.311 8.28481C117.272 8.24684 117.252 8.21646 117.248 8.18988L116.994 8.21266C116.994 8.19367 116.982 8.17089 116.967 8.13671C116.967 8.11393 117.021 8.09114 117.139 8.06836L117.19 8.08734L117.236 8.06076C117.236 8.07595 117.248 8.08355 117.264 8.07975L117.311 8.05317C117.311 8.06836 117.322 8.07595 117.338 8.07215L117.362 8.06836L117.358 8.01899C117.322 8.02279 117.229 8.02279 117.08 8.01899L117.033 8.04937L117.029 8.02279C115.837 8.11772 115.161 8.17089 115.001 8.18608C114.981 8.18608 114.895 8.18608 114.75 8.18228C114.75 8.20127 114.735 8.21266 114.7 8.21266L114.649 8.18988L114.473 8.23165C114.434 8.23544 114.364 8.23165 114.266 8.22405C114.238 8.24304 114.207 8.25823 114.168 8.26203C114.129 8.26582 115.114 8.20886 115.083 8.19367L114.93 8.23545L114.907 8.23924C114.844 8.24304 114.766 8.24304 114.672 8.23165C114.645 8.25063 114.606 8.26582 114.547 8.26962C114.508 8.27342 114.473 8.26583 114.446 8.25064C114.403 8.26203 114.278 8.29241 114.066 8.33038ZM114.129 8.48228C114.129 8.50228 114.149 8.51028 114.18 8.50628L114.184 8.55828L114.133 8.56228C114.094 8.56628 114.059 8.55828 114.031 8.54228C114.004 8.56628 113.969 8.57828 113.934 8.58228H113.949L113.808 8.56628L113.805 8.54228C113.977 8.53028 114.031 8.51028 114.129 8.48228ZM114.271 8.47376L114.306 8.46709L114.311 8.55376L114.211 8.56709C114.211 8.52042 114.226 8.48709 114.271 8.47376ZM114.559 8.44051L114.563 8.47551C114.504 8.48051 114.43 8.50051 114.34 8.53551L114.313 8.54051L114.336 8.47051L114.559 8.44051ZM112.339 8.73038L112.435 8.71705L112.431 8.63038L112.335 8.64371L112.339 8.73038ZM112.952 8.63493L112.984 8.63038L113.042 8.65765C113.046 8.69856 113.027 8.72129 112.992 8.72129L112.906 8.73038L112.902 8.69856C112.898 8.66675 112.917 8.64856 112.952 8.63493ZM114.919 8.74431V8.80431L114.743 8.84431V8.78431L114.919 8.74431ZM114.414 8.81646L114.418 8.88646L114.317 8.90646L114.313 8.83646L114.414 8.81646ZM114.899 8.85443L115.251 8.79747L115.431 8.80507L115.435 8.83165C115.349 8.83924 115.274 8.85443 115.212 8.87722C115.212 8.85823 115.177 8.84304 115.106 8.83545L114.829 8.91139C114.774 8.88101 114.747 8.85823 114.747 8.84304L114.899 8.85443ZM114.551 8.93074C114.586 8.92455 114.602 8.94932 114.606 9.00504L114.457 9.02981L114.453 8.94932L114.551 8.93074ZM114.242 8.93453L114.246 8.97342L115.161 8.91231L115.157 8.87342L114.242 8.93453ZM114.297 8.98355V9.03809L114.098 9.08355V9.029L114.297 8.98355ZM112.988 9.98988L112.992 10.0165L113.064 10.0127C113.064 9.99367 113.069 9.96709 113.088 9.93291L113.083 9.88355C113.045 9.88734 113.011 9.92152 112.988 9.98988ZM111.012 12.8304L111.019 12.859C111.025 12.9018 110.992 12.9256 110.927 12.9304L110.92 12.9018C110.914 12.8637 110.946 12.8447 111.012 12.8304ZM110.924 12.9367C110.928 12.9861 110.893 13.1076 110.822 13.3051L110.736 13.3127C110.732 13.2785 110.779 13.157 110.869 12.9443L110.924 12.9367ZM111.866 13.7304C111.87 13.7608 111.823 13.7956 111.733 13.8304L111.561 13.8173L111.506 13.8217L111.502 13.7652L111.866 13.7304ZM112.034 13.7456L112.038 13.8056L111.897 13.8356L111.893 13.7756L112.034 13.7456ZM117.272 8.27722C117.209 8.55443 117.107 8.7595 116.971 8.8962L116.873 8.83545C116.979 8.57342 117.029 8.42152 117.025 8.38355L116.998 8.34177C116.963 8.34557 116.916 8.43671 116.857 8.61899L116.807 8.62279C116.803 8.58861 116.795 8.56203 116.779 8.53545L116.756 8.53924C116.294 9.78861 116.087 10.3696 115.661 11.3304C115.583 11.5772 115.517 11.7139 115.458 11.7405C115.462 11.7671 115.478 11.7823 115.509 11.7785C115.521 11.9 115.489 12.0177 115.423 12.1354C115.223 12.6861 115.094 12.9899 115.028 13.043L115.071 13.3051C115.075 13.3316 115.059 13.3506 115.028 13.3506L114.981 13.3544C114.973 13.2823 114.946 13.2481 114.899 13.2519L114.876 13.2557C114.817 13.3468 114.77 13.4532 114.739 13.5747L114.786 13.5709C114.848 13.5329 114.876 13.4873 114.872 13.4304L114.965 13.4228L115.016 13.4418C114.973 13.5063 114.954 13.5595 114.958 13.5975L114.981 13.6392L114.922 13.776L114.926 13.7987C114.981 13.7949 115.04 13.8101 115.102 13.8481C115.145 13.8443 115.192 13.8253 115.243 13.7949C115.298 13.7911 115.493 13.7873 115.837 13.7873L116.009 13.7304C116.22 13.7266 116.251 13.7342 116.435 13.719L116.509 13.7114L116.549 13.6848L116.552 13.7076C116.74 13.6924 116.756 13.7038 116.904 13.7228L116.908 13.7456L116.803 13.7532L116.807 13.7949C116.838 13.7911 116.865 13.7835 116.889 13.7646C116.916 13.7608 116.932 13.776 116.936 13.8063C116.893 13.8101 116.846 13.8215 116.791 13.8367L116.744 13.8215C116.67 13.8405 116.685 13.8443 116.638 13.8481L116.564 13.8329C116.564 13.8443 116.56 13.8519 116.549 13.8557C116.552 13.8823 116.564 13.8975 116.592 13.8937L116.681 13.8861L116.642 13.8709C116.642 13.8823 116.65 13.8899 116.666 13.8899L117.053 13.8557L117.201 13.8253C117.201 13.8367 117.209 13.8443 117.221 13.8443L117.291 13.8177L117.424 13.8063C117.53 13.7987 117.526 13.7911 117.749 13.757C117.749 13.7456 117.752 13.738 117.764 13.738V13.757C118.19 13.6886 118.151 13.6924 118.241 13.662L118.222 13.6165C118.1 13.643 118.104 13.6278 118.042 13.6354L117.717 13.6506L117.713 13.6278L117.893 13.6051L117.96 13.6013L117.995 13.5747L117.999 13.5975C118.253 13.5747 118.343 13.6392 119.527 13.3962C119.59 13.3924 119.586 13.3392 119.625 13.2329C119.601 13.2329 119.582 13.2291 119.562 13.2177C119.464 13.2557 119.414 13.2367 119.226 13.2671C119.21 13.2671 119.199 13.2557 119.191 13.2253V13.2063L119.371 13.2139C119.402 13.2101 119.472 13.2063 119.566 13.1532C119.586 13.1646 119.55 13.176 119.57 13.1722L119.601 13.1684C119.621 13.1684 119.629 13.1532 119.629 13.1228L119.609 13.081C119.488 13.0924 119.429 13.0962 119.332 13.1494L119.328 13.1266L119.179 13.1418C119.175 13.0962 119.164 13.0772 119.144 13.0772L119.066 13.0848C118.976 13.0924 118.933 13.0886 118.89 13.1228C118.89 13.1076 118.882 13.1 118.874 13.1L118.788 13.1076L118.737 13.1342C118.737 13.119 118.73 13.1114 118.722 13.1114L118.691 13.138L118.687 13.1152L118.569 13.1076L118.542 13.1114L118.546 13.1532L118.608 13.1684L118.663 13.1646C118.683 13.176 118.706 13.1797 118.73 13.1797L118.78 13.157V13.176C118.503 13.2443 118.503 13.2291 118.311 13.2633C118.288 13.2481 118.272 13.2443 118.264 13.2443C118.245 13.2633 118.288 13.2481 118.276 13.2481C118.245 13.2519 118.229 13.2367 118.225 13.2101L118.323 13.1987C118.331 13.1987 118.335 13.2063 118.39 13.2177C118.468 13.1797 118.472 13.1646 118.515 13.1608L118.511 13.119C118.237 13.1722 118.347 13.138 118.003 13.1646H117.987L117.983 13.1228C118.425 13.0696 118.276 13.1 118.425 13.0582C118.425 13.0734 118.433 13.081 118.44 13.081C118.456 13.0658 118.479 13.0544 118.503 13.0544L118.534 13.0506C118.687 13.0392 118.741 13.0696 119.046 12.9861V13.0051L119.097 12.9823L119.144 12.9785C119.14 12.9329 119.21 12.9291 119.23 12.9253L119.226 12.8797C118.691 12.9861 118.55 12.9557 118.401 12.9975V12.9785C118.261 13.0051 118.257 12.9899 118.222 12.9937C118.21 12.9937 118.194 13.0051 118.179 13.0203C118.179 13.0051 118.171 12.9975 118.159 12.9975C118.136 12.9975 118.147 13.0051 118.128 13.0241L118.159 12.9975L117.694 13.0696C117.694 13.0582 117.686 13.0506 117.674 13.0506C117.44 13.1 117.502 13.1076 117.186 13.1342C117.17 13.1342 117.15 13.1418 117.127 13.157C117.127 13.1456 117.119 13.138 117.104 13.138L116.908 13.1532L116.779 13.1835C116.779 13.1722 116.771 13.1646 116.756 13.1646C116.681 13.1835 116.619 13.1949 116.568 13.1987H116.564C116.533 13.2025 116.58 13.1911 116.556 13.1797L116.517 13.2025C116.459 13.2063 116.49 13.1987 116.294 13.2025C115.95 13.2443 115.99 13.2481 115.95 13.2519L115.822 13.2443C115.822 13.2557 115.818 13.2633 115.802 13.2671C115.657 13.2481 115.583 13.2253 115.579 13.1987C115.599 13.0658 115.63 12.9975 115.681 12.9899L115.704 12.9861L115.681 13.0316L115.704 13.0279C115.751 13.0051 115.771 12.9823 115.771 12.9595L115.767 12.9139L115.72 12.9177L115.716 12.876C115.712 12.8418 115.716 12.8152 115.728 12.7886L115.833 12.6253L115.837 12.6671L115.888 12.6633L115.884 12.6215L115.857 12.5797C115.892 12.5494 115.923 12.5304 115.947 12.5304L115.943 12.5076L115.876 12.5114L115.872 12.4468C116.005 12.1734 116.072 12.0139 116.068 11.9722L116.115 11.9911C116.146 11.9873 116.162 11.9722 116.158 11.9418L116.111 11.9456V11.9266C116.107 11.8924 116.115 11.862 116.126 11.8354C116.201 11.7633 116.232 11.6873 116.224 11.6076C116.24 11.6076 116.248 11.6152 116.248 11.6304C116.31 11.5962 116.357 11.5051 116.392 11.3532C116.502 11.1595 116.658 10.7722 116.861 10.1949C117.252 9.17342 117.236 9.06329 117.291 8.82405L117.244 8.82785C117.248 8.85823 117.24 8.88861 117.225 8.91519C117.193 8.9038 117.166 8.8962 117.15 8.8962V8.87722C117.143 8.78988 117.182 8.68355 117.268 8.55823H117.287L117.326 8.70633L117.373 8.70253C117.373 8.69114 117.385 8.63418 117.408 8.52405C117.405 8.50127 117.389 8.48988 117.354 8.48608L117.311 8.51266C117.307 8.48228 117.311 8.40253 117.315 8.26962L117.272 8.27722ZM116.713 8.93423L116.738 8.93038C116.701 8.99192 116.672 9.02654 116.643 9.03038L116.638 8.965C116.659 8.96115 116.684 8.95346 116.713 8.93423ZM116.513 9.38988C116.56 9.2038 116.607 9.09747 116.65 9.07089L116.654 9.09367C116.631 9.26836 116.592 9.3557 116.537 9.36329L116.545 9.47342C116.502 9.53038 116.482 9.57595 116.486 9.61013L116.463 9.61393L116.451 9.46203C116.474 9.45823 116.498 9.43545 116.513 9.38988ZM116.46 9.63671C116.465 9.66329 116.44 9.72405 116.396 9.81519L116.366 9.81899L116.361 9.75443C116.396 9.67848 116.43 9.64051 116.46 9.63671ZM115.153 12.4098L115.186 12.4709C115.236 12.4653 115.258 12.4431 115.252 12.4042L115.247 12.3709L115.214 12.3764L115.153 12.4098ZM115.771 12.8949V12.9139C115.806 12.9101 115.841 12.8494 115.872 12.7316L115.825 12.7165C115.786 12.819 115.771 12.876 115.771 12.8949ZM119.735 13.0304V13.0513L119.687 13.1013L119.778 13.0721H119.787L119.783 13.0263H119.763L119.73 13.0513C119.73 13.0388 119.83 13.0138 119.754 13.0013C119.74 13.0221 119.778 13.0263 119.735 13.0304ZM119.879 13.2228L119.984 13.2046C119.98 13.141 119.914 13.1228 119.891 13.1228H119.875L119.879 13.2228ZM118.01 13.2025L118.042 13.265C118.042 13.2463 118.046 13.2338 118.057 13.2338L118.081 13.3025L117.983 13.2838C117.975 13.2338 117.987 13.2088 118.01 13.2025ZM117.69 13.2371C117.725 13.2295 117.749 13.2753 117.749 13.3363H117.639V13.2982C117.651 13.2905 117.67 13.2753 117.69 13.2371ZM117.946 13.2253L117.95 13.2853L117.854 13.3053L117.85 13.2453L117.946 13.2253ZM117.033 13.3182C117.033 13.3306 117.041 13.3389 117.057 13.3389C117.201 13.3099 117.186 13.3058 117.256 13.2975C117.279 13.2934 117.291 13.3099 117.295 13.3389L116.893 13.3762L116.932 13.3969L116.928 13.3721L116.775 13.3845L116.771 13.3596L116.908 13.3472L117.033 13.3182ZM117.448 13.2823V13.3277C117.436 13.3277 117.487 13.3368 117.463 13.3823C117.377 13.3641 117.373 13.3459 117.311 13.355V13.3096L117.448 13.2823ZM117.575 13.2709V13.3209L117.475 13.3409V13.2909L117.575 13.2709ZM115.093 13.6582L115.101 13.7573C115.054 13.7632 115.016 13.7399 115.001 13.6932V13.6641L115.093 13.6582ZM118.393 13.6013L118.397 13.643L118.476 13.6354L118.444 13.6165L118.448 13.6392L118.526 13.6089C119.062 13.5519 119.124 13.5747 119.117 13.5139V13.4949C118.577 13.6127 118.507 13.5899 118.393 13.6013ZM119.231 13.5607L119.326 13.5873L119.321 13.514L119.226 13.4873L119.231 13.5607ZM116.916 13.6801C116.939 13.7001 116.889 13.7201 116.92 13.7134L117.193 13.6734L117.197 13.7134C117.119 13.7268 117.068 13.7468 117.053 13.7734C117.053 13.7468 117.045 13.7334 117.029 13.7334L116.912 13.7534L116.908 13.7134C116.939 13.7068 116.893 13.7068 116.916 13.6801ZM118.182 13.6593L118.206 13.7241C118.296 13.6946 118.245 13.7005 118.268 13.6711C118.268 13.6946 118.276 13.7064 118.284 13.7064L118.347 13.7005L118.343 13.6299L118.179 13.6241L118.182 13.6593ZM116.665 13.8684H116.625L116.615 13.7684H116.655L116.665 13.8684ZM115.411 13.9554L115.415 13.9785L116.134 13.9208L116.13 13.8785L115.556 13.9246L115.435 13.9093L115.411 13.9554ZM116.218 13.9709H116.238L116.228 13.8709H116.208L116.218 13.9709ZM105.268 10.2443C104.76 10.8329 104.498 11.1557 104.478 11.2203C104.271 11.4291 104.169 11.5544 104.181 11.5962C104.126 11.6304 104.103 11.6646 104.111 11.7025C104.095 11.7063 104.083 11.6987 104.079 11.6835C103.99 11.8241 103.861 11.9114 103.685 11.9532L103.501 11.9949C103.478 11.9987 103.466 12.0177 103.466 12.0481L103.47 12.0709L103.54 12.0557L103.544 12.0747L103.388 12.1316L103.11 12.1924L102.965 12.2C102.946 12.219 103.079 12.1962 103.028 12.2114L102.848 12.2532C102.739 12.2797 102.676 12.2684 102.668 12.2266L102.649 12.2304C102.661 12.2722 102.649 12.2987 102.618 12.3063L102.653 12.2987L102.637 12.2342L102.309 12.3101L102.344 12.3253C102.34 12.3101 102.324 12.3063 102.293 12.3139L102.25 12.3481L102.199 12.3367C102.152 12.3633 102.121 12.3785 102.113 12.3785L102.063 12.3671C101.926 12.443 102.027 12.443 102.02 12.443L102.031 12.4848L102.109 12.4658L102.231 12.4582L102.219 12.5076C101.773 12.6215 102.098 12.557 101.977 12.5835L101.953 12.5873L101.965 12.6291L102.035 12.6139L102.039 12.6367C101.949 12.6557 101.898 12.6747 101.883 12.6937L101.879 12.6709C101.762 12.6975 101.644 12.7848 101.527 12.9291C101.547 13.0127 101.293 13.1152 102.489 12.8456C102.571 12.8418 102.618 12.8418 102.629 12.838C102.625 12.8228 102.633 12.8152 102.649 12.8114C102.782 12.7962 102.719 12.819 102.801 12.8L103.059 12.743L103.005 12.7734C103.001 12.762 103.008 12.7544 103.02 12.7506C103.051 12.7582 103.083 12.7544 103.118 12.7468L103.134 12.8114L102.113 14.3835L101.887 14.657L101.777 15.0177L101.797 15.0139L101.906 14.9684L101.871 15.1089L101.883 15.1506L101.914 15.1886C101.898 15.1924 101.894 15.2 101.898 15.2152L101.902 15.238L101.949 15.2266C102.016 15.1696 102.043 15.1165 102.035 15.0709C102.109 15.0823 102.156 15.0861 102.18 15.0823L102.184 15.1051C102.141 15.1165 102.117 15.1506 102.113 15.2076L102.117 15.2304L102.141 15.2266C102.512 14.8354 103.415 13.4949 104.142 12.5835C104.119 12.4848 104.498 12.3481 105.279 12.1734L105.303 12.1696C105.33 12.2873 105.272 12.576 105.123 13.0354C105.025 13.3127 104.982 13.4646 104.986 13.4873C104.861 13.8557 104.803 14.0532 104.81 14.0835L104.533 14.9646C104.353 15.4165 104.216 15.8911 104.122 16.3924C104.138 16.3886 104.165 16.3924 104.197 16.4L104.236 16.3658C104.24 16.381 104.248 16.3848 104.267 16.3848L104.251 16.3203L104.373 16.3165C104.408 16.3089 104.439 16.2633 104.463 16.1835C104.459 16.0658 104.482 16.0013 104.537 15.9861C104.611 15.7051 104.658 15.5608 104.674 15.557C104.744 15.276 104.795 15.1165 104.83 15.0747C104.936 14.7101 105.01 14.5203 105.061 14.5089L105.072 14.5544L104.998 14.7481C104.865 15.3215 104.728 15.7772 104.592 16.1114L104.631 16.2785L104.654 16.2747C104.986 15.5835 105.459 14.2165 106.081 12.1734C106.1 11.9949 106.186 11.8544 106.347 11.7557L106.311 11.7215L106.307 11.7025C106.378 11.6873 106.429 11.6608 106.456 11.6228C106.452 11.6076 106.39 11.5848 106.268 11.5544L106.636 10.0279C106.745 9.57215 106.82 9.17342 106.859 8.82405L106.855 8.80127C106.78 8.7557 106.706 8.69114 106.64 8.6076V8.51646L106.636 8.49747L106.616 8.50127C106.39 8.83544 105.936 9.41646 105.268 10.2443ZM105.788 10.5899C105.807 10.6696 105.776 10.8177 105.698 11.0342C105.674 11.3076 105.573 11.4633 105.397 11.5051L105.393 11.4823L105.236 11.5392L105.166 11.5544C105.131 11.562 105.1 11.562 105.068 11.5506L105.053 11.4899C105.049 11.4671 105.272 11.1633 105.733 10.5823L105.788 10.5899ZM105.428 11.5392L105.479 11.5279L105.491 11.5696C105.244 11.6418 105.107 11.6797 105.08 11.6873C105.064 11.6911 105.041 11.7025 105.014 11.7253C105.01 11.7101 104.979 11.7101 104.916 11.7215C104.904 11.6797 105.076 11.619 105.428 11.5392ZM103.007 12.2203L103.089 12.2003L103.071 12.1203L102.989 12.1403L103.007 12.2203ZM103.716 11.9949L103.728 12.0796L103.61 12.0949L103.607 12.0488L103.716 11.9949ZM102.369 12.4316L102.374 12.4916L102.279 12.5316L102.274 12.4716L102.369 12.4316ZM102.211 12.7142L102.215 12.7596L102.125 12.8051L102.113 12.7051L102.211 12.7142ZM102.426 12.6633L102.43 12.6966L102.266 12.7633L102.262 12.73L102.426 12.6633ZM102.711 12.6177L102.715 12.6405L102.285 12.7354L102.274 12.6937C102.524 12.6519 102.496 12.6671 102.711 12.6177ZM104.865 12.1316L104.9 12.1696C104.85 12.181 104.81 12.1962 104.791 12.2152L104.74 12.2076C104.662 12.238 104.592 12.2608 104.537 12.2722L104.49 12.2835C104.463 12.2911 104.443 12.2797 104.431 12.2532L104.756 12.181L104.865 12.1316ZM105.096 12.0823L105.326 12.0291L105.33 12.0519C105.205 12.0785 105.107 12.1089 105.037 12.143L105.033 12.1203C105.053 12.1165 105.072 12.1013 105.096 12.0823ZM102.672 12.7203L102.782 12.6975L102.793 12.7392C102.747 12.7506 102.782 12.7506 102.723 12.7772C102.61 12.7886 102.633 12.7734 102.453 12.8152L102.45 12.7924L102.672 12.7203ZM102.969 12.6728C103.001 12.6588 103.02 12.6799 103.024 12.7362L102.958 12.7644C102.93 12.7785 102.911 12.7573 102.899 12.701L102.969 12.6728ZM101.747 15.0877L101.756 15.1177C101.83 15.1077 101.858 15.0877 101.84 15.0477L101.83 15.0177C101.765 15.0277 101.738 15.0477 101.747 15.0877ZM101.84 15.4633C101.848 15.4973 101.865 15.5118 101.899 15.5021C101.933 15.4924 101.946 15.473 101.937 15.4342L101.933 15.4051L101.882 15.4196L101.84 15.4633ZM104.337 16.1046C104.372 16.0944 104.389 16.1097 104.398 16.1454L104.402 16.176L104.302 16.2015C104.311 16.1607 104.311 16.1301 104.307 16.1097L104.337 16.1046Z" fill="black"/>
  <path d="M131.012 0.304999C131.314 0.137781 131.654 0.0500603 132 0.0500603C132.345 0.0500603 132.685 0.137781 132.987 0.304999C135.995 1.988 139.003 3.668 142.01 5.352C142.576 5.667 142.954 6.291 142.948 6.936V17.06C142.952 17.732 142.537 18.37 141.94 18.678C138.942 20.352 135.947 22.028 132.95 23.701C132.339 24.047 131.544 24.021 130.952 23.646C130.054 23.13 129.153 22.617 128.255 22.102C128.071 21.993 127.865 21.907 127.735 21.731C127.849 21.578 128.054 21.559 128.221 21.491C128.596 21.374 128.941 21.184 129.285 21C129.372 20.941 129.478 20.964 129.562 21.016C130.33 21.453 131.092 21.902 131.863 22.334C132.028 22.428 132.194 22.304 132.335 22.226C135.276 20.579 138.221 18.939 141.162 17.292C141.214 17.2662 141.258 17.2252 141.286 17.1743C141.315 17.1234 141.327 17.0651 141.322 17.007C141.325 13.667 141.323 10.327 141.324 6.987C141.329 6.9216 141.314 6.8562 141.28 6.80003C141.246 6.74387 141.195 6.69978 141.135 6.674C138.148 5.009 135.162 3.34 132.175 1.674C132.123 1.63926 132.062 1.62071 132 1.62071C131.938 1.62071 131.877 1.63926 131.825 1.674C128.837 3.34 125.851 5.01 122.864 6.676C122.804 6.70124 122.753 6.74478 122.719 6.80044C122.685 6.85609 122.67 6.92102 122.675 6.986V17.01C122.665 17.128 122.73 17.24 122.838 17.291C123.635 17.739 124.433 18.183 125.23 18.629C125.68 18.869 126.231 19.011 126.726 18.827C127.163 18.672 127.469 18.231 127.461 17.771C127.465 14.451 127.459 11.13 127.464 7.81C127.454 7.663 127.594 7.54 127.739 7.555C128.122 7.552 128.505 7.55 128.889 7.555C129.049 7.552 129.159 7.711 129.139 7.859C129.137 11.201 129.143 14.542 129.136 17.884C129.136 18.774 128.767 19.744 127.936 20.179C126.911 20.705 125.644 20.594 124.632 20.089C123.756 19.656 122.919 19.145 122.059 18.681C121.46 18.374 121.047 17.734 121.051 17.061V6.937C121.045 6.278 121.438 5.644 122.021 5.333L131.011 0.305999L131.012 0.304999Z" fill="black"/>
  <path d="M133.627 7.318C134.934 7.235 136.333 7.268 137.509 7.907C138.42 8.395 138.925 9.421 138.941 10.423C138.915 10.558 138.773 10.633 138.643 10.623C138.263 10.623 137.884 10.628 137.505 10.621C137.344 10.627 137.25 10.48 137.23 10.339C137.121 9.859 136.857 9.385 136.402 9.154C135.702 8.807 134.892 8.824 134.128 8.832C133.572 8.861 132.973 8.909 132.501 9.232C132.139 9.478 132.029 9.974 132.158 10.374C132.28 10.66 132.614 10.753 132.888 10.838C134.463 11.246 136.132 11.206 137.678 11.742C138.318 11.962 138.943 12.387 139.162 13.05C139.448 13.94 139.322 15.002 138.684 15.716C138.166 16.303 137.412 16.623 136.659 16.796C135.659 17.017 134.619 17.023 133.603 16.925C132.648 16.817 131.653 16.568 130.915 15.923C130.285 15.381 129.975 14.535 130.007 13.719C130.014 13.582 130.152 13.485 130.286 13.497C130.668 13.494 131.049 13.493 131.431 13.497C131.584 13.487 131.697 13.617 131.705 13.759C131.775 14.216 131.949 14.696 132.351 14.966C133.127 15.462 134.101 15.428 134.99 15.442C135.726 15.41 136.553 15.4 137.153 14.918C137.47 14.643 137.564 14.183 137.479 13.788C137.386 13.454 137.033 13.298 136.73 13.196C135.175 12.709 133.487 12.886 131.947 12.335C131.322 12.116 130.717 11.702 130.477 11.066C130.142 10.166 130.296 9.053 131.001 8.363C131.689 7.677 132.682 7.413 133.627 7.318Z" fill="black"/>
  <path d="M144 17.662L145.8 9.195H149.964C151.764 9.299 152.664 10.135 152.664 11.599C152.664 14.108 150.526 15.571 148.614 15.466H146.587L146.137 17.662H144ZM147.038 13.899H148.388C149.401 13.794 150.301 13.481 150.414 11.704C150.414 11.076 149.851 10.763 149.064 10.763H147.6L147.037 13.899H147.038ZM152.246 15.466L154.046 7H156.184L155.734 9.195H157.759C159.559 9.299 160.235 10.135 160.009 11.181L159.222 15.466H156.972L157.759 11.599C157.872 11.076 157.872 10.763 157.084 10.763H155.396L154.384 15.466H152.246ZM159.078 17.662L160.878 9.195H165.042C166.842 9.299 167.742 10.135 167.742 11.599C167.742 14.108 165.604 15.571 163.692 15.466H161.666L161.216 17.662H159.078ZM162.116 13.899H163.466C164.479 13.794 165.379 13.481 165.492 11.704C165.492 11.076 164.929 10.763 164.142 10.763H162.679L162.116 13.899Z" fill="black"/>
  <path d="M179.898 0.00699997C173.82 0.00699997 174.2 2.653 174.2 2.653L174.207 5.394H180.007V6.217H171.903C171.903 6.217 168.013 5.775 168.013 11.931C168.013 18.088 171.408 17.87 171.408 17.87H173.434V15.013C173.434 15.013 173.325 11.605 176.774 11.605H182.527C182.527 11.605 185.759 11.657 185.759 8.469V3.197C185.759 3.197 186.25 0.00699997 179.9 0.00699997H179.898ZM176.7 1.85C176.838 1.84947 176.974 1.87624 177.101 1.92877C177.228 1.98129 177.344 2.05853 177.441 2.15601C177.538 2.25348 177.615 2.36926 177.667 2.49662C177.719 2.62399 177.745 2.76042 177.744 2.898C177.743 3.175 177.633 3.44055 177.438 3.6367C177.242 3.83285 176.977 3.94368 176.7 3.945C176.563 3.9454 176.426 3.91856 176.299 3.86604C176.172 3.81351 176.057 3.73634 175.96 3.63899C175.863 3.54163 175.786 3.42602 175.734 3.29884C175.682 3.17165 175.656 3.03542 175.657 2.898C175.657 2.621 175.767 2.35534 175.962 2.159C176.158 1.96267 176.423 1.85158 176.7 1.85Z" fill="black"/>
  <path d="M180.071 23.918C186.149 23.918 185.769 21.272 185.769 21.272L185.763 18.53H179.963V17.707H188.066C188.066 17.707 191.956 18.15 191.956 11.993C191.956 5.836 188.561 6.055 188.561 6.055H186.535V8.912C186.535 8.912 186.645 12.32 183.195 12.32H177.442C177.442 12.32 174.21 12.267 174.21 15.456V20.727C174.21 20.727 173.719 23.917 180.07 23.917H180.071V23.918ZM183.269 22.074C183.132 22.0744 182.995 22.0476 182.868 21.995C182.741 21.9425 182.626 21.8653 182.529 21.768C182.432 21.6706 182.355 21.555 182.303 21.4278C182.251 21.3007 182.225 21.1644 182.226 21.027C182.226 20.75 182.336 20.4843 182.531 20.288C182.727 20.0917 182.992 19.9806 183.269 19.979C183.407 19.9785 183.543 20.0052 183.67 20.0578C183.797 20.1103 183.913 20.1875 184.01 20.285C184.107 20.3825 184.184 20.4983 184.236 20.6256C184.288 20.753 184.314 20.8894 184.313 21.027C184.312 21.304 184.202 21.5696 184.007 21.7657C183.811 21.9619 183.546 22.0727 183.269 22.074Z" fill="black"/>
  <path d="M198.856 1.54305C197.999 1.54305 197.305 2.23968 197.305 3.1033C197.305 3.96479 197.999 4.66393 198.856 4.66393C199.713 4.66393 200.407 3.96479 200.407 3.1033C200.407 2.23968 199.713 1.54305 198.856 1.54305ZM209.044 1.54305C208.187 1.54305 207.494 2.23968 207.494 3.1033C207.494 3.96479 208.187 4.66393 209.044 4.66393C209.899 4.66393 210.595 3.96479 210.595 3.1033C210.595 2.23968 209.899 1.54418 209.044 1.54305ZM203.95 0.119385C203.093 0.119385 202.399 0.815887 202.399 1.67976C202.399 2.54125 203.093 3.24039 203.95 3.24039C204.808 3.24039 205.501 2.54125 205.501 1.67976C205.501 0.815887 204.807 0.119385 203.95 0.119385H203.95ZM212.711 5.89082C212.626 5.82587 212.522 5.79069 212.415 5.79067C212.357 5.79067 212.298 5.80135 212.242 5.82297C211.192 6.22669 210.126 6.53316 209.152 6.7611C208.954 6.80759 208.794 6.95587 208.727 7.13379C208.018 9.08634 206.207 10.9456 204.308 12.893C204.231 12.9658 204.125 13.0618 203.951 13.0618C203.777 13.0618 203.671 12.9688 203.594 12.893C201.694 10.9456 199.884 9.09275 199.174 7.14008C199.108 6.96228 198.947 6.81413 198.749 6.76739C197.775 6.53945 196.706 6.22343 195.657 5.81995C195.602 5.79866 195.543 5.78772 195.484 5.78766C195.379 5.78766 195.277 5.82083 195.191 5.88692C195.058 5.98862 194.987 6.15142 195.002 6.31817C195.163 7.94188 195.801 9.52927 196.953 11.1926C198.036 12.7565 199.448 14.204 200.814 15.6038C203.329 18.1835 205.706 20.6197 205.914 23.4447C205.933 23.6998 206.145 23.8971 206.399 23.8971H209.355C209.488 23.897 209.615 23.8421 209.707 23.7453C209.799 23.6484 209.847 23.518 209.84 23.3844C209.747 21.4956 209.04 19.604 207.679 17.6023C207.393 17.1826 207.088 16.7743 206.768 16.3747C206.638 16.212 206.693 16.0098 206.792 15.9077C206.89 15.8067 206.989 15.7059 207.088 15.6038C208.453 14.204 209.866 12.7565 210.948 11.1926C212.1 9.52902 212.738 7.95105 212.899 6.32759C212.915 6.16449 212.842 5.99134 212.711 5.89082ZM200.779 17.8014C200.709 17.7278 200.606 17.6528 200.434 17.6528C200.213 17.6528 200.082 17.8061 200.033 17.882C198.79 19.7838 198.147 21.5788 198.059 23.3825C198.053 23.5165 198.101 23.6473 198.192 23.7448C198.285 23.8417 198.413 23.8967 198.546 23.8971H201.497C201.752 23.896 201.963 23.6985 201.983 23.443C202.047 22.5736 202.317 21.7022 202.807 20.7864C202.977 20.4696 202.845 20.172 202.747 20.0448C202.261 19.409 201.665 18.7308 200.779 17.8014Z" fill="black"/>
  <path d="M203.953 7.3464C204.88 7.3464 205.417 7.29049 205.606 7.29049C205.834 7.29049 206.053 7.47884 206.053 7.74246C206.053 7.81937 206.035 7.8744 206.017 7.92303C205.894 8.25312 205.334 9.44094 204.292 10.4599C204.175 10.5742 204.042 10.5956 203.951 10.5956H203.95C203.859 10.5956 203.726 10.5742 203.61 10.4599C202.567 9.44094 202.007 8.25312 201.885 7.9229C201.866 7.8744 201.848 7.81937 201.848 7.74246C201.848 7.47884 202.067 7.29049 202.296 7.29049C202.485 7.29049 203.021 7.3464 203.947 7.3464H203.954" fill="black"/>
  <path fill-rule="evenodd" clip-rule="evenodd" d="M239.551 12.1C239.551 12.9126 239.463 13.7229 239.286 14.5167C239.727 15.3908 239.976 16.3753 239.976 17.4174C239.976 21.0247 237.007 23.9489 233.345 23.9489C232.21 23.9489 231.143 23.668 230.21 23.1738C229.531 23.2975 228.831 23.3628 228.116 23.3628C221.8 23.3628 216.68 18.3202 216.68 12.1C216.68 11.3393 216.757 10.5805 216.912 9.83504C216.333 8.86567 216 7.73713 216 6.53139C216 2.92443 218.969 0 222.632 0C223.929 0 225.138 0.368101 226.16 1.00214C226.795 0.894166 227.449 0.8374 228.116 0.8374C234.431 0.8374 239.551 5.87994 239.551 12.1ZM222.465 6.21401C222.976 5.55718 223.723 5.04653 224.684 4.69632C225.633 4.35065 226.762 4.17534 228.04 4.17516C229.061 4.17516 229.959 4.29147 230.709 4.52095C231.462 4.75218 232.098 5.06436 232.597 5.44855C233.1 5.83545 233.474 6.24955 233.709 6.67962C233.946 7.11392 234.067 7.54622 234.067 7.96437C234.067 8.36687 233.909 8.73256 233.598 9.05121C233.284 9.37197 232.889 9.53459 232.423 9.53459C231.999 9.53459 231.668 9.43279 231.438 9.23214C231.224 9.04583 231.002 8.75535 230.756 8.33743C230.47 7.80387 230.125 7.38312 229.729 7.08677C229.345 6.79889 228.703 6.65278 227.82 6.65278C227 6.65278 226.334 6.81479 225.839 7.13447C225.362 7.44248 225.13 7.79565 225.13 8.21405C225.13 8.47061 225.205 8.68516 225.358 8.86966C225.521 9.06517 225.75 9.2368 226.04 9.37959C226.34 9.52837 226.65 9.64661 226.96 9.731C227.278 9.81788 227.811 9.94658 228.542 10.113C229.468 10.3086 230.318 10.5278 231.071 10.7646C231.832 11.0046 232.49 11.3007 233.027 11.6445C233.575 11.9959 234.008 12.4471 234.316 12.9856C234.625 13.5263 234.781 14.1936 234.781 14.969C234.781 15.8967 234.512 16.7423 233.981 17.4824C233.452 18.2198 232.67 18.804 231.658 19.2187C230.655 19.6292 229.452 19.8373 228.084 19.8373C226.441 19.8373 225.064 19.5528 223.99 18.9913C223.221 18.5825 222.588 18.029 222.107 17.3457C221.621 16.6556 221.375 15.9709 221.375 15.3106C221.375 14.8979 221.535 14.5401 221.852 14.2472C222.165 13.9571 222.566 13.81 223.045 13.81C223.438 13.81 223.777 13.9262 224.052 14.1556C224.316 14.3753 224.541 14.7003 224.723 15.1202C224.925 15.5773 225.147 15.9632 225.38 16.2673C225.604 16.5597 225.927 16.8054 226.339 16.9973C226.753 17.1907 227.312 17.2886 228 17.2886C228.945 17.2886 229.72 17.0898 230.303 16.6978C230.873 16.3149 231.15 15.8553 231.15 15.2925C231.15 14.8477 231.005 14.4983 230.708 14.2241C230.397 13.9375 229.986 13.7145 229.488 13.5614C228.968 13.4018 228.262 13.2297 227.39 13.0498C226.203 12.7994 225.195 12.5022 224.393 12.1664C223.573 11.8228 222.912 11.3465 222.428 10.7504C221.937 10.1452 221.688 9.38588 221.688 8.49322C221.688 7.6424 221.949 6.87555 222.465 6.21401Z" fill="black"/>
  <path d="M263.818 8.42167C263.449 6.44614 262.568 4.72061 261.177 3.24804C260.592 2.62851 259.93 2.08405 259.206 1.62759C257.853 0.773449 256.38 0.250119 254.782 0.0647351C254.587 0.0420324 254.389 0.0450162 254.197 0H252.818C252.804 0.0341189 252.772 0.0216649 252.746 0.024C252.391 0.0547459 252.038 0.0944432 251.688 0.159697C249.127 0.636065 247.024 1.87096 245.397 3.86569C244.058 5.50612 243.321 7.38798 243.161 9.48623C243.084 10.4978 243.159 11.515 243.386 12.5048C243.553 13.2436 243.808 13.9607 244.145 14.6416C244.174 14.6997 244.204 14.7578 244.234 14.8159C244.79 15.8911 245.505 16.8493 246.401 17.6768C246.873 18.1125 247.377 18.5066 247.923 18.8471C249.595 19.8899 251.421 20.4367 253.405 20.4611C253.527 20.4628 253.56 20.4922 253.559 20.6144C253.553 21.6572 253.556 22.7001 253.556 23.743C253.556 23.7835 253.559 23.8238 253.562 23.8742C253.596 23.8604 253.618 23.8526 253.638 23.843C255.632 22.9229 257.463 21.7601 259.095 20.3026C259.42 20.0123 259.731 19.7087 260.03 19.3924C260.158 19.2571 260.285 19.1194 260.413 18.9843C260.611 18.7762 260.782 18.5437 260.969 18.3246C261.185 18.0719 261.378 17.8032 261.569 17.5328C261.992 16.9353 262.369 16.312 262.686 15.6534C262.846 15.3206 262.999 14.9851 263.134 14.6417C263.138 14.6352 263.144 14.6295 263.147 14.6225C263.516 13.6822 263.752 12.7092 263.877 11.711C263.921 11.3633 263.949 11.0134 263.967 10.6638C264.006 9.91325 263.956 9.16085 263.818 8.42167ZM250.392 14.6984C250.213 14.7461 250.031 14.7735 249.848 14.7997C249.707 14.8199 249.615 14.743 249.563 14.6181L249.564 13.4624C249.571 13.3491 249.525 13.2275 249.617 13.1275C249.663 13.0779 249.715 13.0439 249.785 13.0268C249.99 12.976 250.198 12.9354 250.385 12.8257C250.73 12.6237 250.944 12.3322 251.039 11.9523C251.054 11.8925 251.068 11.8323 251.082 11.7722C250.255 11.7706 249.429 11.7692 248.601 11.7682C248.53 11.768 248.459 11.7656 248.39 11.7466C248.179 11.6893 248.017 11.5004 248.017 11.2867C248.016 10.0585 248.018 8.83005 248.019 7.60177C248.002 7.40549 248.019 7.22154 248.187 7.0813C248.278 7.00541 248.379 6.95948 248.499 6.95948C249.715 6.95922 250.931 6.96013 252.147 6.95883C252.468 6.95831 252.735 7.27706 252.632 7.58867C252.657 7.64757 252.652 7.70984 252.652 7.77133C252.652 9.10975 252.66 10.4487 252.65 11.7871C252.643 12.6754 252.291 13.4224 251.629 14.0281C251.594 14.0596 251.561 14.0924 251.527 14.1246C251.184 14.3827 250.813 14.5866 250.392 14.6984ZM257.12 14.613C257.104 14.617 257.089 14.6213 257.073 14.6257L257.047 14.6404C256.812 14.7058 256.574 14.76 256.331 14.7948C256.146 14.8215 256.006 14.7187 256.004 14.5358C256.002 14.4077 256.001 14.2792 256 14.1509L256.007 13.4618C256.006 13.4111 256.004 13.3607 256.004 13.3103C256.004 13.1338 256.073 13.0594 256.297 13.0093C256.58 12.9456 256.846 12.8558 257.067 12.6549C257.331 12.4136 257.465 12.1123 257.526 11.7719L255.234 11.7677C255.151 11.7675 255.067 11.7687 254.984 11.7673C254.672 11.7622 254.459 11.5504 254.459 11.2422C254.459 10.0291 254.461 8.81617 254.462 7.60294C254.462 7.59126 254.46 7.57959 254.46 7.56791C254.435 7.34089 254.502 7.15485 254.707 7.02876C254.787 6.97946 254.874 6.95922 254.966 6.95922C256.174 6.95857 257.381 6.95961 258.59 6.95818C258.911 6.95779 259.178 7.27654 259.075 7.58815C259.099 7.64705 259.095 7.70919 259.095 7.77068C259.095 9.11144 259.096 10.4522 259.094 11.7931C259.093 12.9909 258.329 14.1117 257.203 14.5719C257.174 14.5838 257.147 14.5993 257.12 14.613Z" fill="black"/>
  <path fill-rule="evenodd" clip-rule="evenodd" d="M276 24C282.627 24 288 18.6274 288 12C288 5.37258 282.627 0 276 0C269.373 0 264 5.37258 264 12C264 18.6274 269.373 24 276 24ZM270 8C269.448 8 269 8.44772 269 9V13C269 14.6569 270.343 16 272 16H278C278.552 16 279 15.5523 279 15V10C279 8.89543 278.105 8 277 8H270ZM279.5 10.5L282.5 8.5V15.5L279.5 13.5V10.5Z" fill="black"/>
  <g clip-path="url(#clip2)">
  <path d="M293.06 15.1599C293.06 16.5537 291.933 17.6802 290.539 17.6802C289.146 17.6802 288.019 16.5537 288.019 15.1599C288.019 13.7661 289.146 12.6396 290.539 12.6396H293.06V15.1599ZM294.32 15.1599C294.32 13.7661 295.446 12.6396 296.84 12.6396C298.234 12.6396 299.36 13.7661 299.36 15.1599V21.4607C299.36 22.8545 298.234 23.9809 296.84 23.9809C295.446 23.9809 294.32 22.8545 294.32 21.4607V15.1599Z" fill="black"/>
  <path d="M296.84 5.04058C295.446 5.04058 294.32 3.91408 294.32 2.52029C294.32 1.12649 295.446 0 296.84 0C298.234 0 299.36 1.12649 299.36 2.52029V5.04058H296.84ZM296.84 6.31982C298.234 6.31982 299.36 7.44631 299.36 8.8401C299.36 10.2339 298.234 11.3604 296.84 11.3604H290.52C289.126 11.3604 288 10.2339 288 8.8401C288 7.44631 289.126 6.31982 290.52 6.31982H296.84Z" fill="black"/>
  <path d="M306.94 8.8401C306.94 7.44631 308.067 6.31982 309.461 6.31982C310.854 6.31982 311.981 7.44631 311.981 8.8401C311.981 10.2339 310.854 11.3604 309.461 11.3604H306.94V8.8401ZM305.68 8.8401C305.68 10.2339 304.554 11.3604 303.16 11.3604C301.766 11.3604 300.64 10.2339 300.64 8.8401V2.52029C300.64 1.12649 301.766 0 303.16 0C304.554 0 305.68 1.12649 305.68 2.52029V8.8401Z" fill="black"/>
  <path d="M303.16 18.9404C304.554 18.9404 305.68 20.0669 305.68 21.4607C305.68 22.8545 304.554 23.9809 303.16 23.9809C301.766 23.9809 300.64 22.8545 300.64 21.4607V18.9404H303.16ZM303.16 17.6802C301.766 17.6802 300.64 16.5537 300.64 15.1599C300.64 13.7661 301.766 12.6396 303.16 12.6396H309.48C310.874 12.6396 312 13.7661 312 15.1599C312 16.5537 310.874 17.6802 309.48 17.6802H303.16Z" fill="black"/>
  </g>
  <g clip-path="url(#clip3)">
  <path d="M323.995 24V19.392C328.925 19.392 332.737 14.552 330.855 9.412C330.505 8.46599 329.952 7.60789 329.235 6.89765C328.519 6.18742 327.656 5.64217 326.707 5.3C321.525 3.434 316.647 7.214 316.646 12.102C316.646 12.102 316.646 12.104 316.644 12.104H312C312 4.314 319.588 -1.752 327.818 0.796001C331.415 1.91 334.273 4.745 335.396 8.312C337.965 16.475 331.85 24 323.996 24" fill="black"/>
  <path d="M324.006 19.404H319.374V14.812H324.006V19.404ZM319.373 22.934H315.816L315.815 22.933V19.404H319.374V22.933L319.373 22.934ZM315.817 19.404H312.833V16.447C312.833 16.447 312.833 16.445 312.835 16.445H315.817V19.405V19.404Z" fill="black"/>
  </g>
  <path d="M349.288 1L341.403 16.98H336L341.969 6.847L349.288 1ZM349.885 2.286L346.995 10.306L352.649 16.98L341.686 19H359.969L349.885 2.286Z" fill="black"/>
  <g clip-path="url(#clip4)">
  <path d="M367.002 15.113L364.804 16.063L366.84 16.938L369.2 16.063L367.002 15.113ZM363.697 16.3L363.623 20.575L366.84 22V17.562L363.697 16.3ZM370.307 16.3L367.401 17.413V21.6L370.308 20.413V16.3H370.307ZM373.777 3L371.563 3.95L373.614 4.826L375.975 3.95L373.776 3H373.777ZM370.707 4.262V8.537L373.452 9.339L373.541 5.449L370.707 4.262ZM376.847 4.5L374.249 5.613V9.813L376.846 8.626V4.5H376.847ZM363.378 9.017L361.18 9.967L363.216 10.843L365.576 9.967L363.378 9.017ZM360.074 10.204L360 14.48L363.217 15.905V11.467L360.074 10.204ZM366.684 10.204L363.778 11.318V15.503L366.685 14.316V10.204H366.684ZM370.463 8.859L368.264 9.809L370.3 10.685L372.661 9.809L370.463 8.859ZM367.157 10.047L367.083 14.322L370.3 15.747V11.309L367.157 10.047ZM373.768 10.047L370.861 11.16V15.346L373.768 14.158V10.047ZM380.694 3L378.496 3.95L380.532 4.826L382.893 3.95L380.694 3ZM377.39 4.187L377.316 8.462L380.533 9.887V5.45L377.39 4.187ZM384.001 4.187L381.094 5.301V9.487L384 8.299V4.187H384.001Z" fill="black"/>
  </g>
  <path d="M394.112 4.237L400.527 8.025V15.6L394.112 11.813" fill="black"/>
  <path d="M401.224 8.025V15.6L407.639 11.813V4.237" fill="black"/>
  <path d="M387 0V7.575L393.415 11.363V3.788L387 0ZM394.112 20.212L400.527 24V16.425L394.112 12.637" fill="black"/>
  <path d="M417.66 1.7641C413.892 2.5681 410.712 5.7001 409.8 9.5041C409.5 10.7521 409.476 12.8161 409.752 14.1361C410.52 17.8801 413.496 20.9641 417.36 22.0321C418.476 22.3441 421.296 22.3441 422.46 22.0321C427.356 20.7361 430.596 16.2841 430.284 11.2921C430.188 9.8401 429.936 8.8561 429.348 7.5841C427.956 4.5841 425.256 2.4121 422.04 1.7401C420.96 1.5121 418.776 1.5241 417.66 1.7641ZM420.648 5.9041C420.816 6.1801 424.824 15.7801 424.98 16.2841C425.076 16.6081 424.584 17.1601 424.2 17.1601C424.068 17.1601 422.784 16.2241 421.224 14.9641C419.724 13.7521 418.44 12.7321 418.356 12.6841C418.272 12.6241 417.936 13.3321 417.336 14.8201L416.46 17.0401H414.84L415.032 16.5961C415.128 16.3441 416.16 13.8601 417.324 11.0641C418.488 8.2681 419.508 5.9041 419.604 5.8081C419.88 5.5441 420.444 5.5921 420.648 5.9041Z" fill="black"/>
  <path d="M419.424 9.60018C419.076 10.4642 418.8 11.2082 418.8 11.2682C418.8 11.3882 422.52 14.3282 422.592 14.2562C422.64 14.1962 420.276 8.28018 420.132 8.12418C420.084 8.07618 419.76 8.73618 419.424 9.60018Z" fill="black"/>
  <path d="M433.235 11.278C433.647 11.528 434.521 11.795 435.737 11.795C436.328 11.795 436.897 11.731 437.38 11.608C437.407 11.6016 437.431 11.5869 437.448 11.566C437.466 11.5452 437.477 11.5193 437.479 11.492C437.554 10.574 437.809 9.68 438.229 8.859C438.237 8.84331 438.242 8.82619 438.243 8.80867C438.244 8.79114 438.241 8.77358 438.235 8.75704C438.229 8.7405 438.22 8.72532 438.208 8.71243C438.196 8.69953 438.182 8.68918 438.166 8.682C437.664 8.44695 437.186 8.16468 436.738 7.839C436.036 7.332 435.442 6.757 435.018 6.179C435.003 6.15863 434.982 6.14306 434.958 6.13415C434.935 6.12524 434.909 6.12336 434.884 6.12874C434.859 6.13412 434.837 6.14653 434.819 6.16449C434.801 6.18245 434.788 6.20519 434.783 6.23C434.618 7.06337 434.401 7.8859 434.136 8.693C433.856 9.549 433.536 10.363 433.184 11.111C433.17 11.1401 433.168 11.1733 433.177 11.2041C433.186 11.235 433.206 11.2613 433.234 11.278H433.235ZM438.482 15.863C438.5 15.842 438.511 15.8158 438.512 15.7883C438.514 15.7608 438.508 15.7334 438.493 15.71C438.01 14.9249 437.688 14.0522 437.543 13.142C437.54 13.1245 437.534 13.1077 437.525 13.0927C437.516 13.0777 437.503 13.0647 437.489 13.0546C437.474 13.0445 437.458 13.0375 437.441 13.0339C437.423 13.0304 437.405 13.0304 437.388 13.034C436.844 13.1381 436.291 13.19 435.737 13.189C434.869 13.189 434.049 13.072 433.365 12.851C433.353 12.8243 433.332 12.8025 433.306 12.789C433.28 12.7756 433.25 12.7712 433.222 12.7766C433.193 12.782 433.167 12.7969 433.147 12.8189C433.128 12.8409 433.117 12.8688 433.115 12.898C433.113 12.9269 433.121 12.9555 433.137 12.9795C433.154 13.0034 433.177 13.0212 433.205 13.03C433.549 13.765 433.862 14.563 434.135 15.402C434.415 16.258 434.636 17.104 434.793 17.915C434.799 17.9469 434.817 17.9753 434.843 17.9949C434.868 18.0145 434.901 18.0238 434.933 18.021C435.415 17.981 436.28 17.686 437.262 16.976C437.74 16.63 438.162 16.245 438.482 15.863ZM445.638 1.629C445.618 1.58432 445.587 1.54507 445.549 1.51447C445.511 1.48387 445.466 1.4628 445.418 1.453L439.148 0.156999C439.118 0.117415 439.079 0.0856009 439.035 0.0642667C438.99 0.0429326 438.941 0.0327112 438.892 0.0344736C438.842 0.0362361 438.794 0.0499301 438.751 0.0743887C438.708 0.0988474 438.671 0.133345 438.644 0.174943C438.618 0.216541 438.601 0.264005 438.597 0.31329C438.592 0.362575 438.6 0.412221 438.619 0.457996C438.637 0.503771 438.667 0.544319 438.705 0.576184C438.743 0.608048 438.788 0.630285 438.836 0.640999L439.778 1.918C439.24 2.394 438.679 2.843 438.097 3.264C437.366 3.792 436.627 4.264 435.9 4.663C435.872 4.67836 435.85 4.70378 435.839 4.73429C435.828 4.7648 435.829 4.79821 435.842 4.828C436.028 5.271 436.577 5.998 437.561 6.711C438.039 7.057 438.537 7.337 439.001 7.521C439.027 7.5311 439.055 7.53307 439.081 7.52662C439.108 7.52018 439.132 7.50564 439.15 7.485C439.792 6.73832 440.584 6.13523 441.475 5.715L441.792 7.305C441.804 7.36656 441.835 7.42297 441.88 7.46672C441.925 7.51046 441.982 7.53948 442.044 7.5499C442.106 7.56032 442.169 7.55166 442.226 7.52506C442.283 7.49846 442.33 7.45519 442.362 7.401L445.622 1.911C445.647 1.86871 445.662 1.82102 445.664 1.77195C445.667 1.72288 445.658 1.67385 445.638 1.629ZM441.838 18.541C440.973 18.1867 440.185 17.6666 439.52 17.01C439.507 16.9974 439.493 16.9874 439.476 16.9807C439.46 16.9741 439.442 16.9708 439.424 16.9712C439.406 16.9716 439.389 16.9755 439.373 16.9829C439.356 16.9903 439.342 17.0008 439.33 17.014C438.973 17.396 438.542 17.774 438.085 18.105C437.383 18.613 436.65 18.998 435.966 19.219C435.941 19.2264 435.919 19.241 435.903 19.261C435.886 19.281 435.876 19.3054 435.874 19.3312C435.871 19.357 435.876 19.383 435.889 19.4057C435.901 19.4285 435.92 19.4471 435.943 19.459C436.653 19.851 437.378 20.314 438.096 20.833C438.839 21.371 439.526 21.933 440.136 22.505C440.186 22.551 440.262 22.552 440.313 22.508C440.686 22.183 441.217 21.428 441.589 20.288C441.764 19.7651 441.874 19.2227 441.917 18.673C441.919 18.6457 441.912 18.6185 441.898 18.5953C441.883 18.572 441.862 18.5537 441.837 18.543L441.838 18.541ZM455.845 12.782C455.433 12.532 454.558 12.265 453.342 12.265C452.751 12.265 452.183 12.33 451.7 12.452C451.673 12.4583 451.649 12.4729 451.631 12.4937C451.613 12.5146 451.602 12.5406 451.6 12.568C451.524 13.4858 451.27 14.3799 450.851 15.2C450.843 15.2157 450.838 15.2328 450.837 15.2504C450.836 15.268 450.838 15.2857 450.844 15.3023C450.85 15.319 450.859 15.3343 450.871 15.3473C450.883 15.3603 450.897 15.3707 450.913 15.378C451.391 15.598 451.885 15.89 452.342 16.22C453.043 16.728 453.638 17.302 454.061 17.881C454.076 17.9014 454.097 17.9169 454.121 17.9258C454.145 17.9346 454.17 17.9364 454.195 17.9309C454.22 17.9254 454.243 17.9129 454.261 17.8948C454.279 17.8767 454.291 17.8539 454.296 17.829C454.451 17.036 454.669 16.207 454.943 15.367C455.223 14.511 455.543 13.697 455.895 12.949C455.909 12.9199 455.911 12.8867 455.902 12.8559C455.893 12.825 455.873 12.7987 455.845 12.782ZM450.597 8.197C450.579 8.21815 450.569 8.24437 450.567 8.27187C450.565 8.29937 450.572 8.32673 450.587 8.35C451.069 9.135 451.392 10.008 451.536 10.918C451.539 10.9354 451.545 10.9521 451.554 10.9671C451.564 10.982 451.576 10.9949 451.591 11.005C451.605 11.0151 451.621 11.0222 451.639 11.0258C451.656 11.0294 451.674 11.0294 451.691 11.026C452.235 10.9218 452.789 10.8699 453.343 10.871C454.21 10.871 455.03 10.988 455.714 11.21C455.727 11.214 455.741 11.216 455.755 11.216H455.757C455.774 11.2164 455.792 11.2133 455.808 11.207C455.824 11.2006 455.838 11.1911 455.851 11.179C455.863 11.1669 455.873 11.1524 455.88 11.1365C455.887 11.1205 455.89 11.1033 455.89 11.086C455.89 11.0571 455.881 11.0289 455.863 11.006C455.51 10.2421 455.203 9.4577 454.944 8.657C454.665 7.802 454.444 6.956 454.287 6.144C454.281 6.11224 454.263 6.08389 454.237 6.06434C454.211 6.0448 454.179 6.03542 454.147 6.038C453.665 6.078 452.8 6.373 451.817 7.084C451.339 7.43 450.917 7.815 450.597 8.197ZM447.243 5.557C448.103 5.909 448.904 6.44 449.559 7.09C449.584 7.11443 449.617 7.12809 449.652 7.128H449.654C449.69 7.128 449.724 7.112 449.748 7.086C450.105 6.703 450.536 6.326 450.994 5.995C451.696 5.487 452.428 5.101 453.113 4.88C453.137 4.87173 453.158 4.85677 453.174 4.8369C453.189 4.81702 453.199 4.79307 453.201 4.76789C453.204 4.74271 453.199 4.71736 453.187 4.69486C453.176 4.67237 453.158 4.65367 453.136 4.641C452.391 4.22681 451.672 3.76797 450.982 3.267C450.268 2.75265 449.587 2.19423 448.942 1.595C448.918 1.57245 448.887 1.55963 448.854 1.55908C448.821 1.55852 448.79 1.57027 448.765 1.592C448.393 1.917 447.862 2.672 447.49 3.812C447.315 4.33494 447.205 4.87728 447.161 5.427C447.159 5.45454 447.166 5.48194 447.181 5.50529C447.196 5.52863 447.217 5.54673 447.243 5.557ZM451.518 17.349C451.073 17.0214 450.589 16.7491 450.078 16.538C450.053 16.5277 450.024 16.5257 449.998 16.5322C449.971 16.5386 449.947 16.5532 449.929 16.574C449.287 17.3203 448.495 17.9234 447.605 18.344L447.287 16.755C447.275 16.693 447.245 16.6361 447.2 16.5918C447.155 16.5476 447.098 16.5182 447.036 16.5076C446.974 16.497 446.91 16.5058 446.853 16.5327C446.796 16.5596 446.748 16.6033 446.717 16.658L443.458 22.149C443.433 22.1912 443.418 22.2388 443.415 22.2879C443.413 22.3369 443.421 22.3859 443.441 22.4308C443.461 22.4757 443.492 22.5151 443.53 22.5458C443.569 22.5764 443.614 22.5974 443.662 22.607L449.932 23.903C449.996 23.9162 450.063 23.9086 450.123 23.8814C450.182 23.8542 450.232 23.8088 450.264 23.7516C450.296 23.6945 450.31 23.6286 450.302 23.5634C450.295 23.4983 450.267 23.4372 450.222 23.389L449.302 22.141C449.839 21.6652 450.4 21.2163 450.982 20.796C451.714 20.266 452.453 19.796 453.18 19.397C453.208 19.3813 453.229 19.3558 453.24 19.3254C453.251 19.2949 453.249 19.2617 453.237 19.232C453.051 18.789 452.502 18.061 451.518 17.349Z" fill="black"/>
  <path fill-rule="evenodd" clip-rule="evenodd" d="M461.246 23.944H475.746C476.986 23.944 477.992 22.921 477.992 21.66V2.283C477.992 1.022 476.986 0 475.746 0H461.246C460.005 0 459 1.023 459 2.283V21.66C459 22.92 460.006 23.944 461.246 23.944ZM470.902 11.14V20.649H473.452V11.172C473.452 5.954 466.042 8.922 466.042 8.922V3.262L463.395 3.278C463.395 3.278 463.395 12.111 463.41 12.071C471.51 8.865 470.902 11.14 470.902 11.14ZM469.603 6.686H472.41C473.934 4.679 474.431 3.277 474.431 3.277H471.528C471.528 3.277 470.613 5.43 469.603 6.686ZM463.443 15.218V20.633L466.106 17.925L463.443 15.218Z" fill="black"/>
  <path d="M487.514 0.173C487.87 0.256081 488.216 0.380945 488.543 0.545L491.241 2.02394L491.253 2.009C491.253 2.009 491.959 1.191 491.979 1.172C492.348 0.704 492.846 0.354229 493.411 0.16586C493.976 -0.0225098 494.584 -0.0412333 495.16 0.112C495.846 0.268214 496.441 0.689613 496.817 1.284C497.414 2.152 497.54 3.262 497.152 4.242C497.145 4.25472 497.11 4.34229 497.066 4.454H484.465V19.338H495.673C492.271 21.1445 488.541 23.1227 488.521 23.133C487.695 23.5685 486.771 23.8204 485.762 23.8191C485.124 23.8198 484.454 23.7208 483.756 23.505C482.786 23.2105 481.938 22.6098 481.338 21.793C479.347 19.077 479.738 15.952 481.468 13.98L483.026 12.1181C482.06 10.004 481.143 7.99676 481.133 7.987C479.18 3.727 482.733 -0.962 487.514 0.173Z" fill="black"/>
  <path d="M499.35 17.3828C500.432 16.8066 501.144 16.4258 501.153 16.417C503.607 15.133 504.745 11.859 502.92 9.012C502.516 8.39293 501.967 7.88209 501.32 7.524C501.311 7.524 500.368 7.0084 499.35 6.44968V17.3828Z" fill="black"/>
  <path d="M487.96 7.747H485.954V6.445H491.406V7.747H489.412V12.88H487.961L487.96 7.747ZM491.403 9.674C491.403 7.814 492.78 6.307 494.77 6.307C495.98 6.307 496.724 6.717 497.32 7.312L496.407 8.353C495.905 7.907 495.403 7.628 494.752 7.628C493.672 7.628 492.872 8.54 492.872 9.638V9.656C492.872 10.772 493.635 11.684 494.752 11.684C495.496 11.684 495.942 11.386 496.445 10.921L497.356 11.833C496.686 12.54 495.961 12.986 494.714 12.986C493.856 13.0051 493.025 12.6826 492.404 12.0896C491.783 11.4965 491.423 10.6813 491.403 9.823V9.674ZM485.953 16.361H491.405V17.347H485.953V16.361Z" fill="black"/>
  <g clip-path="url(#clip5)">
  <path d="M527.552 18.969C528.094 19.929 528.147 20.94 527.696 21.739C527.246 22.539 526.366 22.996 525.28 22.996H523.235C523.259 22.606 523.275 22.214 523.275 21.819C523.275 21.376 523.255 20.939 523.225 20.504L524.571 20.502C524.901 20.502 525.169 20.228 525.169 19.89C525.169 19.7883 525.144 19.6881 525.097 19.598L516.523 4.392C516.472 4.29838 516.397 4.22019 516.306 4.16564C516.214 4.11109 516.11 4.0822 516.003 4.082C515.899 4.08242 515.797 4.10996 515.708 4.16188C515.618 4.21381 515.543 4.28831 515.491 4.378L514.13 6.792C518.268 9.974 521.05 14.905 521.43 20.502C521.46 20.937 521.48 21.374 521.48 21.818C521.48 22.213 521.463 22.605 521.44 22.994H514.76C514.841 22.165 514.836 21.3299 514.745 20.502C514.428 17.5163 513.007 14.7569 510.76 12.765L509.823 14.427C511.516 16.0379 512.6 18.1838 512.894 20.502C512.95 20.933 512.981 21.372 512.981 21.818C512.981 22.215 512.955 22.608 512.911 22.994H506.72C505.634 22.994 504.754 22.536 504.304 21.737C503.854 20.937 503.906 19.928 504.448 18.967L505.719 16.744C506.447 17.1441 507.104 17.6628 507.661 18.279L506.904 19.596C506.841 19.712 506.818 19.845 506.836 19.9754C506.855 20.1059 506.915 20.227 507.007 20.321C507.119 20.436 507.271 20.501 507.43 20.501H510.433C510.189 19.0686 509.541 17.7355 508.566 16.658C508.007 16.0409 507.349 15.5212 506.62 15.12L509.974 9.176C510.686 9.582 511.362 10.05 511.995 10.574C513.475 11.8027 514.696 13.3128 515.588 15.0169C516.48 16.7209 517.025 18.5849 517.191 20.501H518.988C518.817 18.2647 518.188 16.0873 517.141 14.1038C516.094 12.1204 514.651 10.373 512.901 8.97C512.26 8.45737 511.581 7.99468 510.87 7.586L513.733 2.513C514.273 1.552 515.102 1 516.003 1C516.904 1 517.732 1.552 518.274 2.514L527.552 18.969Z" fill="black"/>
  </g>
  <path d="M540 0C533.373 0 528 5.372 528 12C528 18.627 533.373 24 540 24C546.627 24 552 18.627 552 12C552 5.372 546.627 0 540 0ZM540 22.459C538.115 22.459 536.586 21.199 536.586 19.646H543.414C543.414 21.199 541.886 22.459 540 22.459ZM545.64 18.714H534.36V16.67H545.64V18.715V18.714ZM545.599 15.616H534.392C534.355 15.573 534.317 15.531 534.281 15.487C533.126 14.086 532.855 13.354 532.591 12.607C532.586 12.583 533.991 12.895 534.986 13.119C534.986 13.119 535.499 13.237 536.248 13.374C535.528 12.531 535.102 11.459 535.102 10.364C535.102 7.958 536.946 5.856 536.281 4.157C536.929 4.209 537.621 5.524 537.668 7.579C538.357 6.627 538.645 4.889 538.645 3.824C538.645 2.721 539.372 1.439 540.099 1.395C539.451 2.463 540.267 3.379 540.993 5.651C541.265 6.505 541.23 7.941 541.44 8.851C541.51 6.961 541.835 4.2 543.035 3.247C542.505 4.447 543.114 5.949 543.529 6.671C544.2 7.835 544.607 8.718 544.607 10.387C544.603 11.4855 544.21 12.5471 543.497 13.383C544.289 13.234 544.837 13.1 544.837 13.1L547.41 12.598C547.41 12.598 547.036 14.136 545.599 15.616Z" fill="black"/>
  <path fill-rule="evenodd" clip-rule="evenodd" d="M563.783 0.0470009C570.491 0.0470009 575.93 5.4 575.93 12C575.93 18.601 570.492 23.953 563.784 23.953C558.125 23.953 553.37 20.143 552.021 14.988C552.008 14.9417 552.001 14.894 552.001 14.846C552.001 14.532 552.26 14.277 552.58 14.277H557.477C557.591 14.2766 557.702 14.3098 557.797 14.3727C557.892 14.4355 557.967 14.525 558.011 14.63C558.53 15.7203 559.348 16.6406 560.37 17.2835C561.393 17.9264 562.576 18.2654 563.784 18.261C567.298 18.261 570.146 15.458 570.146 12C570.146 8.542 567.297 5.739 563.783 5.739C562.575 5.73458 561.391 6.0737 560.369 6.71679C559.347 7.35989 558.529 8.28043 558.01 9.371L558 9.39C557.953 9.48957 557.879 9.57374 557.787 9.63257C557.694 9.69139 557.586 9.72243 557.476 9.722H552.578C552.426 9.72307 552.28 9.66375 552.171 9.55707C552.063 9.45039 552.001 9.30506 552 9.153C552 9.105 552.009 9.057 552.02 9.012C553.37 3.857 558.124 0.0470009 563.783 0.0470009ZM563.783 14.847C562.186 14.847 560.891 13.572 560.891 12C560.891 10.428 562.186 9.154 563.783 9.154C565.38 9.154 566.675 10.428 566.675 12C566.675 13.572 565.38 14.846 563.783 14.846V14.847Z" fill="black"/>
  <path fill-rule="evenodd" clip-rule="evenodd" d="M596.841 8.12543C598.714 8.80678 599.959 10.5763 599.959 12.5898C599.959 14.5932 598.673 16.3932 596.81 17.0644C596.952 17.461 597.033 17.8881 597.033 18.3254C597.033 20.3186 595.423 21.9356 593.438 21.9356C592.638 21.9356 591.868 21.661 591.241 21.1627C589.975 22.9322 587.949 23.9898 585.762 23.9898C582.035 23.9898 579.008 20.9492 579.008 17.2068C579.008 16.7695 579.048 16.3322 579.129 15.9153C577.256 15.2339 576 13.4644 576 11.4407C576 9.43729 577.276 7.63729 579.139 6.9661C578.997 6.56949 578.916 6.14237 578.916 5.70509C578.916 3.71187 580.527 2.09492 582.511 2.09492C583.311 2.09492 584.081 2.35932 584.709 2.84746C585.985 1.07797 588.01 0.0305099 590.197 0.0305099C593.924 0.0305099 596.962 3.08136 596.962 6.8339C596.962 7.27119 596.922 7.69831 596.841 8.12543ZM590.663 12.7525L585.418 10.3525L584.395 8.15593L585.276 3.56949C586.38 1.95254 588.192 0.986439 590.147 0.986439C593.408 0.986439 596.061 3.65085 596.061 6.92542C596.061 7.3322 596.03 7.70847 595.949 8.09491L590.663 12.7525ZM579.878 17.1153C579.878 16.7085 579.909 16.3119 579.99 15.9254L585.154 11.2475L590.42 13.6576L591.585 15.8949L590.714 20.461C589.61 22.0881 587.777 23.0644 585.813 23.0644C582.542 23.0644 579.878 20.4 579.878 17.1153ZM579.959 6.81356L583.554 7.66779L584.344 3.56949C583.858 3.19322 583.251 2.98983 582.623 2.98983C581.063 2.98983 579.787 4.26101 579.787 5.83729C579.787 6.17288 579.848 6.50847 579.959 6.81356ZM576.922 11.4508C576.922 9.75254 578.046 8.20678 579.646 7.67796L583.595 8.61356L584.516 10.5966L579.473 15.1729C577.944 14.583 576.922 13.1085 576.922 11.4508ZM591.625 20.461C592.122 20.8373 592.719 21.0508 593.337 21.0508C594.896 21.0508 596.172 19.7797 596.172 18.2034C596.172 17.8576 596.111 17.522 596 17.2169L592.415 16.3729L591.625 20.461ZM596.304 16.3525L592.354 15.4271L591.311 13.4034L596.476 8.85763C598.005 9.43729 599.028 10.922 599.028 12.5695C599.028 14.278 597.914 15.8237 596.304 16.3525Z" fill="black"/>
  <path d="M612.632 5.74646C611.808 5.74646 610.532 4.84824 609.188 4.88071C607.415 4.90235 605.789 5.86551 604.875 7.3914C603.034 10.454 604.4 14.9776 606.196 17.4667C607.077 18.6787 608.115 20.0423 609.493 19.999C610.814 19.9449 611.311 19.1765 612.915 19.1765C614.507 19.1765 614.959 19.999 616.359 19.9665C617.782 19.9449 618.685 18.7328 619.555 17.5099C620.56 16.1031 620.977 14.7395 621 14.6638C620.966 14.6529 618.233 13.6465 618.2 10.6163C618.177 8.08401 620.356 6.87195 620.458 6.81784C619.216 5.0755 617.307 4.88071 616.641 4.83742C614.902 4.70756 613.445 5.74646 612.632 5.74646ZM615.568 3.19248C616.302 2.34837 616.788 1.16877 616.652 0C615.602 0.0432879 614.338 0.670962 613.581 1.51507C612.903 2.26179 612.316 3.46303 612.474 4.61016C613.637 4.69673 614.834 4.03659 615.568 3.19248Z" fill="black"/>
  <path d="M641.855 7.21829L643.846 3.63064C643.958 3.42952 643.89 3.17405 643.7 3.05717C643.509 2.94033 643.261 3.00828 643.151 3.20938L641.134 6.84321C639.595 6.11209 637.863 5.7044 636 5.7044C634.137 5.7044 632.405 6.11209 630.866 6.84321L628.849 3.20938C628.737 3.00825 628.491 2.94031 628.298 3.05717C628.105 3.17401 628.039 3.42952 628.152 3.63064L630.142 7.21829C626.709 9.15343 624.384 12.7682 624 17H648C647.616 12.7682 645.291 9.15343 641.855 7.21829H641.855ZM630.49 13.4939C629.933 13.4939 629.484 13.0237 629.484 12.4475C629.484 11.8686 629.936 11.4011 630.49 11.4011C631.046 11.4011 631.496 11.8713 631.496 12.4475C631.498 13.0237 631.046 13.4939 630.49 13.4939ZM641.508 13.4939C640.951 13.4939 640.502 13.0237 640.502 12.4475C640.502 11.8686 640.954 11.4011 641.508 11.4011C642.064 11.4011 642.513 11.8713 642.513 12.4475C642.516 13.0237 642.064 13.4939 641.508 13.4939Z" fill="black"/>
  <path d="M659.805 18.537C659.805 18.537 658.877 19.069 660.465 19.249C662.389 19.465 663.373 19.434 665.494 19.039C665.494 19.039 666.051 19.383 666.83 19.682C662.076 21.69 656.07 19.565 659.805 18.537ZM659.224 15.917C659.224 15.917 658.183 16.676 659.772 16.837C661.828 17.047 663.452 17.064 666.261 16.531C666.261 16.531 666.649 16.919 667.261 17.131C661.512 18.788 655.111 17.262 659.224 15.916" fill="black"/>
  <path d="M664.12 11.47C665.292 12.8 663.813 13.996 663.813 13.996C663.813 13.996 666.787 12.483 665.421 10.588C664.146 8.82 663.167 7.942 668.464 4.915C668.464 4.915 660.15 6.961 664.121 11.471" fill="black"/>
  <path d="M670.408 20.475C670.408 20.475 671.095 21.033 669.652 21.465C666.908 22.284 658.231 22.531 655.821 21.497C654.954 21.126 656.579 20.61 657.091 20.502C657.623 20.388 657.928 20.409 657.928 20.409C656.964 19.74 651.699 21.723 655.254 22.291C664.946 23.841 672.923 21.593 670.408 20.475ZM660.251 13.201C660.251 13.201 655.837 14.234 658.688 14.61C659.891 14.768 662.291 14.733 664.526 14.548C666.352 14.396 668.186 14.073 668.186 14.073C668.186 14.073 667.543 14.345 667.076 14.659C662.595 15.821 653.936 15.28 656.429 14.092C658.537 13.087 660.251 13.202 660.251 13.202V13.201ZM668.168 17.563C672.725 15.23 670.618 12.987 669.148 13.289C668.788 13.363 668.627 13.427 668.627 13.427C668.627 13.427 668.76 13.221 669.016 13.131C671.925 12.123 674.162 16.104 668.076 17.681C668.076 17.681 668.147 17.619 668.168 17.563Z" fill="black"/>
  <path d="M665.421 0.026001C665.421 0.026001 667.945 2.514 663.028 6.339C659.086 9.409 662.129 11.159 663.027 13.157C660.725 11.111 659.037 9.309 660.17 7.632C661.832 5.171 666.44 3.978 665.421 0.026001Z" fill="black"/>
  <path d="M660.699 23.887C665.072 24.163 671.788 23.734 671.947 21.694C671.947 21.694 671.641 22.467 668.332 23.081C664.6 23.774 659.996 23.693 657.265 23.249C657.265 23.249 657.825 23.705 660.699 23.887Z" fill="black"/>
  <g clip-path="url(#clip6)">
  <path fill-rule="evenodd" clip-rule="evenodd" d="M690.556 0H677.314C677.21 0 677.108 0 677.015 0.018C676.055 0.068587 675.127 0.38351 674.335 0.928C673.558 1.45931 672.936 2.18745 672.532 3.038C672.187 3.75308 672.017 4.54019 672.037 5.334V18.666C672.035 19.4744 672.217 20.2728 672.57 21C672.983 21.8464 673.61 22.5702 674.389 23.1C675.189 23.6346 676.118 23.9422 677.079 23.99C677.275 24 690.293 24 690.545 24C691.111 24.0041 691.675 23.9222 692.217 23.757C693.116 23.4712 693.922 22.9498 694.552 22.247C695.188 21.5404 695.623 20.676 695.812 19.744C695.896 19.341 695.915 18.919 695.915 18.506V5.54C695.915 5.194 695.906 4.847 695.85 4.5C695.707 3.55539 695.311 2.66735 694.702 1.931C694.104 1.20022 693.32 0.643507 692.433 0.319C691.826 0.103 691.2 0 690.556 0ZM690.845 14.878C690.845 14.878 693.395 8.943 685.513 3.563H685.512C685.512 3.563 688.734 7.641 687.09 12.216C687.09 12.216 681.3 8.08 678.388 5.119C678.388 5.119 682.03 10.387 683.328 11.466C683.328 11.466 681.152 10.331 676.118 6.028C676.118 6.028 681.9 13.604 684.616 15.187C684.616 15.187 680.498 18.009 674.466 14.025C674.466 14.025 677.631 19.641 684.326 19.641C686.09 19.641 687.122 19.1052 687.975 18.6623C688.576 18.3501 689.088 18.084 689.706 18.084C691.256 18.084 692.181 19.641 692.181 19.641C693.086 17.418 690.845 14.878 690.845 14.878Z" fill="black"/>
  </g>
  <path d="M696 12.7071V23.2929L719.293 0H708.707L696 12.7071Z" fill="black"/>
  <path d="M707.293 0H696V11.2929L707.293 0Z" fill="black"/>
  <path d="M708.395 12.3118L696.707 24H720L708.395 12.3118Z" fill="black"/>
  <defs>
  <clipPath id="clip0">
  <rect width="24" height="24" fill="white"/>
  </clipPath>
  <clipPath id="clip1">
  <rect width="24" height="24" fill="white" transform="translate(48)"/>
  </clipPath>
  <clipPath id="clip2">
  <rect width="24" height="24" fill="white" transform="translate(288)"/>
  </clipPath>
  <clipPath id="clip3">
  <rect width="24" height="24" fill="white" transform="translate(312)"/>
  </clipPath>
  <clipPath id="clip4">
  <rect width="24" height="24" fill="white" transform="translate(360)"/>
  </clipPath>
  <clipPath id="clip5">
  <rect width="24" height="24" fill="white" transform="translate(504)"/>
  </clipPath>
  <clipPath id="clip6">
  <rect width="24" height="24" fill="white" transform="translate(672)"/>
  </clipPath>
  </defs>
  </svg>
