<svg xmlns="http://www.w3.org/2000/svg" width="506" height="114" fill="#f90" fill-rule="evenodd" xmlns:v="https://vecta.io/nano"><path d="M457.452 51.343c-55.366 40.896-135.806 62.607-204.971 62.607-96.932 0-184.272-35.848-250.239-95.424-5.217-4.712-.505-11.108 5.722-7.405C79.317 52.522 167.33 77.598 258.372 77.598c61.424 0 128.906-12.791 191.003-39.045 9.256-4.207 17.165 6.059 8.078 12.791zm23.056-26.254c-7.068-9.088-46.783-4.376-64.789-2.188-5.386.673-6.227-4.039-1.347-7.573C446.01-6.887 498.01-.492 504.068 6.913c6.058 7.573-1.683 59.577-31.301 84.485-4.544 3.871-8.919 1.851-6.9-3.198 6.732-16.661 21.709-54.192 14.641-63.111z"/></svg>