<svg xmlns="http://www.w3.org/2000/svg" width="366" height="142" fill="#0af" xmlns:v="https://vecta.io/nano"><path d="M91.704 319.804c21.005 12.097 56.066-2.621 91.644-35.654 35.744 32.938 70.831 47.655 91.801 35.544 4.876-2.767 8.869-6.986 11.959-12.325l-14.412-8.301c-1.713 2.959-3.672 5.004-5.925 6.366-10.105 5.845-31.498-1.414-54.474-18.593-5.666-4.206-11.394-9.049-17.103-14.224 10.4-10.822 20.759-23.212 30.688-36.793 16.983-1.798 33.054-4.551 47.805-8.15 7.445 32.25 6.78 58.115-.964 71.496l14.413 8.3c10.239-17.691 10.975-48.146 2.553-84.218 35.399-10.835 61.341-26.773 71.58-44.464l-14.413-8.3c-7.707 13.316-29.802 26.924-61.394 36.692-4.288-14.479-9.869-29.701-16.874-45.143 6.864-15.432 12.44-30.577 16.571-45.009 7.32 2.242 14.222 4.759 20.679 7.449 26.44 11.196 43.476 25.982 43.555 37.608.047 2.599-.888 5.406-2.601 8.365l14.413 8.301c3.127-5.404 4.794-10.963 4.795-16.623-.008-24.107-30.301-46.958-76.676-61.229 10.749-47.161 5.987-84.642-14.954-96.703-21.005-12.097-56.065 2.62-91.644 35.653-35.744-32.937-70.83-47.655-91.8-35.544-4.876 2.767-8.869 6.986-11.997 12.39-10.239 17.691-10.975 48.146-2.553 84.218-35.398 10.835-61.341 26.773-71.58 44.464C1.668 150.781.001 156.34 0 162.001c.008 24.107 30.301 46.957 76.676 61.229-10.74 46.995-5.913 84.513 15.028 96.574zm91.587-58.931c-6.96-7.182-13.843-15.092-20.503-23.388 6.697.34 13.469.552 20.389.506 6.883.019 13.749-.23 20.486-.553-6.645 8.353-13.426 16.198-20.372 23.435zm-51.78-69.107c-5.821-10.042-11.115-19.953-15.716-29.722 4.708-10.07 9.877-20.044 15.537-29.822 5.622-9.714 11.697-19.168 17.983-28.242 10.781-.91 22.006-1.393 33.57-1.423 11.297-.013 22.462.499 33.468 1.434 6.352 8.976 12.407 18.467 18.081 28.168 5.821 10.043 11.115 19.954 15.716 29.723-4.707 10.069-9.877 20.044-15.537 29.822-5.622 9.714-11.697 19.167-17.983 28.242-10.781.91-22.005 1.393-33.57 1.423-11.297.013-22.462-.499-33.468-1.434-6.315-9.041-12.407-18.467-18.081-28.169zm-3.624 25.618a320.86 320.86 0 0 1-30.862-5.937c2.809-9.618 6.203-19.501 10.17-29.482 3.152 6.018 6.434 12.111 9.956 18.086 3.458 5.937 7.092 11.718 10.736 17.333zM96.68 112.436c9.667-2.409 20.045-4.409 31.033-5.973-3.61 5.641-7.229 11.448-10.692 17.431-3.5 6.047-6.833 12.104-9.898 18.144-4.211-10.145-7.664-20.11-10.443-29.602zm65.77-25.938c6.644-8.353 13.426-16.199 20.372-23.435 6.959 7.182 13.843 15.092 20.503 23.388-6.697-.34-13.469-.552-20.39-.506s-13.748.23-20.485.553zM269.432 211.5c-9.667 2.409-20.045 4.409-31.033 5.972 3.61-5.64 7.229-11.447 10.692-17.43 3.5-6.047 6.833-12.104 9.898-18.145a289.87 289.87 0 0 1 10.443 29.603zm-10.515-69.529c-3.152-6.019-6.434-12.112-9.956-18.086-3.458-5.937-7.028-11.681-10.672-17.296a320.8 320.8 0 0 1 30.862 5.937c-2.874 9.581-6.267 19.464-10.234 29.445zM211.694 37.148c22.94-17.152 44.263-24.514 54.411-18.67s14.482 27.983 10.996 56.34c-.81 6.91-2.178 14.185-3.786 21.579-14.79-3.629-30.767-6.397-47.738-8.194-10.018-13.661-20.383-25.978-30.901-36.839 5.69-5.215 11.387-9.996 17.018-14.216zM99.304 18.566c10.105-5.846 31.497 1.414 54.474 18.593 5.666 4.207 11.394 9.05 17.103 14.224-10.4 10.822-20.76 23.212-30.688 36.793-16.984 1.798-33.054 4.551-47.805 8.15-7.445-32.25-6.781-58.115.964-71.495 1.74-2.858 3.737-4.967 5.952-6.264zM60.236 199.523c-26.439-11.196-43.475-25.982-43.555-37.608-.046-2.6.889-5.406 2.601-8.365 7.707-13.317 29.802-26.925 61.394-36.692 4.288 14.478 9.869 29.7 16.874 45.143-6.864 15.432-12.44 30.576-16.571 45.009-7.384-2.28-14.324-4.733-20.744-7.487zm28.774 49.595c.811-6.91 2.178-14.185 3.786-21.579 14.79 3.629 30.768 6.397 47.738 8.194 10.018 13.661 20.383 25.978 30.901 36.839-5.689 5.215-11.387 9.996-17.055 14.28-22.939 17.153-44.263 24.514-54.41 18.67-10.11-5.908-14.445-28.047-10.959-56.404zm64.528-104.193c-9.398 16.236-3.792 37.015 12.521 46.41s37.155 3.848 46.552-12.388 3.792-37.016-12.521-46.41-37.155-3.849-46.552 12.388z"/></svg>