<svg width="190" height="230" viewBox="0 0 190 230" fill="none" xmlns="http://www.w3.org/2000/svg">
  <path fill-rule="evenodd" clip-rule="evenodd" d="M116.631 224.125L82.3758 215.365L84.2667 200.181L106.588 205.924L113.539 169.792L157.562 176.767L173.781 44.1919L37.0738 16.2812L16.2214 182.666L41.5835 189.193L44.0229 180.805L76.4656 188.397L67.9871 230L50.6763 216.363L32.463 220.562L37.3266 203.841L0 194.298L25.486 0L190 32.5624L170.002 192.194L116.631 224.125ZM155.244 65.1274L152.929 81.4086L53.2951 62.799L55.6107 46.5203L155.244 65.1274ZM48.6616 95.3639L50.9746 79.0827L120.491 90.7122L118.17 106.993L48.6616 95.3639ZM86.3142 170.551L82.3581 180.855L40.1148 171.734L42.0739 157.521L34.7178 145.077L44.5942 137.268L46.7935 121.796L59.5238 123.757L67.2288 113.417L78.2377 123.677L91.2891 120.858L92.6617 135.344L103.832 143.214L97.2903 153.625L98.7412 166.918L86.3142 170.551Z" fill="#EC1C24"/>
</svg>
