<svg xmlns="http://www.w3.org/2000/svg" width="32" height="32" viewBox="0 0 32 32">
    <path fill="#FFF" fill-rule="evenodd" d="M13.182 22.446c-.152.027-.293-.04-.312-.146-.02-.111.09-.222.243-.25.155-.028.293.037.314.147.018.108-.09.22-.245.249m-1.114-.002c-.157.003-.283-.087-.285-.196 0-.11.122-.202.28-.205.155-.003.283.086.283.196.003.112-.123.202-.278.205m-.822-.33c-.032.105-.18.153-.328.109-.147-.047-.245-.17-.215-.276.031-.106.179-.156.328-.108.148.046.246.168.215.274m-.967-.295c-.071.082-.225.061-.336-.05-.115-.109-.147-.263-.074-.344.072-.08.226-.058.339.052.113.108.148.263.071.342m-.748-.873c-.08.058-.21.004-.292-.115-.08-.12-.08-.263.002-.32.08-.059.21-.007.293.112.08.121.08.265-.003.323m-.442-.754c-.062.059-.184.032-.267-.063-.086-.093-.103-.22-.038-.279.064-.059.182-.032.268.063.086.095.103.218.037.279m-.87-.55c-.094-.044-.148-.134-.116-.201.027-.07.13-.088.226-.042.094.044.148.135.115.203-.027.067-.13.086-.224.04M25 13.196c0-1.467-.508-2.666-1.348-3.607.136-.338.584-1.705-.129-3.557 0 0-1.098-.36-3.6 1.378a12.237 12.237 0 0 0-3.283-.451 12.208 12.208 0 0 0-3.28.451C10.858 5.67 9.757 6.031 9.757 6.031c-.71 1.852-.263 3.219-.126 3.557-.839.941-1.351 2.14-1.351 3.607 0 5.149 3.06 6.3 5.97 6.64-.374.336-.714.929-.832 1.797-.747.343-2.644.937-3.813-1.117 0 0-.693-1.29-2.008-1.385 0 0-1.279-.017-.09.817 0 0 .859.414 1.455 1.967 0 0 .77 2.397 4.414 1.585.006 1.123.018 2.18.018 2.501h6.497c0-.442.016-1.889.016-3.687 0-1.254-.419-2.072-.889-2.488 2.918-.333 5.983-1.47 5.983-6.63"/>
</svg>
