<svg width="393" height="262" viewBox="0 0 393 262" fill="none" xmlns="http://www.w3.org/2000/svg">
<path fill-rule="evenodd" clip-rule="evenodd" d="M392.956 257.87C392.956 259.836 368.351 261.43 338 261.43C307.648 261.43 283.042 259.836 283.042 257.87C283.042 255.904 307.648 254.311 338 254.311C368.351 254.311 392.956 255.904 392.956 257.87Z" fill="#ECEAF5"/>
<path d="M306.547 251.131L303.988 250.579C298.848 252.187 293.829 254.158 288.969 256.479C293.645 257.082 298.37 257.209 303.072 256.856C305.402 256.667 307.113 256.412 308.46 256.183C309.484 256.032 310.494 255.793 311.477 255.469L311.356 252.182L306.547 251.131Z" fill="#EE534F"/>
<path d="M370.798 251.307C369.891 250.99 369.142 250.333 368.71 249.475L365.639 250.539L363.39 251.307L362.811 256.344C362.811 256.344 364.44 256.641 367.229 256.923C373.716 257.562 380.251 257.539 386.733 256.856C386.733 256.856 372.307 251.805 370.798 251.307Z" fill="#EE534F"/>
<path d="M306.546 251.131L308.486 256.182C309.51 256.032 310.52 255.793 311.503 255.468L311.382 252.182L306.546 251.131Z" fill="#D14646"/>
<path d="M365.639 250.538L363.39 251.306L362.811 256.344C362.811 256.344 364.44 256.64 367.229 256.923C366.471 254.858 365.938 252.717 365.639 250.538Z" fill="#D14646"/>
<path fill-rule="evenodd" clip-rule="evenodd" d="M362.689 57.0985C362.538 56.8703 362.335 56.6811 362.096 56.5462C355.685 53.2731 319.262 52.9094 313.053 57.1793C312.878 57.3044 312.728 57.4594 312.608 57.6373C312.608 57.6373 280.55 99.0301 292.403 107.678C297.616 111.463 304.526 107.799 310.655 102.384C311.355 119.531 312.568 134.981 312.568 134.981L338.807 137.769L361.14 136.422C361.14 136.422 362.891 118.292 363.942 99.2995C370.057 104.687 376.832 108.163 381.991 104.418C393.858 95.8377 362.689 57.0985 362.689 57.0985ZM302.667 93.5333L310.169 84.3739V87.9299L302.667 93.5333ZM364.603 83.1582C364.582 83.7751 364.561 84.3962 364.561 85.0215L371.713 90.3421L364.642 81.7079C364.636 82.1887 364.619 82.6722 364.603 83.1582Z" fill="#FF6900"/>
<path d="M361.854 134.052C361.736 132.676 361.736 131.293 361.854 129.917C359.197 130.867 356.432 131.482 353.623 131.749H353.152C350.228 132.098 347.287 132.287 344.343 132.314H342.848H340.598H339.426C335.857 132.22 332.435 131.951 329.284 131.614H328.785C325.903 131.304 323.276 130.914 320.973 130.536C315.585 129.634 312.891 128.92 312.379 128.799H312.096C312.191 130.148 312.132 131.504 311.921 132.84C311.921 132.84 328.219 136.692 341.204 137.123C348.219 137.397 355.222 136.355 361.854 134.052Z" fill="#1F1F30"/>
<path d="M365.087 250.712L368.71 249.473C368.71 249.473 367.202 216.93 366.744 209.481C366.286 202.033 363.861 162.983 363.726 158.687C363.726 156.787 363.295 151.534 362.891 146.348C362.891 146.173 362.891 145.998 362.824 145.823C362.353 139.735 361.854 133.902 361.854 133.902C359.357 134.949 356.712 135.599 354.015 135.828H353.543C350.619 136.171 347.678 136.36 344.734 136.394H344.424V132.73L338.902 132.851V136.367C335.628 136.259 332.49 136.017 329.567 135.707H329.069C326.199 135.384 323.559 135.007 321.27 134.616C315.882 133.727 312.42 132.838 311.975 132.717C311.975 132.717 311.181 137.822 310.278 144.099C310.296 144.197 310.296 144.297 310.278 144.395C309.551 149.783 308.716 155.844 308.244 160.384C307.194 170.365 304.54 201.83 304.54 201.83C304.54 201.83 303.516 208.741 302.358 221.294C301.2 233.848 303.988 250.537 303.988 250.537L306.924 251.17L311.396 252.14C311.396 252.14 316.784 221.564 317.862 214.425C318.939 207.286 326.873 173.261 329.069 166.998C331.264 160.734 332.988 154.524 332.988 154.524L340.962 152.625L341.07 153.272L350.337 206.478C350.517 212.198 351.23 217.889 352.466 223.476C354.432 231.639 363.39 251.278 363.39 251.278L365.087 250.712Z" fill="#282741"/>
<path d="M300.687 256.316L288.969 256.478V257.367H311.867V255.238L311.504 255.467L300.687 256.316Z" fill="#282741"/>
<path d="M387.11 256.466L384.686 256.533L382.356 256.654L363.444 256.344L362.178 255.927V257.381H383.797L387.137 257.072L387.11 256.466Z" fill="#282741"/>
<path d="M328.193 35.7344L329.204 53.097C329.096 55.0802 329.859 57.0116 331.293 58.386C332.727 59.7603 334.689 60.4408 336.666 60.2495C343.993 60.1417 344.627 52.9219 344.627 52.9219L346.364 31.5049L328.193 35.7344Z" fill="#FFB878"/>
<path d="M351.281 26.5615C350.696 26.5756 350.129 26.7631 349.651 27.1003C348.627 17.9543 343.482 10.9365 337.286 10.9365C331.09 10.9365 326.092 17.6714 324.947 26.6154C324.664 26.5271 324.368 26.4861 324.072 26.4942C322.461 26.5388 321.192 27.8806 321.236 29.4912C321.281 31.1018 322.623 32.3712 324.234 32.3266C324.411 32.3258 324.587 32.3032 324.759 32.2593C325.365 42.1596 330.739 49.9047 337.286 49.9047C343.832 49.9047 349.328 41.9575 349.813 31.8821C350.298 32.1928 350.867 32.3479 351.443 32.3266C352.482 32.2977 353.427 31.7165 353.922 30.8019C354.417 29.8872 354.386 28.7782 353.841 27.8924C353.296 27.0066 352.32 26.4788 351.281 26.5076V26.5615Z" fill="#FFB878"/>
<path d="M337.675 44.0185C336.329 44.0175 335.001 43.7039 333.796 43.1026L334.052 42.6042C335.819 43.4564 337.848 43.5868 339.709 42.9679C341.566 42.0232 342.789 40.1708 342.928 38.0918H343.494C343.374 40.4037 342.007 42.4676 339.925 43.4797C339.215 43.7974 338.452 43.9801 337.675 44.0185Z" fill="#EB5D46"/>
<path d="M335.116 24.501C335.116 24.501 335.56 30.3065 335.52 31.7209C335.351 33.0391 334.998 34.327 334.469 35.5463H333.459C333.459 35.5463 333.809 38.2403 335.964 38.2403C337.637 38.3397 339.126 37.1896 339.453 35.5463H337.877C337.371 34.0737 337.081 32.5357 337.015 30.98C337.243 28.7098 337.635 26.459 338.187 24.2451L335.116 24.501Z" fill="url(#paint0_linear)"/>
<path d="M338.808 24.4738L344.196 24.3257C343.186 23.5703 341.989 23.1046 340.734 22.9787C338.579 22.8036 338.808 24.4738 338.808 24.4738Z" fill="#822B16"/>
<path d="M328.422 24.4611L333.81 24.313C332.8 23.5576 331.603 23.0919 330.348 22.966C328.207 22.7909 328.422 24.4611 328.422 24.4611Z" fill="#822B16"/>
<path d="M349.583 7.59638C344.195 2.89541 335.534 6.73431 332.073 6.31674C329.95 5.97725 328.126 4.62533 327.183 2.69336C325.341 5.7578 323.944 9.0686 323.034 12.5263C321.822 17.6583 324.961 26.5888 324.961 26.5888C325.982 25.3476 326.702 23.8858 327.062 22.3189C327.427 21.0051 327.546 19.635 327.412 18.2779C327.665 18.3951 327.926 18.4941 328.193 18.5743C331.924 19.7058 340.882 18.0894 345.165 17.2273C344.906 18.8822 345.059 20.5754 345.61 22.1573C346.379 24.1963 347.727 25.966 349.489 27.2489C349.489 27.2489 350.674 27.8415 350.93 26.3464C351.86 20.9584 353.099 10.6136 349.583 7.59638Z" fill="#822B16"/>
<path d="M327.061 5.64258C327.061 5.64258 327.492 7.90551 330.805 8.33654C334.119 8.76758 342.551 6.07361 345.622 7.50141C348.693 8.92922 350.525 12.9836 349.205 14.2363C347.885 15.489 332.732 17.9944 328.893 16.9303C325.054 15.8662 323.249 9.07738 327.061 5.64258Z" fill="#933827"/>
<path d="M328.543 44.4502C328.543 44.4502 332.018 50.1883 337.285 49.9189C340.59 49.6581 343.611 47.9528 345.542 45.2584C344.508 49.1585 341.108 51.9688 337.083 52.2492C330.025 52.815 328.543 44.4502 328.543 44.4502Z" fill="#E09B63"/>
<path d="M339.185 29.3903C339.185 29.3903 339.185 30.6295 341.394 30.7372C342.462 30.9073 343.516 30.361 343.993 29.3903C343.546 28.4643 342.611 27.8738 341.582 27.8682C340.581 27.9488 339.684 28.5183 339.185 29.3903Z" fill="white"/>
<path d="M342.027 28.2854C342.77 28.4386 343.453 28.8035 343.993 29.3361C343.788 28.2041 342.72 27.4405 341.582 27.6119C340.466 27.545 339.46 28.2798 339.185 29.363C339.72 28.8795 340.361 28.5288 341.057 28.3393C340.632 28.5759 340.422 29.07 340.546 29.5399C340.67 30.0098 341.096 30.3361 341.582 30.3328C341.868 30.3328 342.142 30.2193 342.344 30.0172C342.546 29.8151 342.66 29.541 342.66 29.2552C342.659 28.8354 342.411 28.4555 342.027 28.2854Z" fill="#822B16"/>
<path d="M328.69 29.3903C328.69 29.3903 328.69 30.6295 330.899 30.7372C331.969 30.9165 333.029 30.3675 333.499 29.3903C333.054 28.4686 332.125 27.8789 331.102 27.8682C330.097 27.9491 329.196 28.5179 328.69 29.3903Z" fill="white"/>
<path d="M331.546 28.2854C332.284 28.441 332.962 28.8057 333.499 29.3361C333.294 28.2041 332.226 27.4405 331.088 27.6119C329.974 27.5504 328.971 28.283 328.69 29.363C329.226 28.8795 329.867 28.5288 330.563 28.3393C330.136 28.577 329.926 29.0749 330.053 29.5466C330.181 30.0182 330.613 30.3425 331.102 30.3328C331.599 30.3214 332.024 29.9706 332.13 29.4841C332.236 28.9977 331.994 28.5021 331.546 28.2854Z" fill="#822B16"/>
<path fill-rule="evenodd" clip-rule="evenodd" d="M346.997 80.0238L357.045 79.687L357.449 111.866H315.908L316.757 81.0205L328.799 80.603C329.014 78.5555 330.429 73.4505 337.46 72.7366C344.491 72.0227 346.471 77.5857 346.997 80.0238ZM344.72 80.132C343.898 77.9634 341.797 74.0841 337.285 74.2996V74.2727C332.92 74.4882 331.492 78.3001 331.021 80.6035L344.72 80.132Z" fill="#282741"/>
<path d="M325.58 78.124C320.286 78.124 319.316 81.0066 319.316 81.0066H321.216C321.216 81.0066 321.956 89.0885 329.877 88.1995C333.985 87.5529 331.83 78.124 325.58 78.124Z" fill="#FFB878"/>
<path d="M350.715 76.9521C344.451 76.9521 342.296 86.4888 346.418 86.9602C354.338 87.8896 355.065 79.7808 355.065 79.7808L356.978 79.8482C356.978 79.8482 355.995 76.9656 350.715 76.9521Z" fill="#FFB878"/>
<path d="M315.882 93.3999L358.083 92.3896V93.3999L315.882 94.7873V93.3999Z" fill="#35354F"/>
<path d="M334.47 91.8909V99.205H340.006V91.6484L334.47 91.8909Z" fill="white"/>
<path d="M358.054 232.866C354.889 224.515 354.323 203.65 354.323 203.65L347.265 151.118C348.531 150.867 349.609 150.678 350.498 150.552C350.619 150.552 350.7 150.458 350.673 150.377C350.612 150.292 350.507 150.25 350.404 150.269C343.401 151.545 336.469 153.177 329.633 155.159L328.758 155.388C328.636 155.388 328.569 155.496 328.609 155.563C328.663 155.635 328.749 155.675 328.838 155.671L329.741 155.428C336.476 153.623 341.742 152.303 345.622 151.468L341.002 153.341L350.269 206.546C350.449 212.266 351.161 217.957 352.397 223.545C354.364 231.708 363.321 251.347 363.321 251.347L365.018 250.768C363.442 246.646 360.358 238.78 358.054 232.866Z" fill="#35354F"/>
<path d="M337.46 145.339H340.005C340.092 145.347 340.175 145.305 340.221 145.231L344.733 136.449H344.195L339.83 145.043H337.823C338.946 142.274 339.729 139.379 340.154 136.422H339.682C339.252 139.429 338.433 142.368 337.244 145.164C337.244 145.164 337.244 145.245 337.244 145.298C337.308 145.339 337.385 145.353 337.46 145.339Z" fill="#35354F"/>
<path d="M329.082 135.641C327.007 137.702 322.589 141.824 319.828 142.726C319.397 142.861 318.885 142.982 318.319 143.103C319.572 139.359 320.636 136.368 321.269 134.55C318.966 134.173 317.026 133.782 315.504 133.459C315.895 131.856 316.151 130.401 316.272 129.633L315.908 129.539C315.787 130.307 315.531 131.762 315.14 133.364C313.376 132.987 312.271 132.704 312.042 132.651C312.042 132.651 311.248 137.756 310.345 144.033C310.351 144.077 310.351 144.123 310.345 144.167C310.358 144.22 310.358 144.276 310.345 144.329C309.618 149.717 308.783 155.778 308.311 160.318C307.26 170.299 304.607 201.764 304.607 201.764C304.607 201.764 303.583 208.674 302.425 221.228C301.266 233.782 303.987 250.539 303.987 250.539L306.924 251.172C305.361 244.908 305.967 231.964 305.698 224.69C305.542 218.241 305.803 211.789 306.479 205.374C306.479 205.374 307.651 196.417 308.971 180.239C309.793 170.083 314.655 154 318.158 143.44C318.777 143.326 319.389 143.173 319.989 142.982C322.939 142.026 327.479 137.756 329.526 135.708L329.082 135.641Z" fill="#35354F"/>
<path d="M362.878 146.349V145.824C359.57 142.835 356.61 139.482 354.055 135.829H353.584C356.251 139.694 359.372 143.226 362.878 146.349Z" fill="#35354F"/>
<path d="M333.419 132.098L332.961 132.004C332.84 132.785 332.584 134.253 332.193 135.883L332.624 135.978C333.029 134.348 333.284 132.866 333.419 132.098Z" fill="#35354F"/>
<path d="M350.714 136.045C350.31 134.428 350.054 132.946 349.933 132.179L349.488 132.273C349.61 133.041 349.879 134.522 350.27 136.152L350.714 136.045Z" fill="#35354F"/>
<path d="M360.52 134.483C360.116 132.853 359.86 131.385 359.739 130.617C359.593 130.631 359.449 130.658 359.308 130.698C359.429 131.466 359.685 132.961 360.089 134.577L360.52 134.483Z" fill="#35354F"/>
<path fill-rule="evenodd" clip-rule="evenodd" d="M287.353 255.714C287.353 257.681 269.985 259.275 248.56 259.275C227.135 259.275 209.767 257.681 209.767 255.714C209.767 253.749 227.135 252.155 248.56 252.155C269.985 252.155 287.353 253.749 287.353 255.714Z" fill="#ECEAF5"/>
<path d="M238.7 246.567C238.363 246.998 239.535 247.59 239.481 248.048C239.475 248.432 239.321 248.8 239.05 249.072C238.834 249.193 239.05 250.203 239.05 250.203L244.357 250.823C244.543 250.619 244.71 250.398 244.855 250.163C244.923 249.961 244.465 249.543 244.33 249.22C244.195 248.897 244.923 248.627 245.084 248.129C245.246 247.631 244.613 246.782 244.613 246.782L244.02 182.329C244.02 182.329 247.94 167.862 251.307 154.824C251.213 167.256 251.307 179.514 251.886 184.794C252.816 193.455 269.505 245.987 269.222 246.445C268.939 246.903 270.179 247.361 270.179 247.792C270.217 248.174 270.106 248.555 269.869 248.856C269.667 249.018 270.017 249.988 270.017 249.988H275.405C275.568 249.767 275.704 249.527 275.809 249.274C275.809 249.072 275.351 248.708 275.189 248.398C275.028 248.089 275.715 247.738 275.809 247.227C275.903 246.715 275.189 245.96 275.189 245.96L266.878 182.06C266.878 182.06 278.031 140.815 278.031 135.548C278.031 130.282 274.677 120.125 274.677 120.125H251.913C251.913 120.125 251.913 120.422 251.913 120.907L236.342 119.102C236.342 119.102 228.961 170.678 228.867 183.339C228.799 192.054 239.036 246.149 238.7 246.567Z" fill="#282741"/>
<path d="M220.287 256.775L246.19 256.021V254.66L220.489 255.482L220.287 256.775Z" fill="#282741"/>
<path d="M251.025 256.02L276.914 255.266V253.919L251.214 254.727L251.025 256.02Z" fill="#282741"/>
<path d="M273.964 248.385C273.943 248.2 273.883 248.021 273.789 247.86C273.708 247.685 273.654 247.577 273.789 247.011C273.923 246.446 274.018 246.27 273.694 246.055C273.489 245.929 273.314 245.759 273.183 245.557C272.711 244.546 269.425 216.704 267.444 200.069C266.407 190.95 265.801 186.182 265.801 185.885C265.637 184.971 264.969 184.23 264.077 183.972C263.821 183.972 263.659 183.824 263.646 183.73C263.633 183.636 263.646 183.38 264.508 182.733C264.764 182.531 265.033 182.289 264.993 182.019C264.953 181.75 264.629 181.642 264.239 181.507C263.964 181.414 263.698 181.296 263.444 181.157C263.426 179.932 263.589 178.711 263.929 177.534C264.346 175.446 264.966 172.671 265.68 169.452C267.651 161.36 269.211 153.173 270.354 144.923C271.593 132.801 270.354 129.783 270.354 129.662L270.004 129.81C270.004 129.81 271.216 132.908 270.004 144.883C268.863 153.119 267.307 161.292 265.343 169.371C264.602 172.698 263.996 175.567 263.538 177.696C262.905 180.969 263.026 181.332 263.242 181.467C263.528 181.629 263.83 181.76 264.144 181.858C264.322 181.907 264.49 181.984 264.643 182.087C264.643 182.087 264.643 182.208 264.293 182.423C263.538 183.003 263.215 183.447 263.296 183.77C263.377 184.094 263.592 184.215 264.023 184.309C264.773 184.54 265.327 185.178 265.451 185.953C265.451 186.222 266.246 192.31 267.148 200.015C268.199 208.905 269.519 219.977 270.637 229.11C272.63 245.274 272.846 245.53 272.954 245.678C273.114 245.918 273.32 246.124 273.56 246.284H273.627C273.595 246.449 273.55 246.611 273.492 246.769C273.29 247.429 273.358 247.644 273.492 247.9C273.566 248.024 273.612 248.162 273.627 248.304C273.638 248.822 273.556 249.338 273.385 249.826L273.748 249.948C273.911 249.443 273.984 248.915 273.964 248.385Z" fill="#383851"/>
<path d="M245.018 168.252C243.469 171.458 242.324 174.112 241.448 176.119C240.034 179.581 240.034 180.456 240.101 180.82C240.381 181.619 240.842 182.343 241.448 182.935C241.704 183.19 241.906 183.393 241.893 183.554C241.879 183.716 241.812 183.77 241.637 183.918C240.976 184.405 240.55 185.148 240.465 185.965C240.471 186.413 240.679 186.834 241.03 187.11C241.717 187.689 241.637 191.609 241.583 193.495C241.583 193.926 241.583 194.317 241.583 194.599V195.825C241.583 199.866 241.583 211.895 241.583 223.25C241.691 245.03 242.041 245.69 242.148 245.906C242.364 246.277 242.598 246.636 242.849 246.984C243.226 247.495 243.347 247.671 243.145 248.182C242.768 249.071 242.539 249.704 242.835 250.284L243.091 250.782L243.428 250.607L243.186 250.109C242.97 249.704 243.105 249.26 243.495 248.331C243.792 247.617 243.495 247.293 243.159 246.755C242.912 246.424 242.687 246.077 242.485 245.717C242.054 244.869 241.866 226.685 241.973 195.879V194.653C241.973 194.37 241.973 193.993 241.973 193.549C241.973 190.518 241.973 187.514 241.273 186.814C241.007 186.613 240.852 186.298 240.855 185.965C240.937 185.261 241.308 184.622 241.879 184.201C242.099 184.058 242.247 183.827 242.283 183.568C242.283 183.244 242.041 182.988 241.717 182.665C241.117 182.128 240.655 181.453 240.37 180.699C240.209 180.2 240.613 178.005 245.22 168.428C247.914 163.04 250.608 157.746 250.608 157.652L250.271 157.477C250.271 157.477 247.658 162.811 245.018 168.252Z" fill="#383851"/>
<path d="M251.132 142.646C250.324 142.538 247.32 141.999 246.983 140.235C246.593 138.106 248.492 130.671 248.519 130.59L248.142 130.496C248.061 130.806 246.202 138.093 246.62 140.302C247.037 142.511 251.105 142.996 251.28 142.996H251.482L252.452 130.482H252.061L251.132 142.646Z" fill="#383851"/>
<path d="M238.673 130.887C238.673 130.887 238.673 136.571 237.434 138.591C236.392 139.909 234.918 140.816 233.271 141.151V141.528C235.02 141.189 236.588 140.233 237.69 138.834C239.037 136.719 239.037 131.156 239.037 130.914L238.673 130.887Z" fill="#383851"/>
<path d="M229.217 61.476L221.351 93.2109L194.411 127.02L202.372 131.815C202.372 131.815 225.055 112.836 232.8 98.6257C240.545 84.4151 250.136 57.9199 250.136 57.9199L229.217 61.476Z" fill="#ED9700"/>
<path d="M233.891 131.048C233.891 131.048 224.111 65.3831 229.621 60.9246C235.13 56.466 264.44 54.4186 272.724 57.6783C281.008 60.938 278.974 129.473 278.974 129.473L233.891 131.048Z" fill="#FFAA00"/>
<path d="M256.023 40.4097C256.919 38.687 257.65 36.8829 258.205 35.0218C261.41 24.4075 258.434 14.1301 251.578 12.1231C244.721 10.1161 236.545 16.9722 233.353 27.5864C230.16 38.2007 233.11 48.4647 239.98 50.4851C241.173 50.8343 242.425 50.9306 243.657 50.768L245.179 56.816C245.5 59.4888 247.589 61.6057 250.257 61.9614C254.703 62.6215 258.878 58.5536 258.595 56.1829L258.501 55.9L256.023 40.4097Z" fill="#FFBE83"/>
<path d="M234.511 27.9629L238.377 29.3099C237.679 29.9931 236.774 30.4244 235.804 30.5356C234.43 30.5626 234.511 27.9629 234.511 27.9629Z" fill="white"/>
<path d="M243.846 30.7383L247.711 32.0853C247.014 32.7685 246.109 33.1998 245.139 33.311C243.765 33.338 243.846 30.7383 243.846 30.7383Z" fill="white"/>
<path d="M248.978 6.64049C246.396 5.48295 244.706 2.94932 244.627 0.121094C241.751 0.229443 239.033 1.46291 237.057 3.5559C233.622 7.09846 235.926 21.5516 235.926 21.5516C236.591 20.3746 237.343 19.249 238.175 18.1841C238.83 19.5531 239.939 20.6527 241.314 21.2957C244.645 22.7835 248.253 23.55 251.901 23.5451C251.901 23.5451 249.207 33.6206 251.335 34.9541C251.315 34.7841 251.315 34.6122 251.335 34.4422C251.32 33.1673 252.132 32.0295 253.343 31.6305C254.554 31.2315 255.884 31.6634 256.629 32.6978C257.375 33.7323 257.364 35.1305 256.602 36.1529L257.72 36.3684C260.778 34.5634 263.768 31.2364 265.182 25.0942C268.684 10.0888 253.558 9.05159 248.978 6.64049Z" fill="#59381D"/>
<path d="M246.607 26.0362C245.26 25.457 244.506 27.4505 244.506 27.4505L249.638 29.1612C248.855 27.9209 247.823 26.8567 246.607 26.0362Z" fill="#59381D"/>
<path d="M236.436 22.5626C235.089 21.9834 234.349 23.9769 234.349 23.9769L239.535 25.6876C238.73 24.4424 237.675 23.3782 236.436 22.5626Z" fill="#59381D"/>
<path d="M235.224 28.2871C234.914 28.2871 234.672 28.6777 234.672 29.1492C234.672 29.6206 234.914 30.0247 235.224 30.0247C235.534 30.0247 235.777 29.6341 235.777 29.1492C235.777 28.6643 235.534 28.2871 235.224 28.2871Z" fill="#59381D"/>
<path d="M245.111 31.8709C245.111 31.3859 244.855 31.0088 244.559 31.0088C244.263 31.0088 243.993 31.3859 243.993 31.8709C243.993 32.3558 244.249 32.7464 244.559 32.7464C244.869 32.7464 245.111 32.3288 245.111 31.8709Z" fill="#59381D"/>
<path d="M241.555 43.9508C240.328 44.232 239.06 44.2958 237.811 44.1394V44.5031V44.8533C238.256 44.9214 238.707 44.953 239.158 44.9476C240.033 44.9476 240.905 44.8482 241.757 44.6512C244.444 44.1053 246.625 42.1463 247.455 39.5327L246.768 39.3037C246.032 41.703 244.023 43.494 241.555 43.9508Z" fill="#59381D"/>
<path d="M228.085 251.158C225.174 251.788 222.625 253.534 220.986 256.021L245.448 255.442L245.017 250.054C245.017 250.054 233.001 250.135 228.085 251.158Z" fill="#EC5700"/>
<path d="M275.782 249.488C275.782 249.488 263.659 249.596 258.85 250.62C255.936 251.251 253.384 252.996 251.738 255.482L276.199 254.917L275.782 249.488Z" fill="#EC5700"/>
<path d="M241.34 26.5498C241.34 26.5498 239.266 33.1231 237.703 34.2276C236.141 35.3321 232.666 34.295 232.747 37.2179C232.827 40.1409 238.027 38.2686 240.209 35.6823C242.755 32.6651 242.903 27.1694 242.903 27.1694L241.34 26.5498Z" fill="url(#paint1_linear)"/>
<path d="M243.293 1.26465C243.293 1.26465 236.558 4.457 237.083 10.6935C237.608 16.9301 248.438 22.5604 254.594 22.3045C260.749 22.0486 265.289 18.7485 262.676 15.5696C260.062 12.3907 247.172 10.7339 245.165 7.16443C243.964 5.42973 243.312 3.37437 243.293 1.26465Z" fill="#7F5536"/>
<path d="M244.774 0.228987L244.478 0C243.442 1.35562 242.54 2.80813 241.784 4.33728C240.706 6.73491 239.507 10.0754 240.208 13.1331C241.048 16.7138 242.744 20.0372 245.151 22.8179L245.421 22.562C243.071 19.8245 241.413 16.5633 240.585 13.0523C239.305 7.39494 244.72 0.309806 244.774 0.228987Z" fill="#996B4D"/>
<path d="M241.866 12.0151C242.14 8.73933 243.377 5.61788 245.422 3.04421L245.126 2.80176C243.055 5.45453 241.813 8.65958 241.556 12.0151C241.489 16.8643 246.54 22.791 246.756 23.02L246.944 22.764C246.944 22.764 241.799 16.7296 241.866 12.0151Z" fill="#996B4D"/>
<path d="M242.242 0.64635L241.972 0.376953C241.187 1.20902 240.517 2.1422 239.979 3.15174C238.671 5.47871 237.993 8.10655 238.012 10.7757C238.012 17.1199 239.709 20.3796 239.79 20.5143L240.127 20.3392C238.863 17.3146 238.27 14.0517 238.389 10.7757C238.368 7.03745 239.742 3.42568 242.242 0.64635Z" fill="#996B4D"/>
<path d="M270.166 141.326C267.902 141.16 265.738 140.331 263.943 138.941C261.465 136.773 261.249 130.375 261.249 130.092H261.626C261.626 130.159 261.855 136.598 264.212 138.659C265.948 139.985 268.029 140.785 270.206 140.962L270.166 141.326Z" fill="#575777"/>
<path d="M187.676 137.069C187.339 142.834 194.316 144.437 197.913 139.938C200.099 137.126 201.66 133.879 202.493 130.415L196.391 125.809C196.391 125.809 188.013 131.304 187.676 137.069Z" fill="#FFBE83"/>
<path d="M255.874 144.772C255.874 144.772 246.526 148.355 244.977 153.918C243.428 159.482 249.907 162.526 254.406 158.889C257.144 156.612 259.367 153.779 260.926 150.578L255.874 144.772Z" fill="#FFBE83"/>
<path d="M257.84 64.6549L271.566 109.846L252.412 145.824L261.1 151.912C261.1 151.912 287.461 125.081 286.881 105.765C286.302 86.4491 274.341 59.6172 274.341 59.6172L257.84 64.6549Z" fill="#FFAE1F"/>
<path fill-rule="evenodd" clip-rule="evenodd" d="M211.921 257.87C211.921 259.836 184.904 261.43 151.577 261.43C118.25 261.43 91.2312 259.836 91.2312 257.87C91.2312 255.904 118.25 254.311 151.577 254.311C184.904 254.311 211.921 255.904 211.921 257.87Z" fill="#ECEAF5"/>
<path d="M147.67 38.5911L148.613 55.9537C148.51 57.9382 149.276 59.8692 150.712 61.243C152.148 62.6168 154.111 63.297 156.089 63.1061C163.416 62.9984 164.049 55.7786 164.049 55.7786L165.787 34.375L147.67 38.5911Z" fill="#FFB878"/>
<path d="M170.502 26.4947C169.981 25.9073 169.171 25.6671 168.414 25.8751C168.134 20.8289 167.517 15.8069 166.568 10.8428C166.568 10.8428 150.405 5.69732 147.118 13.6311C145.598 17.8188 144.739 22.2178 144.572 26.6698C143.317 26.196 141.904 26.7187 141.259 27.8956C140.073 29.7814 142.606 31.5325 144.613 32.5562C145.232 41.3654 148.573 49.6628 157.732 49.9322C165.949 50.1882 168.252 40.9748 168.508 31.4247C169.909 30.0238 171.714 27.7878 170.502 26.4947Z" fill="#FFBE83"/>
<path d="M183.122 61.9605C182.949 60.9455 182.395 60.035 181.573 59.4147C175.161 56.1415 138.739 55.7913 132.516 60.0612C131.919 60.556 131.483 61.2171 131.263 61.9605C128.569 67.4966 111.058 105.522 122.157 113.388C124.649 115.153 127.545 113.833 130.334 111.368C130.724 117.685 131.088 121.982 131.088 121.982H131.25C131.25 122.494 131.061 128.609 131.357 134.98C131.048 136.987 130.509 140.584 129.93 144.706C129.937 144.804 129.937 144.903 129.93 145.002C129.189 150.39 128.367 156.451 127.896 160.991C126.831 170.985 124.178 202.451 124.178 202.451C124.178 202.451 123.154 209.361 121.996 221.915C120.837 234.469 123.72 251.265 123.72 251.265L126.656 251.912L131.128 252.882C131.128 252.882 136.516 222.292 137.594 215.166C138.671 208.041 146.605 174.003 148.814 167.739C151.023 161.476 152.72 155.253 152.72 155.253L160.695 153.353L160.816 154L170.07 207.219C170.25 212.935 170.967 218.622 172.211 224.205C174.178 232.381 183.122 252.02 183.122 252.02L184.819 251.441L188.442 250.201C188.442 250.201 186.934 217.645 186.476 210.196C186.018 202.747 183.593 163.658 183.472 159.415C183.472 157.502 183.028 152.249 182.623 147.076C182.623 146.901 182.623 146.726 182.623 146.551C182.26 142.079 181.896 137.742 181.734 135.775C182.017 129.04 181.734 121.699 181.734 121.699C181.869 120.433 182.341 115.746 182.879 109.469C185.829 112.324 189.022 114.008 191.716 112.163C202.047 104.7 187.149 70.6485 183.122 61.9605Z" fill="#282741"/>
<path d="M145.313 57.1793L157.436 86.5031L167.013 56.4116C167.013 56.4116 162.595 56.2634 155.968 56.4116C152.405 56.463 148.847 56.7194 145.313 57.1793Z" fill="#EDEDED"/>
<path d="M155.226 55.7388L157.395 55.5098L159.227 62.2312L158.122 66.0028L160.022 78.2199L157.395 86.5038L154.041 78.3681L155.321 66.326L153.516 62.2312L155.226 55.7388Z" fill="#EE534F"/>
<path d="M145.313 57.1795L153.517 62.2307L156.143 55.6978L148.479 52.4785L145.313 57.1795Z" fill="white"/>
<path d="M164.372 52.4785L156.142 55.6978L159.226 62.2307L166.971 56.4117L164.372 52.4785Z" fill="white"/>
<path d="M170.905 13.4698C170.722 12.6119 170.246 11.8447 169.558 11.3011C172.481 7.341 168.251 0.969777 161.139 0.094238C157.165 -0.390676 155.105 1.09101 154.027 2.7882C153.361 2.57299 152.645 2.57299 151.98 2.7882C150.619 3.43498 149.731 4.78489 149.676 6.29036C148.057 6.38005 146.516 7.01096 145.299 8.08185C144.31 9.1497 143.732 10.534 143.669 11.9881C142.863 12.1913 142.255 12.8524 142.12 13.6718C141.311 16.4466 144.733 25.7139 144.733 25.7139L147.669 16.8372C147.669 16.8372 149.595 16.6891 151.939 16.5409C154.283 16.3927 155.98 13.1734 155.98 13.1734C155.98 13.1734 159.078 15.5576 164.399 14.1433C165.069 14.69 165.608 15.3806 165.975 16.1637C166.917 18.9854 167.713 21.8538 168.359 24.7575C169.05 21.81 169.128 18.752 168.588 15.7731C169.531 15.3825 170.959 14.5339 170.905 13.4698Z" fill="#131323"/>
<path d="M149.152 15.855C149.152 15.855 145.771 15.7338 145.475 13.7807C145.179 11.8276 145.286 8.39275 147.617 8.13682C148.599 7.94331 149.611 7.94331 150.593 8.13682C150.593 8.13682 149.96 4.44609 152.062 4.23057C153.145 3.99306 154.273 4.35866 155.011 5.18693C156.053 2.26925 159.244 0.727857 162.177 1.72519C167.794 3.07217 168.71 7.70579 168.535 9.01236C168.43 9.78435 168.398 10.5647 168.441 11.3426C168.441 11.3426 169.64 12.2586 169.37 13.3901C169.101 14.5215 168.374 15.6799 167.309 15.1681C166.185 14.4171 165.146 13.5454 164.211 12.5684C162.812 13.2266 161.27 13.523 159.726 13.4305C157.758 13.1282 155.901 12.3207 154.338 11.0867C154.338 11.0867 153.665 15.9897 149.152 15.855Z" fill="#2C2C42"/>
<path d="M159.752 28.8918C159.752 28.8918 160.17 30.131 162.271 30.4678C163.441 30.7169 164.608 30.0339 164.965 28.8918C164.291 28.1943 163.347 27.8253 162.379 27.8816C160.91 28.0971 160.116 28.3665 159.752 28.8918Z" fill="white"/>
<path d="M163.429 29.4996C163.433 29.7663 163.329 30.0233 163.142 30.2132C162.955 30.403 162.699 30.5099 162.432 30.5099C162.046 30.5547 161.668 30.3738 161.461 30.0448C161.254 29.7157 161.254 29.297 161.461 28.9679C161.668 28.6389 162.046 28.458 162.432 28.5028C162.697 28.5028 162.95 28.6079 163.137 28.7948C163.324 28.9817 163.429 29.2353 163.429 29.4996Z" fill="#131323"/>
<path d="M182.367 62.2305C180.877 65.2892 180.612 68.8022 181.627 72.05C183.351 77.4379 186.247 97.8716 190.57 95.8377C194.894 93.8037 182.367 62.2305 182.367 62.2305Z" fill="#35354F"/>
<path d="M138.779 57.6781L146.767 85.1161L156.775 85.6684L145.312 57.1797L138.779 57.6781Z" fill="#35354F"/>
<path d="M157.907 84.8614L163.039 85.1173L174.758 57.1809L166.972 56.4131L157.907 84.8614Z" fill="#35354F"/>
<path d="M123.195 97.1978C127.519 99.2183 130.415 78.7982 132.139 73.4102C133.154 70.1578 132.889 66.6408 131.398 63.5771C131.398 63.5771 118.858 95.1639 123.195 97.1978Z" fill="#35354F"/>
<path d="M129.755 71.3909C129.675 72.0105 139.063 116.421 139.063 116.421L157.921 124.731L177.142 116.219L186.49 68.0908L157.395 74.4082L129.755 71.3909Z" fill="white"/>
<path d="M130.981 73.707L155.766 76.6569L157.409 122.037L139.319 114.036L130.981 73.707Z" fill="#EDEDED"/>
<path d="M185.049 91.2172C185.049 91.2172 184.308 84.0243 180.711 83.5124C177.115 83.0006 174.636 93.3724 176.428 96.0394C177.304 97.5236 178.776 98.5591 180.469 98.8815L185.049 91.2172Z" fill="#FFB878"/>
<path d="M128.718 92.5777C128.718 92.5777 129.445 85.3848 133.042 84.819C136.638 84.2533 139.116 94.679 137.325 97.346C136.459 98.8389 134.982 99.8775 133.284 100.188L128.718 92.5777Z" fill="#FFB878"/>
<path d="M148.384 28.9068C148.384 28.9068 148.815 30.1595 150.916 30.4828C152.09 30.7526 153.27 30.0619 153.61 28.9068C152.935 28.2126 151.99 27.8485 151.024 27.91C149.542 28.1255 148.747 28.3815 148.384 28.9068Z" fill="white"/>
<path d="M152.102 29.527C152.102 30.0798 151.658 30.5299 151.105 30.5373C150.55 30.53 150.102 30.0819 150.095 29.527C150.102 28.9744 150.552 28.5302 151.105 28.5303C151.369 28.5303 151.623 28.6353 151.81 28.8222C151.997 29.0091 152.102 29.2627 152.102 29.527Z" fill="#131323"/>
<path d="M168.52 25.8487L168.359 24.8115C168.359 24.8115 166.581 33.8632 165.139 35.8298C163.698 37.7964 150.094 37.096 148.248 35.8298C146.403 34.5637 144.733 25.714 144.733 25.714L144.288 26.5761C144.288 26.5761 145.473 41.0292 145.635 41.8104C145.797 42.5917 152.289 51.7377 153.623 52.1283C156.253 52.4223 158.914 52.2904 161.503 51.7377C162.095 51.3336 168.372 42.888 168.493 41.5949C168.615 40.3018 168.52 25.8487 168.52 25.8487Z" fill="url(#paint2_linear)"/>
<path d="M165.127 29.135L165.289 26.8047L159.753 26.9394L159.47 29.2697C160.402 29.5319 161.372 29.6366 162.339 29.5795C163.286 29.5868 164.229 29.4366 165.127 29.135Z" fill="url(#paint3_linear)"/>
<path d="M153.758 29.1623L153.92 26.832L148.383 26.9398L148.101 29.2701C149.033 29.5337 150.002 29.6429 150.97 29.5933C151.917 29.607 152.859 29.4613 153.758 29.1623Z" fill="url(#paint4_linear)"/>
<path d="M106.358 224.34L106.829 220.299H104.768V224.771C103.303 225.328 101.938 226.119 100.727 227.115C96.3767 230.509 94.7334 257.516 94.7334 257.516H106.048L107.543 224.34C107.151 224.269 106.75 224.269 106.358 224.34Z" fill="#282741"/>
<path d="M96.4434 255.927C96.4434 255.927 98.5312 233.19 101.023 230.334C102.295 228.728 103.981 227.499 105.899 226.778L105.36 255.348L96.4434 255.927Z" fill="#35354F"/>
<path d="M97.0637 239.386H95.6898L94.7334 245.797L96.1343 245.972L97.0637 239.386Z" fill="white"/>
<path d="M177.735 233.607C174.57 225.269 174.004 204.404 174.004 204.404L166.959 151.872C168.226 151.616 169.303 151.427 170.179 151.306C170.3 151.306 170.381 151.212 170.354 151.131C170.301 151.036 170.188 150.991 170.084 151.023C163.081 152.285 156.148 153.913 149.314 155.899L148.452 156.128C148.331 156.128 148.263 156.236 148.304 156.317C148.356 156.382 148.436 156.417 148.519 156.411H148.614L149.516 156.169C153.853 154.997 157.598 154.027 160.79 153.259L170.044 207.287C170.225 213.003 170.942 218.69 172.186 224.272C174.152 232.448 183.096 252.087 183.096 252.087L184.793 251.508C183.123 247.386 179.985 239.52 177.735 233.607Z" fill="#35354F"/>
<path d="M157.178 146.08H159.724C159.811 146.088 159.897 146.052 159.953 145.986L164.412 137.19H163.927L159.563 145.784H157.502C158.645 143.014 159.441 140.114 159.872 137.149H159.387C158.968 140.159 158.148 143.099 156.949 145.891C156.918 145.931 156.918 145.987 156.949 146.026C157.011 146.082 157.098 146.103 157.178 146.08Z" fill="#35354F"/>
<path d="M149.26 136.449H148.761C146.687 138.51 142.269 142.632 139.508 143.534C139.077 143.669 138.565 143.79 138.012 143.911C139.252 140.153 140.316 137.176 140.949 135.358C135.561 134.456 132.099 133.567 131.655 133.445C131.655 133.445 130.86 138.55 129.971 144.814C129.971 144.814 129.971 144.908 129.971 144.962C129.971 145.016 129.971 145.056 129.971 145.11C129.23 150.498 128.408 156.56 127.937 161.099C126.873 171.093 124.219 202.559 124.219 202.559C124.219 202.559 123.196 209.469 122.037 222.023C120.879 234.577 123.761 251.374 123.761 251.374L126.698 252.02C125.135 245.757 125.741 232.799 125.472 225.525C125.298 219.037 125.546 212.544 126.213 206.088C126.213 206.088 127.398 197.144 128.718 180.967C129.526 170.811 134.389 154.728 137.891 144.154C138.509 144.039 139.121 143.89 139.723 143.709C142.673 142.78 147.266 138.496 149.26 136.449Z" fill="#35354F"/>
<path d="M182.557 147.09C182.557 146.915 182.557 146.74 182.557 146.565C179.252 143.573 176.293 140.221 173.734 136.57H173.263C175.934 140.432 179.054 143.963 182.557 147.09Z" fill="#35354F"/>
<path d="M131.183 256.21C130.203 256.548 129.193 256.792 128.166 256.938C126.819 257.167 125.095 257.409 122.778 257.598C118.07 257.974 113.335 257.866 108.648 257.275C113.511 254.957 118.53 252.981 123.667 251.361L126.227 251.914L131.062 252.964L131.183 256.21Z" fill="#EE534F"/>
<path d="M131.182 256.21C130.202 256.547 129.192 256.791 128.165 256.937L126.226 251.886L131.061 252.936L131.182 256.21Z" fill="#D14646"/>
<path d="M206.412 257.596C199.928 258.27 193.392 258.27 186.908 257.596C184.119 257.326 182.503 257.016 182.503 257.016L183.069 251.979L185.318 251.211L188.389 250.16C188.821 251.016 189.57 251.669 190.477 251.979C191.986 252.558 206.412 257.596 206.412 257.596Z" fill="#EE534F"/>
<path d="M186.908 257.665C184.119 257.396 182.503 257.086 182.503 257.086L183.069 252.048L185.318 251.28C185.622 253.459 186.155 255.599 186.908 257.665Z" fill="#D14646"/>
<path d="M108.648 257.233V258.122H131.561V255.98L131.197 256.209L120.367 257.072L108.648 257.233Z" fill="#282741"/>
<path d="M181.856 256.681V258.135H203.476L206.83 257.812L206.789 257.219L204.378 257.273L202.034 257.408L183.123 257.085L181.856 256.681Z" fill="#282741"/>
<path d="M155.011 21.4303C153.63 20.9139 152.109 20.9139 150.728 21.4303C149.356 21.9863 148.245 23.0399 147.616 24.3802C147.631 24.8317 147.854 25.2509 148.221 25.5147C148.587 25.7786 149.056 25.857 149.489 25.7271C151.315 25.4341 153.161 25.2765 155.011 25.2557V21.4303Z" fill="#131323"/>
<path d="M163.43 21.4303C162.049 20.9139 160.528 20.9139 159.146 21.4303V25.2422C160.996 25.2631 162.842 25.4207 164.669 25.7137C165.103 25.8429 165.573 25.7645 165.941 25.5012C166.31 25.2379 166.536 24.8193 166.555 24.3667C165.916 23.0321 164.802 21.9847 163.43 21.4303Z" fill="#131323"/>
<path d="M156.116 43.8169C154.15 43.4484 152.302 42.6122 150.728 41.3789L150.378 41.8099C152.048 43.1188 154.014 43.9977 156.103 44.3692C156.55 44.4218 156.999 44.4487 157.45 44.45C158.753 44.4641 160.048 44.2263 161.262 43.7496L161.019 43.2377C159.461 43.8458 157.773 44.0452 156.116 43.8169Z" fill="#131323"/>
<path d="M154.755 23.8692C155.483 24.9345 155.945 26.1585 156.102 27.4387C156.102 29.0147 155.429 35.3186 155.429 35.3186H154.27L153.678 36.4097C154.442 37.5076 155.6 38.2696 156.91 38.5379C158.877 38.7803 160.211 36.2615 160.211 36.2615L159.578 35.1165L157.934 35.359C157.934 35.359 156.924 29.0821 157.651 27.1424C158.379 25.2028 159.093 22.8994 159.093 22.8994L154.755 23.8692Z" fill="url(#paint5_linear)"/>
<path fill-rule="evenodd" clip-rule="evenodd" d="M102.007 257.87C102.007 259.836 79.8148 261.43 52.4388 261.43C25.0627 261.43 2.86914 259.836 2.86914 257.87C2.86914 255.904 25.0627 254.311 52.4388 254.311C79.8148 254.311 102.007 255.904 102.007 257.87Z" fill="#ECEAF5"/>
<path d="M76.8717 103.408C80.5625 113.349 82.2597 116.972 82.2597 116.972C82.2597 116.972 78.3398 124.044 62.6475 122.765C48.4638 121.606 47.925 116.757 47.925 116.757L52.2623 97.4951C52.2623 97.4951 74.8378 97.9262 76.8717 103.408Z" fill="#FFBE83"/>
<path d="M36.5834 116.837L36.7181 116.393C37.0818 115.046 37.3647 114.116 37.3647 114.116L49.6896 71.4844L52.7068 86.2069L42.0253 116.42C42.0523 116.476 42.0838 116.53 42.1195 116.581C42.1195 116.581 43.6551 123.949 42.2812 126.562C41.6345 127.713 40.5176 128.524 39.2232 128.783C37.9288 129.042 36.5858 128.723 35.5463 127.909C34.2262 126.711 35.6271 120.501 36.5834 116.837Z" fill="#FFBE83"/>
<path d="M61.3818 107.854C61.7455 107.854 61.9879 108.406 61.9206 108.999C61.8532 109.591 61.5434 110.063 61.1797 110.022C60.8161 109.982 60.5871 109.484 60.6409 108.877C60.6948 108.271 61.0585 107.827 61.3818 107.854Z" fill="#E09B63"/>
<path d="M77.9771 106.33L79.1894 109.496C75.8641 108.161 72.3418 107.383 68.7637 107.192C61.8941 106.586 50.0002 106.061 50.0002 106.061L50.6737 103.151L77.9771 106.33Z" fill="#E09B63"/>
<path d="M46.3632 83.1084L49.5556 84.9403C49.7307 85.0211 51.5087 90.0454 51.5087 90.0454L49.6094 94.9349C49.2163 93.0457 48.6758 91.1902 47.9931 89.3853C47.3476 88.0398 46.5474 86.7741 45.6089 85.6138L46.3632 83.1084Z" fill="#E09B63"/>
<path d="M40.4097 103.597L46.2421 104.297L45.0972 107.53C44.3798 107.302 43.625 107.215 42.8746 107.274C41.5276 107.355 39.1704 107.678 39.1704 107.678L40.4097 103.597Z" fill="#E09B63"/>
<path d="M78.0982 245.595C78.985 248.532 79.6293 251.537 80.0244 254.579C79.7347 256.321 78.11 257.516 76.3606 257.273C74.8468 257.197 73.4451 256.451 72.5352 255.239L74.8385 245.595H78.0982Z" fill="#EE534F"/>
<path d="M14.2644 246.94L15.9481 248.786C15.9481 248.786 16.9853 256.006 16.9045 256.248C16.9045 256.248 4.12163 256.598 1.68359 256.248L14.2644 246.94Z" fill="#EE534F"/>
<path d="M79.2698 234.67C79.7682 234.603 80.3204 234.535 80.9131 234.414L78.2191 245.19L78.1114 245.621C77.0745 246.063 75.902 246.063 74.8651 245.621L74.0435 234.441C74.0435 234.441 75.4578 235.128 79.2698 234.67Z" fill="#FFBE83"/>
<path d="M19.0876 233.161L22.684 234.885L24.7314 235.828L15.9491 248.786C15.6315 248.698 15.331 248.556 15.0601 248.369C14.673 248.106 14.3915 247.715 14.2654 247.264L19.0876 233.161Z" fill="#FFBE83"/>
<path d="M20.1244 225.444C23.1282 211.476 28.8798 184.954 30.0786 179.862C31.4256 174.474 38.9822 146.74 42.9558 132.489C42.959 132.435 42.959 132.381 42.9558 132.327C43.3329 130.98 43.6832 129.714 43.993 128.636C43.993 128.501 43.993 128.367 44.1007 128.232C44.653 126.292 45.0436 124.932 45.2187 124.393C45.744 122.763 46.2828 121.012 46.7408 119.504C46.7408 119.382 46.8216 119.261 46.8486 119.153C47.5894 117.187 47.9531 115.84 47.9531 115.84C48.8457 116.881 49.9411 117.729 51.1724 118.332C51.8261 118.683 52.5009 118.993 53.1929 119.261L53.5027 119.369C56.7146 120.497 60.0811 121.124 63.4838 121.228C66.9738 121.473 70.4797 121.104 73.8421 120.137L74.1384 120.042C76.0286 119.474 77.839 118.669 79.5264 117.645L79.7958 117.47C80.522 117.02 81.2031 116.501 81.8297 115.921C81.8297 115.921 82.2742 116.406 82.9477 117.268L83.1498 117.524C86.8334 122.214 89.225 127.786 90.0867 133.687C91.1104 143.588 87.9181 157.596 85.9245 165.813C83.931 174.029 79.1896 192.375 79.1896 192.375C81.9288 196.519 83.6376 201.257 84.1735 206.195C85.1568 214.601 80.348 239.412 80.348 239.412C80.348 239.412 75.445 240.112 73.5188 239.412C71.5926 238.712 73.5188 239.129 73.5188 239.129C73.5188 239.129 72.1718 232.084 70.9057 224.73C69.8685 218.844 68.8448 212.755 68.5081 209.913C67.7672 203.636 65.8949 176.818 65.7333 169.881C65.612 164.749 64.9116 148.76 64.5614 140.772C64.4267 137.944 64.3459 136.125 64.3459 136.125L64.1304 136.637L41.8243 186.826C41.8243 186.826 43.535 197.521 41.8243 204.067C40.1137 210.614 24.8254 236.678 24.8254 236.678L18.2925 233.984C18.2925 233.984 19.0199 230.589 20.1244 225.498V225.444Z" fill="#282741"/>
<path d="M17.5116 255.359L17.1345 257.393L1.38829 257.299L1.19971 256.019L17.5116 255.359Z" fill="#282741"/>
<path d="M73.9636 256.02C75.2166 256.632 76.6195 256.871 78.0045 256.707C79.9038 256.518 80.0654 254.013 80.0654 254.013C80.3192 254.327 80.44 254.728 80.4022 255.131C80.1906 255.976 79.7196 256.735 79.0552 257.299C77.624 257.738 76.0993 257.771 74.6506 257.394C73.7691 257.105 73.0253 256.5 72.5627 255.696C72.5697 255.142 72.6793 254.594 72.886 254.08C72.9499 254.851 73.3424 255.558 73.9636 256.02Z" fill="#282741"/>
<path d="M83.1899 55.9391C77.802 53.1643 58.5671 51.8981 54.2298 53.1104C49.8925 54.3227 48.6937 63.4687 44.3968 74.4332C40.7465 83.7543 49.2325 83.0943 50.1754 89.8965C50.6083 94.637 50.0346 99.4154 48.4917 103.919L80.6307 107.677C82.6052 101.336 84.1931 94.8808 85.3855 88.3475C87.6889 76.2785 85.0757 60.1282 83.1899 55.9391Z" fill="#EE534F"/>
<path d="M58.5398 48.3424C51.2796 48.5444 50.0808 33.31 50.9698 23.7734C51.8588 14.2368 58.8227 8.64675 69.3022 10.9367C69.3022 10.9367 77.8421 17.9948 77.0609 26.3327C76.8184 28.9458 77.9229 33.1484 76.1853 36.1791C75.6465 37.1355 73.0603 37.122 72.1444 37.9032L70.3529 52.8952C72.8241 53.1225 75.274 53.5414 77.6805 54.1479C77.6805 54.1479 71.5382 62.6743 63.4967 62.4183C55.4552 62.1624 56.7618 52.7335 56.7618 52.7335C58.1898 52.5939 59.6239 52.5264 61.0587 52.5315C61.05 52.4329 61.05 52.3337 61.0587 52.2351L60.7624 47.9113C60.0462 48.1614 59.2976 48.3066 58.5398 48.3424Z" fill="#FFBE83"/>
<path d="M2.54598 77.9219L8.14943 82.4612L18.4807 79.8077L27.0341 99.1773L11.005 95.271L1.34717 79.4036L2.54598 77.9219Z" fill="#DDDDDD"/>
<path d="M10.4805 81.8555L8.15016 82.4617L3.77246 76.1309L10.4805 81.8555Z" fill="#DDDDDD"/>
<path d="M7.93422 84.307L17.2823 82.1653C17.2823 82.1653 25.7818 98.8679 26.2128 99.0699L16.7031 99.9859L17.3092 101.077L7.88034 96.9013L0.000488281 78.4072L7.93422 84.307Z" fill="#EE534F"/>
<path d="M60.803 47.8986L68.4539 42.0527C67.4352 43.9763 66.142 45.7413 64.615 47.2925C63.5324 48.2088 62.264 48.8798 60.8973 49.2591L60.803 47.8986Z" fill="#E09B63"/>
<path d="M58.0959 27.9775C58.0959 27.9775 58.2441 31.4123 57.3416 32.8671C56.6248 33.8132 55.6008 34.4801 54.4456 34.7529C54.4456 34.7529 54.6207 36.5309 55.8869 36.7733C57.6878 36.8671 59.2981 35.6594 59.7123 33.9043C60.0478 32.2496 60.2327 30.568 60.2645 28.88L58.0959 27.9775Z" fill="url(#paint6_linear)"/>
<path d="M52.4786 28.2866C53.0529 27.8353 53.8001 27.6671 54.5125 27.8286C55.2446 27.9494 55.8477 28.4693 56.075 29.1756C56.075 29.1756 55.2937 31.5328 53.5427 30.8054C52.5558 30.4011 52.0805 29.2759 52.4786 28.2866Z" fill="white"/>
<path d="M64.1561 28.6901C64.8882 28.8109 65.4913 29.3308 65.7187 30.0371C65.7187 30.0371 64.9374 32.3808 63.1729 31.6669C62.6955 31.4728 62.315 31.0967 62.1153 30.6216C61.9157 30.1465 61.9133 29.6114 62.1087 29.1346C62.6861 28.6784 63.4417 28.5144 64.1561 28.6901Z" fill="white"/>
<path d="M61.8 29.1214C62.399 28.465 63.3332 28.2314 64.1707 28.5287C65.0105 28.7144 65.7112 29.29 66.0564 30.0778L65.8005 30.3067C65.4914 29.9249 65.0939 29.6244 64.6422 29.4312C64.8017 29.6489 64.8781 29.9164 64.8577 30.1855C64.7982 30.8327 64.2252 31.3091 63.578 31.2496C62.9308 31.1901 62.4544 30.6172 62.5139 29.97C62.5362 29.6653 62.6822 29.383 62.918 29.1887C62.5512 29.2153 62.1892 29.2877 61.8404 29.4043L61.8 29.1214Z" fill="#6B3000"/>
<path d="M57.4495 38.5506C59.1601 38.0522 61.2075 40.1266 61.4904 40.396L62.4198 40.1266C62.0511 41.3443 61.1106 42.3049 59.901 42.6993C57.6919 43.6153 57.005 41.0291 57.005 41.0291H58.3519L55.9274 40.6384C55.8034 39.6496 56.4701 38.7351 57.4495 38.5506Z" fill="#EE534F"/>
<path d="M57.6646 41.2178C58.176 41.2462 58.6887 41.2462 59.2001 41.2178C61.0784 41.086 62.8405 40.2602 64.1436 38.901L63.7529 38.5508L63.955 38.7259L63.7529 38.5508C62.5309 39.7785 60.9127 40.5327 59.1867 40.679C57.7675 40.7915 56.3433 40.5363 55.0514 39.9382L54.782 40.3961C55.6748 40.8687 56.6568 41.1486 57.6646 41.2178Z" fill="#6B3000"/>
<path d="M57.1122 23.8947L51.8994 23.4098C53.0125 22.8812 54.2133 22.5616 55.4419 22.4669C56.2775 22.458 56.991 23.068 57.1122 23.8947Z" fill="#6B3000"/>
<path d="M54.5391 10.0076C58.2028 6.73441 71.4572 4.04044 80.3742 11.7452C82.9739 13.9946 89.7088 28.0302 84.7653 38.402C80.9399 46.3896 71.1473 43.5879 71.1473 43.5879C71.327 41.6311 71.674 39.6933 72.1845 37.7958C77.1953 34.4149 75.5924 28.9192 74.5013 28.367C72.8445 27.5588 71.6053 29.2829 71.0396 29.4445C70.8375 29.4445 71.1608 28.4612 71.511 26.9391C70.5008 26.4408 68.8171 25.5922 67.0525 24.6628L61.934 24.1778C62.2021 23.3879 63.0158 22.9204 63.8332 23.0868C64.1314 23.1489 64.4241 23.2345 64.7088 23.3427C62.8947 22.3083 61.1531 21.1517 59.4959 19.881C57.7335 18.5746 56.5305 16.6498 56.1285 14.493C56.1719 17.1012 57.2472 19.586 59.1188 21.4031C55.9938 20.6891 54.6738 17.6854 54.1215 15.4359C52.8751 16.9331 51.982 18.6918 51.5083 20.5814C51.5083 20.5814 50.8887 13.3077 54.5391 10.0076Z" fill="#6B3000"/>
<path fill-rule="evenodd" clip-rule="evenodd" d="M49.3939 28.2047C49.6341 25.9671 51.6044 24.3224 53.849 24.4858C56.0935 24.6492 57.8047 26.562 57.7183 28.8108L60.8567 29.188C61.2336 27.0332 63.2051 25.5312 65.3826 25.7397C67.0285 25.9402 68.385 27.1257 68.8039 28.73L73.3837 29.2688L73.2759 30.1713L68.9791 29.6325C69.0059 29.9192 69.0059 30.2078 68.9791 30.4946C68.7588 32.8189 66.6969 34.5251 64.3724 34.3065C62.2669 34.0064 60.7204 32.1761 60.7759 30.0501L57.6105 29.6729C57.0922 31.827 54.9817 33.2013 52.802 32.804C50.6223 32.4067 49.1324 30.3762 49.4074 28.1778L49.3939 28.2047ZM64.4137 33.9277C65.997 34.1938 67.5824 33.4675 68.4149 32.0948C69.2475 30.722 69.1587 28.9804 68.1909 27.6994C67.2232 26.4184 65.5721 25.8571 64.0241 26.2828C62.4761 26.7085 61.3442 28.0351 61.1675 29.6308C60.8874 31.7112 62.336 33.6286 64.4137 33.9277ZM57.0628 30.7141C56.243 32.0909 54.6677 32.8301 53.0849 32.5807C50.9988 32.2879 49.5347 30.3738 49.7982 28.2838C49.9719 26.6909 51.0977 25.3641 52.6411 24.9333C54.1845 24.5026 55.8347 25.0546 56.8082 26.3274C57.7818 27.6001 57.8826 29.3373 57.0628 30.7141Z" fill="#EE534F"/>
<path d="M10.2917 84.8597L16.4474 83.5127L21.4178 93.7228C21.4178 93.7228 16.3396 94.8004 14.3326 93.7228C12.3256 92.6452 10.2917 84.8597 10.2917 84.8597Z" fill="#F95D5D"/>
<path d="M8.74277 84.254L15.4238 100.189L13.5381 99.4075L6.9917 83.6074L8.74277 84.254Z" fill="#F95D5D"/>
<path d="M82.6103 235.613L81.3845 239.129C75.9966 241.419 72.7773 239.129 72.7773 239.129L71.0801 234.711C75.7406 236.678 82.287 235.721 82.6103 235.613Z" fill="#383851"/>
<path d="M18.2919 230.791C21.6094 231.177 24.7369 232.541 27.2763 234.711L24.9864 237.405C22.3733 236.058 17.8743 233.916 17.8743 233.916L18.2919 230.791Z" fill="#383851"/>
<path fill-rule="evenodd" clip-rule="evenodd" d="M62.8902 126.75L61.3681 123.922L62.3918 124.056C63.2269 124.15 64.0216 124.15 64.8163 124.15C68.1291 124.144 71.4154 123.56 74.5281 122.426C74.8119 123.212 75.1681 123.97 75.5922 124.689C77.8147 127.979 81.2564 130.248 85.1558 130.993C85.3365 131.961 85.4266 132.945 85.4252 133.93C85.3444 141.796 82.7043 167.187 80.6973 174.918C79.2705 180.832 78.151 186.817 77.3433 192.847V192.927C79.3768 198.025 80.5906 203.412 80.9397 208.889C81.2294 216.264 80.405 233.612 80.2306 237.282C80.2104 237.708 80.1989 237.95 80.1989 237.971C80.1951 238.016 80.2105 238.06 80.2412 238.094C80.2719 238.127 80.3152 238.146 80.3605 238.146C80.4034 238.146 80.4445 238.129 80.4748 238.098C80.5051 238.068 80.5222 238.027 80.5222 237.984C80.5356 237.782 81.5863 217.133 81.263 208.876C80.9346 203.377 79.7295 197.965 77.6935 192.847C78.4941 186.848 79.6091 180.895 81.034 175.013C83.0949 167.254 85.6946 141.809 85.7889 133.943C85.7811 132.917 85.6819 131.894 85.4925 130.885V130.791C84.5362 126.724 82.9549 122.83 80.805 119.247C81.6015 118.731 82.3704 118.174 83.1084 117.577L82.9063 117.321C82.201 117.91 81.4635 118.458 80.6973 118.965C80.3706 118.416 80.0694 117.931 79.8303 117.545L79.8083 117.51L79.5389 117.685L80.4279 119.14C78.6312 120.292 76.7166 121.249 74.7167 121.995C74.4839 121.385 74.3124 120.754 74.2048 120.11C74.1914 120.023 74.1168 119.96 74.0297 119.961C73.9841 119.965 73.942 119.987 73.9137 120.023C73.8855 120.059 73.8738 120.105 73.8815 120.15C73.9903 120.821 74.1662 121.48 74.4069 122.117C70.5713 123.521 66.4748 124.068 62.4052 123.719C58.9118 123.466 55.466 122.76 52.1547 121.618C52.6472 120.881 53.097 120.117 53.5017 119.328L53.1919 119.221C52.7842 120.007 52.3345 120.772 51.8449 121.51C50.1347 120.894 48.5063 120.071 46.9958 119.059C46.9857 119.099 46.9681 119.141 46.95 119.185C46.9197 119.257 46.888 119.333 46.888 119.409C48.3675 120.394 49.9592 121.199 51.6294 121.807C49.8123 124.574 47.2482 126.769 44.2344 128.138C44.1267 128.272 44.1267 128.407 44.1267 128.542C47.3213 127.142 50.0368 124.838 51.9392 121.914C54.8889 122.942 57.9499 123.615 61.0583 123.922C61.0318 123.967 61.0318 124.024 61.0583 124.07L62.6073 126.898C62.633 126.949 62.6853 126.98 62.742 126.979H62.8228C62.9019 126.932 62.9313 126.832 62.8902 126.75ZM85.1296 130.656C81.3585 129.911 78.0334 127.709 75.8758 124.527C75.4404 123.833 75.075 123.098 74.7848 122.332C76.7937 121.566 78.7205 120.6 80.5364 119.449C82.623 122.932 84.1716 126.711 85.1296 130.656Z" fill="#383851"/>
<path d="M24.3541 235.291C24.3541 235.157 31.4931 221.606 34.6451 210.157C36.6546 202.309 38.0063 194.307 38.686 186.234C38.8207 185.911 53.3412 153.139 56.3315 147.32C59.2275 141.716 63.4166 134.928 63.7668 134.375C63.6307 133.297 63.4373 132.227 63.1876 131.169C63.1876 131.08 63.26 131.008 63.3493 131.008C63.4385 131.008 63.5109 131.08 63.5109 131.169C63.5109 131.169 63.8746 132.705 64.0901 134.429C64.1903 135.157 64.2443 135.89 64.2518 136.625C64.2518 136.714 64.1794 136.786 64.0901 136.786C64.045 136.79 64.0003 136.775 63.967 136.744C63.9337 136.713 63.9148 136.67 63.915 136.625C63.915 136.086 63.915 135.507 63.8207 134.954C62.8509 136.53 59.214 142.511 56.6278 147.522C53.6779 153.273 39.4673 185.305 38.9958 186.396C38.3234 194.478 36.9716 202.49 34.9549 210.345C31.8029 221.835 24.7178 235.412 24.6505 235.547C24.6215 235.603 24.565 235.639 24.5023 235.641H24.4215C24.3248 235.66 24.2313 235.597 24.2127 235.5C24.1941 235.403 24.2574 235.31 24.3541 235.291Z" fill="#383851"/>
<path opacity="0.36" d="M66.8916 143.088C66.5414 146.509 67.8884 181.868 68.7504 182.999C69.6125 184.131 73.3841 148.557 71.1481 141.539C68.9121 134.521 67.4573 137.606 66.8916 143.088Z" fill="#383851"/>
<path opacity="0.36" d="M41.8645 140.356C41.8645 140.356 30.1323 182.476 30.698 182.624C31.2637 182.772 43.9389 147.926 44.0062 143.858C44.0736 139.79 41.8645 140.356 41.8645 140.356Z" fill="#383851"/>
<path d="M52.1689 28.287C52.7718 27.6369 53.7018 27.4044 54.5396 27.6943C55.3744 27.8838 56.0694 28.4588 56.4119 29.2433L56.1695 29.4723C55.8603 29.0905 55.4627 28.79 55.011 28.5968C55.1705 28.8145 55.247 29.082 55.2266 29.3511C55.1347 29.9735 54.5725 30.4157 53.946 30.3584C53.3195 30.3011 52.8468 29.7643 52.8693 29.1356C52.9028 28.8341 53.0467 28.5558 53.2734 28.3543C52.9096 28.3795 52.5513 28.4566 52.2093 28.5833L52.1689 28.287Z" fill="#6B3000"/>
<path d="M18.5747 95.2037C22.0365 94.7457 29.5661 99.4871 29.5661 99.4871L66.2175 95.4461L78.3403 62.1218C78.3403 62.1218 89.9917 59.7511 89.9648 63.4687C89.9379 67.1864 77.9767 94.0452 73.8414 100.376C69.7062 106.707 30.3204 105.764 30.3204 105.764C30.3204 105.764 15.3689 104.875 14.3856 102.154C13.9107 100.673 14.0988 99.0594 14.9016 97.7274C15.7043 96.3955 17.0435 95.4754 18.5747 95.2037Z" fill="#FFBE83"/>
<path d="M73.478 70.0425L87.069 76.1443C87.069 76.1443 92.6994 62.9439 89.9246 59.9805C87.1499 57.0171 80.6843 54.9697 80.6843 54.9697L73.478 70.0425Z" fill="#EE534F"/>
<path d="M75.1622 70.7559L74.5291 72.3184C76.8108 72.995 78.9937 73.9687 81.0216 75.2144C82.4691 76.4691 83.4238 78.1972 83.7156 80.0905L85.7226 75.5376L75.1622 70.7559Z" fill="#E09B63"/>
<defs>
<linearGradient id="paint0_linear" x1="337.89" y1="41.3642" x2="346.227" y2="35.2032" gradientUnits="userSpaceOnUse">
<stop stop-color="#FF9D67"/>
<stop offset="1" stop-color="#FFB878"/>
</linearGradient>
<linearGradient id="paint1_linear" x1="238.167" y1="45.1195" x2="246.545" y2="36.3197" gradientUnits="userSpaceOnUse">
<stop stop-color="#FFA56A"/>
<stop offset="1" stop-color="#FFBE83"/>
</linearGradient>
<linearGradient id="paint2_linear" x1="144.288" y1="52.2732" x2="168.534" y2="52.2732" gradientUnits="userSpaceOnUse">
<stop stop-color="#FFA56A"/>
<stop offset="1" stop-color="#FFB183"/>
</linearGradient>
<linearGradient id="paint3_linear" x1="159.47" y1="29.587" x2="165.289" y2="29.587" gradientUnits="userSpaceOnUse">
<stop stop-color="#FFA56A"/>
<stop offset="1" stop-color="#FFB183"/>
</linearGradient>
<linearGradient id="paint4_linear" x1="148.101" y1="29.6059" x2="153.92" y2="29.6059" gradientUnits="userSpaceOnUse">
<stop stop-color="#FFA56A"/>
<stop offset="1" stop-color="#FFB183"/>
</linearGradient>
<linearGradient id="paint5_linear" x1="159.782" y1="37.9109" x2="157.662" y2="24.8176" gradientUnits="userSpaceOnUse">
<stop stop-color="#FFA56A"/>
<stop offset="1" stop-color="#FFBE83"/>
</linearGradient>
<linearGradient id="paint6_linear" x1="51.294" y1="32.8219" x2="56.312" y2="27.4656" gradientUnits="userSpaceOnUse">
<stop stop-color="#FFA56A"/>
<stop offset="1" stop-color="#FFBE83"/>
</linearGradient>
</defs>
</svg>
