<svg width="1680" height="311" viewBox="0 0 1680 311" fill="none" xmlns="http://www.w3.org/2000/svg">
<path fill-rule="evenodd" clip-rule="evenodd" d="M917.45 291.907V148.607H987.64V291.907H1003.84V201.681H998.44C997.77 181.645 1013.25 164.775 1033.53 161.876V148.607H1041.63V161.876C1055.45 163.018 1066.01 170.449 1071.33 180.452V151.261H1090.22V116.763H1084.82C1084.3 95.4974 1101.88 78.1625 1119.92 76.9573V55.7277H1128.01V76.9573C1150.42 79.3398 1165.9 96.2101 1165.81 116.763H1157.71V151.261H1176.61V291.907H1190.1V63.6888H1206.3V23.8833H1230.59V0H1238.69V23.8833H1265.69V63.6888H1279.19V291.907H1292.68V23.8833H1395.26V291.907H1408.76V87.5721H1489.75V291.907H1505.94V45.1129H1603.12V291.907H1616.62V23.8833H1697.61V291.907H1705.71V143.3H1800.19V291.907H1810.99V183.105H1851.48V172.49H1846.08C1845.98 143.781 1870.06 119.561 1897.37 116.763V84.9184H1905.47V116.763C1937.59 118.396 1961.66 143.781 1962.16 172.49H1954.06V183.105H1994.55V291.907H2008.05V159.222H2070.14V291.907H2226.71V310.483H1057.83H-354V291.907H-251.419V148.607H-181.233V291.907H-165.036V201.681H-170.435C-171.101 181.645 -155.626 164.775 -135.341 161.876V148.607H-127.243V161.876C-113.419 163.018 -102.867 170.449 -97.548 180.452V151.261H-78.652V116.763H-84.051C-84.576 95.4974 -66.991 78.1625 -48.958 76.9573V55.7277H-40.859V76.9573C-18.452 79.3398 -2.97702 96.2101 -3.06601 116.763H-11.165V151.261H7.73199V291.907H21.229V63.6888H37.426V23.8833H61.722V0H69.82V23.8833H96.815V63.6888H110.312V291.907H123.81V23.8833H226.39V291.907H239.888V87.5721H320.873V291.907H337.07V45.1129H434.251V291.907H447.749V23.8833H528.733V291.907H536.832V143.3H631.314V291.907H642.112V183.105H682.6V172.49H677.21C677.1 143.781 701.18 119.561 728.5 116.763V84.9184H736.59V116.763C768.71 118.396 792.79 143.781 793.28 172.49H785.18V183.105H825.68V291.907H839.17V159.222H901.26V291.907H917.45ZM886.17 192.32H894.27V179.051H886.17V192.32ZM886.17 213.273H894.27V200.004H886.17V213.273ZM886.17 233.07H894.27V217.147H886.17V233.07ZM886.17 255.178H894.27V241.91H886.17V255.178ZM871.16 213.273H879.26V200.004H871.16V213.273ZM871.16 255.178H879.26V241.91H871.16V255.178ZM859.9 192.32H868V179.051H859.9V192.32ZM859.9 213.273H868V200.004H859.9V213.273ZM859.9 233.07H868V217.147H859.9V233.07ZM846.77 192.32H852.17V179.051H846.77V192.32ZM846.77 233.07H852.17V217.147H846.77V233.07ZM846.77 255.178H852.17V241.91H846.77V255.178ZM803.62 226.948H809.02V205.719H803.62V226.948ZM803.62 257.425H809.02V236.195H803.62V257.425ZM781.1 226.948H786.5V205.719H781.1V226.948ZM700.43 183.203H765.21V175.242H700.43V183.203ZM762.34 226.948H767.74V205.719H762.34V226.948ZM762.34 257.425H767.74V236.195H762.34V257.425ZM741.7 257.425H747.1V236.195H741.7V257.425ZM719.19 226.948H724.59V205.719H719.19V226.948ZM719.19 257.425H724.59V236.195H719.19V257.425ZM698.55 226.948H703.95V205.719H698.55V226.948ZM676.03 257.425H681.43V236.195H676.03V257.425ZM655.4 226.948H660.8V205.719H655.4V226.948ZM655.4 257.425H660.8V236.195H655.4V257.425ZM595.358 170.618H603.456V160.003H595.358V170.618ZM595.358 185.857H603.456V175.242H595.358V185.857ZM595.358 199.19H603.456V188.575H595.358V199.19ZM595.358 216.333H603.456V205.719H595.358V216.333ZM595.358 227.762H603.456V217.147H595.358V227.762ZM595.358 244.905H603.456V234.291H595.358V244.905ZM595.358 258.239H603.456V247.624H595.358V258.239ZM595.358 273.477H603.456V262.863H595.358V273.477ZM578.472 170.618H586.571V160.003H578.472V170.618ZM578.472 185.857H586.571V175.242H578.472V185.857ZM578.472 199.19H586.571V188.575H578.472V199.19ZM578.472 216.333H586.571V205.719H578.472V216.333ZM578.472 227.762H586.571V217.147H578.472V227.762ZM578.472 244.905H586.571V234.291H578.472V244.905ZM578.472 258.239H586.571V247.624H578.472V258.239ZM578.472 273.477H586.571V262.863H578.472V273.477ZM559.71 170.618H567.809V160.003H559.71V170.618ZM559.71 185.857H567.809V175.242H559.71V185.857ZM559.71 199.19H567.809V188.575H559.71V199.19ZM559.71 216.333H567.809V205.719H559.71V216.333ZM559.71 227.762H567.809V217.147H559.71V227.762ZM559.71 244.905H567.809V234.291H559.71V244.905ZM559.71 258.239H567.809V247.624H559.71V258.239ZM559.71 273.477H567.809V262.863H559.71V273.477ZM492.167 45.3082H513.763V40.0008H492.167V45.3082ZM492.167 58.6419H513.763V53.3345H492.167V58.6419ZM492.167 83.4043H513.763V78.0969H492.167V83.4043ZM492.167 96.7379H513.763V91.4305H492.167V96.7379ZM492.167 106.262H513.763V100.955H492.167V106.262ZM492.167 119.596H513.763V114.288H492.167V119.596ZM492.167 132.929H513.763V127.622H492.167V132.929ZM492.167 146.263H513.763V140.955H492.167V146.263ZM492.167 157.692H513.763V152.384H492.167V157.692ZM492.167 171.025H513.763V165.718H492.167V171.025ZM492.167 193.883H513.763V188.575H492.167V193.883ZM492.167 207.216H513.763V201.909H492.167V207.216ZM492.167 220.55H513.763V215.243H492.167V220.55ZM492.167 245.312H513.763V240.005H492.167V245.312ZM492.167 258.646H513.763V253.339H492.167V258.646ZM492.167 271.98H513.763V266.672H492.167V271.98ZM460.271 45.3082H484.567V40.0008H460.271V45.3082ZM460.271 58.6419H484.567V53.3345H460.271V58.6419ZM460.271 83.4043H484.567V78.0969H460.271V83.4043ZM460.271 96.7379H484.567V91.4305H460.271V96.7379ZM460.271 106.262H484.567V100.955H460.271V106.262ZM460.271 119.596H484.567V114.288H460.271V119.596ZM460.271 132.929H484.567V127.622H460.271V132.929ZM460.271 146.263H484.567V140.955H460.271V146.263ZM460.271 157.692H484.567V152.384H460.271V157.692ZM460.271 171.025H484.567V165.718H460.271V171.025ZM460.271 193.883H484.567V188.575H460.271V193.883ZM460.271 207.216H484.567V201.909H460.271V207.216ZM460.271 220.55H484.567V215.243H460.271V220.55ZM460.271 245.312H484.567V240.005H460.271V245.312ZM460.271 258.646H484.567V253.339H460.271V258.646ZM460.271 271.98H484.567V266.672H460.271V271.98ZM415.243 111.439H426.041V74.2873H415.243V111.439ZM415.243 204.774H426.041V167.623H415.243V204.774ZM415.243 247.836H426.041V213.338H415.243V247.836ZM394.604 111.439H405.402V74.2873H394.604V111.439ZM394.604 159.059H405.402V121.907H394.604V159.059ZM394.604 247.836H405.402V213.338H394.604V247.836ZM379.595 159.059H390.393V121.907H379.595V159.059ZM379.595 204.774H390.393V167.623H379.595V204.774ZM379.595 247.836H390.393V213.338H379.595V247.836ZM360.833 111.439H371.631V74.2873H360.833V111.439ZM360.833 204.774H371.631V167.623H360.833V204.774ZM343.947 111.439H354.745V74.2873H343.947V111.439ZM343.947 159.059H354.745V121.907H343.947V159.059ZM343.947 204.774H354.745V167.623H343.947V204.774ZM343.947 247.836H354.745V213.338H343.947V247.836ZM298.918 146.133H304.317V114.288H298.918V146.133ZM298.918 186.133H304.317V154.289H298.918V186.133ZM298.918 220.42H304.317V188.575H298.918V220.42ZM298.918 260.421H304.317V228.576H298.918V260.421ZM282.032 146.133H287.431V114.288H282.032V146.133ZM282.032 186.133H287.431V154.289H282.032V186.133ZM282.032 220.42H287.431V188.575H282.032V220.42ZM282.032 260.421H287.431V228.576H282.032V260.421ZM268.899 146.133H274.298V114.288H268.899V146.133ZM268.899 186.133H274.298V154.289H268.899V186.133ZM268.899 220.42H274.298V188.575H268.899V220.42ZM268.899 260.421H274.298V228.576H268.899V260.421ZM252.013 146.133H257.412V114.288H252.013V146.133ZM252.013 186.133H257.412V154.289H252.013V186.133ZM252.013 220.42H257.412V188.575H252.013V220.42ZM252.013 260.421H257.412V228.576H252.013V260.421ZM201.356 74.2222H214.853V60.9537H201.356V74.2222ZM201.356 95.175H214.853V81.9065H201.356V95.175ZM201.356 114.223H214.853V100.955H201.356V114.223ZM201.356 135.176H214.853V121.907H201.356V135.176ZM201.356 156.129H214.853V142.86H201.356V156.129ZM201.356 178.986H214.853V165.718H201.356V178.986ZM201.356 199.939H214.853V186.671H201.356V199.939ZM201.356 220.892H214.853V207.623H201.356V220.892ZM178.841 95.175H192.339V81.9065H178.841V95.175ZM178.841 114.223H192.339V100.955H178.841V114.223ZM178.841 156.129H192.339V142.86H178.841V156.129ZM178.841 178.986H192.339V165.718H178.841V178.986ZM178.841 199.939H192.339V186.671H178.841V199.939ZM178.841 220.892H192.339V207.623H178.841V220.892ZM154.451 74.2222H167.948V60.9537H154.451V74.2222ZM154.451 95.175H167.948V81.9065H154.451V95.175ZM154.451 114.223H167.948V100.955H154.451V114.223ZM154.451 135.176H167.948V121.907H154.451V135.176ZM154.451 156.129H167.948V142.86H154.451V156.129ZM154.451 178.986H167.948V165.718H154.451V178.986ZM154.451 220.892H167.948V207.623H154.451V220.892ZM133.812 74.2222H147.31V60.9537H133.812V74.2222ZM133.812 95.175H147.31V81.9065H133.812V95.175ZM133.812 135.176H147.31V121.907H133.812V135.176ZM133.812 156.129H147.31V142.86H133.812V156.129ZM133.812 199.939H147.31V186.671H133.812V199.939ZM133.812 220.892H147.31V207.623H133.812V220.892ZM77.526 54.0182H85.625V38.096H77.526V54.0182ZM77.526 90.2095H85.625V74.2873H77.526V90.2095ZM77.526 120.686H85.625V104.764H77.526V120.686ZM77.526 149.258H85.625V133.336H77.526V149.258ZM77.526 177.83H85.625V161.908H77.526V177.83ZM77.526 208.307H85.625V192.385H77.526V208.307ZM77.526 236.879H85.625V220.957H77.526V236.879ZM77.526 265.451H85.625V249.529H77.526V265.451ZM60.641 54.0182H68.739V38.096H60.641V54.0182ZM60.641 90.2095H68.739V74.2873H60.641V90.2095ZM60.641 120.686H68.739V104.764H60.641V120.686ZM60.641 149.258H68.739V133.336H60.641V149.258ZM60.641 177.83H68.739V161.908H60.641V177.83ZM60.641 208.307H68.739V192.385H60.641V208.307ZM60.641 236.879H68.739V220.957H60.641V236.879ZM60.641 265.451H68.739V249.529H60.641V265.451ZM43.755 54.0182H51.853V38.096H43.755V54.0182ZM43.755 90.2095H51.853V74.2873H43.755V90.2095ZM43.755 120.686H51.853V104.764H43.755V120.686ZM43.755 149.258H51.853V133.336H43.755V149.258ZM43.755 177.83H51.853V161.908H43.755V177.83ZM43.755 208.307H51.853V192.385H43.755V208.307ZM43.755 236.879H51.853V220.957H43.755V236.879ZM52.217 266.2V250.278H44.119V247.624H30.621V260.893H44.119V266.2H52.217ZM-31.293 151.098H-25.894V121.907H-31.293V151.098ZM-31.293 202.528H-25.894V173.337H-31.293V202.528ZM-31.293 255.862H-25.894V226.671H-31.293V255.862ZM-44.656 151.098V121.907H-50.055V127.215V151.098H-44.656ZM-50.055 202.528H-44.656V173.337H-50.055V202.528ZM-50.055 255.862H-44.656V226.671H-50.055V255.862ZM-68.817 151.098H-63.418V121.907H-68.817V151.098ZM-68.817 202.528H-63.418V173.337H-68.817V202.528ZM-68.817 255.862H-63.418V226.671H-68.817V255.862ZM-117.599 255.862H-112.2V226.671H-117.599V255.862ZM-136.361 255.862H-130.962V226.671H-136.361V255.862ZM-155.123 255.862H-149.724V226.671H-155.123V255.862ZM-198.275 180.891H-190.177V167.623H-198.275V180.891ZM-198.275 229.26H-190.177V213.338H-198.275V229.26ZM-198.275 253.274H-190.177V240.005H-198.275V253.274ZM-215.161 180.891H-207.063V167.623H-215.161V180.891ZM-215.161 201.844H-207.063V188.575H-215.161V201.844ZM-215.161 229.26H-207.063V213.338H-215.161V229.26ZM-228.295 201.844H-220.196V188.575H-228.295V201.844ZM-228.295 253.274H-220.196V240.005H-228.295V253.274ZM-245.18 180.891H-237.082V167.623H-245.18V180.891ZM-245.18 201.844H-237.082V188.575H-245.18V201.844ZM-245.18 229.26H-237.082V213.338H-245.18V229.26ZM-245.18 253.274H-237.082V240.005H-245.18V253.274ZM2055.04 192.32H2063.14V179.051H2055.04V192.32ZM2055.04 213.273H2063.14V200.004H2055.04V213.273ZM2055.04 233.07H2063.14V217.147H2055.04V233.07ZM2055.04 255.178H2063.14V241.91H2055.04V255.178ZM2040.03 213.273H2048.13V200.004H2040.03V213.273ZM2040.03 255.178H2048.13V241.91H2040.03V255.178ZM2028.78 192.32H2036.87V179.051H2028.78V192.32ZM2028.78 213.273H2036.87V200.004H2028.78V213.273ZM2028.78 233.07H2036.87V217.147H2028.78V233.07ZM2015.64 192.32H2021.04V179.051H2015.64V192.32ZM2015.64 233.07H2021.04V217.147H2015.64V233.07ZM2015.64 255.178H2021.04V241.91H2015.64V255.178ZM1972.49 226.948H1977.89V205.719H1972.49V226.948ZM1972.49 257.425H1977.89V236.195H1972.49V257.425ZM1949.98 226.948H1955.37V205.719H1949.98V226.948ZM1869.3 183.203H1934.09V175.242H1869.3V183.203ZM1931.21 226.948H1936.61V205.719H1931.21V226.948ZM1931.21 257.425H1936.61V236.195H1931.21V257.425ZM1910.58 257.425H1915.97V236.195H1910.58V257.425ZM1888.06 226.948H1893.46V205.719H1888.06V226.948ZM1888.06 257.425H1893.46V236.195H1888.06V257.425ZM1867.42 226.948H1872.82V205.719H1867.42V226.948ZM1844.91 257.425H1850.31V236.195H1844.91V257.425ZM1824.27 226.948H1829.67V205.719H1824.27V226.948ZM1824.27 257.425H1829.67V236.195H1824.27V257.425ZM1764.23 170.618H1772.33V160.003H1764.23V170.618ZM1764.23 185.857H1772.33V175.242H1764.23V185.857ZM1764.23 199.19H1772.33V188.575H1764.23V199.19ZM1764.23 216.333H1772.33V205.719H1764.23V216.333ZM1764.23 227.762H1772.33V217.147H1764.23V227.762ZM1764.23 244.905H1772.33V234.291H1764.23V244.905ZM1764.23 258.239H1772.33V247.624H1764.23V258.239ZM1764.23 273.477H1772.33V262.863H1764.23V273.477ZM1747.35 170.618H1755.44V160.003H1747.35V170.618ZM1747.35 185.857H1755.44V175.242H1747.35V185.857ZM1747.35 199.19H1755.44V188.575H1747.35V199.19ZM1747.35 216.333H1755.44V205.719H1747.35V216.333ZM1747.35 227.762H1755.44V217.147H1747.35V227.762ZM1747.35 244.905H1755.44V234.291H1747.35V244.905ZM1747.35 258.239H1755.44V247.624H1747.35V258.239ZM1747.35 273.477H1755.44V262.863H1747.35V273.477ZM1728.58 170.618H1736.68V160.003H1728.58V170.618ZM1728.58 185.857H1736.68V175.242H1728.58V185.857ZM1728.58 199.19H1736.68V188.575H1728.58V199.19ZM1728.58 216.333H1736.68V205.719H1728.58V216.333ZM1728.58 227.762H1736.68V217.147H1728.58V227.762ZM1728.58 244.905H1736.68V234.291H1728.58V244.905ZM1728.58 258.239H1736.68V247.624H1728.58V258.239ZM1728.58 273.477H1736.68V262.863H1728.58V273.477ZM1661.04 45.3082H1682.64V40.0008H1661.04V45.3082ZM1661.04 58.6419H1682.64V53.3345H1661.04V58.6419ZM1661.04 83.4043H1682.64V78.0969H1661.04V83.4043ZM1661.04 96.7379H1682.64V91.4305H1661.04V96.7379ZM1661.04 106.262H1682.64V100.955H1661.04V106.262ZM1661.04 119.596H1682.64V114.288H1661.04V119.596ZM1661.04 132.929H1682.64V127.622H1661.04V132.929ZM1661.04 146.263H1682.64V140.955H1661.04V146.263ZM1661.04 157.692H1682.64V152.384H1661.04V157.692ZM1661.04 171.025H1682.64V165.718H1661.04V171.025ZM1661.04 193.883H1682.64V188.575H1661.04V193.883ZM1661.04 207.216H1682.64V201.909H1661.04V207.216ZM1661.04 220.55H1682.64V215.243H1661.04V220.55ZM1661.04 245.312H1682.64V240.005H1661.04V245.312ZM1661.04 258.646H1682.64V253.339H1661.04V258.646ZM1661.04 271.98H1682.64V266.672H1661.04V271.98ZM1629.14 45.3082H1653.44V40.0008H1629.14V45.3082ZM1629.14 58.6419H1653.44V53.3345H1629.14V58.6419ZM1629.14 83.4043H1653.44V78.0969H1629.14V83.4043ZM1629.14 96.7379H1653.44V91.4305H1629.14V96.7379ZM1629.14 106.262H1653.44V100.955H1629.14V106.262ZM1629.14 119.596H1653.44V114.288H1629.14V119.596ZM1629.14 132.929H1653.44V127.622H1629.14V132.929ZM1629.14 146.263H1653.44V140.955H1629.14V146.263ZM1629.14 157.692H1653.44V152.384H1629.14V157.692ZM1629.14 171.025H1653.44V165.718H1629.14V171.025ZM1629.14 193.883H1653.44V188.575H1629.14V193.883ZM1629.14 207.216H1653.44V201.909H1629.14V207.216ZM1629.14 220.55H1653.44V215.243H1629.14V220.55ZM1629.14 245.312H1653.44V240.005H1629.14V245.312ZM1629.14 258.646H1653.44V253.339H1629.14V258.646ZM1629.14 271.98H1653.44V266.672H1629.14V271.98ZM1584.12 111.439H1594.91V74.2873H1584.12V111.439ZM1584.12 204.774H1594.91V167.623H1584.12V204.774ZM1584.12 247.836H1594.91V213.338H1584.12V247.836ZM1563.48 111.439H1574.28V74.2873H1563.48V111.439ZM1563.48 159.059H1574.28V121.907H1563.48V159.059ZM1563.48 247.836H1574.28V213.338H1563.48V247.836ZM1548.47 159.059H1559.27V121.907H1548.47V159.059ZM1548.47 204.774H1559.27V167.623H1548.47V204.774ZM1548.47 247.836H1559.27V213.338H1548.47V247.836ZM1529.71 111.439H1540.5V74.2873H1529.71V111.439ZM1529.71 204.774H1540.5V167.623H1529.71V204.774ZM1512.82 111.439H1523.62V74.2873H1512.82V111.439ZM1512.82 159.059H1523.62V121.907H1512.82V159.059ZM1512.82 204.774H1523.62V167.623H1512.82V204.774ZM1512.82 247.836H1523.62V213.338H1512.82V247.836ZM1467.79 146.133H1473.19V114.288H1467.79V146.133ZM1467.79 186.133H1473.19V154.289H1467.79V186.133ZM1467.79 220.42H1473.19V188.575H1467.79V220.42ZM1467.79 260.421H1473.19V228.576H1467.79V260.421ZM1450.91 146.133H1456.3V114.288H1450.91V146.133ZM1450.91 186.133H1456.3V154.289H1450.91V186.133ZM1450.91 220.42H1456.3V188.575H1450.91V220.42ZM1450.91 260.421H1456.3V228.576H1450.91V260.421ZM1437.77 146.133H1443.17V114.288H1437.77V146.133ZM1437.77 186.133H1443.17V154.289H1437.77V186.133ZM1437.77 220.42H1443.17V188.575H1437.77V220.42ZM1437.77 260.421H1443.17V228.576H1437.77V260.421ZM1420.89 146.133H1426.29V114.288H1420.89V146.133ZM1420.89 186.133H1426.29V154.289H1420.89V186.133ZM1420.89 220.42H1426.29V188.575H1420.89V220.42ZM1420.89 260.421H1426.29V228.576H1420.89V260.421ZM1370.23 74.2222H1383.73V60.9537H1370.23V74.2222ZM1370.23 95.175H1383.73V81.9065H1370.23V95.175ZM1370.23 114.223H1383.73V100.955H1370.23V114.223ZM1370.23 135.176H1383.73V121.907H1370.23V135.176ZM1370.23 156.129H1383.73V142.86H1370.23V156.129ZM1370.23 178.986H1383.73V165.718H1370.23V178.986ZM1370.23 199.939H1383.73V186.671H1370.23V199.939ZM1370.23 220.892H1383.73V207.623H1370.23V220.892ZM1347.71 95.175H1361.21V81.9065H1347.71V95.175ZM1347.71 114.223H1361.21V100.955H1347.71V114.223ZM1347.71 156.129H1361.21V142.86H1347.71V156.129ZM1347.71 178.986H1361.21V165.718H1347.71V178.986ZM1347.71 199.939H1361.21V186.671H1347.71V199.939ZM1347.71 220.892H1361.21V207.623H1347.71V220.892ZM1323.32 74.2222H1336.82V60.9537H1323.32V74.2222ZM1323.32 95.175H1336.82V81.9065H1323.32V95.175ZM1323.32 114.223H1336.82V100.955H1323.32V114.223ZM1323.32 135.176H1336.82V121.907H1323.32V135.176ZM1323.32 156.129H1336.82V142.86H1323.32V156.129ZM1323.32 178.986H1336.82V165.718H1323.32V178.986ZM1323.32 220.892H1336.82V207.623H1323.32V220.892ZM1302.69 74.2222H1316.18V60.9537H1302.69V74.2222ZM1302.69 95.175H1316.18V81.9065H1302.69V95.175ZM1302.69 135.176H1316.18V121.907H1302.69V135.176ZM1302.69 156.129H1316.18V142.86H1302.69V156.129ZM1302.69 199.939H1316.18V186.671H1302.69V199.939ZM1302.69 220.892H1316.18V207.623H1302.69V220.892ZM1246.4 54.0182H1254.5V38.096H1246.4V54.0182ZM1246.4 90.2095H1254.5V74.2873H1246.4V90.2095ZM1246.4 120.686H1254.5V104.764H1246.4V120.686ZM1246.4 149.258H1254.5V133.336H1246.4V149.258ZM1246.4 177.83H1254.5V161.908H1246.4V177.83ZM1246.4 208.307H1254.5V192.385H1246.4V208.307ZM1246.4 236.879H1254.5V220.957H1246.4V236.879ZM1246.4 265.451H1254.5V249.529H1246.4V265.451ZM1229.51 54.0182H1237.61V38.096H1229.51V54.0182ZM1229.51 90.2095H1237.61V74.2873H1229.51V90.2095ZM1229.51 120.686H1237.61V104.764H1229.51V120.686ZM1229.51 149.258H1237.61V133.336H1229.51V149.258ZM1229.51 177.83H1237.61V161.908H1229.51V177.83ZM1229.51 208.307H1237.61V192.385H1229.51V208.307ZM1229.51 236.879H1237.61V220.957H1229.51V236.879ZM1229.51 265.451H1237.61V249.529H1229.51V265.451ZM1212.63 54.0182H1220.73V38.096H1212.63V54.0182ZM1212.63 90.2095H1220.73V74.2873H1212.63V90.2095ZM1212.63 120.686H1220.73V104.764H1212.63V120.686ZM1212.63 149.258H1220.73V133.336H1212.63V149.258ZM1212.63 177.83H1220.73V161.908H1212.63V177.83ZM1212.63 208.307H1220.73V192.385H1212.63V208.307ZM1212.63 236.879H1220.73V220.957H1212.63V236.879ZM1221.09 266.2V250.278H1212.99V247.624H1199.49V260.893H1212.99V266.2H1221.09ZM1137.58 151.098H1142.98V121.907H1137.58V151.098ZM1137.58 202.528H1142.98V173.337H1137.58V202.528ZM1137.58 255.862H1142.98V226.671H1137.58V255.862ZM1124.22 151.098V121.907H1118.82V127.215V151.098H1124.22ZM1118.82 202.528H1124.22V173.337H1118.82V202.528ZM1118.82 255.862H1124.22V226.671H1118.82V255.862ZM1100.06 151.098H1105.46V121.907H1100.06V151.098ZM1100.06 202.528H1105.46V173.337H1100.06V202.528ZM1100.06 255.862H1105.46V226.671H1100.06V255.862ZM1051.27 255.862H1056.67V226.671H1051.27V255.862ZM1032.51 255.862H1037.91V226.671H1032.51V255.862ZM1013.75 255.862H1019.15V226.671H1013.75V255.862ZM970.6 180.891H978.7V167.623H970.6V180.891ZM970.6 229.26H978.7V213.338H970.6V229.26ZM970.6 253.274H978.7V240.005H970.6V253.274ZM953.71 180.891H961.81V167.623H953.71V180.891ZM953.71 201.844H961.81V188.575H953.71V201.844ZM953.71 229.26H961.81V213.338H953.71V229.26ZM940.58 201.844H948.68V188.575H940.58V201.844ZM940.58 253.274H948.68V240.005H940.58V253.274ZM923.69 180.891H931.79V167.623H923.69V180.891ZM923.69 201.844H931.79V188.575H923.69V201.844ZM923.69 229.26H931.79V213.338H923.69V229.26ZM923.69 253.274H931.79V240.005H923.69V253.274Z" fill="#F7F6FA"/>
</svg>
