<svg width="1413" height="399" viewBox="0 0 1413 399" fill="none" xmlns="http://www.w3.org/2000/svg">
<rect x="298" y="0.5" width="1" height="398" fill="#96969C"/>
<rect x="577" y="0.5" width="1" height="398" fill="#96969C"/>
<rect x="855" y="0.5" width="1" height="398" fill="#96969C"/>
<rect x="1133" y="0.5" width="1" height="398" fill="#96969C"/>
<rect x="19" y="0.5" width="279" height="62" fill="#96969C"/>
<path d="M133.345 40.5H137.185V27.42H141.865V23.7H128.665V27.42H133.345V40.5ZM147.112 40.74C150.832 40.74 153.472 38.1 153.472 34.38C153.472 30.66 150.832 28.02 147.112 28.02C143.392 28.02 140.752 30.66 140.752 34.38C140.752 38.1 143.392 40.74 147.112 40.74ZM147.112 37.38C145.552 37.38 144.352 36.204 144.352 34.38C144.352 32.556 145.552 31.38 147.112 31.38C148.672 31.38 149.872 32.556 149.872 34.38C149.872 36.204 148.672 37.38 147.112 37.38ZM160.451 40.5H166.691C171.227 40.5 174.851 36.9 174.851 32.1C174.851 27.3 171.227 23.7 166.691 23.7H160.451V40.5ZM164.291 36.78V27.42H166.691C169.091 27.42 171.011 29.34 171.011 32.1C171.011 34.86 169.091 36.78 166.691 36.78H164.291ZM182.01 40.74C185.73 40.74 188.37 38.1 188.37 34.38C188.37 30.66 185.73 28.02 182.01 28.02C178.29 28.02 175.65 30.66 175.65 34.38C175.65 38.1 178.29 40.74 182.01 40.74ZM182.01 37.38C180.45 37.38 179.25 36.204 179.25 34.38C179.25 32.556 180.45 31.38 182.01 31.38C183.57 31.38 184.77 32.556 184.77 34.38C184.77 36.204 183.57 37.38 182.01 37.38Z" fill="white"/>
<rect x="298" y="0.5" width="279" height="62" fill="#0077B5"/>
<path d="M400.727 34.98C400.727 38.22 403.271 40.74 407.687 40.74C412.127 40.74 414.407 38.46 414.407 35.58C414.407 32.7 412.967 31.26 409.607 30.66L406.967 30.18C405.407 29.892 404.927 29.46 404.927 28.62C404.927 27.66 405.743 26.82 407.447 26.82C409.343 26.82 410.447 27.9 410.447 29.22H414.287C414.287 25.86 411.887 23.46 407.447 23.46C403.343 23.46 401.087 25.74 401.087 28.62C401.087 31.284 402.527 32.748 405.527 33.3L408.167 33.78C409.991 34.14 410.567 34.74 410.567 35.58C410.567 36.54 409.727 37.38 407.687 37.38C405.647 37.38 404.567 36.324 404.567 34.98H400.727ZM421.558 40.74C425.278 40.74 427.918 38.1 427.918 34.38C427.918 30.66 425.278 28.02 421.558 28.02C417.838 28.02 415.198 30.66 415.198 34.38C415.198 38.1 417.838 40.74 421.558 40.74ZM421.558 37.38C419.998 37.38 418.798 36.204 418.798 34.38C418.798 32.556 419.998 31.38 421.558 31.38C423.118 31.38 424.318 32.556 424.318 34.38C424.318 36.204 423.118 37.38 421.558 37.38ZM429.309 40.5H432.909V23.7H429.309V40.5ZM437.675 40.5H442.475L446.555 28.26H442.835L440.315 36.3H439.835L437.315 28.26H433.595L437.675 40.5ZM454.916 36.78C454.772 36.996 454.58 37.164 454.364 37.332C453.98 37.596 453.404 37.86 452.636 37.86C451.076 37.86 449.996 36.78 449.876 35.34H458.756L458.804 35.052C458.828 34.86 458.876 34.596 458.876 34.14C458.876 30.66 456.236 28.02 452.636 28.02C448.916 28.02 446.276 30.66 446.276 34.38C446.276 38.1 448.916 40.74 452.636 40.74C454.916 40.74 456.356 39.756 457.292 38.772C457.82 38.196 458.228 37.524 458.516 36.78H454.916ZM449.876 33.18C450.236 31.572 451.172 30.78 452.636 30.78C454.1 30.78 455.036 31.572 455.396 33.18H449.876ZM469.15 40.5H472.27V23.7H468.67V29.22H468.55C468.334 29.004 468.094 28.788 467.806 28.62C467.302 28.332 466.51 28.02 465.43 28.02C462.19 28.02 459.55 30.66 459.55 34.38C459.55 38.1 462.19 40.74 465.43 40.74C466.654 40.74 467.446 40.38 467.998 40.02C468.31 39.804 468.574 39.564 468.79 39.3H468.91L469.15 40.5ZM465.91 37.38C464.35 37.38 463.15 36.204 463.15 34.38C463.15 32.556 464.35 31.38 465.91 31.38C467.47 31.38 468.67 32.556 468.67 34.38C468.67 36.204 467.47 37.38 465.91 37.38Z" fill="white"/>
<rect x="577" y="0.5" width="278" height="62" fill="#FCA625"/>
<path d="M683.08 40.5H686.92V27.42H691.6V23.7H678.4V27.42H683.08V40.5ZM696.846 40.74C700.566 40.74 703.206 38.1 703.206 34.38C703.206 30.66 700.566 28.02 696.846 28.02C693.126 28.02 690.486 30.66 690.486 34.38C690.486 38.1 693.126 40.74 696.846 40.74ZM696.846 37.38C695.286 37.38 694.086 36.204 694.086 34.38C694.086 32.556 695.286 31.38 696.846 31.38C698.406 31.38 699.606 32.556 699.606 34.38C699.606 36.204 698.406 37.38 696.846 37.38ZM712.939 40.5H716.779V27.42H721.459V23.7H708.259V27.42H712.939V40.5ZM728.986 36.78C728.842 36.996 728.65 37.164 728.434 37.332C728.05 37.596 727.474 37.86 726.706 37.86C725.146 37.86 724.066 36.78 723.946 35.34H732.826L732.874 35.052C732.898 34.86 732.946 34.596 732.946 34.14C732.946 30.66 730.306 28.02 726.706 28.02C722.986 28.02 720.346 30.66 720.346 34.38C720.346 38.1 722.986 40.74 726.706 40.74C728.986 40.74 730.426 39.756 731.362 38.772C731.89 38.196 732.298 37.524 732.586 36.78H728.986ZM723.946 33.18C724.306 31.572 725.242 30.78 726.706 30.78C728.17 30.78 729.106 31.572 729.466 33.18H723.946ZM733.379 36.66C733.427 37.428 733.667 38.1 734.075 38.7C734.795 39.732 736.115 40.74 738.899 40.74C742.499 40.74 744.299 38.94 744.299 36.9C744.299 34.716 743.003 33.42 740.219 33.06L738.419 32.82C737.339 32.652 736.979 32.34 736.979 31.86C736.979 31.26 737.555 30.78 738.779 30.78C739.619 30.78 740.099 31.068 740.363 31.332C740.531 31.5 740.627 31.668 740.699 31.86H744.179C744.083 31.14 743.819 30.492 743.411 29.94C742.715 28.98 741.347 28.02 738.779 28.02C735.299 28.02 733.499 29.82 733.499 31.86C733.499 33.9 734.675 35.076 737.579 35.46L739.379 35.7C740.459 35.868 740.819 36.156 740.819 36.9C740.819 37.5 740.243 38.1 738.899 38.1C737.867 38.1 737.387 37.74 737.123 37.38C736.955 37.164 736.883 36.924 736.859 36.66H733.379ZM746.185 37.14C746.185 39.324 747.361 40.5 749.665 40.5H752.545V37.14H750.625C750.073 37.14 749.785 36.852 749.785 36.3V31.62H752.545V28.26H749.785V24.42H746.185V28.26H744.265V31.62H746.185V37.14Z" fill="white"/>
<rect x="855" y="0.5" width="279" height="62" fill="#FF6900"/>
<path d="M962.921 40.5H966.761V27.42H971.441V23.7H958.241V27.42H962.921V40.5ZM978.968 36.78C978.824 36.996 978.632 37.164 978.416 37.332C978.032 37.596 977.456 37.86 976.688 37.86C975.128 37.86 974.048 36.78 973.928 35.34H982.808L982.856 35.052C982.88 34.86 982.928 34.596 982.928 34.14C982.928 30.66 980.288 28.02 976.688 28.02C972.968 28.02 970.328 30.66 970.328 34.38C970.328 38.1 972.968 40.74 976.688 40.74C978.968 40.74 980.408 39.756 981.344 38.772C981.872 38.196 982.28 37.524 982.568 36.78H978.968ZM973.928 33.18C974.288 31.572 975.224 30.78 976.688 30.78C978.152 30.78 979.088 31.572 979.448 33.18H973.928ZM983.361 36.66C983.409 37.428 983.649 38.1 984.057 38.7C984.777 39.732 986.097 40.74 988.881 40.74C992.481 40.74 994.281 38.94 994.281 36.9C994.281 34.716 992.985 33.42 990.201 33.06L988.401 32.82C987.321 32.652 986.961 32.34 986.961 31.86C986.961 31.26 987.537 30.78 988.761 30.78C989.601 30.78 990.081 31.068 990.345 31.332C990.513 31.5 990.609 31.668 990.681 31.86H994.161C994.065 31.14 993.801 30.492 993.393 29.94C992.697 28.98 991.329 28.02 988.761 28.02C985.281 28.02 983.481 29.82 983.481 31.86C983.481 33.9 984.657 35.076 987.561 35.46L989.361 35.7C990.441 35.868 990.801 36.156 990.801 36.9C990.801 37.5 990.225 38.1 988.881 38.1C987.849 38.1 987.369 37.74 987.105 37.38C986.937 37.164 986.865 36.924 986.841 36.66H983.361ZM996.167 37.14C996.167 39.324 997.343 40.5 999.647 40.5H1002.53V37.14H1000.61C1000.05 37.14 999.767 36.852 999.767 36.3V31.62H1002.53V28.26H999.767V24.42H996.167V28.26H994.247V31.62H996.167V37.14ZM1011.73 36.78C1011.59 36.996 1011.4 37.164 1011.18 37.332C1010.8 37.596 1010.22 37.86 1009.45 37.86C1007.89 37.86 1006.81 36.78 1006.69 35.34H1015.57L1015.62 35.052C1015.65 34.86 1015.69 34.596 1015.69 34.14C1015.69 30.66 1013.05 28.02 1009.45 28.02C1005.73 28.02 1003.09 30.66 1003.09 34.38C1003.09 38.1 1005.73 40.74 1009.45 40.74C1011.73 40.74 1013.17 39.756 1014.11 38.772C1014.64 38.196 1015.05 37.524 1015.33 36.78H1011.73ZM1006.69 33.18C1007.05 31.572 1007.99 30.78 1009.45 30.78C1010.92 30.78 1011.85 31.572 1012.21 33.18H1006.69ZM1025.97 40.5H1029.09V23.7H1025.49V29.22H1025.37C1025.15 29.004 1024.91 28.788 1024.62 28.62C1024.12 28.332 1023.33 28.02 1022.25 28.02C1019.01 28.02 1016.37 30.66 1016.37 34.38C1016.37 38.1 1019.01 40.74 1022.25 40.74C1023.47 40.74 1024.26 40.38 1024.81 40.02C1025.13 39.804 1025.39 39.564 1025.61 39.3H1025.73L1025.97 40.5ZM1022.73 37.38C1021.17 37.38 1019.97 36.204 1019.97 34.38C1019.97 32.556 1021.17 31.38 1022.73 31.38C1024.29 31.38 1025.49 32.556 1025.49 34.38C1025.49 36.204 1024.29 37.38 1022.73 37.38Z" fill="white"/>
<rect x="1134" y="0.5" width="279" height="62" fill="#3EA84D"/>
<path d="M1223.37 40.5H1229.61C1234.15 40.5 1237.77 36.9 1237.77 32.1C1237.77 27.3 1234.15 23.7 1229.61 23.7H1223.37V40.5ZM1227.21 36.78V27.42H1229.61C1232.01 27.42 1233.93 29.34 1233.93 32.1C1233.93 34.86 1232.01 36.78 1229.61 36.78H1227.21ZM1247.21 36.78C1247.07 36.996 1246.88 37.164 1246.66 37.332C1246.28 37.596 1245.7 37.86 1244.93 37.86C1243.37 37.86 1242.29 36.78 1242.17 35.34H1251.05L1251.1 35.052C1251.13 34.86 1251.17 34.596 1251.17 34.14C1251.17 30.66 1248.53 28.02 1244.93 28.02C1241.21 28.02 1238.57 30.66 1238.57 34.38C1238.57 38.1 1241.21 40.74 1244.93 40.74C1247.21 40.74 1248.65 39.756 1249.59 38.772C1250.12 38.196 1250.53 37.524 1250.81 36.78H1247.21ZM1242.17 33.18C1242.53 31.572 1243.47 30.78 1244.93 30.78C1246.4 30.78 1247.33 31.572 1247.69 33.18H1242.17ZM1252.45 45.3H1256.05V39.54H1256.17C1256.38 39.756 1256.62 39.972 1256.91 40.14C1257.42 40.452 1258.21 40.74 1259.29 40.74C1262.53 40.74 1265.17 38.1 1265.17 34.38C1265.17 30.66 1262.53 28.02 1259.29 28.02C1258.06 28.02 1257.25 28.38 1256.7 28.74C1256.38 28.956 1256.12 29.196 1255.93 29.46H1255.81L1255.57 28.26H1252.45V45.3ZM1258.81 37.38C1257.25 37.38 1256.05 36.204 1256.05 34.38C1256.05 32.556 1257.25 31.38 1258.81 31.38C1260.37 31.38 1261.57 32.556 1261.57 34.38C1261.57 36.204 1260.37 37.38 1258.81 37.38ZM1266.57 40.5H1270.17V23.7H1266.57V40.5ZM1277.93 40.74C1281.65 40.74 1284.29 38.1 1284.29 34.38C1284.29 30.66 1281.65 28.02 1277.93 28.02C1274.21 28.02 1271.57 30.66 1271.57 34.38C1271.57 38.1 1274.21 40.74 1277.93 40.74ZM1277.93 37.38C1276.37 37.38 1275.17 36.204 1275.17 34.38C1275.17 32.556 1276.37 31.38 1277.93 31.38C1279.49 31.38 1280.69 32.556 1280.69 34.38C1280.69 36.204 1279.49 37.38 1277.93 37.38ZM1287.36 45.3H1291.32L1297.44 28.26H1293.6L1291.2 35.94H1290.72L1287.84 28.26H1284L1288.92 41.1L1287.36 45.3ZM1305.8 36.78C1305.66 36.996 1305.46 37.164 1305.25 37.332C1304.86 37.596 1304.29 37.86 1303.52 37.86C1301.96 37.86 1300.88 36.78 1300.76 35.34H1309.64L1309.69 35.052C1309.71 34.86 1309.76 34.596 1309.76 34.14C1309.76 30.66 1307.12 28.02 1303.52 28.02C1299.8 28.02 1297.16 30.66 1297.16 34.38C1297.16 38.1 1299.8 40.74 1303.52 40.74C1305.8 40.74 1307.24 39.756 1308.18 38.772C1308.7 38.196 1309.11 37.524 1309.4 36.78H1305.8ZM1300.76 33.18C1301.12 31.572 1302.06 30.78 1303.52 30.78C1304.98 30.78 1305.92 31.572 1306.28 33.18H1300.76ZM1320.03 40.5H1323.15V23.7H1319.55V29.22H1319.43C1319.22 29.004 1318.98 28.788 1318.69 28.62C1318.19 28.332 1317.39 28.02 1316.31 28.02C1313.07 28.02 1310.43 30.66 1310.43 34.38C1310.43 38.1 1313.07 40.74 1316.31 40.74C1317.54 40.74 1318.33 40.38 1318.88 40.02C1319.19 39.804 1319.46 39.564 1319.67 39.3H1319.79L1320.03 40.5ZM1316.79 37.38C1315.23 37.38 1314.03 36.204 1314.03 34.38C1314.03 32.556 1315.23 31.38 1316.79 31.38C1318.35 31.38 1319.55 32.556 1319.55 34.38C1319.55 36.204 1318.35 37.38 1316.79 37.38Z" fill="white"/>
<circle cx="438" cy="248" r="7" stroke="#0077B5" stroke-width="2"/>
<circle cx="719" cy="248" r="7" stroke="#FCA625" stroke-width="2"/>
<circle cx="1000" cy="248" r="7" stroke="#FF6900" stroke-width="2"/>
<circle cx="1281" cy="248" r="8" fill="#3EA84D"/>
<path d="M438 233C438 217.635 434.379 202.421 427.343 188.226C420.307 174.031 409.995 161.133 396.995 150.269C383.995 139.404 368.561 130.786 351.576 124.906C334.59 119.026 316.385 116 298 116C279.615 116 261.41 119.026 244.424 124.906C227.439 130.786 212.005 139.404 199.005 150.269C186.005 161.133 175.693 174.031 168.657 188.226C161.621 202.421 158 217.635 158 233" stroke="#96969C" stroke-dasharray="5.5 5.5"/>
<path d="M719 233C719 217.635 715.379 202.421 708.343 188.226C701.307 174.031 690.995 161.133 677.995 150.269C664.995 139.404 649.561 130.786 632.576 124.906C615.59 119.026 597.385 116 579 116C560.615 116 542.41 119.026 525.424 124.906C508.439 130.786 493.005 139.404 480.005 150.269C467.005 161.133 456.693 174.031 449.657 188.226C442.621 202.421 439 217.635 439 233" stroke="#96969C" stroke-dasharray="5.5 5.5"/>
<path d="M1000 233C1000 217.635 996.379 202.421 989.343 188.226C982.307 174.031 971.995 161.133 958.995 150.269C945.995 139.404 930.561 130.786 913.576 124.906C896.59 119.026 878.385 116 860 116C841.615 116 823.41 119.026 806.424 124.906C789.439 130.786 774.005 139.404 761.005 150.269C748.005 161.133 737.693 174.031 730.657 188.226C723.621 202.421 720 217.635 720 233" stroke="#96969C" stroke-dasharray="5.5 5.5"/>
<path d="M1280 233C1280 217.635 1276.38 202.421 1269.34 188.226C1262.31 174.031 1252 161.133 1238.99 150.269C1225.99 139.404 1210.56 130.786 1193.58 124.906C1176.59 119.026 1158.39 116 1140 116C1121.61 116 1103.41 119.026 1086.42 124.906C1069.44 130.786 1054.01 139.404 1041.01 150.269C1028 161.133 1017.69 174.031 1010.66 188.226C1003.62 202.421 1000 217.635 1000 233" stroke="#96969C" stroke-dasharray="5.5 5.5"/>
<g filter="url(#filter0_d)">
<rect x="10" y="158" width="295" height="150" rx="6" fill="white"/>
</g>
<circle cx="33" cy="279" r="8" fill="#C4C4C4"/>
<circle cx="47.3998" cy="279.3" r="2.1" fill="#C4C4C4"/>
<circle cx="53.6999" cy="279.3" r="2.1" fill="#C4C4C4"/>
<circle cx="59.2997" cy="279.3" r="2.1" fill="#C4C4C4"/>
<circle opacity="0.2" cx="65.5998" cy="279.3" r="2.1" fill="#C4C4C4"/>
<circle opacity="0.2" cx="71.8998" cy="279.3" r="2.1" fill="#C4C4C4"/>
<rect x="25" y="180" width="169" height="13" rx="6.5" fill="#C4C4C4"/>
<rect x="25" y="200" width="70" height="13" rx="6.5" fill="#C4C4C4"/>
<rect opacity="0.5" x="25" y="226" width="231" height="5" rx="2.5" fill="#C4C4C4"/>
<rect opacity="0.5" x="25" y="237" width="231" height="5" rx="2.5" fill="#C4C4C4"/>
<rect opacity="0.5" x="25" y="250" width="111" height="5" rx="2.5" fill="#C4C4C4"/>
<rect opacity="0.5" x="244" y="277" width="46" height="5" rx="2.5" fill="#C4C4C4"/>
<rect opacity="0.5" x="221" y="277" width="13" height="5" rx="2.5" fill="#C4C4C4"/>
<defs>
<filter id="filter0_d" x="0" y="158" width="315" height="175" filterUnits="userSpaceOnUse" color-interpolation-filters="sRGB">
<feFlood flood-opacity="0" result="BackgroundImageFix"/>
<feColorMatrix in="SourceAlpha" type="matrix" values="0 0 0 0 0 0 0 0 0 0 0 0 0 0 0 0 0 0 127 0"/>
<feOffset dy="15"/>
<feGaussianBlur stdDeviation="5"/>
<feColorMatrix type="matrix" values="0 0 0 0 0 0 0 0 0 0 0 0 0 0 0 0 0 0 0.05 0"/>
<feBlend mode="normal" in2="BackgroundImageFix" result="effect1_dropShadow"/>
<feBlend mode="normal" in="SourceGraphic" in2="effect1_dropShadow" result="shape"/>
</filter>
</defs>
</svg>
