<svg width="51" height="51" viewBox="0 0 51 51" fill="none" xmlns="http://www.w3.org/2000/svg">
<g clip-path="url(#clip0)">
<path d="M7.44164 17.0082C5.68165 17.0082 4.25488 18.4349 4.25488 20.1949V35.0664C4.25488 36.8264 5.68165 38.2532 7.44164 38.2532C9.20162 38.2532 10.6284 36.8264 10.6284 35.0664V20.1949C10.6284 18.4349 9.20162 17.0082 7.44164 17.0082Z" fill="#96969C"/>
<path d="M43.5581 17.0082C41.7981 17.0082 40.3713 18.4349 40.3713 20.1949V35.0664C40.3713 36.8264 41.7981 38.2532 43.5581 38.2532C45.3181 38.2532 46.7448 36.8264 46.7448 35.0664V20.1949C46.7448 18.4349 45.3182 17.0082 43.5581 17.0082Z" fill="#96969C"/>
<path d="M37.1847 17.0082H13.8152C13.2286 17.0082 12.7529 17.4838 12.7529 18.0705V35.0664C12.7524 37.5907 14.5286 39.7666 17.002 40.2715V47.8134C17.002 49.5734 18.4287 51.0002 20.1887 51.0002C21.9487 51.0002 23.3755 49.5734 23.3755 47.8134V40.3776H27.6245V47.8134C27.6245 49.5734 29.0513 51.0002 30.8113 51.0002C32.5712 51.0002 33.998 49.5734 33.998 47.8134V40.2715C36.4713 39.7666 38.2476 37.5907 38.2471 35.0664V18.0705C38.247 17.4838 37.7713 17.0082 37.1847 17.0082Z" fill="#96969C"/>
<path d="M33.2224 4.41395L35.8122 1.82631C36.2341 1.4187 36.2458 0.746297 35.8383 0.324251C35.4307 -0.0976947 34.7583 -0.109346 34.3362 0.29816C34.3274 0.306724 34.3187 0.315388 34.3101 0.324251L31.2934 3.34111C27.5985 1.73608 23.4033 1.73608 19.7084 3.34111L16.6917 0.32216C16.2697 -0.0854456 15.5972 -0.0736945 15.1896 0.348252C14.7921 0.75994 14.7921 1.41253 15.1896 1.82412L17.7772 4.41385C14.6227 6.50117 12.7333 10.0386 12.7528 13.8211C12.7528 14.4078 13.2285 14.8834 13.8151 14.8834H37.1847C37.7713 14.8834 38.247 14.4078 38.247 13.8211C38.2664 10.0387 36.377 6.50127 33.2224 4.41395Z" fill="#96969C"/>
<path d="M20.1888 10.6343C20.7754 10.6343 21.251 10.1587 21.251 9.57205C21.251 8.98537 20.7754 8.50977 20.1888 8.50977C19.6021 8.50977 19.1265 8.98537 19.1265 9.57205C19.1265 10.1587 19.6021 10.6343 20.1888 10.6343Z" fill="#FAFAFA"/>
<path d="M30.8111 10.6343C31.3978 10.6343 31.8734 10.1587 31.8734 9.57205C31.8734 8.98537 31.3978 8.50977 30.8111 8.50977C30.2244 8.50977 29.7488 8.98537 29.7488 9.57205C29.7488 10.1587 30.2244 10.6343 30.8111 10.6343Z" fill="#FAFAFA"/>
</g>
<defs>
<clipPath id="clip0">
<rect width="51" height="51" fill="white"/>
</clipPath>
</defs>
</svg>
