<svg width="51" height="51" viewBox="0 0 51 51" fill="none" xmlns="http://www.w3.org/2000/svg">
<g clip-path="url(#clip0)">
<path d="M35.0602 0C32.3413 0.188061 29.1634 1.92843 27.3115 4.19473C25.6221 6.25065 24.2324 9.30426 24.7742 12.2718C27.745 12.3642 30.8145 10.5824 32.5931 8.27789C34.257 6.13271 35.516 3.09823 35.0602 0Z" fill="#96969C"/>
<path d="M45.8053 17.1104C43.1947 13.8369 39.526 11.9371 36.0612 11.9371C31.4871 11.9371 29.5523 14.1269 26.3744 14.1269C23.0977 14.1269 20.6083 11.9435 16.6526 11.9435C12.7671 11.9435 8.62971 14.3182 6.00641 18.379C2.3185 24.0974 2.94962 34.8487 8.92614 44.0064C11.0649 47.2831 13.9209 50.9678 17.6567 50.9997C20.9812 51.0316 21.9183 48.8673 26.4222 48.845C30.9261 48.8195 31.7804 51.0284 35.0986 50.9933C38.8375 50.9647 41.8496 46.8815 43.9884 43.6048C45.5216 41.2556 46.0922 40.073 47.2811 37.421C38.6335 34.1284 37.2469 21.8311 45.8053 17.1104Z" fill="#96969C"/>
</g>
<defs>
<clipPath id="clip0">
<rect width="51" height="51" fill="white"/>
</clipPath>
</defs>
</svg>
