<svg width="51" height="51" viewBox="0 0 51 51" fill="none" xmlns="http://www.w3.org/2000/svg">
<path d="M51 29.1502V1.71484H0V29.1502H51ZM13.7145 7.17433H44.1443V10.1626H13.7145V7.17433ZM13.7145 14.0332H37.2855V17.0215H13.7145V14.0332ZM13.7145 20.892H44.1443V23.8803H13.7145V20.892ZM6.85571 7.17433H9.85027V10.1626H6.85571V7.17433ZM6.85571 14.0332H9.85027V17.0215H6.85571V14.0332ZM6.85571 20.892H9.85027V23.8803H6.85571V20.892Z" fill="#96969C"/>
<path d="M51 38.9971V32.1383H0V38.9971H18.8617V42.8108C18.8617 44.7331 17.2978 46.2971 15.3754 46.2971H11.7824V49.2854H39.2176V46.2971H35.6246C33.7022 46.2971 32.1383 44.7331 32.1383 42.8108V38.9971H51Z" fill="#96969C"/>
</svg>
