<svg width="396" height="70" viewBox="0 0 396 70" fill="none" xmlns="http://www.w3.org/2000/svg">
<path fill-rule="evenodd" clip-rule="evenodd" d="M33.7246 67.8V54.7983C47.4203 54.7983 57.9494 41.1586 52.7245 26.6414C50.8245 21.2971 46.5495 16.9898 41.2454 15.0755C26.8372 9.81103 13.2998 20.4995 13.2998 34.219H0.395752C0.395752 12.2837 21.4539 -4.86568 44.2537 2.31314C54.2286 5.42397 62.1452 13.4802 65.3119 23.5306C72.4368 46.5826 55.4953 67.8 33.7246 67.8Z" fill="#F2F2F2"/>
<path fill-rule="evenodd" clip-rule="evenodd" d="M33.7245 54.8779H20.8997V41.9561H33.7245V54.8779Z" fill="#F2F2F2"/>
<path fill-rule="evenodd" clip-rule="evenodd" d="M20.8999 64.8485H11.0042V54.8779H20.8999V64.8485Z" fill="#F2F2F2"/>
<path fill-rule="evenodd" clip-rule="evenodd" d="M11.0038 54.8776H2.69141V46.582H10.9247V54.8776H11.0038Z" fill="#F2F2F2"/>
<path fill-rule="evenodd" clip-rule="evenodd" d="M118.907 20.1806C115.107 17.5484 110.357 16.1924 104.815 16.1924H92.7822V54.7985H104.815C110.357 54.7985 115.107 53.3627 118.907 50.571C120.965 49.0554 122.628 46.9816 123.736 44.3493C124.844 41.7171 125.478 38.686 125.478 35.2561C125.478 31.8263 124.924 28.7952 123.736 26.2427C122.628 23.6105 121.044 21.5366 118.907 20.1806ZM99.828 22.6533H103.628C107.824 22.6533 111.307 23.451 113.92 25.126C116.849 26.8809 118.353 30.3107 118.353 35.1764C118.353 40.2016 116.849 43.7112 113.92 45.6256C111.386 47.3006 107.982 48.178 103.707 48.178H99.9072V22.6533H99.828Z" fill="#F2F2F2"/>
<path fill-rule="evenodd" clip-rule="evenodd" d="M133.948 15.6348C132.761 15.6348 131.811 16.0336 131.019 16.8312C130.228 17.6289 129.753 18.5861 129.753 19.7825C129.753 20.979 130.149 21.9362 130.94 22.8136C131.732 23.6112 132.761 24.0101 133.948 24.0101C135.136 24.0101 136.086 23.6112 136.957 22.8136C137.748 22.0159 138.144 20.979 138.144 19.7825C138.144 18.5861 137.748 17.6289 136.957 16.8312C136.086 16.1134 135.057 15.6348 133.948 15.6348Z" fill="#F2F2F2"/>
<path d="M137.274 27.5195H130.465V54.7193H137.274V27.5195Z" fill="#F2F2F2"/>
<path fill-rule="evenodd" clip-rule="evenodd" d="M161.894 29.8334C159.836 27.9989 157.54 26.9619 155.086 26.9619C151.365 26.9619 148.198 28.2381 145.823 30.8704C143.369 33.4229 142.182 36.6932 142.182 40.6017C142.182 44.4304 143.369 47.7007 145.744 50.333C148.119 52.8854 151.286 54.1617 155.007 54.1617C157.619 54.1617 159.836 53.4438 161.736 52.008V52.6462C161.736 54.8796 161.102 56.6344 159.994 57.8309C158.806 59.0273 157.144 59.6654 155.165 59.6654C151.998 59.6654 150.098 58.3892 147.644 55.1986L143.052 59.6654L143.211 59.825C144.24 61.2607 145.744 62.6167 147.723 63.893C149.702 65.1692 152.315 65.8871 155.244 65.8871C159.281 65.8871 162.527 64.6109 164.902 62.1382C167.277 59.6654 168.544 56.3153 168.544 52.2473V27.5203H161.894V29.8334ZM160.073 45.8662C158.886 47.2222 157.382 47.8603 155.402 47.8603C153.423 47.8603 151.919 47.2222 150.811 45.8662C149.623 44.5102 149.069 42.7553 149.069 40.5219C149.069 38.2885 149.623 36.5337 150.811 35.1777C151.998 33.8217 153.502 33.1836 155.402 33.1836C157.382 33.1836 158.886 33.8217 160.073 35.1777C161.261 36.5337 161.815 38.3683 161.815 40.5219C161.894 42.7553 161.261 44.5102 160.073 45.8662Z" fill="#F2F2F2"/>
<path d="M181.132 27.5195H174.323V54.7193H181.132V27.5195Z" fill="#F2F2F2"/>
<path fill-rule="evenodd" clip-rule="evenodd" d="M177.807 15.6348C176.619 15.6348 175.669 16.0336 174.878 16.8312C174.086 17.6289 173.611 18.5861 173.611 19.7825C173.611 20.979 174.007 21.9362 174.798 22.8136C175.59 23.6112 176.619 24.0101 177.807 24.0101C178.994 24.0101 179.944 23.6112 180.815 22.8136C181.607 22.0159 182.002 20.979 182.002 19.7825C182.002 18.5861 181.607 17.6289 180.815 16.8312C179.944 16.1134 178.994 15.6348 177.807 15.6348Z" fill="#F2F2F2"/>
<path fill-rule="evenodd" clip-rule="evenodd" d="M196.015 20.1816H189.365V27.52H185.486V33.7416H189.365V44.9885C189.365 48.4981 190.077 51.0506 191.423 52.4863C192.848 53.9221 195.302 54.7198 198.706 54.7198C199.815 54.7198 200.923 54.7198 202.031 54.64H202.348V48.4183L200.052 48.5779C198.469 48.5779 197.361 48.2588 196.806 47.7005C196.252 47.1421 196.015 45.9456 196.015 44.1111V33.8214H202.348V27.5998H196.015V20.1816Z" fill="#F2F2F2"/>
<path d="M240.981 16.1133H234.173V54.7194H240.981V16.1133Z" fill="#F2F2F2"/>
<path fill-rule="evenodd" clip-rule="evenodd" d="M309.459 44.9887C308.272 46.3447 307.005 47.5412 306.055 48.1793C305.105 48.8174 303.918 49.0567 302.572 49.0567C300.593 49.0567 298.93 48.3389 297.664 46.8233C296.397 45.3078 295.684 43.3934 295.684 41.0803C295.684 38.7671 296.318 36.8527 297.584 35.3372C298.851 33.8217 300.514 33.1038 302.493 33.1038C304.709 33.1038 307.005 34.4598 308.984 36.8527L313.497 32.5454C310.568 28.7167 306.847 26.9619 302.414 26.9619C298.693 26.9619 295.447 28.3179 292.835 31.0299C290.222 33.7419 288.876 37.092 288.876 41.16C288.876 45.228 290.222 48.6579 292.835 51.2901C295.447 54.0021 298.693 55.3582 302.414 55.3582C307.322 55.3582 311.28 53.2045 313.972 49.296L309.459 44.9887Z" fill="#F2F2F2"/>
<path fill-rule="evenodd" clip-rule="evenodd" d="M337.326 31.3487C336.376 29.9927 335.03 28.876 333.447 28.0783C331.864 27.2807 329.964 26.8818 327.826 26.8818C324.026 26.8818 320.939 28.3176 318.643 31.0296C316.347 33.8214 315.239 37.2513 315.239 41.2395C315.239 45.3873 316.505 48.7374 318.96 51.3696C321.414 53.9221 324.739 55.2781 328.776 55.2781C333.368 55.2781 337.089 53.4435 339.939 49.7743L340.097 49.6148L335.664 45.3075C335.268 45.7861 334.634 46.3444 334.159 46.9028C333.526 47.5409 332.893 48.0195 332.18 48.3386C331.151 48.8171 330.043 49.1362 328.776 49.1362C326.876 49.1362 325.372 48.5778 324.185 47.4611C323.076 46.4242 322.443 45.0682 322.285 43.3134H340.255L340.334 40.8407C340.334 39.0858 340.097 37.4108 339.622 35.8155C338.989 34.1404 338.276 32.7047 337.326 31.3487ZM322.522 37.7298C322.839 36.4536 323.472 35.3369 324.264 34.5393C325.214 33.6618 326.401 33.1833 327.826 33.1833C329.489 33.1833 330.755 33.6618 331.626 34.619C332.418 35.4964 332.893 36.5334 332.972 37.8096H322.522V37.7298Z" fill="#F2F2F2"/>
<path fill-rule="evenodd" clip-rule="evenodd" d="M363.371 29.5941C361.313 27.8393 358.463 26.9619 354.901 26.9619C352.605 26.9619 350.546 27.4405 348.647 28.3977C346.905 29.2751 345.163 30.7906 344.055 32.7847L344.134 32.8645L348.488 37.092C350.309 34.2205 352.288 33.1836 354.901 33.1836C356.326 33.1836 357.513 33.5824 358.384 34.3003C359.255 35.0181 359.73 35.9753 359.73 37.2516V38.6076C358.067 38.129 356.405 37.8099 354.742 37.8099C351.338 37.8099 348.647 38.6076 346.588 40.2029C344.53 41.7981 343.501 44.1113 343.501 46.9829C343.501 49.5353 344.372 51.6092 346.113 53.1247C347.855 54.6403 350.071 55.3582 352.684 55.3582C355.296 55.3582 357.671 54.3212 359.888 52.4866V54.72H366.538V37.2516C366.459 33.9014 365.43 31.349 363.371 29.5941ZM351.338 44.3506C352.13 43.7923 353.159 43.553 354.584 43.553C356.246 43.553 357.988 43.872 359.73 44.5102V47.1424C358.226 48.4984 356.246 49.2163 353.871 49.2163C352.684 49.2163 351.813 48.977 351.18 48.4186C350.546 47.94 350.23 47.3019 350.23 46.4245C350.23 45.5471 350.546 44.8292 351.338 44.3506Z" fill="#F2F2F2"/>
<path fill-rule="evenodd" clip-rule="evenodd" d="M392.584 30.0724C390.684 27.9188 388.071 26.8818 384.667 26.8818C381.976 26.8818 379.759 27.6795 378.176 29.195V27.52H371.526V54.7197H378.334V39.724C378.334 37.6501 378.809 36.0548 379.759 34.8583C380.709 33.6618 382.055 33.1035 383.796 33.1035C385.301 33.1035 386.488 33.5821 387.359 34.619C388.23 35.656 388.625 37.0917 388.625 38.9263V54.64H395.434V38.9263C395.434 35.1774 394.484 32.2261 392.584 30.0724Z" fill="#F2F2F2"/>
<path fill-rule="evenodd" clip-rule="evenodd" d="M225.623 29.5941C223.564 27.8393 220.714 26.9619 217.152 26.9619C214.856 26.9619 212.798 27.4405 210.898 28.3977C209.156 29.2751 207.414 30.7906 206.306 32.7847L206.385 32.8645L210.739 37.092C212.56 34.2205 214.539 33.1836 217.152 33.1836C218.577 33.1836 219.764 33.5824 220.635 34.3003C221.506 35.0181 221.981 35.9753 221.981 37.2516V38.6076C220.318 38.129 218.656 37.8099 216.994 37.8099C213.589 37.8099 210.898 38.6076 208.839 40.2029C206.781 41.7981 205.752 44.1113 205.752 46.9829C205.752 49.5353 206.623 51.6092 208.364 53.1247C210.106 54.6403 212.323 55.3582 214.935 55.3582C217.548 55.3582 219.923 54.3212 222.139 52.4866V54.72H228.789V37.2516C228.71 33.9014 227.681 31.349 225.623 29.5941ZM213.589 44.3506C214.381 43.7923 215.41 43.553 216.835 43.553C218.498 43.553 220.239 43.872 221.981 44.5102V47.1424C220.477 48.4984 218.498 49.2163 216.123 49.2163C214.935 49.2163 214.064 48.977 213.431 48.4186C212.798 47.94 212.481 47.3019 212.481 46.4245C212.481 45.5471 212.798 44.8292 213.589 44.3506Z" fill="#F2F2F2"/>
<path fill-rule="evenodd" clip-rule="evenodd" d="M265.522 55.2775C254.676 55.2775 245.81 46.3439 245.81 35.4161C245.81 24.4883 254.676 15.5547 265.522 15.5547C276.368 15.5547 285.234 24.4883 285.234 35.4161C285.234 46.3439 276.447 55.2775 265.522 55.2775ZM265.522 22.4942C258.476 22.4942 252.776 28.2373 252.776 35.3363C252.776 42.4354 258.476 48.1784 265.522 48.1784C272.568 48.1784 278.268 42.4354 278.268 35.3363C278.268 28.2373 272.568 22.4942 265.522 22.4942Z" fill="#F2F2F2"/>
</svg>
