<svg width="94" height="94" viewBox="0 0 94 94" fill="none" xmlns="http://www.w3.org/2000/svg">
<g clip-path="url(#clip0)">
<path d="M89.1432 76.4032C91.7916 72.2456 91.3405 66.8319 88.0406 63.1699C84.7407 59.5079 79.403 58.4977 74.9931 60.7005C74.4951 58.4325 73.1753 56.429 71.2879 55.0762L72.8154 51.7079C74.489 52.7193 76.0362 53.9263 77.4245 55.3034C78.0284 55.9019 78.9995 55.9096 79.6127 55.3206C80.2259 54.7316 80.2574 53.761 79.6837 53.1335C78.0245 51.4656 76.153 50.0234 74.1173 48.844L75.4223 45.9676C78.1002 47.3938 80.632 49.0787 82.9815 50.9982C83.4083 51.362 83.9967 51.4705 84.5252 51.2828C85.0537 51.0951 85.4419 50.6397 85.5435 50.0882C85.6452 49.5367 85.445 48.9728 85.0182 48.609C82.4492 46.4975 79.6706 44.6548 76.7258 43.11L78.023 40.2508C81.1936 41.8877 84.2129 43.8024 87.0454 45.9723C87.7255 46.5083 88.7114 46.3915 89.2474 45.7114C89.7834 45.0314 89.6666 44.0455 88.9865 43.5095C85.9572 41.1751 82.7187 39.1256 79.3124 37.387L80.6096 34.5247C84.2886 36.3098 87.7865 38.4462 91.0545 40.9041C91.3314 41.1234 91.6743 41.2426 92.0274 41.2425C92.2035 41.243 92.3784 41.2133 92.5444 41.1548C93.0509 40.9778 93.4316 40.554 93.5534 40.0315C95.4647 31.8143 90.8086 21.9208 85.6574 19.5849C80.5062 17.249 69.9907 20.2649 65.0714 27.1159C64.7582 27.5519 64.6901 28.118 64.8909 28.6158C65.0917 29.1137 65.5334 29.4741 66.0615 29.5709C70.0679 30.4097 73.9835 31.6349 77.7535 33.229L76.4532 36.0913C72.8969 34.6712 69.2168 33.5834 65.4599 32.8421C64.6085 32.6867 63.7924 33.251 63.6371 34.1024C63.4818 34.9538 64.0461 35.7699 64.8975 35.9253C68.4005 36.6259 71.8341 37.6373 75.1576 38.9474L73.8604 41.8065C70.7547 40.6052 67.5333 39.7279 64.2473 39.1886C63.6879 39.0941 63.1211 39.3093 62.7655 39.7514C62.4098 40.1934 62.321 40.7932 62.5332 41.3193C62.7454 41.8455 63.2255 42.2158 63.7883 42.2875C66.7838 42.789 69.7225 43.5851 72.5616 44.6641L71.2566 47.5405C69.0242 46.7834 66.7017 46.3241 64.3491 46.1744H64.2771C63.4118 46.1554 62.695 46.8413 62.6759 47.7066C62.6569 48.5718 63.3429 49.2887 64.2081 49.3077C66.1616 49.4385 68.0919 49.8067 69.9562 50.4044L68.4695 53.685C66.8709 53.1745 65.1606 53.1268 63.536 53.5471C62.4708 51.451 60.3179 50.1314 57.9665 50.1334C57.9752 45.4116 54.9551 41.2165 50.4746 39.7264C45.9941 38.2364 41.0631 39.7873 38.2422 43.5737C36.7775 41.4207 34.1325 40.3999 31.6011 41.0107L30.0783 41.3804L28.5962 35.2923C28.1868 33.6113 26.4923 32.5803 24.8112 32.9893L18.7215 34.4667C17.0419 34.8792 16.0117 36.5719 16.417 38.2533L17.9006 44.3414L16.3794 44.7111C14.7645 45.1044 13.372 46.123 12.5082 47.543C11.6444 48.963 11.3801 50.668 11.7734 52.2828L13.5437 59.5569C9.6425 59.7509 6.13958 62.007 4.34937 65.4787C2.55916 68.9503 2.75238 73.1124 4.85654 76.4032C1.10278 78.4693 -0.773679 82.8165 0.297486 86.9652C1.36865 91.114 5.1151 94.0094 9.39987 94H84.5999C88.8847 94.0094 92.6311 91.114 93.7023 86.9652C94.7734 82.8165 92.897 78.4693 89.1432 76.4032ZM84.3617 22.4378C87.5468 23.8823 91.1893 30.4921 90.8415 36.8762C84.2841 32.3334 76.9597 29.0131 69.2215 27.0752C73.8024 22.6055 81.1814 20.9934 84.3617 22.4378ZM21.4319 78.7282L19.6318 71.3366C19.5336 70.931 19.6012 70.503 19.8198 70.1475C20.0307 69.7976 20.3714 69.5454 20.7676 69.4457H20.7864L39.0537 64.9979H39.0788C39.9152 64.8013 40.7539 65.315 40.9588 66.1494L42.4894 72.4537C38.4116 72.9644 34.6932 75.0436 32.1228 78.2503C28.5574 77.8143 24.9442 77.9758 21.4319 78.7282ZM39.4626 60.0582C39.6663 60.8877 39.1637 61.7265 38.3362 61.9382H38.3111L20.0438 66.3875H20.0266C19.1897 66.5841 18.3508 66.0695 18.1466 65.2345C17.943 64.3949 18.4574 63.549 19.2965 63.3435L37.5701 58.9067C38.4107 58.7022 39.2579 59.2177 39.4626 60.0582ZM19.4626 37.517L25.5522 36.0334L27.0343 42.123L20.9462 43.6051L19.4626 37.517ZM15.184 49.1777C15.615 48.4677 16.3124 47.96 17.1204 47.7677L20.1644 47.0267L24.7313 45.9143L32.3421 44.061C32.5848 44.0021 32.8335 43.9722 33.0832 43.9717C34.5287 43.9711 35.7869 44.9595 36.1288 46.364L37.9806 53.9764C38.1842 54.816 37.6698 55.6619 36.8306 55.8674L18.5633 60.3167C17.7227 60.5212 16.8755 60.0057 16.6708 59.1652L14.8174 51.5434C14.6183 50.7375 14.7504 49.8855 15.184 49.1777ZM84.5999 90.8667H9.39987C6.25594 90.8774 3.59379 88.5502 3.18408 85.4331C2.77437 82.3159 4.74473 79.3799 7.78464 78.5778C8.32254 78.4335 8.74344 78.0145 8.89016 77.4773C9.03689 76.9401 8.88738 76.3653 8.49747 75.9677C6.29963 73.7129 5.66554 70.3612 6.88781 67.4593C8.11008 64.5575 10.9511 62.6695 14.0999 62.6667C14.5628 62.6712 15.0243 62.7184 15.4785 62.8077C14.4199 64.8949 15.0879 67.4441 17.0342 68.7438C16.4762 69.761 16.317 70.9495 16.5877 72.0777L18.4333 79.6556C17.0124 80.1659 15.6987 80.9357 14.5589 81.9257C14.1182 82.3754 13.9894 83.0452 14.2321 83.6262C14.4747 84.2072 15.0416 84.5864 15.6712 84.5891C16.0796 84.5909 16.4728 84.4342 16.7679 84.152C16.8118 84.1097 21.2439 80.0191 32.7119 81.4526C33.364 81.5274 33.995 81.1938 34.3005 80.6129C34.4101 80.392 37.2474 75.2 46.9999 75.2C47.8651 75.2 48.5665 74.4986 48.5665 73.6334C48.5665 72.7681 47.8651 72.0667 46.9999 72.0667C46.5299 72.0667 46.0724 72.0839 45.6243 72.1059L43.995 65.3974C43.7171 64.2722 43.0294 63.2913 42.0664 62.6463C43.2305 60.5381 42.5825 57.8894 40.5765 56.5567C41.1356 55.5393 41.2948 54.3499 41.023 53.2213L39.6287 47.4967C40.9162 43.9166 44.5898 41.7793 48.3383 42.4293C52.0869 43.0794 54.8264 46.3289 54.8332 50.1334C54.8399 50.6598 54.7874 51.1853 54.6765 51.7C54.5463 52.2681 54.7421 52.8615 55.1849 53.2404C55.6276 53.6193 56.2442 53.7212 56.7853 53.5048C57.6551 53.1659 58.6302 53.228 59.45 53.6748C60.2697 54.1215 60.8506 54.9072 61.0372 55.8219C61.1222 56.2958 61.4204 56.7043 61.8458 56.9297C62.2712 57.1551 62.7766 57.1724 63.2164 56.9766C64.0276 56.6052 64.9078 56.4088 65.7999 56.4C66.2617 56.4017 66.7219 56.4542 67.1723 56.5567L64.1314 63.2589C62.6242 62.8977 61.0827 62.6992 59.5332 62.6667C58.668 62.6667 57.9665 63.3681 57.9665 64.2334C57.9665 65.0986 58.668 65.8 59.5332 65.8C61.0999 65.8 65.6322 66.281 67.8256 68.4743C68.4403 69.0681 69.4174 69.0596 70.0218 68.4552C70.6261 67.8509 70.6346 66.8738 70.0408 66.2591C69.1879 65.4336 68.1962 64.7649 67.1112 64.2835L69.9562 58.0168C71.2918 59.194 72.0599 60.8864 72.0665 62.6667C72.0622 62.7985 72.0491 62.9299 72.0274 63.0599L71.9804 63.4391C71.9175 64.0849 72.2594 64.7027 72.8401 64.9925C73.4207 65.2823 74.1199 65.1841 74.5983 64.7457C77.7335 61.9902 82.4787 62.1771 85.3875 65.1707C88.2963 68.1643 88.3468 72.9129 85.5023 75.9677C85.1124 76.3653 84.9629 76.9401 85.1096 77.4773C85.2563 78.0145 85.6772 78.4335 86.2151 78.5778C89.255 79.3799 91.2254 82.3159 90.8157 85.4331C90.406 88.5502 87.7438 90.8774 84.5999 90.8667Z" fill="#96969C"/>
<path d="M45.4334 84.5996C46.2986 84.5996 47 83.8982 47 83.033C47 82.1677 46.2986 81.4663 45.4334 81.4663C44.5681 81.4663 43.8667 82.1677 43.8667 83.033C43.8667 83.8982 44.5681 84.5996 45.4334 84.5996Z" fill="#96969C"/>
<path d="M26.6333 87.7334C27.4986 87.7334 28.2 87.032 28.2 86.1668C28.2 85.3015 27.4986 84.6001 26.6333 84.6001C25.7681 84.6001 25.0667 85.3015 25.0667 86.1668C25.0667 87.032 25.7681 87.7334 26.6333 87.7334Z" fill="#96969C"/>
<path d="M47 51.7002C47.8653 51.7002 48.5667 50.9988 48.5667 50.1336C48.5667 49.2683 47.8653 48.5669 47 48.5669C46.1348 48.5669 45.4333 49.2683 45.4333 50.1336C45.4333 50.9988 46.1348 51.7002 47 51.7002Z" fill="#96969C"/>
<path d="M51.7 64.2334C52.5652 64.2334 53.2666 63.532 53.2666 62.6668C53.2666 61.8015 52.5652 61.1001 51.7 61.1001C50.8347 61.1001 50.1333 61.8015 50.1333 62.6668C50.1333 63.532 50.8347 64.2334 51.7 64.2334Z" fill="#96969C"/>
<path d="M70.5 86.1665C71.3653 86.1665 72.0667 85.4651 72.0667 84.5999C72.0667 83.7346 71.3653 83.0332 70.5 83.0332C69.6348 83.0332 68.9333 83.7346 68.9333 84.5999C68.9333 85.4651 69.6348 86.1665 70.5 86.1665Z" fill="#96969C"/>
<path d="M76.7666 75.2002C77.6319 75.2002 78.3333 74.4988 78.3333 73.6336C78.3333 72.7683 77.6319 72.0669 76.7666 72.0669C75.9014 72.0669 75.2 72.7683 75.2 73.6336C75.2 74.4988 75.9014 75.2002 76.7666 75.2002Z" fill="#96969C"/>
<path d="M82.4191 26.7179C82.775 25.9293 82.4243 25.0015 81.6357 24.6455C80.8471 24.2895 79.9193 24.6402 79.5632 25.4287C79.2072 26.2173 79.5578 27.1452 80.3464 27.5012C80.7251 27.6723 81.1563 27.6858 81.545 27.5389C81.9337 27.392 82.2481 27.0967 82.4191 26.7179Z" fill="#96969C"/>
<path d="M57.9666 72.0669C55.3709 72.0669 53.2666 74.1712 53.2666 76.7669C53.2666 79.3626 55.3709 81.4669 57.9666 81.4669C60.5623 81.4669 62.6666 79.3626 62.6666 76.7669C62.6666 74.1712 60.5623 72.0669 57.9666 72.0669ZM57.9666 78.3336C57.1014 78.3336 56.3999 77.6321 56.3999 76.7669C56.3999 75.9016 57.1014 75.2002 57.9666 75.2002C58.8318 75.2002 59.5333 75.9016 59.5333 76.7669C59.5333 77.6321 58.8318 78.3336 57.9666 78.3336Z" fill="#96969C"/>
<path d="M6.2666 9.39987C6.2666 11.9956 8.37086 14.0999 10.9666 14.0999H14.0999C16.4543 14.1084 18.4496 12.3692 18.7627 10.0357C19.0757 7.70229 17.6093 5.49867 15.336 4.88631L16.9701 2.43604C17.2807 1.97036 17.3193 1.37432 17.0713 0.872454C16.8234 0.370588 16.3265 0.0391366 15.7679 0.00295428C15.2093 -0.0332281 14.6738 0.231356 14.3631 0.697039L12.5333 3.44654L10.7034 0.697039C10.2232 -0.0228452 9.25032 -0.217139 8.53044 0.263073C7.81055 0.743284 7.61626 1.71615 8.09647 2.43604L9.7305 4.88631C7.69294 5.44172 6.27603 7.28799 6.2666 9.39987ZM10.9666 7.83321H14.0999C14.9652 7.83321 15.6666 8.53463 15.6666 9.39987C15.6666 10.2651 14.9652 10.9665 14.0999 10.9665H10.9666C10.1014 10.9665 9.39994 10.2651 9.39994 9.39987C9.39994 8.53463 10.1014 7.83321 10.9666 7.83321Z" fill="#96969C"/>
<path d="M36.0332 26.6331C36.0332 29.2289 38.1375 31.3331 40.7332 31.3331H43.8665C46.2209 31.3416 48.2162 29.6024 48.5293 27.269C48.8423 24.9355 47.3759 22.7319 45.1026 22.1195L46.7367 19.6693C47.0473 19.2036 47.0859 18.6076 46.8379 18.1057C46.59 17.6038 46.0931 17.2724 45.5345 17.2362C44.9759 17.2 44.4404 17.4646 44.1297 17.9303L42.2999 20.6798L40.47 17.935C39.9898 17.2151 39.0169 17.0208 38.297 17.501C37.5772 17.9812 37.3829 18.9541 37.8631 19.674L39.4971 22.1242C37.4612 22.6792 36.0447 24.523 36.0332 26.6331ZM40.7332 25.0664H43.8665C44.7318 25.0664 45.4332 25.7679 45.4332 26.6331C45.4332 27.4984 44.7318 28.1998 43.8665 28.1998H40.7332C39.868 28.1998 39.1665 27.4984 39.1665 26.6331C39.1665 25.7679 39.868 25.0664 40.7332 25.0664Z" fill="#96969C"/>
<path d="M64.2334 9.39987C64.2334 11.9956 66.3377 14.0999 68.9334 14.0999H72.0667C74.4211 14.1084 76.4164 12.3692 76.7295 10.0357C77.0425 7.70229 75.5761 5.49867 73.3028 4.88631L74.9369 2.43604C75.2475 1.97036 75.2861 1.37432 75.0381 0.872454C74.7902 0.370588 74.2933 0.0391366 73.7347 0.00295422C73.1761 -0.0332281 72.6406 0.231356 72.3299 0.697039L70.5001 3.44654L68.6702 0.697039C68.19 -0.0228452 67.2171 -0.217139 66.4972 0.263073C65.7773 0.743284 65.5831 1.71615 66.0633 2.43604L67.6973 4.88631C65.6597 5.44172 64.2428 7.28799 64.2334 9.39987ZM68.9334 7.83321H72.0667C72.932 7.83321 73.6334 8.53463 73.6334 9.39987C73.6334 10.2651 72.932 10.9665 72.0667 10.9665H68.9334C68.0682 10.9665 67.3667 10.2651 67.3667 9.39987C67.3667 8.53463 68.0682 7.83321 68.9334 7.83321Z" fill="#96969C"/>
</g>
<defs>
<clipPath id="clip0">
<rect width="94" height="94" fill="white"/>
</clipPath>
</defs>
</svg>
