<svg width="120" height="120" viewBox="0 0 120 120" fill="none" xmlns="http://www.w3.org/2000/svg">
<path d="M103.668 59.8209L92.2304 48.3834L94.772 45.8437C94.9244 45.6915 95.0454 45.5107 95.1279 45.3117C95.2104 45.1127 95.2529 44.8994 95.2529 44.684C95.2529 44.4686 95.2104 44.2553 95.1279 44.0563C95.0454 43.8573 94.9244 43.6765 94.772 43.5243L91.0735 39.8249C90.7657 39.5174 90.3485 39.3447 89.9134 39.3447C89.4783 39.3447 89.061 39.5174 88.7532 39.8249L86.2145 42.3637L84.4435 40.5937C84.1359 40.2862 83.7188 40.1136 83.2839 40.1136C82.8489 40.1136 82.4318 40.2862 82.1242 40.5937L72.5129 50.2077L47.3204 75.3993L46.8864 74.9652C46.7341 74.8128 46.5532 74.6918 46.3541 74.6093C46.1551 74.5267 45.9417 74.4843 45.7262 74.4843C45.5107 74.4843 45.2973 74.5267 45.0982 74.6093C44.8992 74.6918 44.7183 74.8128 44.566 74.9652L40.7607 78.7706C40.6083 78.9228 40.4873 79.1037 40.4048 79.3028C40.3222 79.5018 40.2798 79.7152 40.2798 79.9307C40.2798 80.1462 40.3222 80.3596 40.4048 80.5587C40.4873 80.7577 40.6083 80.9386 40.7607 81.0909L48.8185 89.1487L48.4642 89.5031C47.8379 90.1273 46.9897 90.4778 46.1054 90.4778C45.2212 90.4778 44.373 90.1273 43.7467 89.5031L36.7501 82.5055C35.7445 81.4998 34.5506 80.702 33.2367 80.1576C31.9227 79.6133 30.5144 79.3331 29.0921 79.3331C27.6699 79.3331 26.2616 79.6133 24.9476 80.1576C23.6336 80.702 22.4398 81.4998 21.4342 82.5055L16.3342 87.6055C16.1817 87.7578 16.0608 87.9385 15.9783 88.1375C15.8957 88.3365 15.8533 88.5498 15.8533 88.7652C15.8533 88.9807 15.8957 89.194 15.9783 89.393C16.0608 89.5919 16.1817 89.7727 16.3342 89.9249L20.312 93.9027C20.4642 94.0552 20.645 94.1761 20.8439 94.2586C21.0429 94.3412 21.2562 94.3836 21.4717 94.3836C21.6871 94.3836 21.9004 94.3412 22.0994 94.2586C22.2984 94.1761 22.4791 94.0552 22.6314 93.9027L26.7339 89.8012C27.3599 89.1768 28.208 88.8261 29.0921 88.8261C29.9763 88.8261 30.8244 89.1768 31.4504 89.8012L38.4489 96.7987C39.4545 97.8044 40.6483 98.6023 41.9623 99.1466C43.2762 99.6909 44.6846 99.9711 46.1068 99.9711C47.5291 99.9711 48.9374 99.6909 50.2514 99.1466C51.5653 98.6023 52.7592 97.8044 53.7648 96.7987L55.1176 95.4459L63.1801 103.508C63.488 103.816 63.9053 103.988 64.3403 103.988C64.7753 103.988 65.1925 103.816 65.5004 103.508L69.3057 99.7021C69.4582 99.5499 69.5791 99.3691 69.6616 99.1701C69.7442 98.9712 69.7866 98.7578 69.7866 98.5424C69.7866 98.327 69.7442 98.1137 69.6616 97.9147C69.5791 97.7157 69.4582 97.5349 69.3057 97.3827L68.8717 96.9477L77.3232 88.4962L103.674 62.1459C103.826 61.9931 103.947 61.8117 104.03 61.612C104.112 61.4123 104.155 61.1982 104.154 60.9822C104.154 60.7661 104.11 60.5523 104.027 60.353C103.943 60.1537 103.821 59.9729 103.668 59.8209ZM89.9129 43.3124L91.291 44.6905L89.9129 46.0687L88.5348 44.6905L89.9129 43.3124ZM51.4435 94.4812C50.7426 95.1824 49.9104 95.7386 48.9945 96.1181C48.0786 96.4976 47.0969 96.6929 46.1054 96.6929C45.114 96.6929 44.1323 96.4976 43.2163 96.1181C42.3004 95.7386 41.4682 95.1824 40.7673 94.4812L33.7689 87.4809C32.5272 86.242 30.8448 85.5462 29.0907 85.5462C27.3367 85.5462 25.6543 86.242 24.4126 87.4809L21.4689 90.4227L19.8114 88.7652L23.7489 84.8277C25.1648 83.4123 27.0849 82.6172 29.087 82.6172C31.0891 82.6172 33.0092 83.4123 34.4251 84.8277L41.4226 91.8262C42.6635 93.0669 44.3464 93.764 46.1012 93.764C47.856 93.764 49.5389 93.0669 50.7798 91.8262L51.1342 91.4718L52.7917 93.1293L51.4435 94.4812ZM64.3342 100.026L44.2407 79.9312L45.7257 78.4452L65.8192 98.5387L64.3342 100.026ZM49.6407 77.7187L73.6717 53.6887L78.3948 58.4118C79.0757 59.0935 79.4581 60.0176 79.4581 60.981C79.4581 61.9445 79.0757 62.8686 78.3948 63.5502L69.1135 72.8315C67.8189 74.1292 67.0919 75.8875 67.0919 77.7206C67.0919 79.5536 67.8189 81.3119 69.1135 82.6096L73.8367 87.3327L66.5439 94.6255L49.6407 77.7187ZM76.157 85.0124L71.4376 80.2893C70.7576 79.607 70.3758 78.6829 70.3758 77.7196C70.3758 76.7563 70.7576 75.8323 71.4376 75.1499L80.7188 65.8687C82.0137 64.5711 82.7409 62.8128 82.7409 60.9796C82.7409 59.1465 82.0137 57.3882 80.7188 56.0906L75.9957 51.3674L83.2885 44.0755L100.193 60.9787L76.157 85.0124Z" fill="#96969C"/>
<path d="M62.8558 46.3281C65.04 46.3261 67.1642 45.6135 68.9077 44.2979C70.6513 42.9823 71.9193 41.1351 72.5205 39.0352C74.044 39.0139 75.5403 38.6289 76.8848 37.9122C78.2294 37.1955 79.3832 36.1679 80.2502 34.9149C82.6193 36.0926 85.3557 36.2945 87.872 35.4774C88.3425 36.3532 89.023 37.0986 89.8525 37.6467C90.682 38.1947 91.6345 38.5284 92.6247 38.6177C93.6148 38.707 94.6117 38.5491 95.5258 38.1583C96.44 37.7675 97.2428 37.1559 97.8624 36.3784C98.482 35.6009 98.899 34.6818 99.0759 33.7035C99.2528 32.7252 99.1841 31.7182 98.8761 30.773C98.568 29.8277 98.0302 28.9737 97.3108 28.2875C96.5914 27.6013 95.713 27.1043 94.7542 26.8412C94.7823 26.5356 94.7964 26.229 94.7964 25.9234C94.7978 23.7311 94.0822 21.5984 92.7588 19.8506C91.4355 18.1028 89.5769 16.8356 87.4664 16.2423C85.3559 15.6489 83.1093 15.762 81.069 16.5642C79.0287 17.3664 77.3067 18.8137 76.1655 20.6856C74.6976 20.0467 73.0907 19.794 71.4977 19.9515C70.4328 18.1015 68.6819 16.7456 66.6242 16.1776C64.5666 15.6097 62.3681 15.8754 60.505 16.9172C58.6419 17.9591 57.2645 19.6931 56.6711 21.7436C56.0777 23.794 56.3162 25.9957 57.3349 27.8715C55.5257 29.059 54.1479 30.7986 53.4064 32.8317C52.6648 34.8647 52.599 37.0828 53.2187 39.1563C53.8383 41.2298 55.1105 43.048 56.8461 44.3407C58.5816 45.6335 60.6879 46.3318 62.852 46.3318L62.8558 46.3281ZM60.3798 29.9734C60.6301 29.8749 60.8524 29.7164 61.027 29.5118C61.2016 29.3073 61.3233 29.0629 61.3813 28.8003C61.4393 28.5376 61.4318 28.2648 61.3595 28.0057C61.2872 27.7466 61.1523 27.5093 60.9667 27.3146C60.469 26.7951 60.0936 26.171 59.8679 25.4879C59.6422 24.8047 59.5719 24.0798 59.6622 23.366C59.7524 22.6523 60.0009 21.9677 60.3895 21.3622C60.7781 20.7567 61.297 20.2457 61.9083 19.8663C62.5196 19.487 63.208 19.249 63.923 19.1696C64.6381 19.0903 65.3618 19.1716 66.0415 19.4077C66.7211 19.6438 67.3394 20.0287 67.8513 20.5343C68.3631 21.0398 68.7557 21.6533 69.0002 22.3299C69.1383 22.7078 69.4106 23.0216 69.7651 23.2118C70.1197 23.402 70.5318 23.4551 70.923 23.3612C71.7773 23.1444 72.6685 23.1151 73.5352 23.2753C74.402 23.4355 75.2238 23.7815 75.9442 24.2893C76.1492 24.4304 76.3835 24.5231 76.6295 24.5603C76.8755 24.5975 77.1267 24.5783 77.3642 24.5042C77.6017 24.43 77.8193 24.3029 78.0004 24.1323C78.1816 23.9617 78.3216 23.7522 78.4099 23.5196C79.0257 21.8756 80.256 20.5351 81.8413 19.781C83.4266 19.0269 85.2429 18.9181 86.9069 19.4776C88.5709 20.0371 89.9525 21.2211 90.7601 22.7798C91.5678 24.3385 91.7383 26.15 91.2358 27.8321C91.1606 28.0873 91.1486 28.357 91.2009 28.6178C91.2531 28.8787 91.368 29.1229 91.5356 29.3295C91.7033 29.5361 91.9186 29.6988 92.1632 29.8036C92.4077 29.9084 92.674 29.9522 92.9392 29.9312C93.0114 29.9246 93.0827 29.9162 93.1952 29.9012C93.7184 29.9053 94.2295 30.0595 94.6677 30.3453C95.106 30.6312 95.453 31.0368 95.6677 31.514C95.8823 31.9913 95.9555 32.52 95.8786 33.0376C95.8018 33.5552 95.578 34.0398 95.2339 34.4341C94.8898 34.8283 94.4399 35.1155 93.9374 35.2616C93.435 35.4078 92.9012 35.4067 92.3993 35.2586C91.8975 35.1104 91.4487 34.8214 91.1062 34.4258C90.7637 34.0302 90.5419 33.5447 90.467 33.0268C90.4288 32.7635 90.3271 32.5135 90.1708 32.2982C90.0144 32.0829 89.808 31.909 89.5694 31.7912C89.3308 31.6735 89.0671 31.6156 88.8012 31.6224C88.5352 31.6293 88.2749 31.7007 88.0427 31.8306C87.0333 32.3951 85.8963 32.692 84.7399 32.6931C83.2631 32.6948 81.8271 32.2094 80.6542 31.3121C80.456 31.1618 80.2262 31.0585 79.9822 31.01C79.7382 30.9616 79.4864 30.9693 79.2458 31.0325C79.0052 31.0957 78.7821 31.2128 78.5934 31.375C78.4047 31.5371 78.2554 31.74 78.1567 31.9684C77.6163 33.2495 76.6609 34.3118 75.444 34.9844C74.2271 35.6571 72.8193 35.901 71.447 35.6771C71.23 35.6446 71.0087 35.6558 70.7961 35.7101C70.5834 35.7645 70.3839 35.8609 70.2091 35.9936C70.0344 36.1263 69.8879 36.2927 69.7785 36.4829C69.6691 36.6732 69.5989 36.8834 69.572 37.1012C69.4268 38.2889 68.9693 39.4169 68.2463 40.3703C67.5233 41.3237 66.5606 42.0685 65.4561 42.5288C64.3517 42.9891 63.1449 43.1485 61.9588 42.9907C60.7727 42.8329 59.6496 42.3637 58.7039 41.6307C57.7581 40.8977 57.0235 39.9272 56.5749 38.8179C56.1262 37.7087 55.9795 36.5003 56.1497 35.316C56.32 34.1316 56.801 33.0135 57.5439 32.0755C58.2868 31.1375 59.265 30.4132 60.3789 29.9762L60.3798 29.9734Z" fill="#96969C"/>
</svg>
