<svg width="195" height="252" viewBox="0 0 195 252" fill="none" xmlns="http://www.w3.org/2000/svg">
<g opacity="0.5">
<path d="M159.174 78.505C159.174 78.505 149.049 105.114 129.867 99.3596C113.845 94.5528 114.764 72.8198 122.469 54.8899C135.82 23.8233 97.6933 0.0332031 97.6933 0.0332031C97.6933 0.0332031 98.2894 31.5435 74.0542 43.5459C53.2884 53.8305 47.5899 76.2622 57.2681 93.0155C66.2418 108.549 56.7244 117.968 48.3669 121.323C27.1064 129.859 14.7339 103.45 14.7339 103.45C5.78905 118.146 0.643555 135.405 0.643555 153.864C0.643555 207.292 43.7611 250.633 97.0967 251.023C72.71 250.636 52.981 230.69 52.9579 206.218C52.8457 196.522 55.1709 186.175 59.8678 175.462L62.4626 169.544L75.6077 173.386C77.7167 163.005 83.0368 153.76 91.2786 146.284C99.0503 139.234 106.633 136.244 107.472 135.926L116.423 132.537L117.392 142.059C118.383 151.8 120.9 159.86 125.085 166.7C128.838 172.825 132.321 177.963 136.392 183.792C140.492 189.672 142.727 197.626 142.689 206.195C142.686 218.169 138.018 229.428 129.547 237.899C121.077 246.369 109.81 251.033 97.8203 251.033H97.8217C151.492 251.033 195 207.535 195 153.865C195 123.461 181.033 96.3182 159.174 78.505Z" fill="#F2F2F2"/>
<path d="M150.512 200.528C150.556 191.252 148.317 182.672 144.368 176.989C138.221 168.16 131.557 158.394 124.519 146.873C118.347 136.752 113.878 125.593 111.012 113.078C99.8338 121.341 74.8215 117.176 74.3503 142.058L64.0516 151.878L54.5598 168.792C50.7246 179.933 48.8471 190.535 48.9684 200.421L48.9692 200.575C48.98 228.67 71.7523 251.511 99.7348 251.511C113.306 251.511 126.058 246.216 135.639 236.603C145.23 226.978 150.512 214.189 150.512 200.588V200.528Z" fill="#F2F2F2"/>
</g>
</svg>
