<svg width="831" height="115" viewBox="0 0 831 115" fill="none" xmlns="http://www.w3.org/2000/svg">
<path d="M372.756 25.2695H374.676V17.7095H382.836V15.9095H374.676V10.2695H383.316V8.46953H372.756V25.2695ZM385.086 25.2695H386.886V17.5895C386.886 15.8855 387.822 14.9495 389.526 14.9495H391.326V13.2695H389.286C387.966 13.2695 387.486 13.7735 387.006 14.4695H386.886L386.646 13.2695H385.086V25.2695ZM396.814 25.5095C400.054 25.5095 402.574 22.9895 402.574 19.2695C402.574 15.5495 400.054 13.0295 396.814 13.0295C393.574 13.0295 391.054 15.5495 391.054 19.2695C391.054 22.9895 393.574 25.5095 396.814 25.5095ZM396.814 23.8295C394.63 23.8295 392.854 22.0295 392.854 19.2695C392.854 16.5095 394.63 14.7095 396.814 14.7095C398.998 14.7095 400.774 16.5095 400.774 19.2695C400.774 22.0295 398.998 23.8295 396.814 23.8295ZM404.203 25.2695H406.003V18.0695C406.003 16.2695 407.563 14.7095 409.483 14.7095C411.283 14.7095 412.723 16.1495 412.723 18.0695V25.2695H414.523V18.0695C414.523 15.0695 412.483 13.0295 409.723 13.0295C408.499 13.0295 407.611 13.4375 407.011 13.8215C406.651 14.0375 406.363 14.3015 406.123 14.5895H406.003L405.763 13.2695H404.203V25.2695ZM417.262 23.2295C417.262 24.4535 418.078 25.2695 419.422 25.2695H421.822V23.5895H419.782C419.302 23.5895 419.062 23.3495 419.062 22.8695V14.9495H421.822V13.2695H419.062V9.90953H417.262V13.2695H415.342V14.9495H417.262V23.2295ZM431.39 21.9095C430.79 23.1335 429.59 23.8295 428.15 23.8295C426.134 23.8295 424.454 22.3895 424.19 20.1095H433.55L433.598 19.8215C433.622 19.6055 433.67 19.2695 433.67 18.7895C433.67 15.4295 431.294 13.0295 428.15 13.0295C424.91 13.0295 422.39 15.5495 422.39 19.2695C422.39 22.9895 424.91 25.5095 428.15 25.5095C430.67 25.5095 432.47 24.2135 433.31 21.9095H431.39ZM424.19 18.4295C424.454 16.2455 425.966 14.7095 428.15 14.7095C430.19 14.7095 431.75 16.2455 431.87 18.4295H424.19ZM435.305 25.2695H437.105V18.0695C437.105 16.2695 438.665 14.7095 440.585 14.7095C442.385 14.7095 443.825 16.1495 443.825 18.0695V25.2695H445.625V18.0695C445.625 15.0695 443.585 13.0295 440.825 13.0295C439.601 13.0295 438.713 13.4375 438.113 13.8215C437.753 14.0375 437.465 14.3015 437.225 14.5895H437.105L436.865 13.2695H435.305V25.2695ZM456.992 25.2695H458.552V8.46953H456.752V14.9495H456.632C455.672 13.7255 454.496 13.0295 452.792 13.0295C449.648 13.0295 447.272 15.5495 447.272 19.2695C447.272 22.9895 449.648 25.5095 452.792 25.5095C454.496 25.5095 455.672 24.8135 456.632 23.5895H456.752L456.992 25.2695ZM452.912 23.8295C450.872 23.8295 449.072 22.0295 449.072 19.2695C449.072 16.5095 450.872 14.7095 452.912 14.7095C454.952 14.7095 456.752 16.5095 456.752 19.2695C456.752 22.0295 454.952 23.8295 452.912 23.8295Z" fill="#96969C"/>
<g clip-path="url(#clip0)">
<path d="M179.202 61.3906H184.775V87.2795C181.916 87.8243 179.818 88.0422 177.538 88.0422C170.735 88.0419 167.188 84.9553 167.188 79.0351C167.188 73.333 170.952 69.6287 176.778 69.6287C177.682 69.6287 178.37 69.7011 179.202 69.919V61.3906ZM179.202 74.4222C178.551 74.2046 178.008 74.1319 177.321 74.1319C174.498 74.1319 172.87 75.8753 172.87 78.9259C172.87 81.9043 174.426 83.5385 177.285 83.5385C177.9 83.5385 178.406 83.5022 179.202 83.3935V74.4222Z" fill="#092E20"/>
<path d="M193.641 70.0275V82.9931C193.641 87.4604 193.315 89.603 192.338 91.4554C191.433 93.2354 190.239 94.3609 187.778 95.5959L182.604 93.1262C185.064 91.9641 186.258 90.9474 187.018 89.3852C187.814 87.7872 188.068 85.9349 188.068 81.0683V70.0275H193.641ZM188.068 61.4199H193.641V67.1583H188.068V61.4199Z" fill="#092E20"/>
<path d="M197.007 71.2982C199.467 70.1364 201.819 69.6279 204.389 69.6279C207.247 69.6279 209.129 70.3903 209.961 71.8795C210.432 72.7148 210.576 73.8043 210.576 76.129V87.4964C208.079 87.8595 204.931 88.114 202.615 88.114C197.948 88.114 195.848 86.479 195.848 82.8474C195.848 78.9248 198.635 77.109 205.474 76.5277V75.293C205.474 74.2762 204.968 73.9132 203.556 73.9132C201.494 73.9132 199.178 74.4943 197.006 75.6203V71.2982H197.007ZM205.728 80.1964C202.036 80.5595 200.842 81.1408 200.842 82.5935C200.842 83.6829 201.53 84.1914 203.05 84.1914C203.882 84.1914 204.642 84.119 205.728 83.9374V80.1964Z" fill="#092E20"/>
<path d="M213.291 70.8988C216.583 70.0272 219.297 69.6279 222.047 69.6279C224.906 69.6279 226.969 70.2814 228.2 71.5527C229.358 72.7509 229.719 74.0583 229.719 76.8553V87.8232H224.146V77.0732C224.146 74.9305 223.423 74.1311 221.433 74.1311C220.673 74.1311 219.985 74.2038 218.863 74.5306V87.8232H213.291V70.8988Z" fill="#092E20"/>
<path d="M231.886 90.8753C233.84 91.8921 235.794 92.364 237.856 92.364C241.511 92.364 243.067 90.8753 243.067 87.3158C243.067 87.2795 243.067 87.2432 243.067 87.2069C241.982 87.7514 240.896 87.9695 239.449 87.9695C234.563 87.9695 231.451 84.7371 231.451 79.6163C231.451 73.2601 236.047 69.665 244.189 69.665C246.577 69.665 248.785 69.919 251.462 70.4638L249.554 74.4981C248.071 74.2076 249.435 74.4592 248.314 74.3503V74.9316L248.386 77.2919L248.422 80.3429C248.459 81.1053 248.458 81.8682 248.495 82.6308C248.495 83.3208 248.495 83.6479 248.495 84.1563C248.495 88.9505 248.097 91.2021 246.903 93.0542C245.166 95.7784 242.162 97.1221 237.892 97.1221C235.721 97.1221 233.84 96.7952 231.885 96.0324V90.8753H231.886ZM242.959 74.1685C242.886 74.1685 242.814 74.1685 242.778 74.1685H242.38C241.295 74.1321 240.028 74.4224 239.159 74.9672C237.821 75.7301 237.133 77.1103 237.133 79.0714C237.133 81.8682 238.508 83.4661 240.969 83.4661C241.729 83.4661 242.344 83.3206 243.067 83.1029V82.7032V81.1782C243.067 80.5245 243.031 79.7977 243.031 79.0353L242.995 76.4568L242.959 74.6045V74.1685H242.959Z" fill="#092E20"/>
<path d="M260.114 69.5566C265.686 69.5566 269.088 73.0798 269.088 78.7816C269.088 84.6292 265.542 88.2974 259.896 88.2974C254.323 88.2974 250.886 84.7742 250.886 79.1087C250.886 73.2246 254.432 69.5566 260.114 69.5566ZM260.005 83.7935C262.14 83.7935 263.407 82.0138 263.407 78.9267C263.407 75.8761 262.176 74.0601 260.041 74.0601C257.834 74.0601 256.567 75.84 256.567 78.9267C256.567 82.014 257.834 83.7935 260.005 83.7935Z" fill="#092E20"/>
</g>
<path d="M52.6881 76.5271C52.6881 72.2773 51.4764 70.0956 49.0528 69.9761C48.0885 69.9306 47.147 70.0842 46.2311 70.4398C45.5 70.7015 45.0079 70.9603 44.7491 71.222V81.3656C46.2993 82.3384 47.6761 82.7907 48.8765 82.7196C51.4166 82.5518 52.6881 80.4895 52.6881 76.5271ZM55.6777 76.7034C55.6777 78.8624 55.1714 80.6545 54.1531 82.0796C53.0181 83.6924 51.4451 84.523 49.434 84.5685C47.9179 84.6169 46.3562 84.1419 44.7491 83.1463V92.3654L42.1492 91.4381V70.9745C42.5758 70.4512 43.1248 70.0017 43.7905 69.6206C45.3379 68.7188 47.2181 68.2552 49.4312 68.2324L49.4681 68.2694C51.4906 68.2438 53.0494 69.0744 54.1445 70.7584C55.1657 72.3029 55.6777 74.2827 55.6777 76.7034Z" fill="#646464"/>
<path d="M71.5675 82.7537C71.5675 85.6495 71.2774 87.6548 70.6971 88.7699C70.114 89.885 69.0046 90.7753 67.3661 91.4381C66.0378 91.9615 64.6013 92.2459 63.0595 92.2943L62.63 90.6558C64.1973 90.4425 65.301 90.2291 65.941 90.0158C67.2012 89.5891 68.0659 88.9349 68.5409 88.0588C68.9221 87.3448 69.1098 85.9823 69.1098 83.9655V83.2885C67.332 84.0963 65.4688 84.4974 63.5203 84.4974C62.2403 84.4974 61.111 84.0963 60.1382 83.2885C59.0459 82.4095 58.4998 81.2945 58.4998 79.9433V69.1228L61.0997 68.2324V79.1241C61.0997 80.2875 61.4751 81.1835 62.2261 81.8122C62.977 82.4408 63.9499 82.7423 65.1417 82.7196C66.3336 82.694 67.6108 82.2332 68.9676 81.3315V68.625H71.5675V82.7537Z" fill="#646464"/>
<path d="M81.7163 84.4278C81.4062 84.4534 81.1218 84.4648 80.8601 84.4648C79.3895 84.4648 78.2431 84.1149 77.4239 83.4123C76.6075 82.7097 76.1979 81.7397 76.1979 80.5024V70.2621H74.4172V68.6265H76.1979V64.2829L78.795 63.3584V68.6265H81.7163V70.2621H78.795V80.4312C78.795 81.4069 79.0567 82.0981 79.58 82.5021C80.0295 82.8349 80.7435 83.0255 81.7163 83.0738V84.4278Z" fill="#646464"/>
<path d="M97.4582 84.2153H94.8583V74.1798C94.8583 73.1586 94.6193 72.2797 94.1443 71.5458C93.5953 70.7152 92.833 70.2999 91.8544 70.2999C90.6626 70.2999 89.1721 70.9285 87.3829 72.1858V84.2153H84.783V60.2274L87.3829 59.4082V70.334C89.0441 69.1251 90.8589 68.5192 92.8301 68.5192C94.2069 68.5192 95.3219 68.9829 96.1753 69.9073C97.0315 70.8318 97.4582 71.9839 97.4582 73.3606V84.2153Z" fill="#646464"/>
<path d="M111.277 76.1174C111.277 74.4847 110.967 73.1364 110.349 72.0697C109.616 70.7697 108.475 70.0842 106.933 70.0131C104.083 70.1781 102.661 72.2204 102.661 76.1345C102.661 77.9294 102.956 79.4285 103.554 80.6317C104.316 82.1649 105.46 82.9216 106.984 82.896C109.846 82.8732 111.277 80.6146 111.277 76.1174ZM114.124 76.1345C114.124 78.4585 113.53 80.3928 112.343 81.9373C111.038 83.6668 109.234 84.5344 106.933 84.5344C104.652 84.5344 102.874 83.6668 101.591 81.9373C100.428 80.3928 99.8474 78.4585 99.8474 76.1345C99.8474 73.9499 100.476 72.1124 101.733 70.6161C103.062 69.0289 104.808 68.2324 106.967 68.2324C109.126 68.2324 110.884 69.0289 112.238 70.6161C113.495 72.1124 114.124 73.9499 114.124 76.1345Z" fill="#646464"/>
<path d="M129.029 84.213H126.43V73.6086C126.43 72.4452 126.08 71.5378 125.38 70.8835C124.68 70.2321 123.747 69.9164 122.584 69.942C121.349 69.9647 120.174 70.3687 119.059 71.1509V84.213H116.459V70.8295C117.956 69.74 119.332 69.0289 120.59 68.6961C121.776 68.386 122.823 68.2324 123.724 68.2324C124.342 68.2324 124.922 68.2922 125.468 68.4116C126.489 68.6477 127.32 69.0858 127.96 69.7286C128.674 70.4398 129.029 71.2931 129.029 72.2916V84.213Z" fill="#646464"/>
<path d="M16.4707 60.3216C15.1331 60.3278 13.8556 60.4419 12.7316 60.6408C9.42042 61.2257 8.81923 62.4501 8.81923 64.7082V67.6903H16.644V68.6844H8.81923H5.88266C3.60856 68.6844 1.61729 70.0513 0.994449 72.6515C0.276008 75.632 0.244141 77.4919 0.994449 80.604C1.55066 82.9205 2.87898 84.5711 5.15308 84.5711H7.84341V80.9961C7.84341 78.4134 10.078 76.1353 12.7316 76.1353H20.5473C22.7229 76.1353 24.4597 74.344 24.4597 72.159V64.7082C24.4597 62.5876 22.6707 60.9947 20.5473 60.6408C19.2031 60.417 17.8084 60.3153 16.4707 60.3216ZM12.2392 62.7201C13.0474 62.7201 13.7074 63.3909 13.7074 64.2157C13.7074 65.0376 13.0474 65.7022 12.2392 65.7022C11.428 65.7022 10.7709 65.0376 10.7709 64.2157C10.7709 63.3909 11.428 62.7201 12.2392 62.7201Z" fill="url(#paint0_linear)"/>
<path d="M25.4354 68.6865V72.1612C25.4354 74.855 23.1515 77.1223 20.5471 77.1223H12.7315C10.5906 77.1223 8.81909 78.9546 8.81909 81.0986V88.5494C8.81909 90.67 10.6631 91.9173 12.7315 92.5257C15.2084 93.254 17.5836 93.3856 20.5471 92.5257C22.5171 91.9553 24.4595 90.8075 24.4595 88.5494V85.5673H16.6439V84.5732H24.4595H28.3719C30.646 84.5732 31.4935 82.987 32.2843 80.6061C33.1013 78.155 33.0665 75.7979 32.2843 72.6536C31.7223 70.3898 30.6489 68.6865 28.3719 68.6865H25.4354ZM21.0396 87.5554C21.8508 87.5554 22.5079 88.22 22.5079 89.0419C22.5079 89.8667 21.8508 90.5375 21.0396 90.5375C20.2314 90.5375 19.5713 89.8667 19.5713 89.0419C19.5713 88.22 20.2314 87.5554 21.0396 87.5554Z" fill="url(#paint1_linear)"/>
<path d="M134.093 66.308H134.548V63.4492H135.628V63.1084H133.013V63.4492H134.093V66.308ZM136.032 66.308H136.422V63.697L137.267 66.3077H137.701L138.581 63.7058V66.308H139.006V63.1084H138.444L137.482 65.8495L136.661 63.1084H136.032V66.308Z" fill="#646464"/>
<path opacity="0.44382" d="M27.2185 97.589C27.2185 97.856 26.9473 98.1204 26.4204 98.3671C25.8934 98.6138 25.121 98.8379 24.1473 99.0267C23.1736 99.2155 22.0177 99.3653 20.7454 99.4675C19.4732 99.5697 18.1097 99.6223 16.7327 99.6223C15.3557 99.6223 13.9921 99.5697 12.7199 99.4675C11.4477 99.3653 10.2918 99.2155 9.31806 99.0267C8.34436 98.8379 7.57198 98.6138 7.04501 98.3671C6.51805 98.1204 6.24683 97.856 6.24683 97.589C6.24683 97.3219 6.51805 97.0575 7.04501 96.8108C7.57198 96.5642 8.34436 96.34 9.31806 96.1512C10.2918 95.9624 11.4477 95.8126 12.7199 95.7104C13.9921 95.6083 15.3557 95.5557 16.7327 95.5557C18.1097 95.5557 19.4732 95.6083 20.7454 95.7104C22.0177 95.8126 23.1736 95.9624 24.1473 96.1512C25.121 96.34 25.8934 96.5642 26.4204 96.8108C26.9473 97.0575 27.2185 97.3219 27.2185 97.589Z" fill="url(#paint2_radial)"/>
<path d="M607.388 89.4615C608.693 91.0958 610.023 93.1507 610.719 94.3919C611.566 96.0054 611.918 97.095 612.548 99.0464C612.917 100.115 613.268 100.439 614.005 100.439C614.811 100.439 615.18 99.8946 615.462 99.0464C616.051 97.2156 616.506 95.8227 617.226 94.4953C620.002 89.2546 624.529 85.531 627.078 80.4282C627.078 80.4282 628.755 77.3114 628.755 72.9464C628.755 68.878 627.102 66.0508 627.102 66.0508L607.398 89.496L607.388 89.4615Z" fill="#34A853"/>
<path d="M600.705 79.8726C602.293 83.4928 605.321 86.6648 607.388 89.4575L618.342 76.4592C618.342 76.4592 616.795 78.4866 614.002 78.4866C610.888 78.4866 608.352 76.0041 608.352 72.8666C608.352 70.7083 609.637 69.2119 609.637 69.2119C601.577 70.4118 602.024 72.3667 600.681 79.8657L600.705 79.8726Z" fill="#FBBC04"/>
<path d="M618.479 58.7646C622.131 59.9404 625.231 62.4193 627.091 66.0396L618.341 76.4865C618.341 76.4865 619.626 74.9832 619.626 72.8318C619.626 69.6287 616.926 67.2118 614.011 67.2118C611.245 67.2118 609.671 69.215 609.671 69.215C610.343 67.6842 617.284 59.2853 618.49 58.7681L618.479 58.7646Z" fill="#4285F4"/>
<path d="M602.703 63.3601C604.88 60.7674 608.697 58.085 613.967 58.085C616.513 58.085 618.445 58.7607 618.445 58.7607L609.661 69.2076C609.069 68.886 603.289 64.3807 602.703 63.3463V63.3601Z" fill="#1A73E8"/>
<path d="M600.705 79.8732C600.705 79.8732 599.269 77.0184 599.269 72.9086C599.269 69.0125 600.791 65.5992 602.713 63.3926L609.672 69.2539L600.715 79.8732H600.705Z" fill="#EA4335"/>
<path fill-rule="evenodd" clip-rule="evenodd" d="M738.665 79.805L746.289 76.6348C745.865 75.5658 744.613 74.8285 743.122 74.8285C741.216 74.8193 738.573 76.5058 738.665 79.805ZM747.615 82.8738L750.524 84.8091C749.585 86.2006 747.329 88.5967 743.416 88.5967C738.573 88.5967 735.074 84.8459 735.074 80.063C735.074 74.9852 738.601 71.5293 743.002 71.5293C747.044 71.6676 749.557 74.2756 750.69 77.925L739.273 82.6434C740.148 84.3575 741.501 85.233 743.407 85.233C745.304 85.233 746.63 84.293 747.596 82.8738H747.615ZM729.09 88.0806H732.837V63.0141H729.09V88.0806ZM722.976 80.0907C722.976 77.0864 720.969 74.8838 718.418 74.8838C715.84 74.8838 713.667 77.0864 713.667 80.0907C713.667 83.0673 715.831 85.233 718.418 85.233C720.978 85.233 722.976 83.0673 722.976 80.0907ZM726.272 72.0454V87.3434C726.272 93.6469 722.562 96.2364 718.17 96.2364C714.036 96.2364 711.55 93.4533 710.611 91.1955L713.87 89.8408C714.45 91.2324 715.877 92.882 718.17 92.882C722.359 92.4055 722.727 89.6933 722.727 86.643H722.589C721.751 87.6751 720.131 88.5875 718.096 88.5875C713.833 88.5875 709.92 84.8736 709.92 80.0814C709.92 75.2617 713.824 71.5109 718.096 71.5109C720.131 71.5109 721.751 72.414 722.589 73.4185H722.718V72.027C722.718 72.0178 726.272 72.0178 726.272 72.0178V72.0454ZM685.392 80.063C685.392 76.9942 683.2 74.893 680.668 74.893C678.127 74.893 675.945 76.9942 675.945 80.063C675.945 83.1042 678.136 85.233 680.668 85.233C683.2 85.233 685.392 83.095 685.392 80.063ZM689.075 80.063C689.075 84.9749 685.3 88.5967 680.668 88.5967C676.037 88.5967 672.262 84.9749 672.262 80.063C672.262 75.1142 676.037 71.5293 680.668 71.5293C685.3 71.5293 689.075 75.1142 689.075 80.063ZM704.267 80.063C704.267 76.9942 702.075 74.893 699.543 74.893C697.002 74.893 694.82 76.9942 694.82 80.063C694.82 83.1042 697.011 85.233 699.543 85.233C702.075 85.233 704.267 83.095 704.267 80.063ZM707.95 80.063C707.95 84.9749 704.175 88.5967 699.543 88.5967C694.912 88.5967 691.137 84.9749 691.137 80.063C691.137 75.1142 694.912 71.5293 699.543 71.5293C704.175 71.5293 707.95 75.1142 707.95 80.063ZM657.862 88.5967C650.57 88.5967 644.419 82.6434 644.419 75.3262C644.419 68.0182 650.56 62.0557 657.862 62.0557C661.904 62.0557 664.777 63.6407 666.94 65.7143L664.39 68.267C662.843 66.8109 660.744 65.6774 657.862 65.6774C652.531 65.6774 648.378 69.9811 648.378 75.2617C648.378 80.5975 652.549 84.8459 657.862 84.8459C661.315 84.8459 663.285 83.4544 664.546 82.1918C665.578 81.1597 666.259 79.6667 666.517 77.6301H657.862V74.0083H670.016C670.144 74.6534 670.209 75.4275 670.209 76.2662C670.209 78.9848 669.463 82.3485 667.078 84.7353C664.758 87.1775 661.784 88.4769 657.871 88.4769" fill="#5F6368"/>
<path d="M759.487 87.8895V65.6055H762.362L770.094 79.1781H770.211L777.943 65.6055H780.818V87.8895H777.944L778.06 70.9334H777.944L770.989 83.1449H769.318L762.363 70.9334H762.246C762.458 76.5734 762.363 82.2504 762.363 87.8895H759.487ZM789.793 88.2784C788.161 88.2784 786.84 87.8117 785.752 86.8783C784.664 85.945 784.121 84.7005 784.121 83.1828C784.121 81.5106 784.781 80.2272 786.063 79.2938C787.345 78.3605 788.939 77.8938 790.804 77.8938C792.474 77.8938 793.873 78.2049 794.922 78.8272C794.894 75.5925 792.661 74.7048 790.92 74.7048C789.277 74.783 787.851 75.4709 787.268 76.9215L784.664 75.7937C785.014 74.8993 785.714 74.0428 786.763 73.2659C787.812 72.489 789.172 72.0992 790.881 72.0992C792.824 72.0992 794.456 72.6825 795.738 73.8103C797.02 74.9382 797.681 76.5715 797.681 78.6327V87.8497H794.961V85.7496C793.69 87.3441 791.973 88.2424 789.793 88.2774V88.2784ZM794.922 81.2004C793.248 79.9248 789.754 79.7653 788.123 81.0837C786.84 82.3282 786.704 83.9966 788.045 84.9727C791.285 87.0533 795.039 83.8138 794.922 81.2004ZM808.832 88.2784C807.667 88.2784 806.617 88.045 805.724 87.5395C804.83 87.0339 804.131 86.4116 803.665 85.6727H803.509L803.626 87.7728V94.5008H800.789V72.5279H803.509V74.628H803.626C804.092 73.8891 804.752 73.2668 805.685 72.7612C806.617 72.2557 807.667 72.0223 808.793 72.0223C810.775 72.0223 812.446 72.8001 813.883 74.3557C815.321 75.9113 816.019 77.8558 816.019 80.1503C816.019 82.4449 815.32 84.3894 813.883 85.945C812.485 87.5006 810.775 88.2784 808.832 88.2784ZM808.366 85.6338C809.687 85.6338 810.814 85.1283 811.785 84.1171C812.757 83.106 813.223 81.7837 813.223 80.1115C813.223 78.4392 812.757 77.1169 811.785 76.1058C810.814 75.0946 809.687 74.5891 808.366 74.5891C807.006 74.5891 805.879 75.0946 804.947 76.0669C804.014 77.078 803.548 78.4003 803.548 80.0726C803.548 81.7448 804.014 83.106 804.947 84.0782C805.879 85.1672 807.006 85.6338 808.366 85.6338ZM824.374 88.2784C822.665 88.2784 821.266 87.8506 820.178 87.0339C819.051 86.2172 818.274 85.1672 817.73 83.9227L820.294 82.8727C821.11 84.7783 822.47 85.7505 824.413 85.7505C825.307 85.7505 826.045 85.557 826.589 85.1672C827.172 84.7783 827.444 84.2727 827.444 83.6116C827.444 82.6004 826.744 81.9393 825.346 81.5893L822.276 80.8504C821.305 80.617 820.372 80.1115 819.517 79.4503C818.662 78.7892 818.196 77.8169 818.196 76.6502C818.196 75.2891 818.779 74.2002 819.984 73.3835C821.188 72.5279 822.587 72.139 824.219 72.139C825.579 72.139 826.783 72.4501 827.832 73.0724C828.881 73.6946 829.658 74.5502 830.086 75.7169L827.599 76.728C827.055 75.3669 825.889 74.7057 824.102 74.7057C823.247 74.7057 822.548 74.8993 821.966 75.2502C821.384 75.6011 821.111 76.0669 821.111 76.6891C821.111 77.5447 821.772 78.167 823.132 78.4781L826.162 79.1781C827.6 79.5281 828.649 80.0726 829.348 80.8893C830.048 81.706 830.359 82.6004 830.359 83.6116C830.359 84.9727 829.815 86.1394 828.688 87.0339C827.6 87.8117 826.162 88.2784 824.375 88.2784H824.374Z" fill="#63666A"/>
<rect x="297.541" y="44.1895" width="70.1386" height="70.1386"/>
<path d="M400.119 80.132C400.119 82.142 399.763 83.9043 399.053 85.4188C398.342 86.9333 397.323 88.102 395.996 88.9247C394.677 89.7474 393.163 90.1587 391.452 90.1587C389.76 90.1587 388.25 89.7521 386.922 88.9387C385.595 88.1253 384.567 86.9661 383.837 85.4609C383.108 83.9464 382.739 82.2074 382.729 80.2442V79.2345C382.729 77.2245 383.089 75.4575 383.809 73.9336C384.539 72.4004 385.562 71.2271 386.88 70.4137C388.208 69.591 389.723 69.1797 391.424 69.1797C393.126 69.1797 394.635 69.591 395.954 70.4137C397.281 71.2271 398.305 72.4004 399.025 73.9336C399.754 75.4575 400.119 77.2198 400.119 79.2205V80.132ZM395.855 79.2064C395.855 77.0655 395.472 75.4388 394.705 74.3263C393.939 73.2138 392.845 72.6575 391.424 72.6575C390.012 72.6575 388.923 73.2091 388.157 74.3123C387.39 75.4061 387.002 77.0141 386.993 79.1363V80.132C386.993 82.2168 387.376 83.8342 388.143 84.9841C388.909 86.134 390.012 86.709 391.452 86.709C392.864 86.709 393.948 86.1574 394.705 85.0542C395.463 83.9417 395.846 82.3243 395.855 80.2021V79.2064Z" fill="black"/>
<path d="M416.568 82.4318C416.568 84.7691 416.035 86.6435 414.969 88.0552C413.913 89.4576 412.483 90.1587 410.678 90.1587C409.145 90.1587 407.906 89.6258 406.962 88.5601V95.712H402.909V74.7049H406.667L406.808 76.1914C407.789 75.0134 409.07 74.4244 410.65 74.4244C412.52 74.4244 413.974 75.1163 415.011 76.4999C416.049 77.8836 416.568 79.7907 416.568 82.2215V82.4318ZM412.515 82.1373C412.515 80.7256 412.263 79.6365 411.758 78.8699C411.262 78.1033 410.538 77.72 409.584 77.72C408.313 77.72 407.439 78.2061 406.962 79.1784V85.3908C407.457 86.3911 408.341 86.8913 409.612 86.8913C411.548 86.8913 412.515 85.3066 412.515 82.1373Z" fill="black"/>
<path d="M426.076 90.1587C423.851 90.1587 422.037 89.4763 420.635 88.1113C419.242 86.7464 418.545 84.928 418.545 82.6562V82.2635C418.545 80.7397 418.84 79.3794 419.429 78.1827C420.018 76.9767 420.85 76.0512 421.925 75.4061C423.009 74.7517 424.244 74.4244 425.627 74.4244C427.703 74.4244 429.334 75.0789 430.521 76.3877C431.718 77.6966 432.316 79.5523 432.316 81.955V83.6098H422.654C422.785 84.6008 423.178 85.3954 423.832 85.9938C424.496 86.5921 425.333 86.8913 426.342 86.8913C427.904 86.8913 429.124 86.3257 430.002 85.1944L431.994 87.4242C431.386 88.2843 430.563 88.9574 429.526 89.4435C428.488 89.9203 427.338 90.1587 426.076 90.1587ZM425.613 77.7059C424.809 77.7059 424.155 77.977 423.65 78.5193C423.154 79.0615 422.836 79.8375 422.696 80.8472H428.334V80.5246C428.315 79.6271 428.072 78.9353 427.604 78.4492C427.137 77.9537 426.473 77.7059 425.613 77.7059Z" fill="black"/>
<path d="M438.36 74.7049L438.487 76.4578C439.571 75.1022 441.025 74.4244 442.848 74.4244C444.456 74.4244 445.653 74.8966 446.438 75.8408C447.223 76.7851 447.625 78.1967 447.644 80.0759V89.8783H443.591V80.1741C443.591 79.3139 443.404 78.6922 443.03 78.3089C442.656 77.9163 442.035 77.72 441.165 77.72C440.025 77.72 439.169 78.2061 438.599 79.1784V89.8783H434.546V74.7049H438.36Z" fill="black"/>
<path d="M461.583 84.5213C461.583 83.7267 461.303 83.119 460.742 82.6983C460.181 82.2682 459.171 81.8195 457.713 81.352C456.254 80.8752 455.1 80.4078 454.249 79.9497C451.93 78.6969 450.771 77.0094 450.771 74.8872C450.771 73.784 451.08 72.8024 451.697 71.9423C452.323 71.0728 453.216 70.3951 454.375 69.9089C455.544 69.4228 456.853 69.1797 458.302 69.1797C459.76 69.1797 461.06 69.4461 462.2 69.979C463.341 70.5026 464.224 71.2458 464.851 72.2087C465.486 73.1717 465.804 74.2655 465.804 75.4902H461.597C461.597 74.5553 461.303 73.8308 460.714 73.3166C460.125 72.7931 459.297 72.5313 458.232 72.5313C457.203 72.5313 456.404 72.751 455.834 73.1904C455.263 73.6204 454.978 74.1907 454.978 74.9012C454.978 75.565 455.31 76.1213 455.974 76.57C456.647 77.0188 457.633 77.4395 458.933 77.8321C461.326 78.552 463.07 79.4448 464.164 80.5106C465.257 81.5764 465.804 82.9039 465.804 84.4933C465.804 86.2602 465.136 87.6485 463.799 88.6582C462.462 89.6586 460.662 90.1587 458.4 90.1587C456.829 90.1587 455.399 89.8736 454.109 89.3033C452.819 88.7237 451.832 87.9337 451.15 86.9333C450.477 85.933 450.14 84.7737 450.14 83.4555H454.361C454.361 85.7086 455.707 86.8352 458.4 86.8352C459.4 86.8352 460.181 86.6342 460.742 86.2322C461.303 85.8208 461.583 85.2505 461.583 84.5213Z" fill="black"/>
<path d="M473.251 70.9747V74.7049H475.845V77.6779H473.251V85.2505C473.251 85.8115 473.358 86.2135 473.573 86.4565C473.788 86.6996 474.2 86.8212 474.807 86.8212C475.256 86.8212 475.653 86.7884 475.999 86.723V89.7941C475.205 90.0372 474.387 90.1587 473.545 90.1587C470.703 90.1587 469.254 88.7237 469.198 85.8535V77.6779H466.982V74.7049H469.198V70.9747H473.251Z" fill="black"/>
<path d="M486.629 78.5053C486.077 78.4305 485.591 78.3931 485.171 78.3931C483.637 78.3931 482.632 78.9119 482.156 79.9497V89.8783H478.103V74.7049H481.931L482.043 76.5139C482.857 75.1209 483.983 74.4244 485.423 74.4244C485.872 74.4244 486.292 74.4852 486.685 74.6068L486.629 78.5053Z" fill="black"/>
<path d="M495.296 90.1587C493.07 90.1587 491.257 89.4763 489.854 88.1113C488.461 86.7464 487.765 84.928 487.765 82.6562V82.2635C487.765 80.7397 488.059 79.3794 488.648 78.1827C489.237 76.9767 490.069 76.0512 491.145 75.4061C492.229 74.7517 493.463 74.4244 494.847 74.4244C496.922 74.4244 498.554 75.0789 499.741 76.3877C500.938 77.6966 501.536 79.5523 501.536 81.955V83.6098H491.874C492.005 84.6008 492.397 85.3954 493.052 85.9938C493.716 86.5921 494.552 86.8913 495.562 86.8913C497.123 86.8913 498.343 86.3257 499.222 85.1944L501.213 87.4242C500.606 88.2843 499.783 88.9574 498.745 89.4435C497.708 89.9203 496.558 90.1587 495.296 90.1587ZM494.833 77.7059C494.029 77.7059 493.374 77.977 492.869 78.5193C492.374 79.0615 492.056 79.8375 491.916 80.8472H497.553V80.5246C497.535 79.6271 497.292 78.9353 496.824 78.4492C496.357 77.9537 495.693 77.7059 494.833 77.7059Z" fill="black"/>
<path d="M510.833 90.1587C508.608 90.1587 506.795 89.4763 505.392 88.1113C503.999 86.7464 503.303 84.928 503.303 82.6562V82.2635C503.303 80.7397 503.597 79.3794 504.186 78.1827C504.775 76.9767 505.607 76.0512 506.683 75.4061C507.767 74.7517 509.001 74.4244 510.385 74.4244C512.46 74.4244 514.092 75.0789 515.279 76.3877C516.476 77.6966 517.074 79.5523 517.074 81.955V83.6098H507.412C507.543 84.6008 507.935 85.3954 508.59 85.9938C509.254 86.5921 510.09 86.8913 511.1 86.8913C512.661 86.8913 513.881 86.3257 514.76 85.1944L516.751 87.4242C516.144 88.2843 515.321 88.9574 514.283 89.4435C513.245 89.9203 512.096 90.1587 510.833 90.1587ZM510.371 77.7059C509.567 77.7059 508.912 77.977 508.407 78.5193C507.912 79.0615 507.594 79.8375 507.454 80.8472H513.091V80.5246C513.073 79.6271 512.829 78.9353 512.362 78.4492C511.895 77.9537 511.231 77.7059 510.371 77.7059Z" fill="black"/>
<path d="M524.24 70.9747V74.7049H526.834V77.6779H524.24V85.2505C524.24 85.8115 524.347 86.2135 524.562 86.4565C524.777 86.6996 525.189 86.8212 525.796 86.8212C526.245 86.8212 526.643 86.7884 526.988 86.723V89.7941C526.194 90.0372 525.376 90.1587 524.534 90.1587C521.692 90.1587 520.243 88.7237 520.187 85.8535V77.6779H517.971V74.7049H520.187V70.9747H524.24Z" fill="black"/>
<path d="M534.856 69.4602L540.1 84.2689L545.317 69.4602H550.842V89.8783H546.621V84.2969L547.042 74.6628L541.531 89.8783H538.642L533.145 74.6769L533.565 84.2969V89.8783H529.358V69.4602H534.856Z" fill="black"/>
<path d="M563.043 89.8783C562.856 89.5137 562.72 89.0602 562.636 88.518C561.654 89.6118 560.378 90.1587 558.808 90.1587C557.321 90.1587 556.087 89.7287 555.105 88.8686C554.133 88.0085 553.647 86.924 553.647 85.6151C553.647 84.0071 554.241 82.7731 555.428 81.913C556.625 81.0529 558.35 80.6181 560.603 80.6088H562.468V79.7393C562.468 79.0382 562.285 78.4772 561.921 78.0565C561.566 77.6358 561 77.4255 560.224 77.4255C559.542 77.4255 559.004 77.5891 558.611 77.9163C558.228 78.2435 558.036 78.6922 558.036 79.2625H553.984C553.984 78.3837 554.255 77.5704 554.797 76.8225C555.339 76.0745 556.106 75.4902 557.097 75.0695C558.088 74.6395 559.2 74.4244 560.434 74.4244C562.304 74.4244 563.786 74.8966 564.88 75.8408C565.983 76.7757 566.535 78.0939 566.535 79.7954V86.3724C566.544 87.8121 566.745 88.9013 567.138 89.6399V89.8783H563.043ZM559.691 87.0596C560.289 87.0596 560.841 86.9287 561.346 86.6669C561.851 86.3958 562.225 86.0358 562.468 85.5871V82.9787H560.953C558.924 82.9787 557.845 83.6799 557.714 85.0823L557.7 85.3207C557.7 85.8255 557.877 86.2415 558.233 86.5687C558.588 86.8959 559.074 87.0596 559.691 87.0596Z" fill="black"/>
<path d="M583.307 82.4318C583.307 84.7691 582.774 86.6435 581.708 88.0552C580.651 89.4576 579.221 90.1587 577.417 90.1587C575.883 90.1587 574.645 89.6258 573.7 88.5601V95.712H569.648V74.7049H573.406L573.546 76.1914C574.528 75.0134 575.809 74.4244 577.389 74.4244C579.258 74.4244 580.712 75.1163 581.75 76.4999C582.788 77.8836 583.307 79.7907 583.307 82.2215V82.4318ZM579.254 82.1373C579.254 80.7256 579.001 79.6365 578.496 78.8699C578.001 78.1033 577.276 77.72 576.323 77.72C575.051 77.72 574.177 78.2061 573.7 79.1784V85.3908C574.196 86.3911 575.079 86.8913 576.351 86.8913C578.286 86.8913 579.254 85.3066 579.254 82.1373Z" fill="black"/>
<defs>
<linearGradient id="paint0_linear" x1="0.443604" y1="60.3213" x2="18.4867" y2="75.6965" gradientUnits="userSpaceOnUse">
<stop stop-color="#5A9FD4"/>
<stop offset="1" stop-color="#306998"/>
</linearGradient>
<linearGradient id="paint1_linear" x1="20.8516" y1="88.7912" x2="14.3784" y2="79.7203" gradientUnits="userSpaceOnUse">
<stop stop-color="#FFD43B"/>
<stop offset="1" stop-color="#FFE873"/>
</linearGradient>
<radialGradient id="paint2_radial" cx="0" cy="0" r="1" gradientUnits="userSpaceOnUse" gradientTransform="translate(16.7327 97.589) rotate(-90) scale(2.0333 8.93719)">
<stop stop-color="#B8B8B8" stop-opacity="0.498039"/>
<stop offset="1" stop-color="#7F7F7F" stop-opacity="0"/>
</radialGradient>
<clipPath id="clip0">
<rect width="101.9" height="35.731" fill="white" transform="translate(167.188 61.3906)"/>
</clipPath>
</defs>
</svg>
