<svg width="747" height="162" viewBox="0 0 747 162" fill="none" xmlns="http://www.w3.org/2000/svg">
<path fill-rule="evenodd" clip-rule="evenodd" d="M164.362 67.0914C165.061 72.6239 165.295 77.2352 165.295 81.1522C165.295 127.95 131.445 161.605 84.2816 161.605C36.8889 161.605 0 126.335 0 80.9249C0 35.7426 36.6546 0.241211 83.5827 0.241211C118.367 0.241211 148.949 16.3804 159.922 46.5723L122.803 57.183C113.697 39.6596 98.7568 35.0484 83.5827 35.0484C58.135 35.0484 38.7553 54.8733 38.7553 80.9249C38.7553 107.204 58.5996 127.029 84.7462 127.029C105.293 127.029 120.238 116.423 126.071 99.3657H78.2096V67.0914H164.362ZM272.447 100.286C272.447 82.3077 258.671 70.3211 244.195 70.3211C229.022 70.3211 215.245 82.3077 215.245 100.286C215.245 118.495 229.022 130.255 244.195 130.255C258.671 130.255 272.447 118.495 272.447 100.286ZM308.403 100.286C308.403 136.94 278.984 161.376 244.195 161.376C208.712 161.376 179.294 136.94 179.294 100.286C179.294 63.863 208.712 39.4309 244.195 39.4309C278.984 39.4309 308.403 63.863 308.403 100.286ZM388.238 125.185C417.423 125.185 436.568 107.665 436.568 80.9276C436.568 54.1859 417.423 36.6626 388.238 36.6626H366.294V125.185H388.238ZM389.64 3.69825C441.238 3.69825 475.323 35.0511 475.323 80.9276C475.323 126.797 441.238 158.149 389.64 158.149H327.772V3.69825H389.64ZM526.675 87.1489H575.001C571.502 74.7036 562.161 68.9355 551.424 68.9355C540.915 68.9355 530.177 75.3937 526.675 87.1489ZM611.894 109.734H525.976C529.01 123.572 538.581 132.096 551.189 132.096C559.826 132.096 569.866 130.026 576.173 118.73L609.324 125.415C599.284 149.847 578.039 161.606 551.189 161.606C517.339 161.606 489.321 136.943 489.321 100.284C489.321 63.8657 517.339 38.9709 551.424 38.9709C584.575 38.9709 611.19 62.4815 611.894 100.284V109.734ZM660.911 87.1489H709.237C705.735 74.7036 696.399 68.9355 685.66 68.9355C675.152 68.9355 664.414 75.3937 660.911 87.1489ZM746.127 109.734H660.213C663.246 123.572 672.817 132.096 685.427 132.096C694.064 132.096 704.102 130.026 710.409 118.73L743.561 125.415C733.522 149.847 712.276 161.606 685.427 161.606C651.575 161.606 623.558 136.943 623.558 100.284C623.558 63.8657 651.575 38.9709 685.66 38.9709C718.813 38.9709 745.428 62.4815 746.127 100.284V109.734Z" fill="#F2F2F2"/>
</svg>
