<svg width="577" height="126" viewBox="0 0 577 126" fill="none" xmlns="http://www.w3.org/2000/svg">
<path fill-rule="evenodd" clip-rule="evenodd" d="M127.106 52.3054C127.646 56.5839 127.827 60.1499 127.827 63.179C127.827 99.3691 101.65 125.395 65.1772 125.395C28.5272 125.395 0 98.12 0 63.0032C0 28.0625 28.346 0.608398 64.6368 0.608398C91.5361 0.608398 115.187 13.0893 123.672 36.4374L94.9666 44.643C87.9246 31.0917 76.3713 27.5258 64.6368 27.5258C44.9574 27.5258 29.9705 42.8569 29.9705 63.0032C29.9705 83.3255 45.3166 98.6568 65.5365 98.6568C81.4262 98.6568 92.9829 90.4545 97.4943 77.264H60.4816V52.3054H127.106ZM210.69 77.9755C210.69 64.0726 200.037 54.803 188.843 54.803C177.109 54.803 166.455 64.0726 166.455 77.9755C166.455 92.057 177.109 101.151 188.843 101.151C200.037 101.151 210.69 92.057 210.69 77.9755ZM238.496 77.9755C238.496 106.321 215.746 125.218 188.843 125.218C161.403 125.218 138.653 106.321 138.653 77.9755C138.653 49.8088 161.403 30.9149 188.843 30.9149C215.746 30.9149 238.496 49.8088 238.496 77.9755ZM300.235 97.2306C322.804 97.2306 337.61 83.6822 337.61 63.0054C337.61 42.3253 322.804 28.7741 300.235 28.7741H283.265V97.2306H300.235ZM301.319 3.28182C341.221 3.28182 367.58 27.5278 367.58 63.0054C367.58 98.477 341.221 122.722 301.319 122.722H253.475V3.28182H301.319ZM407.292 67.8164H444.663C441.958 58.1922 434.734 53.7316 426.431 53.7316C418.304 53.7316 410 58.7258 407.292 67.8164ZM473.194 85.2822H406.751C409.097 95.9833 416.499 102.575 426.249 102.575C432.928 102.575 440.692 100.974 445.57 92.2387L471.207 97.4086C463.443 116.302 447.013 125.396 426.249 125.396C400.072 125.396 378.405 106.323 378.405 77.9744C378.405 49.8109 400.072 30.5591 426.431 30.5591C452.068 30.5591 472.65 48.7405 473.194 77.9744V85.2822ZM511.101 67.8164H548.472C545.764 58.1922 538.544 53.7316 530.24 53.7316C522.113 53.7316 513.809 58.7258 511.101 67.8164ZM577 85.2822H510.56C512.906 95.9833 520.308 102.575 530.059 102.575C536.738 102.575 544.501 100.974 549.379 92.2387L575.015 97.4086C567.253 116.302 550.822 125.396 530.059 125.396C503.881 125.396 482.214 106.323 482.214 77.9744C482.214 49.8109 503.881 30.5591 530.24 30.5591C555.877 30.5591 576.46 48.7405 577 77.9744V85.2822Z" fill="#FF6900"/>
</svg>
