<svg width="46" height="33" viewBox="0 0 46 33" fill="none" xmlns="http://www.w3.org/2000/svg">
<path d="M33.125 16.5C36.23 16.5 38.7275 13.98 38.7275 10.875C38.7275 7.77 36.23 5.25 33.125 5.25C30.02 5.25 27.5 7.77 27.5 10.875C27.5 13.98 30.02 16.5 33.125 16.5ZM16.25 14.25C19.985 14.25 22.9775 11.235 22.9775 7.5C22.9775 3.765 19.985 0.75 16.25 0.75C12.515 0.75 9.5 3.765 9.5 7.5C9.5 11.235 12.515 14.25 16.25 14.25ZM33.125 21C29.0075 21 20.75 23.07 20.75 27.1875V32.25H45.5V27.1875C45.5 23.07 37.2425 21 33.125 21ZM16.25 18.75C11.0075 18.75 0.5 21.3825 0.5 26.625V32.25H16.25V27.1875C16.25 25.275 16.9925 21.9225 21.5825 19.38C19.625 18.975 17.735 18.75 16.25 18.75Z" fill="#9F9F9F"/>
</svg>
