<svg width="1680" height="390" viewBox="0 0 1680 390" fill="none" xmlns="http://www.w3.org/2000/svg">
<g clip-path="url(#clip0)">
<path fill-rule="evenodd" clip-rule="evenodd" d="M917.45 291.977V148.677H987.64V291.977H1003.84V201.751H998.44C997.77 181.715 1013.25 164.845 1033.53 161.946V148.677H1041.63V161.946C1055.45 163.088 1066.01 170.519 1071.33 180.522V151.331H1090.22V116.833H1084.82C1084.3 95.5677 1101.88 78.2328 1119.92 77.0276V55.798H1128.01V77.0276C1150.42 79.4101 1165.9 96.2804 1165.81 116.833H1157.71V151.331H1176.61V291.977H1190.1V63.7591H1206.3V23.9536H1230.59V0.0703125H1238.69V23.9536H1265.69V63.7591H1279.19V291.977H1292.68V23.9536H1395.26V291.977H1408.76V87.6424H1489.75V291.977H1505.94V45.1832H1603.12V291.977H1616.62V23.9536H1697.61V291.977H1705.71V143.37H1800.19V291.977H1810.99V183.175H1851.48V172.56H1846.08C1845.98 143.851 1870.06 119.631 1897.37 116.833V84.9887H1905.47V116.833C1937.59 118.466 1961.66 143.851 1962.16 172.56H1954.06V183.175H1994.55V291.977H2008.05V159.292H2070.14V291.977H2226.71V310.553H1057.83H-354V291.977H-251.419V148.677H-181.233V291.977H-165.036V201.751H-170.435C-171.101 181.715 -155.626 164.845 -135.341 161.946V148.677H-127.243V161.946C-113.419 163.088 -102.867 170.519 -97.548 180.522V151.331H-78.652V116.833H-84.051C-84.576 95.5677 -66.991 78.2328 -48.958 77.0276V55.798H-40.859V77.0276C-18.452 79.4101 -2.97702 96.2804 -3.06601 116.833H-11.165V151.331H7.73199V291.977H21.229V63.7591H37.426V23.9536H61.722V0.0703125H69.82V23.9536H96.815V63.7591H110.312V291.977H123.81V23.9536H226.39V291.977H239.888V87.6424H320.873V291.977H337.07V45.1832H434.251V291.977H447.749V23.9536H528.733V291.977H536.832V143.37H631.314V291.977H642.112V183.175H682.6V172.56H677.21C677.1 143.851 701.18 119.631 728.5 116.833V84.9887H736.59V116.833C768.71 118.466 792.79 143.851 793.28 172.56H785.18V183.175H825.68V291.977H839.17V159.292H901.26V291.977H917.45ZM886.17 192.39H894.27V179.121H886.17V192.39ZM886.17 213.343H894.27V200.074H886.17V213.343ZM886.17 233.14H894.27V217.217H886.17V233.14ZM886.17 255.248H894.27V241.98H886.17V255.248ZM871.16 213.343H879.26V200.074H871.16V213.343ZM871.16 255.248H879.26V241.98H871.16V255.248ZM859.9 192.39H868V179.121H859.9V192.39ZM859.9 213.343H868V200.074H859.9V213.343ZM859.9 233.14H868V217.217H859.9V233.14ZM846.77 192.39H852.17V179.121H846.77V192.39ZM846.77 233.14H852.17V217.217H846.77V233.14ZM846.77 255.248H852.17V241.98H846.77V255.248ZM803.62 227.018H809.02V205.789H803.62V227.018ZM803.62 257.495H809.02V236.265H803.62V257.495ZM781.1 227.018H786.5V205.789H781.1V227.018ZM700.43 183.273H765.21V175.312H700.43V183.273ZM762.34 227.018H767.74V205.789H762.34V227.018ZM762.34 257.495H767.74V236.265H762.34V257.495ZM741.7 257.495H747.1V236.265H741.7V257.495ZM719.19 227.018H724.59V205.789H719.19V227.018ZM719.19 257.495H724.59V236.265H719.19V257.495ZM698.55 227.018H703.95V205.789H698.55V227.018ZM676.03 257.495H681.43V236.265H676.03V257.495ZM655.4 227.018H660.8V205.789H655.4V227.018ZM655.4 257.495H660.8V236.265H655.4V257.495ZM595.358 170.688H603.456V160.073H595.358V170.688ZM595.358 185.927H603.456V175.312H595.358V185.927ZM595.358 199.26H603.456V188.645H595.358V199.26ZM595.358 216.403H603.456V205.789H595.358V216.403ZM595.358 227.832H603.456V217.217H595.358V227.832ZM595.358 244.975H603.456V234.361H595.358V244.975ZM595.358 258.309H603.456V247.694H595.358V258.309ZM595.358 273.547H603.456V262.933H595.358V273.547ZM578.472 170.688H586.571V160.073H578.472V170.688ZM578.472 185.927H586.571V175.312H578.472V185.927ZM578.472 199.26H586.571V188.645H578.472V199.26ZM578.472 216.403H586.571V205.789H578.472V216.403ZM578.472 227.832H586.571V217.217H578.472V227.832ZM578.472 244.975H586.571V234.361H578.472V244.975ZM578.472 258.309H586.571V247.694H578.472V258.309ZM578.472 273.547H586.571V262.933H578.472V273.547ZM559.71 170.688H567.809V160.073H559.71V170.688ZM559.71 185.927H567.809V175.312H559.71V185.927ZM559.71 199.26H567.809V188.645H559.71V199.26ZM559.71 216.403H567.809V205.789H559.71V216.403ZM559.71 227.832H567.809V217.217H559.71V227.832ZM559.71 244.975H567.809V234.361H559.71V244.975ZM559.71 258.309H567.809V247.694H559.71V258.309ZM559.71 273.547H567.809V262.933H559.71V273.547ZM492.167 45.3785H513.763V40.0711H492.167V45.3785ZM492.167 58.7122H513.763V53.4048H492.167V58.7122ZM492.167 83.4746H513.763V78.1672H492.167V83.4746ZM492.167 96.8082H513.763V91.5008H492.167V96.8082ZM492.167 106.332H513.763V101.025H492.167V106.332ZM492.167 119.666H513.763V114.358H492.167V119.666ZM492.167 132.999H513.763V127.692H492.167V132.999ZM492.167 146.333H513.763V141.025H492.167V146.333ZM492.167 157.762H513.763V152.454H492.167V157.762ZM492.167 171.095H513.763V165.788H492.167V171.095ZM492.167 193.953H513.763V188.645H492.167V193.953ZM492.167 207.286H513.763V201.979H492.167V207.286ZM492.167 220.62H513.763V215.313H492.167V220.62ZM492.167 245.382H513.763V240.075H492.167V245.382ZM492.167 258.716H513.763V253.409H492.167V258.716ZM492.167 272.05H513.763V266.742H492.167V272.05ZM460.271 45.3785H484.567V40.0711H460.271V45.3785ZM460.271 58.7122H484.567V53.4048H460.271V58.7122ZM460.271 83.4746H484.567V78.1672H460.271V83.4746ZM460.271 96.8082H484.567V91.5008H460.271V96.8082ZM460.271 106.332H484.567V101.025H460.271V106.332ZM460.271 119.666H484.567V114.358H460.271V119.666ZM460.271 132.999H484.567V127.692H460.271V132.999ZM460.271 146.333H484.567V141.025H460.271V146.333ZM460.271 157.762H484.567V152.454H460.271V157.762ZM460.271 171.095H484.567V165.788H460.271V171.095ZM460.271 193.953H484.567V188.645H460.271V193.953ZM460.271 207.286H484.567V201.979H460.271V207.286ZM460.271 220.62H484.567V215.313H460.271V220.62ZM460.271 245.382H484.567V240.075H460.271V245.382ZM460.271 258.716H484.567V253.409H460.271V258.716ZM460.271 272.05H484.567V266.742H460.271V272.05ZM415.243 111.509H426.041V74.3576H415.243V111.509ZM415.243 204.844H426.041V167.693H415.243V204.844ZM415.243 247.906H426.041V213.408H415.243V247.906ZM394.604 111.509H405.402V74.3576H394.604V111.509ZM394.604 159.129H405.402V121.977H394.604V159.129ZM394.604 247.906H405.402V213.408H394.604V247.906ZM379.595 159.129H390.393V121.977H379.595V159.129ZM379.595 204.844H390.393V167.693H379.595V204.844ZM379.595 247.906H390.393V213.408H379.595V247.906ZM360.833 111.509H371.631V74.3576H360.833V111.509ZM360.833 204.844H371.631V167.693H360.833V204.844ZM343.947 111.509H354.745V74.3576H343.947V111.509ZM343.947 159.129H354.745V121.977H343.947V159.129ZM343.947 204.844H354.745V167.693H343.947V204.844ZM343.947 247.906H354.745V213.408H343.947V247.906ZM298.918 146.203H304.317V114.358H298.918V146.203ZM298.918 186.203H304.317V154.359H298.918V186.203ZM298.918 220.49H304.317V188.645H298.918V220.49ZM298.918 260.491H304.317V228.646H298.918V260.491ZM282.032 146.203H287.431V114.358H282.032V146.203ZM282.032 186.203H287.431V154.359H282.032V186.203ZM282.032 220.49H287.431V188.645H282.032V220.49ZM282.032 260.491H287.431V228.646H282.032V260.491ZM268.899 146.203H274.298V114.358H268.899V146.203ZM268.899 186.203H274.298V154.359H268.899V186.203ZM268.899 220.49H274.298V188.645H268.899V220.49ZM268.899 260.491H274.298V228.646H268.899V260.491ZM252.013 146.203H257.412V114.358H252.013V146.203ZM252.013 186.203H257.412V154.359H252.013V186.203ZM252.013 220.49H257.412V188.645H252.013V220.49ZM252.013 260.491H257.412V228.646H252.013V260.491ZM201.356 74.2925H214.853V61.024H201.356V74.2925ZM201.356 95.2453H214.853V81.9768H201.356V95.2453ZM201.356 114.293H214.853V101.025H201.356V114.293ZM201.356 135.246H214.853V121.977H201.356V135.246ZM201.356 156.199H214.853V142.93H201.356V156.199ZM201.356 179.056H214.853V165.788H201.356V179.056ZM201.356 200.009H214.853V186.741H201.356V200.009ZM201.356 220.962H214.853V207.693H201.356V220.962ZM178.841 95.2453H192.339V81.9768H178.841V95.2453ZM178.841 114.293H192.339V101.025H178.841V114.293ZM178.841 156.199H192.339V142.93H178.841V156.199ZM178.841 179.056H192.339V165.788H178.841V179.056ZM178.841 200.009H192.339V186.741H178.841V200.009ZM178.841 220.962H192.339V207.693H178.841V220.962ZM154.451 74.2925H167.948V61.024H154.451V74.2925ZM154.451 95.2453H167.948V81.9768H154.451V95.2453ZM154.451 114.293H167.948V101.025H154.451V114.293ZM154.451 135.246H167.948V121.977H154.451V135.246ZM154.451 156.199H167.948V142.93H154.451V156.199ZM154.451 179.056H167.948V165.788H154.451V179.056ZM154.451 220.962H167.948V207.693H154.451V220.962ZM133.812 74.2925H147.31V61.024H133.812V74.2925ZM133.812 95.2453H147.31V81.9768H133.812V95.2453ZM133.812 135.246H147.31V121.977H133.812V135.246ZM133.812 156.199H147.31V142.93H133.812V156.199ZM133.812 200.009H147.31V186.741H133.812V200.009ZM133.812 220.962H147.31V207.693H133.812V220.962ZM77.526 54.0885H85.625V38.1663H77.526V54.0885ZM77.526 90.2798H85.625V74.3576H77.526V90.2798ZM77.526 120.756H85.625V104.834H77.526V120.756ZM77.526 149.328H85.625V133.406H77.526V149.328ZM77.526 177.9H85.625V161.978H77.526V177.9ZM77.526 208.377H85.625V192.455H77.526V208.377ZM77.526 236.949H85.625V221.027H77.526V236.949ZM77.526 265.521H85.625V249.599H77.526V265.521ZM60.641 54.0885H68.739V38.1663H60.641V54.0885ZM60.641 90.2798H68.739V74.3576H60.641V90.2798ZM60.641 120.756H68.739V104.834H60.641V120.756ZM60.641 149.328H68.739V133.406H60.641V149.328ZM60.641 177.9H68.739V161.978H60.641V177.9ZM60.641 208.377H68.739V192.455H60.641V208.377ZM60.641 236.949H68.739V221.027H60.641V236.949ZM60.641 265.521H68.739V249.599H60.641V265.521ZM43.755 54.0885H51.853V38.1663H43.755V54.0885ZM43.755 90.2798H51.853V74.3576H43.755V90.2798ZM43.755 120.756H51.853V104.834H43.755V120.756ZM43.755 149.328H51.853V133.406H43.755V149.328ZM43.755 177.9H51.853V161.978H43.755V177.9ZM43.755 208.377H51.853V192.455H43.755V208.377ZM43.755 236.949H51.853V221.027H43.755V236.949ZM52.217 266.27V250.348H44.119V247.694H30.621V260.963H44.119V266.27H52.217ZM-31.293 151.168H-25.894V121.977H-31.293V151.168ZM-31.293 202.598H-25.894V173.407H-31.293V202.598ZM-31.293 255.932H-25.894V226.741H-31.293V255.932ZM-44.656 151.168V121.977H-50.055V127.285V151.168H-44.656ZM-50.055 202.598H-44.656V173.407H-50.055V202.598ZM-50.055 255.932H-44.656V226.741H-50.055V255.932ZM-68.817 151.168H-63.418V121.977H-68.817V151.168ZM-68.817 202.598H-63.418V173.407H-68.817V202.598ZM-68.817 255.932H-63.418V226.741H-68.817V255.932ZM-117.599 255.932H-112.2V226.741H-117.599V255.932ZM-136.361 255.932H-130.962V226.741H-136.361V255.932ZM-155.123 255.932H-149.724V226.741H-155.123V255.932ZM-198.275 180.961H-190.177V167.693H-198.275V180.961ZM-198.275 229.33H-190.177V213.408H-198.275V229.33ZM-198.275 253.344H-190.177V240.075H-198.275V253.344ZM-215.161 180.961H-207.063V167.693H-215.161V180.961ZM-215.161 201.914H-207.063V188.645H-215.161V201.914ZM-215.161 229.33H-207.063V213.408H-215.161V229.33ZM-228.295 201.914H-220.196V188.645H-228.295V201.914ZM-228.295 253.344H-220.196V240.075H-228.295V253.344ZM-245.18 180.961H-237.082V167.693H-245.18V180.961ZM-245.18 201.914H-237.082V188.645H-245.18V201.914ZM-245.18 229.33H-237.082V213.408H-245.18V229.33ZM-245.18 253.344H-237.082V240.075H-245.18V253.344ZM2055.04 192.39H2063.14V179.121H2055.04V192.39ZM2055.04 213.343H2063.14V200.074H2055.04V213.343ZM2055.04 233.14H2063.14V217.217H2055.04V233.14ZM2055.04 255.248H2063.14V241.98H2055.04V255.248ZM2040.03 213.343H2048.13V200.074H2040.03V213.343ZM2040.03 255.248H2048.13V241.98H2040.03V255.248ZM2028.78 192.39H2036.87V179.121H2028.78V192.39ZM2028.78 213.343H2036.87V200.074H2028.78V213.343ZM2028.78 233.14H2036.87V217.217H2028.78V233.14ZM2015.64 192.39H2021.04V179.121H2015.64V192.39ZM2015.64 233.14H2021.04V217.217H2015.64V233.14ZM2015.64 255.248H2021.04V241.98H2015.64V255.248ZM1972.49 227.018H1977.89V205.789H1972.49V227.018ZM1972.49 257.495H1977.89V236.265H1972.49V257.495ZM1949.98 227.018H1955.37V205.789H1949.98V227.018ZM1869.3 183.273H1934.09V175.312H1869.3V183.273ZM1931.21 227.018H1936.61V205.789H1931.21V227.018ZM1931.21 257.495H1936.61V236.265H1931.21V257.495ZM1910.58 257.495H1915.97V236.265H1910.58V257.495ZM1888.06 227.018H1893.46V205.789H1888.06V227.018ZM1888.06 257.495H1893.46V236.265H1888.06V257.495ZM1867.42 227.018H1872.82V205.789H1867.42V227.018ZM1844.91 257.495H1850.31V236.265H1844.91V257.495ZM1824.27 227.018H1829.67V205.789H1824.27V227.018ZM1824.27 257.495H1829.67V236.265H1824.27V257.495ZM1764.23 170.688H1772.33V160.073H1764.23V170.688ZM1764.23 185.927H1772.33V175.312H1764.23V185.927ZM1764.23 199.26H1772.33V188.645H1764.23V199.26ZM1764.23 216.403H1772.33V205.789H1764.23V216.403ZM1764.23 227.832H1772.33V217.217H1764.23V227.832ZM1764.23 244.975H1772.33V234.361H1764.23V244.975ZM1764.23 258.309H1772.33V247.694H1764.23V258.309ZM1764.23 273.547H1772.33V262.933H1764.23V273.547ZM1747.35 170.688H1755.44V160.073H1747.35V170.688ZM1747.35 185.927H1755.44V175.312H1747.35V185.927ZM1747.35 199.26H1755.44V188.645H1747.35V199.26ZM1747.35 216.403H1755.44V205.789H1747.35V216.403ZM1747.35 227.832H1755.44V217.217H1747.35V227.832ZM1747.35 244.975H1755.44V234.361H1747.35V244.975ZM1747.35 258.309H1755.44V247.694H1747.35V258.309ZM1747.35 273.547H1755.44V262.933H1747.35V273.547ZM1728.58 170.688H1736.68V160.073H1728.58V170.688ZM1728.58 185.927H1736.68V175.312H1728.58V185.927ZM1728.58 199.26H1736.68V188.645H1728.58V199.26ZM1728.58 216.403H1736.68V205.789H1728.58V216.403ZM1728.58 227.832H1736.68V217.217H1728.58V227.832ZM1728.58 244.975H1736.68V234.361H1728.58V244.975ZM1728.58 258.309H1736.68V247.694H1728.58V258.309ZM1728.58 273.547H1736.68V262.933H1728.58V273.547ZM1661.04 45.3785H1682.64V40.0711H1661.04V45.3785ZM1661.04 58.7122H1682.64V53.4048H1661.04V58.7122ZM1661.04 83.4746H1682.64V78.1672H1661.04V83.4746ZM1661.04 96.8082H1682.64V91.5008H1661.04V96.8082ZM1661.04 106.332H1682.64V101.025H1661.04V106.332ZM1661.04 119.666H1682.64V114.358H1661.04V119.666ZM1661.04 132.999H1682.64V127.692H1661.04V132.999ZM1661.04 146.333H1682.64V141.025H1661.04V146.333ZM1661.04 157.762H1682.64V152.454H1661.04V157.762ZM1661.04 171.095H1682.64V165.788H1661.04V171.095ZM1661.04 193.953H1682.64V188.645H1661.04V193.953ZM1661.04 207.286H1682.64V201.979H1661.04V207.286ZM1661.04 220.62H1682.64V215.313H1661.04V220.62ZM1661.04 245.382H1682.64V240.075H1661.04V245.382ZM1661.04 258.716H1682.64V253.409H1661.04V258.716ZM1661.04 272.05H1682.64V266.742H1661.04V272.05ZM1629.14 45.3785H1653.44V40.0711H1629.14V45.3785ZM1629.14 58.7122H1653.44V53.4048H1629.14V58.7122ZM1629.14 83.4746H1653.44V78.1672H1629.14V83.4746ZM1629.14 96.8082H1653.44V91.5008H1629.14V96.8082ZM1629.14 106.332H1653.44V101.025H1629.14V106.332ZM1629.14 119.666H1653.44V114.358H1629.14V119.666ZM1629.14 132.999H1653.44V127.692H1629.14V132.999ZM1629.14 146.333H1653.44V141.025H1629.14V146.333ZM1629.14 157.762H1653.44V152.454H1629.14V157.762ZM1629.14 171.095H1653.44V165.788H1629.14V171.095ZM1629.14 193.953H1653.44V188.645H1629.14V193.953ZM1629.14 207.286H1653.44V201.979H1629.14V207.286ZM1629.14 220.62H1653.44V215.313H1629.14V220.62ZM1629.14 245.382H1653.44V240.075H1629.14V245.382ZM1629.14 258.716H1653.44V253.409H1629.14V258.716ZM1629.14 272.05H1653.44V266.742H1629.14V272.05ZM1584.12 111.509H1594.91V74.3576H1584.12V111.509ZM1584.12 204.844H1594.91V167.693H1584.12V204.844ZM1584.12 247.906H1594.91V213.408H1584.12V247.906ZM1563.48 111.509H1574.28V74.3576H1563.48V111.509ZM1563.48 159.129H1574.28V121.977H1563.48V159.129ZM1563.48 247.906H1574.28V213.408H1563.48V247.906ZM1548.47 159.129H1559.27V121.977H1548.47V159.129ZM1548.47 204.844H1559.27V167.693H1548.47V204.844ZM1548.47 247.906H1559.27V213.408H1548.47V247.906ZM1529.71 111.509H1540.5V74.3576H1529.71V111.509ZM1529.71 204.844H1540.5V167.693H1529.71V204.844ZM1512.82 111.509H1523.62V74.3576H1512.82V111.509ZM1512.82 159.129H1523.62V121.977H1512.82V159.129ZM1512.82 204.844H1523.62V167.693H1512.82V204.844ZM1512.82 247.906H1523.62V213.408H1512.82V247.906ZM1467.79 146.203H1473.19V114.358H1467.79V146.203ZM1467.79 186.203H1473.19V154.359H1467.79V186.203ZM1467.79 220.49H1473.19V188.645H1467.79V220.49ZM1467.79 260.491H1473.19V228.646H1467.79V260.491ZM1450.91 146.203H1456.3V114.358H1450.91V146.203ZM1450.91 186.203H1456.3V154.359H1450.91V186.203ZM1450.91 220.49H1456.3V188.645H1450.91V220.49ZM1450.91 260.491H1456.3V228.646H1450.91V260.491ZM1437.77 146.203H1443.17V114.358H1437.77V146.203ZM1437.77 186.203H1443.17V154.359H1437.77V186.203ZM1437.77 220.49H1443.17V188.645H1437.77V220.49ZM1437.77 260.491H1443.17V228.646H1437.77V260.491ZM1420.89 146.203H1426.29V114.358H1420.89V146.203ZM1420.89 186.203H1426.29V154.359H1420.89V186.203ZM1420.89 220.49H1426.29V188.645H1420.89V220.49ZM1420.89 260.491H1426.29V228.646H1420.89V260.491ZM1370.23 74.2925H1383.73V61.024H1370.23V74.2925ZM1370.23 95.2453H1383.73V81.9768H1370.23V95.2453ZM1370.23 114.293H1383.73V101.025H1370.23V114.293ZM1370.23 135.246H1383.73V121.977H1370.23V135.246ZM1370.23 156.199H1383.73V142.93H1370.23V156.199ZM1370.23 179.056H1383.73V165.788H1370.23V179.056ZM1370.23 200.009H1383.73V186.741H1370.23V200.009ZM1370.23 220.962H1383.73V207.693H1370.23V220.962ZM1347.71 95.2453H1361.21V81.9768H1347.71V95.2453ZM1347.71 114.293H1361.21V101.025H1347.71V114.293ZM1347.71 156.199H1361.21V142.93H1347.71V156.199ZM1347.71 179.056H1361.21V165.788H1347.71V179.056ZM1347.71 200.009H1361.21V186.741H1347.71V200.009ZM1347.71 220.962H1361.21V207.693H1347.71V220.962ZM1323.32 74.2925H1336.82V61.024H1323.32V74.2925ZM1323.32 95.2453H1336.82V81.9768H1323.32V95.2453ZM1323.32 114.293H1336.82V101.025H1323.32V114.293ZM1323.32 135.246H1336.82V121.977H1323.32V135.246ZM1323.32 156.199H1336.82V142.93H1323.32V156.199ZM1323.32 179.056H1336.82V165.788H1323.32V179.056ZM1323.32 220.962H1336.82V207.693H1323.32V220.962ZM1302.69 74.2925H1316.18V61.024H1302.69V74.2925ZM1302.69 95.2453H1316.18V81.9768H1302.69V95.2453ZM1302.69 135.246H1316.18V121.977H1302.69V135.246ZM1302.69 156.199H1316.18V142.93H1302.69V156.199ZM1302.69 200.009H1316.18V186.741H1302.69V200.009ZM1302.69 220.962H1316.18V207.693H1302.69V220.962ZM1246.4 54.0885H1254.5V38.1663H1246.4V54.0885ZM1246.4 90.2798H1254.5V74.3576H1246.4V90.2798ZM1246.4 120.756H1254.5V104.834H1246.4V120.756ZM1246.4 149.328H1254.5V133.406H1246.4V149.328ZM1246.4 177.9H1254.5V161.978H1246.4V177.9ZM1246.4 208.377H1254.5V192.455H1246.4V208.377ZM1246.4 236.949H1254.5V221.027H1246.4V236.949ZM1246.4 265.521H1254.5V249.599H1246.4V265.521ZM1229.51 54.0885H1237.61V38.1663H1229.51V54.0885ZM1229.51 90.2798H1237.61V74.3576H1229.51V90.2798ZM1229.51 120.756H1237.61V104.834H1229.51V120.756ZM1229.51 149.328H1237.61V133.406H1229.51V149.328ZM1229.51 177.9H1237.61V161.978H1229.51V177.9ZM1229.51 208.377H1237.61V192.455H1229.51V208.377ZM1229.51 236.949H1237.61V221.027H1229.51V236.949ZM1229.51 265.521H1237.61V249.599H1229.51V265.521ZM1212.63 54.0885H1220.73V38.1663H1212.63V54.0885ZM1212.63 90.2798H1220.73V74.3576H1212.63V90.2798ZM1212.63 120.756H1220.73V104.834H1212.63V120.756ZM1212.63 149.328H1220.73V133.406H1212.63V149.328ZM1212.63 177.9H1220.73V161.978H1212.63V177.9ZM1212.63 208.377H1220.73V192.455H1212.63V208.377ZM1212.63 236.949H1220.73V221.027H1212.63V236.949ZM1221.09 266.27V250.348H1212.99V247.694H1199.49V260.963H1212.99V266.27H1221.09ZM1137.58 151.168H1142.98V121.977H1137.58V151.168ZM1137.58 202.598H1142.98V173.407H1137.58V202.598ZM1137.58 255.932H1142.98V226.741H1137.58V255.932ZM1124.22 151.168V121.977H1118.82V127.285V151.168H1124.22ZM1118.82 202.598H1124.22V173.407H1118.82V202.598ZM1118.82 255.932H1124.22V226.741H1118.82V255.932ZM1100.06 151.168H1105.46V121.977H1100.06V151.168ZM1100.06 202.598H1105.46V173.407H1100.06V202.598ZM1100.06 255.932H1105.46V226.741H1100.06V255.932ZM1051.27 255.932H1056.67V226.741H1051.27V255.932ZM1032.51 255.932H1037.91V226.741H1032.51V255.932ZM1013.75 255.932H1019.15V226.741H1013.75V255.932ZM970.6 180.961H978.7V167.693H970.6V180.961ZM970.6 229.33H978.7V213.408H970.6V229.33ZM970.6 253.344H978.7V240.075H970.6V253.344ZM953.71 180.961H961.81V167.693H953.71V180.961ZM953.71 201.914H961.81V188.645H953.71V201.914ZM953.71 229.33H961.81V213.408H953.71V229.33ZM940.58 201.914H948.68V188.645H940.58V201.914ZM940.58 253.344H948.68V240.075H940.58V253.344ZM923.69 180.961H931.79V167.693H923.69V180.961ZM923.69 201.914H931.79V188.645H923.69V201.914ZM923.69 229.33H931.79V213.408H923.69V229.33ZM923.69 253.344H931.79V240.075H923.69V253.344Z" fill="#F7F6FA"/>
</g>
<g clip-path="url(#clip1)">
<path fill-rule="evenodd" clip-rule="evenodd" d="M1036.96 384.94C1036.96 386.906 1012.35 388.5 982 388.5C951.648 388.5 927.042 386.906 927.042 384.94C927.042 382.974 951.648 381.381 982 381.381C1012.35 381.381 1036.96 382.974 1036.96 384.94Z" fill="#ECEAF5"/>
<path d="M950.547 378.2L947.988 377.648C942.848 379.256 937.829 381.227 932.969 383.548C937.645 384.151 942.37 384.278 947.072 383.925C949.402 383.736 951.113 383.481 952.46 383.252C953.484 383.101 954.494 382.862 955.477 382.538L955.356 379.251L950.547 378.2Z" fill="#EE534F"/>
<path d="M1014.8 378.377C1013.89 378.06 1013.14 377.403 1012.71 376.545L1009.64 377.609L1007.39 378.377L1006.81 383.414C1006.81 383.414 1008.44 383.711 1011.23 383.993C1017.72 384.632 1024.25 384.609 1030.73 383.926C1030.73 383.926 1016.31 378.875 1014.8 378.377Z" fill="#EE534F"/>
<path d="M950.546 378.201L952.486 383.252C953.51 383.102 954.52 382.863 955.503 382.538L955.382 379.252L950.546 378.201Z" fill="#D14646"/>
<path d="M1009.64 377.607L1007.39 378.375L1006.81 383.413C1006.81 383.413 1008.44 383.709 1011.23 383.992C1010.47 381.927 1009.94 379.786 1009.64 377.607Z" fill="#D14646"/>
<path fill-rule="evenodd" clip-rule="evenodd" d="M1006.69 184.169C1006.54 183.941 1006.33 183.751 1006.1 183.616C999.685 180.343 963.262 179.98 957.053 184.25C956.878 184.375 956.728 184.53 956.608 184.708C956.608 184.708 924.55 226.1 936.403 234.748C941.616 238.533 948.526 234.869 954.655 229.454C955.355 246.601 956.568 262.051 956.568 262.051L982.807 264.839L1005.14 263.492C1005.14 263.492 1006.89 245.362 1007.94 226.37C1014.06 231.757 1020.83 235.233 1025.99 231.488C1037.86 222.908 1006.69 184.169 1006.69 184.169ZM946.667 220.604L954.169 211.444V215L946.667 220.604ZM1008.6 210.228C1008.58 210.845 1008.56 211.466 1008.56 212.092L1015.71 217.412L1008.64 208.778C1008.64 209.259 1008.62 209.742 1008.6 210.228Z" fill="#FF6900"/>
<path d="M1005.85 261.122C1005.74 259.746 1005.74 258.363 1005.85 256.987C1003.2 257.937 1000.43 258.552 997.623 258.819H997.152C994.228 259.168 991.287 259.357 988.343 259.384H986.848H984.598H983.426C979.857 259.29 976.435 259.021 973.284 258.684H972.785C969.903 258.374 967.276 257.984 964.973 257.606C959.585 256.704 956.891 255.99 956.379 255.869H956.096C956.191 257.218 956.132 258.574 955.921 259.91C955.921 259.91 972.219 263.762 985.204 264.193C992.219 264.467 999.222 263.425 1005.85 261.122Z" fill="#1F1F30"/>
<path d="M1009.09 377.782L1012.71 376.543C1012.71 376.543 1011.2 344 1010.74 336.551C1010.29 329.103 1007.86 290.053 1007.73 285.757C1007.73 283.857 1007.29 278.604 1006.89 273.418C1006.89 273.243 1006.89 273.068 1006.82 272.893C1006.35 266.805 1005.85 260.972 1005.85 260.972C1003.36 262.019 1000.71 262.669 998.015 262.898H997.543C994.619 263.241 991.678 263.43 988.734 263.464H988.424V259.8L982.902 259.921V263.437C979.628 263.329 976.49 263.087 973.567 262.777H973.069C970.199 262.454 967.559 262.077 965.27 261.686C959.882 260.797 956.42 259.908 955.975 259.787C955.975 259.787 955.181 264.892 954.278 271.169C954.296 271.267 954.296 271.367 954.278 271.465C953.551 276.853 952.716 282.914 952.244 287.454C951.194 297.435 948.54 328.9 948.54 328.9C948.54 328.9 947.516 335.811 946.358 348.364C945.2 360.918 947.988 377.607 947.988 377.607L950.924 378.24L955.396 379.21C955.396 379.21 960.784 348.634 961.862 341.495C962.939 334.356 970.873 300.331 973.069 294.068C975.264 287.804 976.988 281.594 976.988 281.594L984.962 279.695L985.07 280.342L994.337 333.548C994.517 339.268 995.23 344.959 996.466 350.546C998.432 358.709 1007.39 378.348 1007.39 378.348L1009.09 377.782Z" fill="#282741"/>
<path d="M944.687 383.387L932.969 383.549V384.438H955.867V382.309L955.504 382.538L944.687 383.387Z" fill="#282741"/>
<path d="M1031.11 383.537L1028.69 383.604L1026.36 383.725L1007.44 383.415L1006.18 382.998V384.452H1027.8L1031.14 384.143L1031.11 383.537Z" fill="#282741"/>
<path d="M972.193 162.806L973.204 180.168C973.096 182.151 973.859 184.083 975.293 185.457C976.727 186.832 978.689 187.512 980.666 187.321C987.993 187.213 988.627 179.993 988.627 179.993L990.364 158.576L972.193 162.806Z" fill="#FFB878"/>
<path d="M995.281 153.631C994.696 153.645 994.129 153.832 993.651 154.17C992.627 145.024 987.482 138.006 981.286 138.006C975.09 138.006 970.092 144.741 968.947 153.685C968.664 153.596 968.368 153.555 968.072 153.564C966.461 153.608 965.192 154.95 965.236 156.561C965.281 158.171 966.623 159.441 968.234 159.396C968.411 159.395 968.587 159.373 968.759 159.329C969.365 169.229 974.739 176.974 981.286 176.974C987.832 176.974 993.328 169.027 993.813 158.951C994.298 159.262 994.867 159.417 995.443 159.396C996.482 159.367 997.427 158.786 997.922 157.871C998.417 156.957 998.386 155.848 997.841 154.962C997.296 154.076 996.32 153.548 995.281 153.577V153.631Z" fill="#FFB878"/>
<path d="M981.675 171.089C980.329 171.088 979.001 170.774 977.796 170.173L978.052 169.675C979.819 170.527 981.848 170.657 983.709 170.038C985.566 169.094 986.789 167.241 986.928 165.162H987.494C987.374 167.474 986.007 169.538 983.925 170.55C983.215 170.868 982.452 171.05 981.675 171.089Z" fill="#EB5D46"/>
<path d="M979.116 151.57C979.116 151.57 979.56 157.376 979.52 158.79C979.351 160.108 978.998 161.396 978.469 162.616H977.459C977.459 162.616 977.809 165.31 979.964 165.31C981.637 165.409 983.126 164.259 983.453 162.616H981.877C981.371 161.143 981.081 159.605 981.015 158.049C981.243 155.779 981.635 153.528 982.187 151.314L979.116 151.57Z" fill="url(#paint0_linear)"/>
<path d="M982.808 151.545L988.196 151.397C987.186 150.642 985.989 150.176 984.734 150.05C982.579 149.875 982.808 151.545 982.808 151.545Z" fill="#822B16"/>
<path d="M972.422 151.531L977.81 151.383C976.8 150.628 975.603 150.162 974.348 150.036C972.207 149.861 972.422 151.531 972.422 151.531Z" fill="#822B16"/>
<path d="M993.583 134.667C988.195 129.966 979.534 133.805 976.073 133.387C973.95 133.048 972.126 131.696 971.183 129.764C969.341 132.828 967.944 136.139 967.034 139.597C965.822 144.729 968.961 153.659 968.961 153.659C969.982 152.418 970.702 150.956 971.062 149.389C971.427 148.075 971.546 146.705 971.412 145.348C971.665 145.465 971.926 145.564 972.193 145.645C975.924 146.776 984.882 145.16 989.165 144.298C988.906 145.953 989.059 147.646 989.61 149.228C990.379 151.267 991.727 153.036 993.489 154.319C993.489 154.319 994.674 154.912 994.93 153.417C995.86 148.029 997.099 137.684 993.583 134.667Z" fill="#822B16"/>
<path d="M971.061 132.713C971.061 132.713 971.492 134.976 974.805 135.407C978.119 135.838 986.551 133.144 989.622 134.572C992.693 136 994.525 140.054 993.205 141.307C991.885 142.559 976.732 145.065 972.893 144.001C969.054 142.937 967.249 136.148 971.061 132.713Z" fill="#933827"/>
<path d="M972.543 171.521C972.543 171.521 976.018 177.26 981.285 176.99C984.59 176.729 987.611 175.024 989.542 172.33C988.508 176.23 985.108 179.04 981.083 179.32C974.025 179.886 972.543 171.521 972.543 171.521Z" fill="#E09B63"/>
<path d="M983.185 156.462C983.185 156.462 983.185 157.701 985.394 157.808C986.462 157.979 987.516 157.432 987.993 156.462C987.546 155.536 986.611 154.945 985.582 154.939C984.581 155.02 983.684 155.59 983.185 156.462Z" fill="white"/>
<path d="M986.027 155.356C986.77 155.509 987.453 155.874 987.993 156.406C987.788 155.274 986.72 154.511 985.582 154.682C984.466 154.615 983.46 155.35 983.185 156.433C983.72 155.95 984.361 155.599 985.057 155.41C984.632 155.646 984.422 156.14 984.546 156.61C984.67 157.08 985.096 157.406 985.582 157.403C985.868 157.403 986.142 157.29 986.344 157.088C986.546 156.885 986.66 156.611 986.66 156.326C986.659 155.906 986.411 155.526 986.027 155.356Z" fill="#822B16"/>
<path d="M972.69 156.462C972.69 156.462 972.69 157.701 974.899 157.808C975.969 157.988 977.029 157.439 977.499 156.462C977.054 155.54 976.125 154.95 975.102 154.939C974.097 155.02 973.196 155.589 972.69 156.462Z" fill="white"/>
<path d="M975.546 155.356C976.284 155.511 976.962 155.876 977.499 156.406C977.294 155.274 976.226 154.511 975.088 154.682C973.974 154.621 972.971 155.353 972.69 156.433C973.226 155.95 973.867 155.599 974.563 155.41C974.136 155.647 973.926 156.145 974.053 156.617C974.181 157.089 974.613 157.413 975.102 157.403C975.599 157.392 976.024 157.041 976.13 156.554C976.236 156.068 975.994 155.572 975.546 155.356Z" fill="#822B16"/>
<path fill-rule="evenodd" clip-rule="evenodd" d="M990.997 207.094L1001.04 206.757L1001.45 238.936H959.908L960.757 208.091L972.799 207.673C973.014 205.626 974.429 200.521 981.46 199.807C988.491 199.093 990.471 204.656 990.997 207.094ZM988.72 207.202C987.898 205.034 985.797 201.154 981.285 201.37V201.343C976.92 201.558 975.492 205.37 975.021 207.674L988.72 207.202Z" fill="#282741"/>
<path d="M969.58 205.193C964.286 205.193 963.316 208.076 963.316 208.076H965.216C965.216 208.076 965.956 216.158 973.877 215.269C977.985 214.622 975.83 205.193 969.58 205.193Z" fill="#FFB878"/>
<path d="M994.715 204.021C988.451 204.021 986.296 213.558 990.418 214.03C998.338 214.959 999.065 206.85 999.065 206.85L1000.98 206.918C1000.98 206.918 999.995 204.035 994.715 204.021Z" fill="#FFB878"/>
<path d="M959.882 220.469L1002.08 219.459V220.469L959.882 221.857V220.469Z" fill="#35354F"/>
<path d="M978.47 218.961V226.275H984.006V218.719L978.47 218.961Z" fill="white"/>
<path d="M1002.05 359.935C998.889 351.584 998.323 330.719 998.323 330.719L991.265 278.187C992.531 277.936 993.609 277.747 994.498 277.621C994.619 277.621 994.7 277.527 994.673 277.446C994.612 277.361 994.507 277.319 994.404 277.338C987.401 278.614 980.469 280.246 973.633 282.228L972.758 282.457C972.636 282.457 972.569 282.565 972.609 282.632C972.663 282.704 972.749 282.745 972.838 282.741L973.741 282.497C980.476 280.692 985.742 279.372 989.622 278.537L985.002 280.41L994.269 333.616C994.449 339.336 995.161 345.026 996.397 350.614C998.364 358.777 1007.32 378.416 1007.32 378.416L1009.02 377.838C1007.44 373.715 1004.36 365.849 1002.05 359.935Z" fill="#35354F"/>
<path d="M981.46 272.409H984.005C984.092 272.417 984.175 272.375 984.221 272.301L988.733 263.519H988.195L983.83 272.113H981.823C982.946 269.344 983.729 266.449 984.154 263.492H983.682C983.252 266.499 982.433 269.438 981.244 272.234C981.244 272.234 981.244 272.315 981.244 272.368C981.308 272.409 981.385 272.423 981.46 272.409Z" fill="#35354F"/>
<path d="M973.082 262.711C971.007 264.772 966.589 268.894 963.828 269.796C963.397 269.931 962.885 270.052 962.319 270.173C963.572 266.429 964.636 263.438 965.269 261.62C962.966 261.243 961.026 260.852 959.504 260.529C959.895 258.926 960.151 257.471 960.272 256.703L959.908 256.609C959.787 257.377 959.531 258.832 959.14 260.434C957.376 260.057 956.271 259.774 956.042 259.721C956.042 259.721 955.248 264.826 954.345 271.103C954.351 271.147 954.351 271.193 954.345 271.237C954.358 271.29 954.358 271.346 954.345 271.399C953.618 276.787 952.783 282.848 952.311 287.388C951.26 297.369 948.607 328.834 948.607 328.834C948.607 328.834 947.583 335.744 946.425 348.298C945.266 360.852 947.987 377.609 947.987 377.609L950.924 378.242C949.361 371.978 949.967 359.034 949.698 351.76C949.542 345.311 949.803 338.859 950.479 332.444C950.479 332.444 951.651 323.487 952.971 307.309C953.793 297.153 958.655 281.07 962.158 270.51C962.777 270.396 963.389 270.243 963.989 270.052C966.939 269.096 971.479 264.826 973.526 262.778L973.082 262.711Z" fill="#35354F"/>
<path d="M1006.88 273.418V272.893C1003.57 269.904 1000.61 266.551 998.055 262.898H997.584C1000.25 266.763 1003.37 270.295 1006.88 273.418Z" fill="#35354F"/>
<path d="M977.419 259.168L976.961 259.074C976.84 259.855 976.584 261.323 976.193 262.953L976.624 263.048C977.029 261.418 977.284 259.936 977.419 259.168Z" fill="#35354F"/>
<path d="M994.714 263.116C994.31 261.499 994.054 260.017 993.933 259.25L993.488 259.344C993.61 260.112 993.879 261.593 994.27 263.223L994.714 263.116Z" fill="#35354F"/>
<path d="M1004.52 261.553C1004.12 259.923 1003.86 258.456 1003.74 257.688C1003.59 257.702 1003.45 257.728 1003.31 257.768C1003.43 258.536 1003.68 260.031 1004.09 261.647L1004.52 261.553Z" fill="#35354F"/>
<path fill-rule="evenodd" clip-rule="evenodd" d="M931.353 382.784C931.353 384.751 913.985 386.345 892.56 386.345C871.135 386.345 853.767 384.751 853.767 382.784C853.767 380.819 871.135 379.225 892.56 379.225C913.985 379.225 931.353 380.819 931.353 382.784Z" fill="#ECEAF5"/>
<path d="M882.7 373.637C882.363 374.068 883.535 374.66 883.481 375.118C883.475 375.502 883.321 375.87 883.05 376.142C882.834 376.263 883.05 377.273 883.05 377.273L888.357 377.893C888.543 377.689 888.71 377.468 888.855 377.233C888.923 377.031 888.465 376.613 888.33 376.29C888.195 375.967 888.923 375.697 889.084 375.199C889.246 374.701 888.613 373.852 888.613 373.852L888.02 309.399C888.02 309.399 891.94 294.932 895.307 281.894C895.213 294.326 895.307 306.584 895.886 311.864C896.816 320.525 913.505 373.057 913.222 373.515C912.939 373.973 914.179 374.431 914.179 374.862C914.217 375.244 914.106 375.625 913.869 375.926C913.667 376.088 914.017 377.058 914.017 377.058H919.405C919.568 376.837 919.704 376.597 919.809 376.344C919.809 376.142 919.351 375.778 919.189 375.468C919.028 375.159 919.715 374.808 919.809 374.297C919.903 373.785 919.189 373.03 919.189 373.03L910.878 309.13C910.878 309.13 922.031 267.885 922.031 262.618C922.031 257.352 918.677 247.195 918.677 247.195H895.913C895.913 247.195 895.913 247.492 895.913 247.977L880.342 246.172C880.342 246.172 872.961 297.748 872.867 310.409C872.799 319.124 883.036 373.219 882.7 373.637Z" fill="#282741"/>
<path d="M864.287 383.845L890.19 383.091V381.73L864.489 382.552L864.287 383.845Z" fill="#282741"/>
<path d="M895.025 383.091L920.914 382.337V380.99L895.214 381.798L895.025 383.091Z" fill="#282741"/>
<path d="M917.964 375.455C917.943 375.27 917.883 375.091 917.789 374.93C917.708 374.755 917.654 374.647 917.789 374.081C917.923 373.516 918.018 373.34 917.694 373.125C917.489 372.999 917.314 372.829 917.183 372.627C916.711 371.616 913.425 343.774 911.444 327.139C910.407 318.02 909.801 313.252 909.801 312.955C909.637 312.041 908.969 311.3 908.077 311.042C907.821 311.042 907.659 310.894 907.646 310.8C907.633 310.706 907.646 310.45 908.508 309.803C908.764 309.601 909.033 309.359 908.993 309.089C908.953 308.82 908.629 308.712 908.239 308.577C907.964 308.484 907.698 308.366 907.444 308.227C907.426 307.002 907.589 305.781 907.929 304.604C908.346 302.516 908.966 299.741 909.68 296.522C911.651 288.43 913.211 280.243 914.354 271.993C915.593 259.871 914.354 256.853 914.354 256.732L914.004 256.88C914.004 256.88 915.216 259.978 914.004 271.953C912.863 280.189 911.307 288.362 909.343 296.441C908.602 299.768 907.996 302.637 907.538 304.766C906.905 308.039 907.026 308.402 907.242 308.537C907.528 308.699 907.83 308.83 908.144 308.928C908.322 308.977 908.49 309.054 908.643 309.157C908.643 309.157 908.643 309.278 908.293 309.493C907.538 310.073 907.215 310.517 907.296 310.84C907.377 311.164 907.592 311.285 908.023 311.379C908.773 311.61 909.327 312.248 909.451 313.023C909.451 313.292 910.246 319.38 911.148 327.085C912.199 335.975 913.519 347.047 914.637 356.18C916.63 372.344 916.846 372.6 916.954 372.748C917.114 372.988 917.32 373.194 917.56 373.354H917.627C917.595 373.519 917.55 373.681 917.492 373.839C917.29 374.499 917.358 374.714 917.492 374.97C917.566 375.094 917.612 375.232 917.627 375.374C917.638 375.892 917.556 376.408 917.385 376.896L917.748 377.018C917.911 376.513 917.984 375.985 917.964 375.455Z" fill="#383851"/>
<path d="M889.018 295.322C887.469 298.528 886.324 301.182 885.448 303.189C884.034 306.651 884.034 307.526 884.101 307.89C884.381 308.689 884.842 309.413 885.448 310.005C885.704 310.26 885.906 310.463 885.893 310.624C885.879 310.786 885.812 310.84 885.637 310.988C884.976 311.475 884.55 312.218 884.465 313.035C884.471 313.483 884.679 313.904 885.03 314.18C885.717 314.759 885.637 318.679 885.583 320.565C885.583 320.996 885.583 321.387 885.583 321.669V322.895C885.583 326.936 885.583 338.965 885.583 350.32C885.691 372.1 886.041 372.76 886.148 372.976C886.364 373.347 886.598 373.706 886.849 374.054C887.226 374.565 887.347 374.741 887.145 375.252C886.768 376.141 886.539 376.774 886.835 377.354L887.091 377.852L887.428 377.677L887.186 377.179C886.97 376.774 887.105 376.33 887.495 375.401C887.792 374.687 887.495 374.363 887.159 373.825C886.912 373.494 886.687 373.147 886.485 372.787C886.054 371.939 885.866 353.755 885.973 322.949V321.723C885.973 321.44 885.973 321.063 885.973 320.619C885.973 317.588 885.973 314.584 885.273 313.884C885.007 313.683 884.852 313.368 884.855 313.035C884.937 312.331 885.308 311.692 885.879 311.271C886.099 311.128 886.247 310.897 886.283 310.638C886.283 310.314 886.041 310.058 885.717 309.735C885.117 309.198 884.655 308.523 884.37 307.769C884.209 307.27 884.613 305.075 889.22 295.498C891.914 290.11 894.608 284.816 894.608 284.722L894.271 284.547C894.271 284.547 891.658 289.881 889.018 295.322Z" fill="#383851"/>
<path d="M895.132 269.717C894.324 269.609 891.32 269.07 890.983 267.306C890.593 265.177 892.492 257.742 892.519 257.661L892.142 257.567C892.061 257.877 890.202 265.164 890.62 267.373C891.037 269.582 895.105 270.067 895.28 270.067H895.482L896.452 257.553H896.061L895.132 269.717Z" fill="#383851"/>
<path d="M882.673 257.957C882.673 257.957 882.673 263.641 881.434 265.661C880.392 266.979 878.918 267.886 877.271 268.221V268.598C879.02 268.259 880.588 267.303 881.69 265.904C883.037 263.789 883.037 258.226 883.037 257.984L882.673 257.957Z" fill="#383851"/>
<path d="M873.217 188.546L865.351 220.281L838.411 254.09L846.372 258.885C846.372 258.885 869.055 239.906 876.8 225.696C884.545 211.485 894.136 184.99 894.136 184.99L873.217 188.546Z" fill="#ED9700"/>
<path d="M877.891 258.118C877.891 258.118 868.111 192.453 873.621 187.995C879.13 183.536 908.44 181.489 916.724 184.749C925.008 188.008 922.974 256.543 922.974 256.543L877.891 258.118Z" fill="#FFAA00"/>
<path d="M900.023 167.481C900.919 165.758 901.65 163.954 902.205 162.093C905.41 151.479 902.434 141.201 895.578 139.194C888.721 137.187 880.545 144.043 877.353 154.658C874.16 165.272 877.11 175.536 883.98 177.556C885.173 177.906 886.425 178.002 887.657 177.839L889.179 183.887C889.5 186.56 891.589 188.677 894.257 189.033C898.703 189.693 902.878 185.625 902.595 183.254L902.501 182.971L900.023 167.481Z" fill="#FFBE83"/>
<path d="M878.511 155.033L882.377 156.38C881.679 157.063 880.774 157.495 879.804 157.606C878.43 157.633 878.511 155.033 878.511 155.033Z" fill="white"/>
<path d="M887.846 157.809L891.711 159.156C891.014 159.839 890.109 160.27 889.139 160.381C887.765 160.408 887.846 157.809 887.846 157.809Z" fill="white"/>
<path d="M892.978 133.711C890.396 132.553 888.706 130.02 888.627 127.191C885.751 127.3 883.033 128.533 881.057 130.626C877.622 134.169 879.926 148.622 879.926 148.622C880.591 147.445 881.343 146.319 882.175 145.254C882.83 146.623 883.939 147.723 885.314 148.366C888.645 149.854 892.253 150.62 895.901 150.615C895.901 150.615 893.207 160.691 895.335 162.024C895.315 161.854 895.315 161.683 895.335 161.513C895.32 160.238 896.132 159.1 897.343 158.701C898.554 158.302 899.884 158.734 900.629 159.768C901.375 160.803 901.364 162.201 900.602 163.223L901.72 163.439C904.778 161.634 907.768 158.307 909.182 152.165C912.684 137.159 897.558 136.122 892.978 133.711Z" fill="#59381D"/>
<path d="M890.607 153.106C889.26 152.526 888.506 154.52 888.506 154.52L893.638 156.231C892.855 154.99 891.823 153.926 890.607 153.106Z" fill="#59381D"/>
<path d="M880.436 149.633C879.089 149.054 878.349 151.047 878.349 151.047L883.535 152.758C882.73 151.513 881.675 150.448 880.436 149.633Z" fill="#59381D"/>
<path d="M879.224 155.357C878.914 155.357 878.672 155.748 878.672 156.22C878.672 156.691 878.914 157.095 879.224 157.095C879.534 157.095 879.777 156.704 879.777 156.22C879.777 155.735 879.534 155.357 879.224 155.357Z" fill="#59381D"/>
<path d="M889.111 158.942C889.111 158.457 888.855 158.08 888.559 158.08C888.263 158.08 887.993 158.457 887.993 158.942C887.993 159.427 888.249 159.818 888.559 159.818C888.869 159.818 889.111 159.4 889.111 158.942Z" fill="#59381D"/>
<path d="M885.555 171.02C884.328 171.301 883.06 171.365 881.811 171.209V171.572V171.923C882.256 171.991 882.707 172.022 883.158 172.017C884.033 172.017 884.905 171.918 885.757 171.721C888.444 171.175 890.625 169.216 891.455 166.602L890.768 166.373C890.032 168.772 888.023 170.563 885.555 171.02Z" fill="#59381D"/>
<path d="M872.085 378.229C869.174 378.859 866.625 380.605 864.986 383.092L889.448 382.513L889.017 377.125C889.017 377.125 877.001 377.206 872.085 378.229Z" fill="#EC5700"/>
<path d="M919.782 376.559C919.782 376.559 907.659 376.667 902.85 377.691C899.936 378.322 897.384 380.067 895.738 382.553L920.199 381.988L919.782 376.559Z" fill="#EC5700"/>
<path d="M885.34 153.619C885.34 153.619 883.266 160.192 881.703 161.297C880.141 162.401 876.666 161.364 876.747 164.287C876.827 167.21 882.027 165.338 884.209 162.752C886.755 159.734 886.903 154.239 886.903 154.239L885.34 153.619Z" fill="url(#paint1_linear)"/>
<path d="M887.293 128.336C887.293 128.336 880.558 131.528 881.083 137.765C881.608 144.001 892.438 149.632 898.594 149.376C904.749 149.12 909.289 145.82 906.676 142.641C904.062 139.462 891.172 137.805 889.165 134.236C887.964 132.501 887.312 130.446 887.293 128.336Z" fill="#7F5536"/>
<path d="M888.774 127.299L888.478 127.07C887.442 128.426 886.54 129.878 885.784 131.408C884.706 133.805 883.507 137.146 884.208 140.203C885.048 143.784 886.744 147.108 889.151 149.888L889.421 149.632C887.071 146.895 885.413 143.634 884.585 140.123C883.305 134.465 888.72 127.38 888.774 127.299Z" fill="#996B4D"/>
<path d="M885.866 139.086C886.14 135.811 887.377 132.689 889.422 130.115L889.126 129.873C887.055 132.526 885.813 135.731 885.556 139.086C885.489 143.936 890.54 149.862 890.756 150.091L890.944 149.835C890.944 149.835 885.799 143.801 885.866 139.086Z" fill="#996B4D"/>
<path d="M886.242 127.717L885.972 127.447C885.187 128.279 884.517 129.213 883.979 130.222C882.671 132.549 881.993 135.177 882.012 137.846C882.012 144.19 883.709 147.45 883.79 147.585L884.127 147.41C882.863 144.385 882.27 141.122 882.389 137.846C882.368 134.108 883.742 130.496 886.242 127.717Z" fill="#996B4D"/>
<path d="M914.166 268.396C911.902 268.23 909.738 267.401 907.943 266.011C905.465 263.843 905.249 257.445 905.249 257.162H905.626C905.626 257.229 905.855 263.668 908.212 265.729C909.948 267.055 912.029 267.855 914.206 268.032L914.166 268.396Z" fill="#575777"/>
<path d="M831.676 264.139C831.339 269.904 838.316 271.507 841.913 267.008C844.099 264.196 845.66 260.949 846.493 257.485L840.391 252.879C840.391 252.879 832.013 258.374 831.676 264.139Z" fill="#FFBE83"/>
<path d="M899.874 271.842C899.874 271.842 890.526 275.425 888.977 280.988C887.428 286.552 893.907 289.596 898.406 285.959C901.144 283.682 903.367 280.849 904.926 277.648L899.874 271.842Z" fill="#FFBE83"/>
<path d="M901.84 191.725L915.566 236.916L896.412 272.894L905.1 278.982C905.1 278.982 931.461 252.151 930.881 232.835C930.302 213.519 918.341 186.688 918.341 186.688L901.84 191.725Z" fill="#FFAE1F"/>
<path fill-rule="evenodd" clip-rule="evenodd" d="M855.921 384.94C855.921 386.906 828.904 388.5 795.577 388.5C762.25 388.5 735.231 386.906 735.231 384.94C735.231 382.974 762.25 381.381 795.577 381.381C828.904 381.381 855.921 382.974 855.921 384.94Z" fill="#ECEAF5"/>
<path d="M791.67 165.661L792.613 183.024C792.51 185.009 793.276 186.94 794.712 188.313C796.148 189.687 798.111 190.367 800.089 190.176C807.416 190.069 808.049 182.849 808.049 182.849L809.787 161.445L791.67 165.661Z" fill="#FFB878"/>
<path d="M814.502 153.566C813.981 152.979 813.171 152.738 812.414 152.946C812.134 147.9 811.517 142.878 810.568 137.914C810.568 137.914 794.405 132.769 791.118 140.702C789.598 144.89 788.739 149.289 788.572 153.741C787.317 153.267 785.904 153.79 785.259 154.967C784.073 156.853 786.606 158.604 788.613 159.627C789.232 168.437 792.573 176.734 801.732 177.003C809.949 177.259 812.252 168.046 812.508 158.496C813.909 157.095 815.714 154.859 814.502 153.566Z" fill="#FFBE83"/>
<path d="M827.122 189.031C826.949 188.016 826.395 187.105 825.573 186.485C819.161 183.212 782.739 182.862 776.516 187.132C775.919 187.626 775.483 188.287 775.263 189.031C772.569 194.567 755.058 232.592 766.157 240.458C768.649 242.223 771.545 240.903 774.334 238.438C774.724 244.755 775.088 249.052 775.088 249.052H775.25C775.25 249.564 775.061 255.679 775.357 262.05C775.048 264.057 774.509 267.654 773.93 271.776C773.937 271.874 773.937 271.973 773.93 272.072C773.189 277.46 772.367 283.521 771.896 288.061C770.831 298.055 768.178 329.521 768.178 329.521C768.178 329.521 767.154 336.431 765.996 348.985C764.837 361.539 767.72 378.335 767.72 378.335L770.656 378.982L775.128 379.952C775.128 379.952 780.516 349.362 781.594 342.236C782.671 335.111 790.605 301.073 792.814 294.809C795.023 288.546 796.72 282.323 796.72 282.323L804.695 280.423L804.816 281.07L814.07 334.289C814.25 340.005 814.967 345.692 816.211 351.275C818.178 359.451 827.122 379.09 827.122 379.09L828.819 378.511L832.442 377.271C832.442 377.271 830.934 344.715 830.476 337.266C830.018 329.817 827.593 290.728 827.472 286.485C827.472 284.572 827.028 279.319 826.623 274.146C826.623 273.971 826.623 273.796 826.623 273.621C826.26 269.149 825.896 264.812 825.734 262.845C826.017 256.11 825.734 248.769 825.734 248.769C825.869 247.503 826.341 242.816 826.879 236.539C829.829 239.394 833.022 241.078 835.716 239.233C846.047 231.77 831.149 197.719 827.122 189.031Z" fill="#282741"/>
<path d="M789.313 184.252L801.436 213.575L811.013 183.484C811.013 183.484 806.595 183.336 799.968 183.484C796.405 183.535 792.847 183.792 789.313 184.252Z" fill="#EDEDED"/>
<path d="M799.226 182.811L801.395 182.582L803.227 189.303L802.122 193.075L804.022 205.292L801.395 213.576L798.041 205.44L799.321 193.398L797.516 189.303L799.226 182.811Z" fill="#EE534F"/>
<path d="M789.313 184.25L797.517 189.301L800.143 182.768L792.479 179.549L789.313 184.25Z" fill="white"/>
<path d="M808.372 179.549L800.142 182.768L803.226 189.301L810.971 183.482L808.372 179.549Z" fill="white"/>
<path d="M814.905 140.541C814.722 139.683 814.246 138.916 813.558 138.372C816.481 134.412 812.251 128.041 805.139 127.166C801.165 126.681 799.105 128.162 798.027 129.859C797.361 129.644 796.645 129.644 795.98 129.859C794.619 130.506 793.731 131.856 793.676 133.362C792.057 133.451 790.516 134.082 789.299 135.153C788.31 136.221 787.732 137.605 787.669 139.059C786.863 139.263 786.255 139.924 786.12 140.743C785.311 143.518 788.733 152.785 788.733 152.785L791.669 143.908C791.669 143.908 793.595 143.76 795.939 143.612C798.283 143.464 799.98 140.245 799.98 140.245C799.98 140.245 803.078 142.629 808.399 141.215C809.069 141.761 809.608 142.452 809.975 143.235C810.917 146.057 811.713 148.925 812.359 151.829C813.05 148.881 813.128 145.823 812.588 142.844C813.531 142.454 814.959 141.605 814.905 140.541Z" fill="#131323"/>
<path d="M793.152 142.927C793.152 142.927 789.771 142.806 789.475 140.853C789.179 138.9 789.286 135.465 791.617 135.209C792.599 135.016 793.611 135.016 794.593 135.209C794.593 135.209 793.96 131.518 796.062 131.303C797.145 131.065 798.273 131.431 799.011 132.259C800.053 129.342 803.244 127.8 806.177 128.797C811.794 130.144 812.71 134.778 812.535 136.085C812.43 136.857 812.398 137.637 812.441 138.415C812.441 138.415 813.64 139.331 813.37 140.462C813.101 141.594 812.374 142.752 811.309 142.24C810.185 141.489 809.146 140.618 808.211 139.641C806.812 140.299 805.27 140.595 803.726 140.503C801.758 140.2 799.901 139.393 798.338 138.159C798.338 138.159 797.665 143.062 793.152 142.927Z" fill="#2C2C42"/>
<path d="M803.752 155.963C803.752 155.963 804.17 157.202 806.271 157.539C807.441 157.788 808.608 157.105 808.965 155.963C808.291 155.266 807.347 154.897 806.379 154.953C804.91 155.168 804.116 155.438 803.752 155.963Z" fill="white"/>
<path d="M807.429 156.57C807.433 156.837 807.329 157.094 807.142 157.284C806.955 157.473 806.699 157.58 806.432 157.58C806.046 157.625 805.668 157.444 805.461 157.115C805.254 156.786 805.254 156.367 805.461 156.038C805.668 155.709 806.046 155.528 806.432 155.573C806.697 155.573 806.95 155.678 807.137 155.865C807.324 156.052 807.429 156.306 807.429 156.57Z" fill="#131323"/>
<path d="M826.367 189.303C824.877 192.361 824.612 195.874 825.627 199.122C827.351 204.51 830.247 224.944 834.57 222.91C838.894 220.876 826.367 189.303 826.367 189.303Z" fill="#35354F"/>
<path d="M782.779 184.75L790.767 212.188L800.775 212.741L789.312 184.252L782.779 184.75Z" fill="#35354F"/>
<path d="M801.907 211.933L807.039 212.189L818.758 184.252L810.972 183.484L801.907 211.933Z" fill="#35354F"/>
<path d="M767.195 224.269C771.519 226.29 774.415 205.869 776.139 200.481C777.154 197.229 776.889 193.712 775.398 190.648C775.398 190.648 762.858 222.235 767.195 224.269Z" fill="#35354F"/>
<path d="M773.755 198.462C773.675 199.082 783.063 243.492 783.063 243.492L801.921 251.802L821.142 243.29L830.49 195.162L801.395 201.48L773.755 198.462Z" fill="white"/>
<path d="M774.981 200.777L799.766 203.727L801.409 249.107L783.319 241.106L774.981 200.777Z" fill="#EDEDED"/>
<path d="M829.049 218.288C829.049 218.288 828.308 211.095 824.711 210.583C821.115 210.071 818.636 220.443 820.428 223.11C821.304 224.594 822.776 225.629 824.469 225.952L829.049 218.288Z" fill="#FFB878"/>
<path d="M772.718 219.648C772.718 219.648 773.445 212.455 777.042 211.889C780.638 211.324 783.116 221.749 781.325 224.416C780.459 225.909 778.982 226.948 777.284 227.258L772.718 219.648Z" fill="#FFB878"/>
<path d="M792.384 155.978C792.384 155.978 792.815 157.231 794.916 157.554C796.09 157.824 797.27 157.133 797.61 155.978C796.935 155.284 795.99 154.92 795.024 154.981C793.542 155.197 792.747 155.453 792.384 155.978Z" fill="white"/>
<path d="M796.102 156.598C796.102 157.151 795.658 157.601 795.105 157.609C794.55 157.601 794.102 157.153 794.095 156.598C794.102 156.046 794.552 155.601 795.105 155.602C795.369 155.602 795.623 155.707 795.81 155.893C795.997 156.08 796.102 156.334 796.102 156.598Z" fill="#131323"/>
<path d="M812.52 152.92L812.359 151.883C812.359 151.883 810.581 160.935 809.139 162.901C807.698 164.868 794.094 164.167 792.248 162.901C790.403 161.635 788.733 152.785 788.733 152.785L788.288 153.647C788.288 153.647 789.473 168.101 789.635 168.882C789.797 169.663 796.289 178.809 797.623 179.2C800.253 179.494 802.914 179.362 805.503 178.809C806.095 178.405 812.372 169.959 812.493 168.666C812.615 167.373 812.52 152.92 812.52 152.92Z" fill="url(#paint2_linear)"/>
<path d="M809.127 156.207L809.289 153.877L803.753 154.012L803.47 156.342C804.402 156.604 805.372 156.709 806.339 156.652C807.286 156.659 808.229 156.509 809.127 156.207Z" fill="url(#paint3_linear)"/>
<path d="M797.758 156.233L797.92 153.902L792.383 154.01L792.101 156.34C793.033 156.604 794.002 156.713 794.97 156.664C795.917 156.677 796.859 156.532 797.758 156.233Z" fill="url(#paint4_linear)"/>
<path d="M750.358 351.412L750.829 347.371H748.768V351.843C747.303 352.4 745.938 353.191 744.727 354.187C740.377 357.581 738.733 384.588 738.733 384.588H750.048L751.543 351.412C751.151 351.341 750.75 351.341 750.358 351.412Z" fill="#282741"/>
<path d="M740.443 382.999C740.443 382.999 742.531 360.262 745.023 357.406C746.295 355.8 747.981 354.571 749.899 353.85L749.36 382.42L740.443 382.999Z" fill="#35354F"/>
<path d="M741.064 366.457H739.69L738.733 372.868L740.134 373.043L741.064 366.457Z" fill="white"/>
<path d="M821.735 360.678C818.57 352.34 818.004 331.475 818.004 331.475L810.959 278.943C812.226 278.687 813.303 278.498 814.179 278.377C814.3 278.377 814.381 278.283 814.354 278.202C814.301 278.107 814.188 278.062 814.084 278.094C807.081 279.356 800.148 280.984 793.314 282.97L792.452 283.199C792.331 283.199 792.263 283.307 792.304 283.388C792.356 283.453 792.436 283.488 792.519 283.482H792.614L793.516 283.24C797.853 282.068 801.598 281.098 804.79 280.33L814.044 334.358C814.225 340.074 814.942 345.761 816.186 351.343C818.152 359.519 827.096 379.158 827.096 379.158L828.793 378.579C827.123 374.457 823.985 366.591 821.735 360.678Z" fill="#35354F"/>
<path d="M801.178 273.152H803.724C803.811 273.16 803.897 273.124 803.953 273.058L808.412 264.262H807.927L803.563 272.856H801.502C802.645 270.086 803.441 267.186 803.872 264.221H803.387C802.968 267.231 802.148 270.171 800.949 272.963C800.918 273.003 800.918 273.059 800.949 273.098C801.011 273.154 801.098 273.175 801.178 273.152Z" fill="#35354F"/>
<path d="M793.26 263.52H792.761C790.687 265.581 786.269 269.703 783.508 270.605C783.077 270.74 782.565 270.861 782.012 270.982C783.252 267.224 784.316 264.247 784.949 262.429C779.561 261.527 776.099 260.638 775.655 260.516C775.655 260.516 774.86 265.621 773.971 271.885C773.971 271.885 773.971 271.979 773.971 272.033C773.971 272.087 773.971 272.127 773.971 272.181C773.23 277.569 772.408 283.631 771.937 288.17C770.873 298.164 768.219 329.63 768.219 329.63C768.219 329.63 767.196 336.54 766.037 349.094C764.879 361.648 767.761 378.445 767.761 378.445L770.698 379.091C769.135 372.828 769.741 359.87 769.472 352.596C769.298 346.108 769.546 339.615 770.213 333.159C770.213 333.159 771.398 324.215 772.718 308.038C773.526 297.882 778.389 281.799 781.891 271.225C782.509 271.11 783.121 270.961 783.723 270.78C786.673 269.851 791.266 265.567 793.26 263.52Z" fill="#35354F"/>
<path d="M826.557 274.161C826.557 273.986 826.557 273.811 826.557 273.636C823.252 270.644 820.293 267.292 817.734 263.641H817.263C819.934 267.503 823.054 271.034 826.557 274.161Z" fill="#35354F"/>
<path d="M775.183 383.281C774.203 383.619 773.193 383.863 772.166 384.009C770.819 384.238 769.095 384.48 766.778 384.669C762.07 385.045 757.335 384.937 752.648 384.346C757.511 382.028 762.53 380.052 767.667 378.432L770.227 378.985L775.062 380.035L775.183 383.281Z" fill="#EE534F"/>
<path d="M775.182 383.281C774.202 383.618 773.192 383.862 772.165 384.008L770.226 378.957L775.061 380.007L775.182 383.281Z" fill="#D14646"/>
<path d="M850.412 384.666C843.928 385.34 837.392 385.34 830.908 384.666C828.119 384.396 826.503 384.086 826.503 384.086L827.069 379.049L829.318 378.281L832.389 377.23C832.821 378.086 833.57 378.739 834.477 379.049C835.986 379.628 850.412 384.666 850.412 384.666Z" fill="#EE534F"/>
<path d="M830.908 384.737C828.119 384.468 826.503 384.158 826.503 384.158L827.069 379.12L829.318 378.352C829.622 380.531 830.155 382.671 830.908 384.737Z" fill="#D14646"/>
<path d="M752.648 384.304V385.193H775.561V383.051L775.197 383.28L764.367 384.143L752.648 384.304Z" fill="#282741"/>
<path d="M825.856 383.752V385.206H847.476L850.83 384.883L850.789 384.29L848.378 384.344L846.034 384.479L827.123 384.156L825.856 383.752Z" fill="#282741"/>
<path d="M799.011 148.503C797.63 147.986 796.109 147.986 794.728 148.503C793.356 149.059 792.245 150.112 791.616 151.452C791.631 151.904 791.854 152.323 792.221 152.587C792.587 152.851 793.056 152.929 793.489 152.799C795.315 152.506 797.161 152.349 799.011 152.328V148.503Z" fill="#131323"/>
<path d="M807.43 148.503C806.049 147.986 804.528 147.986 803.146 148.503V152.314C804.996 152.335 806.842 152.493 808.669 152.786C809.103 152.915 809.573 152.837 809.941 152.573C810.31 152.31 810.536 151.892 810.555 151.439C809.916 150.104 808.802 149.057 807.43 148.503Z" fill="#131323"/>
<path d="M800.116 170.887C798.15 170.519 796.302 169.683 794.728 168.449L794.378 168.88C796.048 170.189 798.014 171.068 800.103 171.44C800.55 171.492 800.999 171.519 801.45 171.52C802.753 171.534 804.048 171.297 805.262 170.82L805.019 170.308C803.461 170.916 801.773 171.116 800.116 170.887Z" fill="#131323"/>
<path d="M798.755 150.941C799.483 152.006 799.945 153.23 800.102 154.51C800.102 156.086 799.429 162.39 799.429 162.39H798.27L797.678 163.481C798.442 164.579 799.6 165.341 800.91 165.609C802.877 165.852 804.211 163.333 804.211 163.333L803.578 162.188L801.934 162.43C801.934 162.43 800.924 156.153 801.651 154.214C802.379 152.274 803.093 149.971 803.093 149.971L798.755 150.941Z" fill="url(#paint5_linear)"/>
<path fill-rule="evenodd" clip-rule="evenodd" d="M746.007 384.94C746.007 386.906 723.815 388.5 696.439 388.5C669.063 388.5 646.869 386.906 646.869 384.94C646.869 382.974 669.063 381.381 696.439 381.381C723.815 381.381 746.007 382.974 746.007 384.94Z" fill="#ECEAF5"/>
<path d="M720.872 230.477C724.562 240.418 726.26 244.041 726.26 244.041C726.26 244.041 722.34 251.113 706.648 249.834C692.464 248.675 691.925 243.826 691.925 243.826L696.262 224.564C696.262 224.564 718.838 224.996 720.872 230.477Z" fill="#FFBE83"/>
<path d="M680.583 243.907L680.718 243.463C681.082 242.116 681.365 241.186 681.365 241.186L693.69 198.555L696.707 213.277L686.025 243.49C686.052 243.546 686.084 243.6 686.119 243.651C686.119 243.651 687.655 251.019 686.281 253.632C685.634 254.783 684.518 255.594 683.223 255.853C681.929 256.112 680.586 255.793 679.546 254.979C678.226 253.781 679.627 247.571 680.583 243.907Z" fill="#FFBE83"/>
<path d="M705.382 234.925C705.745 234.925 705.988 235.477 705.921 236.07C705.853 236.662 705.543 237.134 705.18 237.093C704.816 237.053 704.587 236.555 704.641 235.948C704.695 235.342 705.058 234.898 705.382 234.925Z" fill="#E09B63"/>
<path d="M721.977 233.4L723.189 236.566C719.864 235.231 716.342 234.453 712.764 234.262C705.894 233.656 694 233.131 694 233.131L694.674 230.221L721.977 233.4Z" fill="#E09B63"/>
<path d="M690.363 210.18L693.556 212.012C693.731 212.092 695.509 217.117 695.509 217.117L693.609 222.006C693.216 220.117 692.676 218.261 691.993 216.457C691.348 215.111 690.547 213.845 689.609 212.685L690.363 210.18Z" fill="#E09B63"/>
<path d="M684.41 230.668L690.242 231.368L689.097 234.601C688.38 234.373 687.625 234.286 686.875 234.345C685.528 234.426 683.17 234.749 683.17 234.749L684.41 230.668Z" fill="#E09B63"/>
<path d="M722.098 372.666C722.985 375.603 723.629 378.608 724.024 381.65C723.735 383.392 722.11 384.587 720.361 384.344C718.847 384.268 717.445 383.522 716.535 382.31L718.838 372.666H722.098Z" fill="#EE534F"/>
<path d="M658.264 374.01L659.948 375.856C659.948 375.856 660.985 383.076 660.905 383.318C660.905 383.318 648.122 383.668 645.684 383.318L658.264 374.01Z" fill="#EE534F"/>
<path d="M723.27 361.74C723.768 361.673 724.32 361.605 724.913 361.484L722.219 372.26L722.111 372.691C721.074 373.133 719.902 373.133 718.865 372.691L718.043 361.511C718.043 361.511 719.458 362.198 723.27 361.74Z" fill="#FFBE83"/>
<path d="M663.088 360.23L666.684 361.954L668.731 362.897L659.949 375.855C659.631 375.767 659.331 375.625 659.06 375.438C658.673 375.175 658.391 374.784 658.265 374.333L663.088 360.23Z" fill="#FFBE83"/>
<path d="M664.124 352.514C667.128 338.546 672.88 312.024 674.079 306.932C675.426 301.544 682.982 273.81 686.956 259.559C686.959 259.505 686.959 259.451 686.956 259.397C687.333 258.05 687.683 256.784 687.993 255.706C687.993 255.571 687.993 255.437 688.101 255.302C688.653 253.362 689.044 252.002 689.219 251.463C689.744 249.833 690.283 248.082 690.741 246.574C690.741 246.452 690.822 246.331 690.849 246.223C691.589 244.257 691.953 242.91 691.953 242.91C692.846 243.951 693.941 244.799 695.172 245.402C695.826 245.753 696.501 246.063 697.193 246.331L697.503 246.439C700.715 247.567 704.081 248.194 707.484 248.298C710.974 248.543 714.48 248.174 717.842 247.207L718.138 247.112C720.029 246.544 721.839 245.739 723.526 244.715L723.796 244.54C724.522 244.09 725.203 243.571 725.83 242.991C725.83 242.991 726.274 243.476 726.948 244.338L727.15 244.594C730.833 249.284 733.225 254.856 734.087 260.757C735.11 270.658 731.918 284.666 729.924 292.883C727.931 301.099 723.19 319.445 723.19 319.445C725.929 323.589 727.638 328.327 728.173 333.265C729.157 341.671 724.348 366.482 724.348 366.482C724.348 366.482 719.445 367.182 717.519 366.482C715.593 365.782 717.519 366.199 717.519 366.199C717.519 366.199 716.172 359.154 714.906 351.8C713.868 345.914 712.845 339.825 712.508 336.983C711.767 330.706 709.895 303.888 709.733 296.951C709.612 291.819 708.912 275.83 708.561 267.842C708.427 265.014 708.346 263.195 708.346 263.195L708.13 263.707L685.824 313.896C685.824 313.896 687.535 324.591 685.824 331.137C684.114 337.684 668.825 363.748 668.825 363.748L662.292 361.054C662.292 361.054 663.02 357.659 664.124 352.568V352.514Z" fill="#282741"/>
<path d="M661.512 382.43L661.135 384.464L645.388 384.37L645.2 383.09L661.512 382.43Z" fill="#282741"/>
<path d="M717.964 383.091C719.217 383.703 720.62 383.942 722.005 383.778C723.904 383.589 724.065 381.084 724.065 381.084C724.319 381.398 724.44 381.799 724.402 382.202C724.191 383.047 723.72 383.806 723.055 384.37C721.624 384.809 720.099 384.842 718.651 384.465C717.769 384.176 717.025 383.571 716.563 382.767C716.57 382.213 716.679 381.665 716.886 381.151C716.95 381.922 717.342 382.629 717.964 383.091Z" fill="#282741"/>
<path d="M727.19 183.009C721.802 180.235 702.567 178.968 698.23 180.181C693.893 181.393 692.694 190.539 688.397 201.504C684.747 210.825 693.233 210.165 694.175 216.967C694.608 221.707 694.035 226.486 692.492 230.989L724.631 234.747C726.605 228.406 728.193 221.951 729.386 215.418C731.689 203.349 729.076 187.199 727.19 183.009Z" fill="#EE534F"/>
<path d="M702.54 175.414C695.28 175.616 694.081 160.381 694.97 150.845C695.859 141.308 702.823 135.718 713.302 138.008C713.302 138.008 721.842 145.066 721.061 153.404C720.818 156.017 721.923 160.22 720.185 163.25C719.646 164.207 717.06 164.193 716.144 164.974L714.353 179.966C716.824 180.194 719.274 180.613 721.68 181.219C721.68 181.219 715.538 189.746 707.497 189.49C699.455 189.234 700.762 179.805 700.762 179.805C702.19 179.665 703.624 179.598 705.059 179.603C705.05 179.504 705.05 179.405 705.059 179.306L704.762 174.983C704.046 175.233 703.298 175.378 702.54 175.414Z" fill="#FFBE83"/>
<path d="M646.546 204.992L652.149 209.531L662.481 206.878L671.034 226.248L655.005 222.341L645.347 206.474L646.546 204.992Z" fill="#DDDDDD"/>
<path d="M654.48 208.926L652.15 209.532L647.772 203.201L654.48 208.926Z" fill="#DDDDDD"/>
<path d="M651.934 211.376L661.282 209.235C661.282 209.235 669.782 225.937 670.213 226.139L660.703 227.055L661.309 228.146L651.88 223.971L644 205.477L651.934 211.376Z" fill="#EE534F"/>
<path d="M704.803 174.969L712.454 169.123C711.435 171.047 710.142 172.812 708.615 174.363C707.532 175.279 706.264 175.95 704.897 176.329L704.803 174.969Z" fill="#E09B63"/>
<path d="M702.096 155.047C702.096 155.047 702.244 158.482 701.342 159.936C700.625 160.883 699.601 161.549 698.446 161.822C698.446 161.822 698.621 163.6 699.887 163.843C701.688 163.936 703.298 162.729 703.712 160.974C704.048 159.319 704.233 157.637 704.264 155.949L702.096 155.047Z" fill="url(#paint6_linear)"/>
<path d="M696.479 155.358C697.053 154.907 697.8 154.738 698.512 154.9C699.245 155.021 699.848 155.541 700.075 156.247C700.075 156.247 699.294 158.604 697.543 157.877C696.556 157.472 696.081 156.347 696.479 155.358Z" fill="white"/>
<path d="M708.156 155.76C708.888 155.881 709.491 156.401 709.719 157.107C709.719 157.107 708.937 159.451 707.173 158.737C706.696 158.543 706.315 158.167 706.115 157.692C705.916 157.217 705.913 156.682 706.109 156.205C706.686 155.749 707.442 155.585 708.156 155.76Z" fill="white"/>
<path d="M705.8 156.191C706.399 155.534 707.333 155.301 708.171 155.598C709.011 155.784 709.711 156.359 710.056 157.147L709.801 157.376C709.491 156.994 709.094 156.694 708.642 156.501C708.802 156.718 708.878 156.986 708.858 157.255C708.798 157.902 708.225 158.378 707.578 158.319C706.931 158.259 706.454 157.687 706.514 157.039C706.536 156.735 706.682 156.452 706.918 156.258C706.551 156.285 706.189 156.357 705.84 156.474L705.8 156.191Z" fill="#6B3000"/>
<path d="M701.45 165.62C703.16 165.122 705.208 167.196 705.49 167.465L706.42 167.196C706.051 168.414 705.111 169.374 703.901 169.769C701.692 170.685 701.005 168.098 701.005 168.098H702.352L699.927 167.708C699.803 166.719 700.47 165.804 701.45 165.62Z" fill="#EE534F"/>
<path d="M701.665 168.288C702.176 168.316 702.689 168.316 703.2 168.288C705.078 168.156 706.84 167.33 708.144 165.971L707.753 165.621L707.955 165.796L707.753 165.621C706.531 166.849 704.913 167.603 703.187 167.749C701.767 167.862 700.343 167.607 699.051 167.008L698.782 167.466C699.675 167.939 700.657 168.219 701.665 168.288Z" fill="#6B3000"/>
<path d="M701.112 150.965L695.899 150.48C697.013 149.952 698.213 149.632 699.442 149.537C700.278 149.528 700.991 150.138 701.112 150.965Z" fill="#6B3000"/>
<path d="M698.539 137.078C702.203 133.805 715.457 131.111 724.374 138.816C726.974 141.065 733.709 155.101 728.765 165.472C724.94 173.46 715.147 170.658 715.147 170.658C715.327 168.701 715.674 166.764 716.185 164.866C721.195 161.485 719.592 155.99 718.501 155.437C716.845 154.629 715.605 156.353 715.04 156.515C714.838 156.515 715.161 155.532 715.511 154.009C714.501 153.511 712.817 152.663 711.052 151.733L705.934 151.248C706.202 150.458 707.016 149.991 707.833 150.157C708.131 150.219 708.424 150.305 708.709 150.413C706.895 149.379 705.153 148.222 703.496 146.951C701.734 145.645 700.531 143.72 700.129 141.563C700.172 144.172 701.247 146.656 703.119 148.473C699.994 147.759 698.674 144.756 698.122 142.506C696.875 144.003 695.982 145.762 695.508 147.652C695.508 147.652 694.889 140.378 698.539 137.078Z" fill="#6B3000"/>
<path fill-rule="evenodd" clip-rule="evenodd" d="M693.394 155.275C693.634 153.037 695.604 151.393 697.849 151.556C700.094 151.72 701.805 153.632 701.718 155.881L704.857 156.258C705.234 154.104 707.205 152.602 709.383 152.81C711.029 153.011 712.385 154.196 712.804 155.8L717.384 156.339L717.276 157.242L712.979 156.703C713.006 156.99 713.006 157.278 712.979 157.565C712.759 159.889 710.697 161.595 708.372 161.377C706.267 161.077 704.72 159.246 704.776 157.12L701.611 156.743C701.092 158.897 698.982 160.272 696.802 159.874C694.622 159.477 693.132 157.447 693.407 155.248L693.394 155.275ZM708.414 160.998C709.997 161.264 711.582 160.538 712.415 159.165C713.248 157.792 713.159 156.051 712.191 154.77C711.223 153.489 709.572 152.927 708.024 153.353C706.476 153.779 705.344 155.105 705.168 156.701C704.887 158.782 706.336 160.699 708.414 160.998ZM701.063 157.784C700.243 159.161 698.668 159.9 697.085 159.651C694.999 159.358 693.535 157.444 693.798 155.354C693.972 153.761 695.098 152.434 696.641 152.004C698.185 151.573 699.835 152.125 700.808 153.398C701.782 154.67 701.883 156.408 701.063 157.784Z" fill="#EE534F"/>
<path d="M654.292 211.931L660.447 210.584L665.418 220.794C665.418 220.794 660.34 221.872 658.333 220.794C656.326 219.716 654.292 211.931 654.292 211.931Z" fill="#F95D5D"/>
<path d="M652.743 211.324L659.424 227.259L657.538 226.478L650.992 210.678L652.743 211.324Z" fill="#F95D5D"/>
<path d="M726.61 362.683L725.384 366.199C719.997 368.489 716.777 366.199 716.777 366.199L715.08 361.781C719.741 363.748 726.287 362.791 726.61 362.683Z" fill="#383851"/>
<path d="M662.292 357.861C665.609 358.247 668.737 359.611 671.276 361.781L668.986 364.475C666.373 363.128 661.874 360.986 661.874 360.986L662.292 357.861Z" fill="#383851"/>
<path fill-rule="evenodd" clip-rule="evenodd" d="M706.89 253.82L705.368 250.992L706.392 251.126C707.227 251.22 708.022 251.22 708.816 251.22C712.129 251.214 715.415 250.63 718.528 249.496C718.812 250.282 719.168 251.04 719.592 251.759C721.815 255.049 725.256 257.318 729.156 258.063C729.337 259.031 729.427 260.015 729.425 261C729.344 268.866 726.704 294.257 724.697 301.988C723.271 307.902 722.151 313.887 721.343 319.917V319.997C723.377 325.095 724.591 330.482 724.94 335.959C725.229 343.334 724.405 360.682 724.231 364.352C724.21 364.778 724.199 365.02 724.199 365.041C724.195 365.086 724.211 365.13 724.241 365.164C724.272 365.197 724.315 365.216 724.361 365.216C724.403 365.216 724.445 365.199 724.475 365.168C724.505 365.138 724.522 365.097 724.522 365.054C724.536 364.852 725.586 344.203 725.263 335.946C724.935 330.447 723.73 325.035 721.694 319.917C722.494 313.918 723.609 307.965 725.034 302.083C727.095 294.324 729.695 268.879 729.789 261.013C729.781 259.987 729.682 258.964 729.493 257.955V257.861C728.536 253.794 726.955 249.9 724.805 246.317C725.602 245.801 726.37 245.244 727.108 244.647L726.906 244.391C726.201 244.98 725.464 245.528 724.697 246.035C724.371 245.486 724.069 245.001 723.83 244.615L723.808 244.58L723.539 244.755L724.428 246.21C722.631 247.362 720.717 248.319 718.717 249.065C718.484 248.455 718.312 247.824 718.205 247.18C718.191 247.093 718.117 247.03 718.03 247.031C717.984 247.035 717.942 247.057 717.914 247.093C717.886 247.129 717.874 247.175 717.882 247.22C717.99 247.891 718.166 248.55 718.407 249.187C714.571 250.591 710.475 251.138 706.405 250.789C702.912 250.536 699.466 249.83 696.155 248.688C696.647 247.951 697.097 247.187 697.502 246.398L697.192 246.291C696.784 247.077 696.335 247.842 695.845 248.58C694.135 247.964 692.506 247.141 690.996 246.129C690.986 246.169 690.968 246.211 690.95 246.255C690.92 246.327 690.888 246.403 690.888 246.479C692.368 247.464 693.959 248.269 695.629 248.877C693.812 251.644 691.248 253.839 688.234 255.208C688.127 255.342 688.127 255.477 688.127 255.612C691.321 254.212 694.037 251.908 695.939 248.984C698.889 250.012 701.95 250.685 705.058 250.992C705.032 251.037 705.032 251.094 705.058 251.14L706.607 253.968C706.633 254.019 706.685 254.05 706.742 254.049H706.823C706.902 254.002 706.931 253.902 706.89 253.82ZM729.13 257.726C725.359 256.981 722.033 254.779 719.876 251.597C719.44 250.903 719.075 250.168 718.785 249.402C720.794 248.636 722.721 247.67 724.536 246.519C726.623 250.002 728.172 253.781 729.13 257.726Z" fill="#383851"/>
<path d="M668.354 362.361C668.354 362.227 675.493 348.676 678.645 337.227C680.655 329.379 682.006 321.377 682.686 313.304C682.821 312.981 697.341 280.209 700.332 274.39C703.228 268.786 707.417 261.998 707.767 261.445C707.631 260.367 707.437 259.297 707.188 258.239C707.188 258.15 707.26 258.078 707.349 258.078C707.439 258.078 707.511 258.15 707.511 258.239C707.511 258.239 707.875 259.775 708.09 261.499C708.19 262.227 708.244 262.96 708.252 263.695C708.252 263.784 708.179 263.856 708.09 263.856C708.045 263.86 708 263.845 707.967 263.814C707.934 263.783 707.915 263.74 707.915 263.695C707.915 263.156 707.915 262.577 707.821 262.024C706.851 263.6 703.214 269.581 700.628 274.592C697.678 280.343 683.467 312.375 682.996 313.466C682.323 321.548 680.972 329.56 678.955 337.415C675.803 348.905 668.718 362.482 668.651 362.617C668.622 362.673 668.565 362.709 668.502 362.711H668.422C668.325 362.73 668.231 362.667 668.213 362.57C668.194 362.473 668.257 362.38 668.354 362.361Z" fill="#383851"/>
<path opacity="0.36" d="M710.892 270.158C710.541 273.579 711.888 308.938 712.75 310.069C713.612 311.201 717.384 275.627 715.148 268.609C712.912 261.591 711.457 264.676 710.892 270.158Z" fill="#383851"/>
<path opacity="0.36" d="M685.865 267.427C685.865 267.427 674.132 309.547 674.698 309.695C675.264 309.843 687.939 274.997 688.006 270.929C688.074 266.861 685.865 267.427 685.865 267.427Z" fill="#383851"/>
<path d="M696.169 155.358C696.772 154.708 697.702 154.476 698.54 154.766C699.374 154.955 700.069 155.53 700.412 156.315L700.17 156.544C699.86 156.162 699.463 155.861 699.011 155.668C699.171 155.886 699.247 156.153 699.227 156.422C699.135 157.045 698.573 157.487 697.946 157.43C697.32 157.372 696.847 156.836 696.869 156.207C696.903 155.905 697.047 155.627 697.273 155.426C696.91 155.451 696.551 155.528 696.209 155.655L696.169 155.358Z" fill="#6B3000"/>
<path d="M662.575 222.274C666.036 221.816 673.566 226.557 673.566 226.557L710.217 222.516L722.34 189.192C722.34 189.192 733.992 186.821 733.965 190.539C733.938 194.257 721.977 221.115 717.841 227.446C713.706 233.777 674.32 232.834 674.32 232.834C674.32 232.834 659.369 231.945 658.386 229.224C657.911 227.743 658.099 226.13 658.902 224.798C659.704 223.466 661.043 222.546 662.575 222.274Z" fill="#FFBE83"/>
<path d="M717.478 197.112L731.069 203.214C731.069 203.214 736.699 190.013 733.925 187.05C731.15 184.086 724.684 182.039 724.684 182.039L717.478 197.112Z" fill="#EE534F"/>
<path d="M719.162 197.826L718.529 199.389C720.811 200.065 722.994 201.039 725.022 202.285C726.469 203.539 727.424 205.267 727.716 207.161L729.723 202.608L719.162 197.826Z" fill="#E09B63"/>
</g>
<defs>
<linearGradient id="paint0_linear" x1="981.89" y1="168.434" x2="990.227" y2="162.273" gradientUnits="userSpaceOnUse">
<stop stop-color="#FF9D67"/>
<stop offset="1" stop-color="#FFB878"/>
</linearGradient>
<linearGradient id="paint1_linear" x1="882.167" y1="172.189" x2="890.545" y2="163.389" gradientUnits="userSpaceOnUse">
<stop stop-color="#FFA56A"/>
<stop offset="1" stop-color="#FFBE83"/>
</linearGradient>
<linearGradient id="paint2_linear" x1="788.288" y1="179.345" x2="812.534" y2="179.345" gradientUnits="userSpaceOnUse">
<stop stop-color="#FFA56A"/>
<stop offset="1" stop-color="#FFB183"/>
</linearGradient>
<linearGradient id="paint3_linear" x1="803.47" y1="156.659" x2="809.289" y2="156.659" gradientUnits="userSpaceOnUse">
<stop stop-color="#FFA56A"/>
<stop offset="1" stop-color="#FFB183"/>
</linearGradient>
<linearGradient id="paint4_linear" x1="792.101" y1="156.676" x2="797.92" y2="156.676" gradientUnits="userSpaceOnUse">
<stop stop-color="#FFA56A"/>
<stop offset="1" stop-color="#FFB183"/>
</linearGradient>
<linearGradient id="paint5_linear" x1="803.782" y1="164.982" x2="801.662" y2="151.889" gradientUnits="userSpaceOnUse">
<stop stop-color="#FFA56A"/>
<stop offset="1" stop-color="#FFBE83"/>
</linearGradient>
<linearGradient id="paint6_linear" x1="695.294" y1="159.891" x2="700.312" y2="154.535" gradientUnits="userSpaceOnUse">
<stop stop-color="#FFA56A"/>
<stop offset="1" stop-color="#FFBE83"/>
</linearGradient>
<clipPath id="clip0">
<rect width="2581" height="311" fill="white" transform="translate(-354 0.0703125)"/>
</clipPath>
<clipPath id="clip1">
<rect width="393" height="262" fill="white" transform="translate(644 127.07)"/>
</clipPath>
</defs>
</svg>
