<svg width="591" height="221" viewBox="0 0 591 221" fill="none" xmlns="http://www.w3.org/2000/svg">
<g opacity="0.5">
<path fill-rule="evenodd" clip-rule="evenodd" d="M216.395 1.73329L116.73 47.7516L17.0656 1.73329C10.0742 -2.10464 0.433594 3.40836 0.433594 13.2655V205.41C0.433594 212.773 4.79415 218.774 10.7114 218.958C10.9834 218.993 11.2587 218.993 11.5307 218.958H12.1224L77.4398 212.101L65.0682 194.274C59.6607 186.644 66.2152 180.017 73.1521 182.595C74.5449 183.11 76.0561 182.429 77.4125 182.788L61.0263 126.903C60.9625 126.71 60.9079 126.517 60.8533 126.323L60.7258 125.9V125.771C60.2796 123.503 60.6619 121.147 61.8017 119.142C62.9415 117.136 64.7617 115.616 66.925 114.864C69.0883 114.111 71.4481 114.177 73.5672 115.048C75.6864 115.92 77.4212 117.539 78.4503 119.605V119.687C78.605 120 97.2489 166.507 97.2489 166.507C97.6836 164.149 98.9355 162.025 100.78 160.517C102.624 159.009 104.94 158.215 107.311 158.279C109.682 158.342 111.954 159.258 113.717 160.862C115.48 162.466 116.619 164.654 116.931 167.031C117.259 164.584 118.461 162.342 120.311 160.728C122.16 159.115 124.529 158.24 126.972 158.269C131.842 158.269 135.62 162.623 136.467 167.316L147.546 135.748C148.313 133.635 149.789 131.862 151.717 130.737C153.645 129.612 155.903 129.207 158.096 129.593C160.289 129.979 162.278 131.13 163.718 132.847C165.157 134.564 165.954 136.737 165.971 138.988V139.282L156.103 212.037L221.347 218.894H221.939C222.211 218.928 222.486 218.928 222.758 218.894C228.676 218.71 232.708 212.746 232.708 205.374V13.2195C232.699 3.37154 223.387 -2.10464 216.395 1.73329Z" fill="#F2F2F2"/>
<g style="mix-blend-mode:exclusion">
<path d="M529.088 0.5H501.483C499.702 0.5 497.994 1.21637 496.735 2.49149C495.475 3.76661 494.768 5.49607 494.768 7.29936V107.01C494.768 108.814 495.475 110.543 496.735 111.818C497.994 113.093 499.702 113.81 501.483 113.81H529.088C570.259 113.81 591 91.1452 591 57.3878C591 23.6303 570.259 0.5 529.088 0.5ZM537.792 79.3219H530.605C529.418 79.3219 528.279 78.8443 527.439 77.9942C526.6 77.1441 526.128 75.9912 526.128 74.789V39.0295C526.128 37.8274 526.6 36.6744 527.439 35.8243C528.279 34.9743 529.418 34.4967 530.605 34.4967H537.32C546.758 34.4967 552.987 42.4922 552.987 57.3878C552.987 72.2833 547.292 79.3345 537.854 79.3345L537.792 79.3219ZM279.921 113.81H300.065C301.846 113.81 303.554 113.093 304.814 111.818C306.073 110.543 306.78 108.814 306.78 107.01V75.2801L316.877 96.4084C317.437 97.5509 318.303 98.511 319.376 99.179C320.449 99.8469 321.686 100.196 322.945 100.186H323.219C324.435 100.193 325.631 99.865 326.678 99.2373C327.725 98.6097 328.584 97.7059 329.163 96.6224L340.354 75.2927V107.023C340.354 108.826 341.061 110.556 342.321 111.831C343.58 113.106 345.288 113.822 347.069 113.822H367.213C368.095 113.822 368.968 113.646 369.782 113.305C370.597 112.963 371.337 112.462 371.961 111.831C372.584 111.199 373.079 110.45 373.416 109.625C373.754 108.8 373.928 107.916 373.928 107.023V7.29936C373.928 6.40646 373.754 5.52229 373.416 4.69736C373.079 3.87243 372.584 3.12287 371.961 2.49149C371.337 1.86012 370.597 1.35929 369.782 1.01759C368.968 0.675897 368.095 0.5 367.213 0.5H345.44C344.22 0.500149 343.024 0.836629 341.979 1.47329C340.934 2.10994 340.08 3.02277 339.508 4.11375L322.448 36.7631L305.375 4.12632C304.804 3.03534 303.95 2.12255 302.905 1.48589C301.86 0.849232 300.663 0.512752 299.444 0.512604H279.921C278.14 0.512604 276.433 1.22897 275.173 2.5041C273.914 3.77922 273.207 5.50863 273.207 7.31193V107.023C273.21 108.824 273.919 110.55 275.178 111.823C276.437 113.095 278.143 113.81 279.921 113.81ZM452.266 102.88L453.957 108.886C454.357 110.307 455.204 111.558 456.368 112.448C457.532 113.339 458.952 113.821 460.411 113.822H479.063C480.109 113.824 481.14 113.577 482.075 113.103C483.01 112.629 483.823 111.939 484.447 111.09C485.072 110.241 485.492 109.255 485.673 108.212C485.855 107.169 485.792 106.098 485.492 105.084C478.789 82.5453 461.095 23.0134 455.947 5.61212C455.532 4.21625 454.684 2.99305 453.528 2.12426C452.372 1.25547 450.97 0.787416 449.531 0.789615H419.19C417.748 0.78955 416.344 1.25971 415.186 2.13052C414.028 3.00133 413.178 4.22652 412.761 5.62469L383.229 105.096C382.917 106.115 382.846 107.194 383.021 108.246C383.197 109.297 383.615 110.292 384.241 111.151C384.867 112.009 385.683 112.705 386.624 113.185C387.565 113.664 388.604 113.913 389.658 113.91H409.13C410.59 113.909 412.009 113.427 413.173 112.537C414.338 111.646 415.184 110.396 415.584 108.975L417.275 102.968C417.675 101.547 418.521 100.297 419.686 99.4063C420.85 98.5157 422.269 98.0335 423.729 98.0327H445.813C447.261 98.028 448.672 98.4975 449.835 99.3711C450.998 100.245 451.851 101.476 452.266 102.88ZM425.382 71.7041L434.335 39.9739L443.288 71.7041H425.382ZM306.78 134.182H279.921C278.14 134.182 276.433 134.899 275.173 136.174C273.914 137.449 273.207 139.178 273.207 140.982V213.508C273.207 215.311 273.914 217.041 275.173 218.316C276.433 219.591 278.14 220.307 279.921 220.307H309.018C339.832 220.307 353.783 202.465 353.783 177.245C353.783 152.024 337.581 134.182 306.78 134.182ZM309.018 193.097H304.542C303.948 193.097 303.379 192.859 302.959 192.434C302.54 192.008 302.304 191.432 302.304 190.831V163.634C302.304 163.033 302.54 162.456 302.959 162.031C303.379 161.606 303.948 161.367 304.542 161.367H309.018C317.723 161.367 322.448 166.089 322.448 177.232C322.448 188.376 317.698 193.135 309.018 193.135V193.097ZM577.21 172.372C574.325 170.417 568.141 168.217 558.658 165.774L553.97 164.603C553.638 164.528 553.158 164.398 552.527 164.213C545.39 162.391 541.821 160.117 541.821 157.388C541.768 156.563 541.929 155.737 542.286 154.994C542.644 154.25 543.186 153.613 543.86 153.145C545.757 152.083 547.915 151.598 550.078 151.747C552.636 151.59 555.183 152.213 557.389 153.535C559.105 154.731 562.152 156.721 562.55 159.151H579.647C580.322 159.154 580.988 159.002 581.596 158.707C582.204 158.411 582.739 157.98 583.159 157.446C583.579 156.911 583.874 156.288 584.021 155.621C584.169 154.955 584.166 154.263 584.012 153.598C582.807 148.081 579.677 143.19 575.196 139.823C568.012 134.581 559.354 131.817 550.5 131.941C541.497 131.786 532.698 134.66 525.482 140.113C519.401 144.772 515.534 150.299 515.534 158.459C515.723 162.554 516.793 166.559 518.668 170.194C520.315 173.458 522.732 176.261 525.706 178.353C528.143 179.859 530.747 181.067 533.465 181.954C537.021 183.238 541.796 184.665 547.79 186.235L551.159 187.079C558.48 188.942 562.143 191.364 562.152 194.344C562.159 195.251 561.917 196.141 561.454 196.917C560.991 197.693 560.324 198.323 559.528 198.738C557.312 199.913 554.826 200.466 552.328 200.337C548.681 200.337 545.937 199.686 544.096 198.386C542.256 197.127 540.851 193.865 540.155 190.831H520.757C520.091 190.83 519.433 190.98 518.832 191.268C518.23 191.557 517.699 191.977 517.278 192.499C516.857 193.021 516.555 193.631 516.396 194.286C516.236 194.94 516.222 195.622 516.355 196.283C517.71 202.906 520.57 208.673 525.556 212.526C531.873 217.411 539.707 220.282 550.488 220.282C562.189 220.282 571.888 217.411 578.168 212.526C584.447 207.64 587.183 199.934 587.183 190.818C587.183 186.6 586.747 183.692 585.094 180.594C583.171 177.241 580.463 174.417 577.21 172.372ZM504.417 134.182H485.38C483.809 134.183 482.287 134.742 481.081 135.761C479.875 136.78 479.059 138.195 478.777 139.76L470.831 184.032L462.885 139.76C462.603 138.195 461.788 136.78 460.581 135.761C459.375 134.742 457.854 134.183 456.283 134.182H437.233C436.191 134.182 435.164 134.427 434.232 134.897C433.3 135.368 432.489 136.052 431.863 136.895C431.237 137.737 430.814 138.716 430.625 139.753C430.437 140.79 430.49 141.857 430.779 142.87L451.508 215.384C451.912 216.8 452.76 218.045 453.924 218.931C455.088 219.817 456.505 220.295 457.961 220.295H483.676C485.132 220.295 486.549 219.817 487.713 218.931C488.877 218.045 489.725 216.8 490.13 215.384L510.859 142.87C511.148 141.858 511.2 140.792 511.013 139.756C510.825 138.72 510.403 137.742 509.778 136.9C509.153 136.057 508.344 135.373 507.414 134.902C506.483 134.43 505.458 134.184 504.417 134.182ZM416.442 134.182H367.2C366.319 134.182 365.445 134.358 364.631 134.7C363.816 135.042 363.076 135.543 362.452 136.174C361.829 136.805 361.334 137.555 360.997 138.38C360.659 139.205 360.486 140.089 360.486 140.982V213.508C360.486 215.311 361.193 217.041 362.452 218.316C363.712 219.591 365.42 220.307 367.2 220.307H416.442C418.223 220.307 419.931 219.591 421.19 218.316C422.449 217.041 423.157 215.311 423.157 213.508V202.176C423.157 200.974 422.685 199.821 421.845 198.97C421.006 198.12 419.867 197.643 418.68 197.643H389.583C388.989 197.643 388.42 197.404 388 196.979C387.58 196.554 387.345 195.977 387.345 195.376V190.844C387.345 190.242 387.58 189.666 388 189.241C388.42 188.816 388.989 188.577 389.583 188.577H411.965C412.553 188.577 413.135 188.46 413.678 188.232C414.222 188.004 414.715 187.67 415.131 187.249C415.546 186.829 415.876 186.329 416.101 185.779C416.326 185.229 416.442 184.639 416.442 184.044V170.445C416.442 169.243 415.97 168.09 415.131 167.24C414.291 166.39 413.153 165.913 411.965 165.913H389.583C388.989 165.913 388.42 165.674 388 165.249C387.58 164.824 387.345 164.247 387.345 163.646V159.113C387.345 158.512 387.58 157.936 388 157.511C388.42 157.086 388.989 156.847 389.583 156.847H418.693C419.28 156.847 419.862 156.73 420.406 156.502C420.949 156.274 421.442 155.94 421.858 155.519C422.274 155.098 422.603 154.599 422.828 154.049C423.053 153.499 423.169 152.909 423.169 152.314V140.982C423.169 140.088 422.995 139.203 422.657 138.377C422.318 137.551 421.823 136.801 421.198 136.169C420.573 135.538 419.831 135.037 419.015 134.696C418.199 134.355 417.325 134.181 416.442 134.182Z" fill="#F2F2F2"/>
</g>
</g>
</svg>
