<svg width="64" height="39" viewBox="0 0 64 39" fill="none" xmlns="http://www.w3.org/2000/svg">
<path d="M19.0472 26.4009H30.262V22.8533H24.5402V22.7389L27.4011 20.2213C28.9803 18.8709 30.1476 17.7036 30.1476 15.5293C30.1476 12.4166 27.9733 10.1508 24.5402 10.1508C21.1299 10.1508 18.8183 12.4624 18.8183 15.8726H22.4803C22.4803 14.591 23.2585 13.8128 24.4257 13.8128C25.593 13.8128 26.3712 14.6138 26.3712 15.5293C26.3712 16.4448 26.0279 16.811 25.5701 17.2459L19.0472 23.0822V26.4009ZM30.1846 26.4009H33.961L36.1353 22.7389H36.5931L38.7674 26.4009H42.5438L38.653 20.4501L42.315 14.7283H38.5385L36.5931 18.047H36.1353L34.1899 14.7283H30.4135L34.0755 20.4501L30.1846 26.4009Z" fill="black"/>
<path d="M33.2502 33.1302H2M2 33.1302L5.96129 29.1689M2 33.1302L5.96129 37.0915" stroke="black" stroke-width="2.64086"/>
<path d="M30.169 4.96107L61.4192 4.96107M61.4192 4.96107L57.4579 8.92236M61.4192 4.96107L57.4579 0.999782" stroke="black" stroke-width="2.64086"/>
</svg>
