<svg width="88" height="88" viewBox="0 0 88 88" fill="none" xmlns="http://www.w3.org/2000/svg">
<g clip-path="url(#clip0)">
<path d="M68.7508 57.7499H19.2509C8.63648 57.7499 0.000976562 49.1144 0.000976562 38.4999C0.000976562 27.8855 8.63648 19.25 19.2509 19.25C20.226 19.25 21.1928 19.3223 22.146 19.4662C23.4062 8.52412 32.7266 0 44.0009 0C55.2752 0 64.5956 8.52412 65.8558 19.4662C66.809 19.3223 67.7758 19.25 68.7508 19.25C79.3653 19.25 88.0008 27.8855 88.0008 38.4999C88.0008 49.1144 79.3653 57.7499 68.7508 57.7499ZM19.2509 24.75C11.6692 24.75 5.50097 30.9182 5.50097 38.4999C5.50097 46.0817 11.6692 52.2499 19.2509 52.2499H68.7508C76.3326 52.2499 82.5008 46.0817 82.5008 38.4999C82.5008 30.9182 76.3326 24.75 68.7508 24.75C67.1689 24.75 65.62 25.0152 64.1474 25.5383C63.2804 25.8463 62.3169 25.7004 61.5799 25.1492C60.8431 24.5982 60.4306 23.7153 60.4809 22.7966C60.4942 22.552 60.5007 22.2915 60.5007 22C60.5007 12.9018 53.0989 5.49999 44.0007 5.49999C34.9025 5.49999 27.5008 12.9018 27.5008 22C27.5008 22.2915 27.5073 22.552 27.5205 22.7966C27.5709 23.7153 27.1585 24.5982 26.4215 25.1492C25.6845 25.7004 24.7207 25.8462 23.8541 25.5383C22.3818 25.0152 20.8329 24.75 19.2509 24.75Z" fill="#96969C"/>
<path d="M37.1225 72.875C36.5983 72.875 36.0684 72.7254 35.5997 72.413C34.3359 71.5704 33.9944 69.863 34.8369 68.5994L37.5869 64.4744C38.4295 63.2106 40.137 62.8693 41.4005 63.7116C42.6643 64.5542 43.0058 66.2616 42.1633 67.5252L39.4133 71.6502C38.8832 72.4451 38.0111 72.875 37.1225 72.875Z" fill="#96969C"/>
<path d="M13.7475 72.875C13.2233 72.875 12.6934 72.7254 12.2247 72.413C10.9609 71.5704 10.6194 69.863 11.4619 68.5994L14.2119 64.4744C15.0543 63.2106 16.762 62.8693 18.0255 63.7116C19.2893 64.5542 19.6308 66.2616 18.7883 67.5252L16.0383 71.6502C15.5082 72.4451 14.6361 72.875 13.7475 72.875Z" fill="#96969C"/>
<path d="M63.2475 72.875C62.7233 72.875 62.1934 72.7254 61.7247 72.413C60.4609 71.5704 60.1194 69.863 60.9619 68.5994L63.7119 64.4744C64.5545 63.2106 66.2619 62.8693 67.5255 63.7116C68.7893 64.5542 69.1308 66.2616 68.2883 67.5252L65.5383 71.6502C65.0082 72.4451 64.1361 72.875 63.2475 72.875Z" fill="#96969C"/>
<path d="M37.1225 87.9999C36.5983 87.9999 36.0684 87.8504 35.5997 87.5379C34.3359 86.6954 33.9944 84.988 34.8369 83.7244L37.5869 79.5994C38.4295 78.3356 40.137 77.9943 41.4005 78.8366C42.6643 79.6791 43.0058 81.3865 42.1633 82.6502L39.4133 86.7752C38.8832 87.5701 38.0111 87.9999 37.1225 87.9999Z" fill="#96969C"/>
<path d="M49.4975 78.3749C48.9733 78.3749 48.4434 78.2254 47.9747 77.9129C46.7109 77.0704 46.3694 75.3629 47.2119 74.0993L49.9619 69.9743C50.8043 68.7105 52.512 68.3694 53.7755 69.2115C55.0393 70.0541 55.3808 71.7615 54.5383 73.0251L51.7883 77.1501C51.2582 77.945 50.3861 78.3749 49.4975 78.3749Z" fill="#96969C"/>
<path d="M61.8725 87.9999C61.3483 87.9999 60.8184 87.8504 60.3497 87.5379C59.0859 86.6954 58.7444 84.988 59.5869 83.7244L62.3369 79.5994C63.1793 78.3356 64.8869 77.9943 66.1505 78.8366C67.4143 79.6791 67.7558 81.3865 66.9133 82.6502L64.1633 86.7752C63.6332 87.5701 62.7611 87.9999 61.8725 87.9999Z" fill="#96969C"/>
<path d="M24.7475 78.3749C24.2233 78.3749 23.6934 78.2254 23.2247 77.9129C21.9609 77.0704 21.6194 75.3629 22.4619 74.0993L25.2119 69.9743C26.0543 68.7105 27.7619 68.3694 29.0255 69.2115C30.2893 70.0541 30.6308 71.7615 29.7883 73.0251L27.0383 77.1501C26.5082 77.945 25.6361 78.3749 24.7475 78.3749Z" fill="#96969C"/>
<path d="M12.3725 87.9999C11.8483 87.9999 11.3184 87.8504 10.8497 87.5379C9.58592 86.6954 9.24441 84.988 10.0869 83.7244L12.8369 79.5994C13.6793 78.3356 15.387 77.9943 16.6505 78.8366C17.9143 79.6791 18.2558 81.3865 17.4133 82.6502L14.6633 86.7752C14.1332 87.5701 13.2611 87.9999 12.3725 87.9999Z" fill="#96969C"/>
</g>
<defs>
<clipPath id="clip0">
<rect width="88" height="88" fill="white"/>
</clipPath>
</defs>
</svg>
