<svg width="251" height="77" viewBox="0 0 251 77" fill="none" xmlns="http://www.w3.org/2000/svg">
<path d="M68.0222 25.2422H69.9422V10.2422H75.4622V8.44219H62.5022V10.2422H68.0222V25.2422ZM83.1088 25.2422H84.6688V17.5622C84.6688 14.6582 82.8928 13.0022 79.9888 13.0022C76.9888 13.0022 75.3088 14.8022 75.1888 16.7222H76.9888C77.1088 15.6422 78.1648 14.6822 79.9888 14.6822C81.8128 14.6822 82.8688 15.7382 82.8688 17.5622V17.9222H79.6288C76.2688 17.9222 74.8288 19.4582 74.8288 21.7622C74.8288 23.9462 76.5088 25.4822 79.0288 25.4822C80.3728 25.4822 81.2848 25.0982 81.8848 24.6422C82.2448 24.4022 82.5328 24.1142 82.7488 23.8022H82.8688L83.1088 25.2422ZM82.8688 20.0822C82.8688 22.3862 81.4288 23.8022 79.0288 23.8022C77.4688 23.8022 76.6288 22.9862 76.6288 21.7622C76.6288 20.5862 77.4448 19.6022 79.6288 19.6022H82.8688V20.0822ZM86.0753 21.7622C86.0753 23.6822 87.8753 25.4822 90.8753 25.4822C94.0193 25.4822 95.5553 23.9222 95.5553 22.0022C95.5553 20.0822 94.4753 18.9782 92.0753 18.5222L90.0353 18.1622C88.5953 17.8982 88.1153 17.3222 88.1153 16.4822C88.1153 15.5222 88.9313 14.6822 90.7553 14.6822C92.5793 14.6822 93.6353 15.6422 93.6353 16.7222H95.4353C95.4353 14.8022 93.6353 13.0022 90.7553 13.0022C87.7793 13.0022 86.3153 14.5622 86.3153 16.4822C86.3153 18.4022 87.4913 19.4822 89.6753 19.8422L91.7153 20.2022C93.1553 20.4662 93.7553 21.0422 93.7553 22.0022C93.7553 22.9622 92.7953 23.8022 90.8753 23.8022C88.9553 23.8022 87.8753 22.8422 87.8753 21.7622H86.0753ZM97.1944 25.2422H98.9944V19.4822L104.634 25.2422H106.914L100.914 19.1222L106.674 13.2422H104.394L98.9944 18.7622V8.44219H97.1944V25.2422ZM112.977 23.2022C112.977 24.4262 113.793 25.2422 115.137 25.2422H117.537V23.5622H115.497C115.017 23.5622 114.777 23.3222 114.777 22.8422V14.9222H117.537V13.2422H114.777V9.88219H112.977V13.2422H111.057V14.9222H112.977V23.2022ZM119.293 25.2422H121.093V17.5622C121.093 15.8582 122.029 14.9222 123.733 14.9222H125.533V13.2422H123.493C122.173 13.2422 121.693 13.7462 121.213 14.4422H121.093L120.853 13.2422H119.293V25.2422ZM133.781 25.2422H135.341V17.5622C135.341 14.6582 133.565 13.0022 130.661 13.0022C127.661 13.0022 125.981 14.8022 125.861 16.7222H127.661C127.781 15.6422 128.837 14.6822 130.661 14.6822C132.485 14.6822 133.541 15.7382 133.541 17.5622V17.9222H130.301C126.941 17.9222 125.501 19.4582 125.501 21.7622C125.501 23.9462 127.181 25.4822 129.701 25.4822C131.045 25.4822 131.957 25.0982 132.557 24.6422C132.917 24.4022 133.205 24.1142 133.421 23.8022H133.541L133.781 25.2422ZM133.541 20.0822C133.541 22.3862 132.101 23.8022 129.701 23.8022C128.141 23.8022 127.301 22.9862 127.301 21.7622C127.301 20.5862 128.117 19.6022 130.301 19.6022H133.541V20.0822ZM146.227 21.2822C145.747 22.9862 144.451 23.8022 142.747 23.8022C140.563 23.8022 138.787 22.0022 138.787 19.2422C138.787 16.4822 140.563 14.6822 142.747 14.6822C144.451 14.6822 145.747 15.5222 146.227 17.0822H148.027C147.427 14.5622 145.411 13.0022 142.747 13.0022C139.507 13.0022 136.987 15.5222 136.987 19.2422C136.987 22.9622 139.507 25.4822 142.747 25.4822C145.411 25.4822 147.427 23.9462 148.027 21.2822H146.227ZM149.554 25.2422H151.354V19.4822L156.994 25.2422H159.274L153.274 19.1222L159.034 13.2422H156.754L151.354 18.7622V8.44219H149.554V25.2422ZM160.085 25.2422H161.885V13.2422H160.085V25.2422ZM159.965 10.7222H162.005V8.68219H159.965V10.7222ZM164.356 25.2422H166.156V18.0422C166.156 16.2422 167.716 14.6822 169.636 14.6822C171.436 14.6822 172.876 16.1222 172.876 18.0422V25.2422H174.676V18.0422C174.676 15.0422 172.636 13.0022 169.876 13.0022C168.652 13.0022 167.764 13.4102 167.164 13.7942C166.804 14.0102 166.516 14.2742 166.276 14.5622H166.156L165.916 13.2422H164.356V25.2422ZM176.803 26.2022C176.923 28.2422 178.819 30.2822 182.203 30.2822C185.563 30.2822 187.603 28.2422 187.603 25.2422V13.2422H186.043L185.803 14.8022H185.683C184.843 13.7222 183.403 13.0022 181.843 13.0022C178.699 13.0022 176.323 15.4022 176.323 18.8822C176.323 22.3622 178.699 24.7622 181.843 24.7622C183.403 24.7622 184.723 24.1622 185.683 23.0822H185.803V25.2422C185.803 27.2822 184.387 28.6022 182.203 28.6022C179.899 28.6022 178.723 27.4262 178.603 26.2022H176.803ZM181.963 23.0822C179.803 23.0822 178.123 21.4022 178.123 18.8822C178.123 16.3622 179.803 14.6822 181.963 14.6822C184.123 14.6822 185.803 16.3622 185.803 18.8822C185.803 21.4022 184.123 23.0822 181.963 23.0822Z" fill="#96969C"/>
<g clip-path="url(#clip0)">
<path d="M9.32544 59.3473C9.23407 59.2278 9.11341 59.1339 8.97511 59.0746C8.83681 59.0154 8.68556 58.9928 8.53596 59.009C8.38637 59.0253 8.2435 59.0798 8.12116 59.1674C7.99883 59.2549 7.90116 59.3725 7.8376 59.5089L0.298483 74.574C0.229803 74.7113 0.197376 74.8639 0.20428 75.0172C0.211185 75.1706 0.257192 75.3196 0.337934 75.4502C0.418676 75.5808 0.531473 75.6886 0.665615 75.7633C0.799756 75.8381 0.95079 75.8773 1.10438 75.8773H11.6022C11.7703 75.8812 11.936 75.8363 12.0791 75.7479C12.2221 75.6595 12.3364 75.5315 12.4081 75.3795C14.6726 70.7027 13.3002 63.5917 9.32544 59.3473Z" fill="url(#paint0_linear)"/>
<path d="M14.855 45.6444C12.9765 48.5333 11.8817 51.8607 11.6782 55.3C11.4747 58.7393 12.1695 62.1725 13.6942 65.2625L18.7553 75.3791C18.8302 75.5287 18.9452 75.6545 19.0875 75.7424C19.2299 75.8304 19.3939 75.8769 19.5612 75.877H30.0572C30.2108 75.8769 30.3618 75.8377 30.4959 75.7629C30.6301 75.6882 30.7429 75.5804 30.8236 75.4498C30.9044 75.3192 30.9504 75.1702 30.9573 75.0168C30.9642 74.8635 30.9318 74.7109 30.8631 74.5736C30.8631 74.5736 16.7425 46.3448 16.3876 45.6388C16.3175 45.4951 16.2082 45.374 16.0723 45.2895C15.9365 45.205 15.7795 45.1605 15.6195 45.1611C15.4595 45.1617 15.3029 45.2074 15.1677 45.2929C15.0325 45.3783 14.9241 45.5002 14.855 45.6444Z" fill="#2684FF"/>
<path d="M137.967 57.7235C137.967 61.454 139.699 64.4158 146.471 65.7233C150.512 66.5712 151.359 67.2231 151.359 68.5693C151.359 69.8768 150.51 70.7232 147.664 70.7232C144.224 70.6614 140.853 69.7498 137.852 68.0695V74.1457C139.891 75.1457 142.585 76.261 147.587 76.261C154.668 76.261 157.477 73.1052 157.477 68.4152L137.967 57.7235ZM157.477 68.4152C157.477 63.9923 155.13 61.9151 148.511 60.4927C144.855 59.6849 143.97 58.8775 143.97 57.7235C143.97 56.2634 145.278 55.6468 147.703 55.6468C150.628 55.6468 153.514 56.5314 156.246 57.7621V51.9544C153.626 50.7627 150.773 50.1715 147.895 50.2239C141.353 50.2239 137.967 53.0698 137.967 57.7235" fill="#0052CC"/>
<path d="M228.933 50.6084V75.8768H234.32V56.6083L236.591 61.7231L244.21 75.8768H250.983V50.6084H245.596V66.9156L243.556 62.1847L237.437 50.6084H228.933Z" fill="#0052CC"/>
<path d="M194.668 50.6084H188.78V75.8768H194.668V50.6084Z" fill="#0052CC"/>
<path d="M181.987 68.4152C181.987 63.9923 179.639 61.9151 173.021 60.4927C169.365 59.6849 168.48 58.8775 168.48 57.7235C168.48 56.2634 169.788 55.6468 172.212 55.6468C175.137 55.6468 178.023 56.5314 180.755 57.7621V51.9544C178.136 50.7627 175.282 50.1715 172.405 50.2239C165.863 50.2239 162.477 53.0698 162.477 57.7235C162.477 61.454 164.208 64.4158 170.981 65.7233C175.022 66.5712 175.868 67.2231 175.868 68.5693C175.868 69.8768 175.02 70.7232 172.174 70.7232C168.734 70.6614 165.363 69.7498 162.361 68.0695V74.1457C164.401 75.1457 167.094 76.261 172.097 76.261C179.177 76.261 181.987 73.1052 181.987 68.4152Z" fill="#0052CC"/>
<path d="M92.2292 50.6084V75.8768H104.331L106.236 70.4153H98.1552V50.6084H92.2292Z" fill="#0052CC"/>
<path d="M68.3201 50.6084V56.0694H74.8619V75.8768H80.7879V56.0694H87.7916V50.6084H68.3201Z" fill="#0052CC"/>
<path d="M59.7273 50.6084H51.9611L43.1448 75.8768H49.8775L51.1274 71.6211C54.2055 72.5245 57.4786 72.5245 60.5568 71.6211L61.8066 75.8768H68.5408L59.7273 50.6084ZM55.844 67.0645C54.7472 67.0644 53.6562 66.9075 52.6039 66.5986L55.844 55.5716L59.084 66.6024C58.0316 66.91 56.9405 67.0656 55.844 67.0645Z" fill="#0052CC"/>
<path d="M125.194 50.6084H117.428L108.612 75.8768H115.346L116.596 71.6211C119.674 72.5245 122.947 72.5245 126.025 71.6211L127.275 75.8768H134.009L125.194 50.6084ZM121.311 67.0645C120.214 67.0644 119.123 66.9075 118.071 66.5986L121.311 55.5716L124.551 66.6024C123.498 66.91 122.407 67.0656 121.311 67.0645Z" fill="#0052CC"/>
<path d="M215.884 50.6084H208.118L199.302 75.8768H206.036L207.286 71.6211C210.364 72.5245 213.637 72.5245 216.715 71.6211L217.965 75.8768H224.7L215.884 50.6084ZM211.999 67.0645C210.902 67.0644 209.811 66.9075 208.759 66.5986L211.999 55.5716L215.239 66.6024C214.186 66.91 213.095 67.0656 211.999 67.0645Z" fill="#0052CC"/>
</g>
<defs>
<linearGradient id="paint0_linear" x1="13.4572" y1="61.6723" x2="5.5076" y2="75.4492" gradientUnits="userSpaceOnUse">
<stop stop-color="#0052CC"/>
<stop offset="0.923" stop-color="#2684FF"/>
</linearGradient>
<clipPath id="clip0">
<rect width="250.779" height="31.0992" fill="white" transform="translate(0.204102 45.1621)"/>
</clipPath>
</defs>
</svg>
