<svg width="207" height="208" viewBox="0 0 207 208" fill="none" xmlns="http://www.w3.org/2000/svg">
<g clip-path="url(#clip0)">
<path d="M94.8081 128.96V26.7793C94.8081 12.2889 83.0192 0.5 68.5288 0.5C54.0384 0.5 42.2495 12.2889 42.2495 26.7793V128.96C31.3048 137.197 24.8647 149.998 24.8647 163.836C24.8647 187.912 44.4521 207.5 68.5288 207.5C92.6055 207.5 112.193 187.912 112.193 163.836C112.193 149.998 105.753 137.197 94.8081 128.96ZM68.5288 195.371C51.14 195.371 36.9937 181.224 36.9937 163.836C36.9937 153.016 42.446 143.073 51.5787 137.238C53.3228 136.124 54.3784 134.198 54.3784 132.128V26.7793C54.3784 18.9768 60.7263 12.6289 68.5288 12.6289C76.3313 12.6289 82.6792 18.9768 82.6792 26.7793V132.128C82.6792 134.198 83.7344 136.125 85.479 137.239C94.6116 143.073 100.064 153.016 100.064 163.836C100.064 181.224 85.9176 195.371 68.5288 195.371Z" fill="#F2F2F2"/>
<path d="M74.5933 146.686V26.7793C74.5933 23.4301 71.878 20.7148 68.5288 20.7148C65.1796 20.7148 62.4644 23.4301 62.4644 26.7793V146.686C55.4057 149.189 50.3354 155.93 50.3354 163.836C50.3354 173.867 58.497 182.029 68.5288 182.029C78.5606 182.029 86.7222 173.867 86.7222 163.836C86.7222 155.93 81.6519 149.189 74.5933 146.686ZM68.5288 169.9C65.1849 169.9 62.4644 167.18 62.4644 163.836C62.4644 160.492 65.1849 157.771 68.5288 157.771C71.8728 157.771 74.5933 160.492 74.5933 163.836C74.5933 167.18 71.8728 169.9 68.5288 169.9Z" fill="#F2F2F2"/>
<path d="M113.001 32.6924C109.652 32.6924 106.937 35.4076 106.937 38.7568C106.937 42.106 109.652 44.8213 113.001 44.8213C126.795 44.8213 138.018 56.0438 138.018 69.838C138.018 83.6318 126.795 94.8542 113.001 94.8542C109.652 94.8542 106.937 97.5695 106.937 100.919C106.937 104.268 109.652 106.983 113.001 106.983C133.483 106.983 150.147 90.3196 150.147 69.838C150.147 49.3555 133.483 32.6924 113.001 32.6924Z" fill="#F2F2F2"/>
<path d="M113.001 23.1402C116.35 23.1402 119.065 20.425 119.065 17.0758V6.56445C119.065 3.21526 116.35 0.5 113.001 0.5C109.652 0.5 106.937 3.21526 106.937 6.56445V17.0758C106.937 20.425 109.652 23.1402 113.001 23.1402Z" fill="#F2F2F2"/>
<path d="M113.001 116.533C109.652 116.533 106.937 119.248 106.937 122.598V133.109C106.937 136.458 109.652 139.173 113.001 139.173C116.35 139.173 119.065 136.458 119.065 133.109V122.598C119.065 119.248 116.35 116.533 113.001 116.533Z" fill="#F2F2F2"/>
<path d="M176.071 63.7725H165.56C162.211 63.7725 159.496 66.4877 159.496 69.8369C159.496 73.1861 162.211 75.9014 165.56 75.9014H176.071C179.42 75.9014 182.135 73.1861 182.135 69.8369C182.135 66.4877 179.42 63.7725 176.071 63.7725Z" fill="#F2F2F2"/>
<path d="M150.309 38.5939C151.861 38.5939 153.413 38.002 154.597 36.8174L162.029 29.3849C164.398 27.0165 164.398 23.1769 162.029 20.8085C159.661 18.4401 155.821 18.4401 153.453 20.8085L146.02 28.2411C143.652 30.6095 143.652 34.4491 146.02 36.8174C147.205 38.0016 148.757 38.5939 150.309 38.5939Z" fill="#F2F2F2"/>
<path d="M154.454 102.714C152.086 100.345 148.246 100.346 145.878 102.714C143.51 105.082 143.509 108.922 145.878 111.29L153.31 118.723C154.494 119.907 156.046 120.499 157.598 120.499C159.15 120.499 160.702 119.907 161.886 118.723C164.254 116.355 164.254 112.515 161.886 110.147L154.454 102.714Z" fill="#F2F2F2"/>
</g>
<defs>
<clipPath id="clip0">
<rect width="207" height="207" fill="white" transform="translate(0 0.5)"/>
</clipPath>
</defs>
</svg>
