<svg width="701" height="775" viewBox="0 0 701 775" fill="none" xmlns="http://www.w3.org/2000/svg">
<path opacity="0.5" d="M249.83 137.569C249.83 137.569 289.939 53.5495 386.248 72.5853C386.248 72.5853 412.743 -1.6112 490.786 0.469216C599.481 3.44124 605.674 88.5896 605.674 88.5896C605.674 88.5896 648.837 62.2068 674.177 123.617C676.995 130.448 671.683 137.627 664.293 137.626L249.83 137.569Z" fill="#91B0B7"/>
<mask id="mask0" mask-type="alpha" maskUnits="userSpaceOnUse" x="99" y="9" width="531" height="766">
<rect x="99.8157" y="9.13281" width="530.184" height="765.649" rx="15" fill="#C4C4C4"/>
</mask>
<g mask="url(#mask0)">
<path d="M249.677 477.143C249.677 477.143 217.1 495.825 252.657 514.508C252.657 514.508 261.321 491.379 249.677 477.143Z" fill="#ECBB71"/>
<path d="M431.245 302.764C431.245 302.764 425.942 305.3 418.748 318.267C408.539 336.671 417.101 377.248 436.666 410.411C456.23 443.574 465.324 382.928 465.324 382.928L431.245 302.764Z" fill="#1E1E1E"/>
<path d="M430.957 314.86C430.957 314.86 426.812 296.821 439.579 297.801C452.346 298.782 479.797 299.644 486.256 313.508C494.185 330.525 481.325 383.461 488.029 394.07L479.923 410.69C479.923 410.69 466.286 399.54 467.266 400.385C468.245 401.23 474.57 415.931 474.57 415.931C474.57 415.931 494.692 410.411 479.113 415.28C463.534 420.149 456.399 396.023 456.399 396.023L439.874 354.736L430.957 314.86Z" fill="#444444"/>
<path d="M441.419 369.259C439.508 370.197 437.533 370.999 435.509 371.66C435.509 371.66 430.628 370.341 426.44 364.576C423.483 360.437 421.78 355.533 421.534 350.45C421.534 350.45 417.177 346.891 416.747 345.513C416.316 344.135 419.39 342.901 421.458 341.286C422.237 340.648 422.846 339.827 423.231 338.896C423.617 337.966 423.768 336.955 423.671 335.952C422.26 319.89 430.949 314.903 430.949 314.903L443.615 324.751C436.319 334.278 445.202 345.395 445.202 345.395C445.202 345.395 452.802 334.278 458.206 339.359C463.61 344.439 455.985 350.348 455.985 350.348L465.273 367.551C451.003 371.043 441.369 369.335 441.369 369.335" fill="#F1AF8B"/>
<path d="M441.419 369.259L452.574 394.071L472.476 380.689L456.019 350.256C456.019 350.256 456.399 357.864 453.874 360.197C449.997 363.579 445.829 366.611 441.419 369.259Z" fill="#DE8B60"/>
<path d="M427.639 339.274C428.67 339.274 429.505 337.817 429.505 336.02C429.505 334.222 428.67 332.765 427.639 332.765C426.608 332.765 425.773 334.222 425.773 336.02C425.773 337.817 426.608 339.274 427.639 339.274Z" fill="#444444"/>
<g style="mix-blend-mode:multiply" opacity="0.3">
<path d="M441.107 345.513C441.107 346.489 440.818 347.444 440.276 348.256C439.734 349.068 438.964 349.7 438.063 350.074C437.162 350.448 436.17 350.546 435.214 350.355C434.257 350.165 433.379 349.694 432.689 349.004C431.999 348.313 431.53 347.434 431.339 346.476C431.149 345.519 431.247 344.526 431.62 343.624C431.993 342.722 432.625 341.951 433.436 341.408C434.247 340.866 435.201 340.576 436.176 340.576C436.824 340.575 437.465 340.702 438.064 340.95C438.663 341.197 439.207 341.561 439.665 342.02C440.123 342.478 440.487 343.023 440.734 343.622C440.981 344.222 441.108 344.864 441.107 345.513Z" fill="#E58159"/>
</g>
<path d="M424.979 332.419C427.985 335.09 433.676 334.524 435.77 333.053C432.08 333.949 428.517 334.067 426.305 330.61C426.128 330.339 425.646 330.61 425.385 330.72C424.523 331.066 424.979 332.419 424.979 332.419Z" fill="#1E1E1E"/>
<path d="M451.51 343.138C451.602 342.701 451.836 342.307 452.175 342.016C452.514 341.726 452.939 341.555 453.384 341.532C453.829 341.525 454.269 341.619 454.671 341.808C455.074 341.997 455.428 342.275 455.706 342.622C456.551 343.645 456.711 345.395 455.639 346.181C455.165 346.466 454.635 346.645 454.085 346.705C453.884 346.765 453.67 346.765 453.469 346.705C452.996 346.494 453.063 345.792 453.274 345.319C453.486 344.845 453.747 344.254 453.426 343.839C452.979 343.265 452.033 343.746 451.341 343.51C451.408 343.104 451.442 343.518 451.51 343.138Z" fill="#9E2E2A"/>
<path d="M423.527 355.581C423.257 355.125 428.914 357.171 435.483 353.265C435.483 353.24 430.434 367.256 423.527 355.581Z" fill="#CC4659"/>
<path d="M565.18 806.687C606.699 806.687 640.356 772.991 640.356 731.425C640.356 689.859 606.699 656.164 565.18 656.164C523.662 656.164 490.005 689.859 490.005 731.425C490.005 772.991 523.662 806.687 565.18 806.687Z" fill="#333333"/>
<path d="M562.681 766.076C583.177 766.076 599.792 749.442 599.792 728.923C599.792 708.404 583.177 691.77 562.681 691.77C542.186 691.77 525.571 708.404 525.571 728.923C525.571 749.442 542.186 766.076 562.681 766.076Z" fill="black"/>
<path d="M562.681 752.534C575.706 752.534 586.265 741.963 586.265 728.923C586.265 715.883 575.706 705.312 562.681 705.312C549.656 705.312 539.098 715.883 539.098 728.923C539.098 741.963 549.656 752.534 562.681 752.534Z" fill="#EBEBEB"/>
<path d="M257.739 748.357C263.704 713.457 240.279 680.323 205.419 674.351C170.558 668.379 137.463 691.831 131.498 726.731C125.532 761.632 148.957 794.766 183.817 800.737C218.678 806.709 251.774 783.258 257.739 748.357Z" fill="#333333"/>
<path d="M226.444 745.102C230.615 727.508 219.749 709.861 202.176 705.686C184.603 701.511 166.976 712.389 162.806 729.982C158.635 747.576 169.501 765.223 187.074 769.398C204.647 773.573 222.274 762.695 226.444 745.102Z" fill="black"/>
<path d="M282.127 511.642L238.303 610.1C238.303 610.1 228.246 609.001 227.326 613.76C226.406 618.52 221.643 630.668 224.202 633.745C226.76 636.822 252.793 645.199 252.793 645.199C252.793 645.199 277.516 724.552 326.811 728.889C376.106 733.226 493.315 728.889 493.315 728.889H661.635C661.635 728.889 667.841 649.553 583.495 611.529V600.201C583.495 600.201 406.04 585.576 401.657 588.501C397.275 591.426 394.354 592.153 400.56 598.003C406.766 603.853 431.599 634.565 433.06 654.304C434.521 674.043 442.914 700.358 373.539 700.358C304.165 700.358 289.025 657.956 289.025 657.956C289.025 657.956 300.509 651.024 300.509 621.225C300.509 591.426 290.655 579.76 281.519 572.085L304.528 513.958L315.167 514.136C316.186 512.556 316.838 510.768 317.075 508.903C317.312 507.037 317.127 505.143 316.536 503.358C315.945 501.574 314.961 499.945 313.657 498.591C312.353 497.238 310.763 496.194 309.003 495.538C303.701 493.551 287.826 491.184 285.538 489.502C280.058 485.478 270.204 471.589 244.644 475.241L249.027 515.091C249.027 515.091 261.101 517.982 277.145 507.745L282.127 511.642Z" fill="#5C5C5C"/>
<path d="M459.371 728.061C459.617 700.791 470.611 674.721 489.959 655.525C509.308 636.328 535.446 625.559 562.686 625.559C589.926 625.559 616.064 636.328 635.412 655.525C654.761 674.721 665.754 700.791 666 728.061H459.371Z" fill="#4D4D4D"/>
<path d="M287.97 719.286C287.167 722.261 130.585 685.167 130.585 685.167C130.585 685.167 148.933 630.321 209.273 635.444C266.548 640.321 294.784 693.934 287.97 719.286Z" fill="#4D4D4D"/>
<path d="M583.495 600.235C598.103 600.235 599.539 565.499 587.151 558.922C574.764 552.346 492.944 563.31 449.855 563.31C406.766 563.31 393.619 568.475 401.657 588.535L583.495 600.235Z" fill="#ECBB71"/>
<path d="M340.288 676.655L337.239 680.459C337.239 680.459 335.365 682.352 333.254 689.716C331.143 697.079 325.055 706.107 325.055 706.107C325.055 706.107 313.098 704.205 313.098 715.135H341.461C351.771 715.135 377.314 683.308 378.251 679.74C379.188 676.173 363.744 667.06 363.744 667.06L340.288 676.655Z" fill="#659892"/>
<path d="M359.894 668.666C361.665 669.659 363.324 670.841 364.842 672.191C367.474 674.512 369.696 677.261 371.412 680.323C372.469 682.198 373.319 684.182 373.945 686.241L373.641 686.638C371.354 680.905 367.736 675.799 363.086 671.743C361.881 670.716 360.618 669.759 359.303 668.877L359.894 668.666Z" fill="#96B9C2"/>
<path d="M333.355 699.818C332.319 698.952 331.228 698.156 330.087 697.434L330.391 696.833C332.24 697.947 333.993 699.211 335.635 700.612C339.68 703.934 343.057 707.882 344.923 711.915C345.222 712.551 345.487 713.203 345.717 713.867C345.489 713.986 345.261 714.087 345.033 714.189C344.479 712.798 343.8 711.459 343.006 710.19C340.358 706.243 337.1 702.742 333.355 699.818Z" fill="#96B9C2"/>
<path d="M327.867 704.755C327.428 704.383 327.022 704.036 326.583 703.698C326.71 703.503 326.837 703.292 326.963 703.072C327.902 703.739 328.804 704.456 329.665 705.219C332.379 707.622 334.719 710.417 336.606 713.512C336.952 714.062 337.248 714.603 337.535 715.135H336.691C334.279 711.257 331.305 707.758 327.867 704.755Z" fill="#96B9C2"/>
<path d="M430.046 507.077C429.581 508.497 422.075 517.999 422.075 517.999C422.075 517.999 349.458 528.448 341.461 537.442C333.465 546.437 337.239 659.046 337.239 659.046L364.429 663.324C364.429 663.324 375.676 596.82 370.989 568.315H447.389C480.202 568.315 495.663 558.821 491.914 524.145L430.046 507.077Z" fill="#A74350"/>
<path d="M348.529 646.433C348.976 636.052 348.639 625.933 348.487 616.144C348.335 606.355 349.382 596.87 350.665 588.087C351.273 583.683 351.864 579.414 352.253 575.28C352.455 573.217 352.59 571.188 352.683 569.193C352.742 568.196 352.742 567.207 352.776 566.235C352.776 564.882 352.776 563.546 352.776 562.228C353.3 562.329 353.848 562.473 354.33 562.54C354.607 562.597 354.891 562.62 355.174 562.608C355.549 562.606 355.923 562.564 356.289 562.481C356.576 562.412 356.859 562.321 357.133 562.211C356.939 561.974 356.753 561.763 356.576 561.568C356.179 561.129 355.791 560.723 355.402 560.376L354.828 559.861L354.355 559.472L353.739 558.998C352.894 558.381 351.856 557.739 350.868 557.096L352.438 556.471C353.054 556.18 353.736 556.058 354.414 556.116C354.875 556.145 355.33 556.225 355.774 556.352L356.829 556.657C357.238 556.791 357.656 556.899 358.079 556.978C358.748 557.088 359.435 556.953 360.012 556.598C360.367 556.31 360.401 556.014 360.122 555.524C359.67 554.942 359.151 554.414 358.577 553.952L356.838 552.371L351.771 547.713L415.649 548.144C424.04 548.297 432.432 547.932 440.778 547.054C444.443 546.656 448.077 546.006 451.653 545.109C453.278 544.673 454.81 543.948 456.179 542.971C457.451 542.007 458.494 540.774 459.236 539.361C460.542 536.681 461.262 533.753 461.347 530.772C461.466 528.133 461.449 525.489 461.296 522.851C461.178 520.197 460.975 517.779 460.747 515.581L461.17 515.691C461.313 516.815 461.457 517.94 461.566 519.072C461.879 522.259 462.098 525.446 462.141 528.667C462.269 531.942 461.791 535.212 460.731 538.313C460.156 539.902 459.26 541.354 458.097 542.579C456.934 543.804 455.531 544.775 453.975 545.43C450.893 546.741 447.693 547.206 444.544 547.781C438.253 548.786 431.904 549.379 425.537 549.556C412.871 549.911 400.543 549.683 388.578 549.716L356.584 549.607L359.32 552.143C360.116 552.813 360.859 553.545 361.541 554.332C361.967 554.875 362.186 555.553 362.157 556.243C362.133 556.6 362.033 556.949 361.864 557.265C361.695 557.581 361.461 557.858 361.178 558.077C360.272 558.716 359.163 558.999 358.062 558.872C357.597 558.822 357.138 558.723 356.694 558.576L355.909 558.331C355.909 558.331 355.723 558.331 355.799 558.331L355.875 558.398C356.373 558.821 356.897 559.303 357.319 559.742C357.741 560.182 358.163 560.588 358.459 561.002C358.957 561.619 359.472 562.312 359.81 562.76C359.388 563.022 358.965 563.284 358.569 563.521C358.209 563.723 357.833 563.896 357.446 564.037C356.925 564.211 356.387 564.33 355.841 564.392C355.417 564.425 354.991 564.425 354.566 564.392H354.49C354.49 564.037 354.49 565.634 354.49 566.649C354.49 567.663 354.431 568.83 354.355 569.903C354.245 572.068 354.043 574.189 353.823 576.277C353.376 580.504 352.759 584.511 352.177 588.442C350.924 595.811 350.126 603.25 349.787 610.717C349.559 617.725 349.787 624.302 349.719 630.372C349.652 636.441 349.483 641.995 349.196 647C348.892 652.241 348.504 656.856 348.107 660.83L347.676 660.77C348.073 655.927 348.36 651.159 348.529 646.433Z" fill="#933241"/>
<path d="M439.891 391.171C439.891 391.171 428.635 403.521 418.782 412.541C408.928 421.561 405.651 432.491 417.371 443.895L422.058 517.999C422.058 517.999 486.746 523.223 491.897 524.178C497.047 525.134 475.009 479.045 476.9 470.025C478.792 461.005 479.248 436.549 483.031 420.301C490.326 388.939 472.898 368.803 467.317 371.178C461.735 373.553 439.891 391.171 439.891 391.171Z" fill="#3F4F6D"/>
<path d="M337.239 659.063V680.442C337.239 680.442 346.148 687.568 355.047 680.442C357.663 678.355 359.84 675.768 361.45 672.833C363.06 669.897 364.073 666.671 364.428 663.34L337.239 659.063Z" fill="#F1AF8B"/>
<path d="M438.261 405.635L425.992 455.333L328.449 493.721C328.449 493.721 311.562 495.851 309.468 497.279C307.373 498.708 309.468 510.805 309.468 510.805C309.468 510.805 312.279 520.78 324.928 516.511L341.816 503.129C341.816 503.129 406.833 494.338 430.476 486.67C433.1 485.824 435.529 484.461 437.618 482.66C439.708 480.86 441.417 478.659 442.644 476.188C449.601 462.054 465.197 430.082 471.015 415.449C474.392 406.996 473.489 399.7 467.241 394.89C456.77 386.859 441.419 392.828 438.261 405.635Z" fill="#495E8F"/>
<path d="M309.459 497.28C311.57 495.851 328.449 493.721 328.449 493.721L343.319 487.102V502.943L341.807 503.138L324.92 516.52C312.254 520.789 309.451 510.814 309.451 510.814C309.451 510.814 307.357 498.708 309.459 497.28Z" fill="#F1AF8B"/>
<path d="M313.098 512.073C313.098 513.507 313.523 514.91 314.319 516.103C315.115 517.295 316.247 518.225 317.571 518.774C318.895 519.323 320.351 519.467 321.757 519.187C323.162 518.907 324.453 518.216 325.466 517.202C326.479 516.187 327.169 514.895 327.449 513.488C327.728 512.081 327.585 510.623 327.037 509.297C326.488 507.972 325.56 506.839 324.368 506.042C323.177 505.245 321.776 504.82 320.343 504.82C318.422 504.82 316.579 505.584 315.22 506.944C313.862 508.304 313.098 510.149 313.098 512.073Z" fill="#5C5C5C"/>
<path d="M442.196 298.452C434.293 295.739 432.427 295.426 426.584 301.411C427.892 301.309 421.703 303.947 422.961 304.344C420.681 307.937 420.023 312.324 420.048 316.577C420.048 319.392 420.512 322.494 422.666 324.303C424.346 321.512 426.831 319.296 429.795 317.948C432.759 316.6 436.061 316.184 439.266 316.754C440.423 316.982 441.943 317.185 442.483 316.137C442.605 315.87 442.679 315.584 442.703 315.292C443.226 311.544 443.753 307.785 444.282 304.015" fill="#444444"/>
<path d="M464.007 431.469C461.407 426.722 457.565 422.774 452.894 420.048C447.716 417.089 441.99 415.214 436.066 414.536L438.261 405.635C438.452 404.847 438.695 404.074 438.988 403.318C447.147 405.631 454.646 409.839 460.874 415.601C463.525 418.07 465.94 420.919 467.215 424.317C466.227 426.591 465.146 428.983 464.007 431.469Z" fill="#F3BB5B"/>
<path d="M452.7 443.828C446.047 439.601 438.844 435.864 431.177 434.334L433.921 423.209C444.227 426.132 453.249 432.446 459.531 441.131C458.619 443.075 457.691 445.028 456.77 446.981C455.526 445.792 454.162 444.735 452.7 443.828Z" fill="#F3BB5B"/>
<path d="M424.701 455.865L425.993 455.35L428.433 445.476C429.471 446.135 430.493 446.829 431.498 447.53C436.649 451.14 441.732 455.062 445.346 460.211C446.41 461.741 447.313 463.379 448.039 465.097C446.959 467.328 445.937 469.425 444.991 471.352C439.71 464.489 432.71 459.146 424.701 455.865Z" fill="#F3BB5B"/>
<path d="M422.581 488.91C420.859 489.35 419.046 489.787 417.143 490.221C414.365 481.361 410.718 472.705 403.743 466.796C403.008 466.17 402.24 465.587 401.472 464.995L411.478 461.064C417.11 469.146 420.2 479.003 422.581 488.91Z" fill="#F3BB5B"/>
<path d="M382.076 472.62L389.6 469.67C395.376 476.588 399.59 484.673 401.953 493.374C399.513 493.847 397.03 494.312 394.531 494.768C392.259 486.611 387.759 479.104 382.076 472.62Z" fill="#F3BB5B"/>
<path d="M368.735 477.87C372.487 484.013 374.888 490.886 375.777 498.032L369.47 499.038C368.625 495.732 366.666 492.681 364.733 489.798L359.236 481.607L368.735 477.87Z" fill="#F3BB5B"/>
<path d="M510 674.279C524.828 658.218 544.552 648.564 564.134 647.718C575.364 647.237 587.396 649.629 598.905 654.625C629.497 667.905 649.746 698.169 648.808 728.095H646.613C647.559 699.023 627.834 669.579 598.036 656.637C586.822 651.768 575.128 649.435 564.26 649.916C545.253 650.762 526.077 660.154 511.647 675.776C499.319 689.107 490.149 707.189 485.032 728.095H482.769C487.911 706.572 497.326 687.966 510 674.279Z" fill="#EFEFEF"/>
<path d="M213.191 656.096C239.781 660.576 262.706 683.071 267.704 709.59C268.135 711.821 268.389 714.082 268.464 716.353L266.261 715.904C266.161 713.918 265.924 711.941 265.551 709.987C260.713 684.339 238.531 662.58 212.828 658.251C187.497 653.974 159.885 666.874 146.696 688.946L144.441 688.422C157.926 665.234 186.737 651.649 213.191 656.096Z" fill="#EFEFEF"/>
<path d="M213.791 742.156C216.299 731.557 209.75 720.929 199.164 718.418C188.577 715.907 177.961 722.463 175.453 733.062C172.945 743.66 179.493 754.288 190.08 756.8C200.666 759.311 211.282 752.755 213.791 742.156Z" fill="#EBEBEB"/>
<path d="M410.49 598.35L412.128 599.905L414.104 601.756C414.847 602.534 415.708 603.447 416.637 604.428C429.724 618.403 438.444 635.904 441.723 654.777C442.836 661.263 443.289 667.845 443.074 674.423C442.779 681.186 441.605 688.321 438.008 694.652L438.371 694.086C438.616 693.714 438.954 693.156 439.368 692.395C440.551 690.248 441.502 687.981 442.205 685.632C444.113 679.622 445.067 670.644 444.172 660.272C443.119 648.651 439.809 637.349 434.428 626.999C428.629 615.817 420.459 606.039 410.49 598.35Z" fill="#878787"/>
<path d="M280.961 582.719L281.502 583.835C281.831 584.571 282.439 585.593 283.013 587.014C284.761 590.878 286.174 594.886 287.235 598.992C290.693 612.231 290.606 626.147 286.982 639.341L287.505 638.014C287.834 637.168 288.35 635.884 288.831 634.235C290.236 629.76 291.087 625.13 291.364 620.447C291.783 614.047 291.182 607.621 289.582 601.41C287.89 594.699 284.966 588.361 280.961 582.719Z" fill="#878787"/>
<path d="M279.137 494.168C279.137 494.168 279.137 493.923 279.137 493.441C279.1 492.739 278.993 492.042 278.817 491.362C278.139 488.817 276.781 486.506 274.89 484.675C272.12 481.969 268.628 480.122 264.834 479.358C260.406 478.498 255.868 478.369 251.399 478.977L254.583 479.332C257.287 479.606 259.974 480.032 262.63 480.609C266.172 481.327 269.528 482.766 272.492 484.836C275.735 487.067 278.088 490.371 279.137 494.168Z" fill="#878787"/>
<path d="M239.308 615.249C239.051 614.864 238.718 614.535 238.331 614.282C237.943 614.03 237.509 613.858 237.053 613.778C235.937 613.554 234.779 613.665 233.727 614.099C232.287 614.686 231.095 615.752 230.349 617.117C229.482 618.691 228.91 620.409 228.66 622.189C228.449 623.99 227.917 625.934 228.55 628.292C228.731 628.891 229.032 629.446 229.434 629.924C229.836 630.402 230.331 630.793 230.889 631.074C231.95 631.556 233.102 631.801 234.267 631.792C236.471 631.902 238.717 631.479 240.845 632.697C240.845 632.697 240.625 632.494 240.169 632.156C239.486 631.725 238.735 631.413 237.948 631.234C236.961 630.972 235.736 630.837 234.436 630.634C233.135 630.431 231.692 630.093 230.881 629.079C230.07 628.064 229.969 626.542 230.189 624.767C230.36 622.933 230.691 621.117 231.176 619.34C231.589 617.586 232.679 616.066 234.208 615.113C235.77 614.26 237.872 613.997 239.308 615.249Z" fill="#878787"/>
<path d="M572.932 610.878C572.932 610.878 559.946 609.652 539.444 607.97C518.942 606.288 490.951 604.073 460.815 602.146C460.815 602.146 475.955 604.234 497.554 606.372C519.153 608.511 547.229 610.438 572.932 610.878Z" fill="#878787"/>
<path d="M399.715 582.009C402.596 581.007 405.624 580.495 408.674 580.496C446.429 579.853 484.145 580.952 521.822 583.793C536.809 584.917 552.262 586.27 566.574 581.586C571.877 579.845 577.45 576.666 578.843 571.256C579.577 568.407 579.02 565.398 578.243 562.574C577.708 560.685 577.074 558.826 576.343 557.003C581.41 557.274 585.176 557.849 587.16 558.922C599.572 565.499 598.137 600.235 583.504 600.235L401.657 588.535C400.783 586.434 400.132 584.246 399.715 582.009Z" fill="#DE8F63"/>
<path d="M416.291 344.651C416.291 344.651 440.271 347.297 453.19 338.328C448.664 342.554 445.591 357.238 456.019 350.272C456.019 351.118 456.019 351.414 456.019 351.414C456.019 351.414 449.821 362.75 439.587 370.147C427.74 378.71 418.613 355.15 416.291 344.651Z" fill="#E2E2E2"/>
<path d="M418.376 318.242C418.286 316.332 418.351 314.418 418.57 312.519C419.713 303.15 424.526 294.618 431.951 288.802C439.376 282.985 448.805 280.36 458.164 281.503C467.522 282.646 476.044 287.465 481.854 294.899C487.664 302.332 490.286 311.772 489.144 321.142C488.901 323.039 488.503 324.914 487.953 326.746L418.376 318.242Z" fill="#3F4F6D"/>
<path d="M448.082 317.633C448.082 317.633 452.185 361.397 436.167 371.643C436.167 371.643 454.136 370.189 453.9 322.562L448.082 317.633Z" fill="#3F4F6D"/>
<path d="M481.249 319.29C481.249 319.29 481.249 318.918 481.308 318.225C481.355 317.205 481.298 316.182 481.139 315.173C480.461 311.466 478.954 307.961 476.732 304.919C475.274 302.834 473.692 300.838 471.995 298.943C470.108 296.731 468.083 294.641 465.932 292.687C463.561 290.479 460.707 288.858 457.598 287.953C454.406 287.108 450.674 287.277 447.82 289.179C448.177 288.99 448.546 288.826 448.926 288.689C449.983 288.283 451.097 288.047 452.228 287.987C456.196 287.896 460.062 289.247 463.112 291.791C466.894 294.75 470.584 299.112 474.333 303.55C478.083 307.988 481.257 313.39 481.249 319.29Z" fill="#1D71A1"/>
<path opacity="0.7" d="M443.733 386.986C443.733 386.986 434.445 358.667 446.367 338.328C459.531 315.833 445.354 291.529 426.102 295.046C425.179 296.054 424.332 297.131 423.569 298.266C423.569 298.266 435.576 269.085 489.431 283.498C527.352 293.642 499.91 338.328 493.568 360.704C490.132 372.843 489.431 404.849 489.431 404.849C489.431 404.849 472.476 363.807 443.733 386.986Z" fill="#C3E286"/>
<path opacity="0.6" d="M426.195 405.178C426.195 405.178 421.323 453.904 444.189 489.375C467.055 524.846 524.406 565.821 504.191 606.203C523.612 594.588 564.142 556.97 564.142 531.609C540.499 511.228 502.376 505.995 495.055 486.256C487.734 466.517 491.677 403.412 488.224 390.393C484.77 377.375 473.396 367.67 467.519 370.705C440.111 384.89 426.195 405.178 426.195 405.178Z" fill="#C3E286"/>
<path opacity="0.8" d="M346.333 484.92L350.615 505.462C350.615 505.462 437.493 493.374 446.68 479.527C455.867 465.68 469.225 430.031 471.564 418.002C473.903 405.973 476.706 390.765 462.917 389.919C449.129 389.074 441.014 390.765 434.791 407.959C428.568 425.154 430.172 448.536 418.68 455.02C407.188 461.504 346.333 484.92 346.333 484.92Z" fill="#C3E286"/>
<path d="M465.586 380.435C465.586 380.435 463.897 388.457 460.942 389.818C457.986 391.179 444.788 390.435 438.988 403.749C438.988 403.749 446.376 390.993 460.832 391.238C475.288 391.483 471.074 413.682 471.074 413.682C471.074 413.682 474.823 395.93 466.303 391.238C464.53 390.122 467.215 381.035 467.215 381.035L465.586 380.435Z" fill="#DBF2A5"/>
<path d="M448.096 486.796C447.977 486.59 447.713 486.519 447.507 486.638C447.301 486.758 447.231 487.021 447.35 487.227L448.836 489.804C448.955 490.011 449.218 490.081 449.424 489.962C449.63 489.843 449.701 489.579 449.582 489.373L448.096 486.796Z" fill="#DBF2A5"/>
<path d="M428.5 416.345C428.5 416.107 428.308 415.914 428.07 415.914C427.832 415.914 427.639 416.107 427.639 416.345V419.321C427.639 419.559 427.832 419.752 428.07 419.752C428.308 419.752 428.5 419.559 428.5 419.321V416.345Z" fill="#DBF2A5"/>
<path d="M428.678 428.693C428.654 428.456 428.443 428.283 428.206 428.307C427.97 428.331 427.797 428.542 427.821 428.779L428.118 431.74C428.142 431.977 428.353 432.149 428.59 432.126C428.826 432.102 428.999 431.89 428.975 431.654L428.678 428.693Z" fill="#DBF2A5"/>
<path d="M456.902 500.315C456.754 500.129 456.483 500.098 456.297 500.246C456.111 500.395 456.08 500.666 456.229 500.852L458.081 503.179C458.229 503.366 458.5 503.396 458.686 503.248C458.872 503.1 458.903 502.828 458.754 502.642L456.902 500.315Z" fill="#DBF2A5"/>
<path d="M467.728 513.369C467.579 513.182 467.308 513.152 467.122 513.3C466.936 513.449 466.906 513.72 467.054 513.906L468.906 516.233C469.055 516.419 469.325 516.45 469.511 516.302C469.697 516.153 469.728 515.882 469.58 515.696L467.728 513.369Z" fill="#DBF2A5"/>
<path d="M482.025 528.522C481.876 528.336 481.606 528.305 481.42 528.453C481.234 528.602 481.203 528.873 481.351 529.059L483.203 531.386C483.352 531.573 483.623 531.603 483.809 531.455C483.995 531.307 484.025 531.035 483.877 530.849L482.025 528.522Z" fill="#DBF2A5"/>
<path d="M492.563 542.348C492.406 542.17 492.134 542.153 491.955 542.31C491.777 542.468 491.76 542.74 491.918 542.919L493.885 545.15C494.042 545.328 494.314 545.345 494.493 545.187C494.671 545.03 494.688 544.757 494.53 544.579L492.563 542.348Z" fill="#E9F4CE"/>
<path d="M501.499 557.074C501.364 556.878 501.096 556.829 500.9 556.965C500.704 557.1 500.656 557.369 500.791 557.565L502.482 560.012C502.617 560.208 502.885 560.257 503.081 560.121C503.276 559.986 503.325 559.717 503.19 559.521L501.499 557.074Z" fill="#E9F4CE"/>
<path d="M578.385 315.125C578.385 315.125 578.469 324.035 579.229 326.115C579.989 328.194 581.931 329.496 583.494 328.887C585.056 328.279 585.697 326.115 584.912 324.001C584.127 321.888 578.385 315.125 578.385 315.125Z" fill="#91B0B7"/>
<path d="M391.794 516.797C391.794 516.797 391.879 525.707 392.639 527.787C393.399 529.866 395.341 531.168 396.903 530.56C398.465 529.951 399.107 527.787 398.322 525.674C397.536 523.56 391.794 516.797 391.794 516.797Z" fill="#91B0B7"/>
<path d="M531.655 483.543C531.655 483.543 531.739 492.453 532.499 494.533C533.259 496.613 535.201 497.914 536.764 497.306C538.326 496.697 538.967 494.533 538.182 492.42C537.397 490.306 531.655 483.543 531.655 483.543Z" fill="#91B0B7"/>
<path d="M448.495 270.054C448.495 270.054 448.58 278.964 449.34 281.044C450.099 283.123 452.033 284.425 453.604 283.808C455.174 283.191 455.807 281.035 455.022 278.922C454.237 276.809 448.495 270.054 448.495 270.054Z" fill="#91B0B7"/>
</g>
<g clip-path="url(#clip0)">
<path d="M578.385 209.09C578.385 209.09 578.505 222.41 579.685 225.57C580.865 228.73 583.685 230.57 586.065 229.71C588.445 228.85 589.365 225.56 588.185 222.4C587.005 219.24 578.385 209.09 578.385 209.09Z" fill="#91B0B7"/>
<path d="M244.668 371.663C244.668 371.663 244.798 384.993 245.978 388.153C247.158 391.313 249.978 393.153 252.358 392.293C254.738 391.433 255.658 388.143 254.478 384.983C253.298 381.823 244.668 371.663 244.668 371.663Z" fill="#91B0B7"/>
<path d="M254.99 561.229C254.99 561.229 255.12 574.559 256.3 577.719C257.48 580.879 260.3 582.719 262.68 581.859C265.06 580.999 265.98 577.709 264.8 574.549C263.62 571.389 254.99 561.229 254.99 561.229Z" fill="#91B0B7"/>
<path d="M290.546 267.859C290.546 267.859 290.676 281.179 291.846 284.339C293.016 287.499 295.846 289.339 298.236 288.479C300.626 287.619 301.526 284.329 300.356 281.169C299.186 278.009 290.546 267.859 290.546 267.859Z" fill="#91B0B7"/>
<path d="M375.768 405.814C374.598 402.654 365.968 392.504 365.968 392.504C365.968 392.504 366.088 405.824 367.268 408.984C368.448 412.144 371.268 413.984 373.658 413.124C376.048 412.264 376.948 408.974 375.768 405.814Z" fill="#91B0B7"/>
<path d="M117.104 416.841C117.104 416.841 117.204 427.381 118.104 429.841C119.004 432.301 121.294 433.841 123.154 433.111C125.014 432.381 125.794 429.841 124.864 427.341C123.934 424.841 117.104 416.841 117.104 416.841Z" fill="#91B0B7"/>
<path d="M135.434 355.211C135.434 355.211 135.524 365.751 136.434 368.211C137.344 370.671 139.624 372.211 141.484 371.481C143.344 370.751 144.084 368.201 143.154 365.701C142.224 363.201 135.434 355.211 135.434 355.211Z" fill="#91B0B7"/>
<path d="M213.434 458.631C212.504 456.131 205.674 448.101 205.674 448.101C205.674 448.101 205.774 458.641 206.674 461.101C207.574 463.561 209.874 465.101 211.724 464.371C213.574 463.641 214.364 461.131 213.434 458.631Z" fill="#91B0B7"/>
<path d="M492.104 359.085C493.284 362.255 496.104 364.085 498.494 363.225C500.884 362.365 501.784 359.085 500.614 355.925C499.444 352.765 490.824 342.605 490.824 342.605C490.824 342.605 490.934 355.925 492.104 359.085Z" fill="#91B0B7"/>
<path d="M455.98 165.158C457.16 168.328 459.98 170.158 462.37 169.298C464.76 168.438 465.66 165.158 464.49 161.998C463.32 158.838 454.7 148.678 454.7 148.678C454.7 148.678 454.81 161.998 455.98 165.158Z" fill="#91B0B7"/>
<path d="M584.841 439.362C586.021 442.522 588.841 444.362 591.231 443.502C593.621 442.642 594.521 439.352 593.341 436.192C592.161 433.032 583.541 422.872 583.541 422.872C583.541 422.872 583.661 436.222 584.841 439.362Z" fill="#91B0B7"/>
<path d="M291.805 185.66C291.805 185.66 291.895 195.71 292.805 198.1C293.715 200.49 295.805 201.88 297.625 201.22C299.445 200.56 300.105 198.09 299.215 195.71C298.325 193.33 291.805 185.66 291.805 185.66Z" fill="#91B0B7"/>
<path d="M309.335 126.9C309.335 126.9 309.425 136.95 310.335 139.34C311.245 141.73 313.335 143.12 315.155 142.46C316.975 141.8 317.635 139.33 316.745 136.95C315.855 134.57 309.335 126.9 309.335 126.9Z" fill="#91B0B7"/>
<path d="M383.685 225.55C382.795 223.17 376.285 215.5 376.285 215.5C376.285 215.5 376.385 225.56 377.285 227.94C378.185 230.32 380.285 231.72 382.095 231.06C383.905 230.4 384.575 227.9 383.685 225.55Z" fill="#91B0B7"/>
<path d="M165.465 151.23C165.465 151.23 165.515 156.23 165.965 157.45C166.415 158.67 167.485 159.34 168.365 159.01C168.829 158.745 169.172 158.31 169.321 157.797C169.47 157.284 169.414 156.733 169.165 156.26C168.725 155.06 165.465 151.23 165.465 151.23Z" fill="#91B0B7"/>
<path d="M254.605 171.9C253.715 169.51 247.205 161.9 247.205 161.9C247.205 161.9 247.295 171.9 248.205 174.34C249.115 176.78 251.255 178.12 253.025 177.46C254.795 176.8 255.495 174.29 254.605 171.9Z" fill="#91B0B7"/>
<path d="M141.645 195.47C141.645 195.47 141.745 205.52 142.645 207.9C143.545 210.28 145.695 211.69 147.465 211.03C149.235 210.37 149.955 207.9 149.065 205.51C148.175 203.12 141.645 195.47 141.645 195.47Z" fill="#91B0B7"/>
<path d="M158.794 276.371C158.794 276.371 154.974 301.011 159.974 301.011C164.974 301.011 158.794 276.371 158.794 276.371Z" fill="#91B0B7"/>
<path d="M194.78 573.597C193.995 571.484 188.236 564.695 188.236 564.695C188.236 564.695 188.321 573.605 189.08 575.685C189.84 577.764 191.774 579.066 193.345 578.449C194.915 577.832 195.574 575.71 194.78 573.597Z" fill="#91B0B7"/>
</g>
<path d="M97.3937 157.962C90.7754 157.961 86.7832 151.24 90.7981 145.979C102.835 130.205 129.56 105.457 174.64 114.367C174.64 114.367 192.413 64.5941 244.767 65.9897C317.682 67.9835 321.837 125.103 321.837 125.103C321.837 125.103 349.23 108.36 366.37 145.352C369.194 151.447 364.339 157.999 357.621 157.998L97.3937 157.962Z" fill="#91B0B7"/>
<defs>
<clipPath id="clip0">
<rect width="700.33" height="501.8" fill="white" transform="translate(0.334961 126.9)"/>
</clipPath>
</defs>
</svg>
