<?xml version="1.0" encoding="UTF-8"?>
<svg width="62px" height="62px" viewBox="0 0 62 62" version="1.1" xmlns="http://www.w3.org/2000/svg" xmlns:xlink="http://www.w3.org/1999/xlink">
    <!-- Generator: Sketch 51.1 (57501) - http://www.bohemiancoding.com/sketch -->
    <title>icons/careers/pet copy</title>
    <desc>Created with Sketch.</desc>
    <defs></defs>
    <g id="icons/careers/pet-copy" stroke="none" stroke-width="1" fill="none" fill-rule="evenodd">
        <path d="M23.7364343,22.8564864 C23.6387425,22.7342095 23.5687464,22.587734 23.5368623,22.4256272 C22.8710324,19.0403806 20.0906274,16.5659722 16.7574099,16.5659722 C13.0112686,16.5659722 10.2273138,19.227832 10.2273138,22.5234378 C10.2273138,23.2358956 10.3416324,23.7704873 10.6044591,24.5160622 C10.6275243,24.5814924 10.7575413,24.9420089 10.7938747,25.0464607 C10.9269557,25.4290444 10.8160921,25.854121 10.5131104,26.1229758 C9.63050618,26.9061661 8.99778864,27.9056201 8.60998137,29.1880093 C8.19255854,30.5722944 8.00004104,32.3394388 8.00004104,34.8107644 L7.99998998,52.0080574 C7.99946887,52.074738 8.00878412,52.2118536 8.03923443,52.3940654 C8.08966923,52.6958627 8.1813511,52.9988718 8.31949137,53.2759075 C8.68506421,54.0018204 9.54504986,54.5659722 10.5845581,54.5659722 L15.1875443,54.4393662 C15.1877515,54.3410622 15.1777763,54.1487952 15.1465912,53.8937392 C15.0946917,53.4692651 15.001052,53.0394414 14.8595491,52.6409633 C14.6654071,52.1019688 14.4234341,51.6886696 14.0923574,51.3716863 C14.1131488,51.3916046 14.0515965,51.3675509 13.7848994,51.295992 C13.5817841,51.2411643 13.4501809,51.2003318 13.3018472,51.1393915 C12.9267539,50.9852912 12.6818592,50.6199244 12.6818592,50.21441 L12.6818592,45.2925344 C12.6818592,44.8733043 12.9433562,44.4985778 13.3368445,44.3539372 C14.6182648,43.8829056 15.7390281,43.3383172 16.5569812,42.7696331 C17.0861,42.4023854 17.5813124,42.0225608 17.9869399,41.680208 C18.070745,41.6077415 18.3619904,41.3636416 18.4184311,41.3132845 C18.4678789,41.2691666 18.5067347,41.2316932 18.542787,41.1932968 C18.590323,41.1426699 18.6376683,41.0853808 18.6924784,41.0118682 C19.1975921,40.5207546 20.4611254,40.1884423 21.8337055,40.1565991 C23.1262895,40.1224361 24.7502104,40.27329 26.5129534,40.563958 C27.0683501,40.6534794 27.6092502,40.7504358 28.1361061,40.8539667 C28.9690832,41.0176526 29.7384828,41.1918048 30.4647229,41.3751877 C30.7397652,41.4446386 30.9970691,41.512474 31.2553397,41.582911 C31.4121622,41.6256805 31.560739,41.6670449 31.7671213,41.7246935 C32.2002205,41.844726 32.500041,42.2389429 32.500041,42.6883678 L32.4981443,52.0148276 C32.501407,52.0677261 32.5191306,52.198392 32.5613022,52.3786737 C32.6335398,52.6874866 32.7481748,52.9965828 32.9099404,53.2779622 C33.3368744,54.0177974 34.2119104,54.5659722 35.2629136,54.5659722 L39.4040062,54.5659722 C39.4108325,54.4698348 39.4147404,54.4109752 39.4157298,54.3893935 C39.4387161,53.8879957 39.3914584,53.256678 39.2198866,52.6408935 C39.0700461,52.105183 38.862124,51.6961675 38.5493163,51.3729584 C38.5816121,51.4063481 38.5274774,51.3843198 38.2773606,51.3151282 C38.0707089,51.2576573 37.9387781,51.2154149 37.788695,51.1512394 C37.4206074,50.9938453 37.1818592,50.6320976 37.1818592,50.2317711 L37.1818592,42.6232644 C37.1818592,42.3263219 37.3138262,42.0447373 37.5420322,41.8547455 C37.8180818,41.6249216 38.1132296,41.3607435 38.4670556,41.0110258 C38.9872378,40.4968834 39.5043786,39.9207825 39.9989616,39.2841024 C41.3299378,37.5707273 42.3115923,35.6669742 42.7789282,33.6053564 C42.9717072,32.7512292 43.3576282,31.1823091 43.8844757,29.0943858 C43.9069492,29.0053388 43.9069492,29.0053388 43.9294299,28.9163268 C44.2022025,27.8364788 44.4937385,26.6924597 44.7893962,25.5390436 C44.9619764,24.865776 45.2346134,23.8063232 45.204287,23.9248327 C45.2395671,23.7869653 45.303867,23.6582159 45.3928896,23.5471886 C45.5280635,23.3786022 45.6895215,23.2354097 45.9284845,23.0914321 C46.6711703,22.6251835 47.8499261,22.34375 49.5400804,22.34375 C51.1396239,22.34375 52.449978,21.3245136 53.2019607,19.8414318 C53.2033739,19.838142 53.3588081,19.4570492 53.5363564,19.0213093 C53.7923204,18.3930137 53.7923204,18.3930137 53.8771328,18.1847626 C53.8996631,18.129239 53.8729167,18.0659638 53.8130575,18.0417814 L49.4650479,16.4904585 C49.066902,16.3484043 48.8010889,15.9713398 48.8010889,15.5486111 C48.8010889,15.4489303 48.8039415,15.3734676 48.8163092,15.1342638 C48.8244103,14.9335851 48.8035772,14.8152124 48.6736654,14.5012001 C48.2435706,13.469806 47.0800129,12.5741581 45.4078893,12.2411577 C44.8416136,12.1283849 44.4882407,11.5608279 44.636927,11.0029047 C44.8643143,10.149668 44.9773138,9.23340428 44.9773138,7.78819444 C44.9773138,7.72578233 44.9267187,7.67518731 44.7987369,7.69435957 C44.7425124,7.7208811 44.6287391,7.77673904 44.4657462,7.86034784 C44.1894122,8.002096 43.8802992,8.16850575 43.5467767,8.35793423 C42.59364,8.89928076 41.6407833,9.5138428 40.7559928,10.1867041 C39.7126021,10.9801768 38.8369802,11.8009628 38.1051827,12.7191482 C38.1374415,12.6869584 37.831383,13.0643968 37.695891,13.2337878 C37.5803069,13.3738222 37.4586677,13.5244028 37.3530249,13.6581707 C37.3212732,13.6967372 37.2881274,13.736059 37.2591818,13.770495 C37.2443082,13.7886708 37.2258234,13.8133568 37.1452342,13.92396 C37.0046795,14.1001534 36.1834638,15.2106812 35.9433549,15.5445275 C35.8627699,15.6678129 35.8398305,15.7017497 35.8290236,15.7135587 C35.8133205,15.73706 35.7009042,15.9127085 35.6575845,15.978795 C35.5452937,16.1485475 35.5172754,16.1917798 35.1141905,16.8155201 C34.5634742,17.6789708 34.1820452,18.308737 33.9453701,18.7601492 C33.6595934,19.3537787 33.33868,19.8697002 32.9680842,20.3421511 C32.3508985,21.135859 31.6095804,21.7586025 30.7745487,22.2246714 C29.9489527,22.6854738 29.0723779,22.9728223 28.1880874,23.1223709 C27.6041688,23.2211216 27.098849,23.2479758 26.6726548,23.2326389 L24.6926778,23.2326389 C24.1190192,26.8715815 21.4824283,28.539191 16.981298,28.1649473 C16.5902297,28.1324322 16.3873258,27.6826881 16.621744,27.3679822 C18.3708106,25.0198643 18.7893377,23.1825206 17.9834791,21.8085097 C16.8802097,19.9274053 14.1818182,20.3493041 14.1818182,22.1111111 C14.1818182,22.4667504 14.1714521,22.802967 14.1505117,23.1198874 C14.191735,23.0965044 14.2336953,23.0741354 14.2763932,23.0527864 C15.0249625,22.6785018 16.095973,22.5 17.5,22.5 C17.7761424,22.5 18,22.7238576 18,23 C18,23.2761424 17.7761424,23.5 17.5,23.5 C16.2373603,23.5 15.3083708,23.6548316 14.7236068,23.9472136 C14.3806799,24.118677 14.102751,24.4027728 13.8909394,24.8108641 C13.804455,25.1306646 13.6983113,25.4164282 13.5720102,25.6684575 C13.3032238,26.2048115 12.4902888,25.8994866 12.6410434,25.3188019 C12.7223705,25.0055422 12.8250465,24.718904 12.9491662,24.4598501 C13.102485,23.8483926 13.1818182,23.0643966 13.1818182,22.1111111 C13.1818182,19.2440226 17.2643386,18.6057126 18.8460664,21.3026014 C19.7951725,22.9208532 19.4704049,24.9034588 17.9501173,27.215401 C21.4766743,27.2882664 23.3496311,25.8551349 23.7364343,22.8564864 Z M18.6634345,42.4172987 C18.2451579,42.7708333 17.7274919,43.1744789 17.1271717,43.5911456 C16.1657906,44.2595489 14.9216494,44.8368056 13.6818592,45.2925344 L13.6818592,50.21441 C14.051621,50.36632 14.5083868,50.3923611 14.7737452,50.6397567 C15.3001121,51.1432289 15.6002716,51.7465278 15.8003787,52.3020833 C16.1918909,53.4045144 16.187541,54.44184 16.187541,54.44184 L16.2005917,55.5659722 L10.5845581,55.5659722 C8.97935595,55.5659722 7.87006945,54.6067711 7.42635552,53.7256944 C6.98699033,52.8446178 7.00004104,51.9982644 7.00004104,51.9982644 L7.00004104,34.8107644 C7.00004104,32.2890622 7.19579715,30.4140622 7.6525629,28.8993056 C8.10932754,27.3888889 8.8662517,26.2473956 9.84938436,25.375 C9.5927257,24.6371533 9.22731377,23.80816 9.22731377,22.5234378 C9.22731377,18.7864589 12.3420155,15.5659722 16.7574099,15.5659722 C20.7203896,15.5659722 23.7915893,18.5390622 24.5180633,22.2326389 L26.6974842,22.2326389 C26.6974842,22.2326389 30.0557939,22.4583333 32.1786632,19.7282989 C32.4918734,19.3289933 32.7789834,18.8776044 33.0443417,18.3263889 C33.357552,17.7274311 33.8447679,16.9461811 34.2710812,16.2777778 C34.484239,15.9479167 34.6799952,15.6440978 34.8235496,15.4270833 C34.8975017,15.3142367 34.9540544,15.22309 34.9975552,15.1579867 C35.0236567,15.1232644 35.0410572,15.0972222 35.1063085,14.9973956 C35.3455666,14.6631944 36.1938446,13.5130211 36.3635004,13.3003478 C36.4809534,13.1354167 36.4809534,13.1440978 36.5810069,13.02257 C36.6767106,12.9010422 36.8028645,12.7447922 36.9246684,12.5972222 C37.1639265,12.2977433 37.3901339,12.0199656 37.3988337,12.0112844 C39.8175126,8.93836778 44.3721116,6.78993111 44.3721116,6.78993111 C44.5257672,6.71431612 44.6938992,6.67518731 44.8643066,6.67518731 C45.4790035,6.67518731 45.9773138,7.17349758 45.9773138,7.78819444 C45.9773138,8.87508908 45.9101256,9.66199818 45.8112369,10.2822192 L45.6032021,11.2604167 L46.5195566,11.5046248 C48.1569092,12.0605484 49.1745554,13.1041541 49.5966319,14.11632 C49.9054923,14.8628478 49.8010889,15.0928822 49.8010889,15.5486111 L54.1490985,17.099934 C54.7606761,17.347005 55.0339421,17.9934834 54.8037517,18.5607644 C54.8037517,18.5607644 54.1338304,20.2057289 54.1207797,20.2361111 C53.3769051,21.7074656 51.8587058,23.34375 49.5400804,23.34375 C47.7304213,23.34375 46.8473422,23.6953122 46.4601798,23.9383678 C46.2731234,24.0512156 46.207871,24.12934 46.1730699,24.1727433 C46.1208682,24.3767367 44.2677082,31.5512156 43.7543909,33.8255211 C42.6190041,38.8342011 38.8387309,42.0763889 38.1818592,42.6232644 L38.1818592,50.2317711 C38.5472712,50.3880211 39.0083868,50.4140622 39.2606944,50.6701389 C39.7696608,51.1953122 40.0263194,51.8116322 40.1829246,52.3715278 C40.4961348,53.49566 40.4091319,54.5286456 40.4091319,54.5286456 L40.3351798,55.5659722 L35.2629136,55.5659722 C33.6577115,55.5659722 32.5397253,54.6371533 32.0438085,53.7777778 C31.5522427,52.9227433 31.500041,52.0763889 31.500041,52.0763889 L31.500041,42.6883678 C30.8736206,42.5147567 29.0465609,41.9852433 26.3538227,41.5512156 C24.8008223,41.2951389 23.1738697,41.1215278 21.8601263,41.15625 C21.3269782,41.1686208 20.8551326,41.2299224 20.4680819,41.3129068 L18.6634345,42.4172987 Z" id="Path-Copy-13" fill="#595959" fill-rule="nonzero"></path>
    </g>
</svg>