<svg xmlns="http://www.w3.org/2000/svg" width="62" height="62" viewBox="0 0 62 62">
    <g fill="none" fill-rule="nonzero" stroke="#595959">
        <path d="M25.966 46.98c-.164-.017-.421-.033-.875-.22-1.045-.428-2.877-1.526-5.601-4.259-2.724-2.733-3.862-4.615-4.288-5.664-.186-.455-.203-.713-.219-.878M22.671 48.082c-.131-.014-.337-.027-.7-.176-.836-.342-2.302-1.22-4.48-3.407-2.18-2.187-3.09-3.693-3.431-4.531-.149-.365-.162-.571-.175-.703M42.44 14.418c-2.743 0-4.99 2.256-4.99 5.01 0 2.755 2.247 5.01 4.99 5.01 2.744 0 4.992-2.255 4.992-5.01 0-2.754-2.248-5.01-4.991-5.01zM10.954 45.434c-.57.408-1.073.672-2.24 1.241-1.1.536-1.65.875-2.235 1.453-.694.684-1.208 1.643-1.513 2.896-.322 1.325-.466 3.068-.466 5.598v.602h.598c4.682 0 7.183-.678 8.636-2.157.63-.642 1.007-1.256 1.557-2.409l.099-.208c.378-.8.614-1.258.9-1.693l-5.336-5.323z"/>
        <path d="M57.337 4.515l-.645.02c-.053 0-.162.003-.322.01-.27.012-.584.03-.938.058-1.015.08-2.147.213-3.366.413-3.483.571-6.966 1.563-10.211 3.074a27.474 27.474 0 0 0-7.948 5.527c-2.476 2.484-6.034 6.56-10.266 11.675l-.15.181h-9.605c-.051 0-.051 0-.052-.002a.606.606 0 0 0-.421.235l-5.484 6.603a.606.606 0 0 0 .313.961l7.446 1.878-.484.606-.183.233c-.144.184-.144.184-.232.29l-.055.057-.019.053a2.172 2.172 0 0 0-.058.57l.003.039c.007.112.03.27.059.41l.04.19-.1.168-2.35 3.963a2.388 2.388 0 0 0-.06.13l-.018.046a.599.599 0 0 0-.02.058 1.376 1.376 0 0 0-.022.321c.008.272.079.567.232.913.39.878 1.252 2.001 2.814 3.569 1.574 1.575 2.688 2.438 3.557 2.824.345.154.638.225.908.232.133.004.246-.004.319-.021a.593.593 0 0 0 .058-.02l.046-.019c.053-.022.101-.045.098-.042l4.181-2.474.188.037c.163.033.3.055.383.06l.034.003c.127.005.273-.006.417-.03.072-.01.125-.022.11-.016l.122-.041.109-.088.226-.175.22-.17.604-.465.186.74 1.681 6.677c.052.199.2.36.395.423a.59.59 0 0 0 .551-.095l6.597-5.516a.602.602 0 0 0 .226-.472v-9.67l.18-.15c5.377-4.485 9.258-7.882 11.635-10.266 2.074-2.085 3.765-4.505 5.088-7.17.143-.287.281-.578.416-.871 1.488-3.243 2.473-6.723 3.05-10.204a41.39 41.39 0 0 0 .423-3.364 28.418 28.418 0 0 0 .076-1.265l.018-.64z"/>
    </g>
</svg>
