<svg xmlns="http://www.w3.org/2000/svg" width="62" height="62" viewBox="0 0 62 62">
    <g fill="none" fill-rule="nonzero" stroke="#595959" stroke-width=".946" transform="translate(5 4)">
        <rect width="52.054" height="48.317" x=".473" y="5.21" fill="#FFF" rx="1.893"/>
        <rect width="6.625" height="10.422" x="9.938" y=".473" fill="#FFF" rx="1.893"/>
        <rect width="6.625" height="10.422" x="36.438" y=".473" fill="#FFF" rx="1.893"/>
        <path stroke-linecap="square" d="M1.42 15.632h51.107"/>
        <path fill="#FFF" d="M34.545 39.315h7.571v7.896h-7.571zM26.973 39.315h7.571v7.896h-7.571zM19.402 39.315h7.571v7.896h-7.571zM11.83 39.315h7.571v7.896H11.83z"/>
        <path fill="#FFF" d="M34.545 31.736h7.571v7.896h-7.571zM26.973 31.736h7.571v7.896h-7.571zM19.402 31.736h7.571v7.896h-7.571zM11.83 31.736h7.571v7.896H11.83z"/>
        <path fill="#FFF" d="M34.545 24.157h7.571v7.896h-7.571zM26.973 24.157h7.571v7.896h-7.571zM19.402 24.157h7.571v7.896h-7.571zM11.83 24.157h7.571v7.896H11.83z"/>
    </g>
</svg>
