<svg xmlns="http://www.w3.org/2000/svg" width="24" height="24" viewBox="0 0 24 24">
    <g fill="none" fill-rule="nonzero">
        <path fill="#F26522" d="M0 0h24v24H0z"/>
        <path fill="#FFF" d="M9.894 14.996h3.671v-.999h-2.537V12.45h2.34v-.999h-2.34v-1.448h2.537v-1H9.894v5.993zm8.575-1.628c0-1.197-.081-1.458-1.692-1.845-1.035-.252-1.053-.27-1.053-.954 0-.521.135-.683.9-.683.522 0 1.107.072 1.602.18l.126-.954a8.176 8.176 0 0 0-1.746-.198c-1.52 0-2.015.54-2.015 1.628 0 1.27.198 1.548 1.646 1.872 1.08.234 1.098.288 1.098.954 0 .575-.135.746-.954.746-.594 0-1.133-.108-1.691-.279l-.198.891c.396.19 1.187.36 1.871.36 1.773 0 2.106-.585 2.106-1.718zm2.087-2.232c0-.918.44-1.098 1.503-1.098.189 0 .584.028.845.082l.072-.918a5.226 5.226 0 0 0-1.034-.108c-1.638 0-2.484.504-2.484 2.087v2.187c0 1.034.306 1.718 1.854 1.718 1.412 0 1.844-.702 1.844-1.637v-.432c0-1.035-.44-1.485-1.53-1.485-.386 0-.755.054-1.07.162v-.558zm.9 1.34c.396 0 .603.136.603.568v.44c0 .46-.18.657-.747.657s-.756-.162-.756-.656v-.82c.252-.107.576-.188.9-.188z"/>
    </g>
</svg>
