<?xml version="1.0" encoding="UTF-8"?>
<svg width="24px" height="24px" viewBox="0 0 24 24" version="1.1" xmlns="http://www.w3.org/2000/svg" xmlns:xlink="http://www.w3.org/1999/xlink">
    <!-- Generator: Sketch 51.1 (57501) - http://www.bohemiancoding.com/sketch -->
    <title>icons/tech/Hangouts</title>
    <desc>Created with Sketch.</desc>
    <defs>
        <linearGradient x1="49.9996801%" y1="99.9994566%" x2="49.9996801%" y2="0%" id="linearGradient-1">
            <stop stop-color="#67974A" offset="0%"></stop>
            <stop stop-color="#82B750" offset="49.5%"></stop>
        </linearGradient>
    </defs>
    <g id="icons/tech/Hangouts" stroke="none" stroke-width="1" fill="none" fill-rule="evenodd">
        <g id="google-hangouts" transform="translate(3.000000, 0.000000)" fill-rule="nonzero">
            <path d="M20.818,8.42166486 C20.4491132,6.44614054 19.568434,4.72060541 18.177283,3.24804324 C17.5922545,2.62850954 16.9298917,2.08404821 16.2059245,1.62758919 C14.8532075,0.773448649 13.3796415,0.250118919 11.7816604,0.0647351351 C11.5868491,0.0420324324 11.3892642,0.0450162162 11.1972264,0 L9.81849057,0 C9.80356604,0.0341189189 9.77160377,0.0216648649 9.74624528,0.024 C9.39122642,0.0547459459 9.03792453,0.0944432432 8.6875283,0.159697297 C6.12698113,0.636064865 4.02420755,1.87096216 2.39664151,3.86568649 C1.05792453,5.50611892 0.320679245,7.38797838 0.161396226,9.48622703 C0.083770301,10.4977805 0.159437604,11.5150493 0.385924528,12.5047784 C0.553274696,13.2436126 0.807878998,13.9607273 1.14456604,14.6415568 C1.17428302,14.6996757 1.20360377,14.7577946 1.23384906,14.8159135 C1.78975472,15.8911135 2.50481132,16.8492973 3.4009434,17.6768432 C3.87271698,18.1124757 4.37698113,18.5065946 4.92284906,18.8471351 C6.59545283,19.8899027 8.42126415,20.4367135 10.4047736,20.4611027 C10.5265472,20.4627892 10.5596981,20.4922378 10.5589057,20.6144432 C10.5533585,21.6572108 10.5557358,22.7001081 10.556,23.7430054 C10.5561321,23.7834811 10.5593019,23.823827 10.5616792,23.8741622 C10.5960189,23.8604108 10.6175472,23.852627 10.638283,23.843027 C12.6322264,22.9228541 14.4630566,21.7600865 16.0952453,20.302573 C16.4197352,20.012344 16.7314955,19.7086744 17.0296792,19.3923892 C17.1576604,19.2570811 17.2845849,19.1194378 17.4128302,18.9842595 C17.6109434,18.776173 17.7823774,18.5436973 17.9691321,18.3245838 C18.1848113,18.0718703 18.378434,17.8032 18.5694151,17.5328432 C18.9916604,16.9353081 19.3687358,16.3119568 19.685717,15.6534486 C19.8460566,15.3205622 19.9987358,14.9850811 20.1338491,14.6416865 C20.1383396,14.6352 20.1444151,14.6294919 20.1473208,14.6224865 C20.5155472,13.6822054 20.751566,12.7092324 20.8771698,11.7109622 C20.9210189,11.3632865 20.9494151,11.0134054 20.9673774,10.6637838 C21.0060024,9.91325173 20.955875,9.16085189 20.818,8.42166486 Z M7.39213208,14.6983784 C7.21316981,14.7461189 7.03064151,14.7734919 6.84824528,14.7996973 C6.70718868,14.8199351 6.61526415,14.7430054 6.56269811,14.6180757 L6.56415094,13.4624432 C6.57101887,13.3490595 6.5245283,13.2275027 6.61698113,13.1274811 C6.66281132,13.0779243 6.71471698,13.0439351 6.78484906,13.0268108 C6.99022642,12.9759568 7.19837736,12.9353514 7.38539623,12.8257297 C7.72984906,12.6237405 7.94420755,12.3322378 8.03930189,11.9522595 C8.05409434,11.8924541 8.06822642,11.8322595 8.08235849,11.7721946 C7.25530189,11.7706378 6.42850943,11.7692108 5.60145283,11.768173 C5.52986792,11.7680432 5.45933962,11.7655784 5.38960377,11.7466378 C5.17881132,11.6892973 5.01741509,11.5004108 5.01715094,11.2867459 C5.01556604,10.0584649 5.01807547,8.83005405 5.019,7.60177297 C5.00169811,7.40549189 5.01913208,7.22153514 5.18713208,7.0812973 C5.27839623,7.00540541 5.37864151,6.95948108 5.49856604,6.95948108 C6.71458491,6.95922162 7.93060377,6.96012973 9.14662264,6.95883243 C9.46849057,6.95831351 9.73488679,7.27705946 9.63186792,7.58867027 C9.65669811,7.64756757 9.65207547,7.70983784 9.65207547,7.77132973 C9.65233962,9.10975135 9.66,10.4486919 9.64956604,11.7871135 C9.64283019,12.675373 9.29071698,13.4223568 8.62875472,14.0280649 C8.59415094,14.0595892 8.56073585,14.0924108 8.52692453,14.1245838 C8.1840566,14.3827459 7.81292453,14.5865514 7.39213208,14.6983784 Z M14.1195283,14.6130162 C14.1043396,14.6170378 14.0888868,14.6213189 14.0731698,14.6257297 L14.0468868,14.6403892 C13.8115283,14.705773 13.5740566,14.76 13.3313019,14.7947676 C13.1461321,14.8214919 13.0061321,14.7187459 13.0038868,14.535827 C13.0020377,14.4076541 13.0011132,14.2792216 13.0000566,14.1509189 L13.0067925,13.4617946 C13.0057358,13.4110703 13.0038868,13.3607351 13.0040189,13.3102703 C13.004283,13.1338378 13.0733585,13.059373 13.2966981,13.0092973 C13.5798679,12.9456 13.8462642,12.855827 14.0666981,12.6548757 C14.3312453,12.4135784 14.4647736,12.1123459 14.5255283,11.7719351 L12.2337547,11.7676541 C12.1506792,11.7675243 12.0674717,11.7686919 11.9842642,11.7672649 C11.6723019,11.7622054 11.4587358,11.5503568 11.4587358,11.2422486 C11.4591321,10.0291459 11.4608491,8.81617297 11.4616415,7.60294054 C11.4616415,7.59126486 11.4603208,7.57958919 11.4595283,7.56791351 C11.4354906,7.34088649 11.5019245,7.15485405 11.7073019,7.02875676 C11.7870755,6.97945946 11.8738491,6.95922162 11.9656415,6.95922162 C13.1736038,6.95857297 14.381434,6.95961081 15.5895283,6.95818378 C15.9112642,6.95779459 16.1775283,7.27654054 16.0746415,7.58815135 C16.0992075,7.64704865 16.094717,7.70918919 16.094717,7.77068108 C16.094717,9.11143784 16.0955094,10.4521946 16.0943208,11.7930811 C16.0932642,12.9908757 15.3290755,14.1117405 14.2027358,14.5718919 C14.1743396,14.583827 14.1472642,14.5992649 14.1195283,14.6130162 Z" id="Shape" fill="url(#linearGradient-1)"></path>
            <path d="M14.0468868,14.6403892 C13.8115283,14.705773 13.5740566,14.76 13.3313019,14.7947676 C13.1461321,14.8214919 13.0061321,14.7187459 13.0038868,14.535827 C13.0020377,14.4076541 13.0011132,14.2792216 13.0000566,14.1509189 L13.0067925,13.4617946 C13.0741509,13.3083243 13.2199623,13.2806919 13.3622075,13.2489081 C14.0223208,13.102573 14.4268679,12.6791351 14.5219623,12.0241297 C14.5338491,11.9424 14.5850943,11.8563892 14.525,11.7720649 L12.2332264,11.7677838 C12.1501509,11.7676541 12.0668113,11.7688216 11.9837358,11.7673946 C11.6717736,11.7623351 11.4582075,11.5504865 11.4582075,11.2423784 C11.4586038,10.0292757 11.4603208,8.8163027 11.4611132,7.60307027 C11.4611132,7.59139459 11.4597925,7.57971892 11.459,7.56804324 C11.492283,7.5539027 11.4947925,7.51952432 11.5095849,7.49318919 C11.6127358,7.31221622 11.7667358,7.21478919 11.9812264,7.21478919 C13.1800755,7.21504865 14.3789245,7.2144 15.5776415,7.21543784 C15.821717,7.21556757 16.0045094,7.35580541 16.0739811,7.58828108 C16.0985472,7.64717838 16.0940566,7.70931892 16.0940566,7.77081081 C16.0940566,9.11156757 16.094717,10.4523243 16.0936604,11.7932108 C16.0926038,12.9910054 15.3284151,14.1118703 14.2020755,14.5720216 C14.173283,14.5836973 14.1463396,14.5991351 14.1186038,14.6127568 C14.103283,14.6167784 14.0878302,14.6210595 14.0721132,14.6254703 C14.0644528,14.6305297 14.0556038,14.6354595 14.0468868,14.6403892 Z M8.52758491,14.1245838 C8.1840566,14.3827459 7.81292453,14.5866811 7.39213208,14.6983784 C7.21316981,14.7461189 7.03064151,14.7734919 6.84824528,14.7996973 C6.70718868,14.8199351 6.61526415,14.7430054 6.56269811,14.6179459 L6.56415094,13.4624432 C6.62886792,13.3146811 6.76741509,13.2843243 6.90635849,13.2529297 C7.57677358,13.1010162 7.96124528,12.7081946 8.07601887,12.0459243 C8.09120755,11.9578378 8.1420566,11.8643027 8.08262264,11.7721946 C7.25556604,11.7706378 6.42877358,11.7692108 5.60171698,11.768173 C5.53013208,11.7680432 5.45960377,11.7655784 5.38986792,11.7466378 C5.17907547,11.6892973 5.01767925,11.5004108 5.01741509,11.2867459 C5.01583019,10.0584649 5.01833962,8.83005405 5.01926415,7.60177297 C5.10854717,7.37267027 5.26030189,7.21699459 5.52511321,7.21647568 C6.73267925,7.21414054 7.94037736,7.21478919 9.1479434,7.21608649 C9.38237736,7.21634595 9.56715094,7.36255135 9.63239623,7.58867027 C9.65722642,7.64756757 9.65260377,7.70983784 9.65260377,7.77132973 C9.65286792,9.10975135 9.6605283,10.4486919 9.65009434,11.7871135 C9.64335849,12.675373 9.29124528,13.4223568 8.62928302,14.0280649 C8.5949434,14.0595892 8.5615283,14.0924108 8.52758491,14.1245838 Z" id="Shape" fill="#FFFFFF"></path>
            <path d="M9.63213208,7.58841081 C9.56688679,7.36229189 9.38211321,7.21608649 9.14767925,7.21582703 C7.94011321,7.21452973 6.73241509,7.21388108 5.52484906,7.21621622 C5.26003774,7.21673514 5.10828302,7.37241081 5.019,7.60151351 C5.00169811,7.40523243 5.01913208,7.22127568 5.18713208,7.08103784 C5.27839623,7.00514595 5.37864151,6.95922162 5.49856604,6.95922162 C6.71458491,6.95896216 7.93060377,6.95987027 9.14662264,6.95844324 C9.46875472,6.95805405 9.73515094,7.2768 9.63213208,7.58841081 Z M16.0747736,7.58841081 C16.005566,7.35593514 15.8225094,7.2156973 15.578566,7.21556757 C14.379717,7.21452973 13.1808679,7.21517838 11.9820189,7.21491892 C11.7675283,7.21491892 11.6135283,7.31234595 11.5103774,7.49331892 C11.4955849,7.51965405 11.4930755,7.55403243 11.4597925,7.56817297 C11.4357547,7.34114595 11.5021887,7.15511351 11.707566,7.02901622 C11.7873396,6.97971892 11.8741132,6.95948108 11.9659057,6.95948108 C13.1738679,6.95883243 14.3816981,6.95987027 15.5897925,6.95844324 C15.9113962,6.95805405 16.1779245,7.2768 16.0747736,7.58841081 Z M14.5252642,11.7719351 C14.5850943,11.8562595 14.5338491,11.9422703 14.5222264,12.024 C14.4268679,12.6792649 14.0225849,13.1024432 13.3624717,13.2487784 C13.2202264,13.2803027 13.0741509,13.3081946 13.0070566,13.4616649 C13.006,13.4110703 13.0041509,13.3607351 13.004283,13.3102703 C13.0045472,13.1338378 13.0736226,13.059373 13.2969623,13.0092973 C13.5801321,12.9456 13.8465283,12.855827 14.0669623,12.6548757 C14.3309811,12.4134486 14.4645094,12.1123459 14.5252642,11.7719351 Z M8.08262264,11.7719351 C8.1420566,11.8640432 8.09120755,11.9578378 8.07601887,12.0456649 C7.96124528,12.7078054 7.57677358,13.1007568 6.90635849,13.2526703 C6.76741509,13.2840649 6.62886792,13.3146811 6.56415094,13.4621838 C6.57101887,13.3488 6.5245283,13.2272432 6.61698113,13.1272216 C6.66281132,13.0776649 6.71471698,13.0436757 6.78484906,13.0265514 C6.99022642,12.9756973 7.19837736,12.9350919 7.38539623,12.8254703 C7.72984906,12.6234811 7.94420755,12.3319784 8.03930189,11.952 C8.05435849,11.8921946 8.06822642,11.832 8.08262264,11.7719351 Z" id="Shape" fill="#6FA14D"></path>
        </g>
    </g>
</svg>