<svg xmlns="http://www.w3.org/2000/svg" width="24" height="24" viewBox="0 0 24 24">
    <g fill="none" fill-rule="nonzero">
        <path fill="#D33833" d="M20.716 11.575c0 4.749-3.671 8.602-8.203 8.602-4.53 0-8.202-3.853-8.202-8.602 0-4.75 3.671-8.603 8.202-8.603 4.532 0 8.203 3.853 8.203 8.603"/>
        <path fill="#EF3D3A" d="M4.648 13.705s-.595-8.97 7.469-9.227l-.563-.964-4.372 1.507-1.25 1.472L4.84 8.637l-.622 2.497.186 1.669"/>
        <path fill="#231F20" d="M6.897 5.706a8.551 8.551 0 0 0-2.328 5.902c0 2.307.893 4.39 2.328 5.903 1.442 1.513 3.42 2.443 5.616 2.443 2.197 0 4.175-.93 5.617-2.443a8.551 8.551 0 0 0 2.328-5.903 8.55 8.55 0 0 0-2.328-5.902c-1.442-1.506-3.42-2.443-5.617-2.443-2.19 0-4.174.93-5.616 2.443zM6.534 17.87c-1.528-1.602-2.474-3.82-2.474-6.263 0-2.442.946-4.66 2.474-6.269 1.528-1.6 3.644-2.598 5.98-2.598 2.335 0 4.451.997 5.98 2.598 1.527 1.602 2.473 3.82 2.473 6.27 0 2.442-.946 4.66-2.474 6.262-1.528 1.608-3.644 2.598-5.98 2.598-2.335 0-4.451-.99-5.98-2.598z"/>
        <path fill="#F0D6B7" d="M15.967 11.622l-1.25.19-1.688.197-1.091.027-1.065-.034-.814-.258-.72-.8-.563-1.636-.126-.352-.747-.258-.437-.74-.31-1.058.343-.93.814-.291.655.319.31.705.378-.06.125-.164-.125-.74-.033-.929.185-1.282-.007-.733.57-.936.998-.74 1.746-.766 1.939.292 1.686 1.248.781 1.282.503.93.125 2.306-.377 1.988-.688 1.764-.648.943"/>
        <path fill="#335061" d="M14.908 17.165l-4.465.19v.767l.377 2.693-.185.224-3.122-1.092-.219-.387-.31-3.623-.735-2.171-.159-.516 2.5-1.764.781-.319.688.869.596.543.688.224.31.095.378 1.669.284.352.721-.257-.503.997 2.712 1.316-.337.19"/>
        <path fill="#6D6B6D" d="M7.5 5.984l.813-.292.655.32.31.705.378-.061.092-.387-.185-.74.185-1.764-.158-.963.562-.672 1.217-.99-.344-.482-1.72.868-.72.577L8.18 3l-.622.868-.185 1.025.125 1.092"/>
        <path fill="#DCD9D8" d="M8.783 2.972s.47-1.188 2.341-1.764c1.872-.577.093-.414.093-.414l-2.03.8-.781.8-.344.639.72-.061M7.844 5.76S7.188 3.514 9.69 3.196l-.093-.387-1.72.414-.502 1.669.125 1.092.344-.224"/>
        <path fill="#F7E4CD" d="M8.842 8.739l.41-.408s.186.02.219.245c.033.224.125 2.245 1.468 3.331.126.102-.999-.163-.999-.163l-.999-1.601m5.65-2.015s.072-.97.33-.896c.258.075.258.34.258.34s-.621.407-.588.556m2.593-3.555s-.516.108-.563.577c-.046.468.563.095.655.06m-3.87-.603s-.687.095-.687.543c0 .447.78.413.998.223M9.16 6.69s-1.184-.74-1.31-.034c-.126.705-.404 1.214.185 1.954l-.403-.13-.377-.99-.126-.963.721-.767.814.061.47.387.026.482m.562-2.022s.53-2.823 3.215-3.365c2.21-.448 3.373.095 3.81.61 0 0-1.971-2.401-3.843-1.669-1.872.74-3.248 2.083-3.215 2.945.053 1.479.033 1.479.033 1.479m7.243-2.436s-.906-.034-.939.8c0 0 0 .13.06.259 0 0 .72-.835 1.157-.387"/>
        <path fill="#F7E4CD" d="M13.003 3.379s-.159-1.276-1.217-.536c-.688.481-.622 1.153-.503 1.282.126.129.093.387.185.21.093-.176.066-.753.41-.916.338-.162.907-.339 1.125-.04"/>
        <path fill="#49728B" d="M10.066 12.036l-2.937 1.343s1.217 4.967.595 6.507l-.436-.163-.033-1.893-.814-3.582-.344-.991L9.16 11.14l.906.896m.298 2.748l.416.522v1.92h-.496s-.06-1.343-.06-1.506c0-.163.06-.74.06-.74m.093 2.538l-1.41.06.404.293 1 .163"/>
        <path fill="#335061" d="M15.186 17.199l1.158-.034.284 2.945-1.184.162-.258-3.073"/>
        <path fill="#335061" d="M15.497 17.199l1.746-.095s.721-1.859.721-1.954c0-.095.622-2.693.622-2.693l-1.409-1.507-.284-.257-.748.766v2.979l-.648 2.761"/>
        <path fill="#49728B" d="M16.277 16.975l-1.091.224.159.896c.403.19 1.091-.32 1.091-.32m-.126-6.41l2.19 1.668.06-.766-1.654-1.568-.595.665"/>
        <path fill="#FFF" d="M11.462 23.509l-.649-2.694-.324-1.988-.053-1.472 2.93-.163h1.82l-.165 3.365.284 2.599-.033.482-2.375.19-1.435-.32"/>
        <path fill="#DCD9D8" d="M14.782 17.165s-.158 3.331.311 5.706c0 0-.939.61-2.308.767l2.626-.095.31-.19-.376-5.252-.1-1.126"/>
        <path fill="#FFF" d="M16.674 19.859l1.217-.353 2.31-.13.343-1.091-.622-1.893-.72-.095-1 .319-.952.481-.51-.095-.396.163"/>
        <path fill="#DCD9D8" d="M16.654 19.214s.814-.387.94-.353l-.344-1.764.403-.163s.285 1.67.285 1.86c0 0 1.746.094 1.905.094 0 0 .377-.74.284-1.506l.344 1.025.033.576-.502.767-.563.129-.939-.034-.31-.414-1.092.163-.344.129"/>
        <path fill="#FFF" d="M15.424 16.941l-.688-1.791-.72-1.058s.158-.448.376-.448h.721l.688.258-.06 1.187-.317 1.852"/>
        <path fill="#DCD9D8" d="M15.563 16.33s-.873-1.73-.873-1.987c0 0 .159-.387.377-.292.218.095.688.353.688.353v-.61l-1.065-.225-.721.095 1.217 2.958.251.034"/>
        <path fill="#FFF" d="M11.74 12.104l-.867-.095-.814-.258v.292l.397.447 1.25.577"/>
        <path fill="#DCD9D8" d="M10.344 12.199s.966.414 1.283.319l.033.386-.873-.19-.53-.386.087-.13"/>
        <path fill="#D33833" d="M16.674 13.752a5.641 5.641 0 0 1-1.429-.203c.027-.177-.026-.346.02-.475.12-.088.311-.088.49-.109a.826.826 0 0 0-.543-.06c-.006-.123-.06-.197-.092-.292.297-.109.999-.821 1.396-.59.191.115.27.752.284 1.071.013.258-.026.516-.126.658M14.14 12.864c0 .04 0 .081-.006.122-.165.108-.43.108-.615.203a1.7 1.7 0 0 1 .661.17c-.006.102-.006.21-.013.312-.304.21-.582.53-.94.733-.171.095-.76.339-.938.291-.1-.027-.113-.156-.153-.278-.086-.257-.284-.678-.304-1.072-.02-.495-.073-1.33.45-1.228a4.49 4.49 0 0 1 1.237.462c.205.122.317.257.622.285M14.438 13.454c-.046-.272-.099-.346-.079-.584.708-.481.834.828.08.584"/>
        <path fill="#000" stroke="#D33833" stroke-width=".5" d="M14.438 13.454c-.046-.272-.099-.346-.079-.584.708-.481.834.828.08.584z"/>
        <path fill="#EF3D3A" d="M15.457 13.671s-.218-.319-.06-.414c.16-.095.312 0 .404-.163.093-.163 0-.257.033-.448.033-.19.185-.223.344-.257.159-.034.596-.095.655.06l-.185-.576-.377-.129-1.184.706-.06.353v.705m-2.85 1.221l-.12-1.5c-.066-.745.172-.616.807-.616.1 0 .595.115.629.19.172.36-.285.278.198.55.403.223 1.125-.137.96-.645-.094-.116-.477-.034-.616-.109l-.734-.387c-.311-.163-1.026-.407-1.356-.176-.84.583.053 2.049.35 2.66"/>
        <path fill="#231F20" d="M13.003 3.379c-.853-.204-1.277.366-1.535.956-.231-.054-.139-.38-.079-.542.152-.428.767-1.005 1.27-.923.212.027.503.23.344.509m4.148.99h.04c.191.407.356.842.601 1.208-.165.393-1.23.733-1.217.04.232-.101.629-.02.834-.155-.12-.333-.285-.618-.258-1.093m-3.718.014c.185.346.245.705.503.963.119.116.344.258.231.584-.026.074-.218.244-.33.278-.404.122-1.35.027-1.032-.495.337.013.787.224 1.038-.028-.192-.312-.536-.936-.41-1.302m3.565 3.487c-.608.4-1.29.841-2.295.74-.212-.19-.298-.618-.086-.896.106.19.04.543.344.597.569.102 1.23-.36 1.64-.515.252-.441-.02-.598-.25-.882-.47-.577-1.092-1.296-1.072-2.158.191-.142.205.217.231.278.245.584.86 1.337 1.303 1.839.113.122.291.244.311.325.06.231-.152.516-.126.672m-8.057-.42c-.191-.116-.238-.604-.463-.618-.324-.02-.264.638-.264 1.025-.219-.204-.258-.842-.1-1.167-.185-.095-.264.101-.37.17.139-.985 1.41-.455 1.197.59m8.441.834c-.284.556-.688 1.167-1.521 1.187-.02-.176-.033-.454 0-.563.641-.068 1.038-.4 1.521-.624m-3.995.36c.529.285 1.508.318 2.236.298.04.163.04.366.04.563-.933.04-2.032-.197-2.276-.861m-.1.529c.37.95 1.634.841 2.7.814-.047.122-.146.271-.278.319-.344.142-1.284.25-1.76-.007-.298-.163-.496-.536-.662-.753-.072-.102-.47-.366 0-.373"/>
        <path fill="#81B0C4" d="M16.952 14.404c-.43.76-.847 1.54-1.356 2.205.212-.645.304-1.73.337-2.558.45-.217.834.047 1.02.353"/>
        <path fill="#231F20" d="M19.274 17.131c-.483.102-.82.584-1.297.55.265-.374.715-.536 1.297-.55m.212.774c-.397.04-.86.108-1.257.074.192-.298.92-.19 1.257-.074m.139.671c-.444.007-.993 0-1.416-.034.251-.278 1.131-.101 1.416.034"/>
        <path fill="#DCD9D8" d="M16.119 20.408c.066.57.284 1.147.258 1.77-.245.082-.384.157-.715.157-.02-.53-.092-1.343-.073-1.852.16.013.397-.116.53-.075"/>
        <path fill="#F0D6B7" d="M15.404 11.995c-.225.15-.41.333-.628.495-.476.028-.734-.033-1.078-.312.006-.02.04-.013.04-.04.509.23 1.157-.095 1.666-.143"/>
        <path fill="#81B0C4" d="M12.745 15.544c.139-.618.688-.944 1.184-1.283.51.665.82 1.52 1.164 2.348-.813-.251-1.64-.652-2.348-1.065"/>
        <path fill="#231F20" d="M15.59 20.49c-.02.508.046 1.316.072 1.852.331 0 .47-.075.715-.156.026-.625-.192-1.201-.258-1.771-.133-.048-.37.081-.53.075zm-5.107-2.877c.218 2.042.529 3.752 1.104 5.563 1.277.4 2.812.434 3.943.075-.205-1.018-.12-2.26-.238-3.352-.093-.82-.047-1.642-.172-2.476-1.37-.292-3.301-.068-4.637.19zm4.96-.177c-.012.876.04 1.744.107 2.62.33-.048.549-.082.853-.157-.1-.841-.086-1.798-.29-2.544-.232.007-.438 0-.67.081zm1.661-.142c-.158-.034-.337 0-.483 0 .073.712.239 1.5.298 2.252.232.007.357-.108.55-.142.012-.658-.054-1.567-.365-2.11zm2.52 2.361c.49-.122.794-.733.655-1.364-.092-.42-.25-1.22-.43-1.492-.125-.197-.476-.462-.76-.279-.457.299-1.257.387-1.588.747.166.57.218 1.343.285 2.062.569.034 1.263-.162 1.74.048-.331.108-.755.108-1.04.271.239.116.781.095 1.139.007zm-4.537-3.046c-.344-.828-.655-1.683-1.165-2.348-.496.34-1.038.665-1.184 1.283.715.413 1.542.814 2.349 1.065zm.846-2.558c-.033.828-.125 1.913-.337 2.558.51-.672.926-1.445 1.356-2.205-.185-.306-.569-.57-1.019-.353zm-.959-.346c-.192-.02-.357.23-.608.122-.06.068-.113.136-.172.204.555.692.813 1.669 1.243 2.476.232-.78.205-1.628.258-2.476-.317.013-.496-.306-.72-.326zm-.615-.835c-.02.238.033.312.08.584.754.244.628-1.065-.08-.584zm-.84-.285a4.484 4.484 0 0 0-1.237-.46c-.523-.103-.47.732-.45 1.227.02.394.218.807.304 1.072.04.122.053.251.153.278.178.041.774-.196.939-.292.357-.196.635-.515.94-.732.006-.102.006-.21.012-.312a1.561 1.561 0 0 0-.661-.17c.179-.095.45-.095.615-.203 0-.041 0-.082.007-.123-.305-.034-.417-.17-.622-.285zm-3.11-.576c-.27.285.762.665 1.086.685 0-.176.099-.346.08-.475-.391-.068-.9-.02-1.165-.21zm3.335.129c0 .027-.033.02-.04.04.35.279.609.34 1.078.312.212-.156.404-.346.629-.495-.516.048-1.164.373-1.667.143zm3.056.95c-.013-.313-.093-.957-.284-1.072-.397-.238-1.099.481-1.396.59.033.095.086.17.092.292a.822.822 0 0 1 .543.06c-.179.02-.37.02-.49.11-.04.128.014.298-.02.474.417.122.9.183 1.43.204.099-.136.138-.394.125-.658zm-6.847-.808c-.086-.06-.661-.828-.74-.794-1.039.421-2.011 1.147-2.878 1.839.827 1.825 1.164 4.057 1.224 6.208.946.454 1.78 1.113 3.07 1.18a54.51 54.51 0 0 1-.371-3.066c-.324-.143-.787.007-1.092-.041 0-.373.463-.163.503-.414.027-.19-.258-.203-.165-.502.238.088.363.285.615.36.231-.516 0-1.432.033-1.866.007-.081.04-.448.218-.387.159.054-.006.984.007 1.391.013.38-.046.74.106.977a34.655 34.655 0 0 1 3.856-.326c-.297-.129-.648-.25-1.032-.475-.211-.122-.866-.373-.926-.576-.1-.326.252-.495.311-.774-.628.353-.747-.339-.9-.82a6.911 6.911 0 0 1-.244-1.025c-.55-.285-1.131-.55-1.595-.889zm6.298-.706c.867-.427 1.025 1.608.681 2.267.053.196.232.271.305.447-.483.89-1.02 1.717-1.515 2.592.364-.237.893-.04 1.323-.217.159-.061.271-.434.39-.733.33-.814.675-1.845.827-2.619.033-.176.132-.563.106-.719-.04-.285-.41-.495-.602-.665-.35-.325-.57-.603-.94-.909-.138.224-.456.373-.575.557zM7.976 3.698c-.41.468-.325 1.336-.278 1.96.747-.481 1.733.041 1.726.855.357-.007.133-.454.066-.746-.211-.943.358-1.96.027-2.822-.642.054-1.164.318-1.541.753zM10.926.99c-.933.27-2.13.97-2.514 1.831.298-.047.503-.196.794-.217.112-.007.258.048.384.014.251-.068.47-.651.661-.869.185-.21.41-.305.562-.495.1-.047.245-.047.252-.197-.04-.047-.086-.081-.14-.067zm4.862.257c-.972-.563-2.613-.983-3.645-.454-.833.427-1.958 1.133-2.342 2.022.358.861-.105 1.648-.139 2.523-.013.469.212.869.232 1.378-.126.21-.496.23-.754.217-.086-.448-.238-.95-.688-1.004-.635-.075-1.105.468-1.131 1.031-.033.665.496 1.764 1.25 1.69.291-.028.364-.326.681-.326.172.353-.264.461-.31.712-.014.068.032.319.066.441.138.577.443 1.33.74 1.77.384.564 1.132.645 1.939.7.145-.32.674-.292 1.018-.21-.416-.17-.8-.577-1.118-.937-.363-.414-.734-.855-.754-1.398.695.984 1.264 1.846 2.52 2.28.953.326 2.064-.15 2.799-.678.304-.218.483-.57.7-.882.808-1.194 1.185-2.89 1.106-4.54-.033-.678-.033-1.356-.258-1.81-.232-.476-1.02-.91-1.482-.476-.086-.468.384-.753.933-.583-.39-.523-.8-1.14-1.363-1.466zm1.812 15.34c.761-.386 2.177-1.038 2.646 0 .18.387.384 1.032.47 1.432.126.556-.139 1.737-.701 1.92-.496.163-1.072.156-1.667.034a.987.987 0 0 1-.205-.272c-.423-.013-.827.02-1.158.204.033.326-.178.373-.383.441-.146.604.297 1.39.191 1.934-.072.393-.542.454-.886.522-.013.217.013.4.04.584-.08.298-.43.468-.768.508-1.104.136-2.778.197-3.836-.196-.298-.747-.53-1.649-.774-2.497-1.032.115-1.872-.455-2.66-.835-.27-.129-.648-.203-.754-.427-.099-.217-.06-.631-.086-1.018-.06-.997-.119-1.96-.37-2.978-.113-.462-.318-.862-.457-1.303-.132-.407-.357-.916-.416-1.323-.086-.604.47-.638.82-.902.55-.407.979-.631 1.574-.998.179-.108.708-.38.768-.508.119-.251-.205-.604-.291-.8a2.46 2.46 0 0 1-.232-.883 1.663 1.663 0 0 1-1.105-.726c-.377-.57-.641-1.621-.31-2.415.026-.061.152-.19.172-.285.04-.19-.073-.441-.08-.645-.033-1.038.172-1.933.853-2.245.278-1.133 1.27-1.507 2.203-2.07.35-.21.735-.346 1.131-.495 1.423-.536 3.612-.434 4.796.482.503.386 1.303 1.207 1.588 1.804.76 1.568.701 4.193.172 6.107-.073.257-.172.63-.318.943-.099.217-.41.644-.377.834.04.197.715.72.86.862.258.258.754.597.794.923.046.345-.145.82-.245 1.153a45.597 45.597 0 0 1-.999 3.134z"/>
        <path fill="#F7E4CD" d="M12.54 8.881c.04-.054.265-.142.582.014 0 0-.377.06-.344.705l-.159-.034c.007.007-.158-.576-.079-.685"/>
        <path fill="#1D1919" d="M15.279 14.39c0 .095-.08.177-.172.177a.177.177 0 0 1-.172-.177c0-.095.079-.176.172-.176.099 0 .172.081.172.176m.172.821c0 .095-.08.176-.172.176a.177.177 0 0 1-.172-.176c0-.095.079-.176.172-.176.099 0 .172.074.172.176"/>
    </g>
</svg>
