<svg xmlns="http://www.w3.org/2000/svg" width="24" height="24" viewBox="0 0 24 24">
    <g fill="#8CC84B" fill-rule="nonzero">
        <path d="M11.012.305a2.04 2.04 0 0 1 1.975 0c3.008 1.683 6.016 3.363 9.023 5.047.566.315.944.939.938 1.584V17.06c.004.672-.411 1.31-1.008 1.618-2.998 1.674-5.993 3.35-8.99 5.023-.611.346-1.406.32-1.998-.055-.898-.516-1.799-1.029-2.697-1.544-.184-.109-.39-.195-.52-.371.114-.153.319-.172.486-.24.375-.117.72-.307 1.064-.491.087-.059.193-.036.277.016.768.437 1.53.886 2.301 1.318.165.094.331-.03.472-.108 2.941-1.647 5.886-3.287 8.827-4.934a.289.289 0 0 0 .16-.285c.003-3.34.001-6.68.002-10.02a.313.313 0 0 0-.189-.313c-2.987-1.665-5.973-3.334-8.96-5a.314.314 0 0 0-.35 0C8.837 3.34 5.851 5.01 2.864 6.676a.31.31 0 0 0-.189.31V17.01c-.01.118.055.23.163.281.797.448 1.595.892 2.392 1.338.45.24 1.001.382 1.496.198.437-.155.743-.596.735-1.056.004-3.32-.002-6.641.003-9.961-.01-.147.13-.27.275-.255.383-.003.766-.005 1.15 0 .16-.003.27.156.25.304-.002 3.342.004 6.683-.003 10.025 0 .89-.369 1.86-1.2 2.295-1.025.526-2.292.415-3.304-.09-.876-.433-1.713-.944-2.573-1.408-.599-.307-1.012-.947-1.008-1.62V6.937c-.006-.659.387-1.293.97-1.604l8.99-5.027z"/>
        <path d="M13.627 7.318c1.307-.083 2.706-.05 3.882.589.911.488 1.416 1.514 1.432 2.516-.026.135-.168.21-.298.2-.38 0-.759.005-1.138-.002-.161.006-.255-.141-.275-.282-.109-.48-.373-.954-.828-1.185-.7-.347-1.51-.33-2.274-.322-.556.029-1.155.077-1.627.4-.362.246-.472.742-.343 1.142.122.286.456.379.73.464 1.575.408 3.244.368 4.79.904.64.22 1.265.645 1.484 1.308.286.89.16 1.952-.478 2.666-.518.587-1.272.907-2.025 1.08-1 .221-2.04.227-3.056.129-.955-.108-1.95-.357-2.688-1.002-.63-.542-.94-1.388-.908-2.204.007-.137.145-.234.279-.222.382-.003.763-.004 1.145 0 .153-.01.266.12.274.262.07.457.244.937.646 1.207.776.496 1.75.462 2.639.476.736-.032 1.563-.042 2.163-.524.317-.275.411-.735.326-1.13-.093-.334-.446-.49-.749-.592-1.555-.487-3.243-.31-4.783-.861-.625-.219-1.23-.633-1.47-1.269-.335-.9-.181-2.013.524-2.703.688-.686 1.681-.95 2.626-1.045z"/>
    </g>
</svg>
