<svg xmlns="http://www.w3.org/2000/svg" width="62" height="62" viewBox="0 0 62 62">
    <path fill="#FFF" fill-rule="nonzero" stroke="#595959" stroke-width=".946" d="M29.918 6.723c-3.012.938-5.824 4.528-7.733 9.867h7.733V6.723zm3.164 0v9.867h7.733c-1.909-5.339-4.721-8.93-7.733-9.867zm-9.836 1.155a25.128 25.128 0 0 0-11.83 8.712h7.37c1.128-3.504 2.649-6.474 4.46-8.712zm16.509 0c1.81 2.237 3.331 5.208 4.458 8.712h7.37a25.134 25.134 0 0 0-11.828-8.712zM9.38 19.801a24.85 24.85 0 0 0-2.854 10.117h10.11c.1-3.561.53-6.975 1.263-10.117H9.381zm11.824 0c-.809 3.137-1.29 6.575-1.4 10.117h10.113V19.801h-8.713zm11.877 0v10.117h10.113c-.112-3.545-.592-6.983-1.4-10.117h-8.713zm12.018 0c.733 3.14 1.162 6.555 1.26 10.117h10.113a24.834 24.834 0 0 0-2.854-10.117h-8.52zM6.527 33.081A24.834 24.834 0 0 0 9.381 43.2h8.52c-.734-3.14-1.163-6.555-1.261-10.117H6.527zm13.278 0c.112 3.546.592 6.984 1.4 10.118h8.713V33.082H19.805zm13.277 0V43.2h8.713c.809-3.137 1.29-6.574 1.4-10.117H33.082zm13.28 0c-.1 3.562-.528 6.976-1.262 10.118h8.519a24.85 24.85 0 0 0 2.854-10.117h-10.11zm-34.945 13.33a25.134 25.134 0 0 0 11.828 8.711c-1.81-2.237-3.331-5.208-4.458-8.712h-7.37zm10.768 0c1.909 5.338 4.721 8.928 7.733 9.866V46.41h-7.733zm10.897 0v9.866c3.012-.938 5.824-4.528 7.733-9.867h-7.733zm11.131 0c-1.127 3.503-2.648 6.473-4.459 8.711a25.128 25.128 0 0 0 11.83-8.712h-7.37z"/>
</svg>
