<svg xmlns="http://www.w3.org/2000/svg" width="62" height="62" viewBox="0 0 62 62">
    <path fill="#FFF" fill-rule="nonzero" stroke="#595959" stroke-width="1.029" d="M17.94 7.514c-3.197.06-4.835 1.648-4.9 4.31-.022.926.1 1.7.46 3.086l.095.367-.323.2c-.132.081-.255.334-.21.713.061.509.184.85.337 1.045.085.11.16.15.215.155l.423.036.045.422c.088.824 1.437 2.608 1.94 2.872l.275.145v.31c0 .153 0 .278.003.527l.003.482c0 .557-.015.998-.061 1.507l-.03.132c-.39 1.055-1.39 1.644-3.607 2.46-.093.035-1.219.443-1.552.568-2.805 1.055-4.169 2.038-4.522 3.567l-.017.573a.574.574 0 0 0 .573.586h3.402c1.174-2.714 3.845-4.298 7.406-4.364h.04c1.797 0 3.149.476 4.1 1.296.329.105.642.238.938.397a7.179 7.179 0 0 1-.048-.334 4.157 4.157 0 0 1 .24-2.018 10.223 10.223 0 0 1-.058-.349c-1.822-.693-2.765-1.23-3.218-2.046h-.17l-.041-.468c-.046-.508-.061-.949-.06-1.51l.003-.46c.003-.258.004-.387.004-.546v-.31l.275-.145c.506-.266 1.863-2.05 1.95-2.872l.045-.423.425-.035c.055-.004.128-.045.212-.153.153-.195.275-.537.336-1.047.046-.38-.077-.632-.207-.712l-.349-.212.128-.388c.26-.786.423-1.787.437-2.937.022-1.92-.728-3.176-2.338-3.4l-.251-.035-.125-.221c-.267-.47-1.062-.77-2.223-.77zm26.087 0c-3.198.06-4.837 1.648-4.902 4.31-.022.926.1 1.7.46 3.086l.094.367-.322.2c-.132.081-.255.334-.21.713.061.509.184.85.337 1.045.085.11.159.15.215.155l.423.036.045.422c.087.824 1.437 2.608 1.94 2.872l.275.145v.31c0 .153 0 .278.003.527l.003.482c0 .557-.016.998-.061 1.507l-.03.132c-.376 1.016-1.306 1.591-3.367 2.364-.022.138-.045.27-.069.393a4.15 4.15 0 0 1 .227 2.007c1.316-.865 2.98-1.337 4.894-1.372h.038c1.798 0 3.152.475 4.103 1.294 1.538.492 2.714 1.567 3.391 3.07h3.399a.575.575 0 0 0 .573-.577v-.557c-.384-1.595-1.745-2.566-4.513-3.604-.333-.125-1.457-.53-1.543-.562-1.97-.724-2.98-1.269-3.454-2.122h-.172l-.042-.468a15.53 15.53 0 0 1-.06-1.508l.004-.46c.003-.258.003-.387.003-.546v-.31l.275-.145c.507-.266 1.864-2.05 1.951-2.872l.045-.423.425-.035c.054-.004.127-.045.212-.154.152-.196.275-.538.336-1.048.045-.38-.077-.63-.207-.71l-.35-.213.13-.389c.26-.779.424-1.783.438-2.935.022-1.92-.728-3.176-2.338-3.4l-.251-.035-.125-.221c-.267-.47-1.063-.77-2.223-.77zm0 0h-.005.01-.005zm-13.043 12c-3.198.06-4.838 1.648-4.902 4.31-.023.926.1 1.7.459 3.086l.095.367-.322.2c-.132.081-.255.334-.21.713.06.509.183.85.336 1.045.085.11.16.15.215.155l.424.036.044.422c.088.824 1.437 2.608 1.94 2.872l.275.145v.31l.003.527.003.482c0 .557-.015.998-.06 1.507l-.03.133c-.37.997-1.27 1.571-3.253 2.327.084.424.1.868.045 1.33-.163 1.36-.665 2.412-1.432 3.115-.4.923-1.055 1.872-1.797 2.67 0 .077.001.151.003.224.156.085.37.186.632.296.194.082.412.168.657.262.265.1.467.174.93.342 3.08 1.11 4.725 1.93 5.975 3.371 1.25-1.432 2.891-2.25 5.97-3.365.462-.167.666-.242.932-.343.246-.094.464-.18.659-.263.248-.105.452-.2.607-.283.002-.08.003-.162.003-.247-.74-.8-1.389-1.744-1.786-2.667-.766-.702-1.267-1.755-1.43-3.114a4.237 4.237 0 0 1 .048-1.34c-1.74-.661-2.643-1.185-3.085-1.982h-.171l-.042-.468a15.53 15.53 0 0 1-.06-1.508c0-.127.001-.219.004-.46l.003-.546v-.31l.275-.145c.507-.266 1.863-2.05 1.95-2.872l.046-.423.424-.035c.055-.004.128-.045.212-.154.153-.196.275-.538.336-1.048.046-.38-.076-.63-.207-.71l-.35-.213.13-.388c.259-.78.422-1.782.436-2.936.023-1.92-.728-3.178-2.337-3.402l-.252-.035-.125-.222c-.265-.468-1.06-.767-2.22-.768zM22.68 45.408l-.009.01-.052-.05v-.001l.061.041zm-4.74-14.985c-3.199.06-4.838 1.648-4.903 4.31-.022.926.1 1.7.46 3.086l.094.367-.322.2c-.132.081-.255.334-.21.713.061.509.184.85.337 1.046.085.108.16.15.215.154l.423.036.045.423c.087.823 1.437 2.607 1.94 2.871l.275.145v.31c0 .153 0 .278.003.527l.003.482c0 .557-.016.998-.061 1.507l-.03.133c-.39 1.054-1.39 1.643-3.606 2.46-.093.034-1.219.441-1.552.567-2.804 1.054-4.168 2.038-4.52 3.568l-.018.572a.574.574 0 0 0 .573.586h21.74a.575.575 0 0 0 .572-.577v-.555c-.384-1.595-1.745-2.566-4.513-3.604-.332-.125-1.457-.53-1.543-.562-1.97-.724-2.98-1.269-3.454-2.122h-.171l-.042-.468a15.53 15.53 0 0 1-.06-1.508l.003-.46c.003-.258.004-.387.004-.545v-.311l.274-.145c.507-.266 1.864-2.05 1.951-2.871l.045-.424.425-.035c.054-.004.127-.045.212-.154.152-.196.275-.538.336-1.048.046-.38-.077-.63-.207-.71l-.35-.213.13-.388c.258-.78.422-1.782.436-2.935.022-1.921-.728-3.18-2.338-3.403l-.251-.035-.125-.222c-.266-.469-1.06-.767-2.22-.768zm26.086 0c-3.198.06-4.837 1.648-4.902 4.31-.022.926.1 1.7.46 3.086l.094.367-.322.2c-.132.081-.255.334-.21.713.061.509.184.85.337 1.046.085.108.159.15.215.154l.423.036.045.423c.087.823 1.437 2.607 1.94 2.871l.275.145v.31c0 .153 0 .278.003.527l.003.482c0 .557-.016.998-.061 1.507l-.03.133c-.39 1.054-1.39 1.643-3.606 2.46-.093.034-1.219.441-1.552.567-2.805 1.054-4.168 2.038-4.52 3.567l-.018.59a.56.56 0 0 0 .573.569h21.739a.575.575 0 0 0 .573-.577v-.555c-.384-1.595-1.745-2.566-4.513-3.604-.333-.125-1.457-.53-1.543-.562-1.97-.724-2.98-1.269-3.454-2.122h-.172l-.042-.468a15.53 15.53 0 0 1-.06-1.508l.004-.46c.003-.258.003-.387.003-.545v-.311l.275-.145c.507-.266 1.864-2.05 1.951-2.871l.045-.424.425-.035c.054-.004.127-.045.212-.154.152-.196.275-.538.336-1.048.045-.38-.077-.63-.207-.71l-.35-.213.13-.388c.258-.78.422-1.782.436-2.935.022-1.921-.728-3.18-2.338-3.403l-.252-.035-.125-.222c-.265-.468-1.06-.767-2.22-.768z"/>
</svg>
