<?xml version="1.0" encoding="utf-8"?>
<!-- Generator: Adobe Illustrator 22.1.0, SVG Export Plug-In . SVG Version: 6.00 Build 0)  -->
<svg version="1.1" id="Слой_1" xmlns="http://www.w3.org/2000/svg" xmlns:xlink="http://www.w3.org/1999/xlink" x="0px" y="0px"
	 viewBox="0 0 62 62" style="enable-background:new 0 0 62 62;" xml:space="preserve">
<style type="text/css">
	.st0{fill:none;stroke:#595959;stroke-width:0.9464;}
	.st1{fill:none;stroke:#595959;}
</style>
<title>icons/careers/projects</title>
<desc>Created with Sketch.</desc>
<path id="Path-10_1_" class="st0" d="M18.7,50.1l0.7,0.7c0.5,0.5,1.1,0.7,1.8,0.7h35.3V24.5h-1.4"/>
<path id="Path-10-Copy_1_" class="st0" d="M14.7,46.1l0.7,0.7c0.5,0.5,1.1,0.7,1.8,0.7h35.3V20.5h-1.4"/>
<polyline id="Path-11" class="st1" points="22,30 28,24.5 33,29.5 42,21 "/>
<path id="Path-12" class="st1" d="M22,36h20"/>
<polyline id="Path-13" class="st1" points="36,21 42,21 42,27 "/>
<path id="Oval-Copy-4_1_" class="st0" d="M6.5,38.5V15c0-2.5,2-4.5,4.5-4.5s4.5,2,4.5,4.5v23.5l0,0.3c-0.1-2.4-2.1-4.3-4.5-4.3
	c-2.5,0-4.5,2-4.5,4.5c0,2.4,1.9,4.4,4.3,4.5l0.3,0h37.4V14.5H15.4"/>
</svg>
