<svg xmlns="http://www.w3.org/2000/svg" width="140" height="40" viewBox="0 0 140 40">
    <g fill="#8E8E8E" fill-rule="evenodd">
        <path fill-rule="nonzero" d="M69.47 33.026v6.517h-2.126V25.006h2.125v6.475l.538-.167 4.747-6.308h2.51l-5.006 6.445-.637.501.817.642 5.452 6.949H75.2l-5.125-6.517h-.606zm20.198 2.708c0-.507-.147-.91-.44-1.221a4.79 4.79 0 0 0-1.2-.902 15.977 15.977 0 0 0-1.615-.763 9.111 9.111 0 0 1-1.68-.898 4.842 4.842 0 0 1-1.318-1.329c-.362-.543-.54-1.227-.54-2.048 0-1.165.41-2.101 1.226-2.79.81-.682 1.947-1.019 3.403-1.019.83 0 1.588.062 2.272.185.69.124 1.232.284 1.629.483l.179.09-.65 1.9-.232-.11c-.29-.14-.727-.276-1.308-.406a9.015 9.015 0 0 0-1.97-.196c-.833 0-1.443.182-1.838.535-.395.354-.587.758-.587 1.228 0 .465.146.844.44 1.149a4.93 4.93 0 0 0 1.2.893c.498.272 1.038.541 1.623.807.603.274 1.161.593 1.675.957.525.37.963.816 1.314 1.336.362.536.541 1.197.541 1.978a4.2 4.2 0 0 1-.34 1.722 3.656 3.656 0 0 1-1.007 1.33c-.44.368-.968.65-1.585.847-.613.195-1.306.292-2.08.292-1.02 0-1.868-.078-2.544-.237-.673-.158-1.199-.335-1.58-.533l-.18-.093.728-1.949.232.132c.29.163.73.328 1.316.492a7.353 7.353 0 0 0 1.969.243c.425 0 .824-.042 1.196-.126.36-.08.668-.21.925-.387.253-.175.454-.394.604-.659.147-.259.222-.569.222-.933zm14.759 0c0-.507-.147-.91-.44-1.221a4.79 4.79 0 0 0-1.2-.902 15.977 15.977 0 0 0-1.615-.763 9.111 9.111 0 0 1-1.68-.898 4.842 4.842 0 0 1-1.318-1.329c-.361-.543-.54-1.227-.54-2.048 0-1.165.41-2.101 1.227-2.79.809-.682 1.946-1.019 3.402-1.019.83 0 1.588.062 2.272.185.69.124 1.232.284 1.63.483l.178.09-.65 1.9-.232-.11c-.29-.14-.727-.276-1.308-.406a9.015 9.015 0 0 0-1.97-.196c-.833 0-1.442.182-1.837.535-.395.354-.587.758-.587 1.228 0 .465.145.844.438 1.149a4.93 4.93 0 0 0 1.201.893c.498.272 1.039.541 1.623.807.603.274 1.161.593 1.676.957.524.37.963.816 1.313 1.336.362.536.542 1.197.542 1.978a4.2 4.2 0 0 1-.342 1.722 3.656 3.656 0 0 1-1.006 1.33c-.44.368-.968.65-1.585.847-.613.195-1.306.292-2.079.292-1.021 0-1.869-.078-2.544-.237-.674-.158-1.2-.335-1.58-.533l-.18-.093.727-1.949.233.132c.289.163.728.328 1.315.492a7.353 7.353 0 0 0 1.969.243c.425 0 .824-.042 1.196-.126.36-.08.669-.21.925-.387.253-.175.454-.394.604-.659.147-.259.222-.569.222-.933zm8.372-10.725c.262-.042.554-.073.876-.093.318-.02.65-.034.994-.041l1.005-.02c.33-.007.636-.01.92-.01 1.154 0 2.158.18 3.012.54.856.363 1.565.87 2.125 1.52.557.65.97 1.425 1.241 2.327.268.893.402 1.874.402 2.942 0 .973-.127 1.909-.38 2.807a6.835 6.835 0 0 1-1.217 2.413c-.558.706-1.283 1.27-2.171 1.694-.89.425-1.962.636-3.214.636-.216 0-.495-.003-.838-.01a29.64 29.64 0 0 1-1.064-.04c-.36-.02-.695-.038-1.002-.05a5.044 5.044 0 0 1-.698-.065l-.183-.037V25.039l.192-.03zm2.094 12.72a245.062 245.062 0 0 0 1.54.05c.904 0 1.656-.154 2.258-.459a3.848 3.848 0 0 0 1.444-1.225 5.017 5.017 0 0 0 .778-1.79 9.543 9.543 0 0 0 .235-2.131c0-.64-.072-1.284-.215-1.932a4.976 4.976 0 0 0-.73-1.722 3.972 3.972 0 0 0-1.38-1.246c-.573-.321-1.302-.484-2.19-.484h-.572c-.203 0-.402.007-.598.02a41.786 41.786 0 0 0-.732.056v10.855l.162.007zm16.384-2.088l-1.407 3.902h-2.137l5.496-14.759h1.08l5.518 14.759h-2.237l-1.447-3.902h-4.866zm4.196-1.906l-1.456-3.977-.007-.026-.289-1.223-.292 1.262-.008.027-1.435 3.937h3.487z"/>
        <path d="M19.641 2.743h17.357v2.743H19.641zM36.998 0h48.418v2.743H36.998zM11.419 11.2h25.579v2.743H11.419zM36.998 8.457h59.38V11.2h-59.38zM0 28.114h36.998v2.743H0zM36.998 25.371h22.838v2.743H36.998zM14.617 36.8h22.382v2.743H14.617zM36.998 34.057h9.135V36.8h-9.135zM28.32 19.886h8.679v2.743H28.32zM36.998 17.143h39.739v2.743H36.998z"/>
    </g>
</svg>
