<svg xmlns="http://www.w3.org/2000/svg" width="130" height="49" viewBox="0 0 130 49">
    <g fill="none" fill-rule="evenodd">
        <g fill-rule="nonzero">
            <path fill="#0297DE" d="M20.56 21.732l4.608 4.52-.455.447-4.636-4.547-4.804 4.713-.462-.453 4.771-4.68-5.975-5.859-5.974 5.86 4.609 4.52-.455.446-4.609-4.52L0 29.219l4.609 4.52-2.657 2.607 11.494 11.273 6.463-6.34 6.463 6.34 11.494-11.273-2.67-2.619L40 29.014l-6.997-6.862-4.805 4.713-.46-.453 4.77-4.68-5.975-5.859z"/>
            <path fill="#000" d="M20 0l-3.636 3.528 3.635 3.527 3.637-3.527z"/>
            <path fill="#00ACE5" d="M16.364 10.582l-3.637-3.527-3.636 3.527 3.636 3.527zM30.91 10.582l-3.637-3.527-3.637 3.527 3.637 3.527z"/>
            <path fill="#0064A4" d="M30.91 14.992l4.545 4.408L40 14.992l-4.545-4.41zM10.91 14.991l-4.547-4.409-4.545 4.41L6.363 19.4zM16.364 14.991l4.546 4.41 4.545-4.41-4.545-4.409z"/>
        </g>
        <path fill="#000" d="M54.25.06h5.33v7h-1.33V1.33h-2.67v5.73h-1.33v-7zm11.044 7l-.55-1.58h-2.37l-.54 1.58h-1.51l2.56-7h1.36l2.56 7h-1.51zm-2.47-2.85h1.48l-.74-2.15-.74 2.15zM70.138.06c1.56 0 2.43 1.02 2.43 2.3 0 1.28-.87 2.3-2.43 2.3h-1.26v2.4h-1.33v-7h2.59zm-.03 3.33c.66 0 1.09-.43 1.09-1.03 0-.6-.43-1.02-1.09-1.02h-1.23v2.05h1.23zm7.373 3.67l-2.03-2.84-.61.72v2.12h-1.33v-7h1.33v2.82l2.38-2.82h1.74l-2.62 3.11 2.77 3.89h-1.63zm9.068-3.69c.62.3 1.01.82 1.01 1.55 0 1.22-.8 2.14-2.34 2.14h-2.67v-7h2.49c1.34 0 2.14.91 2.14 2 0 .51-.26.98-.63 1.31zm-1.48-2.03h-1.19v1.44h1.19c.52 0 .75-.34.75-.72 0-.39-.23-.72-.75-.72zm.15 4.45c.62 0 .95-.37.95-.87s-.33-.87-.95-.87h-1.34v1.74h1.34zm5.864-3.33c1.57 0 2.45 1.02 2.45 2.3 0 1.28-.88 2.3-2.45 2.3h-2.58v-7h1.33v2.4h1.25zm-.02 3.33c.66 0 1.08-.43 1.08-1.03 0-.6-.42-1.03-1.08-1.03h-1.23v2.06h1.23zm3.15-5.73h1.33v7h-1.33v-7zm5.663 5.74c.77 0 1.35-.34 1.7-.9l1.2.6c-.57.99-1.61 1.64-2.9 1.64-2.01 0-3.39-1.56-3.39-3.57S97.866 0 99.876 0c1.29 0 2.33.64 2.9 1.64l-1.2.6c-.35-.56-.93-.91-1.7-.91-1.27 0-2.03.96-2.03 2.24 0 1.27.76 2.23 2.03 2.23zM106.77 0c2.01 0 3.39 1.56 3.39 3.57s-1.38 3.57-3.39 3.57c-2.01 0-3.4-1.56-3.4-3.57S104.76 0 106.77 0zm0 5.8c1.27 0 2.03-.96 2.03-2.23 0-1.28-.76-2.24-2.03-2.24-1.28 0-2.04.96-2.04 2.24 0 1.27.76 2.23 2.04 2.23zm8.304 1.26l-2.03-2.84-.61.72v2.12h-1.33v-7h1.33v2.82l2.38-2.82h1.74l-2.62 3.11 2.77 3.89h-1.63zm6.463-7h1.3v7h-1.33V2.52l-2.76 4.54h-1.3v-7h1.33V4.6l2.76-4.54zm8.454 7h-1.62l-1.59-2.58-1.59 2.58h-1.61l2.29-3.65-2.1-3.35h1.62l1.39 2.3 1.4-2.3h1.62l-2.1 3.36 2.29 3.64zm-70.901 5v1.28h-1.88v5.72h-1.33v-5.72H54v-1.28h5.09zm2.274 5.73h3.32v1.27h-4.65v-7h4.59v1.28h-3.26v1.59h2.95v1.27h-2.95v1.59zm10.423 1.27h-1.62l-1.59-2.58-1.59 2.58h-1.61l2.29-3.65-2.1-3.35h1.62l1.39 2.3 1.4-2.3h1.62l-2.1 3.36 2.29 3.64zm4.894-7h1.33v7h-1.33V16.2h-2.82v2.86h-1.33v-7h1.33v2.87h2.82v-2.87zm5.674-.06c2.01 0 3.39 1.56 3.39 3.57s-1.38 3.57-3.39 3.57c-2.01 0-3.4-1.56-3.4-3.57s1.39-3.57 3.4-3.57zm0 5.8c1.27 0 2.03-.96 2.03-2.23 0-1.28-.76-2.24-2.03-2.24-1.28 0-2.04.96-2.04 2.24 0 1.27.76 2.23 2.04 2.23zm5.134-5.74h4.26v7h-1.33v-5.73h-1.61c0 2.27-.09 4.58-1.15 5.39-.49.37-1.15.51-1.82.37l.23-1.33c.39.09.64-.01.75-.1.81-.68.67-3.33.67-5.6zm8.603-.06c2.01 0 3.39 1.56 3.39 3.57s-1.38 3.57-3.39 3.57c-2.01 0-3.4-1.56-3.4-3.57s1.39-3.57 3.4-3.57zm0 5.8c1.27 0 2.03-.96 2.03-2.23 0-1.28-.76-2.24-2.03-2.24-1.28 0-2.04.96-2.04 2.24 0 1.27.76 2.23 2.04 2.23zm8.134-5.74v1.27h-2.47v5.73h-1.33v-7h3.8zm5.034 0h1.3v7h-1.33v-4.54l-2.76 4.54h-1.3v-7h1.33v4.54l2.76-4.54zm5.224-.6c-.81 0-1.46-.62-1.46-1.43h.92c0 .3.24.54.54.54.3 0 .54-.24.54-.54h.93c0 .81-.66 1.43-1.47 1.43zm1.36.6h1.3v7h-1.33v-4.54l-2.76 4.54h-1.3v-7h1.33v4.54l2.76-4.54z"/>
        <path fill="#0297DE" d="M57.97 36.03l-2.03-2.84-.61.72v2.12H54v-7h1.33v2.82l2.38-2.82h1.74l-2.62 3.11 2.77 3.89h-1.63zm4.954-4.6c1.57 0 2.45 1.02 2.45 2.3 0 1.28-.88 2.3-2.45 2.3h-2.58v-7h1.33v2.4h1.25zm-.02 3.33c.66 0 1.08-.43 1.08-1.03 0-.6-.42-1.03-1.08-1.03h-1.23v2.06h1.23zm3.15-5.73h1.33v7h-1.33v-7zm5.114 0c1.56 0 2.43 1.02 2.43 2.3 0 1.28-.87 2.3-2.43 2.3h-1.26v2.4h-1.33v-7h2.59zm-.03 3.33c.66 0 1.09-.43 1.09-1.03 0-.6-.43-1.02-1.09-1.02h-1.23v2.05h1.23zm7.203-3.33v1.27h-2.47v5.73h-1.33v-7h3.8zm3.524 2.4c1.57 0 2.45 1.02 2.45 2.3 0 1.28-.88 2.3-2.45 2.3h-2.58v-7h1.33v2.4h1.25zm-.02 3.33c.66 0 1.08-.43 1.08-1.03 0-.6-.42-1.03-1.08-1.03h-1.23v2.06h1.23zm3.15-5.73h1.33v7h-1.33v-7zm6.034 3.3c.66.21 1.22.82 1.22 1.64 0 1.24-.97 2.14-2.62 2.14-1.12 0-2.19-.56-2.56-1.15l1-.73c.18.21.67.63 1.5.63s1.29-.46 1.29-.97c0-.52-.34-.9-1.29-.9h-.9v-1.1h.9c.77 0 .98-.43 1.01-.81.03-.38-.23-.93-1.09-.93-.57 0-.99.3-1.2.71l-1.1-.34c.33-.9 1.34-1.55 2.41-1.55 1.39 0 2.28.8 2.28 1.85 0 .71-.43 1.26-.85 1.51zm5.254 2.44c.77 0 1.35-.34 1.7-.9l1.2.6c-.57.99-1.61 1.64-2.9 1.64-2.01 0-3.39-1.56-3.39-3.57s1.38-3.57 3.39-3.57c1.29 0 2.33.64 2.9 1.64l-1.2.6c-.35-.56-.93-.91-1.7-.91-1.27 0-2.03.96-2.03 2.24 0 1.27.76 2.23 2.03 2.23zm7.713 1.26l-2.03-2.84-.61.72v2.12h-1.33v-7h1.33v2.82l2.38-2.82h1.74l-2.62 3.11 2.77 3.89h-1.63zm4.924-7.06c2.01 0 3.39 1.56 3.39 3.57s-1.38 3.57-3.39 3.57c-2.01 0-3.4-1.56-3.4-3.57s1.39-3.57 3.4-3.57zm0 5.8c1.27 0 2.03-.96 2.03-2.23 0-1.28-.76-2.24-2.03-2.24-1.28 0-2.04.96-2.04 2.24 0 1.27.76 2.23 2.04 2.23zm7.064-6.34c-.81 0-1.46-.62-1.46-1.43h.92c0 .3.24.54.54.54.3 0 .54-.24.54-.54h.93c0 .81-.66 1.43-1.47 1.43zm1.36.6h1.3v7h-1.33v-4.54l-2.76 4.54h-1.3v-7h1.33v4.54l2.76-4.54zm-60.754 12c1.56 0 2.43 1.02 2.43 2.3 0 1.28-.87 2.3-2.43 2.3h-1.26v2.4H54v-7h2.59zm-.03 3.33c.66 0 1.09-.43 1.09-1.03 0-.6-.43-1.02-1.09-1.02h-1.23v2.05h1.23zm4.734 2.4h3.32v1.27h-4.65v-7h4.59v1.28h-3.26v1.59h2.95v1.27h-2.95v1.59zm7.404.01c.77 0 1.35-.34 1.7-.9l1.2.6c-.57.99-1.61 1.64-2.9 1.64-2.01 0-3.39-1.56-3.39-3.57s1.38-3.57 3.39-3.57c1.29 0 2.33.64 2.9 1.64l-1.2.6c-.35-.56-.93-.91-1.7-.91-1.27 0-2.03.96-2.03 2.24 0 1.27.76 2.23 2.03 2.23zm3.743-5.74h5.33v7h-1.33V42.3h-2.67v5.73h-1.33v-7zm10.384 0h1.45l-2.12 5.02c-.53 1.2-1.12 2.35-2.87 1.97l.33-1.29c.62.18.91-.3 1.16-.84l-2.26-4.86h1.49l1.5 3.36 1.32-3.36zm4.794 2.66c1.42 0 2.34.94 2.34 2.17s-.92 2.17-2.34 2.17h-2.6v-7h4.23v1.27h-2.9v1.39h1.27zm0 3.07c.62 0 .98-.4.98-.9s-.36-.9-.98-.9h-1.27v1.8h1.27zm4.383-5.73h4.26v7h-1.33V42.3h-1.61c0 2.27-.09 4.58-1.15 5.39-.49.37-1.15.51-1.82.37l.23-1.33c.39.09.64-.01.75-.1.81-.68.67-3.33.67-5.6zm9.544 0h1.3v7h-1.33v-4.54l-2.76 4.54h-1.3v-7h1.33v4.54l2.76-4.54zm6.584 0h1.3v7h-1.33v-4.54l-2.76 4.54h-1.3v-7h1.33v4.54l2.76-4.54zm6.464 7l-2.03-2.84-.61.72v2.12h-1.33v-7h1.33v2.82l2.38-2.82h1.74l-2.62 3.11 2.77 3.89h-1.63zm6.464-7h1.3v7h-1.33v-4.54l-2.76 4.54h-1.3v-7h1.33v4.54l2.76-4.54z"/>
    </g>
</svg>
