<svg width="332" height="407" viewBox="0 0 332 407" fill="none" xmlns="http://www.w3.org/2000/svg">
<g style="mix-blend-mode:overlay" opacity="0.68">
<path d="M353.134 161.919C350.858 163.297 348.575 164.659 346.345 166.105C348.507 175.687 349.778 185.604 349.778 195.833C349.778 270.669 288.892 331.555 214.055 331.555C139.218 331.555 78.3324 270.669 78.3324 195.833C78.3324 120.996 139.218 60.1102 214.055 60.1102C249.293 60.1102 281.288 73.7563 305.437 95.8579C307.416 94.1835 309.555 92.707 311.724 91.2686C286.098 67.31 251.82 52.4994 214.055 52.4994C135.017 52.4994 70.7216 116.803 70.7216 195.833C70.7216 274.863 135.025 339.166 214.055 339.166C293.085 339.166 357.388 274.87 357.388 195.833C357.388 184.127 355.798 172.81 353.134 161.919Z" fill="url(#paint0_linear)"/>
<path d="M353.134 161.919C350.858 163.297 348.575 164.659 346.345 166.105C348.507 175.687 349.778 185.604 349.778 195.833C349.778 270.669 288.892 331.555 214.055 331.555C139.218 331.555 78.3324 270.669 78.3324 195.833C78.3324 120.996 139.218 60.1102 214.055 60.1102C249.293 60.1102 281.288 73.7563 305.437 95.8579C307.416 94.1835 309.555 92.707 311.724 91.2686C286.098 67.31 251.82 52.4994 214.055 52.4994C135.017 52.4994 70.7216 116.803 70.7216 195.833C70.7216 274.863 135.025 339.166 214.055 339.166C293.085 339.166 357.388 274.87 357.388 195.833C357.388 184.127 355.798 172.81 353.134 161.919Z" fill="url(#paint1_linear)"/>
<path d="M430 192C430 73.4517 333.548 -23 215 -23C157.357 -23 105.005 -0.128653 66.3595 36.9288C68.2112 38.7263 70.0396 40.5315 71.8526 42.3677C109.088 6.72811 159.511 -15.2523 215 -15.2523C329.279 -15.2523 422.252 77.7207 422.252 192C422.252 306.279 329.279 399.252 215 399.252C100.721 399.252 7.74775 306.279 7.74775 192C7.74775 162.559 13.9769 134.558 25.095 109.169C23.0495 107.488 20.9577 105.884 18.7805 104.381C6.77153 131.165 0 160.792 0 192C0 310.548 96.4517 407 215 407C333.548 407 430 310.548 430 192Z" fill="url(#paint2_linear)"/>
<path d="M430 192C430 73.4517 333.548 -23 215 -23C157.357 -23 105.005 -0.128653 66.3595 36.9288C68.2112 38.7263 70.0396 40.5315 71.8526 42.3677C109.088 6.72811 159.511 -15.2523 215 -15.2523C329.279 -15.2523 422.252 77.7207 422.252 192C422.252 306.279 329.279 399.252 215 399.252C100.721 399.252 7.74775 306.279 7.74775 192C7.74775 162.559 13.9769 134.558 25.095 109.169C23.0495 107.488 20.9577 105.884 18.7805 104.381C6.77153 131.165 0 160.792 0 192C0 310.548 96.4517 407 215 407C333.548 407 430 310.548 430 192Z" fill="url(#paint3_linear)"/>
<path d="M143.333 196.778C143.333 236.358 175.42 268.444 215 268.444C254.58 268.444 286.667 236.358 286.667 196.778C286.667 157.197 254.58 125.111 215 125.111C175.42 125.111 143.333 157.197 143.333 196.778Z" fill="url(#paint4_linear)"/>
<path d="M143.333 196.778C143.333 236.358 175.42 268.444 215 268.444C254.58 268.444 286.667 236.358 286.667 196.778C286.667 157.197 254.58 125.111 215 125.111C175.42 125.111 143.333 157.197 143.333 196.778Z" fill="url(#paint5_linear)"/>
<path d="M310.556 125.111C310.556 138.305 321.251 149 334.444 149C347.638 149 358.333 138.305 358.333 125.111C358.333 111.918 347.638 101.222 334.444 101.222C321.251 101.222 310.556 111.918 310.556 125.111Z" fill="url(#paint6_linear)"/>
<path d="M310.556 125.111C310.556 138.305 321.251 149 334.444 149C347.638 149 358.333 138.305 358.333 125.111C358.333 111.918 347.638 101.222 334.444 101.222C321.251 101.222 310.556 111.918 310.556 125.111Z" fill="url(#paint7_linear)"/>
<path d="M19.1111 72.5555C19.1111 85.749 29.8065 96.4444 43 96.4444C56.1935 96.4444 66.8889 85.749 66.8889 72.5555C66.8889 59.3621 56.1935 48.6667 43 48.6667C29.8065 48.6667 19.1111 59.3621 19.1111 72.5555Z" fill="url(#paint8_linear)"/>
<path d="M19.1111 72.5555C19.1111 85.749 29.8065 96.4444 43 96.4444C56.1935 96.4444 66.8889 85.749 66.8889 72.5555C66.8889 59.3621 56.1935 48.6667 43 48.6667C29.8065 48.6667 19.1111 59.3621 19.1111 72.5555Z" fill="url(#paint9_linear)"/>
</g>
<defs>
<linearGradient id="paint0_linear" x1="20.9819" y1="179.048" x2="394.253" y2="179.048" gradientUnits="userSpaceOnUse">
<stop stop-color="#DAE1E9"/>
<stop offset="1" stop-color="#070B10" stop-opacity="0"/>
</linearGradient>
<linearGradient id="paint1_linear" x1="215" y1="-23" x2="215" y2="407" gradientUnits="userSpaceOnUse">
<stop stop-color="white"/>
<stop offset="1" stop-color="white" stop-opacity="0"/>
</linearGradient>
<linearGradient id="paint2_linear" x1="20.9819" y1="179.048" x2="394.253" y2="179.048" gradientUnits="userSpaceOnUse">
<stop stop-color="#DAE1E9"/>
<stop offset="1" stop-color="#070B10" stop-opacity="0"/>
</linearGradient>
<linearGradient id="paint3_linear" x1="215" y1="-23" x2="215" y2="407" gradientUnits="userSpaceOnUse">
<stop stop-color="white"/>
<stop offset="1" stop-color="white" stop-opacity="0"/>
</linearGradient>
<linearGradient id="paint4_linear" x1="20.9819" y1="179.048" x2="394.253" y2="179.048" gradientUnits="userSpaceOnUse">
<stop stop-color="#DAE1E9"/>
<stop offset="1" stop-color="#070B10" stop-opacity="0"/>
</linearGradient>
<linearGradient id="paint5_linear" x1="215" y1="-23" x2="215" y2="407" gradientUnits="userSpaceOnUse">
<stop stop-color="white"/>
<stop offset="1" stop-color="white" stop-opacity="0"/>
</linearGradient>
<linearGradient id="paint6_linear" x1="20.9819" y1="179.048" x2="394.253" y2="179.048" gradientUnits="userSpaceOnUse">
<stop stop-color="#DAE1E9"/>
<stop offset="1" stop-color="#070B10" stop-opacity="0"/>
</linearGradient>
<linearGradient id="paint7_linear" x1="215" y1="-23" x2="215" y2="407" gradientUnits="userSpaceOnUse">
<stop stop-color="white"/>
<stop offset="1" stop-color="white" stop-opacity="0"/>
</linearGradient>
<linearGradient id="paint8_linear" x1="20.9819" y1="179.048" x2="394.253" y2="179.048" gradientUnits="userSpaceOnUse">
<stop stop-color="#DAE1E9"/>
<stop offset="1" stop-color="#070B10" stop-opacity="0"/>
</linearGradient>
<linearGradient id="paint9_linear" x1="215" y1="-23" x2="215" y2="407" gradientUnits="userSpaceOnUse">
<stop stop-color="white"/>
<stop offset="1" stop-color="white" stop-opacity="0"/>
</linearGradient>
</defs>
</svg>
