<svg xmlns="http://www.w3.org/2000/svg" fill="none" viewBox="0 0 208 82">
  <defs/>
  <path fill="#FD384C" fill-rule="evenodd" d="M17.3 0C8.3 0 .9 7.3.9 16.4v41a16.4 16.4 0 1032.8 0V56l21.2 21.2.3.3a16.3 16.3 0 0027.7-11.9v-41a16.4 16.4 0 10-32.8 0V26L29 5C26 1.9 21.9 0 17.3 0zm-5.8 10.6a8.2 8.2 0 000 11.6l49.2 49.1a8.2 8.2 0 0011.5-11.5L23.1 10.6a8.2 8.2 0 00-11.6 0zm12.9 42.7a8.2 8.2 0 10-14.2 0l5.3 11.2a2 2 0 003.6 0l5.3-11.2zM66.6 16a2 2 0 00-2 1.4l-2.2 4.8-5.6 1a2 2 0 00-1.4 3.4l.4.3 3.7 3.2-1.1 5.4A2 2 0 0061 38l.4-.2 5.1-2.7 5.1 2.7.4.2a2 2 0 002.7-2.6l-1.1-5.5 3.6-3 .3-.4a2 2 0 00-1.4-3.4l-5.3-1-2.3-4.8a2 2 0 00-2-1.4z" clip-rule="evenodd"/>
  <path fill="#fff" fill-rule="evenodd" d="M111 24l-5.5-6.7c-.9-1-1.6-1.4-2.6-1.4-2.2 0-3.6 1.5-3.6 3.7V33c0 1.6.1 2.2.7 3 .6.9 1.7 1.4 2.7 1.4 1.1 0 2-.5 2.7-1.3.6-.8.8-1.4.8-2.8V29l5.6 7a3.4 3.4 0 005.5.1c.6-.7.7-1.4.7-3.1v-13c0-1.3-.2-2-.8-2.7a3.5 3.5 0 00-2.6-1.3c-1.2 0-2.3.6-2.9 1.5-.5.8-.6 1.4-.6 2.8v3.9zm15.8 10.5h6.5c1 2.1 2 2.9 3.6 2.9a3.5 3.5 0 003-5.2l-6.6-14.1a3.6 3.6 0 00-6.5-.1l-6.6 14c-.2.7-.4 1.3-.4 1.9 0 2 1.5 3.5 3.4 3.5 1.7 0 2.7-.9 3.6-3zm1.2-5l2-5.8 2.2 5.7H128zm23-11.2l3 7 3.6-7.5a3.4 3.4 0 013-1.9c1 0 1.8.4 2.5 1 .5.5.9 1.2 1 2.3l2.5 13.6.1 1.2c0 1.9-1.6 3.4-3.4 3.4-1.8 0-3.2-1.1-3.5-2.7l-.8-5-1.3 4.8c-.7 1.9-2 2.9-3.6 2.9-1.7 0-2.9-1-3.6-2.9l-1.4-4.8-.5 4.4c-.4 2-1.7 3.3-3.5 3.3-2 0-3.5-1.6-3.5-3.8v-.9l2.4-13.5c.2-1.2.5-1.8 1.2-2.4.7-.6 1.5-.9 2.3-.9 1.5 0 2.8 1 3.4 2.4zm21.4-2.2c-2.1 0-3.6 1.5-3.6 3.5v15c.1.5.5 1.1.9 1.6.7.8 1.4 1 3 1h5.5c2.8 0 3.7-.3 5.1-1.5a6.2 6.2 0 002.1-4.8c0-2-.6-3.4-2.3-5 .8-1.3 1-2 1-3.2 0-2.1-1-4-2.5-5.3-1.4-1-2.6-1.3-6.3-1.3h-3zm-63.7 41.4h-2.5V61c0 2 0 2.4-.6 3.3-.5 1-1.7 1.6-3 1.6-1.2 0-2.4-.7-3-1.8-.3-.8-.3-1.2-.3-3.1V48.6c0-1.8.3-2.8 1.5-3.5.7-.5 1.3-.6 3.4-.6h4.2c2.3 0 2.7 0 3.6.5.9.6 1.5 1.6 1.5 2.7 0 1-.5 2-1.2 2.6-.6.5-1.3.7-2.6.7h-3.5v1.5h2.2c1.2 0 1.7 0 2.2.4.7.4 1.2 1.2 1.2 2 0 1.7-1.1 2.6-3 2.6zm17-13.6a11 11 0 00-11 10.9c0 6.3 4.8 11.3 11 11.3s11.2-5 11.2-11.1c0-6.2-5-11.1-11.1-11.1zm0 7c2.4 0 4.3 1.8 4.3 4a4.2 4.2 0 11-8.4 0c0-2.2 2-4 4.2-4zm12.6 3.9c0-6 5-10.9 11.2-10.9a11.1 11.1 0 11-.1 22.2c-6.2 0-11-5-11-11.3zm15.3.2a4.2 4.2 0 00-8.3 0c0 2.2 1.9 4.1 4.2 4.1 2.3 0 4.1-1.8 4.1-4.1zM171 44.5h-4.2c-1.5 0-2.6.4-3.3 1.2-.6.9-.7 1.2-.7 3.6v11.6c0 2 0 2.5.5 3.2.8 1.2 1.8 1.5 4 1.5h3c4 0 6.3-.7 8.5-2.8a10.6 10.6 0 00-.1-15.7c-2-1.8-4.5-2.6-7.7-2.6zm-1.3 6.5h.6c1.2 0 2 .1 2.7.4A4 4 0 01175 55c0 1.4-.6 2.7-1.7 3.4-.8.6-1.4.7-3.8.7V51zm4.8-30h3.1a1.7 1.7 0 010 3.3h-3.1V21zm3.1 7.4h-3.1v3.3h3.1a1.7 1.7 0 000-3.3z" clip-rule="evenodd"/>
  <path fill="#fff" d="M193.6 34.5h6.5c1 2.1 2 2.9 3.6 2.9a3.5 3.5 0 003-5.2l-6.6-14.1a3.6 3.6 0 00-6.5-.1L187 32c-.3.7-.4 1.3-.4 1.9 0 2 1.5 3.5 3.4 3.5 1.7 0 2.7-.9 3.6-3zm1.1-5l2.1-5.8 2.1 5.7h-4.2z"/>
</svg>
