<svg width="208" height="82" viewBox="0 0 208 82" fill="none" xmlns="http://www.w3.org/2000/svg">
<path fill-rule="evenodd" clip-rule="evenodd" d="M17.2853 0C8.22775 0 0.885254 7.34252 0.885254 16.4V57.3999C0.885254 66.4574 8.22775 73.7999 17.2853 73.7999C26.3426 73.7999 33.6853 66.4574 33.6853 57.3999V55.9939L54.8582 77.167C54.9718 77.2804 55.0865 77.3919 55.2023 77.5013C58.1422 80.2896 62.1144 82.0001 66.4862 82.0001C75.5437 82.0001 82.8862 74.6576 82.8862 65.6003V24.6003C82.8862 15.5428 75.5437 8.2003 66.4862 8.2003C57.4287 8.2003 50.0862 15.5428 50.0862 24.6003V26.0088L28.9821 4.90468C26.0067 1.87742 21.8653 0 17.2853 0ZM11.5146 10.629C8.31822 13.8253 8.31822 19.0076 11.5146 22.204L60.6561 71.3455C63.8525 74.5419 69.0348 74.5419 72.2312 71.3455C75.4274 68.1493 75.4276 62.967 72.2312 59.7706L23.0895 10.629C19.8933 7.43267 14.711 7.43267 11.5146 10.629ZM24.3679 53.3331C25.0775 52.1195 25.4842 50.7072 25.4842 49.1999C25.4842 44.6712 21.8129 41 17.2842 41C12.7555 41 9.08418 44.6712 9.08418 49.1999C9.08418 50.7062 9.49042 52.1177 10.1991 53.3306L15.4623 64.5318H15.467C15.8149 65.1682 16.4905 65.5999 17.267 65.5999C18.0434 65.5999 18.719 65.1682 19.0669 64.5318H19.0762L24.3679 53.3331ZM66.5705 15.8837C65.6561 15.8837 64.8814 16.4824 64.6174 17.3093L62.3574 22.1009L56.8498 23.0968C55.9829 23.138 55.2041 23.7312 54.9674 24.6145C54.7775 25.3231 54.9832 26.0445 55.449 26.5443L55.4489 26.5451L55.4534 26.549C55.5577 26.6604 55.6751 26.7606 55.8039 26.8471L59.4898 29.9813L58.3603 35.3751C58.0725 36.1939 58.3295 37.1386 59.059 37.6899C59.6443 38.1321 60.3901 38.2128 61.0284 37.9691L61.029 37.9695L61.0343 37.9668C61.1768 37.9118 61.3137 37.8408 61.4424 37.7539L66.5404 35.0949L71.6384 37.7539C71.7669 37.8408 71.904 37.9118 72.0463 37.9668L72.0516 37.9695L72.0523 37.9691C72.6905 38.2128 73.4363 38.1321 74.0216 37.6899C74.7511 37.1386 75.0081 36.1939 74.7203 35.3749L73.5784 29.9221L77.1947 26.8471C77.3235 26.7606 77.4409 26.6604 77.5452 26.549L77.5497 26.5451L77.5496 26.5443C78.0154 26.0445 78.2211 25.3231 78.0311 24.6145C77.7945 23.7312 77.0157 23.138 76.1486 23.0968L70.817 22.1326L68.5105 17.2696C68.4603 17.1227 68.3938 16.9834 68.3133 16.8538L68.3108 16.8484H68.31C67.9478 16.2691 67.3042 15.8837 66.5705 15.8837Z" fill="#FD384C"/>
<path fill-rule="evenodd" clip-rule="evenodd" d="M111.064 24.0839L105.463 17.2905C104.636 16.3112 103.902 15.8828 102.892 15.8828C100.688 15.8828 99.2501 17.3823 99.2501 19.6467V33.0193C99.2501 34.58 99.4032 35.2226 99.9846 36.0183C100.627 36.8751 101.668 37.3647 102.739 37.3647C103.81 37.3647 104.789 36.9056 105.401 36.1101C106.014 35.345 106.197 34.6718 106.197 33.3254V28.8883L111.798 35.9571C112.563 36.9056 113.45 37.3647 114.552 37.3647C115.623 37.3647 116.633 36.9056 117.276 36.0794C117.887 35.2839 118.04 34.58 118.04 32.897V19.9834C118.04 18.6369 117.796 17.9026 117.215 17.1987C116.542 16.403 115.593 15.9135 114.552 15.9135C113.42 15.9135 112.318 16.4949 111.706 17.4435C111.216 18.1779 111.064 18.7899 111.064 20.1976V24.0839ZM126.824 34.4576H133.311C134.322 36.6303 135.24 37.3647 136.892 37.3647C138.851 37.3647 140.412 35.8346 140.412 33.9068C140.412 33.4171 140.258 32.7439 139.983 32.2237L133.342 18.0555C132.7 16.7091 131.475 15.9135 130.068 15.9135C128.629 15.9135 127.435 16.7091 126.824 17.9637L120.244 32.0402C119.968 32.6521 119.816 33.2948 119.816 33.8762C119.816 35.8346 121.315 37.3647 123.243 37.3647C124.896 37.3647 125.937 36.5078 126.824 34.4576ZM127.962 29.4084L130.037 23.7039L132.173 29.4084H127.962ZM150.941 18.2697L154.094 25.2773L157.613 17.7801C158.102 16.6785 159.387 15.9135 160.672 15.9135C161.53 15.9135 162.448 16.2807 163.091 16.8621C163.642 17.4129 163.978 18.0555 164.162 19.1877L166.579 32.8052C166.67 33.2641 166.701 33.6007 166.701 34.0291C166.701 35.8958 165.141 37.3647 163.274 37.3647C161.499 37.3647 160.092 36.2937 159.816 34.7024L159.02 29.7213L157.673 34.4882C156.97 36.3855 155.746 37.3647 154.094 37.3647C152.409 37.3647 151.246 36.4467 150.543 34.5189L149.135 29.7213L148.554 34.121C148.216 36.1406 146.9 37.3647 145.064 37.3647C143.014 37.3647 141.576 35.804 141.576 33.5702C141.576 33.2948 141.607 32.9887 141.638 32.7134L144.024 19.1877C144.239 18.0249 144.544 17.3823 145.248 16.7703C145.86 16.1889 146.656 15.9135 147.452 15.9135C148.952 15.9135 150.328 16.8315 150.941 18.2697ZM172.362 16.0664C170.281 16.0664 168.751 17.5965 168.751 19.6467L168.781 20.6872V32.6521C168.781 34.0291 168.781 34.2739 168.843 34.5189C168.934 35.1003 169.272 35.7428 169.699 36.1712C170.434 36.9974 171.108 37.2117 172.669 37.2117H178.238C180.961 37.2117 181.879 36.9362 183.318 35.651C184.696 34.427 185.43 32.7745 185.43 30.9386C185.43 28.9494 184.787 27.5112 183.135 25.9199C183.869 24.6041 184.083 23.8697 184.083 22.6763C184.083 20.5954 183.165 18.6369 181.604 17.4435C180.166 16.3419 179.003 16.0664 175.33 16.0664H172.362ZM108.707 57.5176H106.197V60.8836C106.197 62.9034 106.136 63.3316 105.646 64.158C105.065 65.1678 103.902 65.7798 102.678 65.7798C101.423 65.7798 100.229 65.076 99.6786 63.9743C99.3114 63.24 99.2501 62.7809 99.2501 60.8531V48.6433C99.2501 46.7767 99.648 45.828 100.75 45.0936C101.515 44.5734 102.127 44.4816 104.238 44.4816H108.432C110.695 44.4816 111.124 44.5428 111.951 45.0323C112.869 45.5526 113.481 46.593 113.481 47.6946C113.481 48.6433 113.022 49.6531 112.318 50.2651C111.736 50.7854 111.002 51.0302 109.717 51.0302H106.197V52.4684H108.37C109.564 52.4684 110.053 52.5602 110.604 52.8968C111.308 53.2946 111.767 54.0596 111.767 54.9777C111.767 56.6301 110.666 57.5176 108.707 57.5176ZM125.761 43.9002C119.671 43.9002 114.621 48.7963 114.652 54.7635C114.652 61.0979 119.518 66.1164 125.7 66.1164C131.912 66.1164 136.931 61.1284 136.931 54.9777C136.931 48.8269 131.943 43.9002 125.761 43.9002ZM125.761 50.8772C128.057 50.8772 129.953 52.7438 129.953 54.9777C129.953 57.2728 128.086 59.1394 125.761 59.1394C123.466 59.1394 121.599 57.2421 121.599 54.9164C121.599 52.7132 123.526 50.8772 125.761 50.8772ZM138.347 54.7635C138.316 48.7963 143.366 43.9002 149.456 43.9002C155.638 43.9002 160.627 48.8269 160.627 54.9777C160.627 61.1284 155.607 66.1164 149.395 66.1164C143.213 66.1164 138.347 61.0979 138.347 54.7635ZM153.649 54.9777C153.649 52.7438 151.752 50.8772 149.456 50.8772C147.222 50.8772 145.294 52.7132 145.294 54.9164C145.294 57.2421 147.161 59.1394 149.456 59.1394C151.781 59.1394 153.649 57.2728 153.649 54.9777ZM170.917 44.4816H166.664C165.164 44.4816 164.123 44.91 163.419 45.7362C162.776 46.5624 162.685 46.9296 162.685 49.2553V60.8836C162.685 62.9034 162.776 63.3929 163.205 64.0662C164.001 65.2596 164.95 65.6268 167.214 65.6268H170.152C174.13 65.6268 176.486 64.8618 178.72 62.8116C180.863 60.8224 182.088 57.9765 182.088 55.0389C182.088 52.04 180.801 49.1635 178.569 47.1439C176.548 45.3384 174.1 44.4816 170.917 44.4816ZM169.632 50.9995H170.213C171.437 50.9995 172.233 51.122 172.876 51.4279C174.253 52.0706 175.141 53.5394 175.141 55.0389C175.141 56.3853 174.467 57.6706 173.427 58.4049C172.631 59.017 172.049 59.1088 169.632 59.1394V50.9995ZM174.396 20.9817H177.497C178.41 20.9817 179.151 21.7222 179.151 22.6356C179.151 23.5489 178.41 24.2893 177.497 24.2893H174.396V20.9817ZM177.497 28.424H174.396V31.7315H177.497C178.41 31.7315 179.151 30.9911 179.151 30.0777C179.151 29.1644 178.41 28.424 177.497 28.424Z" fill="white"/>
<path d="M193.599 34.4573H200.086C201.097 36.6299 202.015 37.3643 203.667 37.3643C205.626 37.3643 207.187 35.8342 207.187 33.9064C207.187 33.4169 207.033 32.7437 206.758 32.2234L200.117 18.0552C199.474 16.7088 198.25 15.9131 196.842 15.9131C195.404 15.9131 194.21 16.7088 193.599 17.9634L187.019 32.0398C186.743 32.6518 186.59 33.2944 186.59 33.8758C186.59 35.8342 188.09 37.3643 190.018 37.3643C191.671 37.3643 192.711 36.5076 193.599 34.4573ZM194.737 29.4081L196.811 23.7035L198.948 29.4081H194.737Z" fill="white"/>
</svg>
