<svg xmlns="http://www.w3.org/2000/svg" width="72" height="64" viewBox="0 0 72 64">
  <g fill="none" fill-rule="evenodd">
    <path fill="#2685C1" d="M46.0605656,0 L46.0605656,8 L39.2727273,8 L39.2727273,16.000148 L39.3178929,16.000148 L39.3178929,24 L46.1058527,24 L46.1058527,16.000148 L52.8484039,16.000148 L52.8484039,8 L59.6363636,8 L59.6363636,0 L46.0605656,0 Z M11.6363636,0 L11.6363636,8 L18.4091399,8 L18.4543264,8 L18.4543264,16.000148 L25.2271026,16.000148 L25.2271026,24 L32,24 L32,16.000148 L32,8 L25.2271026,8 L25.1819161,8 L25.1819161,0 L11.6363636,0 Z M46.5454545,32 L53.0909091,32 L53.0909091,24 L46.5454545,24 L46.5454545,32 Z M32,32 L38.5454545,32 L38.5454545,24 L32,24 L32,32 Z M18.1818182,32 L24.7272727,32 L24.7272727,24 L18.1818182,24 L18.1818182,32 Z"/>
    <path fill="#4E4E4E" d="M9.62584398,42.6440664 C9.2535439,44.0650906 8.88113442,45.4860081 8.50916255,46.9070322 C8.04496354,48.679923 7.56873015,50.4499313 7.12750587,52.2282666 C7.03932666,52.5834426 6.88189503,52.6912658 6.53344492,52.6698079 C6.15217375,52.6462149 5.76368196,52.6280664 5.38667753,52.6735443 C4.88692239,52.7336478 4.69787315,52.5390322 4.58245247,52.074325 C3.84135323,49.087943 3.06983981,46.1087136 2.30751629,43.1272424 C2.26572416,42.9634793 2.26112921,42.7829555 2.07514328,42.5853508 L2.07514328,43.5524501 C2.07514328,48.4791156 2.0696731,53.4057812 2.08477078,58.33234 C2.08608363,58.7610706 1.99637276,58.9529105 1.52254625,58.900707 C1.18055093,58.8630222 0.828599906,58.8699613 0.484963542,58.8995327 C0.0910015727,58.9334809 -0.00330423612,58.7765502 8.72720899e-05,58.4137945 C0.0164977957,56.6353525 0.00752670944,54.856697 0.00752670944,53.0781482 C0.00752670944,49.0585852 0.00741730595,45.0390222 0.00752670944,41.0194593 C0.00752670944,40.3177545 0.00785491991,40.3177545 0.751689252,40.3176478 C1.57188722,40.3176478 2.39350743,40.3454042 3.21173614,40.3067587 C3.66401017,40.2853008 3.8343514,40.422375 3.93051707,40.8597528 C4.53409613,43.603586 5.17071504,46.3405869 5.79836286,49.0794025 C5.8338096,49.2344117 5.88577625,49.3857912 5.93489842,49.5552124 C6.17350743,49.3847236 6.13291874,49.1254142 6.18225971,48.9162799 C6.81953504,46.215576 7.45166841,43.513591 8.05699793,40.805948 C8.14594296,40.4080698 8.30818834,40.2957628 8.70729227,40.3088938 C9.58120736,40.3375043 10.4575293,40.3368638 11.3314444,40.3094276 C11.7395194,40.2966169 11.8565812,40.4183183 11.8546119,40.8197195 C11.8387484,44.1633058 11.8455314,47.5069989 11.8455314,50.8507987 C11.8455314,53.3584885 11.834591,55.866285 11.8559247,58.3739747 C11.859535,58.8058012 11.7226713,58.9377512 11.300702,58.8996394 C10.9572845,58.8686803 10.6060993,58.8677195 10.2629005,58.8998529 C9.83764914,58.9398863 9.70877183,58.801958 9.71260095,58.3741882 C9.73415344,55.9732541 9.72299428,53.5721065 9.72299428,51.1710656 C9.72310368,48.5210706 9.72321309,45.8709689 9.72332249,43.2208671 L9.72332249,42.6582649 L9.62584398,42.6440664 Z M45.4269547,46.0802633 C46.7113517,45.4494442 48.0944306,45.577978 49.4453449,45.677581 C51.7639331,45.8482833 52.9372855,47.1102416 52.9890334,49.5429889 C53.0524874,52.5295844 53.0027088,55.5184217 53.0139773,58.5061915 C53.0150714,58.8158896 52.9028234,58.9088738 52.601198,58.8976644 C52.1280279,58.879943 51.6512475,58.8644634 51.1804843,58.9019347 C50.7488875,58.9362032 50.6703358,58.7647537 50.6721956,58.3835293 C50.6868557,55.4490306 50.6790881,52.5144251 50.6814949,49.5799263 C50.6826984,48.2292541 50.1178481,47.6486102 48.7505233,47.6277929 C48.1495699,47.6186119 47.5466473,47.6118863 46.9471162,47.6456211 C45.8790099,47.7057245 45.3636101,48.2490039 45.3626254,49.2836794 C45.3599997,52.271556 45.3429328,55.2596461 45.3776137,58.2472024 C45.3840685,58.8161031 45.2036622,58.955953 44.6744775,58.9010806 C44.2959414,58.8617945 43.907559,58.8688404 43.5276007,58.9002266 C43.1373584,58.9324668 43.0397705,58.7914426 43.0423962,58.4219613 C43.0588067,56.1456111 43.0506015,53.8690473 43.0506015,51.5925902 C43.0506015,48.0177712 43.0588067,44.4429522 43.0403175,40.8682399 C43.0380201,40.423496 43.1595673,40.2681665 43.6172021,40.3096945 C44.032826,40.347486 44.4564363,40.3392658 44.8735918,40.3114025 C45.2514715,40.286315 45.374988,40.4053475 45.3699555,40.7861448 C45.3492782,42.3686903 45.3595621,43.9517695 45.3639383,45.5346352 C45.3644853,45.7067253 45.3156913,45.8872491 45.4269547,46.0802633 Z M21.488005,56.5071283 C21.7936783,55.3663377 22.1000081,54.2256538 22.4046968,53.0845428 C23.0243582,50.7639957 23.6511308,48.4450499 24.2540534,46.1203393 C24.3505473,45.7486162 24.4995548,45.587095 24.9094897,45.6230716 C25.343384,45.6611834 25.7853741,45.6561659 26.2204717,45.6248865 C26.6702295,45.5925395 26.7389349,45.7384744 26.6199039,46.1422242 C25.9861295,48.2933502 25.3737981,50.4504544 24.7580753,52.6064911 C23.9957518,55.2759156 23.2378044,57.9465145 22.4771219,60.616366 C22.3596226,61.0285495 22.1846864,61.4176738 21.997497,61.8046629 C21.4715944,62.8917555 20.5847697,63.3865679 19.3734543,63.3772801 C18.8996278,63.3736504 18.4253636,63.365537 17.9520841,63.3812301 C17.6806541,63.3901975 17.5530896,63.3206996 17.5670933,63.0278689 C17.5901774,62.5488564 17.4193986,61.9852935 17.6240925,61.6099407 C17.8674058,61.1637021 18.5080727,61.4709448 18.969646,61.4095603 C19.5931365,61.3268247 19.9752829,61.0250266 20.1472652,60.4577272 C20.2711099,60.0493869 20.3577575,59.630371 20.4731782,59.2192551 C20.5228474,59.042361 20.5557778,58.8793452 20.2950693,58.8992017 C19.9480414,58.9256771 19.9363353,58.6704244 19.864676,58.4585145 C18.4829099,54.3761792 17.1008156,50.2938439 15.7208,46.2108681 C15.52639,45.6357755 15.5233267,45.6268081 15.5233267,45.6268081 C15.5233267,45.6268081 17.01931,45.6231784 17.4626129,45.6268081 C17.9424566,45.6195487 18.0816179,45.773597 18.2032746,46.1783076 C19.1864837,49.4513285 20.1933241,52.717517 21.1945848,55.9854136 C21.2488489,56.1628414 21.3168979,56.3363193 21.3784921,56.5116121 C21.4150328,56.5101175 21.4515736,56.5086229 21.488005,56.5071283 Z M32.5716179,52.0644608 C32.5716179,50.7482706 32.5543321,49.4316534 32.5819018,48.115997 C32.5905447,47.7033865 32.4543373,47.5940688 32.0533735,47.6162739 C31.490055,47.6473398 30.9235637,47.6153131 30.3586041,47.6272698 C30.0837825,47.6330346 29.9587343,47.546776 29.9703311,47.2607777 C29.9875074,46.8346092 29.9883827,46.4066259 29.9703311,45.9804574 C29.9576403,45.6846376 30.1005212,45.621545 30.3665905,45.626776 C30.9678721,45.6386259 31.5699195,45.6172748 32.1708729,45.63553 C32.4789531,45.6448177 32.5848557,45.5454282 32.5778539,45.2401071 C32.5596929,44.4401872 32.582777,43.6393065 32.5659289,42.839173 C32.5598023,42.544314 32.6417455,42.4234666 32.9630636,42.4386259 C33.4540664,42.4617919 33.9485702,42.4673432 34.4386978,42.4374516 C34.8209536,42.4141789 34.8929411,42.572711 34.8835324,42.9035467 C34.8623082,43.6500888 34.9026781,44.3986593 34.8669031,45.1440271 C34.8468823,45.5618686 35.0017976,45.6488744 35.3961972,45.6389462 C36.3981144,45.6134316 37.4013444,45.6408678 38.4035897,45.6247477 C38.7285181,45.6195166 38.8691016,45.7069495 38.8475491,46.0437635 C38.8227145,46.4335283 38.8216205,46.8272431 38.8477679,47.2169011 C38.8709615,47.5626826 38.7130922,47.6336751 38.3969161,47.6292981 C37.3764004,47.6149929 36.3552282,47.6375183 35.3349312,47.6170212 C34.9798075,47.6098686 34.8679971,47.7122473 34.8697476,48.0646476 C34.8827666,50.6614783 34.8729203,53.2584157 34.8772964,55.8552464 C34.8783905,56.5218286 35.1723577,56.8501021 35.8613808,56.8829829 C36.6980987,56.9229095 37.5377705,56.9204541 38.3755825,56.9064691 C38.7239232,56.9007043 38.8727119,56.9919804 38.8479867,57.3531347 C38.8200888,57.7604074 38.8331079,58.1710963 38.8447046,58.5798636 C38.8511594,58.8091747 38.7594793,58.8975684 38.5262311,58.8943657 C37.3055069,58.8772848 36.0800784,58.9268194 34.8649338,58.8394933 C33.5439961,58.7444808 32.613957,57.5541555 32.5808078,56.0129245 C32.5525817,54.6973749 32.5750094,53.3806509 32.5750094,52.0644608 L32.5716179,52.0644608 Z M68.6088625,40.178121 C68.67459,40.0676756 68.7936176,40 68.922141,40 L70.5237155,40 C70.5894752,40 70.6540104,40.0177871 70.7104846,40.051477 C70.8833939,40.1546267 70.9399452,40.3784167 70.8367955,40.5513261 L65.7983936,48.9971716 C65.729265,49.1130515 65.7297964,49.2576376 65.799775,49.3730062 L71.2482261,58.3554684 C71.2828021,58.4124713 71.3010845,58.4778644 71.3010845,58.5445339 C71.3010845,58.7458732 71.1378668,58.9090909 70.9365275,58.9090909 L69.064332,58.9090909 C68.9342956,58.9090909 68.8141042,58.8398259 68.7489069,58.7273147 L64.6631656,51.6765432 C64.6318704,51.622537 64.5872327,51.5774706 64.5335281,51.5456605 C64.3602965,51.4430529 64.1366847,51.5003049 64.0340771,51.6735365 L59.8542386,58.7303215 C59.7886027,58.841134 59.6693676,58.9090909 59.5405751,58.9090909 L57.9383371,58.9090909 C57.8727878,58.9090909 57.8084511,58.8914174 57.7521006,58.857931 C57.5790162,58.7550754 57.5220845,58.5313818 57.6249401,58.3582974 L62.9645967,49.3727757 C63.0331353,49.2574396 63.0327853,49.1137784 62.9636854,48.9987776 L57.8885087,40.5523186 C57.8544375,40.495615 57.8364375,40.4307093 57.8364375,40.364557 C57.8364375,40.1632177 57.9996552,40 58.2009945,40 L59.9940071,40 C60.1254428,40 60.2467028,40.0707509 60.3113768,40.1851739 L64.0419427,46.7853987 C64.0731833,46.8406704 64.1183171,46.8868252 64.1728764,46.9192941 C64.3458953,47.0222598 64.5696251,46.9654705 64.6725909,46.7924516 L68.6088625,40.178121 Z"/>
  </g>
</svg>
