<svg xmlns="http://www.w3.org/2000/svg" width="140" height="46" viewBox="0 0 140 46">
    <defs>
        <linearGradient id="a" x1="0%" y1="50%" y2="50%">
            <stop offset="0%" stop-color="#54C5BB"/>
            <stop offset="14.008%" stop-color="#54C5BB"/>
            <stop offset="31.122%" stop-color="#54C5BB"/>
            <stop offset="100%" stop-color="#54C5BB"/>
        </linearGradient>
    </defs>
    <g fill="none" fill-rule="nonzero">
        <path fill="#5A4093" d="M24.067 0c1.694.186 3.395.325 5.08.578.947.142 1.784.628 2.452 1.355.615.672.775 1.708.393 2.373-.308.535-.764.711-1.354.661-.57-.049-.77-.427-.97-.902-.11-.259-.414-.56-.672-.607-1.15-.209-2.315-.458-3.477-.466-5.09-.03-10.11.54-14.958 2.208-2.076.715-4.047 1.674-5.693 3.18-1.37 1.255-2.334 2.758-1.924 4.733.136.653.639 1.225.958 1.842.213.41.572.839.562 1.252-.024 1.08-1.124 1.524-2.111.945-1.453-.85-2.059-2.21-2.274-3.81-.445-3.307 1.022-5.725 3.492-7.661 2.792-2.186 6.043-3.359 9.4-4.243C16.599.483 20.307.136 24.067 0"/>
        <path fill="#5A4093" d="M6.683 30.233c.188-.682.395-1.664.727-2.6 1.974-5.554 4.186-11.005 7.107-16.127 1.205-2.113 2.439-4.222 4.151-5.972.334-.342.8-.575 1.24-.78.471-.221 1.012-.137 1.28.3.225.365.305.879.289 1.32-.01.29-.26.615-.48.848-2.246 2.384-3.84 5.205-5.309 8.109-2.472 4.885-4.532 9.942-6.06 15.214-.047.16-.09.322-.146.478-.32.888-.861 1.28-1.59 1.161-.732-.12-1.198-.758-1.209-1.951M44.512 17.773c-.091.38-.232.764-.432 1.096-1.574 2.603-3.27 5.12-5.383 7.313-.34.353-.753.662-1.186.886-1.13.587-1.9.062-1.864-1.357.16-2.073 1.083-3.96 2.345-5.702 1.137-1.567 2.544-2.785 4.415-3.364.33-.103.678-.19 1.021-.207.914-.046 1.301.429 1.084 1.335zm-20.176 2.451c.877-1.408 1.971-2.612 3.381-3.487a4.332 4.332 0 0 1 1.181-.502c.22-.057.6-.006.706.143.115.162.089.563-.038.74-.478.671-.945 1.386-1.56 1.912-.822.702-1.759 1.274-2.685 1.837-.32.195-.756.197-1.139.286a21.742 21.742 0 0 0-.129-.163c.092-.256.142-.54.283-.766zm47.11-9.167c.764-1.672 1.607-3.296 2.61-4.817.4-.608.827-1.2 1.285-1.772.229-.286.465-.567.71-.843.033-.037.066-.079.1-.122.236-.303.494-.7.911-.438.042.026.068.095.083.186.041.258-.017.705-.141.935-.576 1.063-1.156 2.128-1.792 3.155-.212.342-.43.68-.657 1.011-.183.27-.378.53-.58.786-.606.768-1.28 1.489-1.917 2.232-.085.1-.19.183-.299.262-.109.078-.223.153-.33.234l-.15-.12c.053-.23.07-.478.167-.69zm13.486 9.637a.934.934 0 0 1 .097-.276c.24-.41.5-.801.779-1.173a10.219 10.219 0 0 1 1.931-1.967c.367-.282.757-.54 1.172-.772.066-.037.14-.062.211-.092.212-.092.435-.166.659-.2.15-.023.371-.01.506.053.045.02.08.046.1.078.108.173.111.498.023.695-.159.353-.395.68-.643.982-.123.149-.249.295-.377.438-.385.43-.794.828-1.235 1.186-.587.477-1.23.88-1.947 1.183-.095.04-.193.075-.292.106-.296.091-.607.15-.907.232-.075.011-.152-.008-.138-.176.026-.156.04-.198.061-.297zm24.173 4.068c.186-1.565.666-2.403.6-4.03-.013-.334 1.513-1.785 1.503-2.111-.081.24-1.325.901-1.436 1.129-1.016 2.084-3.62 4.647-5.413 6.145a7.678 7.678 0 0 1-1.663 1.053c-.261.121-.78.089-.944-.094-.196-.22-.231-.691-.167-1.02.085-.44.28-.88.52-1.26.853-1.354 1.758-2.674 2.619-4.023 1.046-1.638.837-2.97-.684-4.147-.668-.517-1.406-.943-2.123-1.392-.495-.31-.726-.688-.557-1.304.143-.517.256-1.058.277-1.592.053-1.317-.796-1.91-2.024-1.461-1.355.495-2.201 2.111-1.818 3.547.2.746.258 1.44-.095 2.173-1.4 2.907-3.02 5.64-5.407 7.86-1.25 1.166-2.606 2.107-4.209 2.66-1.159.402-2.35.673-3.572.324-.86-.245-1.332-.96-1.326-1.89.005-.757.33-1.097 1.328-1.389.158-.047.316-.093.476-.13 1.795-.407 3.406-1.197 4.864-2.339 1.432-1.12 2.634-2.4 3.162-4.208.597-2.044-.693-3.763-2.791-3.752-1.114.007-2.095.408-3.017.98-2.45 1.523-4.05 3.792-5.446 6.276a15.152 15.152 0 0 1-2.3 3.067c-.702.727-1.614 1.28-2.507 1.773-.636.352-1.194-.093-1.067-.82.112-.644.365-1.277.637-1.878.567-1.248 1.206-2.464 1.779-3.71.43-.936.659-1.927.568-2.976-.131-1.522-1.228-2.506-2.727-2.46-1.296.04-2.383.597-3.377 1.373-1.617 1.261-2.91 2.833-4.122 4.48-.146.199-.323.535-.557.505-.206-.133-.13-.36-.099-.474.522-1.93 1.367-3.571 3.044-4.835 3.03-2.282 5.622-5.029 7.472-8.419.627-1.148 1.049-2.355 1.004-3.693C79.451.928 78.025-.065 76.383.53c-1.043.376-1.85 1.092-2.539 1.932-2.217 2.705-3.85 5.758-5.14 9.007-.523 1.317-.995 2.652-2.158 3.581-.37.295-.481.736-.382 1.248.064.333.024.708-.053 1.046-.366 1.61-1.283 2.913-2.3 4.161-1.424 1.746-2.889 3.44-4.848 4.606-1.33.793-2.713 1.414-4.298 1.354-1.424-.054-2.274-.881-2.265-2.266.004-.618.12-1.25.284-1.847.516-1.885 1.52-3.505 2.785-4.964.923-1.065 1.978-1.968 3.342-2.378.322-.096.827-.032 1.053.175.15.139.055.72-.104 1.002-.294.52-.715.966-1.086 1.44-.507.647-.536 1.338-.073 1.812a1.302 1.302 0 0 0 1.893-.057c.627-.704 1.273-1.455 1.658-2.303 1.05-2.315-.21-4.42-2.712-4.683-1.345-.141-2.482.45-3.566 1.153-2.468 1.603-4.003 3.965-5.266 6.574a16.588 16.588 0 0 1-1.823 2.951c-.482.619-1.162 1.126-1.843 1.526-.844.496-1.466.118-1.5-.878a10.41 10.41 0 0 1 .193-2.297c.376-1.962 1.246-3.741 2.09-5.528.228-.484.439-1 .526-1.524.197-1.18-.478-1.71-1.618-1.403a4.04 4.04 0 0 1-1.446.101c-1.236-.131-2.462-.234-3.667.188-2.574.9-4.556 2.59-6.012 4.873-1.17 1.834-2.422 3.57-3.992 5.08-1.232 1.186-2.598 2.115-4.2 2.672-1.18.411-2.39.69-3.632.328-.845-.247-1.315-.99-1.295-1.916.015-.726.343-1.066 1.299-1.348a7.5 7.5 0 0 1 .476-.129c1.817-.411 3.448-1.207 4.92-2.366 1.41-1.11 2.595-2.377 3.126-4.16.511-1.72-.308-3.4-1.958-3.674-.814-.135-1.748-.021-2.535.253-1.989.694-3.476 2.13-4.74 3.786-1.576 2.064-2.88 4.277-3.226 6.93-.402 3.08 1.559 5.335 4.63 5.403 2.809.063 5.214-1.017 7.445-2.618.429-.307.836-.646 1.31-1.015.014.28.018.464.032.648.102 1.397.83 2.442 1.996 2.814.937.3 1.882.253 2.779-.137 1.547-.676 2.763-1.786 3.841-3.08.819-.983.883-.958 1.517.12.969 1.649 2.331 2.21 4.087 1.497.918-.372 1.73-1.011 2.596-1.535.003.006.052.093.086.184.817 2.222 2.518 3.126 4.734 3.262 2.243.137 4.117-.847 5.904-2.048.734-.492 1.412-1.072 2.186-1.666-.108.366-.204.657-.28.952-.08.323-.173.648-.204.977-.054.573-.071 1.157.595 1.425.553.223.997.036 1.45-.63.433-.635.84-1.288 1.263-1.93 2.18-3.306 4.46-6.533 7.36-9.248.512-.479 1.09-.893 1.667-1.28 1.317-.886 1.395.382 1.187 1.076-.012.036-.033.075-.052.113-.554 1.164-1.11 2.327-1.664 3.492-.614 1.294-1.035 2.64-.931 4.097.126 1.763 1.693 3.111 3.323 2.854.483-.076.983-.195 1.415-.415.874-.444 1.708-.971 2.448-1.4.434.708.782 1.565 1.374 2.181 1.33 1.386 3.086 1.477 4.844 1.23 3.283-.461 5.935-2.163 8.186-4.54 1.915-2.022 3.279-4.429 4.48-6.937.798-1.67 1.016-1.719 2.57-.7.843.552.921 1.03.36 1.86-.744 1.102-1.516 2.19-2.174 3.342a11.56 11.56 0 0 0-1.094 2.572c-.69 2.458.847 4.312 3.347 4.1 1.101-.092 2.077-.58 2.903-1.276 1.103-.926 2.119-1.96 3.155-2.93.641-.64.68-.65.683-.64z"/>
        <path fill="url(#a)" d="M126.259 12.328c-1.636-3.173-3.473-6.203-6.148-8.612-.802-.723-1.716-1.216-2.824-1.234-1.08-.016-1.753.733-1.429 1.778.24.772.67 1.511 1.135 2.178 1.127 1.613 2.752 2.68 4.31 3.804 1.339.966 2.705 1.895 4.076 2.815.305.205.872.432 1.021.452.15.019.18-.07.171-.193-.102-.33-.157-.686-.312-.988zm-14.464 16.058c1.486 4.467 3.342 8.748 6.228 12.496.456.59.945 1.157 1.456 1.699.128.135.425.21.603.16.134-.037.383-.255.358-.597-.306-.949-.56-1.958-.95-2.91-1.517-3.693-3.703-6.97-6.203-10.042-.302-.37-.562-.778-.885-1.126-.146-.156-.636-.56-1.092-1.127-.003.21.424 1.26.485 1.447zm25.395-2.16c-.05-.09-.094-.185-.145-.275-1.23-2.149-2.732-4.076-4.585-5.71-.253-.222-.566-.374-.994-.65-.02.426-.078.691-.035.939.087.511.23 1.014.349 1.52.502 2.128 1.019 4.252 1.497 6.384.164.735-.176 1.415-.717 1.64-.585.241-1.274-.03-1.687-.697a8.836 8.836 0 0 1-.582-1.1c-1.32-3.004-3.084-5.714-5.345-8.067-.65-.676-1.47-1.21-2.276-1.701-.73-.443-1.373-.092-1.474.763-.065.55-.07 1.14.059 1.673.72 2.996 1.787 5.848 3.565 8.39.28.4.513.86.655 1.327.158.518-.058.992-.49 1.318-.404.306-.87.3-1.258.007-.392-.293-.805-.621-1.056-1.03-.846-1.38-1.704-2.763-2.408-4.219-1.134-2.344-2.484-4.522-4.27-6.404-.76-.8-1.58-1.534-2.691-1.818-.875-.224-1.632.012-2.076.705-.853 1.326-1.303 3.735.343 5.687.965 1.144 2.103 1.048 3.093 2.168 3.12 3.527 5.603 7.468 7.347 11.869.545 1.374.987 2.791.936 4.309-.057 1.651-1.365 2.79-2.97 2.57-1.266-.173-2.192-.957-2.967-1.885-3.655-4.377-5.912-9.493-7.554-14.92-.305-1.009-.528-2.194-.91-3.739-.33-2.081-.184-3.506-.065-5.619.488-2 1.847-3.439 3.534-3.676 1.43-.201 2.762.157 3.924.989.934.668 1.777 1.465 2.654 2.2.04-.182.078-.427.149-.662.39-1.311 1.068-2.374 2.5-2.65 1.073-.207 2.082.079 3.02.63 1.435.843 2.533 2.058 3.588 3.323.15.18.355.313.603.527.22-1.68-.459-3.133-1.707-3.879-1.577-.944-3.16-1.876-4.728-2.836-2.423-1.485-4.735-3.115-6.695-5.217-.92-.988-1.65-2.077-1.988-3.408-.473-1.854.135-3.502 1.692-4.35.568-.31 1.23-.44 1.85-.652h1.114c3.033.76 5.12 2.761 6.83 5.291 1.973 2.918 3.67 5.967 4.71 9.371.136.445.534.921.938 1.153 3.738 2.145 6.59 5.156 8.688 8.93.18.322.31.592.503.987.193.396 0 .628 0 .628-.847 1.254-1.726 1.206-2.468-.134z" transform="matrix(1 0 0 -1 0 45.851)"/>
    </g>
</svg>
