<?xml version="1.0" encoding="utf-8"?>
<!-- Generator: Adobe Illustrator 19.1.0, SVG Export Plug-In . SVG Version: 6.00 Build 0)  -->
<svg version="1.1" id="Layer_1" xmlns="http://www.w3.org/2000/svg" xmlns:xlink="http://www.w3.org/1999/xlink" x="0px" y="0px"
	 viewBox="0 0 653 693.1" style="enable-background:new 0 0 653 693.1;" xml:space="preserve">
<style type="text/css">
	.st0{fill-rule:evenodd;clip-rule:evenodd;fill:#ED1C24;}
	.st1{fill-rule:evenodd;clip-rule:evenodd;fill:#FFFFFF;}
</style>
<path class="st0" d="M607.1,3.4L327,131.5L46.8,3.4C27.1-7.2,0,8.1,0,35.5v534.3c0,20.5,12.3,37.2,28.9,37.7
	c0.8,0.1,1.6,0.1,2.3-0.1h0.4c0.4-0.1,0.8-0.1,1.3-0.1l183.6-19.1l-34.7-49.4c-15.2-21.2,3.2-39.6,22.7-32.5c3.9,1.4,8.2-0.5,12,0.5
	l-46-155.4c-0.2-0.5-0.3-1.1-0.5-1.6l-0.3-1.2c0-0.1,0-0.2,0-0.3c-0.3-1.7-0.5-3.4-0.5-5.1c0-14.7,11.9-26.6,26.6-26.6
	c10.4,0,19.3,5.9,23.7,14.6c0,0,0.1,0.1,0.1,0.2c0.4,0.9,52.9,130.2,52.9,130.2c2.4-13,13.9-23,27.6-23c14.2,0,26,10.7,27.8,24.4
	c1.8-13.7,13.6-24.4,27.8-24.4c13.7,0,24.3,12.1,26.7,25.2l31.1-87.8l0,0c3.7-10.2,13.5-17.6,25-17.6c14.7,0,26.8,11.9,26.8,26.6
	c0,0,0,0.6,0,0.8l-27.6,202.3L621,607.3c0.4,0.1,0.8,0.1,1.3,0.1h0.4c0.7,0.1,1.5,0.1,2.3,0.1c16.6-0.5,28-17.1,28-37.6V35.4
	C653,8,626.8-7.2,607.1,3.4z"/>
</svg>
