<?xml version="1.0" encoding="utf-8"?>
<!-- Generator: Adobe Illustrator 19.1.0, SVG Export Plug-In . SVG Version: 6.00 Build 0)  -->
<svg version="1.1" id="Layer_1" xmlns="http://www.w3.org/2000/svg" xmlns:xlink="http://www.w3.org/1999/xlink" x="0px" y="0px"
	 viewBox="0 0 654.1 446.8" style="enable-background:new 0 0 654.1 446.8;" xml:space="preserve">
<style type="text/css">
	.st0{fill-rule:evenodd;clip-rule:evenodd;fill:#ED1C24;}
	.st1{fill-rule:evenodd;clip-rule:evenodd;fill:#FFFFFF;}
</style>
<path class="st1" d="M526.7,0h-56.8C462.2,0,456,6.2,456,13.8v202.7c0,7.6,6.2,13.8,13.8,13.8h56.8c84.7,0,127.4-46.2,127.4-114.7
	C654.1,47.1,611.4,0,526.7,0z M544.7,160.2h-15c-5.1,0-9.2-4.1-9.2-9.2V78.3c0-5.1,4.1-9.2,9.2-9.2h13.8c19.4,0,32.2,16.3,32.2,46.5
	C575.8,145.9,564.1,160.2,544.7,160.2z"/>
<path class="st1" d="M13.8,230.3h41.5c7.6,0,13.8-6.2,13.8-13.8V152l20.8,42.9c2.3,4.8,7.1,7.8,12.4,7.8h0.6c5.1,0,9.8-2.8,12.2-7.3
	l23.1-43.4v64.5c0,7.6,6.2,13.8,13.8,13.8h41.5c7.6,0,13.8-6.2,13.8-13.8v-18.4V82.9V13.8c0-7.6-6.2-13.8-13.8-13.8h-44.8
	c-5.1,0-9.8,2.8-12.2,7.4l-35.1,66.3L66.2,7.4C63.8,2.8,59.1,0,54,0H13.8C6.2,0,0,6.2,0,13.8v69.1v115.2v18.4
	C0,224.1,6.2,230.3,13.8,230.3z"/>
<path class="st1" d="M368.6,208.1l3.5,12.2c1.7,5.9,7.1,10,13.3,10h38.3c9.3,0,15.9-8.9,13.2-17.8C423.1,166.7,386.6,45.7,376,10.4
	c-1.8-5.8-7.1-9.8-13.2-9.8l-62.4,0c-6.1,0-11.5,4-13.2,9.8l-60.8,202.1c-2.7,8.9,4,17.8,13.2,17.8h40.1c6.2,0,11.6-4.1,13.3-10
	l3.5-12.2c1.7-5.9,7.1-10,13.3-10h45.5C361.5,198.1,366.9,202.2,368.6,208.1z M313.2,144.7l18.4-64.5l18.4,64.5H313.2z"/>
<path class="st1" d="M69.1,271.8H13.8C6.2,271.8,0,278,0,285.6V433c0,7.6,6.2,13.8,13.8,13.8h59.9c63.4,0,92.1-36.3,92.1-87.5
	C165.8,308,132.5,271.8,69.1,271.8z M73.7,391.5h-9.2c-2.5,0-4.6-2.1-4.6-4.6v-55.3c0-2.5,2.1-4.6,4.6-4.6h9.2
	c17.9,0,27.6,9.6,27.6,32.2C101.3,381.9,91.6,391.5,73.7,391.5z"/>
<path class="st1" d="M625.7,349.3c-6-4-18.7-8.5-38.2-13.4c-4.3-1.1-7.5-1.9-9.7-2.4c-0.7-0.1-1.7-0.4-3-0.8
	c-14.7-3.7-22-8.3-22-13.9c0-3.9,1.4-6.7,4.2-8.6c2.8-1.9,7.1-2.8,12.8-2.8c6.5,0,11.5,1.2,15.1,3.6c3.5,2.4,9.8,6.5,10.6,11.4h35.2
	c5.9,0,10.4-5.5,9-11.3c-2.9-11.6-8.7-21.1-18.2-28c-12.4-9.1-29.4-16-50.9-16c-21.9,0-39,7.1-51.5,16.6
	c-12.5,9.5-20.4,20.7-20.4,37.3c0,8.3,3.2,17.4,6.4,23.8c3.2,6.4,8,12,14.5,16.6c3.3,2.3,8.7,4.7,16,7.3c7.3,2.6,17.1,5.5,29.5,8.7
	c1.6,0.4,3.9,1,6.9,1.7c15.1,3.8,22.6,8.7,22.6,14.8c0,3.8-1.8,6.8-5.4,8.9c-3.6,2.2-8.5,3.2-14.8,3.2c-7.5,0-13.1-1.3-16.9-4
	c-3.8-2.7-6.7-9.2-8.1-15.2l-40,0c-5.8,0-10.2,5.4-9,11.1c2.8,13.5,8.7,25.2,18.9,33c13,9.9,29.1,15.8,51.3,15.8
	c24.1,0,44.1-5.8,57-15.8c12.9-9.9,18.6-25.6,18.6-44.1c0-8.6-0.9-14.5-4.3-20.8C638.5,359.9,633.1,354.3,625.7,349.3z"/>
<path class="st1" d="M475.9,271.8h-39.2c-6.7,0-12.4,4.8-13.6,11.3l-16.4,90l-16.4-90c-1.2-6.6-6.9-11.3-13.6-11.3h-39.2
	c-9.2,0-15.8,8.8-13.3,17.7L367,436.8c1.7,5.9,7.1,10,13.3,10h52.9c6.2,0,11.6-4.1,13.3-10l42.7-147.4
	C491.7,280.6,485.1,271.8,475.9,271.8z"/>
<path class="st1" d="M294.8,271.8H193.5c-7.6,0-13.8,6.2-13.8,13.8l0,147.4c0,7.6,6.2,13.8,13.8,13.8h101.3
	c7.6,0,13.8-6.2,13.8-13.8v-23c0-5.1-4.1-9.2-9.2-9.2h-59.9c-2.5,0-4.6-2.1-4.6-4.6v-9.2c0-2.5,2.1-4.6,4.6-4.6h46.1
	c5.1,0,9.2-4.1,9.2-9.2v-27.6c0-5.1-4.1-9.2-9.2-9.2h-46.1c-2.5,0-4.6-2.1-4.6-4.6v-9.2c0-2.5,2.1-4.6,4.6-4.6h59.9
	c5.1,0,9.2-4.1,9.2-9.2l0-23C308.6,278,302.4,271.8,294.8,271.8z"/>
</svg>
