<svg xmlns="http://www.w3.org/2000/svg" id="bit" viewBox="0 0 374 161.72">
    <path class="bit-1"
          d="M63.07,29.89c13.33,0,26.66,0,40,0A33,33,0,0,1,121,34.71c9.83,6.31,14.65,20.06,9.9,30.9C128.55,71.35,123.28,75,118,77.69c4.56,2.24,9.42,4.34,12.8,8.29,10.77,11.81,8.16,32.57-4.66,41.88-5.77,4.23-13,6-20.11,5.88-14.33,0-28.65,0-43,0,0-34.61-.11-69.22,0-103.83m25.18,20.7c0,6.08,0,12.16,0,18.24,4.4.27,8.94.62,13.23-.63,7.26-1.87,8.08-14.3.93-16.85-4.56-1.51-9.46-1.09-14.17-.76m0,39.1c0,7.9,0,15.81,0,23.71,4.43-.09,8.88.2,13.29-.24,3.65-.45,7.56-2.09,9.3-5.53,2.64-5.28,1.61-12.89-3.86-16C101.33,88.5,94.5,89.45,88.26,89.69ZM148.32,30c8.46-.14,16.94-.11,25.41,0q-.09,51.82,0,103.65c-8.48.2-17,.25-25.44,0Q148.54,81.79,148.32,30Zm42.39-.2c22.37,0,44.75-.12,67.12,0,0,6.7,0,13.41,0,20.11-6.89.44-13.79.17-20.69.13-.13,2.21-.24,4.43-.26,6.66q0,38.51,0,77c-8.37.19-16.74.15-25.11,0-.31-27.89-.09-55.78-.11-83.67-7,0-14,.21-20.94-.09C190.47,43.28,190.45,36.53,190.71,29.79Zm106.22-.08,8,.07c-2,5.92-4.17,11.77-6.25,17.66l-6.43.26C293.78,41.7,295.14,35.65,296.93,29.71Zm17.5.28c2.17-.13,4.33-.22,6.5-.3q0,52,0,104.05h-6.11c-.18-30.28-.25-60.57,0-90.85l-2.1,2.57-5.89.09C309,40.2,312,35.24,314.43,30ZM329,29.82c15-.19,30,0,45-.09v2.53a89.94,89.94,0,0,1-6.59,17.87c-5.14,9.87-12.27,18.49-18.1,27.93a74.76,74.76,0,0,0-8.62,55.79l-6.61-.14a79.37,79.37,0,0,1-2-23C333,96.44,338.83,83,346.36,71.13,353.1,59.76,362.47,49.7,366,36.68c-12.3-.52-24.61-.09-36.92-.2Q329,33.15,329,29.82Z"/>
    <path class="bit-2"
                  d="M29.1,19.88A84.29,84.29,0,0,1,84,0a85.69,85.69,0,0,1,49.12,16,94.89,94.89,0,0,1-8.16,11c-8.21-5.73-16.94-11-26.76-13.37A74.17,74.17,0,0,0,44,19.8,75.89,75.89,0,0,0,9.85,57.59a77.59,77.59,0,0,0-.64,57,82.19,82.19,0,0,0,19.56,29.31C11.53,130.3,1.65,108.84,0,87.16V77.34C1.65,55.33,12.14,34.09,29.1,19.88Zm4.22,12.18C39.79,26.14,47,20.39,55.43,17.72c1.59,4.06,3.26,8.09,4.85,12.15-4.33,2.41-9,4.27-13,7.12A65.72,65.72,0,0,0,19.69,78.63c-3.3,15.1-.55,31.21,6.62,44.8C39,147.94,67.5,162.85,94.86,159.59c3.74-.43,7.43-1.24,11.17-1.66-13.26,4.83-28,4.78-41.6,1.32a73.88,73.88,0,0,1-42.74-31.18,75.09,75.09,0,0,1-12-41.31A77,77,0,0,1,33.32,32.06ZM22.87,85.47c4.48.26,8.92.83,13.35,1.44.09,5.54-.57,11.11.29,16.62a54,54,0,0,0,25.16,37.53,54.9,54.9,0,0,0,37.61,7.18,57,57,0,0,0,40.09-28.13c2.35-3.89,3.73-8.25,5.64-12.35-4.74,25.9-28.94,46-55,47.55A62.84,62.84,0,0,1,43.72,139C28.84,125.76,21,105.28,22.87,85.47Z"/>
</svg>