<?xml version="1.0" encoding="utf-8"?>
<!-- Generator: Adobe Illustrator 21.0.0, SVG Export Plug-In . SVG Version: 6.00 Build 0)  -->
<svg version="1.1" id="Layer_1" xmlns="http://www.w3.org/2000/svg" xmlns:xlink="http://www.w3.org/1999/xlink" x="0px" y="0px"
	 viewBox="0 0 92 92" style="enable-background:new 0 0 92 92;" xml:space="preserve">
<style type="text/css">
	.st0{fill:#3D4A5C;}
	.st1{fill:#FFFFFF;}
</style>
<title>Group</title>
<desc>Created with Sketch.</desc>
<g>
	<path class="st0" d="M74.1,0C85,0,92,7,92,17.9v56.2C92,85,85,92,74.1,92H17.9C7,92,0,85,0,74.1V17.9C0,7,7,0,17.9,0
		C17.9,0,74.1,0,74.1,0z"/>
	<path class="st1" d="M73.8,51.6C69.6,58.2,63.6,63.3,55.7,67c-7.3,3.3-15.1,5-23.5,5H19.9l3.3-9.3l4.3-12.1l3.3-9.3l2.6-7.3h13.4
		L36.6,62.7c11.2,0,18-1.8,23.8-12.1c2-3.9,3-7.1,3-9.7c0-4.2-1.2-7.3-3.6-9.1c-2.1-1.6-5.4-2.4-9.8-2.4l-26,0L13.5,20h42.2
		c6.2,0,11.4,1.3,15.5,3.9c4.9,3.1,7.3,7.5,7.3,13.3C78.5,41.8,76.9,46.5,73.8,51.6L73.8,51.6z"/>
</g>
</svg>
