<svg xmlns="http://www.w3.org/2000/svg" viewBox="0 0 97 34.4">
    <defs>
        <style>.cls-1{fill:#bb2025;}.cls-2{fill:#eb9322;}</style>
    </defs>
    <title>eatigo-logo</title>
    <g id="Layer_2" data-name="Layer 2">
        <g id="Isolation_Mode" data-name="Isolation Mode">
            <path class="cls-1"
                  d="M43.63,6h5.29v5.09h3.81v4.12H48.93V21.9c0,1.63.52,1.94,2.28,1.94h1.52V28H49.34c-4.22,0-5.71-.8-5.71-4.84ZM26.29,16.33c.45-4.57,4.78-5.68,8.38-5.68,5.12,0,7.75,1.94,7.65,6.85l-.07,3.7A65.72,65.72,0,0,0,42.52,28h-4.6l-.1-1.73c-1.21,1.56-3.08,2.15-5.47,2.15-4.29,0-6.65-2.6-6.65-5.71a4.25,4.25,0,0,1,1.63-3.57c1.7-1.32,4.5-1.66,7.2-1.94l2.7-.28v-.42c0-1.63-1-2.25-2.94-2.25-1.7,0-2.94.62-3,2.15Zm11.07,4-2.77.28c-2.84.28-3.46.9-3.46,2s.76,1.9,2.49,1.9,3.74-.93,3.74-3.25v-.9Zm16.44-9.27h5.3V28h-5.3ZM72.57,25.33a5.91,5.91,0,0,1-4.81,2.25c-4.47,0-7.61-2.8-7.61-8.48S63.5,10.72,68,10.72a5.6,5.6,0,0,1,4.54,2.08V11.07h5.29V26c0,2.77-.76,4.84-2.25,6.26S71.87,34.4,69,34.4c-5.09,0-7.65-2.77-8.31-6l4.81-.1c.55,1.49,1.7,2,3.46,2a4.16,4.16,0,0,0,2.63-.73,3.07,3.07,0,0,0,1-2.53Zm.24-6.23c0-2.84-1.56-4.12-3.63-4.12s-3.63,1.28-3.63,4.15c0,2.56,1.52,4.19,3.63,4.19S72.81,21.69,72.81,19.1Zm15.13-8.41c4.78,0,9.07,2.8,9.07,8.9s-4.29,8.86-9.07,8.86-9-2.77-9-8.86S83.12,10.69,87.93,10.69Zm0,13.5c2.11,0,3.67-1.66,3.67-4.6S90,14.94,87.93,14.94,84.3,16.6,84.3,19.58,85.79,24.18,87.93,24.18ZM15.78,21.12h9.15A11.93,11.93,0,0,0,25,19.47c0-6.09-4.29-8.9-9.07-8.9s-9,2.8-9,8.9A8.69,8.69,0,0,0,9.3,25.85L5.75,28.33H16c3.93,0,7.52-1.87,8.68-5.93H19.41a3.68,3.68,0,0,1-3.46,1.82c-1.87,0-3.64-1-3.67-3.08h3.5ZM16,14.34c1.87,0,3.64,1,3.67,3.08H12.28C12.31,15.28,14.18,14.34,16,14.34Z"/>
            <path class="cls-2"
                  d="M59.1,5.86v4.26l-5.3-4.26ZM17.5,2.8a4.92,4.92,0,0,0-8.69-.39l0,.06a3.28,3.28,0,0,1,.45.87,3.18,3.18,0,0,0-.55-.69l-.05-.05a3.43,3.43,0,0,0-1.44-.78,3.59,3.59,0,0,0-.92-.12A3.28,3.28,0,0,0,3,4.88a3,3,0,0,0,.35,1.39,3.21,3.21,0,0,0,.9,1.07,3.54,3.54,0,0,0,.38.25,3.74,3.74,0,0,1-.69-.33A3.59,3.59,0,0,1,3,6.43L2.9,6.37A4.09,4.09,0,0,0,.69,8,3.81,3.81,0,0,0,1,12.7l.17.18,0,0a4.07,4.07,0,0,0,1.2.79,4.54,4.54,0,0,0,3,.13A4.13,4.13,0,0,0,6.5,13.3a4,4,0,0,1-.9.92l.74,1.54a8.84,8.84,0,0,1,2.54-3.91A10.64,10.64,0,0,1,16,9.41h.27c-.09-.16-.52-1-.61-1.19l.16-.12C17.56,6.74,18.52,4.92,17.5,2.8Z"/>
        </g>
    </g>
</svg>