<svg xmlns="http://www.w3.org/2000/svg" viewBox="0 0 145.27 28.18">
    <path class="gdg-1"
          d="M27,3.15S.31,20.64,0,20.8c0-1.9-.11-3.81,0-5.7a3.87,3.87,0,0,1,1.88-3C4.66,10.28,19,.91,19.69.47A3,3,0,0,1,22.81.4,36.3,36.3,0,0,1,27,3.15Z"/>
    <path class="gdg-2"
          d="M54.26,5.1h4.53v5.65a12.47,12.47,0,0,1-4.05.63A4.9,4.9,0,0,1,51,10a5.62,5.62,0,0,1-1.32-4A5.26,5.26,0,0,1,51.11,2,5.58,5.58,0,0,1,55.17.61,9,9,0,0,1,57,.8a7.9,7.9,0,0,1,1.53.47l-.9,2.22a5.55,5.55,0,0,0-2.49-.56,2.37,2.37,0,0,0-1.92.81A3.48,3.48,0,0,0,52.58,6a3.53,3.53,0,0,0,.61,2.24A2.13,2.13,0,0,0,55,9a5.18,5.18,0,0,0,1.16-.12V7.29H54.26Zm15.57.67a5.41,5.41,0,0,1-1.45,4,5.56,5.56,0,0,1-4.07,1.42H60.92V.76h3.63A5.48,5.48,0,0,1,68.45,2,4.86,4.86,0,0,1,69.83,5.77Zm-2.94.1a3.33,3.33,0,0,0-.57-2.14A2.11,2.11,0,0,0,64.58,3h-.83V8.91h.63a2.29,2.29,0,0,0,1.89-.75A3.61,3.61,0,0,0,66.89,5.87Zm9-.77h4.53v5.65a12.47,12.47,0,0,1-4.05.63A4.9,4.9,0,0,1,72.64,10a5.62,5.62,0,0,1-1.32-4A5.26,5.26,0,0,1,72.77,2,5.58,5.58,0,0,1,76.83.61,9,9,0,0,1,78.7.8a7.9,7.9,0,0,1,1.53.47l-.9,2.22a5.55,5.55,0,0,0-2.49-.56,2.37,2.37,0,0,0-1.92.81A3.48,3.48,0,0,0,74.25,6a3.53,3.53,0,0,0,.61,2.24A2.13,2.13,0,0,0,76.63,9a5.18,5.18,0,0,0,1.16-.12V7.29H75.92Zm19.39.67a5.41,5.41,0,0,1-1.45,4,5.56,5.56,0,0,1-4.07,1.42H86.4V.76H90A5.48,5.48,0,0,1,93.93,2,4.86,4.86,0,0,1,95.31,5.77Zm-2.94.1a3.33,3.33,0,0,0-.57-2.14A2.11,2.11,0,0,0,90.06,3h-.83V8.91h.63a2.29,2.29,0,0,0,1.89-.75A3.61,3.61,0,0,0,92.37,5.87Zm8.58,5.5A4.37,4.37,0,0,1,97.8,10.3a4.06,4.06,0,0,1-1.12-3.07,4.42,4.42,0,0,1,1-3.16,3.89,3.89,0,0,1,3-1.1,4,4,0,0,1,2.84,1,3.63,3.63,0,0,1,1,2.75V7.93h-5A1.39,1.39,0,0,0,100,9a2,2,0,0,0,1.28.39,6.19,6.19,0,0,0,1.36-.14A6.71,6.71,0,0,0,104,8.77v2a5,5,0,0,1-1.36.47A9.45,9.45,0,0,1,100.95,11.38Zm-.17-6.5a1.17,1.17,0,0,0-.83.31,1.46,1.46,0,0,0-.39,1H102a1.4,1.4,0,0,0-.33-.94A1.1,1.1,0,0,0,100.78,4.88Zm7.46,6.35-3.1-8.12h2.93l1.38,4.8,0,.12c0,.06,0,.13,0,.2s0,.16,0,.25a1.89,1.89,0,0,1,0,.25h0a2.86,2.86,0,0,1,.13-.81l1.44-4.81h2.92L111,11.23Zm9.8,0h-2.79V.76h6.2V3H118V5h3.14V7.3H118Zm8.89.14a4.37,4.37,0,0,1-3.15-1.08,4.06,4.06,0,0,1-1.12-3.07,4.42,4.42,0,0,1,1-3.16,3.89,3.89,0,0,1,3-1.1,4,4,0,0,1,2.84,1,3.63,3.63,0,0,1,1,2.75V7.93h-5A1.39,1.39,0,0,0,126,9a2,2,0,0,0,1.28.39,6.19,6.19,0,0,0,1.36-.14A6.71,6.71,0,0,0,130,8.77v2a5,5,0,0,1-1.36.47A9.45,9.45,0,0,1,126.93,11.38Zm-.17-6.5a1.17,1.17,0,0,0-.83.31,1.46,1.46,0,0,0-.39,1H128a1.4,1.4,0,0,0-.33-.94A1.1,1.1,0,0,0,126.77,4.88Zm11.6,3.86a2.31,2.31,0,0,1-.89,2,4.2,4.2,0,0,1-2.55.67,11.12,11.12,0,0,1-1.57-.1,6.69,6.69,0,0,1-1.36-.35V8.68a8.44,8.44,0,0,0,1.43.47,6,6,0,0,0,1.39.19q.91,0,.91-.42a.47.47,0,0,0-.25-.38A11.69,11.69,0,0,0,134,7.89a3.69,3.69,0,0,1-1.56-1A2.37,2.37,0,0,1,132,5.37a2,2,0,0,1,.88-1.76A4.18,4.18,0,0,1,135.33,3a6.24,6.24,0,0,1,1.51.18,9,9,0,0,1,1.47.51l-.76,1.81A8.48,8.48,0,0,0,136.36,5a3.94,3.94,0,0,0-1-.18q-.69,0-.69.34a.42.42,0,0,0,.24.35,12.87,12.87,0,0,0,1.39.6,5.32,5.32,0,0,1,1.27.69,2.06,2.06,0,0,1,.62.79A2.78,2.78,0,0,1,138.37,8.74Zm5.54.42a4.17,4.17,0,0,0,1.36-.28v2a5.53,5.53,0,0,1-1.08.35,6.15,6.15,0,0,1-1.2.1,2.63,2.63,0,0,1-2-.69,3.09,3.09,0,0,1-.62-2.12V5.22h-1V4.08l1.25-.88.72-1.71h1.84V3.12h2v2.1h-2V8.38Q143.15,9.16,143.91,9.16Zm-87.24,18H49.56V25.87l2.71-2.72a22.81,22.81,0,0,0,1.59-1.74,4.16,4.16,0,0,0,.57-1,2.6,2.6,0,0,0,.18-1,1.47,1.47,0,0,0-.43-1.12A1.64,1.64,0,0,0,53,18a3.15,3.15,0,0,0-1.17.22,5.46,5.46,0,0,0-1.3.8l-.91-1.11a5.88,5.88,0,0,1,1.7-1,5,5,0,0,1,1.76-.31,3.46,3.46,0,0,1,2.35.76,2.58,2.58,0,0,1,.88,2.05A3.6,3.6,0,0,1,56,20.68,5.47,5.47,0,0,1,55.26,22a17.88,17.88,0,0,1-1.75,1.83l-1.82,1.76v.07h5Zm7.8-5.24A7.44,7.44,0,0,1,63.59,26a3.32,3.32,0,0,1-5.34,0,7.31,7.31,0,0,1-.9-4,7.48,7.48,0,0,1,.88-4.09,3.32,3.32,0,0,1,5.34.06A7.36,7.36,0,0,1,64.47,21.9ZM59,21.9A7.62,7.62,0,0,0,59.49,25a1.54,1.54,0,0,0,2.83,0,7.53,7.53,0,0,0,.45-3,7.58,7.58,0,0,0-.45-3,1.54,1.54,0,0,0-2.83,0A7.67,7.67,0,0,0,59,21.9Zm11.06,5.24H68.42V20.38q0-1.21.06-1.92-.17.17-.41.38l-1.61,1.32-.85-1.07,3.09-2.42h1.41ZM73,22.68q0-6.15,5-6.15a6.25,6.25,0,0,1,1.34.12v1.4a4.57,4.57,0,0,0-1.26-.16,3.31,3.31,0,0,0-2.53.9,4.38,4.38,0,0,0-.92,2.89h.09a2.31,2.31,0,0,1,.95-.9,3.06,3.06,0,0,1,1.44-.32,2.86,2.86,0,0,1,2.22.87,3.39,3.39,0,0,1,.8,2.37,3.59,3.59,0,0,1-.92,2.6,3.33,3.33,0,0,1-2.52,1,3.52,3.52,0,0,1-2-.54,3.46,3.46,0,0,1-1.28-1.58A6.25,6.25,0,0,1,73,22.68Zm3.66,3.22A1.65,1.65,0,0,0,78,25.34a2.42,2.42,0,0,0,.47-1.6A2.11,2.11,0,0,0,78,22.32a1.65,1.65,0,0,0-1.32-.52,2.19,2.19,0,0,0-1,.23,1.84,1.84,0,0,0-.72.64,1.49,1.49,0,0,0-.27.83,2.65,2.65,0,0,0,.55,1.7A1.71,1.71,0,0,0,76.65,25.9Zm8.08-9.23h3.11A5.92,5.92,0,0,1,91,17.3a2.21,2.21,0,0,1,1,2,2.41,2.41,0,0,1-.47,1.53,2.12,2.12,0,0,1-1.36.77v.07a2.71,2.71,0,0,1,1.63.82,2.48,2.48,0,0,1,.52,1.66,2.69,2.69,0,0,1-1,2.21,4.25,4.25,0,0,1-2.74.8H84.73ZM86.44,21h1.65a2.83,2.83,0,0,0,1.57-.34,1.3,1.3,0,0,0,.49-1.16,1.16,1.16,0,0,0-.53-1.07,3.34,3.34,0,0,0-1.7-.33H86.44Zm0,1.39V25.7h1.82a2.69,2.69,0,0,0,1.63-.41,1.52,1.52,0,0,0,.55-1.3,1.38,1.38,0,0,0-.56-1.21,3,3,0,0,0-1.7-.39Zm7.12-5.27a.93.93,0,0,1,.25-.69,1,1,0,0,1,.71-.24,1,1,0,0,1,.69.24.93.93,0,0,1,.25.69.92.92,0,0,1-.25.68.94.94,0,0,1-.69.25,1,1,0,0,1-.71-.25A.91.91,0,0,1,93.56,17.12Zm1.79,10H93.66V19.22h1.69Zm7.15-2.26a2.07,2.07,0,0,1-.85,1.78,4.06,4.06,0,0,1-2.43.62,5.73,5.73,0,0,1-2.55-.48V25.35a6.27,6.27,0,0,0,2.6.64q1.56,0,1.56-.94a.74.74,0,0,0-.17-.5,2,2,0,0,0-.57-.42,9.81,9.81,0,0,0-1.1-.49,5.08,5.08,0,0,1-1.86-1.06,2,2,0,0,1-.48-1.38,1.81,1.81,0,0,1,.82-1.58,3.91,3.91,0,0,1,2.24-.56,6.34,6.34,0,0,1,2.65.57l-.55,1.27a5.9,5.9,0,0,0-2.16-.53q-1.33,0-1.33.76a.76.76,0,0,0,.35.63,7.64,7.64,0,0,0,1.52.71,7,7,0,0,1,1.43.69,1.93,1.93,0,0,1,.88,1.71Zm8.22,2.26H109V22.27a2.13,2.13,0,0,0-.37-1.37,1.43,1.43,0,0,0-1.17-.45,1.86,1.86,0,0,0-1.56.63,3.49,3.49,0,0,0-.5,2.12v3.93h-1.69V16h1.69v2.83a13.24,13.24,0,0,1-.09,1.45h.11a2.34,2.34,0,0,1,1-.89,3.09,3.09,0,0,1,1.43-.31,2.56,2.56,0,0,1,2.88,2.9ZM114.11,23l1-1.19,2.4-2.55h1.94l-3.19,3.4,3.39,4.52h-2l-2.55-3.47-.93.76v2.72h-1.67V16h1.67v5.44L114.06,23Zm9.65,4.33a3.84,3.84,0,0,1-2.9-1.08,4.09,4.09,0,0,1-1-3,4.49,4.49,0,0,1,1-3.05,3.35,3.35,0,0,1,2.66-1.11,3.27,3.27,0,0,1,2.48,1,3.64,3.64,0,0,1,.91,2.62v.91h-5.29a2.6,2.6,0,0,0,.62,1.77,2.18,2.18,0,0,0,1.66.62,6.13,6.13,0,0,0,1.31-.13,6.89,6.89,0,0,0,1.3-.44v1.37a5.18,5.18,0,0,1-1.25.42A7.68,7.68,0,0,1,123.76,27.29Zm-.31-6.94a1.7,1.7,0,0,0-1.29.51,2.42,2.42,0,0,0-.58,1.48h3.6a2.19,2.19,0,0,0-.47-1.49A1.62,1.62,0,0,0,123.45,20.35ZM129.8,23l1-1.19,2.4-2.55h1.94l-3.19,3.4,3.39,4.52h-2l-2.55-3.47-.93.76v2.72h-1.67V16h1.67v5.44L129.76,23Z"/>
    <path class="gdg-3"
          d="M27,3.15c2.15,1.33,6.68,4.39,6.68,4.39A3.41,3.41,0,0,0,31,7.73S1.68,26.92,1.46,27A1,1,0,0,1,0,26c0-1.74,0-3.47,0-5.21C.31,20.64,22.21,6.3,27,3.15Z"/>
    <path class="gdg-4"
          d="M20.69,14.48l6.13-4c1.26.83,14.12,9.23,15.78,10.3,0,1.76,0,3.52,0,5.28a.93.93,0,0,1-1.3,1c-.26-.1-11.92-7.67-17.48-11.35C22.73,14.95,22,14.23,20.69,14.48Z"/>
    <path class="gdg-5"
          d="M42.6,20.78c-1.66-1.08-14.5-9.46-15.76-10.29,1.35-1,2.75-1.9,4.17-2.75a3.07,3.07,0,0,1,2.67-.19,82.52,82.52,0,0,1,7.93,5.29,4.33,4.33,0,0,1,1,2.87C42.6,17.4,42.61,19.09,42.6,20.78Z"/>
    <path class="gdg-2"
          d="M24.57,19.79v6.94a1.44,1.44,0,0,1-1.44,1.44H18.42A1.44,1.44,0,0,1,17,26.74V19.79a1.44,1.44,0,0,1,1.44-1.44h4.71A1.44,1.44,0,0,1,24.57,19.79Z"/>
    <path class="gdg-6"
          d="M25.48,18.61h0a1.2,1.2,0,0,1-1.2,1.2H17a1.2,1.2,0,0,1-1.2-1.2h0a1.2,1.2,0,0,1,1.2-1.2h7.25A1.2,1.2,0,0,1,25.48,18.61Z"/>
</svg>