<svg width="147px" height="120px" viewBox="0 0 147 120" version="1.1" xmlns="http://www.w3.org/2000/svg">
    <defs>
        <linearGradient x1="50%" y1="31.052%" x2="50%" y2="97.138%" id="kit--linear">
            <stop stop-color="#5FC3FD" offset="0%"></stop>
            <stop stop-color="#0092FB" offset="58.046%"></stop>
            <stop stop-color="#0045F9" offset="100%"></stop>
        </linearGradient>
    </defs>
    <g id="kit" stroke="none" stroke-width="1" fill="none" fill-rule="evenodd"
       transform="translate(1.000000, 0.000000)">
        <path d="M71,117.191 C31.85,117.191 0,85.341 0,46.191 C0,32.571 3.867,19.337 11.185,7.921 L14.982,2.001 L12.818,8.693 C12.466,9.781 12.288,10.913 12.288,12.056 C12.288,17.561 16.404,22.22 21.861,22.893 L27.801,23.623 L21.921,24.693 C11.86,26.518 4.56,35.273 4.56,45.508 C4.56,57.178 14.052,66.672 25.72,66.672 C37.228,66.672 46.517,57.662 46.867,46.162 L46.895,45.272 L142,45.272 L142,46.182 C142,85.332 110.15,117.182 71,117.182 L71,117.191 Z"
              id="kit--1" stroke-width="0.35"></path>
        <path d="M79.312,26.75 L82.622,26.75 L82.622,1.127 L79.312,1.127 L79.312,26.75 Z M95.282,1.148 L95.072,1.148 C93.934,1.148 92.794,1.152 91.654,1.144 C91.504,1.144 91.424,1.194 91.344,1.324 C89.184,4.734 87.021,8.144 84.856,11.554 L83.486,13.714 C83.523,13.774 83.556,13.824 83.59,13.864 C86.678,18.134 89.768,22.394 92.854,26.654 C92.921,26.754 92.992,26.784 93.104,26.784 L96.947,26.784 C96.995,26.784 97.044,26.774 97.114,26.774 L87.38,13.533 C90.013,9.408 92.64,5.293 95.28,1.153 L95.282,1.148 Z M123.992,4.568 L131.916,4.568 L131.916,26.748 L135.252,26.748 L135.252,4.553 L143.172,4.553 L143.172,1.12 L123.992,1.12 L123.992,4.568 Z M121.064,0.663 L121.038,0.653 L121.004,0.653 L120.97,0.661 L120.954,0.669 L120.941,0.681 L120.921,0.705 L120.901,0.731 L103.421,18.241 C103.421,18.244 103.411,18.246 103.391,18.261 L103.391,1.161 L100.061,1.161 L100.061,27.257 C100.141,27.199 100.211,27.167 100.251,27.117 C101.551,25.762 102.841,24.405 104.141,23.047 L117.631,8.907 C117.671,8.87 117.711,8.837 117.771,8.777 L117.771,26.749 L121.091,26.749 L121.091,0.663 L121.064,0.663 Z"
              id="kit--2" fill-rule="nonzero"></path>
        <path d="M71.402,1.056 C70.336,1.063 69.272,1.073 68.206,1.073 C68.082,1.073 68.026,1.111 67.982,1.23 C67.075,3.64 66.162,6.048 65.252,8.456 L64.467,10.53 L64.461,10.546 L61.931,17.25 C61.791,17.623 61.651,17.995 61.491,18.403 L61.481,18.383 L59.821,22.74 C60.361,24.07 60.891,25.4 61.421,26.728 C61.441,26.783 61.501,26.822 61.551,26.868 C61.591,26.821 61.651,26.781 61.671,26.725 L63.801,21.215 L71.231,1.961 L71.581,1.055 L71.411,1.055 M42.271,1.315 C42.971,1.309 43.631,1.305 44.291,1.301 C44.751,1.298 45.201,1.298 45.651,1.289 C45.761,1.287 45.811,1.319 45.851,1.425 C47.041,4.445 48.231,7.465 49.411,10.485 L52.501,18.339 C52.521,18.391 52.551,18.442 52.581,18.529 C52.741,18.121 52.881,17.749 53.021,17.376 L56.351,8.581 C57.261,6.173 58.181,3.765 59.081,1.355 C59.131,1.235 59.181,1.2 59.311,1.199 C60.37,1.197 61.44,1.189 62.5,1.183 C62.547,1.178 62.593,1.178 62.666,1.177 C62.546,1.49 62.436,1.787 62.321,2.084 L54.891,21.344 C54.181,23.184 53.471,25.024 52.761,26.854 C52.741,26.914 52.681,26.954 52.641,27.004 C52.601,26.964 52.541,26.924 52.521,26.864 C50.851,22.714 49.191,18.564 47.521,14.414 L42.94,2.993 L42.27,1.329"
              id="kit--3" fill-rule="nonzero"></path>
        <path d="M145.84,50.359 C145.84,90.765 107.58,119.851 75.775,119.851 C36.07,119.851 3.883,90.765 3.883,50.359 C3.883,35.839 8.04,22.305 15.209,10.926 C14.819,12.124 14.619,13.401 14.619,14.728 C14.619,21.033 19.259,26.231 25.249,26.983 C14.69,28.933 6.68,38.335 6.68,49.646 C6.68,51.694 6.946,53.676 7.44,55.566 C9.74,74.848 25.864,89.79 45.43,89.79 C66.57,89.79 83.71,72.35 83.71,50.834 L145.84,50.364 L145.84,50.359 Z"
              id="kit--5" fill-rule="nonzero" opacity="0.732"></path>
        <path d="M69.892,61.027 C69.262,61.027 68.75,60.513 68.75,59.88 C68.75,59.247 69.26,58.734 69.892,58.734 C70.522,58.734 71.034,59.254 71.034,59.884 C71.034,60.514 70.524,61.034 69.892,61.034 M67.152,54.154 C63.746,54.154 60.984,56.924 60.984,60.344 C60.984,63.764 63.746,66.544 67.151,66.544 C70.561,66.544 73.321,63.774 73.321,60.354 C73.321,56.934 70.561,54.164 67.161,54.164"
              id="kit--4" fill-rule="nonzero"></path>
    </g>
</svg>