<svg xmlns="http://www.w3.org/2000/svg" viewBox="0 0 94.51 26">
    <defs>
        <style>.cls-1{fill:#fff;}</style>
    </defs>
    <title>idmatch-logotype</title>
    <path class="cls-1"
          d="M0 26h9.36l5-26h-9.36zm23-26h-6v26h6v-.08a13.06 13.06 0 0 0 13-12.92 13.06 13.06 0 0 0-13-13zm17 8.54v-.74h3v.74l-1 .16v6.72l1 .16v.74h-3v-.74l1-.16v-6.71zm7.46-.74a3.51 3.51 0 0 1 3.7 3.69v1.17a3.5 3.5 0 0 1-3.7 3.68h-3.62v-.74l1-.16v-6.73l-1-.16v-.75h3.57zm-1.46.91v6.72h1.46a2.35 2.35 0 0 0 1.87-.78 2.92 2.92 0 0 0 .68-2v-1.18a2.9 2.9 0 0 0-.68-2 2.35 2.35 0 0 0-1.87-.78zm14.54.79l-2.84 6.83h-.77l-2.76-6.83.09 3.5v2.47l1 .16v.74h-3.11v-.74l1-.16v-6.76l-1-.16v-.75h2.43l2.72 6.93 2.75-6.93h2.44v.74l-1 .16v6.72l1 .16v.74h-3.07v-.74l1-.16v-2.42zm2.73 6.09l.63-.09 3-7.71h1l2.93 7.71.63.09v.74h-2.53v-.74l.64-.11-.57-1.57h-3.4l-.6 1.57.64.11v.74h-2.42zm2.73-2.65h2.71l-1.37-3.66zm12-5.14v1.88h-1l-.09-1h-1.91v6.72l1 .16v.74h-3.13v-.74l1-.16v-6.69h-1.9l-.08 1h-1v-1.91zm7 2.62h-.81l-.19-1.21a2.23 2.23 0 0 0-.69-.45 2.47 2.47 0 0 0-1-.18 2.39 2.39 0 0 0-2 1 4 4 0 0 0-.75 2.42v.13a4.08 4.08 0 0 0 .7 2.45 2.26 2.26 0 0 0 1.94 1 2.93 2.93 0 0 0 1.05-.18 2 2 0 0 0 .73-.45l.22-1.21h.8v1.52a3.2 3.2 0 0 1-1.11.85 3.75 3.75 0 0 1-1.71.37 3.45 3.45 0 0 1-2.73-1.23 4.56 4.56 0 0 1-1.07-3.09v-.16a4.61 4.61 0 0 1 1-3.1 3.44 3.44 0 0 1 2.75-1.23 3.7 3.7 0 0 1 1.71.38 3.29 3.29 0 0 1 1.16.85zm1.13-1.87v-.75h3.06v.74l-1 .16v2.95h4.21v-2.94l-1-.16v-.75h3.06v.74l-1 .16v6.72l1 .16v.74h-3.02v-.74l1-.16v-2.86h-4.18v2.87l1 .16v.74h-3.11v-.74l1-.16v-6.72z"
          id="Layer_1-2"/>
</svg>