<svg xmlns="http://www.w3.org/2000/svg" width="167px" height="43px" viewBox="0 0 167 42.92"><defs><style>.cls-1{fill:#1a1a1a;}.cls-2{fill:red;}</style></defs><title>iot-logo</title><g id="Layer_2" data-name="Layer 2"><g id="Layer_1-2" data-name="Layer 1"><path class="cls-1" d="M37.31,13.38H41.5v23H37.31Z"/><path class="cls-1" d="M55,19.49c5.07,0,9.12,3.61,9.12,8.66S60.06,36.81,55,36.81s-9-3.56-9-8.66S50,19.49,55,19.49Zm0,13.83a4.93,4.93,0,0,0,5-4.86v-.3a4.93,4.93,0,1,0-9.84,0A4.9,4.9,0,0,0,54.8,33.3H55Z"/><path class="cls-1" d="M70.83,17H63.27V13.4H82.55V17H75V36.43H70.85Z"/><path class="cls-1" d="M83.37,31.66a7.23,7.23,0,0,0,4.71,1.82c1.46,0,2.3-.62,2.3-1.65,0-2.59-8.21-1.94-8.21-7.37,0-3.25,2.85-5,6.33-5a8.49,8.49,0,0,1,5.58,1.88l-1.52,2.88a7,7,0,0,0-4.19-1.43c-1.43,0-2.3.55-2.3,1.59,0,2.62,8.21,1.88,8.21,7.3,0,2.92-2.46,5.1-6.26,5.1a9.46,9.46,0,0,1-6.49-2.43Z"/><path class="cls-1" d="M98.25,19.87H102v1.24a11.29,11.29,0,0,1,0,1.18h0a6.07,6.07,0,0,1,5.25-2.79c4.48,0,7.33,3.54,7.33,8.66s-3.22,8.66-7.56,8.66a6,6,0,0,1-4.78-2.33h0a9.6,9.6,0,0,1,.1,1.43v7H98.23Zm8.11,13.47c2.27,0,4.16-1.85,4.16-5.13s-1.73-5.2-4.13-5.2c-2.17,0-4.19,1.56-4.19,5.23,0,2.57,1.42,5.1,4.12,5.1Z"/><path class="cls-1" d="M118.59,13.38h4.09V30.65c0,1.81.62,2.27,1.69,2.27a4.4,4.4,0,0,0,.62,0v3.61a10.64,10.64,0,0,1-1.3.1c-2.27,0-5.1-.58-5.1-5.32Z"/><path class="cls-1" d="M136.17,19.49c5.07,0,9.12,3.61,9.12,8.66s-4.06,8.66-9.08,8.66-9.08-3.57-9.08-8.66S131.17,19.49,136.17,19.49Zm0,13.83a4.93,4.93,0,0,0,4.94-4.91v-.25a4.93,4.93,0,1,0-9.84,0,4.9,4.9,0,0,0,4.64,5.14h.26Z"/><path class="cls-1" d="M149.18,19.87h4.16V36.43h-4.13Z"/><path class="cls-1" d="M158.87,23.38h-2.14V20.1H159V15.36h4V20.1h3.77v3.28H163v6.46A2.94,2.94,0,0,0,166.25,33a3.31,3.31,0,0,0,.75-.06v3.61a10.58,10.58,0,0,1-1.26.1c-2.3,0-6.88-.68-6.88-6.23Z"/><circle class="cls-2" cx="151.23" cy="15.08" r="1.93"/><path class="cls-2" d="M39.4,6.73a1.93,1.93,0,0,0-1.87,1.45H33.3L30.89,5.76H0v1H30.47l2.42,2.42h4.63a1.93,1.93,0,1,0,1.87-2.42Z"/><path class="cls-2" d="M31,11.55a1.92,1.92,0,0,0-1.16.4L28,10.1H0v1H27.57l1.64,1.64A1.93,1.93,0,1,0,31,11.58Z"/><path class="cls-2" d="M35,3.86a1.93,1.93,0,1,0-1.83-2.42H0v1H33.15A1.93,1.93,0,0,0,35,3.86Z"/></g></g></svg>