<?xml version="1.0" encoding="utf-8"?>
<!-- Generator: Adobe Illustrator 19.1.0, SVG Export Plug-In . SVG Version: 6.00 Build 0)  -->
<svg version="1.1" id="Layer_1" xmlns="http://www.w3.org/2000/svg" xmlns:xlink="http://www.w3.org/1999/xlink" x="0px" y="0px"
	 viewBox="0 0 83.7 145.6" style="enable-background:new 0 0 83.7 145.6;" xml:space="preserve">
<style type="text/css">
	.st0{fill:#FFFFFF;}
	.st1{fill-rule:evenodd;clip-rule:evenodd;fill:#EC2227;}
</style>
<g>
	<g>
		<path class="st0" d="M67.4,88.5h-7.3c-1,0-1.8,0.8-1.8,1.8v25.9c0,1,0.8,1.8,1.8,1.8h7.3c10.8,0,16.3-5.9,16.3-14.6
			C83.7,94.5,78.3,88.5,67.4,88.5z M69.7,109h-1.9c-0.6,0-1.2-0.5-1.2-1.2v-9.3c0-0.6,0.5-1.2,1.2-1.2h1.8c2.5,0,4.1,2.1,4.1,5.9
			C73.7,107.2,72.2,109,69.7,109z"/>
		<path class="st0" d="M17.6,89.5l-4.5,8.5l-4.5-8.5c-0.3-0.6-0.9-0.9-1.6-0.9H1.9c-1,0-1.8,0.8-1.8,1.8v8.8v14.7v2.4
			c0,1,0.8,1.8,1.8,1.8h5.3c1,0,1.8-0.8,1.8-1.8v-8.2l2.7,5.5c0.3,0.6,0.9,1,1.6,1h0.1c0.7,0,1.3-0.4,1.6-0.9l3-5.5v8.2
			c0,1,0.8,1.8,1.8,1.8h5.3c1,0,1.8-0.8,1.8-1.8v-2.4V99.1v-8.8c0-1-0.8-1.8-1.8-1.8h-5.7C18.5,88.5,17.9,88.9,17.6,89.5z"/>
		<path class="st0" d="M56,115.7c-1.8-5.9-6.4-21.3-7.8-25.8c-0.2-0.7-0.9-1.3-1.7-1.3l-8,0c-0.8,0-1.5,0.5-1.7,1.3l-7.8,25.8
			c-0.3,1.1,0.5,2.3,1.7,2.3h5.1c0.8,0,1.5-0.5,1.7-1.3l0.4-1.6c0.2-0.8,0.9-1.3,1.7-1.3h5.8c0.8,0,1.5,0.5,1.7,1.3l0.4,1.6
			c0.2,0.8,0.9,1.3,1.7,1.3h4.9C55.5,117.9,56.3,116.8,56,115.7z M40.2,107l2.4-8.2l2.4,8.2H40.2z"/>
		<g>
			<path class="st0" d="M9.6,145.6H1.9c-1,0-1.8-0.8-1.8-1.8V125c0-1,0.8-1.8,1.8-1.8H9c8.1,0,12.4,4.6,12.4,11.2
				C21.4,141,17.7,145.6,9.6,145.6z M9.6,138.5c2.3,0,3.5-1.2,3.5-4.1c0-2.9-1.2-4.1-3.5-4.1H8.4c-0.3,0-0.6,0.3-0.6,0.6v7.1
				c0,0.3,0.3,0.6,0.6,0.6H9.6z"/>
		</g>
		<g>
			<path class="st0" d="M65.2,137.9l5.1,0c0.2,0.8,0.6,1.6,1,1.9c0.5,0.3,1.2,0.5,2.2,0.5c0.8,0,1.4-0.1,1.9-0.4
				c0.5-0.3,0.7-0.7,0.7-1.1c0-0.8-1-1.4-2.9-1.9c-0.4-0.1-0.7-0.2-0.9-0.2c-1.6-0.4-2.8-0.8-3.8-1.1c-0.9-0.3-1.6-0.6-2-0.9
				c-0.8-0.6-1.4-1.3-1.9-2.1c-0.4-0.8-0.8-2-0.8-3c0-2.1,1-3.6,2.6-4.8c1.6-1.2,3.8-2.1,6.6-2.1c2.7,0,4.9,0.9,6.5,2
				c1.2,0.9,1.9,2.1,2.3,3.6c0.2,0.7-0.4,1.4-1.1,1.4h-4.5c-0.1-0.6-0.9-1.1-1.4-1.5c-0.5-0.3-1.1-0.5-1.9-0.5
				c-0.7,0-1.3,0.1-1.6,0.4c-0.4,0.2-0.5,0.6-0.5,1.1c0,0.7,0.9,1.3,2.8,1.8c0.2,0,0.3,0.1,0.4,0.1c0.3,0.1,0.7,0.2,1.2,0.3
				c2.5,0.6,4.1,1.2,4.9,1.7c0.9,0.6,1.6,1.3,2.1,2.1c0.4,0.8,0.6,1.6,0.6,2.7c0,2.4-0.7,4.4-2.4,5.6c-1.7,1.3-4.2,2-7.3,2
				c-2.8,0-4.9-0.7-6.6-2c-1.3-1-2.1-2.5-2.4-4.2C63.9,138.6,64.5,137.9,65.2,137.9z"/>
		</g>
		<path class="st0" d="M54.2,124.7l-2.1,11.5L50,124.7c-0.2-0.8-0.9-1.4-1.7-1.4h-5c-1.2,0-2,1.1-1.7,2.3l5.4,18.8
			c0.2,0.8,0.9,1.3,1.7,1.3h6.8c0.8,0,1.5-0.5,1.7-1.3l5.4-18.8c0.3-1.1-0.5-2.3-1.7-2.3h-5C55.1,123.2,54.4,123.8,54.2,124.7z"/>
		<path class="st0" d="M30.8,139.7h7.6c0.6,0,1.2,0.5,1.2,1.2v2.9c0,1-0.8,1.8-1.8,1.8H24.9c-1,0-1.8-0.8-1.8-1.8l0-18.8
			c0-1,0.8-1.8,1.8-1.8h12.9c1,0,1.8,0.8,1.8,1.8l0,2.9c0,0.6-0.5,1.2-1.2,1.2h-7.6c-0.3,0-0.6,0.3-0.6,0.6v1.2
			c0,0.3,0.3,0.6,0.6,0.6h5.9c0.6,0,1.2,0.5,1.2,1.2v3.5c0,0.6-0.5,1.2-1.2,1.2h-5.9c-0.3,0-0.6,0.3-0.6,0.6v1.2
			C30.2,139.4,30.4,139.7,30.8,139.7z"/>
	</g>
	<path class="st1" d="M77.5,0.4L41.8,16.8L6,0.4C3.5-0.9,0,1,0,4.5l0,0v68.2c0,2.6,1.6,4.7,3.7,4.8c0.1,0,0.2,0,0.3,0h0
		c0.1,0,0.1,0,0.2,0l23.5-2.4l-4.4-6.3c-1.9-2.7,0.4-5.1,2.9-4.1c0.5,0.2,1-0.1,1.5,0.1l-6-20.2c0-2,1.6-3.6,3.6-3.6
		c2,0,3.6,1.6,3.6,3.6l6,14.4c0.3-1.7,1.8-2.9,3.5-2.9c1.8,0,3.3,1.4,3.5,3.1c0.2-1.8,1.7-3.1,3.5-3.1c1.7,0,3.1,1.5,3.4,3.2l3.5-10
		c0-2,1.7-3.6,3.7-3.6c2,0,3.4,1.6,3.4,3.6l-3.5,25.8l23.4,2.4c0.1,0,0.1,0,0.2,0h0.1c0.1,0,0.2,0,0.3,0c2.1-0.1,3.6-2.2,3.6-4.8
		V4.5l0,0l0,0C83.4,1,80-0.9,77.5,0.4z"/>
</g>
</svg>
