<?xml version="1.0" encoding="utf-8"?>
<!-- Generator: Adobe Illustrator 19.1.0, SVG Export Plug-In . SVG Version: 6.00 Build 0)  -->
<svg version="1.1" id="Layer_1" xmlns="http://www.w3.org/2000/svg" xmlns:xlink="http://www.w3.org/1999/xlink" x="0px" y="0px"
	 viewBox="-391 373.5 897 965.7" style="enable-background:new -391 373.5 897 965.7;" xml:space="preserve">
<style type="text/css">
	.st0{fill:#FF0013;}
</style>
<path d="M277,373.5h-439h-229v295v670.7h173h56h293.9l-219.1-304.7c-15.2-21.2,3.2-39.6,22.7-32.5c3.9,1.4,8.2,4.3,12,0.5l-46-155.4
	c-0.2-0.5-0.3-1.1-0.5-1.6l-0.3-1.2c0-0.1,0-0.2,0-0.3c-0.3-1.7-0.5-3.4-0.5-5.1c0-14.7,11.9-26.6,26.6-26.6
	c10.4,0,19.3,5.9,23.7,14.6c0,0,0.1,0.1,0.1,0.2C-49,828,3.5,957.3,3.5,957.3c2.4-13,13.9-23,27.6-23c14.2,0,26,10.7,27.8,24.4
	c1.8-13.7,13.6-24.4,27.8-24.4c13.7,0,24.3,12.1,26.7,25.2l31.1-87.8c3.7-10.2,13.5-17.6,25-17.6c14.7,0,26.8,11.9,26.8,26.6
	c0,0,0,0.6,0,0.8l-64.4,457.7H277h39h190V668.5v-295H277z"/>
</svg>
