<svg id="Layer_1" xmlns="http://www.w3.org/2000/svg" viewBox="-391 373.5 897 965.7">
  <style>
    .st0{fill:#FF0013;}
  </style>
  <path d="M277 373.5h-668v965.7h522.9l-219.1-304.7c-15.2-21.2 3.2-39.6 22.7-32.5 3.9 1.4 8.2 4.3 12 .5l-46-155.4c-.2-.5-.3-1.1-.5-1.6l-.3-1.2v-.3c-.3-1.7-.5-3.4-.5-5.1 0-14.7 11.9-26.6 26.6-26.6 10.4 0 19.3 5.9 23.7 14.6 0 0 .1.1.1.2.4.9 52.9 130.2 52.9 130.2 2.4-13 13.9-23 27.6-23 14.2 0 26 10.7 27.8 24.4 1.8-13.7 13.6-24.4 27.8-24.4 13.7 0 24.3 12.1 26.7 25.2l31.1-87.8c3.7-10.2 13.5-17.6 25-17.6 14.7 0 26.8 11.9 26.8 26.6v.8l-64.4 457.7H506V373.5H277z"/>
</svg>
