<svg width="36px" height="35px" viewBox="0 0 36 35" version="1.1" xmlns="http://www.w3.org/2000/svg" xmlns:xlink="http://www.w3.org/1999/xlink">
    <g id="Page-1" stroke="none" stroke-width="1" fill="none" fill-rule="evenodd" opacity="0.432518116">
        <g id="Contacts" transform="translate(-1077.000000, -909.000000)" fill-rule="nonzero" fill="#FFFFFF">
            <g id="Group-3" transform="translate(734.000000, 236.000000)">
                <g id="Group-2" transform="translate(5.000000, 673.000000)">
                    <path d="M338.895235,0 L373.919007,0 L373.919007,35 L338.895235,35 L338.895235,0 Z M347.253179,11.705392 L347.253179,22.0977102 C347.317174,22.4725999 347.198916,22.8555521 346.934628,23.1292604 L344.463117,26.1251451 L344.463117,26.5202068 L351.471225,26.5202068 L351.471225,26.1251451 L348.999714,23.1292604 C348.733488,22.8560051 348.607907,22.4755765 348.659194,22.0977102 L348.659194,13.1100559 L354.810512,26.5202068 L355.524504,26.5202068 L360.808047,13.1100559 L360.808047,23.7986705 C360.808047,24.0839929 360.808047,24.1388625 360.62131,24.3254195 L358.720993,26.1690409 L358.720993,26.5641026 L367.947969,26.5641026 L367.947969,26.1690409 L366.113558,24.3693152 C365.951624,24.2459632 365.871296,24.0432256 365.904853,23.8425663 L365.904853,10.6189723 C365.871296,10.4183129 365.951624,10.2155752 366.113558,10.0922233 L367.991907,8.29249763 L367.991907,7.8974359 L361.489086,7.8974359 L356.853628,19.4529914 L351.58107,7.8974359 L344.759698,7.8974359 L344.759698,8.29249763 L346.956597,10.9372164 C347.172268,11.1314774 347.282411,11.416759 347.253179,11.705392 Z" id="Rectangle-path"></path>
                </g>
            </g>
        </g>
    </g>
</svg>