<svg xmlns="http://www.w3.org/2000/svg" viewBox="0 0 191.72 58.89">
    <defs>
        <style>.cls-1{fill:#fdfeff;}.cls-2{fill:#d90069;}.cls-3{fill:#b2b9c3;}</style>
    </defs>
    <title>nambafood-logotype_1</title>
    <g id="Layer_2" data-name="Layer 2">
        <g id="Layer_1-2" data-name="Layer 1">
            <path class="cls-1"
                  d="M47,29.34,44.14,55.72h-.89c-.74,1.5-3.64,2.8-14.46,2.8-3.57,0-8-.34-13.47-.88a62.15,62.15,0,0,0,7.43,1c-4.53-.33-8.67-1.05-11.26-2.2C10.21,54.12,9.37,49.39,8.82,44l.09.18c-.23-2.3-.5-5.25-.68-8.09h0l0-.45c-.05-.91-.1-1.8-.13-2.64-.13-2.9-.2-5.68-.24-8.13a7,7,0,0,0,1-.07,28.26,28.26,0,0,0,7.18,2,41.09,41.09,0,0,1,6,.08,36.72,36.72,0,0,0,7.37,1.16c3.31.13,6.83-.77,9.27-.83s6.18-.46,6.91-.41S47,29.34,47,29.34Zm0,0h0ZM44.23,3.86a13.48,13.48,0,0,0-3.88-.44,65.51,65.51,0,0,1-6.68.63,4.86,4.86,0,0,1-2.46-.73A37,37,0,0,0,24,.45,42.75,42.75,0,0,0,18,0h-.31C3,0,0,9.43,0,15.25c0,4,1.38,6.8,7.81,8.81h0C18.43,27.76,22,25.22,22,25.22h0v0a10.65,10.65,0,0,0,6.46,2c3.61,0,7.05-1.61,7-5.32a15.91,15.91,0,0,0,7,1.89c6.35,0,9.52-5.58,9.52-10.53A10.28,10.28,0,0,0,44.23,3.86Z"/>
            <path class="cls-2"
                  d="M34.11,33.92a13.48,13.48,0,0,0-5.53,1.63,4.53,4.53,0,0,0-3.81-1.63,4.9,4.9,0,0,0-.87.09,12.65,12.65,0,0,1-4.31-.21c-1.57-.32-3-2.84-3.06-4a4.6,4.6,0,0,0,.37,5.31V49.7H20.6v-12a7.64,7.64,0,0,1,3.12-1c1.75,0,2.25,1.76,2.2,3.55a17.1,17.1,0,0,1,3.52-2.62,7.57,7.57,0,0,1,3.2-.83c2.45,0,2.71,2.36,2.71,5.29v7.6H39v-8c0-4.33-.63-7.76-4.85-7.76ZM33.06,45.31c-.19-1-2.05-3.33-3.67-.16A2.16,2.16,0,0,1,33.06,45.31Zm.45,1.11c-.68,6.44-3.2,8-4.65,8.38a3.59,3.59,0,0,1-.86.11,5.19,5.19,0,0,1-4.75-3.58.29.29,0,0,1,.38-.35,3.9,3.9,0,0,0,1.23.17c1.5,0,4.55-.64,8.15-4.94a.29.29,0,0,1,.33-.08.3.3,0,0,1,.17.3Zm-3.9,4.95a5.81,5.81,0,0,0-1.36,1.34,1.88,1.88,0,0,1,.53-1.22,12.26,12.26,0,0,0-3.67,1.81,3.88,3.88,0,0,0,6-1.21,1.52,1.52,0,0,0-1.48-.72Zm-3.54-6.14a1.5,1.5,0,0,0,.07-.35,1.57,1.57,0,1,0-3.15,0,1.55,1.55,0,0,0,.18.71,3.79,3.79,0,0,1,2.9-.35Z"/>
            <path class="cls-3"
                  d="M56,15.81l-.08-.93a11.53,11.53,0,0,0-4-7.21,17.91,17.91,0,0,0-7.68-3.81c5.71,2,7.81,6.62,7.81,9.37,0,5-3.17,10.53-9.52,10.53a15.91,15.91,0,0,1-7-1.89c0,3.71-3.42,5.32-7,5.32A11.47,11.47,0,0,1,23,25.86,3.86,3.86,0,0,1,22,25a8.75,8.75,0,0,1-4,1.09,33.2,33.2,0,0,1-7.83-1.37q-1.25-.3-2.31-.64h0v.79a86.94,86.94,0,0,0,18.94,4s1.75.1,2.55.1a18.34,18.34,0,0,0,5.29-.66,26.15,26.15,0,0,1,7.65-1.22,19.15,19.15,0,0,1,3.38.29c.29.05,1.19,12.08-2.15,27.65-.06.31-1.33,3.36-14.7,3.36-3.57,0-8-.22-13.47-.76a62.16,62.16,0,0,0,7.43,1c2,.14,4,.21,6,.21a74.73,74.73,0,0,0,8.67-.47A22.87,22.87,0,0,0,45,56.48c1.71-8.69,2.48-21.56,2.83-30.42h-.49a21.31,21.31,0,0,1-2.85-.2,40.1,40.1,0,0,1-5.84-1.24h0a41.72,41.72,0,0,0,5.84,1.24,22.18,22.18,0,0,0,2.81.2h.59A11.81,11.81,0,0,0,51,25.55C54.72,24.33,56.29,21.45,56,15.81ZM67.49,43.44v-.28l0-.76,0-1.14,0-1.48c0-.54,0-1.12,0-1.76s0-1.29,0-2V34c0-1.47,0-3,0-4.44s0-2.7-.06-3.64,0-1.48,0-1.62a1.05,1.05,0,0,1,.87-1.09,2.51,2.51,0,0,1,.46,0,1,1,0,0,1,1,.61s.25.47.7,1.36,1,2.06,1.74,3.52,1.33,2.77,1.87,3.93,1,2.22,1.5,3.53c0-.53,0-1.34,0-2.4s0-1.83,0-2.32c0-.76,0-1.53,0-2.31s0-1.44,0-2l0-1.52,0-1.06,0-.4a.84.84,0,0,1,.4-.74,1.49,1.49,0,0,1,.81-.21h.13a1.53,1.53,0,0,1,.92.31.84.84,0,0,1,.3.78l0,.12v.86c0,.2,0,.43,0,.7l0,.85,0,1c0,.37,0,.73,0,1.11v1.22q0,.66,0,1.31,0,2.2,0,5c0,1.88.05,3.46.08,4.77s0,2,0,2.12a3.22,3.22,0,0,1,0,.44,1,1,0,0,1-.12.35.59.59,0,0,1-.31.27,1.73,1.73,0,0,1-.55.1h-.13a1.9,1.9,0,0,1-.91-.16,1.13,1.13,0,0,1-.51-.66s-.16-.42-.47-1.23l-1-2.51C74,39,73.58,38,73.09,36.76s-.95-2.24-1.35-3.13q-.8-1.83-1.6-3.43c0,.77,0,2,0,3.77,0,.55,0,1.1,0,1.66v1.58q0,.75,0,1.47c0,.49,0,.93,0,1.34l0,1.16,0,1,0,.72v.64a1.08,1.08,0,0,1-.06.3,1.07,1.07,0,0,1-.17.27.72.72,0,0,1-.39.22,2.63,2.63,0,0,1-.68.07,2.24,2.24,0,0,1-.69-.09.76.76,0,0,1-.39-.24,1,1,0,0,1-.15-.28,1.27,1.27,0,0,1,0-.31Zm13.32-.21c0-.07.08-.44.25-1.11l.79-3.23L83,34.09l.72-3c.26-1,.51-2,.76-2.81s.47-1.58.69-2.27.38-1.22.5-1.59l.19-.58A1.18,1.18,0,0,1,87,23.12h.14a1.1,1.1,0,0,1,1.18.82q.38,1.24,1.17,4.5t1.38,6L91.72,39l.61,3.19c.13.66.19,1,.19,1l0,.26a1,1,0,0,1-.21.61,1.15,1.15,0,0,1-.81.38H91.3a1.36,1.36,0,0,1-.76-.21,1,1,0,0,1-.52-.76q-.23-1.49-1.4-7.23l-3.68.16-.86,3.75-.58,2.52c-.12.51-.18.78-.18.8a1,1,0,0,1-.56.8,1.41,1.41,0,0,1-.6.13,2.13,2.13,0,0,1-.43,0c-.64-.12-1-.43-1-.94l0-.26Zm4.74-9.39,2.58-.11q-.63-2.85-1.14-4.88Q86.22,31.23,85.54,33.84Zm9,9.53q0-1.71,0-3.69c0-1.32.06-2.58.09-3.78l.11-3.58c0-1.19.08-2.27.12-3.24l.11-2.58c0-.75.06-1.33.08-1.76l0-.64a1,1,0,0,1,.31-.7,1.14,1.14,0,0,1,.69-.29h.15a1.39,1.39,0,0,1,1.38.66l.1.23.27.59.4.89c.15.34.32.75.52,1.24s.39,1,.6,1.54.43,1.17.68,1.88.49,1.43.72,2.18c.22-.72.46-1.43.7-2.13s.47-1.32.68-1.86.41-1.06.6-1.54.37-.9.53-1.25l.41-.9.29-.59.11-.23a1.14,1.14,0,0,1,.51-.54,2.17,2.17,0,0,1,.91-.15,1.11,1.11,0,0,1,.81.26,1.14,1.14,0,0,1,.27.72l0,.66q0,.64.06,1.76c0,.74.05,1.59.08,2.56s.06,2,.09,3.22.06,2.37.08,3.58,0,2.47.06,3.79,0,2.56,0,3.71a.89.89,0,0,1-.34.77,1.46,1.46,0,0,1-.87.25,1.79,1.79,0,0,1-1-.25.84.84,0,0,1-.39-.77q0-5.92-.25-13.24c-.08.18-.21.53-.4,1l-.46,1.21q-.17.43-.42,1.14c-.17.47-.33.94-.47,1.41s-.28,1-.42,1.46a1.13,1.13,0,0,1-1.24,1,1.22,1.22,0,0,1-1.27-1c-.17-.61-.35-1.23-.56-1.86s-.38-1.14-.53-1.54-.34-.9-.57-1.51-.4-1-.49-1.33q-.36,8.73-.4,13.24a1,1,0,0,1-.29.7,1.73,1.73,0,0,1-2,0,.88.88,0,0,1-.28-.69ZM110.29,43s0-.5.06-1.42.06-2.21.09-3.85,0-3.21,0-4.73q0-.81,0-1.61l0-1.49c0-.46,0-.9,0-1.34l0-1.18,0-1,0-.82,0-.59v-.38l0-.15v-.11a1.33,1.33,0,0,1,1.29-1.24h1l1.57,0a9.46,9.46,0,0,1,1.53.13,6.61,6.61,0,0,1,1.43.39,4.44,4.44,0,0,1,2,1.64,5.75,5.75,0,0,1,.75,2.93,5.78,5.78,0,0,1,0,.65,11.45,11.45,0,0,1-.16,2.13,4.56,4.56,0,0,1-1.08,2.16,3.18,3.18,0,0,1,.86.61,5.9,5.9,0,0,1,1.5,4.4c0,2.29-.5,3.91-1.5,4.88a4.92,4.92,0,0,1-3,1.32,19.36,19.36,0,0,1-2,.1c-.63,0-1.12,0-1.45,0h-1.48a1.45,1.45,0,0,1-.95-.4,1.41,1.41,0,0,1-.37-1ZM113,25.69q.13,2.64.13,6.3,3.11,0,3.75-.69a4.45,4.45,0,0,0,.51-2.66v-.37a3.37,3.37,0,0,0-.35-1.56,1.71,1.71,0,0,0-.81-.69,6.73,6.73,0,0,0-2.58-.34l-.65,0Zm0,16.12,1.56,0,.65,0a6.7,6.7,0,0,0,1.57-.16,2,2,0,0,0,1-.5,4.42,4.42,0,0,0,.75-3,3.53,3.53,0,0,0-.72-2.51q-1-1-4.34-1h-.32q0,4.09-.13,7.18Zm9.5,1.42c0-.07.08-.44.25-1.11l.79-3.23,1.17-4.8.72-3c.26-1,.51-2,.76-2.81s.48-1.58.69-2.27.38-1.22.5-1.59l.19-.58a1.17,1.17,0,0,1,1.1-.76h.14a1.09,1.09,0,0,1,1.18.82q.38,1.24,1.17,4.5t1.38,6l.87,4.53L134,42.2c.13.66.19,1,.19,1l0,.26a.94.94,0,0,1-.21.61,1.15,1.15,0,0,1-.81.38H133a1.37,1.37,0,0,1-.77-.21,1,1,0,0,1-.51-.76q-.23-1.49-1.4-7.23l-3.68.16-.86,3.75-.58,2.52c-.12.51-.18.78-.18.8a1,1,0,0,1-.56.8,1.41,1.41,0,0,1-.61.13,2.15,2.15,0,0,1-.43,0c-.64-.12-1-.43-1-.94l0-.26Zm4.74-9.39,2.58-.11q-.63-2.85-1.15-4.88Q127.87,31.23,127.2,33.84Zm15.74-9.38a1.27,1.27,0,0,1,.37-.94,1.15,1.15,0,0,1,.91-.4h1.31l1.23,0,1.09,0,.95,0,.72,0H150l.18,0h0a.72.72,0,0,1,.65.32,1.75,1.75,0,0,1,.27.93v.14a1.65,1.65,0,0,1-.18.8.76.76,0,0,1-.7.37l-.13,0h-.37l-.56,0h-.73l-.86,0-1,0h-1.07q.13,2.58.13,6.06l3.33-.08a.92.92,0,0,1,.78.35,1.5,1.5,0,0,1,.27.93,1.71,1.71,0,0,1-.25,1,.84.84,0,0,1-.74.37l-3.4.07c0,.49,0,1,0,1.52l0,1.48,0,1.39,0,1.29,0,1.13,0,.95v1.18l0,.18a.92.92,0,0,1-.28.66,1.39,1.39,0,0,1-1,.29,1.23,1.23,0,0,1-1-.34,1,1,0,0,1-.25-.72l0-.19v-.55l0-.83,0-1.09,0-1.28c0-.45,0-.94,0-1.46l0-1.57V34.7c0-.57,0-1.13,0-1.66s0-1.07,0-1.6V29.94l0-1.34,0-1.19,0-1,0-.83,0-.6v-.52Zm9.86,8.69a18,18,0,0,1,1-6.67,6.22,6.22,0,0,1,1.76-2.54,4.47,4.47,0,0,1,3-1.08q3.35,0,4.77,3.5a18,18,0,0,1,1,6.8,26.52,26.52,0,0,1-.75,7.34q-1.3,4.13-5,4.13a4.7,4.7,0,0,1-3.27-1.14,6.08,6.08,0,0,1-1.74-2.8,26.28,26.28,0,0,1-.78-7.52Zm2.58,0a23.13,23.13,0,0,0,.71,6.93,2.56,2.56,0,0,0,2.5,2,2.39,2.39,0,0,0,1.48-.48,3.72,3.72,0,0,0,1.09-1.87,24.3,24.3,0,0,0,.62-6.55,16.35,16.35,0,0,0-.78-5.82,2.58,2.58,0,0,0-2.41-1.91q-1.58,0-2.39,2a15.24,15.24,0,0,0-.82,5.68Zm11.26,0a17.91,17.91,0,0,1,1-6.67,6.21,6.21,0,0,1,1.75-2.54,4.47,4.47,0,0,1,3-1.08q3.35,0,4.77,3.5a18,18,0,0,1,1,6.8,26.62,26.62,0,0,1-.75,7.34q-1.31,4.13-5,4.13a4.7,4.7,0,0,1-3.27-1.14,6.11,6.11,0,0,1-1.74-2.8,26.32,26.32,0,0,1-.78-7.52Zm2.59,0a23.19,23.19,0,0,0,.71,6.93,2.55,2.55,0,0,0,2.49,2,2.38,2.38,0,0,0,1.47-.48A3.73,3.73,0,0,0,175,39.7a24.43,24.43,0,0,0,.62-6.55,16.33,16.33,0,0,0-.78-5.82,2.58,2.58,0,0,0-2.41-1.91q-1.58,0-2.39,2a15.24,15.24,0,0,0-.81,5.68Zm11.91-8.74a1.25,1.25,0,0,1,.37-.92,2,2,0,0,1,1.44-.43,11.41,11.41,0,0,1,3.33.43,6.7,6.7,0,0,1,2.84,1.64q2.44,2.42,2.58,7.88c0,.53,0,1,0,1.51a22.18,22.18,0,0,1-.3,3.93,7,7,0,0,1-1.76,3.8,6.13,6.13,0,0,1-3,1.71,13.11,13.11,0,0,1-2.28.37l-1.42.08-.35,0a1.54,1.54,0,0,1-1-.4,1.38,1.38,0,0,1-.37-.94V43q.11-3.61.11-7c0-.92,0-1.82,0-2.71l0-2,0-1.85,0-1.62,0-1.4,0-1.06v-1Zm2.61,1.29c0,.31,0,.93,0,1.85l.07,2.85q0,1.48,0,2.83V35q0,2.82-.06,6.79a6,6,0,0,0,4-1.29,5,5,0,0,0,1.1-2.58,19.14,19.14,0,0,0,.22-3.45q0-.65,0-1.35Q189,28.64,187.3,27a5.4,5.4,0,0,0-3.56-1.29Z"/>
        </g>
    </g>
</svg>