<?xml version="1.0" encoding="utf-8"?>
<!-- Generator: Adobe Illustrator 21.0.0, SVG Export Plug-In . SVG Version: 6.00 Build 0)  -->
<svg version="1.1" id="Layer_1" xmlns="http://www.w3.org/2000/svg" xmlns:xlink="http://www.w3.org/1999/xlink" x="0px" y="0px"
	 viewBox="0 0 193 61" style="enable-background:new 0 0 193 61;" xml:space="preserve">
<style type="text/css">
	.st0{fill:#FDFEFF;}
	.st1{fill:#D90069;}
	.st2{fill:#B2B9C3;}
</style>
<path class="st0" d="M-14,100.5l-2.9,26.4h-0.9c-0.7,1.5-3.6,2.8-14.5,2.8c-3.6,0-8-0.3-13.5-0.9c2.4,0.5,4.9,0.8,7.4,1
	c-4.5-0.3-8.7-1.1-11.3-2.2c-1.3-2.4-2.1-7.1-2.7-12.5l0.1,0.2c-0.2-2.3-0.5-5.3-0.7-8.1l0,0l0-0.4c-0.1-0.9-0.1-1.8-0.1-2.6
	c-0.1-2.9-0.2-5.7-0.2-8.1c0.3,0,0.6,0,1-0.1c1.5,0.6,4,1.6,7.2,2c2.4-0.1,5.1-0.1,6,0.1c1.6,0.3,4.1,1,7.4,1.2
	c3.3,0.1,6.8-0.8,9.3-0.8c2.4-0.1,6.2-0.5,6.9-0.4C-14.8,98-14,100.5-14,100.5z M-14,100.5L-14,100.5L-14,100.5L-14,100.5z
	 M-16.8,75c-0.7-0.2-2.7-0.6-3.9-0.4c-3.8,0.4-5.3,0.6-6.7,0.6c-0.7,0-1.5-0.2-2.5-0.7c-1.4-0.8-5.7-2.7-7.3-2.9
	c-2.2-0.3-4.1-0.5-6-0.5h-0.3c-14.7,0-17.7,9.4-17.7,15.3c0,4,1.4,6.8,7.8,8.8h0c10.6,3.7,14.2,1.2,14.2,1.2l0,0l0,0
	c1.6,1.3,4.1,2,6.5,2c3.6,0,7.1-1.6,7-5.3c2.7,1.3,5,1.9,7,1.9c6.3,0,9.5-5.6,9.5-10.5C-9,81.7-11,76.6-16.8,75z"/>
<path class="st1" d="M-26.9,105.1c-2.1,0-4.6,1.1-5.5,1.6c-0.7-1-2.1-1.6-3.8-1.6c-0.3,0-0.6,0-0.9,0.1c-2.2,0.2-2.9,0.1-4.3-0.2
	c-1.6-0.3-3-2.8-3.1-4c-1.1,1.8-0.8,3.9,0.4,5.3v14.6h3.7v-12c0,0,1.7-1,3.1-1c1.7,0,2.2,1.8,2.2,3.5c1.3-1.2,2.4-2,3.5-2.6
	c0.7-0.3,1.9-0.8,3.2-0.8c2.5,0,2.7,2.4,2.7,5.3v7.6l1.2,0h2.4v-8C-22.1,108.5-22.7,105.1-26.9,105.1L-26.9,105.1z M-28,116.5
	c-0.2-1-2.1-3.3-3.7-0.2C-30.4,115-29.1,115.1-28,116.5z M-27.5,117.6c-0.7,6.4-3.2,8-4.6,8.4c-0.3,0.1-0.6,0.1-0.9,0.1
	c-2.1,0-4.2-1.6-4.8-3.6c0-0.1,0-0.2,0.1-0.3c0.1-0.1,0.2-0.1,0.3-0.1c0,0,0.5,0.2,1.2,0.2c1.5,0,4.6-0.6,8.1-4.9
	c0.1-0.1,0.2-0.1,0.3-0.1C-27.6,117.4-27.5,117.5-27.5,117.6L-27.5,117.6z M-31.4,122.5c-0.3,0.2-0.8,0.6-1.4,1.3
	c0.1-0.6,0.3-1,0.5-1.2c-1.8,0.4-3.7,1.8-3.7,1.8c2.5,1.9,5.3,0.5,6-1.2C-30.3,122.7-30.8,122.5-31.4,122.5L-31.4,122.5z M-35,116.4
	c0-0.1,0.1-0.2,0.1-0.4c0-0.9-0.7-1.6-1.6-1.6s-1.6,0.7-1.6,1.6c0,0.3,0.1,0.5,0.2,0.7C-37.1,116.4-36,116-35,116.4L-35,116.4z"/>
<path class="st2" d="M-5.1,87l-0.1-0.9c-0.2-2.5-1.6-5-4-7.2c-1.9-1.7-4.5-3-7.7-3.8c5.7,2,7.8,6.6,7.8,9.4c0,5-3.2,10.5-9.5,10.5
	c-2,0-4.4-0.6-7-1.9c0,3.7-3.4,5.3-7,5.3c-2,0-3.9-0.5-5.5-1.3c-0.5-0.3-0.8-0.6-1-0.9c-1.2,0.6-2.6,1.1-4,1.1c-3,0-6.3-1-7.8-1.4
	c-0.8-0.2-1.6-0.4-2.3-0.6l0,0l0,0.8c4.8,1.4,8.8,2.9,18.9,4c0,0,1.7,0.1,2.5,0.1c2,0,3.8-0.2,5.3-0.7c3-0.9,5.6-1.2,7.7-1.2
	c1.4,0,2.5,0.1,3.4,0.3c0.3,0.1,1.2,12.1-2.1,27.7c-0.1,0.3-1.3,3.4-14.7,3.4c-3.6,0-8-0.2-13.5-0.8c2.4,0.5,4.9,0.8,7.4,1
	c2,0.1,4,0.2,6,0.2c3.1,0,6-0.2,8.7-0.5c3.3-0.4,6-1.1,7.5-1.9c1.7-8.7,2.5-21.6,2.8-30.4l-0.5,0c-0.9,0-1.8-0.1-2.8-0.2
	c-1.7-0.2-3.7-0.6-5.8-1.2l0,0c0,0,0,0,0,0c2.2,0.6,4.1,1,5.8,1.2c1,0.1,1.9,0.2,2.8,0.2l0.5,0h0.1c1.2,0,2.2-0.2,3.1-0.5
	C-6.3,95.5-4.8,92.6-5.1,87z M6.4,114.6l0-0.3l0-0.8l0-1.1l0-1.5c0-0.5,0-1.1,0-1.8c0-0.6,0-1.3,0-2v-2.1c0-1.5,0-3,0-4.4
	c0-1.5,0-2.7-0.1-3.6c0-0.9,0-1.5,0-1.6c0-0.6,0.3-0.9,0.9-1.1c0.2,0,0.3,0,0.5,0c0.5,0,0.8,0.2,1,0.6c0,0,0.3,0.5,0.7,1.4
	c0.4,0.9,1,2.1,1.7,3.5c0.7,1.5,1.3,2.8,1.9,3.9c0.5,1,1,2.2,1.5,3.5c0-0.5,0-1.3,0-2.4c0-1.1,0-1.8,0-2.3c0-0.8,0-1.5,0-2.3
	c0-0.8,0-1.4,0-2l0-1.5l0-1.1l0-0.4c0-0.3,0.1-0.6,0.4-0.7c0.2-0.1,0.5-0.2,0.8-0.2H16c0.4,0,0.7,0.1,0.9,0.3
	c0.2,0.2,0.3,0.4,0.3,0.8l0,0.1v0.3l0,0.5c0,0.2,0,0.4,0,0.7l0,0.8l0,1c0,0.4,0,0.7,0,1.1l0,1.2c0,0.4,0,0.9,0,1.3c0,1.5,0,3.1,0,5
	c0,1.9,0.1,3.5,0.1,4.8c0,1.3,0,2,0,2.1c0,0.2,0,0.3,0,0.4c0,0.1-0.1,0.2-0.1,0.3c-0.1,0.1-0.2,0.2-0.3,0.3
	c-0.1,0.1-0.3,0.1-0.5,0.1h-0.1c-0.4,0-0.7-0.1-0.9-0.2c-0.2-0.1-0.4-0.3-0.5-0.7c0,0-0.2-0.4-0.5-1.2c-0.3-0.8-0.6-1.7-1-2.5
	c-0.3-0.9-0.7-1.9-1.2-3.1c-0.5-1.2-0.9-2.2-1.3-3.1c-0.5-1.2-1.1-2.4-1.6-3.4c0,0.8,0,2,0,3.8c0,0.5,0,1.1,0,1.7l0,1.6
	c0,0.5,0,1,0,1.5c0,0.5,0,0.9,0,1.3l0,1.2l0,1l0,0.7v0.5l0,0.2c0,0.1,0,0.2-0.1,0.3c0,0.1-0.1,0.2-0.2,0.3c-0.1,0.1-0.2,0.2-0.4,0.2
	c-0.2,0-0.4,0.1-0.7,0.1c-0.3,0-0.5,0-0.7-0.1c-0.2-0.1-0.3-0.1-0.4-0.2c-0.1-0.1-0.1-0.2-0.2-0.3C6.4,114.8,6.4,114.7,6.4,114.6
	L6.4,114.6z M19.7,114.4c0-0.1,0.1-0.4,0.2-1.1l0.8-3.2l1.2-4.8c0.2-0.9,0.5-1.9,0.7-3c0.3-1,0.5-2,0.8-2.8c0.2-0.8,0.5-1.6,0.7-2.3
	c0.2-0.7,0.4-1.2,0.5-1.6l0.2-0.6c0.1-0.4,0.5-0.7,1.1-0.8h0.1c0.6,0,1,0.3,1.2,0.8c0.3,0.8,0.6,2.3,1.2,4.5c0.5,2.2,1,4.2,1.4,6
	c0.3,1.6,0.6,3.1,0.9,4.5c0.3,1.5,0.5,2.5,0.6,3.2c0.1,0.7,0.2,1,0.2,1l0,0.3c0,0.2-0.1,0.4-0.2,0.6c-0.2,0.2-0.5,0.4-0.8,0.4
	l-0.2,0c-0.3,0-0.5-0.1-0.8-0.2c-0.3-0.2-0.5-0.5-0.5-0.8c-0.2-1-0.6-3.4-1.4-7.2l-3.7,0.2c-0.3,1.3-0.6,2.6-0.9,3.8l-0.6,2.5
	c-0.1,0.5-0.2,0.8-0.2,0.8c-0.1,0.4-0.3,0.7-0.6,0.8c-0.2,0.1-0.4,0.1-0.6,0.1c-0.1,0-0.3,0-0.4,0c-0.6-0.1-1-0.4-1-0.9L19.7,114.4
	L19.7,114.4z M24.5,105l2.6-0.1c-0.4-1.9-0.8-3.5-1.1-4.9C25.4,101.6,24.9,103.3,24.5,105z M33.5,114.6c0-1.1,0-2.4,0-3.7
	c0-1.3,0.1-2.6,0.1-3.8l0.1-3.6c0-1.2,0.1-2.3,0.1-3.2l0.1-2.6c0-0.7,0.1-1.3,0.1-1.8l0-0.6c0-0.3,0.1-0.5,0.3-0.7
	c0.2-0.2,0.4-0.3,0.7-0.3h0.2c0.7,0,1.2,0.2,1.4,0.7l0.1,0.2l0.3,0.6l0.4,0.9c0.2,0.3,0.3,0.8,0.5,1.2c0.2,0.5,0.4,1,0.6,1.5
	c0.2,0.5,0.4,1.2,0.7,1.9c0.3,0.7,0.5,1.4,0.7,2.2c0.2-0.7,0.5-1.4,0.7-2.1c0.2-0.7,0.5-1.3,0.7-1.9c0.2-0.5,0.4-1.1,0.6-1.5
	c0.2-0.5,0.4-0.9,0.5-1.2l0.4-0.9l0.3-0.6l0.1-0.2c0.1-0.3,0.3-0.4,0.5-0.5c0.2-0.1,0.5-0.2,0.9-0.2c0.4,0,0.7,0.1,0.8,0.3
	c0.2,0.2,0.2,0.4,0.3,0.7l0,0.7c0,0.4,0,1,0.1,1.8c0,0.7,0.1,1.6,0.1,2.6c0,1,0.1,2,0.1,3.2c0,1.2,0.1,2.4,0.1,3.6
	c0,1.2,0,2.5,0.1,3.8c0,1.3,0,2.6,0,3.7c0,0.3-0.1,0.6-0.3,0.8c-0.2,0.2-0.5,0.2-0.9,0.2c-0.4,0-0.7-0.1-1-0.2
	c-0.3-0.2-0.4-0.4-0.4-0.8c0-3.9-0.1-8.4-0.3-13.2c-0.1,0.2-0.2,0.5-0.4,1l-0.5,1.2c-0.1,0.3-0.3,0.7-0.4,1.1
	c-0.2,0.5-0.3,0.9-0.5,1.4c-0.1,0.5-0.3,1-0.4,1.5c-0.1,0.4-0.3,0.6-0.5,0.8c-0.2,0.1-0.5,0.2-0.8,0.2c-0.7,0-1.1-0.3-1.3-1
	c-0.2-0.6-0.4-1.2-0.6-1.9c-0.2-0.6-0.4-1.1-0.5-1.5c-0.1-0.4-0.3-0.9-0.6-1.5c-0.2-0.6-0.4-1-0.5-1.3c-0.2,5.8-0.4,10.2-0.4,13.2
	c0,0.2-0.1,0.5-0.3,0.7c-0.2,0.2-0.5,0.3-1,0.3c-0.5,0-0.8-0.1-1-0.3C33.6,115,33.5,114.8,33.5,114.6L33.5,114.6z M49.2,114.2
	c0,0,0-0.5,0.1-1.4c0-0.9,0.1-2.2,0.1-3.8c0-1.6,0-3.2,0-4.7c0-0.5,0-1.1,0-1.6l0-1.5c0-0.5,0-0.9,0-1.3l0-1.2l0-1l0-0.8l0-0.6
	l0-0.4l0-0.1v-0.1c0-0.3,0.1-0.6,0.4-0.8c0.2-0.3,0.5-0.4,0.9-0.4h1c0.6,0,1.1,0,1.6,0c0.5,0,1,0,1.5,0.1c0.5,0.1,1,0.2,1.4,0.4
	c0.9,0.4,1.5,0.9,2,1.6c0.5,0.7,0.7,1.7,0.7,2.9c0,0.2,0,0.4,0,0.6c0,0.9-0.1,1.6-0.2,2.1c-0.2,0.9-0.6,1.6-1.1,2.2
	c0.3,0.2,0.6,0.4,0.9,0.6c1,1,1.5,2.4,1.5,4.4c0,2.3-0.5,3.9-1.5,4.9c-0.7,0.7-1.7,1.2-3,1.3c-0.6,0.1-1.3,0.1-2,0.1
	c-0.6,0-1.1,0-1.4,0h-1.5c-0.3,0-0.6-0.1-0.9-0.4C49.4,114.9,49.2,114.6,49.2,114.2L49.2,114.2z M51.9,96.9c0.1,1.8,0.1,3.9,0.1,6.3
	c2.1,0,3.3-0.3,3.7-0.7c0.3-0.4,0.5-1.3,0.5-2.7v-0.4c0-0.7-0.2-1.2-0.3-1.6c-0.2-0.3-0.5-0.6-0.8-0.7c-0.5-0.2-1.3-0.3-2.6-0.3
	L51.9,96.9L51.9,96.9z M51.9,113c0.6,0,1.1,0,1.6,0l0.7,0c0.6,0,1.1-0.1,1.6-0.2c0.4-0.1,0.8-0.3,1-0.5c0.5-0.5,0.7-1.5,0.7-3
	c0-1.2-0.2-2-0.7-2.5c-0.7-0.7-2.1-1-4.3-1H52C52,108.5,52,110.9,51.9,113L51.9,113z M61.4,114.4c0-0.1,0.1-0.4,0.2-1.1l0.8-3.2
	c0.4-1.5,0.8-3.1,1.2-4.8l0.7-3c0.3-1,0.5-2,0.8-2.8c0.2-0.8,0.5-1.6,0.7-2.3c0.2-0.7,0.4-1.2,0.5-1.6l0.2-0.6
	c0.1-0.4,0.5-0.7,1.1-0.8h0.1c0.6,0,1,0.3,1.2,0.8c0.3,0.8,0.6,2.3,1.2,4.5c0.5,2.2,1,4.2,1.4,6c0.3,1.6,0.6,3.1,0.9,4.5l0.6,3.2
	c0.1,0.7,0.2,1,0.2,1l0,0.3c0,0.2-0.1,0.4-0.2,0.6c-0.2,0.2-0.5,0.4-0.8,0.4l-0.2,0c-0.3,0-0.5-0.1-0.8-0.2
	c-0.3-0.2-0.5-0.5-0.5-0.8c-0.2-1-0.6-3.4-1.4-7.2l-3.7,0.2c-0.3,1.3-0.6,2.6-0.9,3.8l-0.6,2.5c-0.1,0.5-0.2,0.8-0.2,0.8
	c-0.1,0.4-0.3,0.7-0.6,0.8c-0.2,0.1-0.4,0.1-0.6,0.1c-0.1,0-0.3,0-0.4,0c-0.6-0.1-1-0.4-1-0.9L61.4,114.4L61.4,114.4z M66.1,105
	l2.6-0.1c-0.4-1.9-0.8-3.5-1.1-4.9C67.1,101.6,66.6,103.3,66.1,105z M81.9,95.6c0-0.4,0.1-0.7,0.4-0.9c0.2-0.3,0.5-0.4,0.9-0.4
	l1.3,0l1.2,0l1.1,0l0.9,0l0.7,0l0.5,0l0.2,0h0c0.3,0,0.5,0.1,0.6,0.3c0.2,0.2,0.3,0.5,0.3,0.9v0.1c0,0.3-0.1,0.6-0.2,0.8
	c-0.1,0.2-0.4,0.4-0.7,0.4l-0.1,0l-0.4,0l-0.6,0l-0.7,0l-0.9,0l-1,0l-1.1,0c0.1,1.7,0.1,3.7,0.1,6.1l3.3-0.1c0.3,0,0.6,0.1,0.8,0.4
	c0.2,0.2,0.3,0.5,0.3,0.9c0,0.4-0.1,0.7-0.2,1c-0.2,0.2-0.4,0.4-0.7,0.4l-3.4,0.1c0,0.5,0,1,0,1.5l0,1.5l0,1.4l0,1.3l0,1.1l0,0.9
	l0,0.7l0,0.5l0,0.2c0,0.2-0.1,0.5-0.3,0.7c-0.2,0.2-0.5,0.3-1,0.3c-0.5,0-0.8-0.1-1-0.3c-0.2-0.2-0.3-0.5-0.2-0.7l0-0.2l0-0.6l0-0.8
	l0-1.1l0-1.3c0-0.4,0-0.9,0-1.5l0-1.6l0-1.7c0-0.6,0-1.1,0-1.7c0-0.5,0-1.1,0-1.6l0-1.5l0-1.3l0-1.2l0-1l0-0.8l0-0.6l0-0.4
	L81.9,95.6L81.9,95.6z M91.7,104.3c0-2.8,0.3-5,1-6.7c0.4-1.1,1-1.9,1.8-2.5c0.8-0.7,1.8-1.1,3-1.1c2.2,0,3.8,1.2,4.8,3.5
	c0.7,1.6,1,3.8,1,6.8c0,3.3-0.2,5.7-0.8,7.3c-0.9,2.8-2.5,4.1-5,4.1c-1.3,0-2.4-0.4-3.3-1.1c-0.8-0.6-1.3-1.6-1.7-2.8
	C92,110.2,91.7,107.7,91.7,104.3L91.7,104.3z M94.3,104.3c0,3.3,0.2,5.6,0.7,6.9c0.5,1.3,1.3,2,2.5,2c0.6,0,1-0.2,1.5-0.5
	c0.4-0.3,0.8-0.9,1.1-1.9c0.4-1.3,0.6-3.5,0.6-6.6c0-2.6-0.3-4.5-0.8-5.8c-0.5-1.3-1.3-1.9-2.4-1.9c-1.1,0-1.8,0.7-2.4,2
	C94.6,99.9,94.3,101.8,94.3,104.3L94.3,104.3z M105.6,104.3c0-2.8,0.3-5,1-6.7c0.4-1.1,1-1.9,1.8-2.5c0.8-0.7,1.8-1.1,3-1.1
	c2.2,0,3.8,1.2,4.8,3.5c0.7,1.6,1,3.8,1,6.8c0,3.3-0.2,5.7-0.7,7.3c-0.9,2.8-2.5,4.1-5,4.1c-1.3,0-2.4-0.4-3.3-1.1
	c-0.8-0.6-1.3-1.6-1.7-2.8C105.8,110.2,105.6,107.7,105.6,104.3L105.6,104.3z M108.2,104.3c0,3.3,0.2,5.6,0.7,6.9
	c0.5,1.3,1.3,2,2.5,2c0.6,0,1-0.2,1.5-0.5c0.4-0.3,0.8-0.9,1.1-1.9c0.4-1.3,0.6-3.5,0.6-6.6c0-2.6-0.3-4.5-0.8-5.8
	c-0.5-1.3-1.3-1.9-2.4-1.9c-1.1,0-1.8,0.7-2.4,2C108.4,99.9,108.2,101.8,108.2,104.3L108.2,104.3z M120.1,95.6
	c0-0.4,0.1-0.7,0.4-0.9c0.2-0.3,0.7-0.4,1.4-0.4c1.3,0,2.4,0.1,3.3,0.4c1.1,0.3,2,0.9,2.8,1.6c1.6,1.6,2.5,4.2,2.6,7.9
	c0,0.5,0,1,0,1.5c0,1.5-0.1,2.8-0.3,3.9c-0.3,1.7-0.9,2.9-1.8,3.8c-0.8,0.8-1.8,1.4-3,1.7c-0.7,0.2-1.5,0.3-2.3,0.4
	c-0.6,0-1.1,0.1-1.4,0.1l-0.3,0c-0.5,0-0.8-0.2-1-0.4c-0.2-0.3-0.4-0.6-0.4-0.9v-0.1c0.1-2.4,0.1-4.7,0.1-7c0-0.9,0-1.8,0-2.7l0-2
	l0-1.8l0-1.6l0-1.4l0-1.1l0-0.7L120.1,95.6L120.1,95.6z M122.7,96.9c0,0.3,0,0.9,0,1.8l0.1,2.9c0,1,0,1.9,0,2.8v1.8
	c0,1.9,0,4.1-0.1,6.8c1.9-0.1,3.2-0.5,4-1.3c0.5-0.6,0.9-1.4,1.1-2.6c0.2-0.9,0.2-2,0.2-3.4c0-0.4,0-0.9,0-1.4c-0.1-3-0.7-5-1.8-6.1
	C125.5,97.4,124.3,97,122.7,96.9L122.7,96.9z"/>
</svg>
