<?xml version="1.0" encoding="utf-8"?>
<!-- Generator: Adobe Illustrator 19.1.0, SVG Export Plug-In . SVG Version: 6.00 Build 0)  -->
<svg version="1.1" id="Layer_1" xmlns="http://www.w3.org/2000/svg" xmlns:xlink="http://www.w3.org/1999/xlink" x="0px" y="0px"
	 viewBox="526 373.5 897 729.8" style="enable-background:new 526 373.5 897 729.8;" xml:space="preserve">
<style type="text/css">
	.st0{fill:#FF0013;}
</style>
<path class="st0" d="M1255.1,499.1L975,627.2L694.8,499.1c-19.7-10.6-46.8,4.7-46.8,32.1v534.3c0,20.5,12.3,37.2,28.9,37.7
	c0.8,0.1,1.6,0.1,2.3-0.1h0.4c0.4-0.1,0.8-0.1,1.3-0.1l183.6-19.1l0,0l110-11.4l204.3,21.3l0-0.2l90.2,9.4c0.4,0.1,0.8,0.1,1.3,0.1
	h0.4c0.7,0.1,1.5,0.1,2.3,0.1c16.6-0.5,28-17.1,28-37.6V531.1C1301,503.7,1274.8,488.5,1255.1,499.1z"/>
</svg>
