<svg version="1.1" id="Capa_1" xmlns="http://www.w3.org/2000/svg" xmlns:xlink="http://www.w3.org/1999/xlink" x="0px" y="0px"
	 viewBox="0 0 97.6 97.6" style="enable-background:new 0 0 97.6 97.6;" xml:space="preserve">
<path d="M93,46.5c-0.4,0.3-0.8,0.5-1.1,0.8V9.5C91.8,4.2,87.9,0,83,0H14.6C9.8,0,5.8,4.2,5.8,9.5v37.8C5.4,47,5,46.7,4.6,46.5
	c-2.9-2-4.8,0.7-3,3.4c3.5,4.3,10.1,9.6,20.2,13.7C11.1,100.1,48,105.9,47.5,87.2c0,0.3,0-10.6,0-18.4c1,0.2,1.8,0.5,2.6,0.6
	c0,7.7,0,18.1,0,17.8c-0.6,18.7,36.4,12.9,25.6-23.6c10.1-4.2,16.8-9.5,20.2-13.7C97.8,47.2,95.9,44.4,93,46.5z M56.5,55.8
	c-4.5-0.2-6.2,1.7-6.4,4.7c-1.1-0.8-2.2-1.7-3.3-2.7c-0.2-0.2-0.4-0.3-0.5-0.5c-1-1-2.6-1.6-5.2-1.5C35,56,23.9,57.2,11,50.4V13.8
	C11,7.1,12.7,5,18.8,5h60.6c5.8,0,7.8,2.5,7.8,8.7v36.3C74,57.2,62.7,56,56.5,55.8z M63.1,29.3c-6.5,0-11.8,4.9-11.8,11
	s5.3,11,11.8,11c6.5,0,11.8-4.9,11.8-11S69.6,29.3,63.1,29.3z M35.8,29.3c6.5,0,11.8,4.9,11.8,11s-5.3,11-11.8,11S24,46.4,24,40.3
	S29.3,29.3,35.8,29.3z"/>
</svg>
