<svg xmlns="http://www.w3.org/2000/svg" id="stachka" width="160px" height="55px" viewBox="0 0 185 72">
    <path class="st-1"
          d="M0,0H72c0,11.71,0,23.43,0,35.14-6.2-5.95-11.86-12.49-18.59-17.86l-.69-1.12c-12.63,7.9-25.36,15.64-38,23.52L9,37.08c1.33,4.33,2.21,8.82,4,13C21,56.74,27.57,64.92,35.18,72H0Z"/>
    <path class="st-2"
          d="M52.72,16.16l.69,1.12Q57.22,31.47,61,45.68H41.37c-.55,2.45-1.21,5.91-4.32,6.16a103.7,103.7,0,0,1-16-.08c-3.08-.63-3.27-4.28-4-6.69-1.41,1.61-2.65,3.37-4,5-1.8-4.17-2.68-8.66-4-13l5.71,2.6C27.36,31.8,40.09,24.06,52.72,16.16ZM20.89,45.72c.18.68.56,2,.74,2.71,4.38.72,8.89.24,13.32.31,1.9.32,2.71-1.41,2.83-3C32.15,45.62,26.52,45.67,20.89,45.72Z"/>
    <path class="st-3"
          d="M53.41,17.28C60.14,22.65,65.8,29.19,72,35.14V72H35.18C27.57,64.92,21,56.74,13,50.07c1.4-1.63,2.64-3.39,4-5,.76,2.41,1,6.06,4,6.69a103.7,103.7,0,0,0,16,.08c3.11-.25,3.77-3.71,4.32-6.16H61Q57.23,31.48,53.41,17.28Z"/>
    <path class="st-3"
          d="M20.89,45.72c5.63,0,11.26-.1,16.89,0-.12,1.6-.93,3.33-2.83,3-4.43-.07-8.94.41-13.32-.31C21.45,47.76,21.07,46.4,20.89,45.72Z"/>
    <path class="st-4"
          d="M91.93,28.06c4.41-3.36,10.86-2.4,14.85,1.17l-2.11,2.33C102,29.41,98.21,28.32,95.05,30c-5,2.58-5.5,10.64-.77,13.74,3.38,2.41,8,1.1,10.72-1.64L107.58,44c-3.73,4.19-10.34,5.81-15.17,2.53C86,42.63,86,32.33,91.93,28.06ZM108,34.73h4.72q0,6.63,0,13.26H116V34.74l4.72,0,0-2.7q-6.37,0-12.76,0C108,32.69,108,34.05,108,34.73Zm16.71,1.16c3-.88,7.37-1.88,8.42,2.29-4.13-1.11-11-.64-11.43,4.87.45,5,7.16,6.26,10.61,3.44A4.82,4.82,0,0,0,136,48.21c-.21-4.19.71-8.61-.65-12.65-2.41-4.49-8.71-3.92-12.26-1.17Zm7.57,4.87,0,3.33c-2.33,1.48-7.48,2-7.29-1.94C126.4,39.42,129.87,39.85,132.29,40.76Zm8.7,1.17c2.14,2.07,5.29,1.79,8,1.64V48h3.26q0-8,0-16H149c0,3,0,6-.09,8.94-2.14,0-4.79.39-6.07-1.77-1.06-2.2-.45-4.8-.61-7.17H139C139.13,35.32,138.29,39.38,141,41.93ZM156,48h3.24c0-2.44-.18-5,.76-7.26,2.06,2.35,3.93,4.84,5.86,7.29l3.92-.07c-2.45-2.93-4.8-5.94-7.19-8.9,2.34-2.36,4.69-4.7,7-7.06h-4.28q-3,3.06-6.07,6.07,0-3,0-6.08H156Zm17.68-12c3.06-1.11,7.15-1.74,8.59,2.09-3.61-.34-8.38-1-10.77,2.46-1.86,2.6,0,6.24,2.88,7,2.27,1,4.67.09,6.82-.76,1.29.52,2.54,1.1,3.8,1.7V36.8c-1.95-5.47-8.71-5.38-12.9-2.69Zm7.59,4.77c0,.84,0,2.52,0,3.36-2.34,1.49-7.53,2-7.3-2C175.44,39.44,178.84,39.86,181.27,40.73Z"/>
</svg>