<svg xmlns="http://www.w3.org/2000/svg" viewBox="0 0 432 52.51">
    <defs>
        <style>.cls-1{fill:#00467e;}.cls-2{fill:#f68e1e;}.cls-3{fill:#fcfcfc;}</style>
    </defs>
    <title>techwomen</title>
    <g id="Layer_2" data-name="Layer 2">
        <g id="Layer_1-2" data-name="Layer 1">
            <path class="cls-1"
                  d="M235,20.29V33.73c0,4.44-1.22,8.53-4.52,11.74a15.22,15.22,0,0,1-6.5,3.67,24.38,24.38,0,0,1-13.24.18,14.37,14.37,0,0,1-5.4-2.76c-.39-.31-.64-.45-1.1-.07-3.63,3-8,3.71-12.48,3.63a20.86,20.86,0,0,1-8.6-1.87c-5.94-2.79-8.54-7.78-8.63-14.07-.14-9.55,0-19.11,0-28.67,0-1.28.33-1.61,1.65-1.62h8.4c1.44,0,1.74.33,1.74,1.79q0,13.56,0,27.11c0,2.31.51,4.46,2.74,5.6a7.56,7.56,0,0,0,7.46-.13c1.66-.94,2-2.68,2.22-4.42a34.46,34.46,0,0,0,.12-3.47V5.9c0-1.75.25-2,2-2h7.8c1.72,0,2,.31,2,2V31.81A14.64,14.64,0,0,0,211,35a4.7,4.7,0,0,0,4,4,10,10,0,0,0,3.22.09c3.22-.48,5-2.59,5-6q0-13.5,0-27c0-2.09.16-2.26,2.24-2.26h7.8c1.48,0,1.75.28,1.76,1.76Q235,13,235,20.29ZM342,48.56a1.27,1.27,0,0,1-1.43,1h-8.4c-1.23,0-1.52-.36-1.52-1.74V25a1.57,1.57,0,0,0-.69.87c-2,3.76-4.06,7.51-6,11.29a2.66,2.66,0,0,1-2.76,1.63c-1.91-.1-3.84-.08-5.76,0a2.55,2.55,0,0,1-2.58-1.52c-2.15-3.87-4.37-7.71-6.57-11.56l-.5-.85c0,.59-.06.92-.06,1.24V47.44c0,1.85-.3,2.14-2.16,2.14H296c-1.34,0-1.76-.38-1.76-1.67V5.67c0-1.34.37-1.72,1.7-1.72h8.76a2.6,2.6,0,0,1,2.57,1.55c3.22,5.88,6.5,11.73,9.76,17.58L318.11,25c.29-.48.53-.86.75-1.26,3.35-6,6.73-12.06,10-18.11a2.85,2.85,0,0,1,2.85-1.7c2.84.07,5.68,0,8.52,0,1.51,0,1.75.26,1.76,1.74V17c.29.52,0,1-.11,1.5a25.29,25.29,0,0,0,.12,16.3,3.77,3.77,0,0,1,.28,1.28,42.42,42.42,0,0,0-.2,6.43C342.06,44.5,342.22,46.53,342,48.56ZM264.49,3.27c7.53.19,13.87,2.54,18.91,7.93,9.57,10.24,8.24,31-9.3,37.3-9.91,3.55-19.25,2-27.22-5.17A21.18,21.18,0,0,1,240,27.88c-.59-14.58,10.51-24,23.32-24.55ZM390.72,31.68c.48-1.79,1-3.57,1.42-5.39a21.65,21.65,0,0,0-1.38-12.62c0-2.55,0-5.11.07-7.67,0-1.9.21-2.11,2.16-2.12,2.2,0,4.4.06,6.6,0a3.41,3.41,0,0,1,3.13,1.56q8.43,11.43,16.94,22.81l.91,1.21c.33-.36.18-.77.18-1.12V5.9c0-1.77.23-2,2-2h7.56c1.39,0,1.69.32,1.69,1.69V47.82c0,1.37-.33,1.7-1.67,1.71h-7.44a2.72,2.72,0,0,1-2.42-1.23q-8.8-11.83-17.64-23.63l-.71-.92V47.57c0,1.67-.28,2-2,2h-7.68c-.72,0-1.38-.06-1.58-.92a14.05,14.05,0,0,1-.06-2.63c.12-4.34-.2-8.67-.24-13A2.83,2.83,0,0,1,390.72,31.68Z"/>
            <path class="cls-2"
                  d="M342.07,35.89c-2.52-6.33-2.17-12.65,0-19a31.51,31.51,0,0,1,4.23-7.07A26.53,26.53,0,0,1,363.07.45,27,27,0,0,1,383.67,5a22.69,22.69,0,0,1,7.09,8.6c1.23,1.24,1.35,2.93,1.69,4.49,1,4.63.12,9.08-1.45,13.44a20.73,20.73,0,0,1-3,4.9,20,20,0,0,1-11,5.92c-.63.12-1.25.23-1.87.41-2,.45-4.1.21-6.14.38a18.38,18.38,0,0,1-6.69-1.31c-.52-.28-1-.55-1.56-.82a9.48,9.48,0,0,1-1.8-1.46c-.27-.28-.54-.55-.82-.82a7.75,7.75,0,0,1-1-1.63,15.84,15.84,0,0,1-1.5-6.48,29.54,29.54,0,0,1,1.62-11.07c1.53-4,3.84-7.37,8.1-8.93a10.85,10.85,0,0,1,6.36-.44c3.3.79,5.25,3,6.29,6.15a13.14,13.14,0,0,1,.63,2.68c0,.75.31,1.46.24,2.22a15.31,15.31,0,0,1-.2,3.62c0,.7-.17,1.39-.24,2.09A1.5,1.5,0,0,1,377,28.53H364.9c-.82.13-1.72-.33-2.47.3a3.2,3.2,0,0,0-.14,1.34v.68c0,.46.19.88.21,1.34a3,3,0,0,0,.37,1.27,4.49,4.49,0,0,0,.36.8c1.23,2.27,3.41,2.78,5.69,2.92a26.37,26.37,0,0,0,9.56-1.22,9.81,9.81,0,0,0,6.91-7.28c.94-3.44,1.44-6.88.29-10.37a17.7,17.7,0,0,0-1.08-2.74,18.23,18.23,0,0,0-2.64-3.8,16.11,16.11,0,0,0-2.51-2.2,18,18,0,0,0-9.67-3.62h-3.62c-.81.12-1.63.18-2.44.34a14.63,14.63,0,0,0-3.81,1.36,13.57,13.57,0,0,0-3.34,2.16,19,19,0,0,0-2.66,2.88,15.39,15.39,0,0,0-1.43,2.21,22.49,22.49,0,0,0-1.65,3.95,9.25,9.25,0,0,0-.48,1.73,19,19,0,0,0-.45,2.84,41.64,41.64,0,0,0-.13,5.79,20.49,20.49,0,0,0,.34,2.23,9.52,9.52,0,0,0,.48,1.72C353,40,357.77,44.22,364.9,45.72c.55.18,1.14.07,1.7.22a28.09,28.09,0,0,0,7.51-.37c.68-.11,1.35-.31,2-.47a26,26,0,0,0,4.62-1.74l.64-.29c.73-.13,1.3-.82,2.12-.61a1.34,1.34,0,0,1,.4.75c.06.27-.13.56.07.81a15.52,15.52,0,0,0,1,3.09c.12.24,0,.41-.17.58a3.33,3.33,0,0,1-.56.34c-.48.23-1,.47-1.44.73-.68.37-1.42.6-2.12.92a6.88,6.88,0,0,0-1.23.52c-.62.31-1.31.45-1.94.75-1,.38-2.07.63-3.11.93a10.83,10.83,0,0,0-1.26.26,12.73,12.73,0,0,0-1.51.27,9.46,9.46,0,0,1-1.85.09h-3.2a11,11,0,0,1-1.67-.08,38.8,38.8,0,0,1-6.18-1.2c-.69-.23-1.36-.53-2-.78a32.16,32.16,0,0,1-5.37-2.86c-1.09-.78-2.14-1.62-3.18-2.46a24.42,24.42,0,0,1-2.65-2.92c-.42-.56-.79-1.15-1.2-1.72a8.92,8.92,0,0,0-.81-1.17,8,8,0,0,1-.72-1.61,1.43,1.43,0,0,1-.26-.87C342.19,36.6,342.17,36.22,342.07,35.89ZM126,26.66V5.79c0-1.67.21-1.89,1.85-1.89H136c1.43,0,1.75.34,1.75,1.78V20.19c0,.81.18,1.09,1,1.08q7.62-.06,15.23,0c.83,0,1.08-.2,1.07-1.06V5.82c0-1.59.3-1.91,1.86-1.92h8.16c1.47,0,1.77.3,1.77,1.76v42.1c0,1.44-.33,1.77-1.76,1.78h-8.4c-1.26,0-1.63-.37-1.63-1.65v-15c0-.86-.17-1.15-1.1-1.14q-7.56.08-15.11,0c-.87,0-1.15.19-1.14,1.11V47.61c0,1.61-.29,1.91-1.86,1.91h-8.28c-1.29,0-1.62-.33-1.62-1.64Q126,37.28,126,26.66Zm-82.08,0v-21c0-1.44.32-1.78,1.75-1.78H77.34c1.43,0,1.75.34,1.75,1.77v7c0,1.46-.29,1.72-1.77,1.72H57.53c-2.16,0-1.77-.28-1.81,1.87,0,1.28.06,2.56,0,3.84-.06.94.21,1.22,1.18,1.21H73.09c2.32,0,2.49.17,2.49,2.53v6.36c0,1.27-.37,1.63-1.64,1.63h-17c-1,0-1.24.25-1.19,1.19q.12,2.46,0,4.92c-.11.92.25,1.12,1.17,1.12H77.07c1.77,0,2,.23,2,2v6.84c0,1.33-.3,1.68-1.57,1.68H45.58c-1.31,0-1.65-.37-1.65-1.75q0-10.56,0-21.11ZM107.4,3.33a29.43,29.43,0,0,1,11.69,2.58c1.41.64,1.57,1,.92,2.37-1.09,2.31-2.21,4.61-3.31,6.91-.62,1.3-.93,1.44-2.22.87a21.12,21.12,0,0,0-8.66-2,12,12,0,0,0-12,10.76c-.56,5.36.93,9.93,5.69,12.94,3.48,2.2,7.29,2,11.13,1.13a20.11,20.11,0,0,0,4.59-1.71c.83-.43,1.32-.2,1.7.62,1.15,2.5,2.33,5,3.51,7.48.39.83.45,1.53-.56,2C111,51,101.94,51.55,93,47.44c-6.31-2.89-9.76-8.2-11.07-14.89C80.65,26,81.3,19.7,85.07,14c4.29-6.45,10.52-9.71,18.1-10.57A17.48,17.48,0,0,1,107.4,3.33Zm-87.48.56H37.67c2,0,2.17.22,2.17,2.22v6.36c0,1.64-.3,1.92-2,1.91-3.64,0-7.28,0-10.91-.05-.85,0-1.17.18-1.17,1.13V47.72c0,1.53-.27,1.81-1.81,1.81H16c-1.78,0-2.09-.3-2.09-2.08V15.79c0-1.16-.28-1.47-1.41-1.45-3.64.06-7.28,0-10.91,0C.27,14.35,0,14.1,0,12.67v-7C0,4.18.27,3.9,1.81,3.9Z"/>
            <path class="cls-3"
                  d="M372,20a4.39,4.39,0,0,1,.15,2.4c-2.14.25-4.29,0-6.43.11-.68,0-.59-.37-.37-.78a8.38,8.38,0,0,1,2.32-2.38,3,3,0,0,1,4.21.49ZM264.68,14.4c7,0,12,5.24,12,12.44s-5.08,12.33-12,12.33A11.92,11.92,0,0,1,252.5,26.86C252.5,19.73,257.62,14.39,264.68,14.4Z"/>
        </g>
    </g>
</svg>