<svg xmlns="http://www.w3.org/2000/svg" viewBox="0 0 137.39 50.96">
    <defs>
        <style>.cls-1{fill:#3494d1;}.cls-2{fill:#ef7e6e;}.cls-3{fill:#3d3f45;}</style>
    </defs>
    <title>veeqo-logo</title>
    <g id="Layer_2" data-name="Layer 2">
        <g id="Layer_1-2" data-name="Layer 1">
            <path class="cls-1"
                  d="M126.52,41.48A21.58,21.58,0,1,0,90,22a23.73,23.73,0,1,1,26.78,25.3A21.48,21.48,0,0,0,126.52,41.48Z"/>
            <path class="cls-2"
                  d="M99,40.45a17.74,17.74,0,1,0,7.8-33.18A19.51,19.51,0,1,1,92.4,34,17.64,17.64,0,0,0,99,40.45Z"/>
            <path class="cls-3"
                  d="M119.13,19.37A11.8,11.8,0,0,0,114.69,15a12,12,0,0,0-6.07-1.64,11.43,11.43,0,0,0-7.91,3.15,11.83,11.83,0,0,0-3.92,9,11.88,11.88,0,0,0,3.47,8.6,11.36,11.36,0,0,0,8.38,3.54,12,12,0,0,0,6.1-1.61,11.72,11.72,0,0,0,4.37-4.46,12.32,12.32,0,0,0,1.6-6.12A12.14,12.14,0,0,0,119.13,19.37ZM108.69,31.69A5.3,5.3,0,0,1,104.62,30,6.37,6.37,0,0,1,103,25.45,6.25,6.25,0,0,1,104.64,21a5.31,5.31,0,0,1,4.07-1.72,5.43,5.43,0,0,1,4.11,1.7,6.29,6.29,0,0,1,1.61,4.47A6.33,6.33,0,0,1,112.8,30,5.36,5.36,0,0,1,108.69,31.69ZM0,14H7.39L12.8,25.1,18,14h6.6L12.53,37.43h-.26Zm34.62,17.8a8.44,8.44,0,0,0,5.87-2.2l4,4c-2,2.2-5,3.8-9.7,3.8-7.85,0-12.86-5.07-12.86-12a11.84,11.84,0,0,1,11.67-12h.53C42,13.43,46.5,19.77,46,27.7H28.76C29.41,30.23,31.33,31.83,34.62,31.83ZM39,23a4.69,4.69,0,0,0-5-4,5,5,0,0,0-5.28,4Zm20.43,8.8a8.44,8.44,0,0,0,5.87-2.2l4,4c-2,2.2-5,3.8-9.7,3.8-7.85,0-12.86-5.07-12.86-12a11.84,11.84,0,0,1,11.67-12h.53c7.91,0,12.4,6.33,11.87,14.27H53.57C54.22,30.23,56.14,31.83,59.43,31.83ZM63.85,23a4.69,4.69,0,0,0-5-4,5,5,0,0,0-5.28,4Zm25.28,11.2c-1.25,2-3.56,3.2-7,3.2-5.87,0-10.62-5.07-10.62-12s4.75-12,10.62-12c3.43,0,5.74,1.2,7,3.2V14h6.59V51H89.13Zm.13-8.8c0-3.73-2-6.13-5.41-6.13s-5.54,2.4-5.54,6.13,2.18,6.13,5.54,6.13S89.26,29.17,89.26,25.43Z"/>
        </g>
    </g>
</svg>