<svg xmlns="http://www.w3.org/2000/svg" width="160" height="62" viewBox="0 0 160 62">
    <g fill="#000" fill-rule="nonzero">
        <path d="M31.018 0A30.987 30.987 0 0 1 62.12 31.07c0 17.213-13.822 30.897-31.102 30.897S0 48.283 0 31.07 13.738 0 31.018 0zm0 53.36c12.355 0 22.464-9.982 22.464-22.29 0-12.221-10.11-22.463-22.464-22.463-12.27 0-22.378 10.242-22.378 22.463 0 12.308 10.109 22.29 22.378 22.29zM62.986 57.923L91.498 9.471v-.348H67.133a1.696 1.696 0 0 1-1.642-1.632V2.496c.03-.89.748-1.606 1.642-1.635h35.51c.894.03 1.612.744 1.642 1.635v1.116L75.68 52.845v.086h25.235c.436-.001.855.17 1.164.477.308.307.481.724.481 1.158v4.905c0 .433-.172.85-.48 1.156a1.643 1.643 0 0 1-1.162.479h-36.29a1.694 1.694 0 0 1-1.642-1.635v-1.548zM130.203 32.103L109.986 3.357c-.692-1.116 0-2.496 1.382-2.496h6.4c.691 0 1.12.43 1.382.774l15.632 21.954L150.42 1.642c.261-.351.781-.781 1.384-.781h6.479c1.382 0 2.08 1.377 1.382 2.496l-20.48 28.66V59.47a1.694 1.694 0 0 1-1.642 1.635h-5.702c-.436 0-.853-.172-1.161-.479a1.63 1.63 0 0 1-.48-1.156l.004-27.368z"/>
    </g>
</svg>
