<svg width="26" height="26" viewBox="0 0 26 26" fill="none" xmlns="http://www.w3.org/2000/svg">
<g clip-path="url(#clip0)">
<path d="M2.61865 20.5756L12.9314 26.2437L23.2972 20.4988L25.2295 4.47244L12.9183 0.243652L0.685547 4.54863L2.61865 20.5756Z" fill="#B3B3B3"/>
<path d="M12.8896 24.8896L22.2084 19.7322L24.0092 5.39887L12.8896 1.60693V24.8896Z" fill="#A6120D"/>
<path d="M12.889 24.8893V1.6062L2.05762 5.46692L3.71407 19.8004L12.889 24.8893Z" fill="#DD1B16"/>
<path d="M15.9503 14.0014L12.8895 15.4327H9.6634L8.14689 19.2258L5.32617 19.2781L12.8895 2.45239L15.9503 14.0014ZM15.6544 13.2808L12.9097 7.84723L10.6584 13.1873H12.8893L15.6544 13.2808Z" fill="#F2F2F2"/>
<path d="M15.4645 13.1915H12.8954L12.8896 15.4293L16.4421 15.4327L18.1024 19.2786L20.8013 19.3286L12.8896 2.45239L12.9099 7.84723L15.4645 13.1915Z" fill="#B3B3B3"/>
</g>
<defs>
<clipPath id="clip0">
<rect width="26" height="26" fill="white"/>
</clipPath>
</defs>
</svg>
