<svg width="26" height="26" viewBox="0 0 26 26" fill="none" xmlns="http://www.w3.org/2000/svg">
<rect x="3.53125" y="7.47998" width="3.04938" height="11.7136" fill="#759C3E"/>
<rect x="19.4199" y="7.47998" width="3.04938" height="11.7136" fill="#4B612C"/>
<path d="M13.0002 7.1635L6.58046 8.50898L3.61133 8.0341L13.0002 5.10571L22.3089 8.0341L19.3397 8.50898L13.0002 7.1635Z" fill="#3C4929"/>
<path d="M13.0002 20.8556L3.61133 18.0064L6.58046 17.5315L13.0002 19.1144L19.42 17.5315L22.4694 18.0064L13.0002 20.8556Z" fill="#B7CA9D"/>
<path fill-rule="evenodd" clip-rule="evenodd" d="M2.16699 5.34305L13.0003 0.0402832V26.0001L2.16699 20.539V5.34305ZM3.61136 18.0064V8.034L9.79038 6.1345V19.9059L3.61136 18.0064Z" fill="#4B612C"/>
<path fill-rule="evenodd" clip-rule="evenodd" d="M23.833 5.34305L12.9997 0.0402832V26.0001L23.833 20.539V5.34305ZM22.3886 18.0064V8.034L16.2096 6.1345V19.9059L22.3886 18.0064Z" fill="#759C3E"/>
</svg>
