<?xml version="1.0" encoding="UTF-8"?>
<svg width="24px" height="24px" viewBox="0 0 24 24" version="1.1" xmlns="http://www.w3.org/2000/svg" xmlns:xlink="http://www.w3.org/1999/xlink">
    <!-- Generator: Sketch 51.1 (57501) - http://www.bohemiancoding.com/sketch -->
    <title>icons/tech/Babel</title>
    <desc>Created with Sketch.</desc>
    <defs></defs>
    <g id="icons/tech/Babel" stroke="none" stroke-width="1" fill="none" fill-rule="evenodd">
        <rect id="Rectangle" fill="#FCD100" x="0" y="0" width="24" height="24"></rect>
        <path d="M11.9530945,9.07848101 C11.7498371,9.21898734 11.5192182,9.36329114 11.2612378,9.50379747 L11.2651466,9.54556962 C11.2807818,9.54556962 11.3042345,9.53417722 11.3355049,9.51518987 C11.3667752,9.51139241 11.3824104,9.52658228 11.3863192,9.55316456 L11.429316,9.53037975 L11.4488599,9.53037975 L11.4488599,9.54936709 C11.4527687,9.5721519 11.2885993,9.69367089 10.9680782,9.91392405 L10.9915309,9.95949367 L10.971987,9.95949367 L10.9211726,9.94050633 C10.9211726,9.9556962 10.9016287,9.96708861 10.8547231,9.97088608 L10.8547231,9.98987342 L10.9055375,10.0506329 C10.8899023,10.0506329 10.8625407,10.0468354 10.8312704,10.0316456 C10.7257329,10.0392405 10.6241042,10.1151899 10.5224756,10.2518987 L10.5459283,10.2936709 C10.6358306,10.2139241 10.686645,10.1721519 10.7022801,10.1721519 L10.7061889,10.2367089 C10.6905537,10.2367089 10.667101,10.2481013 10.6358306,10.2670886 L10.6944625,10.3468354 C10.8,10.2329114 10.9172638,10.1379747 11.0423453,10.0582278 C11.104886,10.0772152 11.1400651,10.0962025 11.1400651,10.1151899 L11.1869707,10.1113924 C11.5387622,9.86075949 11.8827362,9.68227848 12.2228013,9.5721519 L12.2267101,9.61392405 C12.1641694,9.70506329 12.1211726,9.75063291 12.0977199,9.75443038 C12.1016287,9.78481013 12.1094463,9.81139241 12.1250814,9.83797468 C12.1289902,9.89493671 11.9765472,10.2746835 11.6638436,10.9772152 C10.9485342,12.6063291 10.3504886,13.8139241 9.86579805,14.5962025 C9.86579805,14.6113924 9.87752443,14.6341772 9.8970684,14.6607595 C10.018241,14.6341772 10.0925081,14.6037975 10.1237785,14.5772152 L10.1433225,14.5772152 L10.1472313,14.6189873 L10.1980456,14.6151899 L10.2410423,14.5924051 C10.2410423,14.6037975 10.2566775,14.6113924 10.2879479,14.6075949 L10.2918567,14.6531646 C10.2957655,14.6949367 10.2684039,14.7594937 10.2175896,14.8506329 C10.1667752,14.9037975 10.1120521,15.0177215 10.057329,15.1886076 L10.0612378,15.2113924 L10.1081433,15.2075949 C10.3035831,14.9949367 10.4482085,14.7898734 10.5498371,14.5848101 C11.1166124,14.421519 11.5465798,14.2658228 11.847557,14.1101266 C12.152443,14.0835443 12.3791531,14.0075949 12.5355049,13.8822785 L12.5315961,13.8594937 L12.4143322,13.8936709 L12.3908795,13.8974684 L12.3869707,13.8746835 C12.609772,13.8443038 12.762215,13.7949367 12.8442997,13.7303797 C13.2742671,13.4075949 13.5986971,13.1797468 13.8214984,13.0468354 C14.5016287,12.5607595 14.8221498,12.0974684 14.7830619,11.6493671 C14.7791531,11.6037975 14.6306189,11.421519 14.3335505,11.1025316 C14.3296417,11.0417722 14.4312704,10.9544304 14.6384365,10.8405063 L15.2325733,10.3392405 C15.3654723,10.1759494 15.4436482,9.91012658 15.467101,9.54177215 L15.4592834,9.45822785 C15.4358306,9.20379747 15.2442997,8.99873418 14.8846906,8.83924051 C14.6697068,8.69873418 14.286645,8.62278481 13.7355049,8.60759494 C13.2899023,8.63797468 12.6918567,8.79746835 11.9530945,9.07848101 Z M15.1348534,9.10886076 L15.1114007,9.15443038 L14.4547231,8.88481013 C14.8964169,8.90379747 15.123127,8.97594937 15.1348534,9.10886076 Z M12.4690554,10.8860759 C12.5159609,10.6468354 12.5667752,10.5139241 12.6214984,10.4835443 L13.1179153,9.40506329 C13.1140065,9.34050633 13.2156352,9.28734177 13.4306189,9.24936709 L13.5009772,9.24177215 L13.504886,9.30632911 C13.7159609,9.2721519 13.8449511,9.25316456 13.8996743,9.24936709 C14.2905537,9.21518987 14.4938111,9.29493671 14.5094463,9.47721519 L14.5563518,9.47341772 L14.5485342,9.37088608 L14.5954397,9.36708861 C14.7087948,9.4278481 14.7674267,9.5 14.7752443,9.58734177 C14.7791531,9.64810127 14.7478827,9.72405063 14.6814332,9.81518987 C14.6501629,9.81898734 14.6345277,9.79620253 14.6306189,9.75443038 L14.5837134,9.75822785 L14.5680782,9.88734177 C14.3687296,10.1797468 14.228013,10.3278481 14.1381107,10.335443 C14.0599349,10.4417722 14.0091205,10.4949367 13.9856678,10.4949367 C13.923127,10.5670886 13.7550489,10.6924051 13.4775244,10.8632911 C13.3837134,10.8708861 13.0436482,11 12.4534202,11.2506329 C12.4260586,11.2392405 12.3908795,11.235443 12.3596091,11.2392405 L12.3557003,11.1974684 C12.3478827,11.1177215 12.3869707,11.0151899 12.4690554,10.8860759 Z M15.1973941,9.55696203 L15.2013029,9.60253165 C15.1778502,9.60253165 15.1348534,9.53417722 15.0644951,9.39746835 L15.0605863,9.3556962 C15.1035831,9.35189873 15.1504886,9.42025316 15.1973941,9.55696203 Z M10.8723806,10.0734177 L10.8765472,10.1195716 C10.8598806,10.1195716 10.8348806,10.1426485 10.8015472,10.1734177 L10.7807139,10.1734177 L10.7765472,10.0888023 L10.8723806,10.0734177 Z M12.3106359,10.0392405 L12.3149837,10.1037975 C12.2888968,10.1037975 12.258462,10.1379747 12.2193315,10.1949367 L12.2149837,10.1531646 C12.258462,10.1037975 12.2802011,10.0658228 12.2802011,10.0392405 L12.3106359,10.0392405 Z M12.1147231,10.4873418 L12.1347231,10.5829939 L12.0747231,10.5873418 L12.0547231,10.4916896 L12.1147231,10.4873418 Z M12.0413681,10.643038 C12.0366062,10.7151899 12.0127966,10.7531646 11.9699395,10.756962 L11.9413681,10.7607595 C11.9747014,10.7113924 11.9889871,10.6734177 11.9842252,10.6468354 L12.0413681,10.643038 Z M11.9314828,10.8670886 L11.9358306,10.8910886 L11.8923524,10.9630886 L11.8401784,10.9670886 L11.8358306,10.9430886 C11.8880045,10.9390886 11.9140915,10.9150886 11.9097437,10.8670886 L11.9314828,10.8670886 Z M11.8811075,11.0683544 L11.8447439,11.178481 L11.7992893,11.178481 L11.7811075,11.0683544 L11.8811075,11.0683544 Z M14.2319218,11.1481013 L14.3296417,11.2050633 C14.3335505,11.2316456 14.3179153,11.2506329 14.286645,11.2506329 C14.2436482,11.2240506 14.2123779,11.2126582 14.1889251,11.2164557 L14.1889251,11.1518987 L14.2319218,11.1481013 Z M12.3500717,11.3911392 L12.3540717,11.4757546 L12.2580717,11.4911392 L12.2540717,11.4065239 L12.3500717,11.3911392 Z M13.8684039,11.5468354 C13.9348534,11.5775066 13.9661238,11.6043438 13.9700326,11.6273472 L13.9700326,11.6465166 C13.9074919,11.6503505 13.8488599,11.6196794 13.7941368,11.5506693 L13.8684039,11.5468354 Z M11.9100977,12.0139241 C12.1758958,11.9911392 12.5941368,11.8696203 13.1687296,11.6493671 L13.313355,11.6379747 C13.6026059,11.6151899 13.8175896,11.6683544 13.962215,11.8012658 L13.9700326,11.8848101 C13.8644951,12.1810127 13.7472313,12.3556962 13.618241,12.4088608 L13.028013,12.8721519 C12.5863192,13.1531646 12.3478827,13.2936709 12.3087948,13.2974684 C11.6052117,13.6734177 11.1674267,13.8670886 10.9954397,13.8822785 L10.971987,13.8860759 C10.9876221,13.8063291 11.3003257,13.1835443 11.9100977,12.0139241 Z M12.5494202,11.7670886 L12.5534202,11.8270886 L12.4574202,11.8470886 L12.4534202,11.7870886 L12.5494202,11.7670886 Z M14.6826819,11.6721519 L14.6993485,11.8468354 C14.6743485,11.8886076 14.6535152,11.9113924 14.6285152,11.9151899 L14.5993485,11.6189873 C14.6535152,11.6341772 14.6826819,11.6531646 14.6826819,11.6721519 Z M11.0734972,13.1607595 C11.0409949,13.3050633 11.0084926,13.3810127 10.9759903,13.3810127 L10.9759903,13.3620253 C10.9638019,13.2936709 10.9963042,13.2253165 11.0734972,13.1607595 Z M11.6599349,13.9734177 C11.8319218,13.943038 12.304886,13.7037975 13.0788274,13.2518987 L13.0827362,13.2936709 C13.0827362,13.3126582 13.0201954,13.3696203 12.8833876,13.4607595 C12.4925081,13.6506329 12.2579805,13.7759494 12.1876221,13.8405063 C11.7615635,13.9848101 11.5504886,14.0759494 11.5543974,14.1101266 C11.1752443,14.2544304 10.9289902,14.3607595 10.8078176,14.4291139 C10.780456,14.4329114 10.7374593,14.421519 10.686645,14.3949367 C10.6788274,14.3189873 10.7140065,14.2620253 10.7882736,14.2164557 C10.8547231,14.2126582 10.9172638,14.2202532 10.9758958,14.243038 C11.0462541,14.2088608 11.1674267,14.1708861 11.3433225,14.1253165 L11.3394137,14.0835443 L11.1947883,14.0949367 C11.2104235,14.0683544 11.3472313,14.0075949 11.6013029,13.9088608 L11.6716612,13.9012658 L11.6716612,13.9202532 C11.5504886,13.9316456 11.4840391,13.9658228 11.4684039,14.0265823 C11.4723127,14.0531646 11.4879479,14.0683544 11.5192182,14.064557 C11.6169381,14.0189873 11.6599349,13.9848101 11.6599349,13.9734177 Z M10.9808419,13.4531646 L10.9808419,13.4809423 C10.9890716,13.5253868 10.9561526,13.5531646 10.8903145,13.5531646 L10.8820847,13.5198312 C10.8820847,13.4920534 10.9150038,13.4642757 10.9808419,13.4531646 Z M12.0390879,13.7493671 C11.9843648,13.7531646 11.8788274,13.7987342 11.7224756,13.8822785 L11.6990228,13.8860759 L11.695114,13.8443038 C11.8084691,13.8329114 11.9100977,13.7911392 11.9882736,13.7151899 C12.019544,13.7113924 12.0351792,13.7227848 12.0390879,13.7493671 Z M10.8899023,14.0674503 L10.9602606,14.0531646 L10.9641694,14.0960217 C10.9485342,14.0960217 10.9250814,14.1174503 10.8938111,14.1460217 L10.8469055,14.1531646 C10.8429967,14.1103074 10.8586319,14.081736 10.8899023,14.0674503 Z M10.4169381,14.3151899 L10.4638436,14.3341772 C10.4482085,14.4670886 10.4052117,14.535443 10.342671,14.5392405 C10.2879479,14.5164557 10.2410423,14.5050633 10.1980456,14.5088608 L10.1941368,14.4443038 C10.190228,14.421519 10.2058632,14.4063291 10.2371336,14.3987342 C10.2684039,14.3949367 10.2840391,14.4177215 10.2879479,14.4594937 C10.3661238,14.364557 10.4091205,14.3151899 10.4169381,14.3151899 Z M2.75179153,8.88860759 C2.48599349,9.07848101 2.18110749,9.26455696 1.84104235,9.44683544 L1.84495114,9.50379747 C1.86840391,9.50379747 1.89576547,9.48860759 1.93485342,9.46962025 C1.97394137,9.46582278 1.99739414,9.48101266 1.99739414,9.51898734 L2.05993485,9.48481013 L2.09120521,9.48101266 L2.09511401,9.50759494 C2.0990228,9.53417722 1.88403909,9.69746835 1.45798046,9.98987342 L1.49315961,10.043038 L1.46188925,10.0468354 L1.39543974,10.0240506 C1.39543974,10.043038 1.36807818,10.0544304 1.30553746,10.0582278 L1.30944625,10.0886076 L1.37980456,10.164557 C1.35635179,10.164557 1.32508143,10.1607595 1.28599349,10.1455696 C1.14918567,10.156962 1.01237785,10.2556962 0.879478827,10.4379747 L0.91465798,10.4911392 C1.03192182,10.3886076 1.09837134,10.335443 1.11791531,10.335443 L1.1257329,10.4189873 C1.10618893,10.4189873 1.07491857,10.4341772 1.03583062,10.4531646 L1.11009772,10.5594937 C1.25081433,10.4113924 1.40325733,10.2860759 1.5752443,10.1835443 C1.66123779,10.2063291 1.70423453,10.2291139 1.70423453,10.2594937 L1.76677524,10.2556962 C2.22410423,9.92531646 2.67752443,9.68987342 3.12703583,9.54177215 L3.13094463,9.59873418 C3.04885993,9.72025316 2.99022801,9.78101266 2.95895765,9.78481013 C2.96286645,9.82658228 2.97850163,9.86075949 3.0019544,9.89493671 C3.00977199,9.97088608 2.80651466,10.4683544 2.39218241,11.3949367 C1.44625407,13.5443038 0.656677524,15.1316456 0.0195439739,16.164557 C0.0195439739,16.1835443 0.0351791531,16.2139241 0.054723127,16.2481013 C0.211074919,16.2101266 0.312703583,16.1759494 0.355700326,16.1379747 L0.390879479,16.1341772 L0.394788274,16.1911392 L0.453420195,16.1873418 L0.515960912,16.1531646 C0.515960912,16.1721519 0.539413681,16.1797468 0.578501629,16.1759494 L0.582410423,16.2329114 C0.586319218,16.2898734 0.55504886,16.3772152 0.480781759,16.4949367 C0.414332248,16.5670886 0.347882736,16.7151899 0.273615635,16.9392405 L0.27752443,16.9658228 L0.336156352,16.9620253 C0.590228013,16.6848101 0.785667752,16.4113924 0.918566775,16.1455696 C1.66514658,15.9329114 2.23192182,15.7240506 2.6267101,15.5189873 C3.02149837,15.4848101 3.32638436,15.3860759 3.52964169,15.2189873 L3.5257329,15.1886076 L3.3771987,15.2303797 L3.34201954,15.2341772 L3.33811075,15.2037975 C3.62736156,15.1620253 3.83061889,15.0974684 3.94006515,15.0139241 C4.50684039,14.5886076 4.93289902,14.2886076 5.22214984,14.1101266 C6.11726384,13.4721519 6.53941368,12.856962 6.48859935,12.2721519 C6.48469055,12.2113924 6.28534202,11.9721519 5.89837134,11.5544304 C5.89055375,11.4746835 6.02736156,11.3607595 6.3009772,11.2088608 L7.07882736,10.5443038 C7.25081433,10.3278481 7.35635179,9.97848101 7.39153094,9.49620253 L7.37980456,9.38227848 C7.3485342,9.0443038 7.09837134,8.77088608 6.62149837,8.56202532 C6.34006515,8.37594937 5.83583062,8.27721519 5.10879479,8.26582278 C4.51074919,8.31898734 3.72117264,8.52405063 2.75179153,8.88860759 Z M6.94201954,8.93797468 L6.91856678,8.99493671 L6.05081433,8.64177215 C6.62931596,8.66455696 6.92638436,8.76329114 6.94201954,8.93797468 Z M3.43192182,11.2772152 C3.49055375,10.9658228 3.55700326,10.7873418 3.63127036,10.7455696 L4.28013029,9.32911392 C4.2723127,9.24177215 4.40912052,9.17341772 4.69446254,9.1278481 L4.78827362,9.12025316 L4.79609121,9.2 C5.07752443,9.15822785 5.2495114,9.13544304 5.31596091,9.1278481 C5.83192182,9.08607595 6.09771987,9.18481013 6.12117264,9.43164557 L6.17980456,9.4278481 L6.16807818,9.2835443 L6.23061889,9.27974684 C6.38306189,9.35949367 6.46514658,9.45822785 6.47296417,9.57594937 C6.48078176,9.6556962 6.43778502,9.75443038 6.34006515,9.8721519 C6.3009772,9.87594937 6.27752443,9.84936709 6.27361564,9.79240506 L6.21107492,9.79620253 L6.19543974,9.96708861 C5.93355049,10.3468354 5.74592834,10.5405063 5.6286645,10.5518987 C5.52312704,10.6924051 5.45667752,10.764557 5.42931596,10.7683544 C5.34723127,10.8632911 5.12442997,11.0265823 4.75700326,11.2544304 C4.63583062,11.2658228 4.18631922,11.4329114 3.40846906,11.7632911 C3.36938111,11.7443038 3.33029316,11.7405063 3.28338762,11.7443038 L3.27947883,11.6911392 C3.27166124,11.5810127 3.31856678,11.4443038 3.43192182,11.2772152 Z M7.02410423,9.53037975 L7.02801303,9.5835443 C6.99674267,9.58734177 6.93811075,9.49620253 6.85211726,9.31392405 L6.84820847,9.26075949 C6.9029316,9.25316456 6.96156352,9.3443038 7.02410423,9.53037975 Z M1.31726384,10.2063291 L1.32117264,10.2475056 C1.30162866,10.2475056 1.27035831,10.271035 1.23127036,10.3004468 L1.2,10.3063291 L1.19609121,10.2239762 L1.31726384,10.2063291 Z M3.20521173,10.1607595 L3.21302932,10.2443038 C3.18566775,10.2481013 3.1465798,10.2860759 3.09967427,10.3658228 L3.09576547,10.3088608 C3.1504886,10.2443038 3.17785016,10.1949367 3.17785016,10.1607595 L3.20521173,10.1607595 Z M2.95741783,10.7531646 L2.98469055,10.8670886 L2.91196328,10.8708861 L2.88469055,10.756962 L2.95741783,10.7531646 Z M2.84169381,10.9582278 C2.83387622,11.0531646 2.81042345,11.1025316 2.75960912,11.1063291 L2.72833876,11.1101266 C2.76351792,11.0455696 2.78306189,11 2.77915309,10.9658228 L2.84169381,10.9582278 Z M2.71270358,11.2544304 L2.71661238,11.2810127 L2.66188925,11.3721519 L2.60325733,11.3759494 L2.59934853,11.3493671 C2.65798046,11.3455696 2.68534202,11.3151899 2.68143322,11.2582278 L2.71270358,11.2544304 Z M2.62117264,11.5202532 L2.59450597,11.6607595 L2.54117264,11.664557 L2.52117264,11.5240506 L2.62117264,11.5202532 Z M5.74983713,11.6227848 L5.87882736,11.6987342 C5.88273616,11.7367089 5.86319218,11.7594937 5.82410423,11.7632911 C5.76938111,11.7291139 5.72638436,11.7139241 5.69511401,11.7139241 L5.68729642,11.6303797 L5.74983713,11.6227848 Z M3.26775244,11.9455696 L3.27166124,12.0279226 L3.1504886,12.0455696 L3.1465798,11.9632167 L3.26775244,11.9455696 Z M5.26905537,12.143038 C5.35504886,12.1810127 5.3980456,12.2189873 5.4019544,12.2493671 L5.40586319,12.2759494 C5.3237785,12.2835443 5.2495114,12.2417722 5.17915309,12.1506329 L5.26905537,12.143038 Z M2.68925081,12.7582278 C3.04104235,12.7278481 3.59609121,12.5683544 4.3504886,12.2797468 L4.53420195,12.264557 C4.91726384,12.2341772 5.20260586,12.3025316 5.39022801,12.4772152 L5.4019544,12.5911392 C5.26123779,12.9860759 5.10488599,13.2139241 4.93680782,13.2860759 L4.15504886,13.8898734 C3.57263844,14.2620253 3.25993485,14.4481013 3.21302932,14.4518987 C2.28664495,14.9493671 1.70814332,15.2037975 1.48534202,15.2227848 L1.45016287,15.2265823 C1.48143322,15.1202532 1.89185668,14.3 2.68925081,12.7582278 Z M3.53355049,12.435443 L3.53745928,12.505443 L3.41237785,12.535443 L3.40846906,12.465443 L3.53355049,12.435443 Z M6.34006515,12.3139241 L6.35960912,12.5379747 C6.33224756,12.5987342 6.30488599,12.6291139 6.27361564,12.6291139 L6.23843648,12.2341772 C6.30488599,12.2607595 6.33615635,12.2873418 6.34006515,12.3139241 Z M1.58306189,14.2734177 C1.54397394,14.4670886 1.5009772,14.5658228 1.45798046,14.5696203 L1.45407166,14.543038 C1.44625407,14.4443038 1.48925081,14.356962 1.58306189,14.2734177 Z M2.36482085,15.3443038 C2.59153094,15.3025316 3.21302932,14.9835443 4.23322476,14.3949367 L4.23713355,14.4481013 C4.24104235,14.4708861 4.15114007,14.543038 3.9752443,14.6683544 C3.45537459,14.9151899 3.1504886,15.0860759 3.06058632,15.1734177 C2.49771987,15.3632911 2.22019544,15.4810127 2.22410423,15.5265823 C1.7237785,15.7202532 1.39543974,15.8607595 1.23908795,15.9481013 C1.20390879,15.9518987 1.14918567,15.9367089 1.07882736,15.9063291 C1.07100977,15.8075949 1.11400651,15.7278481 1.21563518,15.6632911 C1.30162866,15.6556962 1.38762215,15.6670886 1.46579805,15.7012658 C1.55960912,15.6556962 1.71986971,15.6025316 1.9504886,15.5493671 L1.9465798,15.4924051 L1.76286645,15.5075949 C1.78631922,15.4772152 1.96221498,15.3974684 2.29837134,15.264557 L2.39218241,15.256962 L2.39609121,15.2835443 C2.23973941,15.2949367 2.14983713,15.3443038 2.13029316,15.4240506 C2.13420195,15.4582278 2.15374593,15.4772152 2.19283388,15.4734177 C2.30618893,15.3974684 2.36482085,15.3556962 2.36482085,15.3443038 Z M1.440663,14.656962 L1.44721987,14.6861287 C1.45377675,14.7277954 1.42099238,14.7527954 1.35542363,14.756962 L1.34886676,14.7277954 C1.34230989,14.6902954 1.37509426,14.6652954 1.440663,14.656962 Z M2.86514658,15.0443038 C2.79087948,15.0518987 2.65407166,15.1088608 2.44690554,15.2227848 L2.41563518,15.2265823 L2.41172638,15.1696203 C2.56026059,15.1582278 2.68925081,15.1012658 2.79478827,14.9987342 C2.83778502,14.9911392 2.86123779,15.0101266 2.86514658,15.0443038 Z M1.3485342,15.4579466 L1.44234528,15.4468354 L1.44625407,15.4912799 C1.4228013,15.4912799 1.39543974,15.5135021 1.35635179,15.5412799 L1.29771987,15.5468354 C1.29381107,15.5079466 1.30944625,15.4746132 1.3485342,15.4579466 Z M0.727035831,15.7924051 L0.793485342,15.8189873 C0.770032573,15.9898734 0.719218241,16.0772152 0.629315961,16.0848101 C0.558957655,16.0544304 0.496416938,16.043038 0.437785016,16.0468354 L0.429967427,15.9632911 C0.426058632,15.9291139 0.445602606,15.9101266 0.488599349,15.8987342 C0.527687296,15.8949367 0.551140065,15.921519 0.55504886,15.978481 C0.660586319,15.8531646 0.719218241,15.7924051 0.727035831,15.7924051 Z M18.0664495,8.33037975 L18.0156352,8.31139241 L17.1830619,8.43670886 C17.1517915,8.42151899 17.1127036,8.41392405 17.0697068,8.41772152 C17.0228013,8.42151899 16.952443,8.43670886 16.8469055,8.46329114 L16.4442997,8.62658228 L16.47557,8.67594937 C16.495114,8.67594937 16.5224756,8.66455696 16.5576547,8.64556962 L16.6983713,8.65696203 L16.6788274,8.78607595 C16.5498371,8.84303797 16.4716612,8.92658228 16.4521173,9.03670886 C16.2566775,9.12025316 16.1589577,9.18101266 16.1589577,9.21898734 L16.1628664,9.24177215 L16.1941368,9.23797468 L16.2488599,9.21139241 L16.3114007,9.2835443 L16.3192182,9.38227848 C16.323127,9.41265823 15.9908795,10.0924051 15.3263844,11.4177215 C14.7517915,12.6936709 14.4508143,13.3924051 14.419544,13.5177215 C14.2241042,13.5708861 14.1068404,13.6506329 14.07557,13.7531646 C14.0794788,13.7873418 14.1381107,13.8063291 14.2514658,13.8177215 L14.2553746,13.8670886 L14.2045603,13.9506329 L14.2123779,14.0493671 C14.2162866,14.1025316 14.3609121,14.1405063 14.6423453,14.1708861 C14.6423453,14.1518987 14.6501629,14.1443038 14.6697068,14.1405063 C14.6736156,14.2012658 14.6579805,14.3227848 14.6149837,14.5050633 L14.6462541,14.5012658 C14.7635179,14.3455696 14.818241,14.2392405 14.8143322,14.178481 L14.837785,14.1746835 C14.8651466,14.1708861 14.8964169,14.2050633 14.9315961,14.2734177 C14.8964169,14.2886076 14.7713355,14.5620253 14.5602606,15.0974684 L14.5915309,15.1468354 L14.6228013,15.143038 C14.8846906,14.5012658 15.0488599,14.1443038 15.1153094,14.0759494 C15.4592834,14.0455696 16.0495114,13.9886076 16.8938111,13.9012658 L16.9446254,13.8708861 C16.9446254,13.8898734 16.9563518,13.8974684 16.9758958,13.8936709 L17.0306189,13.8898734 L17.0814332,13.8594937 C17.0814332,13.878481 17.0931596,13.8860759 17.1127036,13.8822785 L17.7498371,13.8291139 C17.9179153,13.8139241 18,13.764557 17.9921824,13.6810127 C17.9882736,13.6582278 18.0899023,13.6316456 18.2931596,13.6050633 C18.3127036,13.6050633 18.3400651,13.6088608 18.3791531,13.6202532 C18.3791531,13.6050633 18.476873,13.5898734 18.6801303,13.5708861 C18.6840391,13.4683544 18.7192182,13.4113924 18.781759,13.4075949 L18.7778502,13.3582278 C18.723127,13.3620253 18.6566775,13.3772152 18.5824104,13.4 C18.4495114,13.3924051 18.3635179,13.3848101 18.3283388,13.3696203 C18.2931596,13.3886076 18.265798,13.4 18.2462541,13.4 L17.8006515,13.4151899 L17.7459283,13.4417722 C17.7459283,13.4265823 17.734202,13.4189873 17.714658,13.4227848 L17.6912052,13.4265823 L17.6325733,13.4531646 C17.6325733,13.4379747 17.5856678,13.4265823 17.4918567,13.4151899 L17.4371336,13.4455696 L17.3276873,13.4531646 L17.3237785,13.4265823 C17.8944625,13.3658228 18.1798046,13.2898734 18.171987,13.1987342 C18.2071661,13.1949367 18.2267101,13.2139241 18.2306189,13.2481013 L18.3986971,13.2063291 L18.3947883,13.156962 L17.0267101,13.1949367 C17.0267101,13.2139241 17.0188925,13.221519 16.9993485,13.2253165 L16.8312704,13.2101266 C16.7882736,13.2139241 16.7530945,13.2253165 16.7257329,13.2481013 L16.6631922,13.2253165 C16.4912052,13.2405063 16.362215,13.2594937 16.2762215,13.2860759 C16.1589577,13.278481 16.0299674,13.278481 15.885342,13.2898734 L15.5765472,13.3164557 L15.4358306,13.3012658 C15.428013,13.2139241 15.6039088,12.7810127 15.9674267,12.0025316 C16.0729642,11.7405063 16.170684,11.5772152 16.2605863,11.5164557 C16.2801303,11.5164557 16.3074919,11.5202532 16.3465798,11.535443 L16.5654723,11.4632911 L16.6788274,11.4822785 C16.8664495,11.4670886 17.085342,11.4139241 17.3355049,11.3265823 C17.3980456,11.3227848 17.4449511,11.3265823 17.4762215,11.3379747 L17.6442997,11.3 L18.1407166,11.2582278 C18.3517915,11.2392405 18.5824104,11.1936709 18.8286645,11.121519 L18.8247557,11.0721519 C18.7309446,11.0797468 18.6840391,11.064557 18.6801303,11.0303797 C18.6723127,10.9620253 18.6058632,10.935443 18.476873,10.9468354 L18.4729642,10.8974684 L18.609772,10.8594937 L18.9693811,10.8291139 L18.9654723,10.7797468 C18.9498371,10.7797468 18.8794788,10.7797468 18.742671,10.7759494 L18.7387622,10.7227848 L18.8794788,10.7113924 C18.914658,10.7075949 18.934202,10.6886076 18.9302932,10.6582278 C18.742671,10.6620253 18.6488599,10.6544304 18.6488599,10.6316456 C17.3472313,10.6924051 16.6983713,10.7037975 16.6944625,10.6658228 C16.6749186,10.6658228 16.647557,10.6772152 16.6123779,10.7 L16.5771987,10.6468354 C16.9211726,9.93670886 17.12443,9.57594937 17.1830619,9.5721519 C17.1869707,9.59873418 17.1713355,9.6443038 17.1400651,9.70506329 L17.1439739,9.7278481 L17.1986971,9.72405063 C17.3355049,9.40506329 17.4488599,9.24177215 17.5465798,9.23417722 C17.9530945,9.2 17.4879479,9.17341772 18.3635179,9.04050633 C18.3986971,9.0556962 18.4260586,9.06329114 18.4416938,9.05949367 C18.7856678,8.99113924 19.2625407,8.92278481 19.8762215,8.85063291 L19.8723127,8.80126582 L19.5439739,8.83164557 L19.5400651,8.78227848 C19.5791531,8.77848101 19.6104235,8.76708861 19.637785,8.7443038 L19.6416938,8.77088608 C19.6612378,8.77088608 19.6846906,8.75949367 19.7159609,8.73670886 C19.770684,8.73291139 19.8136808,8.73670886 19.8449511,8.75189873 C19.9583062,8.72151899 20.0482085,8.70632911 20.1185668,8.69873418 L20.3218241,8.67974684 C20.3726384,8.64936709 20.3960912,8.62278481 20.3921824,8.59620253 L20.3921824,8.57341772 C20.3413681,8.57721519 20.2827362,8.57341772 20.2123779,8.56202532 C20.2084691,8.53544304 20.2241042,8.5164557 20.2592834,8.50886076 L20.6384365,8.47468354 L20.8143322,8.43291139 C20.8143322,8.45189873 20.8260586,8.45949367 20.837785,8.45949367 C20.857329,8.45949367 20.8807818,8.44810127 20.9120521,8.42531646 C21.0019544,8.43670886 21.0566775,8.44050633 21.0684039,8.43670886 C21.1387622,8.3721519 21.2208469,8.31898734 21.3107492,8.28481013 C21.2716612,8.24683544 21.2521173,8.2164557 21.2482085,8.18987342 L20.9941368,8.21265823 C20.9941368,8.19367089 20.9824104,8.17088608 20.9667752,8.13670886 C20.9667752,8.11392405 21.0214984,8.09113924 21.1387622,8.06835443 L21.1895765,8.08734177 L21.2364821,8.06075949 C21.2364821,8.07594937 21.2482085,8.0835443 21.2638436,8.07974684 L21.3107492,8.05316456 C21.3107492,8.06835443 21.3224756,8.07594937 21.3381107,8.0721519 L21.3615635,8.06835443 L21.3576547,8.01898734 C21.3224756,8.02278481 21.2286645,8.02278481 21.0801303,8.01898734 L21.0332248,8.04936709 L21.029316,8.02278481 C19.8371336,8.11772152 19.1609121,8.17088608 19.0006515,8.18607595 C18.9811075,8.18607595 18.895114,8.18607595 18.7504886,8.18227848 C18.7504886,8.20126582 18.7348534,8.21265823 18.6996743,8.21265823 L18.6488599,8.18987342 L18.4729642,8.23164557 C18.4338762,8.23544304 18.3635179,8.23164557 18.265798,8.22405063 C18.2384365,8.24303797 18.2071661,8.25822785 18.1680782,8.26202532 C18.1289902,8.26582278 19.1140065,8.20886076 19.0827362,8.19367089 L18.9302932,8.23544304 L18.9068404,8.23924051 C18.8442997,8.24303797 18.7661238,8.24303797 18.6723127,8.23164557 C18.6449511,8.25063291 18.6058632,8.26582278 18.5472313,8.26962025 C18.5081433,8.27341772 18.4729642,8.26582278 18.4456026,8.25063291 C18.4026059,8.26202532 18.2775244,8.29240506 18.0664495,8.33037975 Z M18.1289902,8.48227848 C18.1289902,8.50227848 18.1485342,8.51027848 18.1798046,8.50627848 L18.1837134,8.55827848 L18.132899,8.56227848 C18.0938111,8.56627848 18.0586319,8.55827848 18.0312704,8.54227848 C18.0039088,8.56627848 17.9687296,8.57827848 17.9335505,8.58227848 L17.9491857,8.58227848 L17.8084691,8.56627848 L17.8045603,8.54227848 C17.9765472,8.53027848 18.0312704,8.51027848 18.1289902,8.48227848 Z M18.2710749,8.47375527 L18.3060749,8.46708861 L18.3110749,8.55375527 L18.2110749,8.56708861 C18.2110749,8.52042194 18.2260749,8.48708861 18.2710749,8.47375527 Z M18.5589577,8.44050633 L18.5628664,8.47550633 C18.5042345,8.48050633 18.4299674,8.50050633 18.3400651,8.53550633 L18.3127036,8.54050633 L18.3361564,8.47050633 L18.5589577,8.44050633 Z M16.3392012,8.73037975 L16.4348534,8.71704641 L16.4305056,8.63037975 L16.3348534,8.64371308 L16.3392012,8.73037975 Z M16.952443,8.6349252 L16.9837134,8.63037975 L17.0423453,8.65765247 C17.0462541,8.69856157 17.0267101,8.72128884 16.9915309,8.72128884 L16.9055375,8.73037975 L16.9016287,8.69856157 C16.8977199,8.66674338 16.9172638,8.64856157 16.952443,8.6349252 Z M18.9185668,8.7443038 L18.9185668,8.8043038 L18.742671,8.8443038 L18.742671,8.7843038 L18.9185668,8.7443038 Z M18.4143322,8.8164557 L18.418241,8.8864557 L18.3166124,8.9064557 L18.3127036,8.8364557 L18.4143322,8.8164557 Z M18.8990228,8.85443038 L19.2508143,8.79746835 L19.4306189,8.80506329 L19.4345277,8.83164557 C19.3485342,8.83924051 19.2742671,8.85443038 19.2117264,8.87721519 C19.2117264,8.85822785 19.1765472,8.84303797 19.1061889,8.83544304 L18.8286645,8.91139241 C18.7739414,8.88101266 18.7465798,8.85822785 18.7465798,8.84303797 L18.8990228,8.85443038 Z M18.5511401,8.93073892 C18.5863192,8.92454697 18.6019544,8.94931477 18.6058632,9.00504232 L18.457329,9.02981013 L18.4534202,8.94931477 L18.5511401,8.93073892 Z M18.2423453,8.93452883 L18.2462541,8.97341772 L19.1609121,8.91230661 L19.1570033,8.87341772 L18.2423453,8.93452883 Z M18.2970684,8.9835443 L18.2970684,9.03808976 L18.0977199,9.0835443 L18.0977199,9.02899885 L18.2970684,8.9835443 Z M16.9876221,9.98987342 L16.9923841,10.0164557 L17.0638126,10.0126582 C17.0638126,9.99367089 17.0685745,9.96708861 17.0876221,9.93291139 L17.0828602,9.8835443 C17.044765,9.88734177 17.0114317,9.92151899 16.9876221,9.98987342 Z M15.0119985,12.8303797 L15.0185554,12.8589512 C15.0251123,12.9018083 14.9923279,12.9256178 14.9267591,12.9303797 L14.9202023,12.9018083 C14.9136454,12.8637131 14.9464298,12.8446655 15.0119985,12.8303797 Z M14.9237785,12.9367089 C14.9276873,12.9860759 14.8925081,13.1075949 14.8221498,13.3050633 L14.7361564,13.3126582 C14.7322476,13.278481 14.7791531,13.156962 14.8690554,12.9443038 L14.9237785,12.9367089 Z M15.865798,13.7303797 C15.8697068,13.7608145 15.8228013,13.7955971 15.732899,13.8303797 L15.5609121,13.8173363 L15.5061889,13.8216841 L15.5022801,13.7651624 L15.865798,13.7303797 Z M16.0338762,13.7455696 L16.037785,13.8055696 L15.8970684,13.8355696 L15.8931596,13.7755696 L16.0338762,13.7455696 Z M21.2716612,8.27721519 C21.2091205,8.55443038 21.1074919,8.75949367 20.970684,8.89620253 L20.8729642,8.83544304 C20.9785016,8.57341772 21.029316,8.42151899 21.0254072,8.3835443 L20.9980456,8.34177215 C20.9628664,8.34556962 20.9159609,8.43670886 20.857329,8.61898734 L20.8065147,8.62278481 C20.8026059,8.58860759 20.7947883,8.56202532 20.7791531,8.53544304 L20.7557003,8.53924051 C20.2944625,9.78860759 20.0872964,10.3696203 19.6612378,11.3303797 C19.5830619,11.5772152 19.5166124,11.7139241 19.4579805,11.7405063 C19.4618893,11.7670886 19.4775244,11.7822785 19.5087948,11.778481 C19.5205212,11.9 19.4892508,12.0177215 19.4228013,12.135443 C19.2234528,12.6860759 19.0944625,12.9898734 19.028013,13.043038 L19.0710098,13.3050633 C19.0749186,13.3316456 19.0592834,13.3506329 19.028013,13.3506329 L18.9811075,13.3544304 C18.9732899,13.2822785 18.9459283,13.2481013 18.8990228,13.2518987 L18.87557,13.2556962 C18.8169381,13.3468354 18.7700326,13.4531646 18.7387622,13.5746835 L18.7856678,13.5708861 C18.8482085,13.5329114 18.87557,13.4873418 18.8716612,13.4303797 L18.9654723,13.4227848 L19.0162866,13.4417722 C18.9732899,13.5063291 18.9537459,13.5594937 18.9576547,13.5974684 L18.9811075,13.6392405 L18.9224756,13.7759494 L18.9263844,13.7987342 C18.9811075,13.7949367 19.0397394,13.8101266 19.1022801,13.8481013 C19.1452769,13.8443038 19.1921824,13.8253165 19.2429967,13.7949367 C19.2977199,13.7911392 19.4931596,13.7873418 19.8371336,13.7873418 L20.0091205,13.7303797 C20.2201954,13.7265823 20.2514658,13.7341772 20.4351792,13.7189873 L20.5094463,13.7113924 L20.5485342,13.6848101 L20.552443,13.7075949 C20.7400651,13.6924051 20.7557003,13.7037975 20.9042345,13.7227848 L20.9081433,13.7455696 L20.8026059,13.7531646 L20.8065147,13.7949367 C20.837785,13.7911392 20.8651466,13.7835443 20.8885993,13.764557 C20.9159609,13.7607595 20.9315961,13.7759494 20.9355049,13.8063291 C20.8925081,13.8101266 20.8456026,13.821519 20.7908795,13.8367089 L20.7439739,13.821519 C20.6697068,13.8405063 20.685342,13.8443038 20.6384365,13.8481013 L20.5641694,13.8329114 C20.5641694,13.8443038 20.5602606,13.8518987 20.5485342,13.8556962 C20.552443,13.8822785 20.5641694,13.8974684 20.5915309,13.8936709 L20.6814332,13.8860759 L20.6423453,13.8708861 C20.6423453,13.8822785 20.6501629,13.8898734 20.665798,13.8898734 L21.0527687,13.8556962 L21.2013029,13.8253165 C21.2013029,13.8367089 21.2091205,13.8443038 21.2208469,13.8443038 L21.2912052,13.8177215 L21.4241042,13.8063291 C21.5296417,13.7987342 21.5257329,13.7911392 21.7485342,13.756962 C21.7485342,13.7455696 21.752443,13.7379747 21.7641694,13.7379747 L21.7641694,13.756962 C22.190228,13.6886076 22.1511401,13.6924051 22.2410423,13.6620253 L22.2214984,13.6164557 C22.1003257,13.643038 22.1042345,13.6278481 22.0416938,13.635443 L21.7172638,13.6506329 L21.713355,13.6278481 L21.8931596,13.6050633 L21.9596091,13.6012658 L21.9947883,13.5746835 L21.9986971,13.5974684 C22.2527687,13.5746835 22.342671,13.6392405 23.5270358,13.3962025 C23.5895765,13.3924051 23.5856678,13.3392405 23.6247557,13.2329114 C23.6013029,13.2329114 23.581759,13.2291139 23.562215,13.2177215 C23.4644951,13.2556962 23.4136808,13.2367089 23.2260586,13.2670886 C23.2104235,13.2670886 23.1986971,13.2556962 23.1908795,13.2253165 L23.1908795,13.2063291 L23.370684,13.2139241 C23.4019544,13.2101266 23.4723127,13.2063291 23.5661238,13.1531646 C23.5856678,13.164557 23.5504886,13.1759494 23.5700326,13.1721519 L23.6013029,13.1683544 C23.6208469,13.1683544 23.6286645,13.1531646 23.6286645,13.1227848 L23.6091205,13.0810127 C23.4879479,13.0924051 23.429316,13.0962025 23.3315961,13.1493671 L23.3276873,13.1265823 L23.1791531,13.1417722 C23.1752443,13.0962025 23.1635179,13.0772152 23.1439739,13.0772152 L23.065798,13.0848101 C22.9758958,13.0924051 22.932899,13.0886076 22.8899023,13.1227848 C22.8899023,13.1075949 22.8820847,13.1 22.8742671,13.1 L22.7882736,13.1075949 L22.7374593,13.1341772 C22.7374593,13.1189873 22.7296417,13.1113924 22.7218241,13.1113924 L22.6905537,13.1379747 L22.686645,13.1151899 L22.5693811,13.1075949 L22.5420195,13.1113924 L22.5459283,13.1531646 L22.6084691,13.1683544 L22.6631922,13.164557 C22.6827362,13.1759494 22.7061889,13.1797468 22.7296417,13.1797468 L22.780456,13.156962 L22.780456,13.1759494 C22.5029316,13.2443038 22.5029316,13.2291139 22.3114007,13.2632911 C22.2879479,13.2481013 22.2723127,13.2443038 22.2644951,13.2443038 C22.2449511,13.2632911 22.2879479,13.2481013 22.2762215,13.2481013 C22.2449511,13.2518987 22.229316,13.2367089 22.2254072,13.2101266 L22.323127,13.1987342 C22.3309446,13.1987342 22.3348534,13.2063291 22.3895765,13.2177215 C22.4677524,13.1797468 22.4716612,13.164557 22.514658,13.1607595 L22.5107492,13.1189873 C22.2371336,13.1721519 22.3465798,13.1379747 22.0026059,13.164557 L21.9869707,13.164557 L21.9830619,13.1227848 C22.4247557,13.0696203 22.2762215,13.1 22.4247557,13.0582278 C22.4247557,13.0734177 22.4325733,13.0810127 22.4403909,13.0810127 C22.4560261,13.0658228 22.4794788,13.0544304 22.5029316,13.0544304 L22.534202,13.0506329 C22.686645,13.0392405 22.7413681,13.0696203 23.0462541,12.9860759 L23.0462541,13.0050633 L23.0970684,12.9822785 L23.1439739,12.978481 C23.1400651,12.9329114 23.2104235,12.9291139 23.2299674,12.9253165 L23.2260586,12.8797468 C22.6905537,12.9860759 22.5498371,12.9556962 22.4013029,12.9974684 L22.4013029,12.978481 C22.2605863,13.0050633 22.2566775,12.9898734 22.2214984,12.9936709 C22.209772,12.9936709 22.1941368,13.0050633 22.1785016,13.0202532 C22.1785016,13.0050633 22.170684,12.9974684 22.1589577,12.9974684 C22.1355049,12.9974684 22.1472313,13.0050633 22.1276873,13.0240506 L22.1589577,12.9974684 L21.6938111,13.0696203 C21.6938111,13.0582278 21.6859935,13.0506329 21.6742671,13.0506329 C21.4397394,13.1 21.5022801,13.1075949 21.1856678,13.1341772 C21.1700326,13.1341772 21.1504886,13.1417722 21.1270358,13.156962 C21.1270358,13.1455696 21.1192182,13.1379747 21.1035831,13.1379747 L20.9081433,13.1531646 L20.7791531,13.1835443 C20.7791531,13.1721519 20.7713355,13.164557 20.7557003,13.164557 C20.6814332,13.1835443 20.6188925,13.1949367 20.5680782,13.1987342 L20.5641694,13.1987342 C20.532899,13.2025316 20.5798046,13.1911392 20.5563518,13.1797468 L20.5172638,13.2025316 C20.4586319,13.2063291 20.4899023,13.1987342 20.2944625,13.2025316 C19.9504886,13.2443038 19.9895765,13.2481013 19.9504886,13.2518987 L19.8214984,13.2443038 C19.8214984,13.2556962 19.8175896,13.2632911 19.8019544,13.2670886 C19.657329,13.2481013 19.5830619,13.2253165 19.5791531,13.1987342 C19.5986971,13.0658228 19.6299674,12.9974684 19.6807818,12.9898734 L19.7042345,12.9860759 L19.6807818,13.0316456 L19.7042345,13.0278481 C19.7511401,13.0050633 19.770684,12.9822785 19.770684,12.9594937 L19.7667752,12.9139241 L19.7198697,12.9177215 L19.7159609,12.8759494 C19.7120521,12.8417722 19.7159609,12.8151899 19.7276873,12.7886076 L19.8332248,12.6253165 L19.8371336,12.6670886 L19.8879479,12.6632911 L19.8840391,12.621519 L19.8566775,12.5797468 C19.8918567,12.5493671 19.923127,12.5303797 19.9465798,12.5303797 L19.942671,12.5075949 L19.8762215,12.5113924 L19.8723127,12.4468354 C20.0052117,12.1734177 20.0716612,12.0139241 20.0677524,11.9721519 L20.114658,11.9911392 C20.1459283,11.9873418 20.1615635,11.9721519 20.1576547,11.9417722 L20.1107492,11.9455696 L20.1107492,11.9265823 C20.1068404,11.8924051 20.114658,11.8620253 20.1263844,11.835443 C20.2006515,11.7632911 20.2319218,11.6873418 20.2241042,11.6075949 C20.2397394,11.6075949 20.247557,11.6151899 20.247557,11.6303797 C20.3100977,11.5962025 20.3570033,11.5050633 20.3921824,11.3531646 C20.5016287,11.1594937 20.6579805,10.7721519 20.8612378,10.1949367 C21.2521173,9.17341772 21.2364821,9.06329114 21.2912052,8.82405063 L21.2442997,8.8278481 C21.2482085,8.85822785 21.2403909,8.88860759 21.2247557,8.91518987 C21.1934853,8.90379747 21.1661238,8.89620253 21.1504886,8.89620253 L21.1504886,8.87721519 C21.142671,8.78987342 21.181759,8.6835443 21.2677524,8.55822785 L21.2872964,8.55822785 L21.3263844,8.70632911 L21.3732899,8.70253165 C21.3732899,8.69113924 21.3850163,8.63417722 21.4084691,8.52405063 C21.4045603,8.50126582 21.3889251,8.48987342 21.3537459,8.48607595 L21.3107492,8.51265823 C21.3068404,8.48227848 21.3107492,8.40253165 21.314658,8.26962025 L21.2716612,8.27721519 Z M20.7134365,8.9342259 L20.7384365,8.93037975 C20.7009365,8.99191821 20.6717698,9.02653359 20.6426031,9.03037975 L20.6384365,8.96499513 C20.6592698,8.96114898 20.6842698,8.95345667 20.7134365,8.9342259 Z M20.513355,9.38987342 C20.5602606,9.20379747 20.6071661,9.09746835 20.6501629,9.07088608 L20.6540717,9.09367089 C20.6306189,9.26835443 20.5915309,9.3556962 20.5368078,9.36329114 L20.5446254,9.47341772 C20.5016287,9.53037975 20.4820847,9.57594937 20.4859935,9.61012658 L20.4625407,9.61392405 L20.4508143,9.46202532 C20.4742671,9.45822785 20.4977199,9.43544304 20.513355,9.38987342 Z M20.4602851,9.63670886 C20.4652537,9.66329114 20.4404105,9.72405063 20.3956926,9.81518987 L20.3658807,9.81898734 L20.3609121,9.75443038 C20.3956926,9.67848101 20.4304732,9.64050633 20.4602851,9.63670886 Z M19.1530945,12.409775 L19.1861523,12.4708861 C19.2357391,12.4653305 19.2577777,12.4431083 19.252268,12.4042194 L19.2467584,12.3708861 L19.2137005,12.3764416 L19.1530945,12.409775 Z M19.770684,12.8949367 L19.770684,12.9139241 C19.8058632,12.9101266 19.8410423,12.8493671 19.8723127,12.7316456 L19.8254072,12.7164557 C19.7863192,12.8189873 19.770684,12.8759494 19.770684,12.8949367 Z M23.7349155,13.0304325 L23.7349155,13.0512658 L23.6872964,13.1012658 L23.7777726,13.0720992 L23.7872964,13.0720992 L23.7825345,13.0262658 L23.7634869,13.0262658 L23.7301536,13.0512658 C23.7301536,13.0387658 23.8301536,13.0137658 23.7539631,13.0012658 C23.7396774,13.0220992 23.7777726,13.0262658 23.7349155,13.0304325 Z M23.8788274,13.2227848 L23.9843648,13.204603 C23.980456,13.1409666 23.9140065,13.1227848 23.8905537,13.1227848 L23.8749186,13.1227848 L23.8788274,13.2227848 Z M22.0104235,13.2025316 L22.0416938,13.2650316 C22.0416938,13.2462816 22.0456026,13.2337816 22.057329,13.2337816 L22.0807818,13.3025316 L21.9830619,13.2837816 C21.9752443,13.2337816 21.9869707,13.2087816 22.0104235,13.2025316 Z M21.6899023,13.2371266 C21.7250814,13.2294982 21.7485342,13.2752682 21.7485342,13.3362948 L21.6390879,13.3362948 L21.6390879,13.2981532 C21.6508143,13.2905248 21.6703583,13.2752682 21.6899023,13.2371266 Z M21.9459962,13.2253165 L21.9501629,13.2853165 L21.8543295,13.3053165 L21.8501629,13.2453165 L21.9459962,13.2253165 Z M21.0332248,13.3182227 C21.0332248,13.330644 21.0410423,13.3389248 21.0566775,13.3389248 C21.2013029,13.3099418 21.1856678,13.3058014 21.2560261,13.2975205 C21.2794788,13.2933801 21.2912052,13.3099418 21.295114,13.3389248 L20.8925081,13.3761887 L20.9315961,13.3968909 L20.9276873,13.3720483 L20.7752443,13.3844696 L20.7713355,13.359627 L20.9081433,13.3472057 L21.0332248,13.3182227 Z M21.447557,13.2822785 L21.447557,13.327733 C21.4358306,13.327733 21.486645,13.3368239 21.4631922,13.3822785 C21.3771987,13.3640967 21.3732899,13.3459148 21.3107492,13.3550058 L21.3107492,13.3095512 L21.447557,13.2822785 Z M21.5749186,13.2708861 L21.5749186,13.3208861 L21.4749186,13.3408861 L21.4749186,13.2908861 L21.5749186,13.2708861 Z M19.0929592,13.6582278 L19.1006515,13.7573473 C19.0544976,13.7631779 19.0160361,13.7398557 19.0006515,13.6932112 L19.0006515,13.6640584 L19.0929592,13.6582278 Z M22.3934853,13.6012658 L22.3973941,13.643038 L22.47557,13.635443 L22.4442997,13.6164557 L22.4482085,13.6392405 L22.5263844,13.6088608 C23.0618893,13.5518987 23.12443,13.5746835 23.1166124,13.5139241 L23.1166124,13.4949367 C22.5771987,13.6126582 22.5068404,13.5898734 22.3934853,13.6012658 Z M23.2308205,13.5606751 L23.3260586,13.5873418 L23.3212967,13.5140084 L23.2260586,13.4873418 L23.2308205,13.5606751 Z M20.9159609,13.6800844 C20.9394137,13.7000844 20.8885993,13.7200844 20.9198697,13.7134177 L21.1934853,13.6734177 L21.1973941,13.7134177 C21.1192182,13.7267511 21.0684039,13.7467511 21.0527687,13.7734177 C21.0527687,13.7467511 21.0449511,13.7334177 21.029316,13.7334177 L20.9120521,13.7534177 L20.9081433,13.7134177 C20.9394137,13.7067511 20.8925081,13.7067511 20.9159609,13.6800844 Z M22.1824104,13.6593448 L22.2058632,13.7240506 C22.2957655,13.6946389 22.2449511,13.7005212 22.2684039,13.6711095 C22.2684039,13.6946389 22.2762215,13.7064036 22.2840391,13.7064036 L22.3465798,13.7005212 L22.342671,13.629933 L22.1785016,13.6240506 L22.1824104,13.6593448 Z M20.6649837,13.8683544 L20.6249837,13.8683544 L20.6149837,13.7683544 L20.6549837,13.7683544 L20.6649837,13.8683544 Z M19.4110749,13.9554041 L19.4149837,13.978481 L20.134202,13.9207887 L20.1302932,13.878481 L19.5557003,13.9246349 L19.4345277,13.9092502 L19.4110749,13.9554041 Z M20.2184691,13.9708861 L20.2384691,13.9708861 L20.2284691,13.8708861 L20.2084691,13.8708861 L20.2184691,13.9708861 Z M9.26775244,10.2443038 C8.75960912,10.8329114 8.49771987,11.1556962 8.4781759,11.2202532 C8.27100977,11.4291139 8.16938111,11.5544304 8.18110749,11.5962025 C8.12638436,11.6303797 8.1029316,11.664557 8.11074919,11.7025316 C8.09511401,11.7063291 8.08338762,11.6987342 8.07947883,11.6835443 C7.98957655,11.8240506 7.86058632,11.9113924 7.68469055,11.9531646 L7.5009772,11.9949367 C7.47752443,11.9987342 7.46579805,12.0177215 7.46579805,12.0481013 L7.46970684,12.0708861 L7.54006515,12.0556962 L7.54397394,12.0746835 L7.38762215,12.1316456 L7.11009772,12.1924051 L6.96547231,12.2 C6.94592834,12.2189873 7.07882736,12.1962025 7.02801303,12.2113924 L6.84820847,12.2531646 C6.73876221,12.2797468 6.6762215,12.2683544 6.66840391,12.2265823 L6.64885993,12.2303797 C6.66058632,12.2721519 6.64885993,12.2987342 6.61758958,12.3063291 L6.65276873,12.2987342 L6.63713355,12.2341772 L6.30879479,12.3101266 L6.34397394,12.3253165 C6.34006515,12.3101266 6.32442997,12.3063291 6.29315961,12.3139241 L6.25016287,12.3481013 L6.19934853,12.3367089 C6.152443,12.3632911 6.12117264,12.378481 6.11335505,12.378481 L6.06254072,12.3670886 C5.9257329,12.443038 6.02736156,12.443038 6.01954397,12.443038 L6.03127036,12.4848101 L6.10944625,12.4658228 L6.23061889,12.4582278 L6.21889251,12.5075949 C5.7732899,12.621519 6.09771987,12.556962 5.97654723,12.5835443 L5.95309446,12.5873418 L5.96482085,12.6291139 L6.03517915,12.6139241 L6.03908795,12.6367089 C5.94918567,12.6556962 5.89837134,12.6746835 5.88273616,12.6936709 L5.87882736,12.6708861 C5.76156352,12.6974684 5.64429967,12.7848101 5.52703583,12.9291139 C5.5465798,13.0126582 5.29250814,13.1151899 6.48859935,12.8455696 C6.57068404,12.8417722 6.61758958,12.8417722 6.62931596,12.8379747 C6.62540717,12.8227848 6.63322476,12.8151899 6.64885993,12.8113924 C6.78175896,12.7962025 6.71921824,12.8189873 6.80130293,12.8 L7.05928339,12.743038 L7.00456026,12.7734177 C7.00065147,12.7620253 7.00846906,12.7544304 7.02019544,12.7506329 C7.0514658,12.7582278 7.08273616,12.7544304 7.11791531,12.7468354 L7.13355049,12.8113924 L6.11335505,14.3835443 L5.88664495,14.656962 L5.7771987,15.0177215 L5.79674267,15.0139241 L5.90618893,14.9683544 L5.87100977,15.1088608 L5.88273616,15.1506329 L5.91400651,15.1886076 C5.89837134,15.1924051 5.89446254,15.2 5.89837134,15.2151899 L5.90228013,15.2379747 L5.94918567,15.2265823 C6.01563518,15.1696203 6.04299674,15.1164557 6.03517915,15.0708861 C6.10944625,15.0822785 6.15635179,15.0860759 6.17980456,15.0822785 L6.18371336,15.1050633 C6.14071661,15.1164557 6.11726384,15.1506329 6.11335505,15.2075949 L6.11726384,15.2303797 L6.14071661,15.2265823 C6.51205212,14.835443 7.41498371,13.4949367 8.14201954,12.5835443 C8.11856678,12.4848101 8.49771987,12.3481013 9.27947883,12.1734177 L9.3029316,12.1696203 C9.33029316,12.2873418 9.27166124,12.5759494 9.12312704,13.035443 C9.02540717,13.3126582 8.98241042,13.464557 8.98631922,13.4873418 C8.86123779,13.8556962 8.80260586,14.0531646 8.81042345,14.0835443 L8.53289902,14.964557 C8.35309446,15.4164557 8.21628664,15.8911392 8.12247557,16.3924051 C8.13811075,16.3886076 8.16547231,16.3924051 8.19674267,16.4 L8.23583062,16.3658228 C8.23973941,16.3810127 8.247557,16.3848101 8.26710098,16.3848101 L8.2514658,16.3202532 L8.37263844,16.3164557 C8.40781759,16.3088608 8.43908795,16.2632911 8.46254072,16.1835443 C8.45863192,16.0658228 8.48208469,16.0012658 8.53680782,15.9860759 C8.61107492,15.7050633 8.65798046,15.5607595 8.67361564,15.556962 C8.74397394,15.2759494 8.79478827,15.1164557 8.82996743,15.0746835 C8.93550489,14.7101266 9.00977199,14.5202532 9.06058632,14.5088608 L9.0723127,14.5544304 L8.9980456,14.7481013 C8.86514658,15.321519 8.72833876,15.7772152 8.59153094,16.1113924 L8.63061889,16.278481 L8.65407166,16.2746835 C8.98631922,15.5835443 9.45928339,14.2164557 10.0807818,12.1734177 C10.1003257,11.9949367 10.1863192,11.8544304 10.3465798,11.7556962 L10.3114007,11.721519 L10.3074919,11.7025316 C10.3778502,11.6873418 10.4286645,11.6607595 10.4560261,11.6227848 C10.4521173,11.6075949 10.3895765,11.5848101 10.2684039,11.5544304 L10.6358306,10.0278481 C10.7452769,9.5721519 10.819544,9.17341772 10.8586319,8.82405063 L10.8547231,8.80126582 C10.780456,8.7556962 10.7061889,8.69113924 10.6397394,8.60759494 L10.6397394,8.5164557 L10.6358306,8.49746835 L10.6162866,8.50126582 C10.3895765,8.83544304 9.93615635,9.4164557 9.26775244,10.2443038 Z M9.78762215,10.5898734 C9.80716612,10.6696203 9.77589577,10.8177215 9.69771987,11.0341772 C9.6742671,11.3075949 9.57263844,11.4632911 9.39674267,11.5050633 L9.39283388,11.4822785 L9.23648208,11.5392405 L9.16612378,11.5544304 C9.13094463,11.5620253 9.09967427,11.5620253 9.06840391,11.5506329 L9.05276873,11.4898734 C9.04885993,11.4670886 9.27166124,11.1632911 9.73289902,10.5822785 L9.78762215,10.5898734 Z M9.42801303,11.5392405 L9.47882736,11.5278481 L9.49055375,11.5696203 C9.24429967,11.6417722 9.10749186,11.6797468 9.08013029,11.6873418 C9.06449511,11.6911392 9.04104235,11.7025316 9.01368078,11.7253165 C9.00977199,11.7101266 8.97850163,11.7101266 8.91596091,11.721519 C8.90423453,11.6797468 9.0762215,11.6189873 9.42801303,11.5392405 Z M7.00657214,12.2202532 L7.08892508,12.2002532 L7.07127802,12.1202532 L6.98892508,12.1402532 L7.00657214,12.2202532 Z M7.71596091,11.9949367 L7.7276873,12.0795521 L7.61042345,12.0949367 L7.60651466,12.0487829 L7.71596091,11.9949367 Z M6.36861564,12.4316456 L6.37361564,12.4916456 L6.27861564,12.5316456 L6.27361564,12.4716456 L6.36861564,12.4316456 Z M6.21107492,12.7141542 L6.21498371,12.7596087 L6.12508143,12.8050633 L6.11335505,12.7050633 L6.21107492,12.7141542 Z M6.42605863,12.6632911 L6.42996743,12.6966245 L6.26579805,12.7632911 L6.26188925,12.7299578 L6.42605863,12.6632911 Z M6.71140065,12.6177215 L6.71530945,12.6405063 L6.28534202,12.735443 L6.27361564,12.6936709 C6.5237785,12.6518987 6.49641694,12.6670886 6.71140065,12.6177215 Z M8.86514658,12.1316456 L8.90032573,12.1696203 C8.8495114,12.1810127 8.81042345,12.1962025 8.79087948,12.2151899 L8.74006515,12.2075949 C8.66188925,12.2379747 8.59153094,12.2607595 8.53680782,12.2721519 L8.48990228,12.2835443 C8.46254072,12.2911392 8.44299674,12.2797468 8.43127036,12.2531646 L8.75570033,12.1810127 L8.86514658,12.1316456 Z M9.09576547,12.0822785 L9.32638436,12.0291139 L9.33029316,12.0518987 C9.20521173,12.078481 9.10749186,12.1088608 9.03713355,12.143038 L9.03322476,12.1202532 C9.05276873,12.1164557 9.0723127,12.1012658 9.09576547,12.0822785 Z M6.6723127,12.7202532 L6.78175896,12.6974684 L6.79348534,12.7392405 C6.7465798,12.7506329 6.78175896,12.7506329 6.72312704,12.7772152 C6.60977199,12.7886076 6.63322476,12.7734177 6.4534202,12.8151899 L6.4495114,12.7924051 L6.6723127,12.7202532 Z M6.96938111,12.6728329 C7.00065147,12.6587484 7.02019544,12.6798752 7.02410423,12.7362132 L6.95765472,12.7643822 C6.93029316,12.7784667 6.91074919,12.75734 6.8990228,12.701002 L6.96938111,12.6728329 Z M5.74693356,15.0877215 L5.75620355,15.1177215 C5.83036346,15.1077215 5.85817342,15.0877215 5.83963345,15.0477215 L5.83036346,15.0177215 C5.76547354,15.0277215 5.73766357,15.0477215 5.74693356,15.0877215 Z M5.83973941,15.4632924 C5.84821399,15.4972594 5.86516314,15.5118167 5.89906145,15.5021118 C5.93295975,15.492407 5.94567162,15.4729972 5.93719704,15.4341778 L5.93295975,15.4050633 L5.8821123,15.4196206 L5.83973941,15.4632924 Z M8.33706274,16.1045897 C8.37184535,16.0943899 8.38923665,16.1096896 8.3979323,16.1453888 L8.40228013,16.1759882 L8.30228013,16.2014877 C8.31097578,16.1606885 8.31097578,16.1300891 8.30662796,16.1096896 L8.33706274,16.1045897 Z" id="Shape" fill="#000000" fill-rule="nonzero"></path>
    </g>
</svg>