<svg xmlns="http://www.w3.org/2000/svg" width="24" height="24" viewBox="0 0 24 24">
    <path fill="#205081" fill-rule="nonzero" d="M1.235 11.278c.412.25 1.286.517 2.502.517.591 0 1.16-.064 1.643-.187a.13.13 0 0 0 .099-.116c.075-.918.33-1.812.75-2.633a.13.13 0 0 0-.063-.177 8.729 8.729 0 0 1-1.428-.843c-.702-.507-1.296-1.082-1.72-1.66a.132.132 0 0 0-.235.051 20.922 20.922 0 0 1-.647 2.463c-.28.856-.6 1.67-.952 2.418a.13.13 0 0 0 .05.167zm5.247 4.585a.13.13 0 0 0 .011-.153 6.999 6.999 0 0 1-.95-2.568.13.13 0 0 0-.155-.108 8.7 8.7 0 0 1-1.651.155c-.868 0-1.688-.117-2.372-.338a.131.131 0 0 0-.25.047.13.13 0 0 0 .09.132c.344.735.657 1.533.93 2.372.28.856.501 1.702.658 2.513a.131.131 0 0 0 .14.106c.482-.04 1.347-.335 2.329-1.045.478-.346.9-.731 1.22-1.113zm7.156-14.234a.309.309 0 0 0-.22-.176L7.148.157a.307.307 0 1 0-.312.484l.942 1.277c-.538.476-1.099.925-1.681 1.346-.731.528-1.47 1-2.197 1.399a.13.13 0 0 0-.058.165c.186.443.735 1.17 1.719 1.883.478.346.976.626 1.44.81a.133.133 0 0 0 .149-.036 7.014 7.014 0 0 1 2.325-1.77l.317 1.59a.309.309 0 0 0 .57.096l3.26-5.49a.307.307 0 0 0 .016-.282zm-3.8 16.912A7.17 7.17 0 0 1 7.52 17.01a.131.131 0 0 0-.19.004c-.357.382-.788.76-1.245 1.091-.702.508-1.435.893-2.119 1.114a.13.13 0 0 0-.023.24c.71.392 1.435.855 2.153 1.374.743.538 1.43 1.1 2.04 1.672.05.046.126.047.177.003.373-.325.904-1.08 1.276-2.22a6.762 6.762 0 0 0 .328-1.615.132.132 0 0 0-.08-.13zm14.007-5.759c-.412-.25-1.287-.517-2.503-.517-.591 0-1.159.065-1.642.187a.13.13 0 0 0-.1.116 7.066 7.066 0 0 1-.749 2.632.13.13 0 0 0 .062.178c.478.22.972.512 1.429.842.701.508 1.296 1.082 1.719 1.661a.132.132 0 0 0 .235-.052c.155-.793.373-1.622.647-2.462.28-.856.6-1.67.952-2.418a.13.13 0 0 0-.05-.167zm-5.248-4.585a.13.13 0 0 0-.01.153c.482.785.805 1.658.949 2.568a.131.131 0 0 0 .155.108 8.69 8.69 0 0 1 1.652-.155c.867 0 1.687.117 2.371.339a.14.14 0 0 0 .041.006h.002a.13.13 0 0 0 .133-.13.13.13 0 0 0-.027-.08 21.003 21.003 0 0 1-.919-2.349c-.279-.855-.5-1.701-.657-2.513a.132.132 0 0 0-.14-.106c-.482.04-1.347.335-2.33 1.046-.478.346-.9.731-1.22 1.113zm-3.354-2.64c.86.352 1.661.883 2.316 1.533a.132.132 0 0 0 .093.038h.002c.036 0 .07-.016.094-.042.357-.383.788-.76 1.246-1.091.702-.508 1.434-.894 2.119-1.115a.132.132 0 0 0 .023-.239 21.157 21.157 0 0 1-2.154-1.374 21.15 21.15 0 0 1-2.04-1.672.131.131 0 0 0-.177-.003c-.372.325-.903 1.08-1.275 2.22a6.776 6.776 0 0 0-.329 1.615.131.131 0 0 0 .082.13zm4.275 11.792a6.836 6.836 0 0 0-1.44-.811.132.132 0 0 0-.149.036 7.024 7.024 0 0 1-2.324 1.77l-.318-1.589a.308.308 0 0 0-.57-.097l-3.259 5.491a.307.307 0 0 0 .204.458l6.27 1.296a.31.31 0 0 0 .29-.514l-.92-1.248a21.734 21.734 0 0 1 1.68-1.345c.732-.53 1.471-1 2.198-1.399a.131.131 0 0 0 .057-.165c-.186-.443-.735-1.171-1.719-1.883z"/>
</svg>
