<svg xmlns="http://www.w3.org/2000/svg" width="24" height="24" viewBox="0 0 24 24">
    <g fill="#2BA977" fill-rule="nonzero">
        <path d="M13.52 0h3.953v17.977c-2.025.38-3.516.53-5.13.53C7.515 18.502 5 16.362 5 12.25c0-3.96 2.667-6.53 6.799-6.53.641 0 1.13.05 1.72.2V0zm.138 9.16a4.01 4.01 0 0 0-1.334-.2c-2 0-3.155 1.21-3.155 3.331 0 2.065 1.105 3.205 3.13 3.205.438 0 .794-.025 1.359-.1V9.16z"/>
        <path d="M23.94 6.203v9.001c0 3.1-.234 4.59-.921 5.876-.642 1.235-1.486 2.014-3.232 2.875l-3.67-1.715c1.746-.805 2.591-1.516 3.13-2.6.565-1.11.743-2.396.743-5.776v-7.66h3.95zM19.592 0h3.954v3.985h-3.954V0z"/>
    </g>
</svg>
