<svg xmlns="http://www.w3.org/2000/svg" width="24" height="24" viewBox="0 0 24 24">
    <g fill="none" fill-rule="nonzero">
        <path fill="#FFCE7E" d="M5.22 12.978c.036.711.783.382 1.121.16.321-.21.415-.035.443-.452.019-.274.052-.547.036-.822-.486-.042-1.014.068-1.412.343-.205.142-.59.594-.188.771"/>
        <path fill="#4FBAFF" d="M6.946 4.508C4.084 3.742 6.212.279 8.51 1.704L6.946 4.508zM19.66 1.444c2.265-1.513 4.312 1.9 1.68 2.76l-1.68-2.76z"/>
        <path fill="#FFCE7E" d="M20.148 21.73c.576.338 1.627 1.362.764 1.858-.83.723-1.293-.792-2.021-1.002.313-.405.71-.774 1.257-.857zM9.869 22.887c-.676.099-1.056.678-1.619.973-.53.3-.733-.097-.781-.177-.083-.036-.076.033-.205-.09-.491-.738.513-1.277 1.036-1.644.728-.14 1.185.46 1.569.938z"/>
        <path fill="#000" d="M7.065 3.551c-.377-.19-.654-.448-.423-.863.213-.385.61-.343.988-.153l-.565 1.016zm13.679-.36c.378-.19.655-.449.424-.864-.214-.385-.611-.343-.989-.153l.565 1.016z"/>
        <path fill="#FFCE7E" d="M23.343 12.888c-.036.711-.783.382-1.121.16-.321-.211-.415-.036-.444-.452-.018-.274-.051-.548-.035-.823.486-.041 1.014.069 1.412.344.205.141.59.594.188.771"/>
        <path fill="#4FBAFF" d="M13.995.006c2.865 0 5.55.39 6.95 3.007 1.257 2.935.81 6.1 1.002 9.2.165 2.664.53 5.74-.77 8.208-1.366 2.597-4.78 3.25-7.593 3.154-2.21-.075-4.88-.76-6.126-2.68-1.463-2.253-.77-5.603-.664-8.11.126-2.969-.846-5.947.18-8.852C8.038.919 10.907.238 13.994.006"/>
        <path fill="#FFF" d="M14.5 3.664c.515 2.844 5.403 2.092 4.7-.776-.629-2.573-4.87-1.86-4.7.776M8.66 4.124c.666 2.476 4.834 1.842 4.677-.642-.188-2.974-5.315-2.4-4.678.642M15.09 7.077c.002.37.089.785.015 1.178-.1.178-.294.197-.462.27a.675.675 0 0 1-.52-.387c-.06-.449.022-.883.037-1.333l.93.272z"/>
        <g fill="#000" transform="translate(9.082 2.98)">
            <ellipse cx=".727" cy=".741" rx="1" ry="1"/>
            <ellipse cx="1.047" cy=".904" rx="1" ry="1"/>
        </g>
        <g fill="#000" transform="translate(14.967 2.799)">
            <ellipse cx=".739" cy=".741" rx="1" ry="1"/>
            <ellipse cx="1.056" cy=".904" rx="1" ry="1"/>
        </g>
        <path fill="#FFF" d="M13.079 7.036c-.307.708.171 2.124 1.004 1.08-.06-.45.023-.884.038-1.333l-1.042.253z"/>
        <path fill="#FFCE7E" d="M13.184 5.673c-.572.047-1.04.694-.743 1.206.394.678 1.274-.06 1.822.01.63.011 1.147.633 1.654.112.563-.58-.243-1.146-.873-1.398l-1.86.07z"/>
        <path fill="#000" d="M13.112 5.645c-.042-.943 1.848-1.061 2.071-.272.223.788-1.978.97-2.071.272-.074-.558 0 0 0 0z"/>
    </g>
</svg>
