<svg xmlns="http://www.w3.org/2000/svg" width="24" height="24" viewBox="0 0 24 24">
    <g fill="none" fill-rule="nonzero">
        <path fill="#6762A6" d="M21.746 23.944h-14.5C6.006 23.944 5 22.92 5 21.66V2.283C5 1.023 6.005 0 7.246 0h14.5c1.24 0 2.246 1.022 2.246 2.283V21.66c0 1.261-1.006 2.284-2.246 2.284z"/>
        <path fill="#FFF" d="M16.902 20.65v-9.51s.608-2.275-7.492.931c-.015.04-.015-8.793-.015-8.793l2.647-.016v5.66s7.41-2.968 7.41 2.25v9.477h-2.55zM18.41 6.686h-2.807c1.01-1.256 1.925-3.409 1.925-3.409h2.903s-.497 1.403-2.021 3.41zM9.443 20.633v-5.415l2.663 2.707-2.663 2.708z"/>
    </g>
</svg>
