<svg xmlns="http://www.w3.org/2000/svg" width="24" height="24" viewBox="0 0 24 24">
    <g fill="none" fill-rule="nonzero">
        <path fill="#5382A1" d="M11.805 18.537s-.928.532.66.712c1.924.216 2.908.185 5.029-.21 0 0 .557.344 1.336.643-4.754 2.008-10.76-.117-7.025-1.145m-.581-2.62s-1.041.759.548.92c2.056.21 3.68.227 6.489-.306 0 0 .388.388 1 .6-5.749 1.657-12.15.131-8.037-1.215"/>
        <path fill="#E76F00" d="M16.12 11.47c1.172 1.33-.307 2.526-.307 2.526s2.974-1.513 1.608-3.408c-1.275-1.768-2.254-2.646 3.043-5.673 0 0-8.314 2.046-4.343 6.556"/>
        <path fill="#5382A1" d="M22.408 20.475s.687.558-.756.99c-2.744.819-11.421 1.066-13.831.032-.867-.371.758-.887 1.27-.995.532-.114.837-.093.837-.093-.964-.669-6.229 1.314-2.674 1.882 9.692 1.55 17.669-.698 15.154-1.816m-10.157-7.274s-4.414 1.033-1.563 1.409c1.203.158 3.603.123 5.838-.062 1.826-.152 3.66-.475 3.66-.475s-.643.272-1.11.586c-4.481 1.162-13.14.621-10.647-.567 2.108-1.005 3.822-.89 3.822-.89m7.917 4.361c4.557-2.333 2.45-4.576.98-4.274-.36.074-.521.138-.521.138s.133-.206.389-.296c2.909-1.008 5.146 2.973-.94 4.55 0 0 .071-.062.092-.118"/>
        <path fill="#E76F00" d="M17.421.026s2.524 2.488-2.393 6.313c-3.942 3.07-.899 4.82-.001 6.818-2.302-2.046-3.99-3.848-2.857-5.525 1.662-2.461 6.27-3.654 5.251-7.606"/>
        <path fill="#5382A1" d="M12.699 23.887c4.373.276 11.089-.153 11.248-2.193 0 0-.306.773-3.615 1.387-3.732.693-8.336.612-11.067.168 0 0 .56.456 3.434.638"/>
    </g>
</svg>
