<?xml version="1.0" encoding="UTF-8"?>
<svg width="24px" height="24px" viewBox="0 0 24 24" version="1.1" xmlns="http://www.w3.org/2000/svg" xmlns:xlink="http://www.w3.org/1999/xlink">
    <!-- Generator: Sketch 51.1 (57501) - http://www.bohemiancoding.com/sketch -->
    <title>icons/tech/JIRA</title>
    <desc>Created with Sketch.</desc>
    <defs></defs>
    <g id="icons/tech/JIRA" stroke="none" stroke-width="1" fill="none" fill-rule="evenodd">
        <g id="jira" transform="translate(6.000000, 0.000000)" fill="#264970" fill-rule="nonzero">
            <g id="Group">
                <path d="M3.855875,1.5431623 C2.998875,1.5431623 2.305,2.23979058 2.305,3.10341361 C2.305,3.96490052 2.998875,4.66404188 3.855875,4.66404188 C4.713375,4.66404188 5.406625,3.96490052 5.406625,3.10341361 C5.406625,2.23979058 4.7135,1.5431623 3.855875,1.5431623 M14.0445,1.5431623 C13.187125,1.5431623 12.494125,2.23979058 12.494125,3.10341361 C12.494125,3.96490052 13.187125,4.66404188 14.0445,4.66404188 C14.8995,4.66404188 15.595,3.96490052 15.595,3.10341361 C15.595,2.23979058 14.8995,1.54429319 14.0445,1.5431623 M8.950125,0.119497382 C8.09325,0.119497382 7.399375,0.816 7.399375,1.67987435 C7.399375,2.54136126 8.093125,3.24050262 8.950125,3.24050262 C9.807625,3.24050262 10.50075,2.54136126 10.50075,1.67987435 C10.50075,0.816 9.8075,0.119497382 8.95,0.119497382 M17.71075,5.89093194 C17.6258826,5.8259791 17.5221654,5.790799 17.4155,5.79078534 C17.357125,5.79078534 17.298,5.80146597 17.24225,5.82307853 C16.19225,6.22680628 15.12575,6.53327749 14.1525,6.76121466 C13.954,6.80770681 13.79375,6.95597906 13.72725,7.13390576 C13.018125,9.08645026 11.207375,10.9457592 9.307625,12.8931518 C9.231375,12.9659058 9.124625,13.0619058 8.95075,13.0619058 C8.77725,13.0619058 8.6715,12.9689215 8.593875,12.8931518 C6.694375,10.9457592 4.883625,9.09285864 4.17425,7.14018848 C4.10775,6.96238743 3.947375,6.81424084 3.74925,6.76749738 C2.775375,6.53956021 1.706375,6.22353927 0.6575,5.82006283 C0.602016065,5.79877648 0.543137406,5.78783329 0.48375,5.78776963 C0.378625,5.78776963 0.27675,5.82094241 0.19075,5.88703665 C0.0584412087,5.98872792 -0.0127237683,6.15153756 0.00225,6.31828272 C0.163125,7.94198953 0.801375,9.5293822 1.95325,11.1926702 C3.036,12.7565654 4.44825,14.2041047 5.813625,15.6038953 C8.329375,18.1835812 10.706,20.6197696 10.9145,23.4448586 C10.933409,23.6999368 11.1447968,23.8971984 11.39925,23.8972147 L14.355,23.8972147 C14.4880309,23.8970959 14.6152107,23.842221 14.7069349,23.7453636 C14.7986592,23.6485061 14.846926,23.5181159 14.8405,23.3845445 C14.7475,21.4957068 14.040375,19.6041047 12.67875,17.6024293 C12.393375,17.1827435 12.08775,16.7743665 11.768125,16.3747853 C11.63825,16.2120628 11.692625,16.0098848 11.791875,15.9078534 C11.890125,15.8068272 11.98875,15.7060524 12.088125,15.6038953 C13.4535,14.2041047 14.865625,12.7565654 15.9485,11.1926702 C17.10025,9.52913089 17.73825,7.9511623 17.89925,6.32770681 C17.91525,6.16460733 17.841625,5.9914555 17.71075,5.89093194 M5.779,17.801466 C5.709,17.7279581 5.606375,17.6529424 5.433875,17.6529424 C5.21325,17.6529424 5.082375,17.8062408 5.032875,17.8821361 C3.789625,19.7839162 3.1475,21.5788901 3.05875,23.3826597 C3.05265008,23.5166449 3.10091844,23.6473797 3.1925,23.7449215 C3.28496574,23.8418476 3.41265796,23.8968205 3.54625,23.8972147 L6.496875,23.8972147 C6.75184074,23.8961004 6.96334928,23.6986206 6.98325,23.4430995 C7.0475,22.5736963 7.31675,21.7022827 7.807,20.7865131 C7.977,20.4697382 7.844875,20.1720628 7.747125,20.0449005 C7.260875,19.409089 6.665125,18.7309319 5.779,17.801466" id="Shape"></path>
                <path d="M8.9535,7.34651309 C9.87975,7.34651309 10.417,7.29059686 10.60575,7.29059686 C10.8345,7.29059686 11.052875,7.47895288 11.052875,7.74257592 C11.052875,7.81947644 11.03475,7.87451309 11.016875,7.92314136 C10.894,8.2532356 10.334125,9.44104712 9.29175,10.4599791 C9.17475,10.5743246 9.04225,10.5956859 8.951,10.5956859 L8.95,10.5956859 C8.858875,10.5956859 8.7265,10.5743246 8.609625,10.4599791 C7.567125,9.44104712 7.007125,8.2532356 6.884625,7.92301571 C6.8665,7.87451309 6.848375,7.81947644 6.848375,7.74257592 C6.848375,7.47895288 7.067125,7.29059686 7.295875,7.29059686 C7.484625,7.29059686 8.0215,7.34651309 8.9475,7.34651309 L8.953625,7.34651309" id="Shape"></path>
            </g>
        </g>
    </g>
</svg>