<svg xmlns="http://www.w3.org/2000/svg" width="24" height="24" viewBox="0 0 24 24">
    <path fill="#EC2227" fill-rule="evenodd" d="M22.455 1.119l-9.44 4.44-9.44-4.44C2.913.749 2 1.281 2 2.232V21.69c0 .71.413 1.29.973 1.307a.301.301 0 0 0 .078 0c.019 0 2.1-.22 6.243-.661l-1.172-1.72c-.512-.737.109-1.376.766-1.128.131.05.275-.016.403.02L7.74 14.113a4.343 4.343 0 0 1-.028-.096.934.934 0 0 1 .587-1.065.886.886 0 0 1 1.091.457l1.78 4.526a.951.951 0 0 1 .954-.794c.464.013.85.37.911.845a.958.958 0 0 1 .951-.846c.461 0 .82.42.9.873l1.049-3.046c.15-.42.57-.67.999-.594a.92.92 0 0 1 .746.906l-.935 7.05 6.18.661a.804.804 0 0 0 .134 0c.56-.017.942-.593.942-1.304V2.227c0-.95-.883-1.478-1.545-1.108z"/>
</svg>
