<svg xmlns="http://www.w3.org/2000/svg" width="24" height="24" viewBox="0 0 24 24">
    <g fill="none" fill-rule="evenodd">
        <path fill="#000" fill-rule="nonzero" d="M6.056 6.209L17.825 0 24 11.635l-11.664 6.208z"/>
        <path stroke="#FA1516" stroke-width=".689" d="M10.067 11.113l-2.27-4.122 5.911 1.357-2.27-4.122"/>
        <path stroke="#16D41A" stroke-width=".689" d="M12.758 16.643l2.111-6.886m2.323 4.539l-6.861-2.14"/>
        <path stroke="#FB16BB" stroke-width=".689" d="M15.714 9.496l4.855-2.609"/>
        <path stroke="#FB16BB" stroke-width=".603" d="M18.142 8.191l2.427 4.487"/>
        <path stroke="#FCFC17" stroke-width=".689" d="M18.933 4.591c0 1.044-.527 1.983-1.372 2.4-1.372.679-3.061.105-3.642-1.304-.527-1.2 0-2.609 1.109-3.287a2.704 2.704 0 0 1 3.483.887l-4.644 2.4"/>
        <path fill="#000" fill-rule="nonzero" d="M5 12.991l1.056-6.208 5.91 11.113-1.372 5.426L5 12.992zM12.494 18l-1.583 5.53 10.925-5.79 2.111-5.688L12.494 18z"/>
    </g>
</svg>
