<svg xmlns="http://www.w3.org/2000/svg" width="24" height="24" viewBox="0 0 24 24">
    <path fill="#6983B5" fill-rule="nonzero" d="M0 17.662l1.8-8.467h4.164c1.8.104 2.7.94 2.7 2.404 0 2.509-2.138 3.972-4.05 3.867H2.587l-.45 2.196H0zm3.038-3.763h1.35c1.013-.105 1.913-.418 2.026-2.195 0-.628-.563-.941-1.35-.941H3.6l-.563 3.136zm5.208 1.567L10.046 7h2.138l-.45 2.195h2.025c1.8.104 2.476.94 2.25 1.986l-.787 4.285h-2.25l.787-3.867c.113-.523.113-.836-.675-.836h-1.688l-1.012 4.703H8.246zm6.832 2.196l1.8-8.467h4.164c1.8.104 2.7.94 2.7 2.404 0 2.509-2.138 3.972-4.05 3.867h-2.026l-.45 2.196h-2.138zm3.038-3.763h1.35c1.013-.105 1.913-.418 2.026-2.195 0-.628-.563-.941-1.35-.941h-1.463l-.563 3.136z"/>
</svg>
