<svg xmlns="http://www.w3.org/2000/svg" width="24" height="24" viewBox="0 0 24 24">
    <path fill="#000" fill-rule="nonzero" d="M12 0C5.373 0 0 5.372 0 12c0 6.627 5.373 12 12 12s12-5.373 12-12c0-6.628-5.373-12-12-12zm0 22.459c-1.885 0-3.414-1.26-3.414-2.813h6.828c0 1.553-1.528 2.813-3.414 2.813zm5.64-3.745H6.36V16.67h11.28v2.045zm-.041-3.098H6.392c-.037-.043-.075-.085-.111-.129-1.155-1.401-1.426-2.133-1.69-2.88-.005-.024 1.4.288 2.395.512 0 0 .513.118 1.262.255-.72-.843-1.146-1.915-1.146-3.01 0-2.406 1.844-4.508 1.179-6.207.648.052 1.34 1.367 1.387 3.422.689-.952.977-2.69.977-3.755 0-1.103.727-2.385 1.454-2.429-.648 1.068.168 1.984.894 4.256.272.854.237 2.29.447 3.2.07-1.89.395-4.651 1.595-5.604-.53 1.2.079 2.702.494 3.424.671 1.164 1.078 2.047 1.078 3.716a4.642 4.642 0 0 1-1.11 2.996c.792-.149 1.34-.283 1.34-.283l2.573-.502s-.374 1.538-1.811 3.018z"/>
</svg>
