<svg xmlns="http://www.w3.org/2000/svg" width="24" height="24" viewBox="0 0 24 24">
    <defs>
        <linearGradient id="a" x1="12.959%" x2="79.639%" y1="12.208%" y2="78.076%">
            <stop offset="0%" stop-color="#387EB8"/>
            <stop offset="100%" stop-color="#366994"/>
        </linearGradient>
        <linearGradient id="b" x1="19.128%" x2="90.742%" y1="20.71%" y2="88.258%">
            <stop offset="0%" stop-color="#FFE052"/>
            <stop offset="100%" stop-color="#FFC331"/>
        </linearGradient>
    </defs>
    <g fill="none" fill-rule="nonzero">
        <path fill="url(#a)" d="M11.898.007C5.82.007 6.2 2.653 6.2 2.653l.007 2.741h5.8v.823H3.903s-3.89-.442-3.89 5.714c0 6.157 3.395 5.939 3.395 5.939h2.026v-2.857s-.109-3.408 3.34-3.408h5.753s3.232.052 3.232-3.136V3.197S18.25.007 11.9.007zM8.7 1.85a1.04 1.04 0 0 1 1.044 1.048A1.049 1.049 0 0 1 8.7 3.945a1.04 1.04 0 0 1-1.043-1.047A1.049 1.049 0 0 1 8.7 1.85z"/>
        <path fill="url(#b)" d="M12.071 23.918c6.078 0 5.698-2.646 5.698-2.646l-.006-2.742h-5.8v-.823h8.103s3.89.443 3.89-5.714-3.395-5.938-3.395-5.938h-2.026v2.857s.11 3.408-3.34 3.408H9.442s-3.232-.053-3.232 3.136v5.271s-.491 3.19 5.86 3.19h.001zm3.198-1.844a1.04 1.04 0 0 1-1.043-1.047 1.049 1.049 0 0 1 1.043-1.048 1.04 1.04 0 0 1 1.044 1.048 1.049 1.049 0 0 1-1.044 1.047z"/>
    </g>
</svg>
