<svg xmlns="http://www.w3.org/2000/svg" width="24" height="24" viewBox="0 0 24 24">
    <g fill="none" fill-rule="nonzero">
        <path fill="#53C1DE" d="M19.468 8.283a15.167 15.167 0 0 0-.743-.241c.041-.173.08-.347.114-.522.564-2.812.195-5.078-1.062-5.824-1.205-.715-3.177.03-5.168 1.814a15.63 15.63 0 0 0-.576.543 14.231 14.231 0 0 0-.383-.364C9.564 1.783 7.472.979 6.216 1.727 5.01 2.445 4.655 4.575 5.162 7.24c.05.264.107.526.17.787-.296.087-.581.179-.855.277-2.446.877-4.009 2.253-4.009 3.68 0 1.473 1.677 2.95 4.226 3.847.206.072.415.14.625.2-.069.282-.13.565-.182.85-.483 2.618-.106 4.698 1.095 5.41 1.241.737 3.323-.02 5.351-1.843.16-.144.321-.297.482-.458.203.202.411.397.625.587 1.964 1.739 3.904 2.44 5.104 1.726 1.24-.738 1.642-2.972 1.12-5.69a13.8 13.8 0 0 0-.14-.636c.147-.044.29-.09.43-.138 2.65-.903 4.373-2.362 4.373-3.856 0-1.431-1.613-2.816-4.109-3.7z"/>
        <path fill="#FFF" d="M18.894 14.875c-.127.043-.256.085-.388.125a24.245 24.245 0 0 0-1.17-3.012c.46-1.021.84-2.021 1.124-2.968.237.07.466.145.687.224 2.139.757 3.443 1.877 3.443 2.74 0 .918-1.409 2.112-3.696 2.891zm-.95 1.935c.232 1.202.265 2.289.112 3.138-.138.763-.415 1.272-.757 1.476-.728.434-2.286-.13-3.965-1.617-.193-.17-.387-.353-.581-.545a23.778 23.778 0 0 0 1.937-2.53 22.448 22.448 0 0 0 3.13-.497c.047.196.089.388.125.575zM8.347 21.35c-.711.259-1.278.266-1.62.063-.73-.433-1.032-2.103-.619-4.342.05-.265.105-.528.169-.79.946.216 1.994.37 3.114.464.64.926 1.309 1.777 1.984 2.522-.144.143-.29.282-.44.417-.897.806-1.796 1.378-2.587 1.666zm-3.333-6.48c-1.127-.396-2.057-.91-2.695-1.472-.573-.505-.863-1.007-.863-1.414 0-.865 1.255-1.97 3.347-2.72.263-.094.528-.18.796-.257.289.967.668 1.979 1.126 3.002a25.168 25.168 0 0 0-1.14 3.045 11.913 11.913 0 0 1-.571-.183zM6.13 7.046c-.434-2.284-.145-4.006.58-4.439.774-.46 2.483.197 4.285 1.842.115.106.23.216.347.33a24.223 24.223 0 0 0-1.969 2.506c-1.087.104-2.127.27-3.084.493a15.26 15.26 0 0 1-.159-.732zM16.1 9.577a32.49 32.49 0 0 0-.703-1.189c.737.096 1.444.223 2.107.379-.199.657-.447 1.343-.74 2.047-.213-.417-.435-.83-.664-1.237zm-4.065-4.073c.455.507.911 1.074 1.36 1.689a28.258 28.258 0 0 0-2.732-.001c.45-.61.91-1.175 1.372-1.688zm-4.091 4.08c-.227.404-.445.814-.653 1.23a22.833 22.833 0 0 1-.734-2.058c.66-.152 1.362-.276 2.095-.37-.245.394-.481.793-.708 1.198zm.729 6.07a20.478 20.478 0 0 1-2.13-.353c.204-.678.456-1.382.75-2.099a30.103 30.103 0 0 0 1.38 2.451zm3.389 2.88a22.69 22.69 0 0 1-1.39-1.71 33.488 33.488 0 0 0 2.747-.006c-.45.63-.905 1.205-1.357 1.717zm4.712-5.369c.309.725.57 1.426.776 2.092-.67.157-1.394.284-2.156.378a32.56 32.56 0 0 0 1.38-2.47zm-1.526.753c-.35.625-.72 1.24-1.108 1.84-.686.05-1.394.076-2.116.076-.72 0-1.419-.023-2.093-.068a28.942 28.942 0 0 1-2.115-3.758 28.677 28.677 0 0 1 2.103-3.752 27.191 27.191 0 0 1 4.213 0c.392.597.763 1.207 1.113 1.83.352.624.685 1.26.997 1.907-.31.654-.64 1.296-.993 1.925zm2.037-11.342c.774.46 1.075 2.31.589 4.739-.032.158-.067.316-.104.473-.959-.228-2-.397-3.09-.503a23.754 23.754 0 0 0-1.954-2.508c.173-.171.35-.339.532-.501 1.706-1.528 3.3-2.13 4.027-1.7z"/>
        <path fill="#53C1DE" d="M12.023 9.86c1.14 0 2.063.95 2.063 2.123 0 1.173-.924 2.123-2.063 2.123-1.14 0-2.064-.95-2.064-2.123 0-1.172.924-2.123 2.064-2.123"/>
    </g>
</svg>
