<svg xmlns="http://www.w3.org/2000/svg" width="24" height="24" viewBox="0 0 24 24">
    <path fill="#89C967" fill-rule="evenodd" d="M17.607 15.224a10.298 10.298 0 0 0-5.553-1.623c-1.932 0-3.864.543-5.552 1.623l-3.09-3.103a14.49 14.49 0 0 1 8.642-2.83c3.15 0 6.15.992 8.642 2.83l-3.089 3.103zM8.14 16.871a8.03 8.03 0 0 1 3.914-1.009c1.392 0 2.73.35 3.914 1.009l-3.914 3.931-3.914-3.931zm3.914-13.673l4.4 4.42a16.883 16.883 0 0 0-4.4-.589c-1.48 0-2.96.2-4.4.588l4.4-4.42zM24 11.999L12.054 0 .11 11.999H.109L12.054 24 24 12v-.001z"/>
</svg>
