<svg xmlns="http://www.w3.org/2000/svg" width="24" height="24" viewBox="0 0 24 24">
    <defs>
        <linearGradient id="a" x1="59.404%" x2="40.49%" y1="-3.568%" y2="103.58%">
            <stop offset="0%" stop-color="#FAAE42"/>
            <stop offset="100%" stop-color="#EF3E31"/>
        </linearGradient>
        <linearGradient id="b" x1="59.841%" x2="43.622%" y1="1.974%" y2="97.794%">
            <stop offset="0%" stop-color="#E39F3A"/>
            <stop offset="100%" stop-color="#D33929"/>
        </linearGradient>
    </defs>
    <g fill="none" fill-rule="nonzero">
        <path fill="url(#a)" d="M5.314 0h13.242c.644 0 1.27.103 1.877.319a5.275 5.275 0 0 1 2.269 1.612A5.266 5.266 0 0 1 23.85 4.5c.056.347.065.694.065 1.04v12.966c0 .413-.019.835-.103 1.238a5.315 5.315 0 0 1-1.26 2.503 5.284 5.284 0 0 1-2.335 1.51 5.594 5.594 0 0 1-1.672.243c-.252 0-13.27 0-13.466-.01a5.315 5.315 0 0 1-2.69-.89A5.412 5.412 0 0 1 .57 21a5.307 5.307 0 0 1-.533-2.334V5.334a4.993 4.993 0 0 1 .495-2.296A5.317 5.317 0 0 1 2.335.928a5.217 5.217 0 0 1 2.68-.91C5.108 0 5.21 0 5.314 0z"/>
        <path fill="url(#b)" d="M20.171 19.631a3.662 3.662 0 0 0-.28-.384 3.972 3.972 0 0 0-.803-.731 2.452 2.452 0 0 0-1.26-.432 2.274 2.274 0 0 0-.935.15 6.075 6.075 0 0 0-.868.403 12.24 12.24 0 0 1-1 .479c-.41.168-.84.3-1.279.393a8.285 8.285 0 0 1-1.662.132c-1-.02-1.998-.17-2.95-.45a11.14 11.14 0 0 1-2.4-1.041 12.375 12.375 0 0 1-1.86-1.322 13.606 13.606 0 0 1-1.325-1.322c-.28-.328-.551-.675-.803-1.031a4.375 4.375 0 0 1-.28-.44L0 11.362V5.316C0 2.38 2.363 0 5.286 0h4.716l3.492 3.563c7.882 5.38 5.332 11.315 5.332 11.315s2.242 2.531 1.345 4.753z"/>
        <path fill="#FFF" d="M13.513 3.563c7.882 5.38 5.332 11.315 5.332 11.315s2.241 2.54 1.336 4.763c0 0-.925-1.557-2.475-1.557-1.494 0-2.372 1.557-5.38 1.557-6.695 0-9.86-5.616-9.86-5.616 6.032 3.984 10.15 1.162 10.15 1.162C9.9 13.604 4.118 6.028 4.118 6.028c5.034 4.303 7.21 5.438 7.21 5.438-1.298-1.079-4.94-6.347-4.94-6.347C9.3 8.08 15.09 12.216 15.09 12.216c1.644-4.575-1.578-8.653-1.578-8.653z"/>
    </g>
</svg>
