<svg xmlns="http://www.w3.org/2000/svg" width="24" height="24" viewBox="0 0 24 24">
    <g fill="none" fill-rule="nonzero">
        <ellipse cx="12" cy="12.031" fill="#1A171B" rx="12" ry="11.953"/>
        <path fill="#FFF" d="M17.222 4.494c-1.217.042-2.28.71-3.07 1.635-.876 1.014-1.459 2.216-1.879 3.444-.75-.614-1.33-1.407-2.535-1.753-.931-.267-1.91-.157-2.809.51-.426.318-.72.797-.859 1.248-.361 1.17.38 2.212.717 2.586l.736.786c.152.154.517.556.339 1.133-.193.626-.952 1.032-1.73.793-.347-.105-.846-.363-.735-.726.047-.149.153-.26.21-.388.053-.11.078-.193.094-.242.142-.462-.052-1.064-.55-1.216-.463-.142-.937-.03-1.121.565-.209.676.116 1.902 1.854 2.436 2.037.623 3.76-.481 4.005-1.922.154-.903-.255-1.574-1.005-2.436l-.61-.673c-.37-.368-.497-.995-.114-1.477.323-.407.783-.58 1.536-.377 1.1.298 1.59 1.058 2.409 1.671-.338 1.104-.559 2.212-.759 3.205l-.121.74c-.585 3.056-1.032 4.734-2.192 5.698-.234.165-.568.413-1.071.43-.264.008-.35-.172-.353-.251-.007-.185.15-.27.253-.353.155-.084.39-.224.374-.671-.017-.53-.457-.988-1.093-.967-.476.016-1.202.463-1.174 1.28.028.844.818 1.477 2.009 1.437.636-.022 2.058-.28 3.459-1.939 1.63-1.901 2.086-4.081 2.43-5.677l.382-2.106c.213.025.44.042.688.048 2.03.043 3.046-1.005 3.061-1.767.01-.461-.304-.915-.743-.905-.315.009-.71.217-.805.65-.092.426.647.81.069 1.182-.41.264-1.146.45-2.181.3l.188-1.037c.384-1.967.858-4.385 2.657-4.444.13-.007.61.006.622.322.003.105-.023.132-.147.374a.854.854 0 0 0-.168.533c.017.502.4.832.955.812.742-.024.955-.744.943-1.113-.03-.869-.949-1.418-2.166-1.378z"/>
    </g>
</svg>
