<svg xmlns="http://www.w3.org/2000/svg" width="24" height="24" viewBox="0 0 24 24">
    <defs>
        <linearGradient id="a" x1="93.679%" x2="34.254%" y1="86.161%" y2="30.994%">
            <stop offset="6%" stop-color="#0CB0F2"/>
            <stop offset="21%" stop-color="#10ADF2"/>
            <stop offset="37%" stop-color="#1EA5F3"/>
            <stop offset="54%" stop-color="#3497F5"/>
            <stop offset="71%" stop-color="#5283F7"/>
            <stop offset="88%" stop-color="#796AF9"/>
            <stop offset="97%" stop-color="#905CFB"/>
        </linearGradient>
        <linearGradient id="b" x1="25.882%" x2="50.914%" y1="92.564%" y2="40.676%">
            <stop offset="6%" stop-color="#0CB0F2"/>
            <stop offset="20%" stop-color="#0DB2EE"/>
            <stop offset="35%" stop-color="#12B7E0"/>
            <stop offset="51%" stop-color="#19C0CA"/>
            <stop offset="68%" stop-color="#23CCAC"/>
            <stop offset="85%" stop-color="#30DC85"/>
            <stop offset="97%" stop-color="#3BEA62"/>
        </linearGradient>
        <linearGradient id="c" x1="4862%" x2="8812%" y1="112664.439%" y2="108061.573%">
            <stop offset="6%" stop-color="#0CB0F2"/>
            <stop offset="20%" stop-color="#0DB2EE"/>
            <stop offset="35%" stop-color="#12B7E0"/>
            <stop offset="51%" stop-color="#19C0CA"/>
            <stop offset="68%" stop-color="#23CCAC"/>
            <stop offset="85%" stop-color="#30DC85"/>
            <stop offset="97%" stop-color="#3BEA62"/>
        </linearGradient>
    </defs>
    <g fill="none" fill-rule="nonzero">
        <path fill="url(#a)" d="M8.543.545A4.651 4.651 0 0 0 7.514.173C2.733-.962-.82 3.727 1.133 7.987c.019.019 3.48 7.61 4.037 8.819 0 0 6.363-2.921 7.665-5.917 1.206-2.79-.828-7.884-1.2-8.649L8.543.545z"/>
        <path fill="#0CB0F2" d="M22.92 9.012a4.532 4.532 0 0 0-1.6-1.488c-.02 0-4.485-2.456-4.485-2.456S1.505 13.953 1.488 13.98c-1.73 1.972-2.12 5.097-.13 7.813a4.692 4.692 0 0 0 2.419 1.712c1.804.558 3.404.335 4.744-.372.037-.019 12.595-6.679 12.632-6.716 2.454-1.284 3.591-4.558 1.766-7.405z"/>
        <path fill="url(#b)" d="M7.148 7.06l-4.093 5.024-1.587 1.896c-1.73 1.972-2.121 5.097-.13 7.813a4.692 4.692 0 0 0 2.418 1.712c1.805.558 3.424.335 4.763-.372 0 0 .316-.167.856-.465 1.7-.92 4.046-7.098 5.646-11.877L7.148 7.06z"/>
        <path fill="url(#c)" d="M13.581 11.896l3.254-6.873c0-.01.009-.018.019-.018.019-.056.279-.726.298-.763.388-.98.262-2.09-.335-2.958A2.659 2.659 0 0 0 15.16.112a3.051 3.051 0 0 0-3.181 1.06c-.02.019-.726.837-.726.837l-5.21 6.419 7.537 3.468z"/>
        <path fill="#000" d="M4.465 4.454H19.35v14.884H4.465z"/>
        <path fill="#FFF" d="M7.96 7.747H5.954V6.445h5.452v1.302H9.412v5.133H7.961V7.747zm3.443 1.927c0-1.86 1.377-3.367 3.367-3.367 1.21 0 1.954.41 2.55 1.005l-.913 1.041c-.502-.446-1.004-.725-1.655-.725-1.08 0-1.88.912-1.88 2.01v.018c0 1.116.763 2.028 1.88 2.028.744 0 1.19-.298 1.693-.763l.911.912c-.67.707-1.395 1.153-2.642 1.153a3.24 3.24 0 0 1-3.311-3.163v-.149zm-5.45 6.687h5.452v.986H5.953v-.986z"/>
    </g>
</svg>
