<svg xmlns="http://www.w3.org/2000/svg" width="24" height="24" viewBox="0 0 24 24">
    <g fill="none" fill-rule="nonzero">
        <path fill="#0E0F0D" d="M23.873 8.449a3.366 3.366 0 0 0-.043-.262 2.765 2.765 0 0 0-.061-.268l-.067-.107a4.604 4.604 0 0 0-.872-.526 9.274 9.274 0 0 0-.755-.316c-.711-1.99-1.934-3.753-3.541-4.982C16.873.718 14.919.046 12.884.046s-3.99.672-5.65 1.942C5.625 3.217 4.403 4.981 3.692 6.97a9.333 9.333 0 0 0-.755.316c-.302.145-.598.31-.872.526l-.067.107a3.763 3.763 0 0 0-.105.53c-.024.174-.041.349-.05.524a6.73 6.73 0 0 0 .224 2.091c.049.172.105.34.169.507.032.083.067.167.106.25l.062.123c.048.085.057.101.077.131l.09.084.16.079.156.07.085.036A12.956 12.956 0 0 0 .838 14.91L0 16.243l1.176-1.041c.02-.018 1.007-.878 2.652-1.853l.023.19c-.108.057-.625.33-.779.46-.255.213-.267.544-.199 1.162.035.316.153.93.312 1.494.273.97.474 1.14.65 1.18.08.02.182.029.297.029.315 0 .719-.062.982-.142a9.754 9.754 0 0 0 1.28 2.61c-.026.006-.051.015-.077.022-.32-.15-1.443-.674-1.82-.845l-.788-.357.466.733c.034.053.839 1.317 1.495 2.17.615.794 1.456 1.608 3.043 1.608.191 0 .391-.013.597-.036.473-.055.829-.098 1.1-.133a7.394 7.394 0 0 0 5.246-.01 7.652 7.652 0 0 0 1.311-.653c.672-.163 1.408-.34 1.77-.442.059-.016.132-.033.208-.052.506-.117 1.352-.315 1.803-1.224.454-.917 1.195-2.323 1.203-2.337l.347-.656-.676.296c-.036.016-.891.392-1.336.627.309-.717.491-1.31.554-1.538.25.06.618.053.89.053.133 0 .27-.024.36-.047.176-.045.312-.163.568-1.163.15-.582.256-1.215.286-1.54.056-.633.038-.973-.218-1.187-.128-.106-.503-.31-.694-.41.107-.046.16-.032.163-.031l.173-.662c.061-.026.126-.053.199-.081.105-.042.21-.084.314-.13l.154-.07c.054-.025.102-.048.161-.078l.09-.084a2.698 2.698 0 0 0 .138-.254c.04-.084.074-.167.107-.25.064-.166.12-.335.168-.506a6.716 6.716 0 0 0 .174-2.616z"/>
        <path fill="#E1C5A2" d="M13.975 22.075c-.128.02-.255.035-.381.045-.082.005-.168.013-.247.013h-.029c.099-.22.173-.393.23-.523.115.13.262.291.427.465"/>
        <path fill="#A89983" d="M13.82 12.19c-.2.162-.41.314-.628.448l-.73.443c-.457.056-.854.17-.877.177a.17.17 0 0 0-.113.113l-.743 2.467-3.97.89-1.252-.883-.363-2.97c.71-.132 1.66-.284 2.8-.413-.124.15-.242.305-.353.465l-.679.982.99-.664c.014-.01.644-.428 1.674-.936a44.924 44.924 0 0 1 4.244-.12zm-6.18 3.346c.282-.154.6-.131 1.1-.13.052.001.108 0 .165-.001l.15-.002c.515-.006.942.043.935-.77-.008-.813-.367-1.47-.88-1.466-.514.005-1.012.671-.981 1.484.008.212.04.365.089.475-.448.113-.572.393-.579.41zm13.063-2.671l-.358 2.526-1.261.89-3.966-.455-.74-2.455a.167.167 0 0 0-.113-.113 5.996 5.996 0 0 0-1.036-.194l.095-.006c.082-.007 1.45-.175 3.084-.743a41.79 41.79 0 0 1 4.295.55zm-2.534 2.338c-.005-.02-.114-.347-.591-.29.054-.12.08-.283.062-.507-.063-.812-.532-1.457-1.046-1.439-.513.018-.842.69-.814 1.505.029.813.46.807.973.789.69-.014 1.07-.227 1.416-.058z"/>
        <path fill="#FFF" d="M16.812 13.741a.261.261 0 1 1-.525.01.265.265 0 0 1 .258-.27.26.26 0 0 1 .267.26m-7.36.195a.264.264 0 0 1-.444.199.266.266 0 0 1 .174-.457.264.264 0 0 1 .27.258"/>
        <path fill="#E1C5A2" d="M22.434 13.976a4.471 4.471 0 0 0-.471-.281l-.332 2.348a.172.172 0 0 1-.07.113l-.476.336-.028.148c.467.116.92-.224 1.176-.469.118-.462.22-1.012.256-1.405.054-.609.006-.74-.055-.79m-7.345 8.92a2.269 2.269 0 0 1-.837-.536l-.061-.062a5 5 0 0 1-.583.084c-.084.004-.164.011-.251.011l-.129.001h-.05c-.295.44-.79.683-1.179.812 1.154.2 2.424-.105 3.09-.31m-10.16-5.75l-.03-.106-.618-.436a.17.17 0 0 1-.07-.117L3.91 14.02c-.223.12-.48.268-.55.326-.059.05-.104.176-.04.763.049.442.203 1.12.36 1.63.313.24.774.495 1.25.406m9.236-.113a.167.167 0 0 1-.14-.118l-.763-2.532a2.658 2.658 0 0 0-.337-.027c-.096 0-.21.01-.337.027l-.741 2.459a.167.167 0 0 1-.123.114l-.354.08c-.03.126-.132.311-.461.413-.53.163-3.887 1.171-4.27 1.116-.223-.031-.649-.268-.963-.459a10.987 10.987 0 0 0 1.16 2.095c.954-.283 1.778-.548 2.042-.632.536-.834 1.3-1.661 1.844-1.69a5.81 5.81 0 0 1 1.043.04c-.2-.183-.241-.397-.27-.493 0 0 .693.547 1.575.432.884-.114 1.432-.627 1.432-.627l.017-.157-.354-.04"/>
        <path fill="#E1C5A2" d="M14.883 17.354a.741.741 0 0 1-.371-.203l-.01.08s-.002.374-.387.664c.74-.226 1.046-.303 1.256-.303.23 0 .344.097.444.183.02.015.038.032.06.05.486.385.97.772 1.454 1.16.231.027.966.112 1.429.155.266.025.508.045.744.045.076 0 .147-.003.215-.007.244-.471.469-.992.668-1.567-.273.194-.896.617-1.189.672-.38.071-3.777-.79-4.313-.93"/>
        <path fill="#E0D896" d="M23.433 8.498a5.643 5.643 0 0 0-.05-.414 4.871 4.871 0 0 0-.713-.49 9.21 9.21 0 0 0-.857-.442 16.59 16.59 0 0 0-.892-.387c-.15-.062-.302-.121-.455-.178-.152-.06-.305-.116-.458-.172.322.054.641.128.959.21.206.053.411.114.615.178C20.132 2.985 16.667.5 12.884.5 9.1.5 5.635 2.985 4.186 6.803c.204-.064.41-.125.615-.178.317-.082.637-.156.96-.21-.155.056-.308.112-.46.172-.153.057-.304.116-.455.178-.3.122-.6.248-.893.387-.293.134-.58.279-.856.442a4.891 4.891 0 0 0-.712.49 5.18 5.18 0 0 0-.051.414 7.2 7.2 0 0 0 .23 2.427 4.014 4.014 0 0 0 .29.782l.02.04.072.036.144.07.284.132.014-.014-.267-1.027a22.79 22.79 0 0 1 1.44-.316 4.227 4.227 0 0 1-.799-.234 2.686 2.686 0 0 1-.276-.135.954.954 0 0 1-.243-.187c.961.317 2.948.174 4.714-.01a48.04 48.04 0 0 1 4.862-.28 48.02 48.02 0 0 1 4.861.28c1.767.184 3.754.327 4.715.01a.947.947 0 0 1-.242.187c-.09.05-.183.095-.277.135-.19.077-.387.138-.586.189l-.09.02c.96.179 1.52.325 1.578.34l-.255.979c.052-.023.104-.046.154-.07l.144-.069.073-.036.02-.04a3.586 3.586 0 0 0 .141-.323c.056-.15.106-.304.149-.459.087-.312.146-.634.19-.96a7.141 7.141 0 0 0 .04-1.467"/>
        <path fill="#D7C184" d="M16.864 6.6c.015.436.005 1.229-.197 1.97a.163.163 0 0 0 0 .085 31.595 31.595 0 0 0-.772-.071c.289-.61.352-1.259.366-1.488.221-.158.442-.349.603-.497m-7.356.497c.013.23.076.877.364 1.486-.257.02-.514.044-.77.072a.164.164 0 0 0 0-.084c-.202-.74-.213-1.533-.199-1.97.162.147.382.338.605.496M20.023 9.26a.161.161 0 0 1-.006.022l.084.026c.238.078.476.16.703.266-.38-.248-.62-.965-.754-1.513.037.717-.024 1.172-.027 1.2M8.587 6.46l-2.455.704a8.318 8.318 0 0 0-.079 1.952l.013-.007s.08-1.048.243-1.45c.084-.207.598-.34.99-.433.392-.094 1.018-.283 1.14.273.074.343.178.628.277.839a7.76 7.76 0 0 1-.13-1.878m8.595 0a7.62 7.62 0 0 1-.149 1.967c.112-.215.235-.534.322-.928.121-.556.747-.367 1.14-.273.392.094.905.226.99.432.138.34.216 1.144.236 1.382.024-.307.05-.997-.084-1.876L17.18 6.46m-7.693.215c.087.07.176.136.267.199.043.03.07.079.07.132 0 .008.02.823.377 1.517.005.01.009.022.012.033.889-.061 1.78-.086 2.67-.087.89.001 1.78.027 2.67.089.003-.012.006-.024.012-.035.357-.694.377-1.51.377-1.517a.165.165 0 0 1 .07-.132c.088-.06.174-.125.257-.193l.011-.031c.186-1.824-.155-3.504-.371-4.334-.012.568-.145 5.432-1.343 5.432h-3.305c-1.272 0-1.374-5.484-1.374-5.484l-.066.194c-.217.875-.514 2.482-.334 4.217M5.75 9.282c0-.007-.003-.014-.004-.022a6.868 6.868 0 0 1-.029-1.2c-.134.548-.375 1.266-.755 1.515.227-.107.466-.189.704-.268l.084-.025"/>
        <path fill="#9F8F78" d="M21.057 16.64c-.02.108-.044.215-.07.322.272.064.718.114.931.072.091-.1.21-.447.315-.863-.255.245-.709.585-1.176.469m-9.77 6.725a5.93 5.93 0 0 0 1.972.214 7.828 7.828 0 0 0 2.417-.559 2.225 2.225 0 0 1-.587-.124c-.666.205-1.936.51-3.09.31a3.23 3.23 0 0 1-.568.136 1.877 1.877 0 0 0-.143.023m-6.315-6.072l-.043-.147c-.476.089-.937-.166-1.25-.407.102.327.204.583.28.661.236.042.757-.031 1.013-.107m.704.813c.314.191.74.428.963.46.383.054 3.74-.954 4.27-1.117.328-.102.43-.287.46-.413l-4.842 1.087a.22.22 0 0 1-.036.004H6.49a.167.167 0 0 1-.095-.03l-.189-.133-.566-.4-.228-.161.013.039.04.113v.001c.015.048.085.251.21.55m14.856-.937c.03-.116.061-.232.089-.35l-.168.119-.453.32-.49.345a.17.17 0 0 1-.113.03l-4.877-.56-.008.077a.74.74 0 0 0 .37.204c.537.14 3.935 1 4.314.928.293-.054.916-.477 1.19-.67l.006-.02c.049-.14.095-.282.14-.424"/>
        <path fill="#6E6A67" d="M15.372 10.547l-.125.162a10.6 10.6 0 0 1-.933 1.04 43.223 43.223 0 0 0-3.583.033 17.58 17.58 0 0 1 3.484-1.065c.383-.074.77-.13 1.157-.17m-5.82.448a8.839 8.839 0 0 0-1.145.962c-.864.087-1.724.2-2.58.338 1.1-.51 2.358-.98 3.725-1.3m12.164 2.072l-.405 2.855-1.94 1.37-5.06-.58-.761-2.528a.167.167 0 0 0-.133-.117 3.12 3.12 0 0 0-.491-.045c-.139 0-.304.015-.493.045a.17.17 0 0 0-.132.117l-.743 2.467-5.031 1.128-1.994-1.407-.393-3.205.26-.145c.124-.027.263-.056.416-.085l.37 3.024a.164.164 0 0 0 .07.116l1.373.968a.168.168 0 0 0 .131.026l4.137-.927a.167.167 0 0 0 .122-.115l.745-2.472c.2-.052.712-.172 1.162-.172.449 0 .96.12 1.16.172l.746 2.472c.019.064.074.11.14.118l4.137.474c.04.004.08-.007.114-.03l1.372-.967a.172.172 0 0 0 .069-.114l.366-2.584c.275.053.505.102.686.141m.511-1.79l-.356 1.361a38.67 38.67 0 0 0-4.505-.694 10.947 10.947 0 0 0 2.097-1.168c1.296.184 2.247.382 2.764.5m-18.554 0l.099.377c.241-.194.49-.378.745-.554-.35.068-.634.13-.844.177"/>
        <path fill="#93232C" d="M17.642 10.517c-.545-.031-1.09-.058-1.636-.08a8.65 8.65 0 0 1-.188.268c-.292.399-.868 1.125-1.607 1.749.556-.178 2.76-.923 3.877-1.91-.148-.01-.297-.018-.446-.027m-3.995-.145h.002a90.042 90.042 0 0 0-.83-.008c-.407 0-.812.006-1.22.013l-.75.358a18.06 18.06 0 0 1-1.78 1.323c.508-.343 1.86-1.156 3.963-1.692.205.001.41.002.615.006m-4.609.091c-.347.016-.695.034-1.042.054-.402.023-.803.05-1.204.08a21.439 21.439 0 0 0-.768.073c-.524.316-2.528 1.584-3.905 3.243l.072-.085c2.55-2.192 5.345-3.046 6.847-3.365m11.533 9.015l-.046.024c-.255.135-.59.201-1.023.201-.258 0-.51-.021-.79-.047a70.355 70.355 0 0 1-1.517-.166l-.072-.007-.057-.047c-.009-.006-.838-.672-1.508-1.203l-.075-.062c-.07-.06-.07-.06-.113-.06-.215 0-.84.195-2.209.622l-.084.028-.083-.032c-.01-.003-.907-.338-1.984-.338-.088 0-.176.002-.261.006-.108.006-.713.295-1.487 1.529l-.05.08-.089.028c-.013.004-1.344.438-2.757.845l-.091.026-.087-.04c-.01-.004-.561-.263-1.087-.505l.117.054c.519.451 1.513 1.32 1.623 1.44.015.017.037.038.062.062l-.075-.09c.228.218.484.408.763.54.14.067.285.118.434.143.075.012.147.018.223.018.077 0 .155-.002.234-.006a30.155 30.155 0 0 0 1.873-.169c.311-.034.623-.073.932-.121a6.3 6.3 0 0 0 .458-.082c.074-.018.151-.037.21-.064a.912.912 0 0 0 .174-.126c.116-.101.229-.213.34-.324.111-.113.22-.227.328-.343.183-.193.34-.398.517-.597l.07-.076.002.003c.037.026.074.054.11.082.213.16.433.334.645.483.274.194.55.388.837.55a1.296 1.296 0 0 0 .24.107.1.1 0 0 0 .027.006l.05.005c.039 0 .079-.002.119-.004a5.75 5.75 0 0 0 .49-.06c.327-.052.656-.111.982-.177.328-.064.655-.131.98-.204.326-.07.65-.146.974-.228.16-.044.321-.084.464-.153.146-.07.282-.163.407-.271.252-.217.464-.485.64-.777.086-.161.16-.33.22-.503M14.461 3.95h.576v-1.18h-4.215v1.18h.576v-.6h1.192v3.646h-.49v.676h1.659v-.676h-.491V3.352h1.192v.6"/>
        <path fill="#731B2A" d="M18.821 10.597a65.916 65.916 0 0 0-.72-.051l-.013-.001c-1.117.986-3.321 1.731-3.877 1.909l-.032.028c.715-.13 1.784-.388 2.893-.883a9.697 9.697 0 0 0 1.63-.915l.12-.087m-5.79-.231c-2.103.535-3.455 1.348-3.962 1.692a21.196 21.196 0 0 1 1.605-.74l.055-.023.147-.06a19.28 19.28 0 0 1 .217-.085l.102-.038.125-.047.119-.044.117-.042.135-.048.108-.037.16-.054.088-.029a16.443 16.443 0 0 1 .826-.247c.256-.07.514-.134.773-.192-.205-.004-.41-.005-.615-.006m-3.994.097c-1.502.32-4.297 1.173-6.847 3.365l-.072.085c1.296-.908 3.523-2.257 6.277-3.078a17.632 17.632 0 0 1 1.679-.414c-.345.012-.691.026-1.037.042m12.03 8.773a6.439 6.439 0 0 0-.08.037l-.042.02-.034.016-.052.025-.022.011-.059.028-.012.007-.062.03-.007.003-.127.065c-.06.173-.134.342-.22.504v-.001l-.001.002a3.193 3.193 0 0 1-.64.775c-.124.107-.26.202-.406.27-.143.07-.304.11-.464.153-.323.082-.648.159-.975.229-.325.072-.651.14-.979.203a22.48 22.48 0 0 1-.983.177 5.69 5.69 0 0 1-.49.061c-.039.002-.078.003-.118.003a.623.623 0 0 1-.077-.01 1.285 1.285 0 0 1-.24-.107 9.892 9.892 0 0 1-.837-.55c-.212-.15-.433-.323-.646-.483l-.018.026.001.002.04.035-.001-.001-.028-.021.178.214.02.025c.092.108.473.554.926 1.006.345.345.76.519 1.238.519.163 0 .334-.022.507-.063l.512-.125a87.092 87.092 0 0 0 1.504-.37l.075-.02.15-.04c.076-.022.152-.04.23-.058.47-.11 1.116-.26 1.457-.95l.31-.617c.172-.334.344-.669.518-1.002l.034-.066-.08.038m-7.723 1.488l-.031-.029c-.177.199-.334.404-.517.597-.107.116-.217.23-.328.342a6.393 6.393 0 0 1-.34.324.906.906 0 0 1-.175.127 1.217 1.217 0 0 1-.209.063c-.15.034-.304.06-.458.083-.309.048-.62.087-.932.121-.312.038-.625.07-.937.098a20.9 20.9 0 0 1-.936.07 5.132 5.132 0 0 1-.234.007 1.33 1.33 0 0 1-.223-.019 1.662 1.662 0 0 1-.434-.142 2.973 2.973 0 0 1-.764-.54h.001c.03.039.065.075.098.111l-.023-.021a1.07 1.07 0 0 1-.062-.062c-.11-.121-1.105-.99-1.623-1.44l-.117-.055a27.065 27.065 0 0 0 .975 1.377c.564.731 1.274 1.408 2.637 1.408a4.783 4.783 0 0 0 .666-.047l.117-.013c1.185-.138 1.51-.196 1.69-.228l.13-.021.052-.008c.007 0 .407-.052.8-.244.27-.133.535-.331.664-.625.328-.74.395-.916.398-.922l.115-.312"/>
        <path fill="#0E0F0D" d="M16.555 14.01a.264.264 0 0 0 .257-.268.265.265 0 0 0-.267-.26.261.261 0 0 0-.258.27.263.263 0 0 0 .268.259zm1.614 1.193c-.347-.17-.726.045-1.416.058-.514.018-.944.024-.973-.789-.028-.814.3-1.487.814-1.505.514-.018.983.627 1.046 1.439.017.224-.007.387-.062.508.477-.058.586.269.591.289zm-8.973-.996a.264.264 0 0 0 .255-.27.262.262 0 1 0-.493-.12.266.266 0 0 0 .007.264c.05.08.137.129.231.126zm.794.426c.007.813-.42.764-.934.77a4.577 4.577 0 0 1-.151.002 3.505 3.505 0 0 1-.166.001c-.499-.001-.818-.024-1.1.13.007-.018.13-.297.579-.41-.05-.11-.08-.263-.089-.475-.03-.813.467-1.48.98-1.484.514-.005.873.653.88 1.466zm9.73-5.592c-.003.05-.008.1-.013.15a17.55 17.55 0 0 0-.614-.155 20.202 20.202 0 0 0-2.056-.34c-.024-.004-.048-.006-.073-.009a.254.254 0 0 0 .012-.03c.02-.077.039-.153.056-.229a7.62 7.62 0 0 0 .149-1.967l2.455.704c.134.88.108 1.57.085 1.876zm-3.053-.47a.16.16 0 0 0 0 .084 31.595 31.595 0 0 0-.772-.071c.289-.61.352-1.259.366-1.488.221-.158.442-.349.603-.497.015.437.005 1.23-.197 1.971zM9.1 8.653a.164.164 0 0 0 0-.084C8.9 7.83 8.89 7.037 8.903 6.6c.162.147.382.338.605.496.013.23.076.877.364 1.486-.257.02-.514.044-.77.072zm-.37.04c-.345.043-.69.087-1.033.144-.342.06-.684.122-1.024.198-.205.048-.41.099-.613.155a8.318 8.318 0 0 1 .071-2.026l2.455-.704a7.754 7.754 0 0 0 .129 1.878c.022.106.047.212.075.317l.012.03-.073.009zm12.306 1l-.062-.03-.102-.051a.635.635 0 0 1-.069-.039 6.458 6.458 0 0 0-.787-.292.179.179 0 0 0 .006-.022c.003-.027.064-.482.027-1.2a9.507 9.507 0 0 0-.113-1.049.162.162 0 0 0-.114-.13l-.35-.1c-.075-2.729-1.19-4.011-1.225-4.051.996 1.616.987 3.532.97 3.978l-2.17-.621-.005-.001a.203.203 0 0 0-.028-.004h-.008c-.012-.001-.024 0-.035.002l-.006.002a.12.12 0 0 0-.028.01l-.01.004-.021.015-.006.003-.004.005-.006.005c-.002.002-.06.06-.151.146a9.985 9.985 0 0 0-.015-.9l-.007-.11c-.069-.96-.294-2.31-.967-3.49.006.017.073.213.159.543.216.83.557 2.51.371 4.334l-.002.025-.009.006a4.219 4.219 0 0 1-.257.193.165.165 0 0 0-.07.132c0 .008-.02.823-.377 1.517-.006.011-.01.023-.013.035a39.134 39.134 0 0 0-2.67-.089c-.889.001-1.78.026-2.669.087-.004-.011-.007-.023-.012-.033-.358-.694-.376-1.51-.377-1.518a.164.164 0 0 0-.07-.131 4.207 4.207 0 0 1-.267-.2c-.18-1.734.117-3.341.334-4.216.103-.415.188-.666.195-.685-.977 1.713-1.01 3.78-.989 4.5a4.375 4.375 0 0 1-.151-.146l-.007-.006-.003-.004-.006-.003a.202.202 0 0 0-.022-.014l-.01-.005a.078.078 0 0 0-.026-.01l-.007-.002a.144.144 0 0 0-.036-.003h-.009a.208.208 0 0 0-.026.005h-.006l-2.169.622c-.017-.446-.026-2.362.97-3.978-.035.04-1.15 1.323-1.226 4.052l-.348.1a.16.16 0 0 0-.116.13 9.582 9.582 0 0 0-.113 1.048 6.89 6.89 0 0 0 .029 1.2l.004.022-.084.026a6.393 6.393 0 0 0-.704.267.625.625 0 0 1-.064.036l-.004.002-.103.05-.053.027-.034.019c.161-.064.328-.11.494-.151.166-.042.334-.08.503-.112a21.673 21.673 0 0 1 2.04-.271c.341-.029.683-.058 1.025-.078a69.542 69.542 0 0 1 4.118-.108c1.374.001 2.748.023 4.117.108.343.02.684.048 1.027.078a22.203 22.203 0 0 1 2.039.271c.168.032.336.07.502.112.168.04.333.087.495.151l-.027-.015z"/>
        <path fill="#0E0F0D" d="M13.268 3.352v3.645h.49v.676H12.1v-.676h.491V3.352h-1.192v.6h-.576v-1.18h4.215v1.18h-.577v-.6h-1.192zm2.203 1.036V2.334h-5.082v2.054h1.443v-.6h.324V6.56h-.49v1.549h2.526v-1.55h-.491V3.788h.325v.6h1.445z"/>
    </g>
</svg>
