<svg xmlns="http://www.w3.org/2000/svg" width="24" height="24" viewBox="0 0 24 24">
    <g fill="none" fill-rule="nonzero">
        <path fill="#8ED6FB" d="M23.033 18.088l-9.15 5.159V19.23l5.702-3.126 3.448 1.984zm.627-.565V6.737l-3.347 1.928v6.934l3.347 1.924zm-19.73.565l9.15 5.159V19.23l-5.704-3.126-3.445 1.984zm-.626-.565V6.737l3.347 1.928v6.934l-3.347 1.924zm.393-11.486L13.08.747V4.63L7.068 7.926l-.048.027-3.323-1.916zm19.57 0L13.884.747V4.63l6.012 3.293.048.027 3.323-1.913z"/>
        <path fill="#1C78C0" d="M13.08 18.315l-5.626-3.084V9.125l5.626 3.237v5.953zm.804 0l5.626-3.081v-6.11l-5.626 3.238v5.953zM7.835 8.42l5.647-3.093 5.647 3.093-5.647 3.25-5.647-3.25z"/>
    </g>
</svg>
