<svg xmlns="http://www.w3.org/2000/svg" width="24" height="24" viewBox="0 0 24 24">
    <g fill="none" fill-rule="evenodd">
        <path fill="#7CC734" d="M15.871 7.232C14.797 4.14 17.936.826 20.518.727c1.547.805 2.876 2.92 2.81 5.788-.204 3.534-2.71 6.58-5.44 9.386-.151-3.421-.88-5.603-2.017-8.67"/>
        <path fill="#3E7FCA" d="M9.784 23.97c-.432-3.45.973-6.393 2.367-8.188a16.973 16.973 0 0 0 1.559-2.32c.732.316 2.7 1.346 3.785 3.019-.157 2.426-1.955 6.84-7.711 7.49"/>
        <path fill="#EB6E2E" d="M7.609 10.865C3.027 9.587 1.897 5.573 2.102 2.873c4.449-1.799 9.237.043 12.001 3.884 1.939 2.691 3.152 6.142 3.398 9.153-1.33-1.75-3.009-2.764-5.148-3.559-1.463-.542-2.815-.902-4.744-1.486"/>
    </g>
</svg>
