<svg width="40" height="40" viewBox="0 0 40 40" fill="none" xmlns="http://www.w3.org/2000/svg">
<path d="M24.1667 5C21.2935 5 18.538 6.14137 16.5064 8.17301C14.4747 10.2047 13.3334 12.9602 13.3334 15.8333C13.3334 18.7065 14.4747 21.462 16.5064 23.4937C18.538 25.5253 21.2935 26.6667 24.1667 26.6667C27.0399 26.6667 29.7954 25.5253 31.827 23.4937C33.8587 21.462 35 18.7065 35 15.8333C35 12.9602 33.8587 10.2047 31.827 8.17301C29.7954 6.14137 27.0399 5 24.1667 5Z" fill="#D87B00"/>
<path d="M15.8333 13.3333C12.9602 13.3333 10.2047 14.4747 8.17301 16.5063C6.14137 18.538 5 21.2935 5 24.1667C5 27.0398 6.14137 29.7953 8.17301 31.827C10.2047 33.8586 12.9602 35 15.8333 35C18.7065 35 21.462 33.8586 23.4937 31.827C25.5253 29.7953 26.6667 27.0398 26.6667 24.1667C26.6667 21.2935 25.5253 18.538 23.4937 16.5063C21.462 14.4747 18.7065 13.3333 15.8333 13.3333Z" fill="#FFB300"/>
<path d="M14.5834 21.6667C14.0308 21.6667 13.5009 21.8862 13.1102 22.2769C12.7195 22.6676 12.5 23.1975 12.5 23.75C12.5 24.3025 12.7195 24.8324 13.1102 25.2231C13.5009 25.6138 14.0308 25.8333 14.5834 25.8333C15.1359 25.8333 15.6658 25.6138 16.0565 25.2231C16.4472 24.8324 16.6667 24.3025 16.6667 23.75C16.6667 23.1975 16.4472 22.6676 16.0565 22.2769C15.6658 21.8862 15.1359 21.6667 14.5834 21.6667ZM16.25 16.6667C15.9185 16.6667 15.6006 16.7984 15.3662 17.0328C15.1317 17.2672 15 17.5851 15 17.9167C15 18.2482 15.1317 18.5661 15.3662 18.8005C15.6006 19.035 15.9185 19.1667 16.25 19.1667C16.5816 19.1667 16.8995 19.035 17.1339 18.8005C17.3683 18.5661 17.5 18.2482 17.5 17.9167C17.5 17.5851 17.3683 17.2672 17.1339 17.0328C16.8995 16.7984 16.5816 16.6667 16.25 16.6667ZM19.1667 26.6667C18.7247 26.6667 18.3008 26.8423 17.9882 27.1548C17.6756 27.4674 17.5 27.8913 17.5 28.3333C17.5 28.7754 17.6756 29.1993 17.9882 29.5118C18.3008 29.8244 18.7247 30 19.1667 30C19.6087 30 20.0327 29.8244 20.3452 29.5118C20.6578 29.1993 20.8334 28.7754 20.8334 28.3333C20.8334 27.8913 20.6578 27.4674 20.3452 27.1548C20.0327 26.8423 19.6087 26.6667 19.1667 26.6667ZM9.58337 24.1667C9.25185 24.1667 8.93391 24.2984 8.69949 24.5328C8.46507 24.7672 8.33337 25.0851 8.33337 25.4167C8.33337 25.7482 8.46507 26.0661 8.69949 26.3005C8.93391 26.535 9.25185 26.6667 9.58337 26.6667C9.91489 26.6667 10.2328 26.535 10.4673 26.3005C10.7017 26.0661 10.8334 25.7482 10.8334 25.4167C10.8334 25.0851 10.7017 24.7672 10.4673 24.5328C10.2328 24.2984 9.91489 24.1667 9.58337 24.1667ZM21.2509 21.6658C20.9194 21.6658 20.6014 21.7975 20.367 22.0319C20.1326 22.2664 20.0009 22.5843 20.0009 22.9158C20.0009 23.2474 20.1326 23.5653 20.367 23.7997C20.6014 24.0341 20.9194 24.1658 21.2509 24.1658C21.5824 24.1658 21.9003 24.0341 22.1348 23.7997C22.3692 23.5653 22.5009 23.2474 22.5009 22.9158C22.5009 22.5843 22.3692 22.2664 22.1348 22.0319C21.9003 21.7975 21.5824 21.6658 21.2509 21.6658ZM13.3334 29.1667C13.1124 29.1667 12.9004 29.2545 12.7441 29.4107C12.5878 29.567 12.5 29.779 12.5 30C12.5 30.221 12.5878 30.433 12.7441 30.5893C12.9004 30.7455 13.1124 30.8333 13.3334 30.8333C13.5544 30.8333 13.7663 30.7455 13.9226 30.5893C14.0789 30.433 14.1667 30.221 14.1667 30C14.1667 29.779 14.0789 29.567 13.9226 29.4107C13.7663 29.2545 13.5544 29.1667 13.3334 29.1667Z" fill="#683529"/>
<path d="M21.6667 8.33333C21.2246 8.33333 20.8007 8.50893 20.4882 8.82149C20.1756 9.13405 20 9.55797 20 10C20 10.442 20.1756 10.866 20.4882 11.1785C20.8007 11.4911 21.2246 11.6667 21.6667 11.6667C22.1087 11.6667 22.5326 11.4911 22.8452 11.1785C23.1577 10.866 23.3333 10.442 23.3333 10C23.3333 9.55797 23.1577 9.13405 22.8452 8.82149C22.5326 8.50893 22.1087 8.33333 21.6667 8.33333ZM26.2492 12.4992C25.9176 12.4992 25.5997 12.6309 25.3653 12.8653C25.1309 13.0997 24.9992 13.4176 24.9992 13.7492C24.9992 14.0807 25.1309 14.3986 25.3653 14.6331C25.5997 14.8675 25.9176 14.9992 26.2492 14.9992C26.5807 14.9992 26.8986 14.8675 27.1331 14.6331C27.3675 14.3986 27.4992 14.0807 27.4992 13.7492C27.4992 13.4176 27.3675 13.0997 27.1331 12.8653C26.8986 12.6309 26.5807 12.4992 26.2492 12.4992ZM27.0825 7.5C26.751 7.5 26.433 7.6317 26.1986 7.86612C25.9642 8.10054 25.8325 8.41848 25.8325 8.75C25.8325 9.08152 25.9642 9.39946 26.1986 9.63388C26.433 9.8683 26.751 10 27.0825 10C27.414 10 27.732 9.8683 27.9664 9.63388C28.2008 9.39946 28.3325 9.08152 28.3325 8.75C28.3325 8.41848 28.2008 8.10054 27.9664 7.86612C27.732 7.6317 27.414 7.5 27.0825 7.5ZM30 16.6667C29.779 16.6667 29.567 16.7545 29.4107 16.9107C29.2545 17.067 29.1667 17.279 29.1667 17.5C29.1667 17.721 29.2545 17.933 29.4107 18.0893C29.567 18.2455 29.779 18.3333 30 18.3333C30.221 18.3333 30.433 18.2455 30.5893 18.0893C30.7455 17.933 30.8333 17.721 30.8333 17.5C30.8333 17.279 30.7455 17.067 30.5893 16.9107C30.433 16.7545 30.221 16.6667 30 16.6667Z" fill="#4C2114"/>
</svg>
