<svg width="34" height="34" viewBox="0 0 34 34" fill="none" xmlns="http://www.w3.org/2000/svg">
<path d="M17.0711 0.91626C8.20348 0.91626 0.987309 8.13243 0.987309 17.0001C0.987309 25.8677 8.20348 33.0839 17.0711 33.0839C25.9387 33.0839 33.1549 25.8677 33.1549 17.0001C33.1549 16.4915 33.116 15.9978 33.0831 15.6238C33.0622 15.3546 32.9006 15.1212 32.6613 15.0015C32.4219 14.8819 32.1347 14.8968 31.9103 15.0404C31.4735 15.3217 30.9769 15.4683 30.4743 15.4683C29.3733 15.4683 28.398 14.8041 27.9881 13.7779C27.9073 13.5745 27.7428 13.4129 27.5393 13.3381C27.3329 13.2663 27.1055 13.2813 26.9111 13.386C26.2469 13.745 25.493 13.9365 24.7301 13.9365C22.196 13.9365 20.1347 11.8751 20.1347 9.34111C20.1347 8.58119 20.3262 7.82427 20.6852 7.1601C20.7899 6.96563 20.8078 6.73826 20.733 6.53183C20.6582 6.32839 20.4997 6.16384 20.2962 6.08306C19.2671 5.67319 18.6029 4.69787 18.6029 3.59689C18.6029 3.09427 18.7495 2.59764 19.0307 2.16084C19.1743 1.93346 19.1893 1.64924 19.0696 1.4099C18.9499 1.17056 18.7136 1.00901 18.4473 0.985071C18.0434 0.94917 17.5647 0.91626 17.0711 0.91626ZM27.0277 0.91626C26.1811 0.91626 25.496 1.60138 25.496 2.44805C25.496 3.29472 26.1811 3.97984 27.0277 3.97984C27.8744 3.97984 28.5595 3.29472 28.5595 2.44805C28.5595 1.60138 27.8744 0.91626 27.0277 0.91626ZM25.8789 7.04342C25.2446 7.04342 24.7301 7.55801 24.7301 8.19226C24.7301 8.82652 25.2446 9.34111 25.8789 9.34111C26.5132 9.34111 27.0277 8.82652 27.0277 8.19226C27.0277 7.55801 26.5132 7.04342 25.8789 7.04342ZM14.3905 9.34111C15.0247 9.34111 15.5393 9.85569 15.5393 10.4899C15.5393 11.1242 15.0247 11.6388 14.3905 11.6388C13.7562 11.6388 13.2416 11.1242 13.2416 10.4899C13.2416 9.85569 13.7562 9.34111 14.3905 9.34111ZM32.389 9.34111C31.9672 9.34111 31.6231 9.68516 31.6231 10.107C31.6231 10.5288 31.9672 10.8729 32.389 10.8729C32.8109 10.8729 33.1549 10.5288 33.1549 10.107C33.1549 9.68516 32.8109 9.34111 32.389 9.34111ZM9.41216 13.1706C10.6807 13.1706 11.7098 14.1998 11.7098 15.4683C11.7098 16.7368 10.6807 17.766 9.41216 17.766C8.14364 17.766 7.11447 16.7368 7.11447 15.4683C7.11447 14.1998 8.14364 13.1706 9.41216 13.1706ZM16.6882 16.2342C17.3224 16.2342 17.837 16.7487 17.837 17.383C17.837 18.0173 17.3224 18.5318 16.6882 18.5318C16.0539 18.5318 15.5393 18.0173 15.5393 17.383C15.5393 16.7487 16.0539 16.2342 16.6882 16.2342ZM10.9439 21.5954C11.7906 21.5954 12.4757 22.2805 12.4757 23.1272C12.4757 23.9739 11.7906 24.659 10.9439 24.659C10.0973 24.659 9.41216 23.9739 9.41216 23.1272C9.41216 22.2805 10.0973 21.5954 10.9439 21.5954ZM21.2835 22.3613C22.3426 22.3613 23.1983 23.217 23.1983 24.2761C23.1983 25.3352 22.3426 26.1908 21.2835 26.1908C20.2244 26.1908 19.3688 25.3352 19.3688 24.2761C19.3688 23.217 20.2244 22.3613 21.2835 22.3613Z" fill="#EC1C24"/>
</svg>
