<svg width="22" height="22" viewBox="0 0 22 22" fill="none" xmlns="http://www.w3.org/2000/svg">
  <path d="M11 0.142822C8.05139 0.142822 7.68165 0.155331 6.52361 0.208147C5.36799 0.260866 4.57876 0.444429 3.88814 0.712776C3.17419 0.990237 2.56871 1.3615 1.96514 1.96507C1.36154 2.56864 0.990276 3.17418 0.712846 3.88813C0.444435 4.57872 0.260937 5.36795 0.208153 6.52357C0.155337 7.68161 0.14286 8.05135 0.14286 11C0.14286 13.9486 0.155337 14.3183 0.208153 15.4764C0.260937 16.632 0.444435 17.4212 0.712846 18.1118C0.990308 18.8257 1.36157 19.4312 1.96514 20.0349C2.56874 20.6384 3.17419 21.0097 3.88814 21.2872C4.57876 21.5555 5.36799 21.739 6.52361 21.7918C7.68165 21.8446 8.05139 21.8571 11 21.8571C13.9486 21.8571 14.3184 21.8446 15.4764 21.7918C16.632 21.7391 17.4212 21.5555 18.1118 21.2872C18.8258 21.0097 19.4313 20.6384 20.0349 20.0349C20.6385 19.4312 21.0097 18.8257 21.2872 18.1118C21.5555 17.4212 21.7391 16.632 21.7918 15.4764C21.8446 14.3183 21.8571 13.9486 21.8571 11C21.8571 8.05135 21.8446 7.68161 21.7918 6.52357C21.7391 5.36795 21.5555 4.57872 21.2872 3.88813C21.0097 3.17418 20.6385 2.56864 20.0349 1.96507C19.4313 1.3615 18.8258 0.990237 18.1118 0.712776C17.4212 0.444429 16.632 0.260866 15.4764 0.208147C14.3184 0.155331 13.9486 0.142822 11 0.142822ZM11 2.09905C13.899 2.09905 14.2424 2.11014 15.3872 2.16237C16.4458 2.21063 17.0207 2.3875 17.4032 2.53619C17.91 2.73316 18.2717 2.96841 18.6516 3.34834C19.0316 3.72826 19.2668 4.08996 19.4638 4.59672C19.6125 4.9793 19.7893 5.5542 19.8376 6.61275C19.8898 7.7576 19.9009 8.101 19.9009 11C19.9009 13.8989 19.8898 14.2423 19.8376 15.3872C19.7893 16.4458 19.6125 17.0206 19.4638 17.4032C19.2668 17.91 19.0316 18.2717 18.6516 18.6516C18.2717 19.0315 17.91 19.2668 17.4032 19.4637C17.0207 19.6124 16.4458 19.7893 15.3872 19.8376C14.2426 19.8898 13.8992 19.9009 11 19.9009C8.10081 19.9009 7.75751 19.8898 6.61279 19.8375C5.5542 19.7893 4.97934 19.6124 4.59679 19.4637C4.08997 19.2668 3.7283 19.0315 3.34841 18.6516C2.96848 18.2717 2.7332 17.91 2.53623 17.4032C2.38754 17.0206 2.2107 16.4457 2.16241 15.3872C2.11017 14.2423 2.09909 13.8989 2.09909 11C2.09909 8.101 2.11017 7.7576 2.16241 6.61275C2.2107 5.55416 2.38754 4.9793 2.53623 4.59675C2.7332 4.08993 2.96848 3.72826 3.34838 3.34837C3.7283 2.96841 4.09 2.73316 4.59676 2.53619C4.97934 2.3875 5.55424 2.21063 6.61279 2.16237C7.75764 2.11014 8.10107 2.09905 11 2.09905Z" fill="#A4A8B4"/>
  <path d="M11 14.619C9.00123 14.619 7.38094 12.9987 7.38094 11C7.38094 9.0012 9.00123 7.38091 11 7.38091C12.9988 7.38091 14.6191 9.0012 14.6191 11C14.6191 12.9987 12.9988 14.619 11 14.619ZM11 5.42468C7.92083 5.42468 5.42471 7.9208 5.42471 11C5.42471 14.0791 7.92083 16.5753 11 16.5753C14.0792 16.5753 16.5753 14.0791 16.5753 11C16.5753 7.9208 14.0792 5.42468 11 5.42468ZM18.0984 5.2044C18.0984 5.92397 17.5151 6.50725 16.7956 6.50725C16.0761 6.50725 15.4927 5.92397 15.4927 5.2044C15.4927 4.48485 16.0761 3.90152 16.7956 3.90152C17.5151 3.90152 18.0984 4.48485 18.0984 5.2044Z" fill="#A4A8B4"/>
</svg>
