<svg width="23" height="22" viewBox="0 0 23 22" fill="none" xmlns="http://www.w3.org/2000/svg">
  <path d="M19.4944 18.6442H16.277V13.6057C16.277 12.4042 16.2555 10.8575 14.6036 10.8575C12.9279 10.8575 12.6715 12.1666 12.6715 13.5182V18.6439H9.45413V8.28259H12.5428V9.69857H12.586C12.8951 9.17006 13.3418 8.73529 13.8785 8.44055C14.4151 8.14582 15.0217 8.00215 15.6335 8.02487C18.8945 8.02487 19.4957 10.1698 19.4957 12.9602L19.4944 18.6442ZM5.82385 6.86627C5.45458 6.86634 5.09358 6.7569 4.7865 6.5518C4.47942 6.3467 4.24006 6.05514 4.09869 5.714C3.95731 5.37286 3.92027 4.99746 3.99224 4.63527C4.06422 4.27308 4.24198 3.94036 4.50305 3.6792C4.76412 3.41804 5.09677 3.24015 5.45894 3.16805C5.82111 3.09594 6.19652 3.13285 6.53771 3.2741C6.8789 3.41535 7.17054 3.65461 7.37576 3.96161C7.58097 4.26862 7.69054 4.62958 7.6906 4.99885C7.69065 5.24404 7.6424 5.48684 7.54861 5.71338C7.45482 5.93992 7.31733 6.14578 7.14398 6.31918C6.97064 6.49259 6.76484 6.63015 6.53833 6.72402C6.31182 6.81789 6.06904 6.86623 5.82385 6.86627ZM7.43254 18.6442H4.21181V8.28259H7.43254V18.6442ZM21.0984 0.144301H2.59508C2.17511 0.139562 1.77044 0.30175 1.46998 0.595225C1.16953 0.888701 0.997885 1.28945 0.99276 1.70942V20.2894C0.99771 20.7096 1.16925 21.1106 1.46969 21.4044C1.77013 21.6982 2.1749 21.8607 2.59508 21.8562H21.0984C21.5194 21.8615 21.9253 21.6995 22.2269 21.4057C22.5285 21.1119 22.7012 20.7104 22.707 20.2894V1.70808C22.701 1.28728 22.5282 0.886073 22.2266 0.592604C21.925 0.299136 21.5192 0.137411 21.0984 0.142961" fill="#A4A8B4"/>
</svg>
