<svg width="23" height="23" viewBox="0 0 23 23" fill="none" xmlns="http://www.w3.org/2000/svg">
<path d="M3.813 0.5H18.937C19.8488 0.5 20.7233 0.862217 21.368 1.50697C22.0128 2.15172 22.375 3.02619 22.375 3.938V19.062C22.375 19.9738 22.0128 20.8483 21.368 21.493C20.7233 22.1378 19.8488 22.5 18.937 22.5H3.813C2.90119 22.5 2.02672 22.1378 1.38197 21.493C0.737217 20.8483 0.375 19.9738 0.375 19.062V3.938C0.374869 3.48648 0.463706 3.03936 0.636435 2.62218C0.809164 2.205 1.0624 1.82595 1.38167 1.50667C1.70095 1.1874 2.08 0.934164 2.49718 0.761435C2.91436 0.588706 3.36148 0.499869 3.813 0.5ZM10.038 9.976V16.126H11.91V13.146C11.91 12.148 12.277 11.513 13.161 11.513C13.798 11.513 14.049 12.103 14.049 13.147V16.125H15.92V12.73C15.92 10.896 15.481 9.897 13.633 9.897C12.668 9.897 12.027 10.348 11.776 10.85V9.977H10.038V9.976ZM6.83 16.046H8.701V9.896H6.83V16.046ZM8.969 7.89C8.969 7.57081 8.8422 7.2647 8.6165 7.039C8.3908 6.8133 8.08469 6.6865 7.7655 6.6865C7.44631 6.6865 7.1402 6.8133 6.9145 7.039C6.6888 7.2647 6.562 7.57081 6.562 7.89C6.562 8.20919 6.6888 8.5153 6.9145 8.741C7.1402 8.9667 7.44631 9.0935 7.7655 9.0935C8.08469 9.0935 8.3908 8.9667 8.6165 8.741C8.8422 8.5153 8.969 8.20919 8.969 7.89Z" fill="#96969C"/>
</svg>
