<svg width="22" height="19" viewBox="0 0 22 19" fill="none" xmlns="http://www.w3.org/2000/svg">
  <path d="M6.97177 18.5998C15.1662 18.5998 19.6475 11.811 19.6475 5.92402C19.6475 5.73122 19.6436 5.53929 19.6349 5.34817C20.5068 4.71728 21.2593 3.9361 21.8571 3.04124C21.0589 3.39609 20.1999 3.63495 19.2988 3.74264C20.2185 3.19105 20.9247 2.31863 21.2578 1.27854C20.3833 1.79736 19.4265 2.16308 18.4289 2.35994C17.6159 1.494 16.4586 0.952393 15.177 0.952393C12.7167 0.952393 10.7217 2.94753 10.7217 5.40682C10.7217 5.75643 10.7608 6.0965 10.8372 6.42264C7.13455 6.23633 3.85129 4.46357 1.65395 1.76798C1.2582 2.44781 1.05002 3.22051 1.05069 4.00714C1.05069 5.55277 1.83721 6.91726 3.03323 7.7155C2.32577 7.69392 1.63384 7.50283 1.01557 7.1583C1.01492 7.17702 1.01492 7.19524 1.01492 7.2152C1.01492 9.37276 2.55056 11.1741 4.58906 11.5823C4.20619 11.6866 3.81113 11.7394 3.41431 11.7391C3.1333 11.739 2.85294 11.712 2.57701 11.6588C3.1442 13.4289 4.78885 14.717 6.73874 14.753C5.21395 15.9482 3.29314 16.66 1.20553 16.66C0.846379 16.66 0.491596 16.6396 0.14286 16.5983C2.11453 17.8621 4.45571 18.5995 6.97198 18.5995" fill="#A4A8B4"/>
</svg>
