<svg width="23" height="23" viewBox="0 0 23 23" fill="none" xmlns="http://www.w3.org/2000/svg">
<path fill-rule="evenodd" clip-rule="evenodd" d="M3.813 0.5H18.937C19.8488 0.5 20.7233 0.862217 21.368 1.50697C22.0128 2.15172 22.375 3.02619 22.375 3.938V19.062C22.375 19.9738 22.0128 20.8483 21.368 21.493C20.7233 22.1378 19.8488 22.5 18.937 22.5H3.813C2.90119 22.5 2.02672 22.1378 1.38197 21.493C0.737217 20.8483 0.375 19.9738 0.375 19.062V3.938C0.374869 3.48648 0.463706 3.03936 0.636435 2.62218C0.809164 2.205 1.0624 1.82595 1.38167 1.50667C1.70095 1.1874 2.08 0.934164 2.49718 0.761435C2.91436 0.588706 3.36148 0.499869 3.813 0.5ZM16.8429 8.08334C17.3715 8.02396 17.8877 7.8899 18.3743 7.68563C18.0169 8.19274 17.5671 8.63517 17.0448 8.99199C17.0491 9.10046 17.052 9.20961 17.052 9.31876C17.052 12.6546 14.37 16.5 9.46296 16.5C8.01359 16.5015 6.5944 16.1082 5.375 15.3669C5.58632 15.39 5.7989 15.4014 6.01163 15.401C7.21237 15.403 8.37894 15.0229 9.32381 14.3218C8.76723 14.3119 8.22786 14.1375 7.7812 13.8232C7.33454 13.5088 7.00295 13.0701 6.83282 12.5686C6.99432 12.5986 7.16231 12.6137 7.3339 12.6137C7.57167 12.6144 7.80843 12.5843 8.03758 12.5243C7.43372 12.4091 6.89058 12.0998 6.50039 11.6488C6.1102 11.1978 5.897 10.6329 5.89699 10.05V10.0187C6.26776 10.2134 6.68224 10.3217 7.10607 10.3345C6.38942 9.88155 5.91934 9.10796 5.91934 8.23342C5.91868 7.787 6.04333 7.34842 6.28055 6.96253C6.94979 7.74262 7.78509 8.38067 8.73213 8.83516C9.67917 9.28966 10.7167 9.55042 11.7773 9.60049C11.6431 9.05924 11.7015 8.49122 11.9435 7.9846C12.1855 7.47799 12.5975 7.06114 13.1155 6.79877C13.6335 6.5364 14.2286 6.44319 14.8083 6.53361C15.3881 6.62404 15.92 6.89303 16.3216 7.29884C16.9193 7.18815 17.4924 6.98117 18.016 6.68693C17.8173 7.27182 17.4003 7.76823 16.8429 8.08334Z" fill="#96969C"/>
</svg>
