<svg width="166" height="74" viewBox="0 0 166 74" fill="none" xmlns="http://www.w3.org/2000/svg">
<path d="M57.4624 17.9932H51.6582V55.14H57.4624V17.9932Z" fill="#DFDFDF"/>
<path d="M77.8908 43.4456C77.8908 49.0844 73.2615 49.5329 71.847 49.5329C68.3108 49.5329 67.7964 46.233 67.7964 44.2466V30.1816H62.1062V44.2145C62.0741 47.7067 63.0707 50.5902 64.9995 52.5125C66.7034 54.2106 69.0823 55.1397 71.847 55.1397C74.0176 55.1373 76.1323 54.4535 77.8908 53.1853V54.6591H83.581V30.1816H77.8908V43.4456Z" fill="#DFDFDF"/>
<path d="M96.2754 22.0562H90.5167V30.3838H86.4824V35.7952H90.5167V55.1401H96.2754V35.7952H100.993V30.3838H96.2754V22.0562Z" fill="#DFDFDF"/>
<path d="M119.245 47.7C117.903 48.8845 116.167 49.5274 114.376 49.5033C110.248 49.5033 107.217 46.4763 107.217 42.3221C107.217 38.1679 110.152 35.2696 114.376 35.2696C116.171 35.2454 117.913 35.875 119.277 37.0408L120.18 37.8136L124.178 33.8205L123.179 32.9188C120.758 30.7614 117.62 29.5793 114.376 29.6019C106.959 29.6019 101.574 34.9476 101.574 42.2899C101.574 49.6321 107.088 55.1389 114.376 55.1389C117.649 55.1827 120.818 53.9859 123.243 51.7897L124.211 50.8881L120.148 46.8949L119.245 47.7Z" fill="#DFDFDF"/>
<path d="M145.693 32.3282C143.989 30.5936 141.61 29.6445 138.845 29.6445C136.675 29.647 134.56 30.3455 132.802 31.641V17.9932H127.111V55.14H132.802V41.5904C132.802 35.8302 137.431 35.372 138.845 35.372C142.382 35.372 142.896 38.743 142.896 40.7722V55.14H148.586V40.8049C148.618 37.2375 147.622 34.292 145.693 32.3282Z" fill="#DFDFDF"/>
<path d="M114.052 47.0139C116.457 47.0139 118.406 45.0649 118.406 42.6608C118.406 40.2566 116.457 38.3076 114.052 38.3076C111.648 38.3076 109.699 40.2566 109.699 42.6608C109.699 45.0649 111.648 47.0139 114.052 47.0139Z" fill="#FF3D2E"/>
<path d="M43.2524 45.8852C42.1317 47.0244 40.791 47.9285 39.31 48.5434C37.8291 49.1583 36.2382 49.4715 34.6324 49.4644C27.9592 49.4644 23.1088 44.273 23.1088 37.1469C23.1088 30.0208 27.9592 24.7972 34.6324 24.7972C36.2304 24.7968 37.8126 25.1101 39.2877 25.7189C40.7627 26.3277 42.1014 27.2199 43.2263 28.3441L44.1378 29.2469L48.1418 25.2808L47.2629 24.378C45.6222 22.7084 43.6574 21.3849 41.4868 20.4872C39.3162 19.5894 36.9846 19.1361 34.6324 19.1543C24.8016 19.1543 17.4121 26.8931 17.4121 37.1791C17.4121 47.4652 24.8341 55.1394 34.6324 55.1394C36.992 55.1551 39.3303 54.6975 41.5066 53.7942C43.6828 52.8909 45.652 51.5607 47.2954 49.8835L48.1743 48.9807L44.2029 44.9501L43.2524 45.8852Z" fill="#DFDFDF"/>
</svg>
