<svg width="166" height="75" viewBox="0 0 166 75" fill="none" xmlns="http://www.w3.org/2000/svg">
<path fill-rule="evenodd" clip-rule="evenodd" d="M30.4021 62.8183C42.453 62.8183 52.2222 61.6336 52.2222 60.1723C52.2222 58.711 42.453 57.5264 30.4021 57.5264C18.3512 57.5264 8.58203 58.711 8.58203 60.1723C8.58203 61.6336 18.3512 62.8183 30.4021 62.8183Z" fill="url(#paint0_radial)"/>
<path fill-rule="evenodd" clip-rule="evenodd" d="M45.1539 38.4052C45.1539 38.4052 44.5911 36.4822 44.0244 36.4426C43.4601 36.3999 40.5951 36.7087 38.7178 36.7576C36.8403 36.8064 34.1406 37.503 31.599 37.4053C29.0566 37.3114 27.1746 36.7723 25.9438 36.5016C25.2834 36.3542 23.191 36.3829 21.329 36.438C18.9079 36.1254 16.9883 35.338 15.8173 34.8633C15.5585 34.8989 15.3282 34.9152 15.0625 34.9152C15.0948 36.8135 15.15 38.9715 15.2483 41.2195C15.2714 41.8766 15.3051 42.5661 15.3466 43.2697L15.365 43.6165L15.3673 43.6071C15.5063 45.8101 15.7136 48.0993 15.8926 49.8834L15.8265 49.7415C16.2481 53.9544 16.8938 57.6289 17.8659 59.4526C19.8531 60.3401 23.0313 60.901 26.5128 61.1577C24.5723 60.9971 22.6404 60.7341 20.8091 60.3525C25.0201 60.7738 28.417 61.0374 31.1544 61.0374C39.4626 61.0374 41.6832 60.0322 42.2552 58.8693H42.9425L45.1539 38.4044V38.4052Z" fill="url(#paint1_radial)"/>
<path fill-rule="evenodd" clip-rule="evenodd" d="M38.5877 34.8447L38.5859 34.8464L38.5877 34.8447Z" fill="url(#paint2_radial)"/>
<path fill-rule="evenodd" clip-rule="evenodd" d="M38.6181 34.8228L38.6113 34.825L38.6181 34.8228Z" fill="url(#paint3_radial)"/>
<path fill-rule="evenodd" clip-rule="evenodd" d="M38.6732 34.7773L38.6582 34.7894L38.6732 34.7773Z" fill="url(#paint4_radial)"/>
<path fill-rule="evenodd" clip-rule="evenodd" d="M38.7188 34.7417C40.3811 35.2149 41.8731 35.5337 43.2015 35.7012C41.8723 35.5306 40.3835 35.2094 38.7188 34.7417Z" fill="url(#paint5_radial)"/>
<path fill-rule="evenodd" clip-rule="evenodd" d="M15.0597 34.3066C15.6026 34.4788 16.1931 34.6441 16.8335 34.8C18.0351 35.0917 20.5077 35.8643 22.8466 35.8643C23.9584 35.8643 25.0411 35.5051 25.9425 35.0211C26.457 35.7666 28.8879 37.1753 31.9087 37.1753C32.1928 37.1753 32.4777 37.1659 32.7718 37.1442C34.6377 36.9953 36.6694 36.3529 38.5845 34.8473L38.5852 34.8465L38.609 34.8271L38.6159 34.8248L38.6559 34.7914L38.6704 34.7798L38.7157 34.7441C40.3781 35.2173 41.8701 35.5362 43.1985 35.7037C43.9824 35.8107 44.7127 35.8604 45.3845 35.8604L45.7585 35.855C45.4928 42.7294 44.897 52.712 43.5854 59.4545C42.4452 60.1046 40.3835 60.6259 37.8112 60.9586C35.8002 61.2014 33.4974 61.3248 31.1547 61.3248C29.599 61.3248 28.0265 61.2705 26.5107 61.1588C24.5704 60.9982 22.6384 60.7352 20.8071 60.3536C25.018 60.7748 28.415 60.9424 31.1524 60.9424C41.4178 60.9424 42.3938 58.5804 42.4406 58.3367C45.0029 46.2612 44.3134 36.927 44.09 36.8875C43.405 36.7633 42.5358 36.6656 41.4962 36.6656C39.9182 36.6656 37.9495 36.896 35.6206 37.615C34.4603 37.9758 33.0689 38.127 31.5578 38.127C30.9435 38.127 29.6235 38.0541 29.6013 38.0518C21.7838 37.1783 18.7462 36.0023 15.0597 34.921L15.0566 34.3105" fill="url(#paint6_radial)"/>
<path fill-rule="evenodd" clip-rule="evenodd" d="M25.9432 35.2055L25.9478 35.1931C27.1633 36.1853 29.0599 36.7345 30.9104 36.7345C33.6855 36.7345 36.3276 35.4879 36.3138 32.61C38.3601 33.6401 40.16 34.08 41.7126 34.08C46.587 34.08 49.0195 29.753 49.0195 25.9101C49.0195 23.7738 47.4808 19.8697 43.0165 18.6363C42.5158 18.4966 40.9516 18.1895 40.0364 18.2957C37.1461 18.6363 35.9722 18.7875 34.9033 18.7875C34.3336 18.7875 33.7884 18.6494 33.0174 18.2244C31.9471 17.6348 28.6215 16.1648 27.4497 15.9934C25.7843 15.756 24.2647 15.6436 22.8764 15.6436H22.6392C11.3509 15.6436 9.05273 22.9617 9.05273 27.4763C9.05273 30.5575 10.1093 32.7473 15.0512 34.3072H15.0604C23.2058 37.1759 25.9425 35.2063 25.9425 35.2063L25.9432 35.2055Z" fill="url(#paint7_radial)"/>
<path fill-rule="evenodd" clip-rule="evenodd" d="M43.0165 18.6357C47.404 20.2104 49.0197 23.7733 49.0197 25.9096C49.0197 29.754 46.5871 34.0794 41.7128 34.0794C40.1601 34.0794 38.3603 33.6396 36.314 32.6095C36.3278 35.4874 33.6841 36.734 30.9106 36.734C29.0616 36.734 27.165 36.184 25.9479 35.1926L25.9434 35.205C26.4601 35.9481 28.8912 37.173 31.9095 37.173C32.1937 37.173 32.477 37.1211 32.7726 37.142C36.4092 37.3817 38.7027 34.7543 38.7174 34.7411C40.3828 35.2089 41.8717 35.5301 43.2001 35.7007C43.9733 35.8008 44.6912 35.8519 45.3547 35.8519L45.7608 35.8442H45.8039C46.703 35.8131 47.4955 35.6829 48.1919 35.4641C51.069 34.5147 52.2761 32.2806 52.0196 27.9063L51.9559 27.1818C51.7708 25.2138 50.7427 23.3304 48.9221 21.592C47.4701 20.2966 45.4968 19.2486 43.0158 18.6365" fill="url(#paint8_radial)"/>
<path fill-rule="evenodd" clip-rule="evenodd" d="M35.2481 41.9591C33.6609 41.9591 31.7506 42.8131 31.0019 43.2265C30.4513 42.4307 29.3786 41.9591 28.0802 41.9591C27.8737 41.9591 27.6471 41.9831 27.4121 42.0265C25.7444 42.1576 25.1616 42.0754 24.1049 41.8605C22.9002 41.6154 21.8161 39.6552 21.7569 38.7949C20.913 40.2246 21.171 41.845 22.0387 42.9132V54.2007H24.8729V44.9083C24.8729 44.9083 26.202 44.114 27.2716 44.114C28.6123 44.114 28.9977 45.4816 28.9578 46.8647C29.9722 45.9571 30.7646 45.2908 31.6638 44.8323C32.1721 44.5717 33.138 44.1853 34.1201 44.1853C36.0014 44.1853 36.2002 46.0176 36.2002 48.2873V54.1867L37.0948 54.1983H38.9744V47.9778C38.9768 44.6174 38.4869 41.9583 35.2481 41.9583V41.9591Z" fill="url(#paint9_radial)"/>
<path fill-rule="evenodd" clip-rule="evenodd" d="M34.4419 50.791C34.2983 50.02 32.8662 48.2079 31.627 50.6693C32.5584 49.6523 33.6219 49.7012 34.4419 50.791Z" fill="url(#paint10_radial)"/>
<path fill-rule="evenodd" clip-rule="evenodd" d="M31.2229 58.1528C32.3301 57.8689 34.2682 56.6478 34.7911 51.6507H34.7919C34.8011 51.5552 34.7489 51.4599 34.6598 51.4195C34.5692 51.3807 34.4671 51.4079 34.4064 51.4808C31.6452 54.8164 29.3009 55.3144 28.1499 55.3144C27.5875 55.3144 27.2463 55.1981 27.2064 55.1846C27.2039 55.1838 27.2026 55.1833 27.2024 55.1833C27.1264 55.1515 27.0389 55.1717 26.9759 55.2283C26.9137 55.2841 26.8899 55.3741 26.9129 55.454C27.3606 57.0116 28.9639 58.235 30.5641 58.235C30.7921 58.235 31.0141 58.2047 31.2229 58.1528ZM30.7483 56.5276C31.1523 55.9877 31.5523 55.6479 31.795 55.4889V55.4882C32.2802 55.485 32.6749 55.6061 32.9313 56.0467C32.3739 57.3886 30.247 58.4483 28.3396 56.983C28.3396 56.983 29.8008 55.8993 31.1584 55.5782C30.9572 55.7449 30.7975 56.0893 30.7483 56.5276Z" fill="url(#paint11_radial)"/>
<path fill-rule="evenodd" clip-rule="evenodd" d="M29.0768 50.7252C29.0976 50.636 29.1328 50.5499 29.1328 50.4499C29.1328 49.7703 28.59 49.2148 27.9219 49.2148C27.2539 49.2148 26.7148 49.7711 26.7148 50.4499C26.7148 50.65 26.7694 50.8322 26.8516 50.9967C27.4497 50.7082 28.3266 50.4243 29.0768 50.726V50.7252Z" fill="url(#paint12_radial)"/>
<path fill-rule="evenodd" clip-rule="evenodd" d="M126.375 41.3565C126.375 39.1999 126.636 37.4763 127.16 36.184C127.487 35.3501 127.936 34.6938 128.507 34.2114C129.151 33.6528 129.923 33.3735 130.82 33.3735C132.536 33.3735 133.755 34.2772 134.482 36.0847C134.997 37.3104 135.253 39.0658 135.253 41.3556C135.253 43.9039 135.062 45.8021 134.677 47.0518C134.009 49.185 132.725 50.2515 130.82 50.2515C129.8 50.2515 128.964 49.9576 128.31 49.3642C127.731 48.8638 127.287 48.1416 126.976 47.1891C126.577 45.9518 126.376 44.0071 126.376 41.3556L126.375 41.3565ZM119.088 33.8832C118.898 34.0733 118.806 34.3176 118.806 34.6163H118.808L118.82 34.7241L118.825 35.0181L118.845 35.4843L118.869 36.1242L118.893 36.9062L118.916 37.8323L118.936 38.8719L118.947 40.0246C118.952 40.4364 118.954 40.8507 118.954 41.268C118.954 41.6831 118.952 42.1159 118.947 42.5588L118.936 43.8395L118.922 45.0605C118.918 45.4472 118.911 45.8131 118.904 46.1512L118.903 46.1907L118.878 47.1875L118.862 48.033L118.848 48.6754L118.843 49.1035L118.829 49.2525C118.813 49.4519 118.877 49.638 119.019 49.8133C119.163 49.9886 119.417 50.077 119.786 50.077C120.169 50.077 120.431 50.0049 120.573 49.8513C120.716 49.7039 120.788 49.5317 120.788 49.3409L120.801 49.2028L120.807 48.8467L120.819 48.2898L120.837 47.5536L120.863 46.6786L120.88 45.678L120.892 44.5974L120.905 43.4486C120.91 43.0429 120.911 42.6511 120.911 42.2694L123.52 42.2183C123.773 42.2183 123.962 42.1213 124.089 41.932C124.214 41.7389 124.278 41.4929 124.278 41.192C124.278 40.8934 124.208 40.6497 124.07 40.4675C123.932 40.2836 123.731 40.1929 123.469 40.1929L120.911 40.2564C120.911 38.4607 120.881 36.8938 120.812 35.5587L121.634 35.5541L122.394 35.5379L123.056 35.5254L123.618 35.5153L124.047 35.5029L124.326 35.4952L124.426 35.4827C124.67 35.4827 124.849 35.3888 124.965 35.1981C125.054 35.032 125.099 34.8272 125.099 34.5782V34.4681C125.082 34.1609 125.012 33.9205 124.889 33.7459C124.785 33.5807 124.616 33.4969 124.389 33.4969H124.352L124.218 33.5093L123.85 33.5163L123.301 33.5287L122.571 33.5411L121.732 33.5535L120.789 33.566L119.787 33.5737C119.499 33.5737 119.268 33.6761 119.088 33.8832ZM93.7403 49.0283C93.748 49.0112 93.7655 48.6435 93.7894 47.9236C93.8132 47.2038 93.8362 46.207 93.857 44.9379C93.8785 43.6657 93.8892 42.4464 93.8892 41.2719C93.8892 40.8545 93.8846 40.438 93.8754 40.0214L93.8562 38.8664C93.8531 38.5119 93.8462 38.1675 93.8378 37.8277L93.814 36.9101L93.7902 36.1297L93.7718 35.4913L93.7594 35.0297L93.7525 34.7365L93.7403 34.624V34.5371C93.7403 34.2975 93.8362 34.0803 94.0267 33.8878C94.2094 33.6784 94.4436 33.576 94.7347 33.576H95.5301C95.9609 33.5644 96.3609 33.5636 96.7372 33.5636C97.1112 33.5636 97.5012 33.5939 97.9105 33.6613C98.3174 33.7273 98.6844 33.8289 99.0093 33.9616C99.6781 34.2626 100.187 34.6861 100.538 35.2353C100.896 35.8108 101.088 36.5695 101.112 37.5112C101.122 37.6834 101.122 37.8517 101.112 38.0116C101.112 38.705 101.072 39.2535 100.992 39.6623C100.843 40.3333 100.566 40.8926 100.16 41.3348C100.421 41.4659 100.641 41.624 100.82 41.8079C101.587 42.5665 101.972 43.7038 101.972 45.2203C101.972 46.9951 101.589 48.2541 100.822 49.0066C100.275 49.565 99.5138 49.9048 98.5362 50.0313C98.0617 50.0809 97.5534 50.1058 97.0067 50.1058C96.5199 50.1058 96.1497 50.0957 95.8933 50.0817H94.7553C94.5081 50.0817 94.264 49.977 94.0259 49.7675C93.8378 49.548 93.7417 49.3044 93.7417 49.0298L93.7403 49.0283ZM60.8845 49.1283L60.873 49.3425H60.8754C60.8754 49.4348 60.8845 49.5138 60.9015 49.5821C60.9214 49.6497 60.9606 49.7194 61.0174 49.8009C61.0742 49.8777 61.171 49.9405 61.3138 49.9878C61.4551 50.0343 61.6294 50.0561 61.8406 50.0561C62.0502 50.0561 62.2229 50.0375 62.3611 49.9994C62.4971 49.9646 62.5977 49.9048 62.6568 49.8319C62.7159 49.7559 62.7597 49.6884 62.7835 49.6248C62.8089 49.5643 62.8234 49.4836 62.8327 49.3944L62.8441 49.2571V48.9003L62.8579 48.3441L62.8748 47.5947L62.8887 46.6941C62.8925 46.3769 62.8979 46.0316 62.9071 45.6547C62.9148 45.2831 62.9194 44.9045 62.9194 44.5174L62.9247 43.288C62.9309 42.8513 62.9317 42.4208 62.9317 41.9972C62.9317 40.6444 62.9247 39.6724 62.9079 39.072C63.3172 39.8958 63.7264 40.7832 64.1364 41.7311C64.4459 42.4231 64.7938 43.236 65.173 44.163C65.5546 45.0931 65.8702 45.8897 66.1259 46.5623C66.3785 47.2309 66.6251 47.881 66.8677 48.5116C67.1096 49.1408 67.2301 49.4572 67.2301 49.4665C67.3269 49.7233 67.4559 49.8955 67.6225 49.977C67.7676 50.0623 68.0011 50.1026 68.3204 50.1026H68.4172C68.5892 50.0933 68.7282 50.0662 68.8387 50.0212C68.9508 49.9754 69.0292 49.9056 69.0784 49.8141C69.1267 49.7233 69.1582 49.6349 69.1697 49.5457C69.182 49.4595 69.1889 49.3448 69.1889 49.2028C69.1889 49.1214 69.1797 48.5714 69.1589 47.5606C69.1382 46.5468 69.1183 45.3181 69.0975 43.862C69.0784 42.4068 69.0668 41.1105 69.0668 39.9711C69.0668 39.6375 69.0691 39.2985 69.0737 38.9556L69.0791 38.0084C69.0791 37.7153 69.0837 37.4306 69.0914 37.1467L69.1099 36.3779L69.1237 35.7217C69.1267 35.5146 69.1328 35.3346 69.1428 35.1787L69.1543 34.7783V34.5123L69.1682 34.4216C69.192 34.1632 69.116 33.9607 68.9401 33.8165C68.7659 33.6699 68.53 33.59 68.2368 33.5737H68.1384C67.8928 33.5737 67.6831 33.6257 67.5134 33.735C67.3176 33.8568 67.2147 34.05 67.2071 34.3083L67.1932 34.6209L67.1649 35.4401L67.1272 36.623C67.1157 37.0644 67.105 37.5842 67.0973 38.183C67.0881 38.7834 67.0849 39.3784 67.0849 39.9718C67.0849 40.3457 67.0881 40.9454 67.0973 41.7692C67.105 42.5937 67.1096 43.2174 67.1096 43.6324C66.6995 42.6147 66.3179 41.7032 65.9586 40.8957C65.5508 39.9958 65.0732 38.9804 64.5257 37.8455C63.979 36.713 63.5329 35.8031 63.1912 35.1158C62.8479 34.4286 62.6698 34.0779 62.653 34.0609C62.5063 33.7444 62.2521 33.5861 61.8927 33.5861C61.7876 33.5861 61.6701 33.5978 61.5426 33.6218C61.098 33.749 60.8768 34.029 60.8768 34.4712C60.8768 34.5805 60.8823 34.998 60.9006 35.7286L60.9086 36.1649C60.9207 36.8207 60.9352 37.6174 60.9483 38.5507C60.9629 39.7065 60.9721 40.8522 60.9721 41.9956V43.6262C60.9721 44.1451 60.9698 44.651 60.9652 45.1443C60.9606 45.6353 60.9537 46.0899 60.9468 46.5064L60.9214 47.6545L60.8984 48.5395L60.8845 49.1283ZM71.2867 48.3224C71.16 48.8437 71.0986 49.1292 71.0986 49.1811L71.0978 49.1819L71.074 49.3797C71.074 49.7706 71.3189 50.0149 71.808 50.1058C71.9233 50.1298 72.0323 50.1437 72.1397 50.1437C72.3095 50.1437 72.4645 50.1065 72.6036 50.0406C72.8332 49.9336 72.9744 49.7272 73.0335 49.4169C73.0335 49.3983 73.0765 49.1904 73.1679 48.7948L73.6118 46.8415C73.7488 46.2446 73.8907 45.6206 74.0388 44.9685V44.9683C74.1155 44.6306 74.194 44.2855 74.2744 43.9326L77.1024 43.8092C77.7013 46.7741 78.0607 48.6443 78.1767 49.4169C78.2005 49.6582 78.334 49.8544 78.5744 50.008C78.7648 50.122 78.9606 50.1763 79.1602 50.167L79.3292 50.1554C79.5994 50.1298 79.8083 50.0297 79.952 49.8575C80.0556 49.7249 80.1093 49.5682 80.1093 49.3866L80.097 49.1865C80.097 49.1632 80.0479 48.891 79.9496 48.379C79.8505 47.8655 79.6932 47.0393 79.4789 45.9076C79.2631 44.7743 79.0397 43.6006 78.8108 42.3913C78.5121 40.9477 78.1582 39.3869 77.7543 37.7012C77.3519 36.0196 77.0525 34.8552 76.8574 34.2129C76.7354 33.7871 76.4305 33.5768 75.9475 33.5768H75.8392C75.3778 33.6334 75.0952 33.8289 74.9878 34.164L74.8426 34.6132C74.7458 34.9025 74.6153 35.3168 74.4548 35.8504C74.3062 36.3327 74.1493 36.8589 73.9796 37.4277V37.4279V37.428L73.9258 37.6082C73.7353 38.245 73.5427 38.9735 73.3453 39.7864C73.1472 40.6024 72.9621 41.3727 72.7901 42.0903L71.8918 45.816L71.2867 48.3224ZM74.7351 41.894L76.7177 41.8071C76.396 40.331 76.1019 39.0712 75.8385 38.0209C75.4499 39.2551 75.0814 40.5451 74.7351 41.894ZM81.7096 46.4288C81.6888 47.4536 81.6773 48.4077 81.6773 49.2905L81.675 49.2912C81.6596 49.4775 81.728 49.652 81.8861 49.8249C82.0397 49.9956 82.3008 50.0817 82.6655 50.0817C83.031 50.0817 83.2882 49.9971 83.4387 49.8319C83.5869 49.6643 83.6622 49.4836 83.6622 49.292C83.6814 46.961 83.7827 43.5378 83.9685 39.0238C84.0415 39.2403 84.1674 39.5847 84.3479 40.0533C84.5276 40.5225 84.6735 40.9128 84.7871 41.223C84.9022 41.5287 85.0374 41.9289 85.1909 42.4153C85.3484 42.904 85.4882 43.3834 85.6194 43.8589C85.7653 44.374 86.0901 44.6323 86.5954 44.6323C86.8472 44.6323 87.0491 44.5788 87.1996 44.4686C87.3517 44.3631 87.4677 44.1661 87.5475 43.8837C87.655 43.4935 87.7618 43.115 87.8715 42.7512C87.9821 42.392 88.1019 42.0243 88.2332 41.6605C88.3622 41.2928 88.4705 40.9973 88.5572 40.7731L88.912 39.8353L88.9617 39.7037C89.0858 39.3752 89.1713 39.1489 89.223 39.0231C89.3527 42.8055 89.4188 46.228 89.4188 49.2912C89.4188 49.5636 89.5155 49.7566 89.7159 49.8877C89.911 50.0149 90.1644 50.0809 90.473 50.0809C90.7441 50.0809 90.9668 50.0142 91.1411 49.8877C91.3154 49.7552 91.4021 49.562 91.4021 49.2912C91.4021 48.4015 91.3953 47.4403 91.3814 46.4126C91.3691 45.3839 91.353 44.4034 91.3323 43.4695C91.3138 42.5355 91.2916 41.6109 91.2685 40.6956C91.2455 39.7779 91.2217 38.9463 91.2002 38.197C91.1929 37.9663 91.1859 37.7439 91.1793 37.5299L91.1793 37.5274C91.1643 37.0469 91.1508 36.6083 91.1365 36.2112C91.1173 35.6356 91.1012 35.1818 91.0873 34.8489L91.0688 34.3386C91.0504 34.0957 90.9836 33.9096 90.8639 33.7816C90.7456 33.6512 90.5367 33.5838 90.2403 33.5768C89.9363 33.5768 89.7021 33.6179 89.5416 33.6955C89.3789 33.7746 89.2475 33.9119 89.1462 34.1121L89.061 34.2936L88.8405 34.7551L88.5235 35.4556C88.4013 35.7263 88.2655 36.0498 88.1142 36.4245C87.9812 36.7525 87.8476 37.1016 87.7082 37.4658L87.7081 37.4659L87.6504 37.6167C87.4922 38.0356 87.3187 38.5189 87.1305 39.0588C86.9447 39.6018 86.7635 40.1518 86.5938 40.7102C86.4149 40.1331 86.2306 39.5723 86.0379 39.0224C85.8474 38.4708 85.6731 37.9867 85.5135 37.5671C85.3892 37.2346 85.2668 36.9174 85.1494 36.6131L85.1493 36.6128L85.0566 36.3725C84.9092 35.9963 84.7778 35.6767 84.6596 35.4114L84.3533 34.7241L84.1444 34.2656L84.066 34.0841C83.8956 33.7444 83.5439 33.5745 83.0095 33.5745H82.8935C82.6909 33.5893 82.5143 33.6652 82.3661 33.7963C82.2193 33.9313 82.1402 34.1098 82.1303 34.3362L82.1065 34.835C82.0888 35.1693 82.0673 35.624 82.0435 36.2018L81.9607 38.2039C81.9261 38.9564 81.8968 39.7941 81.8669 40.7141L81.7817 43.4951C81.7525 44.4283 81.7303 45.4056 81.7096 46.4288ZM95.8841 40.4574C95.8841 38.5688 95.8526 36.9386 95.7851 35.5742L96.2857 35.5619C97.2378 35.5619 97.8966 35.648 98.2637 35.8232C98.5232 35.9326 98.7313 36.1118 98.8849 36.3617C99.0384 36.6114 99.1283 37.014 99.1536 37.571V37.8603C99.1536 38.9393 99.0223 39.629 98.7628 39.9198C98.4364 40.255 97.4766 40.4334 95.8841 40.4574ZM95.7851 35.5742V35.5735V35.5742ZM95.7851 48.0796C96.2242 48.0873 96.6228 48.0935 96.9806 48.0935L97.4812 48.0796C97.9535 48.0796 98.3558 48.0377 98.6852 47.9562C99.0162 47.874 99.2657 47.7422 99.4354 47.5691C99.8186 47.1774 100.01 46.3947 100.01 45.2195C100.01 44.2933 99.8263 43.6448 99.46 43.2686C98.9402 42.7629 97.8275 42.5076 96.1268 42.5076H95.8841C95.8841 44.6222 95.8519 46.4801 95.7851 48.0788V48.0796ZM103.272 48.3224C103.147 48.8437 103.084 49.1292 103.084 49.1811L103.082 49.1819L103.059 49.3797C103.059 49.7706 103.304 50.0149 103.793 50.1058C103.91 50.1298 104.018 50.1437 104.124 50.1437C104.296 50.1437 104.451 50.1065 104.59 50.0406C104.817 49.9336 104.961 49.7272 105.017 49.4169C105.017 49.3983 105.063 49.1904 105.155 48.7948L105.598 46.8415C105.765 46.1017 105.943 45.3204 106.131 44.4953L106.132 44.4918L106.26 43.9326L109.087 43.8092C109.687 46.7741 110.044 48.6443 110.162 49.4169C110.186 49.6582 110.317 49.8544 110.557 50.008C110.75 50.122 110.944 50.1763 111.145 50.167L111.314 50.1554C111.586 50.1298 111.793 50.0297 111.936 49.8575C112.042 49.7249 112.094 49.5682 112.094 49.3866L112.082 49.1865C112.082 49.1632 112.034 48.891 111.933 48.379L111.465 45.9076C111.25 44.7743 111.027 43.6006 110.796 42.3913C110.497 40.9477 110.144 39.3869 109.74 37.7012C109.337 36.0196 109.036 34.8552 108.843 34.2129C108.721 33.7871 108.42 33.5768 107.933 33.5768H107.823C107.363 33.6334 107.08 33.8289 106.975 34.164L106.828 34.6132C106.732 34.9025 106.601 35.3168 106.44 35.8504C106.278 36.3834 106.099 36.9698 105.911 37.6082C105.721 38.245 105.529 38.9735 105.329 39.7864L104.774 42.0903C104.567 42.9547 104.368 43.7802 104.179 44.5654L104.178 44.5674V44.568C104.075 44.996 103.975 45.4121 103.877 45.816L103.272 48.3224ZM106.723 41.894L108.705 41.8071C108.383 40.331 108.089 39.0712 107.826 38.0209C107.436 39.2551 107.069 40.5451 106.723 41.894ZM128.903 46.7298C128.539 45.7051 128.358 43.914 128.358 41.3565C128.358 39.4086 128.568 37.9387 128.984 36.9473C129.401 35.8876 130.013 35.3594 130.82 35.3594C131.655 35.3594 132.271 35.8551 132.671 36.8449C133.07 37.8394 133.271 39.3419 133.271 41.3565C133.271 43.7139 133.111 45.4088 132.792 46.4405C132.563 47.158 132.285 47.6421 131.954 47.8918C131.623 48.1432 131.246 48.265 130.82 48.265C129.908 48.265 129.268 47.7545 128.903 46.7298ZM137.004 41.3565C137.004 39.1999 137.265 37.4763 137.789 36.184C138.115 35.3501 138.564 34.6938 139.135 34.2114C139.78 33.6528 140.551 33.3735 141.448 33.3735C143.163 33.3735 144.383 34.2772 145.112 36.0847C145.627 37.3104 145.882 39.0658 145.882 41.3556C145.882 43.9039 145.691 45.8021 145.307 47.0518C144.636 49.185 143.35 50.2515 141.449 50.2515C140.428 50.2515 139.592 49.9576 138.939 49.3642C138.361 48.8638 137.916 48.1416 137.604 47.1891C137.205 45.9518 137.005 44.0071 137.005 41.3556L137.004 41.3565ZM139.534 46.7298C139.172 45.7051 138.989 43.914 138.989 41.3565H138.988C138.988 39.4086 139.196 37.9387 139.613 36.9473C140.032 35.8876 140.642 35.3594 141.45 35.3594C142.282 35.3594 142.899 35.8551 143.298 36.8449C143.698 37.8394 143.898 39.3419 143.898 41.3565C143.898 43.7139 143.74 45.4088 143.422 46.4405C143.193 47.158 142.913 47.6421 142.581 47.8918C142.252 48.1432 141.875 48.265 141.45 48.265C140.534 48.265 139.896 47.7545 139.534 46.7298ZM148.137 34.5736C148.137 34.2912 148.231 34.0523 148.419 33.8615C148.591 33.6606 148.958 33.5489 149.522 33.524C150.5 33.524 151.353 33.6357 152.081 33.8615C152.913 34.1043 153.639 34.5294 154.261 35.136C155.511 36.3872 156.171 38.425 156.243 41.2517C156.262 41.6621 156.267 42.0531 156.267 42.4261C156.267 43.6006 156.191 44.616 156.037 45.4739C155.806 46.7554 155.357 47.7375 154.688 48.4201C154.083 49.0609 153.321 49.503 152.398 49.7427C151.851 49.887 151.267 49.9801 150.647 50.0297C150.198 50.0631 149.835 50.0817 149.557 50.0926L149.289 50.0802C148.938 50.0546 148.671 49.9537 148.493 49.7675C148.305 49.5534 148.211 49.3083 148.211 49.0345V48.9879C148.267 47.1208 148.298 45.3064 148.298 43.5408C148.298 42.831 148.293 42.1314 148.284 41.4379L148.26 39.9191L148.236 38.4863L148.205 37.2257L148.176 36.1374L148.156 35.3129L148.15 34.7628L148.14 34.5744L148.137 34.5736ZM150.181 37.007C150.166 36.2941 150.154 35.8155 150.144 35.5751C151.361 35.648 152.271 35.9831 152.875 36.5764C153.74 37.4352 154.211 39.0138 154.283 41.3154C154.291 41.6815 154.295 42.0305 154.295 42.3641C154.304 43.4563 154.248 44.3484 154.123 45.0404C153.962 45.9409 153.681 46.6073 153.279 47.0409C152.699 47.6344 151.679 47.9671 150.217 48.0423C150.251 45.9929 150.266 44.2383 150.266 42.7783V41.4139C150.259 40.7141 150.248 39.9834 150.231 39.2193L150.181 37.007Z" fill="#6A737B"/>
<defs>
<radialGradient id="paint0_radial" cx="0" cy="0" r="1" gradientUnits="userSpaceOnUse" gradientTransform="translate(30.4017 60.1762) scale(20.4506 2.47991)">
<stop stop-opacity="0.69"/>
<stop offset="1" stop-opacity="0.01"/>
</radialGradient>
<radialGradient id="paint1_radial" cx="0" cy="0" r="1" gradientUnits="userSpaceOnUse" gradientTransform="translate(20.9445 47.8817) scale(20.6836 18.0738)">
<stop offset="0.2096" stop-color="#FDFEFF"/>
<stop offset="0.7239" stop-color="#D9DDE3"/>
<stop offset="1" stop-color="#C4CAD2"/>
</radialGradient>
<radialGradient id="paint2_radial" cx="0" cy="0" r="1" gradientUnits="userSpaceOnUse" gradientTransform="translate(38.5871 34.8445) scale(0.000746569)">
<stop stop-color="#F0F3FF"/>
<stop offset="0.3497" stop-color="#E9E9EF"/>
<stop offset="0.4806" stop-color="#E2E3EA"/>
<stop offset="0.6726" stop-color="#CED2DA"/>
<stop offset="0.9013" stop-color="#AEB6C1"/>
<stop offset="1" stop-color="#9EA8B5"/>
</radialGradient>
<radialGradient id="paint3_radial" cx="0" cy="0" r="1" gradientUnits="userSpaceOnUse" gradientTransform="translate(38.6127 34.8237) scale(0.0026965)">
<stop stop-color="#F0F3FF"/>
<stop offset="0.3497" stop-color="#E9E9EF"/>
<stop offset="0.4806" stop-color="#E2E3EA"/>
<stop offset="0.6726" stop-color="#CED2DA"/>
<stop offset="0.9013" stop-color="#AEB6C1"/>
<stop offset="1" stop-color="#9EA8B5"/>
</radialGradient>
<radialGradient id="paint4_radial" cx="0" cy="0" r="1" gradientUnits="userSpaceOnUse" gradientTransform="translate(38.6602 34.7812) scale(0.00724554)">
<stop stop-color="#F0F3FF"/>
<stop offset="0.3497" stop-color="#E9E9EF"/>
<stop offset="0.4806" stop-color="#E2E3EA"/>
<stop offset="0.6726" stop-color="#CED2DA"/>
<stop offset="0.9013" stop-color="#AEB6C1"/>
<stop offset="1" stop-color="#9EA8B5"/>
</radialGradient>
<radialGradient id="paint5_radial" cx="0" cy="0" r="1" gradientUnits="userSpaceOnUse" gradientTransform="translate(40.0597 35.1445) scale(2.80807 0.601088)">
<stop stop-color="#F0F3FF"/>
<stop offset="0.3497" stop-color="#E9E9EF"/>
<stop offset="0.4806" stop-color="#E2E3EA"/>
<stop offset="0.6726" stop-color="#CED2DA"/>
<stop offset="0.9013" stop-color="#AEB6C1"/>
<stop offset="1" stop-color="#9EA8B5"/>
</radialGradient>
<radialGradient id="paint6_radial" cx="0" cy="0" r="1" gradientUnits="userSpaceOnUse" gradientTransform="translate(29.843 48.4879) scale(14.3452 12.624)">
<stop offset="0.2096" stop-color="#E2E7EB"/>
<stop offset="0.8129" stop-color="#BEC5CE"/>
<stop offset="1" stop-color="#B2B9C4"/>
</radialGradient>
<radialGradient id="paint7_radial" cx="0" cy="0" r="1" gradientUnits="userSpaceOnUse" gradientTransform="translate(21.0204 26.3535) scale(26.3521 13.9063)">
<stop offset="0.2096" stop-color="#FDFEFF"/>
<stop offset="0.7239" stop-color="#D9DDE3"/>
<stop offset="1" stop-color="#C4CAD2"/>
</radialGradient>
<radialGradient id="paint8_radial" cx="0" cy="0" r="1" gradientUnits="userSpaceOnUse" gradientTransform="translate(21.913 26.2221) scale(0.675985 0.47993)">
<stop offset="0.2096" stop-color="#E2E7EB"/>
<stop offset="0.8129" stop-color="#BEC5CE"/>
<stop offset="1" stop-color="#B2B9C4"/>
</radialGradient>
<radialGradient id="paint9_radial" cx="0" cy="0" r="1" gradientUnits="userSpaceOnUse" gradientTransform="translate(21.2922 40.616) scale(34.1036 29.6258)">
<stop offset="0.2096" stop-color="#E30E6F"/>
<stop offset="0.6402" stop-color="#BF0766"/>
<stop offset="1" stop-color="#9E005D"/>
</radialGradient>
<radialGradient id="paint10_radial" cx="0" cy="0" r="1" gradientUnits="userSpaceOnUse" gradientTransform="translate(21.2866 40.6068) scale(34.1272 16.5875)">
<stop offset="0.2096" stop-color="#E30E6F"/>
<stop offset="0.6402" stop-color="#BF0766"/>
<stop offset="1" stop-color="#9E005D"/>
</radialGradient>
<radialGradient id="paint11_radial" cx="0" cy="0" r="1" gradientUnits="userSpaceOnUse" gradientTransform="translate(21.2937 40.6152) scale(34.1084 29.5447)">
<stop offset="0.2096" stop-color="#E30E6F"/>
<stop offset="0.6402" stop-color="#BF0766"/>
<stop offset="1" stop-color="#9E005D"/>
</radialGradient>
<radialGradient id="paint12_radial" cx="0" cy="0" r="1" gradientUnits="userSpaceOnUse" gradientTransform="translate(21.29 40.6184) scale(34.101 25.1292)">
<stop offset="0.2096" stop-color="#E30E6F"/>
<stop offset="0.6402" stop-color="#BF0766"/>
<stop offset="1" stop-color="#9E005D"/>
</radialGradient>
</defs>
</svg>
