<svg width="166" height="75" viewBox="0 0 166 75" fill="none" xmlns="http://www.w3.org/2000/svg">
<g clip-path="url(#clip0)">
<path d="M36.138 33.4155C35.9587 32.7674 35.7026 32.1712 35.3697 31.6139C35.0495 31.0565 34.6525 30.538 34.1915 30.0844C33.7305 29.6177 33.2311 29.2289 32.6676 28.8919C32.117 28.5549 31.5151 28.3086 30.8877 28.1272C30.2474 27.9457 29.5943 27.855 28.9028 27.855C27.9551 27.855 27.046 28.0235 26.2008 28.3734C25.3556 28.7234 24.5872 29.2159 23.9086 29.864C23.7165 30.0455 23.5244 30.2788 23.3451 30.538C23.1658 30.7973 23.0122 31.0565 22.8585 31.3157V28.8271C22.8585 28.4383 22.5512 28.1272 22.167 28.1272C21.7956 28.1272 21.4883 28.4383 21.4883 28.8271V46.8696C21.4883 47.077 21.5907 47.1807 21.7956 47.1807L22.6024 47.1677C22.6664 47.1677 22.7048 47.1418 22.7561 47.1159C22.7945 47.077 22.8201 47.0252 22.8201 46.9733V39.5463C23.025 39.8315 23.2042 40.0907 23.3579 40.2981C23.5116 40.5184 23.6781 40.7258 23.8829 40.9332C23.8958 40.9462 23.8958 40.9462 23.9086 40.9591C24.2287 41.2573 24.5872 41.5424 24.9586 41.7887C25.3428 42.035 25.7526 42.2553 26.1752 42.4368C26.5978 42.6182 27.046 42.7608 27.5069 42.8515C27.968 42.9552 28.4289 43.0071 28.9156 43.0071C29.5943 43.0071 30.2602 42.9163 30.9005 42.7349C31.528 42.5534 32.1298 42.2942 32.6805 41.9701C33.2311 41.6332 33.7433 41.2443 34.2043 40.7777C34.6653 40.3111 35.0495 39.8056 35.3824 39.2482C35.7154 38.6909 35.9715 38.0817 36.1508 37.4336C36.3301 36.7855 36.4197 36.1245 36.4197 35.4246C36.4069 34.7246 36.3173 34.0636 36.138 33.4155ZM34.5116 37.8484C34.1915 38.6131 33.7433 39.2871 33.1927 39.8574C32.642 40.4407 31.9889 40.8944 31.2462 41.2313C30.5035 41.5683 29.7095 41.7368 28.8644 41.7368C28.0192 41.7368 27.2252 41.5683 26.4825 41.2184C25.7398 40.8814 25.0867 40.4148 24.5232 39.8315C23.9726 39.2612 23.5372 38.5872 23.217 37.8224C22.8969 37.0577 22.7304 36.2541 22.7304 35.3986C22.7304 34.5302 22.8969 33.7266 23.2299 32.9619C23.55 32.1971 23.9982 31.5361 24.5745 30.9657C25.1379 30.3955 25.8038 29.9548 26.5593 29.6307C27.3149 29.3067 28.1088 29.1382 28.954 29.1382C29.7864 29.1382 30.5803 29.3067 31.3102 29.6437C32.0402 29.9807 32.6805 30.4343 33.2311 31.0176C33.7817 31.5879 34.2172 32.2619 34.5245 33.0266C34.8446 33.7914 34.9983 34.595 34.9983 35.4246C34.9983 36.28 34.8446 37.0836 34.5116 37.8484Z" fill="#DFDFDF"/>
<path d="M64.1308 33.4153C63.9514 32.7672 63.6953 32.158 63.3751 31.6006C63.0423 31.0433 62.6583 30.5248 62.1972 30.0712C61.7362 29.6046 61.224 29.2157 60.6732 28.8787C60.1225 28.5547 59.521 28.2955 58.8805 28.114C58.253 27.9325 57.587 27.8418 56.8958 27.8418C56.2042 27.8418 55.5512 27.9325 54.9107 28.114C54.2702 28.2955 53.6813 28.5547 53.118 28.8787C52.5672 29.2157 52.055 29.6046 51.6069 30.0712C51.1459 30.5378 50.7615 31.0433 50.4287 31.6006C50.0959 32.158 49.8524 32.7672 49.6734 33.4153C49.494 34.0633 49.4043 34.7374 49.4043 35.4243C49.4043 36.1242 49.494 36.7853 49.6734 37.4334C49.8524 38.0814 50.1085 38.6906 50.4287 39.248C50.7489 39.8053 51.1459 40.3238 51.6069 40.7774C52.068 41.2441 52.5672 41.6329 53.118 41.9699C53.6687 42.294 54.2702 42.5532 54.9107 42.7346C55.5382 42.9161 56.2042 43.0068 56.8958 43.0068C57.5744 43.0068 58.24 42.9161 58.8805 42.7346C59.508 42.5532 60.1099 42.294 60.6732 41.9699C61.224 41.6329 61.7362 41.2441 62.1972 40.7774C62.6583 40.3108 63.0423 39.8053 63.3751 39.248C63.7083 38.6906 63.9514 38.0814 64.1308 37.4334C64.3102 36.7853 64.3999 36.1242 64.3999 35.4243C64.3869 34.7244 64.2972 34.0633 64.1308 33.4153ZM62.543 37.874C62.2098 38.6388 61.7747 39.2998 61.211 39.8572C60.6476 40.4275 59.9946 40.8682 59.2389 41.2052C58.4836 41.5292 57.6897 41.6977 56.8443 41.6977C56.2809 41.6977 55.7431 41.62 55.2309 41.4644C54.7187 41.3089 54.2321 41.1015 53.784 40.8163C53.3355 40.5441 52.926 40.2071 52.5546 39.8183C52.1833 39.4294 51.8756 39.0017 51.6069 38.5351C51.3508 38.0685 51.1459 37.5759 50.9921 37.0445C50.8512 36.5131 50.7745 35.9687 50.7745 35.4113C50.7745 34.5559 50.9409 33.7523 51.2611 32.9876C51.5814 32.2228 52.0295 31.5488 52.5802 30.9785C53.1306 30.4082 53.784 29.9416 54.5393 29.6175C55.2951 29.2805 56.0889 29.112 56.934 29.112C57.7794 29.112 58.5733 29.2805 59.316 29.6305C60.0587 29.9675 60.6988 30.4341 61.2495 31.0044C61.8003 31.5877 62.2354 32.2617 62.5556 33.0135C62.8759 33.7782 63.0297 34.5818 63.0297 35.4373C63.0297 36.3057 62.8629 37.1223 62.543 37.874Z" fill="#DFDFDF"/>
<path d="M68.7408 32.2488C69.0095 31.7822 69.3298 31.3544 69.7011 30.9656C70.0725 30.5897 70.4824 30.2527 70.9431 29.9805C71.3916 29.7083 71.8782 29.488 72.403 29.3454C72.9282 29.1899 73.466 29.125 74.0423 29.125C74.8232 29.125 75.5659 29.2676 76.2575 29.5528C76.9491 29.8379 77.5636 30.2397 78.1144 30.7452C78.6521 31.2507 79.1006 31.834 79.459 32.508C79.8174 33.182 80.0353 33.9079 80.125 34.6726V30.5638C80.112 30.6804 80.0995 30.8101 80.0995 30.9397C80.0995 31.0563 80.0995 31.1859 80.0865 31.3026C79.7918 30.7841 79.4204 30.3046 78.9979 29.8638C78.5754 29.4361 78.0888 29.0603 77.5636 28.7621C77.0388 28.464 76.4755 28.2177 75.8736 28.0622C75.2842 27.8937 74.6698 27.8159 74.0423 27.8159C73.3637 27.8159 72.6976 27.9067 72.0702 28.0881C71.4427 28.2696 70.8408 28.5288 70.29 28.8529C69.7397 29.1899 69.2275 29.5787 68.7664 30.0453C68.3053 30.5119 67.9084 31.0174 67.5882 31.5877C67.2554 32.1451 66.9993 32.7543 66.8199 33.4024C66.6405 34.0504 66.5508 34.7115 66.5508 35.4114C66.5508 36.0984 66.6405 36.7724 66.8199 37.4205C66.9993 38.0685 67.2554 38.6777 67.5752 39.2351C67.9084 39.7924 68.2924 40.3109 68.7534 40.7645C69.2145 41.2312 69.7267 41.62 70.2775 41.957C70.8278 42.294 71.4297 42.5403 72.0702 42.7217C72.6976 42.9032 73.3637 42.9939 74.0549 42.9939C74.6698 42.9939 75.2842 42.9162 75.8736 42.7476C76.4755 42.5921 77.0388 42.3588 77.5766 42.0607C78.1144 41.7626 78.601 41.3867 79.0365 40.946C79.472 40.5183 79.8304 40.0387 80.1376 39.4943V36.1891C80.0479 36.9538 79.8174 37.6797 79.459 38.3537C79.1006 39.0277 78.6395 39.611 78.0888 40.1035C77.538 40.596 76.9106 40.9849 76.2064 41.27C75.5022 41.5552 74.7595 41.6978 73.9782 41.6978C73.4274 41.6978 72.8896 41.62 72.3648 41.4645C71.8526 41.3089 71.366 41.0886 70.9175 40.8034C70.4694 40.5183 70.0595 40.1813 69.6881 39.7924C69.3168 39.4036 69.0095 38.9759 68.7408 38.5092C68.4718 38.0426 68.2798 37.5501 68.126 37.0187C67.9851 36.4872 67.9084 35.9428 67.9084 35.3855C67.9084 34.8152 67.9851 34.2578 68.126 33.7264C68.2542 33.2079 68.4588 32.7154 68.7408 32.2488Z" fill="#DFDFDF"/>
<path d="M109.464 35.476C109.464 35.463 109.464 35.45 109.464 35.45C109.438 34.6853 109.336 33.9724 109.144 33.2854C108.952 32.6114 108.696 31.9893 108.362 31.419C108.043 30.8616 107.645 30.3561 107.197 29.9025C106.736 29.4488 106.25 29.0729 105.699 28.7748C105.148 28.4637 104.559 28.2304 103.945 28.0749C103.317 27.9193 102.677 27.8286 102.024 27.8286C101.319 27.8286 100.641 27.9193 100 28.1008C99.3603 28.2823 98.7584 28.5415 98.1951 28.8656C97.6313 29.2025 97.1321 29.5914 96.671 30.058C96.223 30.5246 95.826 31.0301 95.5184 31.5875C95.1985 32.1448 94.955 32.754 94.7756 33.4021C94.5966 34.0502 94.5195 34.7242 94.5195 35.4241C94.5195 36.461 94.7119 37.4461 95.1214 38.3534C95.5184 39.2737 96.0565 40.0773 96.7477 40.7643C97.4268 41.4512 98.2206 41.9956 99.1298 42.3974C100.039 42.7992 101.012 42.9937 102.037 42.9937C102.882 42.9937 103.663 42.864 104.38 42.6178C105.097 42.3715 105.763 42.0215 106.378 41.5809C106.544 41.4642 106.685 41.3476 106.813 41.2309C106.929 41.1142 107.031 40.9976 107.121 40.8939C107.121 40.855 107.095 40.8161 107.056 40.7772C107.082 40.7513 107.108 40.7124 107.108 40.6865C107.108 40.6347 107.082 40.5569 107.018 40.4532C106.954 40.3495 106.864 40.2069 106.736 40.0255C106.659 39.9218 106.595 39.8699 106.532 39.8699C106.48 39.8699 106.416 39.8959 106.352 39.9347C106.288 39.9736 106.211 40.0255 106.134 40.0903C106.058 40.1551 105.981 40.2069 105.904 40.2717C105.827 40.3365 105.75 40.3884 105.674 40.4402C105.43 40.6217 105.174 40.7902 104.905 40.9457C104.636 41.1013 104.355 41.2309 104.047 41.3476C103.753 41.4512 103.42 41.542 103.074 41.6068C102.728 41.6716 102.344 41.6975 101.947 41.6975C101.243 41.6975 100.577 41.5809 99.9492 41.3476C99.3218 41.1142 98.7454 40.7902 98.2462 40.3884C97.734 39.9866 97.2985 39.494 96.9271 38.9237C96.5558 38.3534 96.2741 37.7313 96.0821 37.0443C96.0306 36.8499 95.9924 36.6425 95.9794 36.4221C95.9669 36.2018 95.9539 36.0333 95.9283 35.9037H109.118C109.361 35.9037 109.49 35.7741 109.49 35.5148C109.464 35.5019 109.464 35.4889 109.464 35.476ZM95.9153 34.5427C96.018 33.9335 96.1974 33.3502 96.4535 32.8059C96.7222 32.2485 97.0424 31.743 97.4268 31.2893C97.8107 30.8357 98.2588 30.4469 98.7584 30.1099C99.2576 29.7728 99.7958 29.5395 100.385 29.384C100.731 29.2803 101.025 29.2155 101.281 29.1896C101.524 29.1637 101.781 29.1507 102.037 29.1507C102.805 29.1507 103.522 29.2933 104.226 29.5654C104.931 29.8377 105.545 30.2136 106.096 30.6931C106.646 31.1727 107.095 31.743 107.453 32.4041C107.812 33.0651 108.043 33.778 108.132 34.5427H95.9153Z" fill="#016DFF"/>
<path d="M121.36 37.2647C121.143 36.7981 120.823 36.3963 120.426 36.0463C120.016 35.6963 119.529 35.3853 118.966 35.126C118.402 34.8668 117.762 34.6594 117.07 34.4909C117.058 34.4909 117.045 34.4909 117.032 34.4779C117.019 34.4779 116.981 34.465 116.917 34.452C116.597 34.3742 116.238 34.2576 115.854 34.115C115.47 33.9724 115.098 33.791 114.766 33.5706C114.433 33.3503 114.138 33.0911 113.92 32.793C113.69 32.4948 113.575 32.1449 113.575 31.756C113.575 31.3153 113.664 30.9135 113.831 30.5895C113.997 30.2525 114.24 29.9803 114.522 29.7599C114.817 29.5396 115.15 29.3841 115.534 29.2674C115.905 29.1637 116.302 29.1119 116.712 29.1119C117.467 29.1119 118.108 29.2804 118.646 29.6174C119.183 29.9543 119.619 30.3821 119.926 30.8876C119.977 30.9783 120.029 31.069 120.054 31.1468C120.093 31.2246 120.119 31.3023 120.157 31.3542C120.195 31.406 120.233 31.445 120.272 31.4838C120.323 31.5097 120.387 31.5357 120.464 31.5357C120.515 31.5357 120.579 31.5227 120.656 31.4838C120.733 31.4579 120.823 31.406 120.899 31.3542C120.976 31.3023 121.053 31.2376 121.117 31.1727C121.181 31.1079 121.207 31.0431 121.207 30.9783C121.207 30.9265 121.181 30.8746 121.143 30.8098L121.155 30.8228C120.976 30.3691 120.746 29.9543 120.477 29.5785C120.195 29.2026 119.875 28.8915 119.504 28.6323C119.132 28.373 118.71 28.1657 118.249 28.0231C117.788 27.8805 117.275 27.8027 116.725 27.8027C116.046 27.8027 115.432 27.8935 114.868 28.0879C114.304 28.2823 113.843 28.5545 113.446 28.9045C113.05 29.2544 112.742 29.6822 112.525 30.1617C112.307 30.6543 112.204 31.2116 112.204 31.8208C112.204 32.3523 112.32 32.8318 112.576 33.2595C112.819 33.6873 113.139 34.0632 113.549 34.3872C113.959 34.7112 114.42 34.9964 114.945 35.2297C115.47 35.463 116.008 35.6445 116.584 35.7871C117.019 35.8908 117.467 36.0074 117.916 36.1629C118.364 36.3185 118.774 36.5129 119.132 36.7592C119.491 37.0055 119.785 37.2906 120.016 37.6276C120.246 37.9646 120.362 38.3794 120.362 38.846C120.362 39.3645 120.233 39.8052 119.977 40.1681C119.721 40.531 119.401 40.8291 119.03 41.0495C118.659 41.2698 118.249 41.4383 117.813 41.542C117.391 41.6457 116.994 41.6975 116.661 41.6975C116.392 41.6975 116.085 41.6587 115.752 41.5809C115.419 41.5161 115.098 41.3994 114.779 41.2439C114.458 41.0883 114.164 40.9069 113.882 40.6606C113.6 40.4273 113.395 40.1551 113.254 39.8311C113.203 39.7533 113.165 39.6496 113.139 39.533C113.114 39.4293 113.075 39.3256 113.037 39.2219C112.998 39.1311 112.96 39.0404 112.909 38.9756C112.858 38.9108 112.806 38.8719 112.755 38.8719C112.742 38.8719 112.717 38.8719 112.666 38.8719C112.627 38.8719 112.601 38.8849 112.576 38.8849L112.127 39.0793C112.051 39.1182 111.974 39.1571 111.923 39.2089C111.871 39.2478 111.846 39.3256 111.846 39.4293C111.846 39.4552 111.846 39.4941 111.859 39.533C111.871 39.5719 111.884 39.6107 111.897 39.6496C112.025 40.194 112.243 40.6736 112.55 41.0883C112.858 41.5031 113.216 41.8531 113.639 42.1382C114.061 42.4234 114.535 42.6437 115.047 42.7863C115.559 42.9289 116.11 43.0067 116.673 43.0067C117.352 43.0067 117.993 42.9159 118.594 42.7215C119.209 42.5271 119.747 42.2549 120.221 41.9049C120.694 41.542 121.066 41.1143 121.335 40.5958C121.604 40.0773 121.745 39.4811 121.745 38.8201C121.693 38.2368 121.591 37.7184 121.36 37.2647Z" fill="#016DFF"/>
<path d="M133.537 37.2647C133.32 36.7981 132.999 36.3963 132.602 36.0463C132.193 35.6963 131.706 35.3853 131.142 35.126C130.566 34.8668 129.939 34.6594 129.247 34.4909C129.235 34.4909 129.222 34.4909 129.209 34.4779C129.196 34.4779 129.158 34.465 129.094 34.452C128.773 34.3742 128.415 34.2576 128.031 34.115C127.647 33.9724 127.275 33.791 126.942 33.5706C126.609 33.3503 126.315 33.0911 126.097 32.793C125.867 32.4948 125.751 32.1449 125.751 31.756C125.751 31.3153 125.841 30.9135 126.007 30.5895C126.174 30.2525 126.417 29.9803 126.699 29.7599C126.994 29.5396 127.327 29.3841 127.711 29.2674C128.082 29.1637 128.479 29.1119 128.889 29.1119C129.644 29.1119 130.284 29.2804 130.823 29.6174C131.36 29.9543 131.783 30.3821 132.103 30.8876C132.154 30.9783 132.205 31.069 132.231 31.1468C132.257 31.2246 132.295 31.3023 132.334 31.3542C132.372 31.406 132.41 31.445 132.449 31.4838C132.5 31.5097 132.564 31.5357 132.641 31.5357C132.679 31.5357 132.756 31.5227 132.833 31.4838C132.91 31.4579 132.999 31.406 133.076 31.3542C133.166 31.3023 133.23 31.2376 133.294 31.1727C133.358 31.1079 133.384 31.0431 133.384 30.9783C133.384 30.9265 133.358 30.8746 133.32 30.8098L133.333 30.8228C133.153 30.3691 132.923 29.9543 132.654 29.5785C132.372 29.2026 132.052 28.8915 131.68 28.6323C131.309 28.373 130.886 28.1657 130.425 28.0231C129.965 27.8805 129.452 27.8027 128.902 27.8027C128.223 27.8027 127.608 27.8935 127.045 28.0879C126.482 28.2823 126.007 28.5545 125.624 28.9045C125.227 29.2544 124.919 29.6822 124.701 30.1617C124.484 30.6543 124.381 31.2116 124.381 31.8208C124.381 32.3523 124.496 32.8318 124.752 33.2595C124.996 33.6873 125.316 34.0632 125.726 34.3872C126.136 34.7112 126.597 34.9964 127.122 35.2297C127.647 35.463 128.185 35.6445 128.761 35.7871C129.209 35.8908 129.644 36.0074 130.093 36.1629C130.541 36.3185 130.938 36.5129 131.296 36.7592C131.655 37.0055 131.949 37.2906 132.18 37.6276C132.41 37.9646 132.526 38.3794 132.526 38.846C132.526 39.3645 132.397 39.8052 132.141 40.1681C131.885 40.531 131.565 40.8291 131.181 41.0495C130.81 41.2698 130.4 41.4383 129.977 41.542C129.555 41.6457 129.158 41.6975 128.825 41.6975C128.556 41.6975 128.249 41.6587 127.915 41.5809C127.583 41.5161 127.262 41.3994 126.942 41.2439C126.622 41.0883 126.328 40.9069 126.046 40.6606C125.777 40.4273 125.559 40.1551 125.419 39.8311C125.367 39.7533 125.329 39.6496 125.303 39.533C125.265 39.4293 125.239 39.3256 125.201 39.2219C125.162 39.1311 125.124 39.0404 125.073 38.9756C125.022 38.9108 124.97 38.8719 124.919 38.8719C124.906 38.8719 124.868 38.8719 124.829 38.8719C124.791 38.8719 124.765 38.8849 124.74 38.8849L124.291 39.0793C124.215 39.1182 124.138 39.1571 124.087 39.2089C124.035 39.2478 124.01 39.3256 124.01 39.4293C124.01 39.4552 124.01 39.4941 124.023 39.533C124.035 39.5719 124.048 39.6107 124.061 39.6496C124.189 40.194 124.407 40.6736 124.714 41.0883C125.022 41.5031 125.38 41.8531 125.802 42.1382C126.225 42.4234 126.699 42.6437 127.211 42.7863C127.723 42.9289 128.274 43.0067 128.838 43.0067C129.504 43.0067 130.144 42.9159 130.759 42.7215C131.373 42.5271 131.911 42.2549 132.385 41.9049C132.846 41.542 133.23 41.1143 133.499 40.5958C133.781 40.0773 133.908 39.4811 133.908 38.8201C133.87 38.2368 133.755 37.7184 133.537 37.2647Z" fill="#016DFF"/>
<path d="M150.748 28.0881H150.159C149.916 28.0881 149.801 28.2048 149.801 28.464V31.3026C149.481 30.7712 149.109 30.2916 148.674 29.8638C148.238 29.4361 147.752 29.0603 147.227 28.7621C146.702 28.451 146.138 28.2177 145.55 28.0622C144.948 27.9067 144.346 27.8159 143.718 27.8159C143.04 27.8159 142.374 27.9067 141.733 28.0881C141.093 28.2696 140.504 28.5288 139.94 28.8658C139.39 29.2028 138.877 29.5917 138.416 30.0583C137.956 30.5249 137.571 31.0304 137.239 31.6007C136.905 32.1581 136.649 32.7673 136.47 33.4024C136.291 34.0504 136.201 34.7115 136.201 35.4114C136.201 36.0984 136.291 36.7724 136.47 37.4205C136.649 38.0685 136.905 38.6648 137.226 39.2351C137.559 39.7924 137.943 40.3109 138.404 40.7645C138.865 41.2312 139.377 41.62 139.928 41.957C140.478 42.294 141.08 42.5532 141.721 42.7347C142.348 42.9162 143.014 43.0069 143.705 43.0069C144.346 43.0069 144.96 42.9291 145.562 42.7606C146.151 42.6051 146.715 42.3718 147.24 42.0737C147.765 41.7756 148.238 41.4126 148.661 40.9849C149.096 40.5572 149.455 40.0776 149.762 39.5461L149.801 40.4276V42.3199C149.801 42.5921 149.954 42.7347 150.249 42.7347H150.71C150.825 42.7347 150.928 42.7088 151.004 42.644C151.082 42.5792 151.133 42.4884 151.133 42.3588V28.451C151.145 28.2048 151.017 28.0881 150.748 28.0881ZM149.378 37.8352C149.045 38.6 148.597 39.274 148.034 39.8443C147.47 40.4146 146.817 40.8682 146.049 41.2052C145.293 41.5423 144.487 41.7107 143.641 41.7107C142.796 41.7107 142.015 41.5423 141.285 41.2052C140.555 40.8682 139.915 40.4016 139.364 39.8183C138.814 39.2351 138.378 38.5611 138.071 37.7963C137.763 37.0316 137.597 36.228 137.597 35.3855C137.597 34.543 137.763 33.7523 138.084 33.0006C138.416 32.2488 138.852 31.5877 139.415 31.0045C139.966 30.4342 140.619 29.9675 141.349 29.6305C142.079 29.2935 142.86 29.125 143.667 29.125H143.705C144.525 29.138 145.306 29.3065 146.062 29.6435C146.804 29.9805 147.458 30.4342 148.021 31.0175C148.584 31.5877 149.033 32.2618 149.366 33.0135C149.698 33.7782 149.865 34.5689 149.865 35.4114C149.878 36.2669 149.711 37.0834 149.378 37.8352Z" fill="#016DFF"/>
<path d="M165.565 28.0359H164.937C164.72 28.0359 164.579 28.1526 164.489 28.3729C164.259 28.9303 164.015 29.5524 163.746 30.2134C163.477 30.8745 163.209 31.5744 162.927 32.2873C162.645 33.0002 162.363 33.726 162.069 34.4519C161.774 35.1777 161.493 35.9036 161.211 36.6035C160.929 37.3034 160.66 37.9775 160.404 38.6126C160.148 39.2477 159.905 39.831 159.7 40.3494C159.495 39.8569 159.264 39.3125 159.021 38.7033C158.778 38.0941 158.522 37.459 158.253 36.7979C157.984 36.1369 157.715 35.4499 157.433 34.75C157.152 34.0501 156.87 33.3631 156.601 32.6891C156.332 32.0151 156.063 31.3541 155.82 30.7319C155.576 30.0968 155.333 29.5135 155.128 28.9951L154.859 28.3211C154.808 28.1915 154.706 28.1137 154.578 28.0748C154.437 28.0489 154.296 28.0229 154.142 28.0229C153.899 28.0229 153.707 28.0489 153.579 28.0748C153.451 28.1007 153.387 28.2044 153.387 28.3729C153.387 28.5025 153.399 28.5803 153.438 28.6192L158.957 42.0992L157.203 46.571C157.19 46.5839 157.19 46.6098 157.177 46.6488C157.165 46.6876 157.165 46.7265 157.165 46.7654C157.165 46.9209 157.216 47.0246 157.318 47.0765C157.421 47.1283 157.6 47.1413 157.83 47.1413C157.984 47.1413 158.15 47.1153 158.291 47.0894C158.445 47.0506 158.547 46.9598 158.611 46.8043L165.962 28.6192C165.962 28.6062 165.975 28.5673 165.987 28.5285C166 28.4766 166.013 28.4377 166.013 28.3988C166 28.1655 165.859 28.0359 165.565 28.0359Z" fill="#016DFF"/>
<path d="M48.5449 29.7603C48.5449 29.8251 48.4808 29.9418 48.3529 30.0844C48.2247 30.227 48.0839 30.3695 47.9304 30.4992C47.8919 30.538 47.8533 30.5639 47.8022 30.5639C47.751 30.5639 47.6869 30.551 47.6102 30.5121C47.5461 30.4862 47.4438 30.4214 47.3285 30.3436C47.1747 30.227 46.9827 30.1103 46.7652 29.9937C46.5472 29.877 46.3167 29.7603 46.0862 29.6566C45.8431 29.5529 45.5995 29.4622 45.3564 29.3974C45.1129 29.3326 44.8698 29.2937 44.6263 29.2937C44.0374 29.2937 43.4866 29.3974 42.9744 29.6048C42.4496 29.8122 42.0011 30.1103 41.6172 30.4862C41.2328 30.8621 40.9256 31.3287 40.695 31.886C40.4646 32.4434 40.3622 33.0526 40.3622 33.7266V42.359C40.3622 42.5923 40.2469 42.7219 39.9908 42.7219H39.3505C39.12 42.709 39.0176 42.5923 39.0176 42.359V28.5938C39.056 28.4123 39.1584 28.2698 39.2993 28.1661C39.4145 28.1013 39.5426 28.0494 39.6707 28.0494C39.8243 28.0494 39.9652 28.1013 40.0804 28.192C40.2341 28.3086 40.3366 28.4771 40.3494 28.6845V30.4732C40.3494 30.4732 40.3494 30.4602 40.3622 30.4602C40.5158 30.1621 40.7336 29.864 40.9897 29.5789C41.2458 29.2937 41.553 29.0215 41.8988 28.7882C42.2446 28.5549 42.6416 28.3605 43.0641 28.2179C43.4866 28.0753 43.9606 27.9976 44.4473 27.9976C44.8442 27.9976 45.2156 28.0235 45.5484 28.0753C45.8812 28.1272 46.2144 28.2049 46.5091 28.3216C46.8163 28.4253 47.1106 28.5679 47.3927 28.7364C47.6743 28.9049 47.956 29.0993 48.2377 29.3196C48.3144 29.3845 48.3915 29.4492 48.4426 29.5141C48.5194 29.5789 48.5449 29.6696 48.5449 29.7603Z" fill="#DFDFDF"/>
<path d="M94.4688 29.7603C94.4688 29.8251 94.4046 29.9418 94.2768 30.0844C94.1485 30.227 94.0077 30.3695 93.8543 30.4992C93.8157 30.538 93.7772 30.5639 93.726 30.5639C93.6749 30.5639 93.6107 30.551 93.534 30.5121C93.4699 30.4862 93.3676 30.4214 93.2524 30.3436C93.0985 30.227 92.9066 30.1103 92.689 29.9937C92.4711 29.877 92.2405 29.7603 92.01 29.6566C91.7669 29.5529 91.5234 29.4622 91.2803 29.3974C91.0367 29.3326 90.7936 29.2937 90.5501 29.2937C89.9612 29.2937 89.4104 29.3974 88.8982 29.6048C88.3734 29.8122 87.9249 30.1103 87.541 30.4862C87.1566 30.8621 86.8494 31.3287 86.6189 31.886C86.3883 32.4434 86.286 33.0526 86.286 33.7266V42.359C86.286 42.5923 86.1708 42.7219 85.9147 42.7219H85.2742C85.0437 42.709 84.9414 42.5923 84.9414 42.359V28.5938C84.98 28.4123 85.0822 28.2698 85.2231 28.1661C85.3383 28.1013 85.4666 28.0494 85.5945 28.0494C85.7483 28.0494 85.8891 28.1013 86.0044 28.192C86.1578 28.3086 86.2605 28.4771 86.2731 28.6845V30.4732C86.2731 30.4732 86.2731 30.4602 86.286 30.4602C86.4399 30.1621 86.6574 29.864 86.9135 29.5789C87.1696 29.2937 87.4769 29.0215 87.8227 28.7882C88.1685 28.5549 88.5654 28.3605 88.9879 28.2179C89.4104 28.0753 89.8845 27.9976 90.3711 27.9976C90.768 27.9976 91.1394 28.0235 91.4722 28.0753C91.8054 28.1272 92.1383 28.2049 92.4329 28.3216C92.7402 28.4253 93.0344 28.5679 93.3165 28.7364C93.5982 28.9049 93.8798 29.0993 94.1615 29.3196C94.2382 29.3845 94.3153 29.4492 94.3665 29.5141C94.4306 29.5789 94.4688 29.6696 94.4688 29.7603Z" fill="#DFDFDF"/>
<path d="M81.4578 28.6453V40.5052C81.4578 40.5181 81.4578 40.5311 81.4452 40.544C81.4452 40.557 81.4452 40.57 81.4452 40.5829C81.4192 41.4903 81.3169 42.2938 81.112 43.0067C80.92 43.7196 80.6509 44.3547 80.3181 44.8992C79.9853 45.4435 79.6009 45.9101 79.1528 46.299C78.7048 46.6878 78.2181 47.0119 77.6929 47.2582C77.1677 47.5044 76.6174 47.6859 76.041 47.8025C75.4647 47.9192 74.8884 47.971 74.2865 47.971C73.4545 47.971 72.7117 47.8803 72.0457 47.6859C71.3797 47.5044 70.7652 47.2322 70.1888 46.8952C70.1121 46.8564 70.0606 46.8174 70.0094 46.7656C69.9713 46.7138 69.9453 46.649 69.9453 46.5582C69.9453 46.4934 69.9453 46.4416 69.9583 46.4027C69.9583 46.3638 69.9839 46.3249 70.0094 46.2731C70.035 46.2212 70.0866 46.1564 70.1633 46.0527C70.2274 45.962 70.3297 45.8194 70.4449 45.6509C70.4835 45.5861 70.5346 45.5602 70.5988 45.5731C70.6625 45.5861 70.7266 45.5991 70.7778 45.625C70.8674 45.6898 71.0338 45.7805 71.2644 45.8972C71.5079 46.0138 71.7766 46.1305 72.0968 46.2342C72.4171 46.3379 72.7629 46.4286 73.1342 46.5193C73.5056 46.5971 73.877 46.636 74.2483 46.636C75.0808 46.636 75.8491 46.5064 76.5662 46.2472C77.283 45.9879 77.8979 45.6121 78.4227 45.1065C78.9479 44.601 79.3578 43.9918 79.665 43.253C79.8956 42.6827 80.0364 42.0346 80.0875 41.3347C80.1005 41.1273 80.1131 40.9199 80.1131 40.6996V39.4423C80.1005 39.4553 80.1005 39.4682 80.0875 39.4812V28.5676C80.1261 28.3861 80.2284 28.2435 80.3692 28.1398C80.4463 28.088 80.5356 28.0491 80.6253 28.0361H80.8688C80.9711 28.0621 81.0608 28.1009 81.1505 28.1657C81.3425 28.2694 81.4452 28.4509 81.4578 28.6453Z" fill="#DFDFDF"/>
<path d="M80.9052 28.0359H80.6621C80.7007 28.0229 80.7388 28.0229 80.7774 28.0229C80.8159 28.0229 80.8671 28.0359 80.9052 28.0359Z" fill="#DFDFDF"/>
<path d="M17.9286 42.6567L7.17188 53.5445V43.0715C7.17188 42.8512 7.35115 42.6567 7.58164 42.6567H17.9286Z" fill="#2292FF"/>
<path d="M17.9286 42.6567L7.17188 53.5445V43.0715C7.17188 42.8512 7.35115 42.6567 7.58164 42.6567H17.9286Z" fill="#003EFF"/>
<path d="M17.928 24.9255V42.6569H7.56814C7.35047 42.6569 7.15837 42.8384 7.15837 43.0717V53.5447H0.40978C0.192085 53.5447 0 53.3632 0 53.1299V24.9255C0 24.6922 0.17928 24.5107 0.40978 24.5107H17.5182C17.7359 24.5107 17.928 24.6922 17.928 24.9255Z" fill="#016DFF"/>
<path d="M10.6026 31.2379L9.43731 29.514C9.23242 29.2029 9.30925 28.7881 9.60379 28.5808C9.91112 28.3734 10.3209 28.4512 10.5258 28.7493L10.8972 29.3066L13.2662 27.4661C13.5607 27.2457 13.9705 27.2976 14.201 27.5827C14.4187 27.8808 14.3675 28.2956 14.0858 28.5289L10.6026 31.2379Z" fill="#DFDFDF"/>
<path d="M10.6026 35.6315L9.43731 33.9076C9.23242 33.5965 9.30925 33.1817 9.60379 32.9743C9.91112 32.767 10.3209 32.8447 10.5258 33.1428L10.8972 33.7002L13.2662 31.8596C13.5607 31.6393 13.9705 31.6911 14.201 31.9763C14.4187 32.2744 14.3675 32.6892 14.0858 32.9225L10.6026 35.6315Z" fill="#DFDFDF"/>
<path d="M10.6026 40.0255L9.43731 38.3016C9.23242 37.9905 9.30925 37.5758 9.60379 37.3684C9.91112 37.161 10.3209 37.2387 10.5258 37.5369L10.8972 38.0942L13.2662 36.2537C13.5607 36.0333 13.9705 36.0852 14.201 36.3703C14.4187 36.6684 14.3675 37.0832 14.0858 37.3165L10.6026 40.0255Z" fill="#DFDFDF"/>
</g>
<defs>
<clipPath id="clip0">
<path d="M0 0.713379H166V74.4267H0V0.713379Z" fill="white"/>
</clipPath>
</defs>
</svg>
