<svg width="581" height="949" viewBox="0 0 581 949" fill="none" xmlns="http://www.w3.org/2000/svg">
<path d="M222.723 730.501L222.723 730.498C221.2 718.863 223.167 708.636 225.995 698.7C226.926 695.429 227.944 692.208 228.963 688.982C231.058 682.351 233.158 675.702 234.524 668.568C236.541 658.037 236.919 646.569 233.153 632.974C229.548 619.963 222.135 604.956 208.648 586.931C209.264 609.6 206.442 627.452 201.23 642.612C195.778 658.469 187.73 671.331 178.352 683.644C173.233 690.364 167.731 696.909 162.036 703.684C146.826 721.779 130.239 741.512 115.898 770.589L115.898 770.589C107.775 787.037 103.208 801.347 99.4583 814.467C98.7298 817.015 98.0312 819.522 97.3426 821.994C94.4926 832.224 91.8131 841.841 87.8847 851.248C78.2231 874.382 61.0339 896.208 15.4217 923.812C87.7404 942.696 213.042 959.753 322.324 935.164C377.534 922.741 428.586 899.706 466.669 860.975C503.421 823.599 528.167 771.534 532.855 700.08C527.988 712.536 519.948 721.065 511.432 724.78C506.366 726.989 501.116 727.497 496.301 726.065C491.48 724.629 487.189 721.274 484.006 715.927C484.006 715.927 484.006 715.926 484.005 715.925L484.865 715.414C469.63 689.954 488.769 672.31 511.498 651.357C532.558 631.943 556.7 609.688 559.436 575.741L222.723 730.501ZM222.723 730.501C224.395 742.948 231.146 759.569 243.838 770.493C256.609 781.485 275.281 786.607 300.461 776.157C316.394 769.641 329.405 758.479 337.121 741.169C344.826 723.884 347.21 700.565 342.099 669.789C336.148 633.834 343.585 587.686 362.974 548.066L362.976 548.062C369.78 534.001 377.398 520.922 384.824 508.173C388.002 502.717 391.145 497.322 394.174 491.935C404.26 473.998 413.051 456.212 417.445 436.887C425.992 399.301 417.85 356.179 371.223 294.967M222.723 730.501L371.223 294.967M371.223 294.967C418.541 330.741 447.122 367.172 458.981 403.701C471.309 441.672 465.612 479.888 443.866 517.819L443.865 517.82C432.303 538.064 425.381 557.777 425.952 573.347C426.239 581.155 428.414 587.979 432.894 593.28C437.375 598.584 444.079 602.264 453.235 603.94C469.802 607.038 484.207 605.331 495.967 599.83C507.729 594.329 516.778 585.062 522.672 573.156C533.899 550.48 533.674 518.279 519.164 484.076L371.223 294.967ZM305.352 676.704C286.309 640.885 283.314 610.197 288.568 582.223C294.083 552.86 308.68 526.551 323.099 500.564L323.139 500.492C338.844 472.186 354.322 444.265 358.088 412.919C360.876 389.493 355.076 359.571 348.946 328.01L348.929 327.92C342.547 295.059 335.833 260.487 338.423 230.149C340.841 201.838 351.373 177.108 377.833 160.851C333.334 173.72 299.712 226.75 307.365 293.285C311.254 325.852 315.088 358.105 313.697 382.103C313.002 394.093 310.997 404.162 306.944 411.205C304.908 414.741 302.341 417.539 299.144 419.42C295.944 421.302 292.17 422.229 287.779 422.113C287.778 422.113 287.778 422.113 287.777 422.113L287.804 421.113L305.352 676.704ZM305.352 676.704C283.631 655.39 252.435 615.791 265.421 555.914C269.777 535.903 269.735 520.995 264.894 503.091C260.079 485.281 250.512 464.503 235.906 432.779L235.858 432.676C234.739 430.244 233.589 427.748 232.41 425.183C214.28 385.577 228.653 334.663 262.347 297.484C246.527 330.547 242.808 360.552 247.631 382.855L305.352 676.704ZM559.199 252.035C565.906 239.037 568.392 223.222 563.427 201.832C578.523 230.634 581.881 253.041 579.104 272.347C576.092 293.286 565.853 310.704 555.158 328.871L555.142 328.899C537.666 358.589 519.152 390.04 530.54 441.185C480.047 398.594 478.522 343.34 494.964 320.002C503.775 307.685 515.028 298.017 526.038 288.564L526.121 288.494C539.079 277.367 551.732 266.504 559.199 252.035Z" fill="black" stroke="#EC1C24" stroke-width="2"/>
<path d="M475.805 189.391L475.804 189.395C470.585 211.977 470.925 243.485 481.449 267.905C471.945 262.194 457.411 252.355 445.989 238.593C433.43 223.461 424.687 203.661 430.432 179.385C434.013 164.615 442.537 152.348 453.424 141.439C464.32 130.52 477.526 121.015 490.42 111.738L490.458 111.71C501.931 103.455 513.167 95.3704 522.166 86.6766C531.179 77.9696 538.037 68.5714 540.642 57.6567L540.644 57.6482C543.801 43.8916 545.891 23.2242 537.198 2.71046C540.066 4.8922 542.928 7.9893 545.632 11.7653C549.209 16.7592 552.466 22.8809 555.061 29.489C560.262 42.7358 562.74 57.7678 559.96 69.4557L559.959 69.4595C553.691 96.287 535.689 113.132 517.568 130.056L517.481 130.137C499.774 146.674 481.957 163.314 475.805 189.391Z" fill="#EC1C24" stroke="#EC1C24" stroke-width="2"/>
<path d="M115.207 537.895C109.213 559.576 125.107 600.18 173.804 618.805C151.884 583.464 157.35 554.941 162.485 528.141C163.011 525.395 163.534 522.666 164.023 519.95C166.714 505.022 168.399 490.514 164.323 475.337C160.677 461.763 152.395 447.555 135.892 432.023C141.724 441.403 144.658 449.922 145.52 457.899C146.587 467.776 144.466 476.726 140.887 485.331C137.976 492.329 134.077 499.15 130.128 506.058C129.236 507.617 128.342 509.181 127.456 510.753C122.629 519.316 118.019 528.146 115.207 537.895Z" fill="#EC1C24" stroke="#EC1C24" stroke-width="2"/>
<path d="M93.7402 910.717C372.56 950.496 485.765 829.964 478.578 761.772C470.192 681.617 422.874 705.245 412.991 614.921C390.829 685.805 428.264 710.33 434.853 742.332C442.041 777.026 430.66 793.476 405.504 790.186C386.636 787.793 376.154 750.706 407.001 726.181C332.13 724.686 380.347 812.916 266.243 813.813C228.808 814.112 180.89 771.941 197.661 720.199C162.023 749.809 144.054 787.195 136.567 819.197C128.48 856.882 114.704 891.576 93.7402 910.717Z" fill="#EC1C24"/>
</svg>
