<svg width="166" height="74" viewBox="0 0 166 74" fill="none" xmlns="http://www.w3.org/2000/svg">
<path d="M32.4529 15.231C34.2411 15.231 35.8464 15.5164 37.2689 16.0873C38.6913 16.6583 39.9877 17.531 41.1582 18.7055L40.573 19.831C40.4267 20.1083 40.2153 20.247 39.939 20.247C39.7276 20.247 39.4554 20.0961 39.1221 19.7943C38.7888 19.4925 38.3377 19.1581 37.7687 18.7911C37.1998 18.4241 36.4886 18.0856 35.6351 17.7757C34.7816 17.4657 33.729 17.3108 32.4773 17.3108C31.2255 17.3108 30.1241 17.4902 29.1731 17.8491C28.2221 18.2079 27.4256 18.6973 26.7834 19.3172C26.1413 19.937 25.6536 20.6548 25.3204 21.4704C24.9871 22.286 24.8205 23.1424 24.8205 24.0395C24.8205 25.214 25.0684 26.1846 25.5642 26.9513C26.06 27.7179 26.7143 28.3704 27.5272 28.9087C28.34 29.447 29.2625 29.8997 30.2948 30.2667C31.3271 30.6337 32.3878 30.9967 33.477 31.3556C34.5662 31.7144 35.6269 32.11 36.6592 32.5423C37.6915 32.9745 38.6141 33.5169 39.4269 34.1694C40.2397 34.8219 40.894 35.6253 41.3899 36.5795C41.8857 37.5338 42.1336 38.7205 42.1336 40.1397C42.1336 41.5914 41.8857 42.9576 41.3899 44.2381C40.894 45.5186 40.1747 46.6319 39.2318 47.578C38.2889 48.5241 37.1347 49.2704 35.7692 49.8169C34.4036 50.3633 32.843 50.6366 31.0873 50.6366C28.8114 50.6366 26.8525 50.2328 25.2106 49.4254C23.5687 48.6179 22.13 47.5128 20.8945 46.1099L21.5773 45.0333C21.7724 44.7886 22 44.6663 22.2601 44.6663C22.4064 44.6663 22.5933 44.7642 22.8209 44.9599C23.0485 45.1557 23.3249 45.3963 23.65 45.6817C23.9751 45.9672 24.3653 46.2771 24.8205 46.6115C25.2757 46.9459 25.804 47.2558 26.4055 47.5413C27.007 47.8268 27.6979 48.0674 28.4782 48.2631C29.2585 48.4589 30.1445 48.5567 31.1361 48.5567C32.5017 48.5567 33.7209 48.3488 34.7938 47.9328C35.8667 47.5168 36.773 46.95 37.5127 46.2323C38.2524 45.5145 38.8173 44.6622 39.2074 43.6753C39.5976 42.6884 39.7927 41.6322 39.7927 40.5067C39.7927 39.2833 39.5448 38.276 39.0489 37.4849C38.5531 36.6937 37.8988 36.0331 37.086 35.5029C36.2731 34.9728 35.3506 34.5283 34.3183 34.1694C33.286 33.8105 32.2253 33.4598 31.1361 33.1173C30.0469 32.7747 28.9862 32.3914 27.9539 31.9673C26.9216 31.5431 25.9991 31.0008 25.1862 30.3401C24.3734 29.6795 23.7191 28.8557 23.2233 27.8688C22.7274 26.8819 22.4795 25.6463 22.4795 24.1619C22.4795 23.0037 22.699 21.8863 23.1379 20.8097C23.5769 19.7331 24.219 18.7829 25.0643 17.9592C25.9097 17.1354 26.9541 16.4748 28.1977 15.9772C29.4414 15.4797 30.8597 15.231 32.4529 15.231ZM91.0424 15.336C92.9632 15.336 94.7159 15.6411 96.3005 16.2515C97.8852 16.8618 99.2697 17.7452 100.454 18.9016L99.3257 21.118C99.1817 21.3589 99.0296 21.5396 98.8695 21.6601C98.7095 21.7806 98.5014 21.8408 98.2453 21.8408C97.9732 21.8408 97.6571 21.7043 97.2969 21.4312C96.9368 21.1582 96.4806 20.857 95.9284 20.5278C95.3762 20.1985 94.7119 19.8974 93.9356 19.6243C93.1593 19.3513 92.2189 19.2148 91.1145 19.2148C90.074 19.2148 89.1537 19.3553 88.3534 19.6364C87.553 19.9174 86.8848 20.2989 86.3486 20.7807C85.8124 21.2626 85.4082 21.8287 85.1361 22.4792C84.864 23.1297 84.7279 23.8324 84.7279 24.5872C84.7279 25.5509 84.964 26.35 85.4362 26.9844C85.9084 27.6188 86.5326 28.1609 87.309 28.6106C88.0853 29.0603 88.9656 29.4498 89.95 29.779C90.9344 30.1083 91.9428 30.4496 92.9752 30.8029C94.0076 31.1563 95.016 31.5538 96.0004 31.9955C96.9848 32.4372 97.8652 32.9953 98.6415 33.6699C99.4178 34.3444 100.042 35.1716 100.514 36.1513C100.986 37.1311 101.222 38.3356 101.222 39.7651C101.222 41.2749 100.966 42.6923 100.454 44.0173C99.942 45.3424 99.1937 46.4948 98.2093 47.4745C97.2249 48.4542 96.0164 49.2252 94.5838 49.7873C93.1513 50.3495 91.5226 50.6305 89.6979 50.6305C87.473 50.6305 85.4442 50.225 83.6115 49.4139C81.7787 48.6028 80.2141 47.5066 78.9176 46.1254L80.2621 43.9089C80.3902 43.7322 80.5463 43.5837 80.7303 43.4632C80.9144 43.3427 81.1185 43.2825 81.3426 43.2825C81.6787 43.2825 82.0629 43.4632 82.495 43.8246C82.9272 44.186 83.4674 44.5835 84.1157 45.0171C84.7639 45.4508 85.5482 45.8483 86.4686 46.2097C87.389 46.5711 88.5134 46.7517 89.842 46.7517C90.9464 46.7517 91.9308 46.5992 92.7951 46.294C93.6595 45.9888 94.3918 45.5592 94.992 45.0051C95.5922 44.451 96.0524 43.7884 96.3726 43.0175C96.6927 42.2466 96.8527 41.3873 96.8527 40.4397C96.8527 39.3957 96.6167 38.5404 96.1445 37.8739C95.6723 37.2074 95.052 36.6492 94.2837 36.1995C93.5154 35.7498 92.6391 35.3683 91.6547 35.0552C90.6703 34.742 89.6619 34.4207 88.6295 34.0915C87.5971 33.7622 86.5887 33.3808 85.6043 32.9471C84.6199 32.5135 83.7435 31.9513 82.9752 31.2607C82.2069 30.5701 81.5867 29.7068 81.1145 28.6708C80.6423 27.6349 80.4062 26.354 80.4062 24.8282C80.4062 23.6075 80.6423 22.427 81.1145 21.2867C81.5867 20.1463 82.2709 19.1345 83.1673 18.2511C84.0637 17.3677 85.1721 16.661 86.4926 16.131C87.8132 15.601 89.3298 15.336 91.0424 15.336ZM70.9144 47.4845V50.496H50.9065V47.4845H70.9144ZM126.437 15.231C136.105 15.231 143.943 23.096 143.943 32.7979C143.943 42.4999 136.105 50.3649 126.437 50.3649C116.768 50.3649 108.93 42.4999 108.93 32.7979C108.93 23.096 116.768 15.231 126.437 15.231ZM126.456 19.7576C119.274 19.7576 113.451 25.6002 113.451 32.8073C113.451 40.0145 119.274 45.8571 126.456 45.8571C133.639 45.8571 139.462 40.0145 139.462 32.8073C139.462 25.6002 133.639 19.7576 126.456 19.7576ZM70.9144 31.6743V34.6857H50.9065V31.6743H70.9144ZM70.9144 15.3621V18.3736H50.9065V15.3621H70.9144Z" fill="#DFDFDF"/>
</svg>
