<svg width="166" height="74" viewBox="0 0 166 74" fill="none" xmlns="http://www.w3.org/2000/svg">
<g clip-path="url(#clip0)">
<path d="M28.5375 13.3496C30.5461 13.5659 32.563 13.7275 34.5605 14.0205C35.6838 14.1848 36.677 14.7503 37.4683 15.5937C38.1973 16.3742 38.3882 17.5763 37.9331 18.3485C37.5679 18.9688 37.0284 19.1742 36.3284 19.1153C35.6519 19.0592 35.4154 18.6196 35.1788 18.0692C35.0474 17.768 34.6878 17.4175 34.382 17.3641C33.0181 17.1217 31.6361 16.8315 30.2597 16.8233C24.2228 16.7877 18.2717 17.449 12.5226 19.3864C10.0602 20.2161 7.72379 21.3293 5.7719 23.0777C4.14787 24.5346 3.00524 26.2789 3.49217 28.5723C3.65264 29.3295 4.24885 29.9935 4.6265 30.7096C4.87965 31.1861 5.30434 31.6832 5.29465 32.1623C5.26422 33.4179 3.96112 33.9328 2.79082 33.2604C1.06857 32.2732 0.34924 30.6946 0.0933243 28.8366C-0.432342 24.9987 1.30512 22.1919 4.23502 19.9436C7.54534 17.4065 11.4007 16.0455 15.3806 15.0187C19.6827 13.911 24.079 13.5084 28.5361 13.3496" fill="#56448E"/>
<path d="M7.92383 48.4441C8.14516 47.6528 8.3914 46.5136 8.78565 45.4265C11.1249 38.9789 13.7477 32.6519 17.2115 26.7055C18.6405 24.2533 20.1027 21.8051 22.1334 19.7732C22.5304 19.3762 23.081 19.1051 23.6039 18.8668C24.1628 18.6108 24.8046 18.7094 25.1214 19.2146C25.3884 19.6391 25.4838 20.236 25.4645 20.7481C25.452 21.0863 25.156 21.4615 24.8959 21.7326C22.2316 24.4983 20.3434 27.7748 18.6018 31.1458C15.6691 36.817 13.2262 42.6868 11.414 48.8084C11.3586 48.9933 11.3075 49.1809 11.2411 49.3616C10.862 50.3926 10.2202 50.8485 9.35558 50.7102C8.48823 50.5705 7.9349 49.8298 7.92383 48.4441ZM52.777 33.9814C52.6732 34.4284 52.5006 34.8568 52.2652 35.252C50.3977 38.2752 48.3891 41.1957 45.8825 43.7424C45.4719 44.1571 44.997 44.5041 44.4756 44.7706C43.1367 45.4525 42.2236 44.8418 42.2651 43.196C42.4546 40.789 43.5502 38.5983 45.0456 36.5774C46.3943 34.7564 48.0612 33.3433 50.2815 32.671C50.673 32.552 51.0838 32.4507 51.4919 32.4314C52.575 32.3766 53.0343 32.9285 52.777 33.9814ZM28.855 36.8266C29.8925 35.1904 31.1929 33.7938 32.8639 32.7778C33.2928 32.5177 33.7769 32.3191 34.264 32.1959C34.5253 32.1289 34.9735 32.1878 35.1008 32.3616C35.2363 32.5492 35.2059 33.0147 35.0551 33.2202C34.488 34.0005 33.9346 34.8289 33.2056 35.4382C32.2317 36.2542 31.1209 36.9183 30.0226 37.5715C29.6421 37.7987 29.1262 37.8001 28.6724 37.9041L28.5203 37.7152C28.6282 37.4167 28.6863 37.0881 28.855 36.8251V36.8266ZM84.714 26.1838C85.6187 24.2423 86.6189 22.3583 87.8072 20.592C88.2832 19.8837 88.7918 19.1974 89.3316 18.5355C89.6027 18.2028 89.8835 17.8783 90.174 17.5579C90.2128 17.5141 90.2515 17.4662 90.2916 17.4155C90.5711 17.0636 90.8782 16.6036 91.372 16.9075C91.4218 16.9377 91.4536 17.0171 91.4702 17.1225C91.52 17.4237 91.451 17.9413 91.3042 18.2083C90.6209 19.4405 89.932 20.6783 89.1782 21.8709C88.9263 22.2679 88.6676 22.6595 88.3992 23.0443C88.1822 23.3564 87.9524 23.6604 87.7117 23.9575C86.9938 24.8475 86.1956 25.6854 85.4389 26.548C85.3336 26.6625 85.2147 26.7641 85.0848 26.8506C84.9547 26.9424 84.8192 27.0286 84.6933 27.1245C84.6333 27.078 84.5733 27.0315 84.5135 26.9848C84.5785 26.7164 84.5992 26.4289 84.7126 26.1838H84.714ZM100.705 37.3715C100.726 37.2595 100.764 37.1513 100.819 37.0511C101.104 36.5746 101.411 36.12 101.743 35.6887C102.398 34.8286 103.168 34.0604 104.032 33.405C104.473 33.0732 104.937 32.774 105.421 32.5096C105.5 32.4671 105.589 32.4383 105.672 32.4028C105.923 32.296 106.188 32.2109 106.453 32.1699C106.655 32.1403 106.862 32.1613 107.054 32.2316C107.106 32.2562 107.148 32.2863 107.173 32.3232C107.3 32.5246 107.304 32.9011 107.2 33.1297C107.011 33.5406 106.73 33.9197 106.437 34.2689C106.291 34.4429 106.142 34.6112 105.99 34.7783C105.533 35.2766 105.049 35.7395 104.526 36.1543C103.825 36.7175 103.048 37.1798 102.216 37.5276C102.103 37.5746 101.988 37.6157 101.87 37.6509C101.52 37.7577 101.151 37.8247 100.795 37.9205C100.705 37.9343 100.616 37.911 100.632 37.7152C100.663 37.5345 100.681 37.4866 100.704 37.3715H100.705ZM129.365 42.0939C129.587 40.2769 130.155 39.3048 130.078 37.4153C130.061 37.0278 131.871 35.3438 131.859 34.9645C131.763 35.2438 130.288 36.0105 130.158 36.2747C128.953 38.6955 125.864 41.6694 123.739 43.4084C123.144 43.8957 122.467 44.3119 121.767 44.631C121.457 44.772 120.841 44.7336 120.648 44.5214C120.415 44.2682 120.374 43.719 120.45 43.3385C120.551 42.8277 120.782 42.3171 121.067 41.8734C122.077 40.3029 123.15 38.7708 124.171 37.2058C125.412 35.3027 125.164 33.7568 123.36 32.3904C122.569 31.7906 121.693 31.2964 120.843 30.7747C120.256 30.4161 119.982 29.9779 120.183 29.2618C120.363 28.6601 120.474 28.04 120.512 27.4134C120.574 25.884 119.567 25.1953 118.112 25.7183C116.504 26.2934 115.502 28.1691 115.955 29.8354C116.192 30.7008 116.261 31.5072 115.843 32.3575C114.183 35.7326 112.26 38.905 109.431 41.4832C107.949 42.8346 106.341 43.9272 104.442 44.5708C103.067 45.0363 101.656 45.3512 100.206 44.9459C99.1851 44.6625 98.6262 43.8327 98.6345 42.7511C98.6402 41.8748 99.026 41.4777 100.207 41.1395C100.394 41.0837 100.583 41.0334 100.773 40.989C102.902 40.5151 104.811 39.5992 106.539 38.2738C108.238 36.9731 109.663 35.4875 110.288 33.3885C110.997 31.0157 109.467 29.0208 106.979 29.0344C105.659 29.0413 104.496 29.5069 103.403 30.171C100.498 31.9386 98.6013 34.5728 96.9455 37.4564C96.1931 38.7528 95.2768 39.9491 94.2189 41.0164C93.3848 41.8598 92.3044 42.5018 91.2449 43.0742C90.4908 43.4835 89.8296 42.9674 89.9804 42.1226C90.1132 41.375 90.4135 40.6398 90.7357 39.9429C91.408 38.4943 92.1647 37.0826 92.8453 35.6367C93.3557 34.5497 93.6255 33.3995 93.5176 32.1809C93.3626 30.4146 92.0623 29.2728 90.2847 29.3262C88.7492 29.3713 87.4601 30.0189 86.28 30.9186C84.3642 32.3835 82.8313 34.2074 81.3928 36.12C81.2197 36.3514 81.011 36.7403 80.7328 36.7061C80.4893 36.5514 80.5794 36.2885 80.6152 36.1557C81.2337 33.917 82.2365 32.0097 84.2257 30.5434C87.8182 27.894 90.8906 24.7051 93.0846 20.7714C93.8274 19.4378 94.3282 18.0357 94.2744 16.4831C94.2051 14.4252 92.5148 13.2737 90.5669 13.9638C89.3302 14.4019 88.3743 15.2316 87.5568 16.2079C84.9284 19.3474 82.9918 22.8895 81.4618 26.663C80.8421 28.191 80.2832 29.7424 78.9028 30.8199C78.4655 31.1622 78.3327 31.6743 78.4503 32.2686C78.5264 32.656 78.4781 33.0901 78.388 33.4817C77.9537 35.3519 76.8664 36.8635 75.6601 38.3136C73.9724 40.3399 72.235 42.3061 69.9124 43.6602C68.334 44.5803 66.6947 45.3005 64.8148 45.2321C63.1271 45.1691 62.12 44.2079 62.1311 42.6005C62.1476 41.8744 62.2601 41.1535 62.4659 40.4563C63.0787 38.2683 64.2697 36.3898 65.7693 34.6947C66.8621 33.4584 68.114 32.4109 69.7311 31.9344C70.1129 31.8221 70.7119 31.896 70.9803 32.137C71.1601 32.2986 71.0453 32.9723 70.8558 33.3008C70.5072 33.9034 70.0092 34.4209 69.5693 34.9714C68.9689 35.7244 68.933 36.5254 69.4835 37.0757C70.0576 37.6509 71.102 37.6988 71.7273 37.0087C72.4715 36.1912 73.2379 35.3204 73.693 34.3361C74.938 31.6483 73.444 29.2043 70.4781 28.9002C68.8818 28.736 67.5344 29.422 66.2493 30.238C63.3235 32.0988 61.5045 34.8398 60.0049 37.8699C59.4077 39.0838 58.6831 40.232 57.8428 41.2956C57.2715 42.0131 56.4664 42.6019 55.6585 43.066C54.6583 43.6411 53.9196 43.2029 53.8809 42.0472C53.8559 41.1525 53.9324 40.258 54.1092 39.3801C54.5546 37.1031 55.5866 35.0384 56.5853 32.9627C56.8578 32.4014 57.1068 31.803 57.2106 31.1951C57.4458 29.8259 56.6434 29.2098 55.2919 29.5657C54.7323 29.7058 54.1519 29.7456 53.578 29.6835C52.1116 29.5315 50.6591 29.411 49.2301 29.9012C46.1785 30.9472 43.8282 32.9079 42.1018 35.5574C40.7143 37.6878 39.2286 39.7019 37.3682 41.4558C35.9059 42.8319 34.2874 43.9107 32.3881 44.557C30.9881 45.0349 29.555 45.3594 28.0817 44.9377C27.0788 44.6501 26.5213 43.7876 26.5462 42.7142C26.5642 41.8708 26.9516 41.475 28.0859 41.1492C28.2726 41.0944 28.4594 41.041 28.6503 40.9985C30.7779 40.5271 32.7714 39.5889 34.4838 38.2533C36.1549 36.9648 37.5617 35.493 38.1911 33.4228C38.797 31.4264 37.8246 29.4768 35.8685 29.1591C34.903 29.0017 33.7963 29.1345 32.8639 29.4521C30.5053 30.2571 28.7416 31.9248 27.2421 33.8472C25.3746 36.2432 23.828 38.8119 23.4171 41.8913C22.9413 45.4648 25.2668 48.0841 28.909 48.1635C32.2388 48.236 35.0897 46.9832 37.7346 45.1239C38.2437 44.7679 38.7265 44.375 39.2881 43.9464C39.3047 44.2709 39.3104 44.4859 39.3255 44.6995C39.4472 46.3205 40.3104 47.5337 41.6924 47.9663C42.7733 48.3157 43.9464 48.2586 44.9875 47.8061C46.8231 47.0216 48.2646 45.7332 49.5428 44.2298C50.5139 43.0892 50.59 43.118 51.3411 44.3695C52.4893 46.2836 54.105 46.9353 56.1883 46.1084C57.2756 45.6757 58.2384 44.9336 59.2662 44.3257C59.269 44.3324 59.3271 44.4339 59.3672 44.5393C60.3355 47.1189 62.3524 48.1676 64.9794 48.3265C67.6409 48.4853 69.8626 47.342 71.9818 45.9496C72.8519 45.3772 73.6557 44.705 74.5728 44.0148C74.4442 44.4392 74.3307 44.7775 74.2422 45.1198C74.1454 45.495 74.0361 45.8728 74.0001 46.2548C73.9351 46.9189 73.9145 47.5966 74.7042 47.9089C75.3599 48.1676 75.887 47.9499 76.4237 47.1777C76.9369 46.4397 77.4197 45.6812 77.9219 44.9363C80.5073 41.0998 83.209 37.3524 86.6479 34.2019C87.2552 33.646 87.9415 33.164 88.6247 32.7149C90.1865 31.6879 90.2792 33.1599 90.0316 33.9635C90.0177 34.006 89.9928 34.0512 89.9707 34.0951C89.3136 35.4465 88.6538 36.7965 87.9981 38.1492C87.2692 39.6512 86.7712 41.2135 86.8942 42.9044C87.0436 44.9527 88.9 46.5164 90.8339 46.2178C91.4066 46.1289 92.0002 45.992 92.5119 45.736C93.5494 45.2211 94.5371 44.6091 95.4141 44.1107C95.9301 44.9322 96.341 45.9276 97.0437 46.6437C98.6207 48.2512 100.703 48.3566 102.787 48.0717C106.68 47.5363 109.824 45.5606 112.493 42.8003C114.764 40.4536 116.38 37.659 117.805 34.7481C118.752 32.8093 119.01 32.7518 120.852 33.9349C121.851 34.5769 121.945 35.1302 121.28 36.0954C120.397 37.3729 119.481 38.6366 118.701 39.9744C118.148 40.9134 117.713 41.9157 117.405 42.9592C116.586 45.8126 118.409 47.9649 121.374 47.7199C122.68 47.6131 123.836 47.0449 124.816 46.2385C126.123 45.1622 127.328 43.9629 128.556 42.836C129.317 42.0939 129.363 42.0829 129.365 42.0939Z" fill="#56448E"/>
<path d="M149.708 52.2643C147.769 55.9475 145.59 59.465 142.418 62.2622C141.468 63.1001 140.384 63.6725 139.07 63.693C137.789 63.7123 136.991 62.8427 137.376 61.6297C137.661 60.7329 138.17 59.8757 138.722 59.1007C140.058 57.2291 141.983 55.99 143.832 54.6851C145.42 53.5637 147.039 52.4848 148.665 51.4168C149.025 51.18 149.698 50.9171 149.875 50.8938C150.052 50.8705 150.089 50.976 150.079 51.1183C149.957 51.5017 149.892 51.9124 149.708 52.2643ZM132.559 33.6227C134.32 28.4376 136.521 23.4688 139.943 19.1175C140.483 18.4329 141.063 17.7743 141.669 17.1459C141.821 16.9884 142.173 16.9022 142.384 16.9597C142.543 17.0021 142.838 17.2554 142.807 17.6525C142.446 18.7533 142.143 19.9254 141.681 21.0317C139.882 25.3172 137.291 29.1209 134.327 32.6877C133.97 33.1175 133.66 33.5912 133.277 33.9952C133.105 34.176 132.523 34.6456 131.983 35.3028C131.979 35.059 132.485 33.8405 132.559 33.6227ZM162.668 36.1298C162.609 36.2352 162.557 36.346 162.497 36.4502C161.038 38.9449 159.257 41.1807 157.061 43.0771C156.761 43.3372 156.39 43.5124 155.882 43.8328C155.858 43.3386 155.789 43.0306 155.84 42.7431C155.944 42.1502 156.113 41.5655 156.253 40.9767C156.849 38.5081 157.462 36.0435 158.029 33.5681C158.224 32.7149 157.821 31.9249 157.178 31.6648C156.487 31.3842 155.668 31.6991 155.179 32.4727C154.92 32.882 154.686 33.3092 154.488 33.7502C152.924 37.2375 150.833 40.3838 148.152 43.1154C147.379 43.8986 146.409 44.5202 145.452 45.0884C144.588 45.6033 143.825 45.1966 143.705 44.2025C143.626 43.5658 143.623 42.8799 143.774 42.2611C144.628 38.7833 145.893 35.4726 148.003 32.522C148.335 32.0564 148.609 31.5239 148.776 30.9816C148.965 30.3792 148.709 29.8302 148.197 29.4509C147.717 29.0948 147.167 29.1031 146.704 29.4426C146.241 29.7849 145.75 30.1642 145.452 30.6393C144.452 32.2412 143.433 33.846 142.599 35.5369C141.254 38.2576 139.653 40.785 137.535 42.9717C136.634 43.8986 135.662 44.7515 134.345 45.0802C133.307 45.3403 132.408 45.0665 131.882 44.2628C130.873 42.7238 130.339 39.9266 132.289 37.6605C133.433 36.3324 134.783 36.4447 135.958 35.144C139.655 31.05 142.602 26.4742 144.669 21.3657C145.314 19.7706 145.839 18.1262 145.779 16.3641C145.711 14.4472 144.159 13.1259 142.257 13.3792C140.755 13.5819 139.657 14.491 138.74 15.5699C134.406 20.6497 131.729 26.5892 129.783 32.8889C129.42 34.0596 129.156 35.4356 128.703 37.2292C128.311 39.6445 128.485 41.2985 128.626 43.7507C129.204 46.0729 130.816 47.7433 132.816 48.0198C134.512 48.2527 136.092 47.8364 137.468 46.871C138.575 46.0962 139.577 45.1692 140.615 44.3176C140.664 44.5284 140.71 44.8132 140.793 45.0857C141.256 46.6069 142.059 47.8405 143.757 48.1609C145.03 48.4019 146.226 48.0705 147.337 47.4298C149.038 46.4522 150.341 45.0405 151.593 43.5727C151.77 43.3632 152.012 43.2085 152.307 42.9607C152.568 44.9117 151.763 46.5973 150.283 47.4639C148.413 48.5593 146.534 49.641 144.677 50.7555C141.803 52.4807 139.062 54.373 136.739 56.8115C135.646 57.9588 134.783 59.224 134.381 60.7685C133.82 62.9208 134.542 64.8336 136.386 65.818C137.06 66.1782 137.846 66.3288 138.58 66.5751H139.902C143.498 65.6921 145.973 63.3699 148.001 60.433C150.339 57.0456 152.351 53.5048 153.586 49.5547C153.747 49.0372 154.219 48.4854 154.698 48.2157C159.13 45.7265 162.512 42.2309 164.999 37.8509C165.212 37.4757 165.368 37.1635 165.594 36.7035C165.824 36.2447 165.594 35.9751 165.594 35.9751C164.591 34.5197 163.548 34.5743 162.668 36.1298Z" fill="#71C3BB"/>
</g>
<defs>
<clipPath id="clip0">
<path d="M0 0H166V73.7133H0V0Z" fill="white"/>
</clipPath>
</defs>
</svg>
