<svg width="166" height="74" viewBox="0 0 166 74" fill="none" xmlns="http://www.w3.org/2000/svg">
<path d="M138.065 51.9909C146.196 43.8329 146.003 30.6839 137.775 22.7179C129.547 14.7518 116.383 14.8477 108.252 23.0058C105.445 25.8851 103.509 29.4364 102.734 33.2754C103.702 20.7024 114.737 11.2966 127.321 12.2563C140.001 13.2161 149.487 24.1575 148.52 36.6346C147.745 47.384 139.421 56.118 128.676 57.4617C132.258 56.5978 135.452 54.6783 138.065 51.9909Z" fill="#009AED"/>
<path d="M111.485 51.0531C119.765 55.6874 130.382 52.7909 135.057 44.4878C139.732 36.1846 136.81 25.7575 128.434 21.1232C125.609 19.5784 122.395 18.8061 119.083 18.9026C129.408 16.9717 139.343 23.73 141.291 33.9641C143.239 44.1982 136.421 54.046 126.096 55.977C117.232 57.6183 108.466 52.8874 105.057 44.6809C106.615 47.3843 108.758 49.6048 111.485 51.0531Z" fill="#EF7E6E"/>
<path d="M130.821 30.7129C129.779 28.9864 128.359 27.4518 126.654 26.4927C124.95 25.4376 122.961 24.958 120.878 24.958C118.132 24.958 115.386 26.0131 113.397 27.9315C111.03 30.1375 109.61 33.3027 109.704 36.5638C109.61 39.6331 110.841 42.6065 113.019 44.8126C115.102 47.0186 117.943 48.2655 120.973 48.1696C122.961 48.1696 124.95 47.6901 126.749 46.635C128.453 45.5799 129.874 44.1411 130.821 42.3188C131.862 40.4964 132.336 38.4821 132.336 36.4679C132.336 34.5496 131.768 32.5354 130.821 30.7129ZM120.973 42.5106C119.552 42.5106 118.132 41.9351 117.09 40.88C116.049 39.729 115.481 38.0984 115.575 36.5638C115.481 34.9332 116.049 33.3986 117.09 32.2475C118.037 31.1926 119.458 30.5211 120.973 30.617C122.488 30.5211 123.813 31.1926 124.855 32.2475C125.897 33.3986 126.465 34.9332 126.37 36.5638C126.465 38.1943 125.897 39.729 124.855 40.88C123.813 42.031 122.393 42.6065 120.973 42.5106Z" fill="#DFDFDF"/>
<path d="M16.252 25.5386H23.4105L28.6343 36.2763L33.6646 25.5386H40.0492L28.3441 48.1749H28.0539L16.252 25.5386Z" fill="#DFDFDF"/>
<path d="M49.3627 42.7575C51.4786 42.8542 53.4984 42.0804 55.0372 40.6293L58.8844 44.4987C56.9607 46.627 54.0753 48.1748 49.5549 48.1748C42.0531 48.1748 37.1478 43.2411 37.1478 36.5664C37.0518 30.2785 42.0531 25.0547 48.4008 24.958H48.8817C56.4799 24.958 60.8079 31.0523 60.327 38.7914H43.6881C44.3613 41.2097 46.1888 42.7575 49.3627 42.7575ZM53.5946 34.2448C53.2097 31.923 51.19 30.1818 48.7855 30.3752C46.3811 30.1818 44.1689 31.8263 43.6881 34.2448H53.5946Z" fill="#DFDFDF"/>
<path d="M73.1595 42.7575C75.2755 42.8542 77.2952 42.0804 78.8341 40.6293L82.6813 44.4987C80.7576 46.627 77.8722 48.1748 73.3518 48.1748C65.8498 48.1748 60.9447 43.2411 60.9447 36.5664C60.8487 30.2785 65.8498 25.0547 72.1977 24.958H72.6786C80.2767 24.958 84.6048 31.0523 84.1239 38.7914H67.4849C68.1582 41.2097 69.9855 42.7575 73.1595 42.7575ZM77.3913 34.2448C77.0066 31.923 74.9868 30.1818 72.5824 30.3752C70.178 30.1818 67.9658 31.8263 67.4849 34.2448H77.3913Z" fill="#DFDFDF"/>
<path d="M102.049 44.9183C100.869 46.8375 98.5092 47.9891 95.1657 47.9891C89.3639 47.9891 84.7422 43.0949 84.7422 36.4735C84.7422 29.8522 89.4623 24.958 95.1657 24.958C98.5092 24.958 100.771 26.1096 102.049 28.0289V25.5338H108.539V60.944H102.049V44.9183ZM102.148 36.4735C102.148 32.923 100.181 30.6198 96.8374 30.6198C93.494 30.6198 91.429 32.923 91.429 36.4735C91.429 40.0241 93.5924 42.3273 96.8374 42.3273C100.083 42.3273 102.148 40.0241 102.148 36.4735Z" fill="#DFDFDF"/>
</svg>
