<svg width="18" height="15" viewBox="0 0 18 15" fill="none" xmlns="http://www.w3.org/2000/svg">
<path fill-rule="evenodd" clip-rule="evenodd" d="M0 0.5H27.0029V9.79961H0V0.5Z" fill="#B20000"/>
<path fill-rule="evenodd" clip-rule="evenodd" d="M0 9.79956H27.0029V14.4999H0V9.79956Z" fill="#429F00"/>
<path fill-rule="evenodd" clip-rule="evenodd" d="M0 0.5H2.99036V14.5H0V0.5Z" fill="white"/>
<path fill-rule="evenodd" clip-rule="evenodd" d="M0.142578 0.737891H0.284976V0.975782H0.142578V0.737891ZM0.569773 0.737891H0.996968V0.975782H0.569773V0.737891ZM0.712172 0.5H0.85457V0.737891H0.712172V0.5ZM1.42416 0.5H1.56656V0.737891H1.42416V0.5ZM1.99376 0.737891H2.42095V0.975782H1.99376V0.737891ZM2.13615 0.5H2.27855V0.737891H2.13615V0.5ZM0.427375 0.975782H0.712172V1.21094H0.427375V0.975782ZM0.85457 0.975782H1.13937V1.21094H0.85457V0.975782ZM1.85136 0.975782H2.13615V1.21094H1.85136V0.975782ZM2.27855 0.975782H2.56335V1.21094H2.27855V0.975782ZM0.284976 1.21094H0.569773V1.44883H0.284976V1.21094ZM0.996968 1.21094H1.28176V1.44883H0.996968V1.21094ZM1.70896 1.21094H1.99376V1.44883H1.70896V1.21094ZM2.42095 1.21094H2.70575V1.44883H2.42095V1.21094ZM2.70575 0.737891H2.84815V0.975782H2.70575V0.737891ZM0.142578 1.44883H0.427375V1.68672H0.142578V1.44883ZM1.13937 1.44883H1.42416V1.68672H1.13937V1.44883ZM2.56335 1.44883H2.84815V1.68672H2.56335V1.44883ZM0.284976 2.15977H0.569773V2.39766H0.284976V2.15977ZM0.427375 2.39766H0.712172V2.63555H0.427375V2.39766ZM0.996968 2.1625H1.28176V2.39766H0.996968V2.1625ZM0.85457 2.39766H1.13937V2.63555H0.85457V2.39766ZM0.569773 2.63555H0.996968V2.87344H0.569773V2.63555Z" fill="#B20000"/>
<path fill-rule="evenodd" clip-rule="evenodd" d="M0.71199 2.87353H0.854388V3.11142H0.71199V2.87353ZM1.70878 2.1626H1.99357V2.39775H1.70878V2.1626ZM1.85117 2.39775H2.13597V2.63564H1.85117V2.39775ZM2.42076 2.1626H2.70556V2.39775H2.42076V2.1626ZM2.27837 2.39775H2.56316V2.63564H2.27837V2.39775ZM1.99357 2.63564H2.42076V2.87353H1.99357V2.63564ZM2.13597 2.87353H2.27837V3.11142H2.13597V2.87353ZM1.42398 2.63291H1.56638V2.8708H1.42398V2.63291ZM0 2.63291H0.142398V2.8708H0V2.63291ZM2.84796 2.63291H2.99036V2.8708H2.84796V2.63291ZM0.71199 3.81963H0.854388V4.05752H0.71199V3.81963ZM0.569592 4.06025H0.996785V4.29541H0.569592V4.06025ZM0.427194 4.29541H1.13918V4.5333H0.427194V4.29541ZM2.13597 3.82236H2.27837V4.06025H2.13597V3.82236ZM1.99357 4.06025H2.42076V4.29541H1.99357V4.06025ZM1.85117 4.29541H2.56316V4.5333H1.85117V4.29541ZM1.99357 5.48212H2.70556V5.72001H1.99357V5.48212ZM1.70878 4.5333H2.70556V4.77119H1.70878V4.5333ZM0.284796 4.5333H1.28158V4.77119H0.284796V4.5333ZM0.427194 5.72001H0.854388V5.95791H0.427194V5.72001ZM0.284796 5.48212H0.996785V5.72001H0.284796V5.48212ZM2.27837 5.01181H2.99036V5.2497H2.27837V5.01181ZM2.13597 5.72275H2.56316V5.96064H2.13597V5.72275Z" fill="#B20000"/>
<path fill-rule="evenodd" clip-rule="evenodd" d="M0.569592 5.95771H0.71199V6.1956H0.569592V5.95771ZM2.27837 5.95771H2.42076V6.1956H2.27837V5.95771ZM0 5.00888H0.71199V5.24678H0V5.00888ZM1.28158 5.48193H1.70878V5.71982H1.28158V5.48193ZM1.42398 5.72256H1.56638V5.96045H1.42398V5.72256ZM0.996785 5.01162H1.99357V5.24951H0.996785V5.01162ZM1.56638 1.44873H1.85117V1.68662H1.56638V1.44873ZM1.28158 1.68662H1.70878V1.92451H1.28158V1.68662ZM1.13918 1.92451H1.42398V2.15967H1.13918V1.92451ZM1.56638 1.92451H1.85117V2.15967H1.56638V1.92451ZM0 1.68662H0.284796V1.92451H0V1.68662ZM0.142398 1.92451H0.427194V2.15967H0.142398V1.92451ZM2.70556 1.68662H2.99036V1.92178H2.70556V1.68662ZM2.56316 1.92178H2.84796V2.15693H2.56316V1.92178ZM0 4.05459H0.142398V4.29248H0V4.05459ZM2.84796 4.05459H2.99036V4.29248H2.84796V4.05459ZM1.28158 5.95498H1.70878V6.19287H1.28158V5.95498ZM1.13918 6.19287H1.42398V6.42802H1.13918V6.19287ZM1.56638 6.19287H1.85117V6.42802H1.56638V6.19287ZM0.996785 6.42802H1.28158V6.66592H0.996785V6.42802ZM1.70878 6.42802H1.99357V6.66592H1.70878V6.42802ZM0.854388 6.66592H1.13918V6.90381H0.854388V6.66592ZM1.85117 6.66592H2.13597V6.90381H1.85117V6.66592ZM0.71199 6.90654H0.996785V7.14443H0.71199V6.90654ZM1.99357 6.90654H2.27837V7.14443H1.99357V6.90654ZM0.427194 7.14443H0.854388V7.38232H0.427194V7.14443ZM2.13597 7.14443H2.56316V7.38232H2.13597V7.14443ZM2.42076 6.90654H2.70556V7.14443H2.42076V6.90654ZM2.56316 6.66865H2.84796V6.90654H2.56316V6.66865ZM2.70556 6.43076H2.99036V6.66865H2.70556V6.43076ZM0.284796 6.90654H0.569592V7.14443H0.284796V6.90654ZM0.142398 6.66865H0.427194V6.90654H0.142398V6.66865ZM0 6.43349H0.284796V6.67138H0V6.43349ZM0.569592 7.38506H0.71199V7.62021H0.569592V7.38506ZM2.27837 7.38506H2.42076V7.62021H2.27837V7.38506ZM1.42398 6.67412H1.56638V6.90927H1.42398V6.67412ZM0.996785 7.38506H1.13918V7.62021H0.996785V7.38506ZM1.85117 7.38506H1.99357V7.62021H1.85117V7.38506ZM1.42398 7.38506H1.56638V7.62021H1.42398V7.38506ZM0 7.38506H0.142398V7.62021H0L0 7.38506ZM2.84796 7.38506H2.99036V7.62021H2.84796V7.38506ZM1.42398 4.06006H1.56638V4.29521H1.42398V4.06006ZM0.71199 1.68662H0.854388V1.92451H0.71199V1.68662ZM2.13597 1.68662H2.27837V1.92451H2.13597V1.68662ZM1.28158 3.34639H1.70878V3.58428H1.28158V3.34639ZM0.996785 3.58428H1.42398V3.82217H0.996785V3.58428ZM1.13918 3.82217H1.28158V4.06006H1.13918V3.82217ZM0.854388 3.34639H1.13918V3.58428H0.854388V3.34639ZM0.996785 3.11123H1.42398V3.34639H0.996785V3.11123ZM1.13918 2.87334H1.28158V3.11123H1.13918V2.87334ZM1.56638 3.11123H1.99357V3.34639H1.56638V3.11123ZM1.70878 2.87334H1.85117V3.11123H1.70878V2.87334ZM1.85117 3.34639H2.13597V3.58428H1.85117V3.34639ZM1.56638 3.58428H1.99357V3.82217H1.56638V3.58428ZM1.70878 3.82217H1.85117V4.06006H1.70878V3.82217ZM2.27837 3.34639H2.56316V3.58428H2.27837V3.34639ZM2.42076 3.11123H2.84796V3.34639H2.42076V3.11123ZM2.70556 3.34639H2.99036V3.58428H2.70556V3.34639ZM2.42076 3.58428H2.84796V3.82217H2.42076V3.58428ZM2.56316 3.82217H2.70556V4.06006H2.56316V3.82217ZM2.56316 2.87334H2.70556V3.11123H2.56316V2.87334ZM0 3.34365H0.284796V3.58154H0V3.34365ZM0.142398 3.1085H0.569592V3.34365H0.142398V3.1085ZM0.427194 3.34365H0.71199V3.58154H0.427194V3.34365ZM0.142398 3.58154H0.569592V3.81943H0.142398V3.58154Z" fill="#B20000"/>
<path fill-rule="evenodd" clip-rule="evenodd" d="M0.284796 3.82236H0.427194V4.06025H0.284796V3.82236ZM0.284796 2.87354H0.427194V3.11143H0.284796V2.87354ZM0.142398 4.77119H0.71199V5.00908H0.142398V4.77119ZM0.854388 4.77119H1.42398V5.00908H0.854388V4.77119ZM1.56638 4.77119H2.13597V5.00908H1.56638V4.77119ZM2.27837 4.77119H2.84796V5.00908H2.27837V4.77119ZM1.13918 5.24697H1.85117V5.48213H1.13918V5.24697ZM0.142398 5.24697H0.854388V5.48213H0.142398V5.24697ZM2.13597 5.24697H2.84796V5.48213H2.13597V5.24697ZM2.84796 6.1958H2.99036V6.43096H2.84796V6.1958ZM0 6.1958H0.142398V6.43096H0V6.1958ZM0.142398 14.2622H0.284796V14.0271H0.142398V14.2622ZM0.569592 14.2622H0.996785V14.0271H0.569592V14.2622ZM0.71199 14.5001H0.854388V14.2622H0.71199V14.5001ZM1.42398 14.5001H1.56638V14.2622H1.42398V14.5001ZM1.99357 14.2622H2.42076V14.0243H1.99357V14.2622ZM2.13597 14.5001H2.27837V14.2622H2.13597V14.5001ZM0.427194 14.0243H0.71199V13.7892H0.427194V14.0243ZM0.854388 14.0243H1.13918V13.7892H0.854388V14.0243ZM1.85117 14.0243H2.13597V13.7892H1.85117V14.0243ZM2.27837 14.0243H2.56316V13.7892H2.27837V14.0243ZM0.996785 13.7892H1.28158V13.5513H0.996785V13.7892ZM1.70878 13.7892H1.99357V13.5513H1.70878V13.7892ZM2.42076 13.7892H2.70556V13.5513H2.42076V13.7892ZM2.70556 14.2622H2.84796V14.0243H2.70556V14.2622ZM0.142398 13.5513H0.427194V13.3134H0.142398V13.5513ZM1.13918 13.5513H1.42398V13.3134H1.13918V13.5513ZM2.56316 13.5513H2.84796V13.3134H2.56316V13.5513ZM0.284796 12.8403H0.569592V12.6024H0.284796V12.8403ZM0.427194 12.6024H0.71199V12.3646H0.427194V12.6024ZM0.996785 12.8403H1.28158V12.6024H0.996785V12.8403ZM0.854388 12.6024H1.13918V12.3646H0.854388V12.6024ZM0.569592 12.3646H0.996785V12.1267H0.569592V12.3646ZM0.71199 12.1267H0.854388V11.8915H0.71199V12.1267ZM1.70878 12.8376H1.99357V12.6024H1.70878V12.8376ZM1.85117 12.6024H2.13597V12.3646H1.85117V12.6024ZM2.42076 12.8403H2.70556V12.6024H2.42076V12.8403ZM2.27837 12.6024H2.56316V12.3646H2.27837V12.6024ZM1.99357 12.3646H2.42076V12.1267H1.99357V12.3646ZM2.13597 12.1267H2.27837V11.8915H2.13597V12.1267ZM1.42398 12.3673H1.56638V12.1294H1.42398V12.3673ZM0 12.3673H0.142398V12.1294H0V12.3673ZM2.84796 12.3673H2.99036V12.1294H2.84796V12.3673ZM0.71199 11.1806H0.854388V10.9427H0.71199V11.1806ZM0.569592 10.9399H0.996785V10.7048H0.569592V10.9399ZM0.427194 10.7048H1.13918V10.4669H0.427194V10.7048ZM2.13597 11.1778H2.27837V10.9399H2.13597V11.1778Z" fill="#B20000"/>
<path fill-rule="evenodd" clip-rule="evenodd" d="M1.99357 10.9398H2.42076V10.7046H1.99357V10.9398ZM1.85117 10.7046H2.56316V10.4668H1.85117V10.7046ZM1.99357 9.51792H2.70556V9.2773H1.99357V9.51792ZM1.70878 10.4668H2.70556V10.2289H1.70878V10.4668ZM0.284796 10.4668H1.28158V10.2289H0.284796V10.4668ZM0.427194 9.28003H0.854388V9.04214H0.427194V9.28003ZM0.284796 9.51792H0.996785V9.2773H0.284796V9.51792ZM2.27837 9.98823H2.99036V9.75034H2.27837V9.98823ZM2.13597 9.2773H2.56316V9.03941H2.13597V9.2773ZM0 9.98823H0.71199V9.75034H0V9.98823ZM1.28158 9.51519H1.70878V9.2773H1.28158V9.51519ZM1.42398 9.2773H1.56638V9.03941H1.42398V9.2773ZM0.996785 9.98823H1.99357V9.75034H0.996785V9.98823ZM1.56638 13.5484H1.85117V13.3105H1.56638V13.5484ZM1.28158 13.3105H1.70878V13.0781H1.28158V13.3105ZM1.13918 13.0726H1.42398V12.8347H1.13918V13.0726ZM1.56638 13.0726H1.85117V12.8347H1.56638V13.0726ZM0 13.3132H0.284796V13.0781H0V13.3132ZM0.142398 13.0753H0.427194V12.8402H0.142398V13.0753ZM2.70556 13.3132H2.99036V13.0781H2.70556V13.3132ZM2.56316 13.0753H2.84796V12.8402H2.56316V13.0753ZM0 10.9453H0.142398V10.7074H0V10.9453ZM2.84796 10.9453H2.99036V10.7074H2.84796V10.9453ZM1.13918 8.80698H1.42398V8.57183H1.13918V8.80698ZM1.56638 8.80698H1.85117V8.57183H1.56638V8.80698ZM0.996785 8.57183H1.28158V8.33394H0.996785V8.57183ZM1.70878 8.57183H1.99357V8.33394H1.70878V8.57183ZM0.854388 8.33394H1.13918V8.09605H0.854388V8.33394ZM1.85117 8.33394H2.13597V8.09605H1.85117V8.33394ZM0.71199 8.09331H0.996785V7.85542H0.71199V8.09331ZM1.99357 8.09331H2.27837V7.85542H1.99357V8.09331ZM0.427194 7.85542H0.854388V7.61753H0.427194V7.85542ZM2.13597 7.85542H2.56316V7.61753H2.13597V7.85542ZM2.42076 8.09331H2.70556V7.85542H2.42076V8.09331ZM2.56316 8.3312H2.84796V8.09331H2.56316V8.3312ZM2.70556 8.56909H2.99036V8.3312H2.70556V8.56909ZM0.284796 8.09331H0.569592V7.85542H0.284796V8.09331ZM0.142398 8.3312H0.427194V8.09331H0.142398V8.3312ZM0 8.56636H0.284796V8.32847H0V8.56636ZM0.569592 7.6148H0.71199V7.37964H0.569592V7.6148ZM1.42398 8.32573H1.56638V8.09058H1.42398V8.32573ZM1.42398 10.9371H1.56638V10.7019H1.42398V10.9371ZM0.71199 13.3105H0.854388V13.0781H0.71199V13.3105ZM2.13597 13.3105H2.27837V13.0781H2.13597V13.3105ZM1.28158 11.6562H1.70878V11.4183H1.28158V11.6562ZM0.996785 11.4183H1.42398V11.1804H0.996785V11.4183ZM1.13918 11.1804H1.28158V10.9425H1.13918V11.1804ZM0.854388 11.6562H1.13918V11.4183H0.854388V11.6562ZM0.996785 11.8886H1.42398V11.6562H0.996785V11.8886ZM1.13918 12.1265H1.28158V11.8914H1.13918V12.1265ZM1.56638 11.8886H1.99357V11.6562H1.56638V11.8886ZM1.70878 12.1265H1.85117V11.8914H1.70878V12.1265ZM1.85117 11.6535H2.13597V11.4156H1.85117V11.6535ZM1.56638 11.4156H1.99357V11.1777H1.56638V11.4156ZM1.70878 11.1777H1.85117V10.9398H1.70878V11.1777ZM2.27837 11.6562H2.56316V11.4183H2.27837V11.6562ZM2.42076 11.8886H2.84796V11.6562H2.42076V11.8886ZM2.70556 11.6535H2.99036V11.4156H2.70556V11.6535ZM2.42076 11.4156H2.84796V11.1777H2.42076V11.4156ZM2.56316 11.1777H2.70556V10.9398H2.56316V11.1777ZM2.56316 12.1265H2.70556V11.8914H2.56316V12.1265ZM0 11.6562H0.284796V11.4183H0V11.6562ZM0.142398 11.8886H0.569592V11.6562H0.142398V11.8886Z" fill="#B20000"/>
<path fill-rule="evenodd" clip-rule="evenodd" d="M0.427194 11.6535H0.71199V11.4156H0.427194V11.6535ZM0.142398 11.4156H0.569592V11.1777H0.142398V11.4156ZM0.284796 11.1777H0.427194V10.9398H0.284796V11.1777ZM0.284796 12.1266H0.427194V11.8914H0.284796V12.1266ZM0.142398 10.2289H0.71199V9.99102H0.142398V10.2289ZM0.854388 10.2289H1.42398V9.99102H0.854388V10.2289ZM1.56638 10.2289H2.13597V9.99102H1.56638V10.2289ZM2.27837 10.2289H2.84796V9.99102H2.27837V10.2289ZM1.13918 9.75312H1.85117V9.51797H1.13918V9.75312ZM0.142398 9.75312H0.854388V9.51797H0.142398V9.75312ZM2.13597 9.75312H2.84796V9.51797H2.13597V9.75312ZM2.84796 8.80703H2.99036V8.56641H2.84796V8.80703ZM0 8.80703H0.142398V8.56641H0V8.80703ZM1.28158 7.61758H1.42398V7.85547H1.28158V7.61758ZM1.56638 7.61758H1.70878V7.85547H1.56638V7.61758ZM1.56638 7.14453H1.70878V7.38242H1.56638V7.14453ZM1.28158 7.14453H1.42398V7.38242H1.28158V7.14453ZM0.284796 13.5512H0.569592V13.7891H0.284796V13.5512ZM2.27837 9.04219H2.42076V8.8043H2.27837V9.04219ZM0.569592 9.04219H0.71199V8.8043H0.569592V9.04219ZM1.28158 8.8043H1.70878V9.04219H1.28158V8.8043Z" fill="#B20000"/>
</svg>
