<svg width="18" height="15" viewBox="0 0 18 15" fill="none" xmlns="http://www.w3.org/2000/svg">
<g clip-path="url(#clip0)">
<path fill-rule="evenodd" clip-rule="evenodd" d="M0 0.5H18V14.5H0V0.5Z" fill="#6FDCFF"/>
<path fill-rule="evenodd" clip-rule="evenodd" d="M1.69406 14.1212C1.78688 14.2146 1.75594 14.3691 2.01188 14.3487C2.4 14.3487 2.41125 14.1037 2.41125 13.9316C2.41125 13.7596 1.82906 13.5204 1.80094 13.2666C1.77281 13.0129 1.93594 12.9458 2.07094 12.9458C2.20313 12.9458 2.29594 13.0246 2.29594 13.0946C2.29594 13.1646 2.23407 13.1879 2.13844 13.1879C2.04282 13.1879 2.18063 13.1383 2.09907 13.1004C2.0175 13.0625 1.96407 13.1587 1.96407 13.2171C1.96407 13.2812 2.16657 13.2987 2.30157 13.255C2.32969 13.3921 2.34094 13.4008 2.1525 13.6341C2.2875 13.5437 2.29875 13.5233 2.44782 13.5758C2.29875 13.4416 2.41125 13.1733 2.41407 13.1062C2.41688 13.0391 2.38594 12.9575 2.32969 12.9166C2.22 12.8146 1.98657 12.8087 1.84594 12.8758C1.64063 12.9691 1.62938 13.2491 1.68281 13.3425L2.25094 13.9375C2.29032 14.0075 2.30719 14.2058 2.06532 14.2146C1.81219 14.235 1.72219 13.8762 1.67719 13.7566C1.61813 13.8879 1.55063 14.2466 1.29469 14.2262C1.05281 14.2175 1.00781 14.0221 1.04719 13.9491L1.62938 13.3366C1.68563 13.2433 1.67438 12.9633 1.46906 12.87C1.32844 12.8029 1.095 12.8116 0.988125 12.9108C0.92625 12.9516 0.8925 13.0304 0.898125 13.1004C0.90375 13.1704 1.01344 13.4358 0.867188 13.5671C1.01344 13.5175 1.0275 13.5379 1.1625 13.6254C0.974063 13.395 0.988125 13.3862 1.01344 13.2462C1.14844 13.2929 1.35094 13.2754 1.35094 13.2141C1.35094 13.1529 1.29469 13.0508 1.21313 13.0916C1.13438 13.1325 1.26938 13.1821 1.17375 13.1821C1.08094 13.1821 1.01344 13.1616 1.01344 13.0946C1.01344 13.0275 1.10625 12.94 1.24125 12.94C1.37625 12.94 1.53656 13.01 1.50844 13.2637C1.48031 13.5175 0.889688 13.7916 0.889688 13.9637C0.889688 14.1387 0.929063 14.3458 1.31719 14.3458C1.57031 14.3662 1.60125 14.2116 1.69406 14.1183V14.1212Z" fill="#FFE400"/>
<path fill-rule="evenodd" clip-rule="evenodd" d="M1.66281 10.5134C1.75562 10.4201 1.83156 10.1459 2.08469 10.1634C2.47281 10.1634 2.61906 10.388 2.61906 10.5601C2.61906 10.7321 1.83156 12.1351 1.80344 12.3888C1.77531 12.6426 1.93844 12.7126 2.07062 12.7126C2.20562 12.7126 2.29844 12.6338 2.29844 12.5609C2.29844 12.488 2.23094 12.4734 2.13812 12.4734C2.04531 12.4734 2.1775 12.523 2.09875 12.5609C2.02 12.5988 1.96375 12.5026 1.96375 12.4413C1.96375 12.3801 2.16625 12.3596 2.30125 12.4063C2.32656 12.2692 2.33781 12.2605 2.15219 12.0271C2.28719 12.1146 2.29844 12.138 2.4475 12.0855C2.29844 12.2196 2.40812 12.4851 2.41375 12.5521C2.41937 12.6192 2.38562 12.7038 2.32656 12.7446C2.21969 12.8467 1.98344 12.8496 1.84281 12.7855C1.64031 12.6892 1.62906 12.4121 1.6825 12.3188L2.4475 10.6096C2.48969 10.5396 2.38281 10.3063 2.14094 10.2976C1.88781 10.2771 1.80062 10.5542 1.75562 10.6738L2.10156 10.6446C2.10156 10.6446 2.11562 10.703 2.10156 10.738C1.9855 10.7468 1.87 10.7624 1.75562 10.7846L1.74156 10.9655H1.91031L1.89906 11.0471C1.89906 11.0471 1.75562 11.0355 1.74156 11.0471C1.7275 11.0559 1.71344 11.228 1.71344 11.228C1.71344 11.228 1.68531 11.2396 1.65719 11.2396C1.62906 11.2396 1.60094 11.228 1.60094 11.228C1.60094 11.228 1.58969 11.0559 1.57562 11.0471C1.56156 11.0355 1.41812 11.0471 1.41812 11.0471L1.40406 10.9655H1.57562L1.56156 10.7846C1.56156 10.7846 1.39281 10.7496 1.21562 10.738C1.20437 10.703 1.21562 10.6476 1.21562 10.6476L1.56156 10.6738C1.51656 10.5542 1.42937 10.2771 1.17625 10.2946C0.934375 10.3063 0.8275 10.5396 0.866875 10.6096L1.63187 12.3188C1.68531 12.4092 1.67406 12.6892 1.47156 12.7855C1.33094 12.8496 1.09469 12.8438 0.987812 12.7446C0.92875 12.7038 0.895 12.6221 0.900625 12.5551C0.90625 12.488 1.01312 12.2167 0.866875 12.0884C1.01594 12.138 1.03 12.1176 1.16219 12.0271C0.976562 12.2605 0.987812 12.2692 1.01594 12.4063C1.14812 12.3596 1.35062 12.3771 1.35062 12.4413C1.35062 12.4996 1.29437 12.6017 1.21562 12.5609C1.13687 12.5201 1.27187 12.4734 1.17625 12.4734C1.08344 12.4734 1.01594 12.4909 1.01594 12.5609C1.01594 12.6309 1.10875 12.7126 1.24094 12.7126C1.37312 12.7126 1.53625 12.6426 1.51094 12.3917C1.48281 12.138 0.695312 10.7292 0.695312 10.5601C0.695312 10.3851 0.841562 10.1663 1.22969 10.1663C1.48281 10.1459 1.57562 10.4201 1.66562 10.5134H1.66281Z" fill="#FFE400"/>
<path fill-rule="evenodd" clip-rule="evenodd" d="M1.66281 9.81565C1.75562 9.90899 1.83156 10.1832 2.08469 10.1657C2.47281 10.1657 2.61906 9.94107 2.61906 9.76899C2.61906 9.5969 1.83156 8.19398 1.80344 7.94023C1.77531 7.68647 1.93844 7.61647 2.07062 7.61647C2.20562 7.61647 2.29844 7.69522 2.29844 7.76814C2.29844 7.84106 2.23094 7.85564 2.13812 7.85564C2.04531 7.85564 2.1775 7.80898 2.09875 7.76814C2.02 7.72731 1.96375 7.82648 1.96375 7.88773C1.96375 7.94898 2.16625 7.96939 2.30125 7.92273C2.32656 8.05981 2.33781 8.06856 2.15219 8.30189C2.28719 8.21439 2.29844 8.19106 2.4475 8.24356C2.29844 8.10939 2.40812 7.84398 2.41375 7.77689C2.41937 7.70981 2.38562 7.62522 2.32656 7.58439C2.21969 7.48522 1.98344 7.47939 1.84281 7.54356C1.64031 7.63981 1.62906 7.91689 1.6825 8.01023L2.4475 9.71649C2.48969 9.78649 2.38281 10.0198 2.14094 10.0286C1.88781 10.049 1.80062 9.7719 1.75562 9.65232L2.10156 9.68148C2.10156 9.68148 2.11562 9.62315 2.10156 9.58815C1.9855 9.57936 1.87 9.56378 1.75562 9.54148L1.74156 9.36065H1.91031L1.89906 9.27898C1.89906 9.27898 1.75562 9.29065 1.74156 9.27898C1.7275 9.27023 1.71344 9.09815 1.71344 9.09815C1.71344 9.09815 1.68531 9.08648 1.65719 9.08648C1.62906 9.08648 1.60094 9.09815 1.60094 9.09815C1.60094 9.09815 1.58969 9.27023 1.57562 9.27898C1.56156 9.29065 1.41812 9.27898 1.41812 9.27898L1.40406 9.36065H1.57562L1.56156 9.54148C1.56156 9.54148 1.39281 9.57648 1.21562 9.58815C1.20437 9.62315 1.21562 9.67857 1.21562 9.67857L1.56156 9.65232C1.51656 9.7719 1.42937 10.049 1.17625 10.0315C0.934375 10.0198 0.8275 9.78649 0.866875 9.71649L1.63187 8.01023C1.68531 7.91689 1.67406 7.63981 1.47156 7.54356C1.33094 7.47939 1.09469 7.48522 0.987812 7.58439C0.92875 7.62522 0.895 7.70689 0.900625 7.77397C0.90625 7.84106 1.01312 8.10939 0.866875 8.24064C1.01594 8.19106 1.03 8.21148 1.16219 8.30189C0.976562 8.06856 0.987812 8.05981 1.01594 7.92273C1.14812 7.96939 1.35062 7.95189 1.35062 7.88773C1.35062 7.82939 1.29437 7.72731 1.21562 7.76814C1.13687 7.80898 1.27187 7.85564 1.17625 7.85564C1.08344 7.85564 1.01594 7.83814 1.01594 7.76814C1.01594 7.69814 1.10875 7.61647 1.24094 7.61647C1.37312 7.61647 1.53625 7.68647 1.51094 7.93731C1.48281 8.19106 0.695312 9.59982 0.695312 9.76899C0.695312 9.94399 0.841562 10.1627 1.22969 10.1627C1.48281 10.1832 1.57562 9.90899 1.66562 9.81565H1.66281Z" fill="#FFE400"/>
<path fill-rule="evenodd" clip-rule="evenodd" d="M1.66281 5.1843C1.75562 5.09096 1.83156 4.8168 2.08469 4.8343C2.47281 4.8343 2.61906 5.05888 2.61906 5.23096C2.61906 5.40305 1.83156 6.80596 1.80344 7.06263C1.77531 7.31346 1.93844 7.38346 2.07062 7.38346C2.20562 7.38346 2.29844 7.30471 2.29844 7.23471C2.29844 7.16471 2.23094 7.14138 2.13812 7.14138C2.04531 7.14138 2.1775 7.19388 2.09875 7.23471C2.02 7.27555 1.96375 7.17346 1.96375 7.11221C1.96375 7.05388 2.16625 7.03055 2.30125 7.07721C2.32656 6.94013 2.33781 6.93138 2.15219 6.69805C2.28719 6.78846 2.29844 6.80888 2.4475 6.75638C2.29844 6.89055 2.40812 7.15888 2.41375 7.22305C2.41937 7.28721 2.38562 7.37471 2.32656 7.41555C2.21969 7.51763 1.98344 7.52055 1.84281 7.45638C1.64031 7.36013 1.62906 7.08305 1.6825 6.98971L2.4475 5.28346C2.48969 5.21346 2.38281 4.98013 2.14094 4.97138C1.88781 4.95096 1.80062 5.22805 1.75562 5.34763L2.10156 5.31846C2.10156 5.31846 2.11562 5.3768 2.10156 5.4118C1.92156 5.42346 1.75562 5.45846 1.75562 5.45846L1.74156 5.6393H1.91031L1.89906 5.72096C1.89906 5.72096 1.75562 5.71221 1.74156 5.72096C1.7275 5.72971 1.71344 5.90471 1.71344 5.90471C1.71344 5.90471 1.68531 5.91346 1.65719 5.91346C1.62906 5.91346 1.60094 5.90471 1.60094 5.90471C1.60094 5.90471 1.58969 5.72971 1.57562 5.72096C1.56156 5.71221 1.41812 5.72096 1.41812 5.72096L1.40406 5.6393H1.57562L1.56156 5.45846C1.56156 5.45846 1.39281 5.42346 1.21562 5.4118C1.20437 5.3768 1.21562 5.32138 1.21562 5.32138L1.56156 5.34763C1.51656 5.22805 1.42937 4.95096 1.17625 4.96846C0.934375 4.98013 0.8275 5.21346 0.866875 5.28346L1.63187 6.98971C1.68531 7.08305 1.67406 7.36013 1.47156 7.45638C1.33094 7.52055 1.09469 7.51471 0.987812 7.41555C0.92875 7.37471 0.895 7.29305 0.900625 7.22596C0.90625 7.15888 1.01312 6.89055 0.866875 6.7593C1.01594 6.80888 1.03 6.78846 1.16219 6.69805C0.976562 6.93138 0.987812 6.94013 1.01594 7.07721C1.14812 7.03055 1.35062 7.05096 1.35062 7.11221C1.35062 7.17055 1.29437 7.27263 1.21562 7.2318C1.13687 7.19388 1.27187 7.1443 1.17625 7.1443C1.08344 7.1443 1.01594 7.1618 1.01594 7.2318C1.01594 7.3018 1.10875 7.38346 1.24094 7.38346C1.37312 7.38346 1.53625 7.31346 1.51094 7.06263C1.48281 6.80888 0.695312 5.40305 0.695312 5.23096C0.695312 5.05888 0.841562 4.83721 1.22969 4.83721C1.48281 4.8168 1.57562 5.09096 1.66562 5.18721L1.66281 5.1843Z" fill="#FFE400"/>
<path fill-rule="evenodd" clip-rule="evenodd" d="M1.66281 4.48703C1.75562 4.58036 1.83156 4.85744 2.08469 4.83703C2.47281 4.83703 2.61906 4.61244 2.61906 4.44036C2.61906 4.26828 1.83156 2.86536 1.80344 2.61161C1.77531 2.35786 1.93844 2.28786 2.07062 2.28786C2.20562 2.28786 2.29844 2.36953 2.29844 2.43953C2.29844 2.50953 2.23094 2.52994 2.13812 2.52994C2.04531 2.52994 2.1775 2.48036 2.09875 2.43953C2.02 2.39869 1.96375 2.49786 1.96375 2.55911C1.96375 2.62036 2.16625 2.64078 2.30125 2.59411C2.32656 2.73119 2.33781 2.73994 2.15219 2.97328C2.28719 2.88578 2.29844 2.86244 2.4475 2.91494C2.29844 2.78369 2.40812 2.51536 2.41375 2.44828C2.41937 2.38119 2.38562 2.29661 2.32656 2.25578C2.21969 2.15661 1.98344 2.15078 1.84281 2.21786C1.64031 2.31119 1.62906 2.59119 1.6825 2.68161L2.4475 4.39078C2.48969 4.46078 2.38281 4.69411 2.14094 4.70578C1.88781 4.72328 1.80062 4.44911 1.75562 4.32661L2.10156 4.35578C2.10156 4.35578 2.11562 4.29744 2.10156 4.26244C1.98556 4.25452 1.87007 4.23992 1.75562 4.21869L1.74156 4.03494H1.91031L1.89906 3.95328C1.89906 3.95328 1.75562 3.96494 1.74156 3.95328C1.7275 3.94453 1.71344 3.77244 1.71344 3.77244C1.71344 3.77244 1.68531 3.76078 1.65719 3.76078C1.62906 3.76078 1.60094 3.77244 1.60094 3.77244C1.60094 3.77244 1.58969 3.94453 1.57562 3.95328C1.56156 3.96494 1.41812 3.95328 1.41812 3.95328L1.40406 4.03494H1.57562L1.56156 4.21869C1.56156 4.21869 1.39281 4.25078 1.21562 4.26244C1.20437 4.30036 1.21562 4.35578 1.21562 4.35578L1.56156 4.32661C1.51656 4.44911 1.42937 4.72328 1.17625 4.70578C0.934375 4.69411 0.8275 4.46078 0.866875 4.39078L1.63187 2.68161C1.68531 2.59119 1.67406 2.31119 1.47156 2.21494C1.33094 2.15078 1.09469 2.15661 0.987812 2.25578C0.92875 2.29661 0.895 2.37828 0.900625 2.44536C0.90625 2.51244 1.01312 2.78369 0.866875 2.91203C1.01594 2.86244 1.03 2.88286 1.16219 2.97328C0.976562 2.73994 0.987812 2.73119 1.01594 2.59411C1.15094 2.64078 1.35062 2.62328 1.35062 2.55911C1.35062 2.50078 1.29437 2.39869 1.21562 2.43953C1.13687 2.48036 1.27187 2.52994 1.17625 2.52994C1.08344 2.52994 1.01594 2.50953 1.01594 2.43953C1.01594 2.36953 1.10875 2.28786 1.24094 2.28786C1.37312 2.28786 1.53906 2.35786 1.51094 2.60869C1.48281 2.86244 0.695312 4.27119 0.695312 4.44036C0.695312 4.61536 0.841562 4.83703 1.22969 4.83703C1.48281 4.85744 1.57562 4.58036 1.66562 4.48703H1.66281Z" fill="#FFE400"/>
<path fill-rule="evenodd" clip-rule="evenodd" d="M1.69406 0.879239C1.78688 0.785905 1.75594 0.631322 2.01188 0.651739C2.4 0.651739 2.41125 0.896739 2.41125 1.06882C2.41125 1.24091 1.82906 1.48007 1.80094 1.73382C1.77281 1.98757 1.93594 2.05466 2.07094 2.05466C2.20313 2.05466 2.29594 1.97591 2.29594 1.90591C2.29594 1.83591 2.23407 1.81257 2.13844 1.81257C2.04282 1.81257 2.18063 1.86216 2.09907 1.90007C2.0175 1.93799 1.96407 1.84174 1.96407 1.78341C1.96407 1.71924 2.16657 1.69882 2.30157 1.74549C2.32969 1.60841 2.34094 1.59966 2.1525 1.36632C2.2875 1.45674 2.29875 1.47716 2.44782 1.42466C2.29875 1.55882 2.41125 1.82716 2.41407 1.89424C2.41688 1.96132 2.38594 2.04299 2.32969 2.08382C2.21719 2.19174 1.98375 2.19174 1.84313 2.12757C1.63781 2.03424 1.62656 1.75424 1.68 1.66091L2.25094 1.06299C2.29032 0.992989 2.30719 0.794655 2.06532 0.785905C1.81219 0.765489 1.72219 1.12424 1.67719 1.24382C1.61813 1.11257 1.55063 0.750905 1.29469 0.771322C1.05281 0.780072 1.00781 0.975489 1.04719 1.04841L1.62938 1.66091C1.68563 1.75424 1.67438 2.03424 1.46906 2.12757C1.32844 2.19466 1.095 2.18882 0.988125 2.08674C0.92625 2.04591 0.8925 1.96716 0.898125 1.89716C0.90375 1.82716 1.01344 1.56174 0.867188 1.43049C1.01344 1.48007 1.0275 1.45966 1.15969 1.37216C0.974063 1.60257 0.988125 1.61132 1.01344 1.75132C1.14844 1.70466 1.35094 1.72216 1.35094 1.78341C1.35094 1.84466 1.29469 1.94674 1.21313 1.90591C1.13438 1.86507 1.26938 1.81549 1.17375 1.81549C1.08094 1.81549 1.01344 1.83591 1.01344 1.90299C1.01344 1.97007 1.10625 2.05757 1.24125 2.05757C1.37625 2.05757 1.53656 1.98757 1.50844 1.73382C1.48031 1.48007 0.889688 1.20591 0.889688 1.03382C0.889688 0.858822 0.929063 0.651739 1.31719 0.651739C1.57031 0.631322 1.60125 0.785905 1.69406 0.879239Z" fill="#FFE400"/>
<path d="M12.4176 6.50573C12.4176 5.11915 11.2739 3.99512 9.8631 3.99512C8.45229 3.99512 7.30859 5.11915 7.30859 6.50573C7.30859 7.8923 8.45229 9.01633 9.8631 9.01633C11.2739 9.01633 12.4176 7.8923 12.4176 6.50573Z" fill="#FFE400"/>
<path fill-rule="evenodd" clip-rule="evenodd" d="M9.74325 2.49774C9.71924 2.49774 9.60517 3.33201 9.56315 3.51879C9.52112 3.93904 10.1035 3.92347 10.0074 3.50323L9.74325 2.49463V2.49774ZM9.94737 10.5852C9.96839 10.5852 10.1425 9.76026 10.1995 9.5766C10.2686 9.16258 9.68622 9.14079 9.74926 9.56415L9.94737 10.5852ZM5.87695 6.48855C5.87695 6.51034 6.71445 6.68467 6.90056 6.7407C7.32081 6.8123 7.35083 6.24263 6.91857 6.30488L5.87695 6.49166V6.48855ZM14.0328 6.58816C14.0328 6.56637 13.1863 6.42318 12.9972 6.37337C12.5739 6.32045 12.5709 6.89012 12.9972 6.8123L14.0328 6.58816ZM6.73546 3.84254C6.72045 3.8581 7.27278 4.5056 7.38385 4.66436C7.67202 4.97565 8.05325 4.53984 7.67202 4.32816L6.73546 3.84565V3.84254ZM13.0722 9.16569C13.0872 9.15013 12.4809 8.55244 12.3548 8.40613C12.0396 8.11974 11.7004 8.58357 12.0967 8.76412L13.0722 9.1688V9.16569ZM7.99922 2.93978C7.9812 2.94912 8.23936 3.75226 8.28138 3.94215C8.42547 4.3375 8.94778 4.07912 8.67762 3.73981L8.00222 2.93978H7.99922ZM11.6944 10.1743C11.7154 10.1649 11.5143 9.34624 11.4873 9.15635C11.3702 8.75167 10.8329 8.96957 11.076 9.33068L11.6974 10.1712L11.6944 10.1743ZM12.604 3.50011C12.5859 3.48455 11.9195 4.01686 11.7575 4.1227C11.4363 4.40287 11.8715 4.78265 12.0937 4.41221L12.604 3.50011ZM7.11069 9.5299C7.1257 9.54547 7.83112 9.06296 7.99922 8.96646C8.33842 8.7112 7.93318 8.30029 7.68403 8.65517L7.11369 9.5299H7.11069ZM6.06006 5.04414C6.05106 5.06282 6.78049 5.50174 6.93959 5.61692C7.31481 5.81926 7.53394 5.29006 7.10468 5.20601L6.06006 5.04414ZM13.6756 8.10729C13.6846 8.08861 12.9852 7.59987 12.8351 7.47536C12.4749 7.245 12.2197 7.75863 12.643 7.8707L13.6756 8.10729ZM11.2562 2.72499C11.2351 2.71876 10.8179 3.45342 10.7068 3.61218C10.707 3.66288 10.7225 3.71224 10.7512 3.75334C10.7798 3.79443 10.8201 3.82521 10.8664 3.84134C10.9128 3.85748 10.9628 3.85817 11.0096 3.84331C11.0563 3.82845 11.0974 3.79879 11.1271 3.75849L11.2562 2.72499ZM8.43748 10.3299C8.45849 10.3393 8.92677 9.63263 9.04684 9.4801C9.26597 9.119 8.73465 8.88864 8.63559 9.30577L8.43748 10.3299ZM6.11109 8.17266C6.1201 8.19133 6.95159 7.98588 7.14671 7.95475C7.55495 7.83646 7.32682 7.31348 6.9666 7.55629L6.11109 8.17266ZM13.6786 4.97565C13.6726 4.95698 12.8291 5.10328 12.634 5.12196C12.2137 5.21224 12.4088 5.75078 12.7841 5.53287L13.6786 4.97565Z" fill="#FFE400"/>
<path fill-rule="evenodd" clip-rule="evenodd" d="M10.5718 2.55048C10.5508 2.54736 10.2687 3.34117 10.1846 3.51549C10.0615 3.92018 10.6349 4.01979 10.6259 3.5902L10.5748 2.54736L10.5718 2.55048ZM9.11597 10.5165C9.13699 10.5227 9.47619 9.74762 9.57224 9.57641C9.72233 9.18418 9.158 9.04721 9.13699 9.47368L9.11297 10.5165H9.11597ZM8.8248 2.6283C8.80379 2.63453 8.88184 3.47502 8.88184 3.66803C8.93887 4.08205 9.5002 3.93885 9.31409 3.55285L8.8248 2.6283ZM10.866 10.4698C10.887 10.4667 10.866 9.62311 10.881 9.4301C10.854 9.00985 10.2807 9.11569 10.4428 9.51415L10.863 10.4698H10.866ZM7.37795 3.3256C7.35994 3.33805 7.75917 4.08205 7.83422 4.25949C8.05034 4.6237 8.51562 4.28128 8.18843 3.99177L7.37795 3.3256ZM12.3249 9.79743C12.3429 9.78498 11.9947 9.01297 11.9346 8.83241C11.7455 8.45575 11.2592 8.76704 11.5624 9.07523L12.3249 9.79743ZM6.32132 4.37155C6.30931 4.39023 6.9547 4.94434 7.08978 5.08753C7.42297 5.34902 7.73216 4.8634 7.32391 4.71087L6.32132 4.37155ZM13.3515 8.72035C13.3635 8.70167 12.7601 8.10398 12.6341 7.95456C12.3219 7.67128 11.9797 8.13511 12.3759 8.31566L13.3515 8.72035ZM5.85905 5.67588C5.85304 5.69767 6.64851 6.01208 6.82262 6.10236C7.22486 6.24244 7.35393 5.68522 6.91567 5.67277L5.85905 5.67588ZM13.8858 7.47517C13.8948 7.45649 13.1233 7.08916 12.9552 6.98643C12.565 6.81833 12.3939 7.36621 12.8292 7.4098L13.8858 7.47517ZM5.83203 7.27905C5.83503 7.29773 6.69354 7.28528 6.88866 7.30084C7.31491 7.27905 7.21285 6.71561 6.80461 6.86814L5.83203 7.27905ZM13.9428 5.87822C13.9428 5.85643 13.0843 5.80974 12.8922 5.78172C12.463 5.7755 12.526 6.34517 12.9432 6.21753L13.9428 5.87511V5.87822ZM6.56747 8.94137C6.57947 8.96005 7.34793 8.58027 7.52803 8.50867C7.90026 8.30633 7.55805 7.8425 7.26088 8.1569L6.56747 8.94137ZM13.2404 4.20034C13.2284 4.18166 12.4389 4.50852 12.2498 4.56767C11.8626 4.74511 12.1718 5.23073 12.49 4.93811L13.2404 4.20034ZM7.8162 10.0434C7.83422 10.0527 8.38354 9.4052 8.52162 9.26823C8.78278 8.93514 8.28148 8.64564 8.13439 9.05032L7.8162 10.0434ZM12.0097 3.07657C11.9947 3.06411 11.4003 3.67114 11.2532 3.79877C10.9711 4.11318 11.4514 4.43693 11.6255 4.04469L12.0067 3.07657H12.0097Z" fill="#FFE400"/>
<path fill-rule="evenodd" clip-rule="evenodd" d="M5.9572 8.17541C6.00305 8.33595 6.0096 9.23499 6.93331 10.1019C7.85046 10.9624 9.42271 11.1551 9.42271 11.1551C9.42271 11.1551 9.42926 11.2771 9.3179 11.2835C9.20653 11.2964 8.66934 11.1872 8.40075 11.1037C8.1387 11.0266 7.90286 10.8854 7.87666 10.8918C7.8439 10.9046 7.7915 10.9945 7.71288 10.9817C7.63427 10.9689 7.25431 10.5835 7.08398 10.4808C6.7433 10.1921 6.44169 9.86196 6.18648 9.49828C6.00305 9.20931 5.9572 9.01665 5.89824 9.01665C5.83928 9.01665 5.62309 9.15793 5.62309 9.15793C5.62309 9.15793 5.42656 8.86896 5.25623 8.40659C5.07935 7.94423 5.09901 7.67452 5.13831 7.65525C5.18417 7.63599 5.18417 7.9956 5.31519 8.32311C5.44621 8.65704 5.62964 8.75979 5.62964 8.75979C5.62964 8.75979 5.51172 8.5864 5.42001 8.15615C5.32829 7.72589 5.28899 7.30848 5.3545 7.18005C5.42001 7.05161 5.47897 7.01308 5.48552 7.01951C5.49862 7.03235 5.37415 7.21858 5.45931 7.71305C5.54448 8.20752 5.77377 8.62493 5.82617 8.60567C5.87858 8.5864 5.79342 8.48365 5.76066 8.19468C5.72791 7.9057 5.79342 7.72589 5.86548 7.70021C5.89824 7.67452 5.95064 8.02129 5.9572 8.17541ZM5.31519 8.99739C5.13831 8.83685 4.86317 8.27816 4.80421 8.30385C4.7387 8.33595 5.24968 9.13867 5.26278 9.20288C5.27588 9.27994 5.38725 9.49828 5.30209 9.46617C5.21692 9.43407 4.60767 8.80474 4.67974 8.92675C4.7518 9.04876 5.21037 9.60103 5.18417 9.63314C5.15796 9.66525 4.80421 9.3249 4.7911 9.36985C4.78455 9.40838 5.13831 9.74231 5.13176 9.78084C5.12521 9.81937 4.90247 9.56892 4.90247 9.62029C4.90247 9.67167 5.13176 9.92212 5.13176 9.96065C5.13176 9.99918 4.93523 9.78084 5.00074 9.89643C5.0597 10.0249 5.23003 10.134 5.22347 10.1726C5.21692 10.2111 5.07935 10.1212 5.07935 10.1405C5.07935 10.1597 5.33484 10.2496 5.3938 10.3203C5.45931 10.3909 5.87858 10.8661 6.19303 11.1037C6.50749 11.3413 7.41153 11.7587 7.47704 11.7587C7.536 11.7587 7.62772 11.6303 7.60807 11.5789C7.58841 11.5275 6.70402 11.2321 6.46163 11.0138C6.21269 10.7955 5.60999 10.2689 5.55758 10.2432C5.51172 10.2111 5.37415 10.2239 5.37415 10.1918C5.37415 10.1597 5.55103 10.2111 5.53793 10.1918C5.53138 10.1726 5.29554 10.0698 5.30209 10.0505C5.31519 10.0313 5.46587 10.0891 5.46587 10.0698C5.46587 10.0505 5.19072 9.90285 5.20382 9.87074C5.21037 9.83863 5.40691 9.96064 5.40691 9.93496C5.40691 9.92211 5.14486 9.74231 5.15141 9.7102C5.15796 9.67809 5.3545 9.85148 5.34794 9.81295C5.34139 9.77442 5.19072 9.55608 5.19072 9.53039C5.19072 9.49828 5.42656 9.74873 5.45276 9.69736C5.46586 9.6524 5.3676 9.23499 5.37415 9.22857C5.3807 9.22215 5.55103 9.31847 5.57723 9.26068C5.60999 9.19646 5.45931 9.11298 5.31519 8.99739ZM8.33523 12.1569C8.21076 12.1761 8.15181 12.1312 8.22387 12.0284C8.32213 12.0284 8.58418 11.945 8.67589 11.9064C8.76761 11.8679 8.86587 11.8165 8.94449 11.7459C9.0231 11.6624 9.07551 11.7908 9.02965 11.8615C8.99689 11.9064 8.84622 11.9899 8.73485 12.0349C8.57107 12.0862 8.42695 12.1633 8.33523 12.1569ZM9.15412 11.8294C9.06895 11.7395 9.14102 11.6752 9.26549 11.6046C9.44892 11.5083 9.39651 11.3734 9.63235 11.2643C9.73717 11.2 11.2046 10.6221 11.6828 10.3138C12.1611 10.0056 13.504 9.01023 13.8643 8.32311C14.2181 7.64241 14.0478 7.59104 14.1002 7.56535C14.146 7.53324 14.1984 7.66168 14.1919 7.8158C14.1788 7.9635 14.0609 8.41301 14.1002 8.45797C14.1395 8.50292 14.6374 8.10477 14.847 7.62315C15.0566 7.14152 15.2139 6.64062 15.3121 6.64062C15.4169 6.64062 15.1418 7.4626 14.9649 7.78369C14.7946 8.10477 14.5915 8.26532 14.6374 8.33595C14.6898 8.40017 15.2008 7.98276 15.3776 7.67452C15.548 7.35986 15.7117 7.08372 15.7445 7.14152C15.6924 7.51769 15.5411 7.87405 15.3056 8.17541C15.0304 8.48365 14.7029 8.70841 14.7553 8.75336C14.8011 8.80474 15.1746 8.85611 15.5611 8.59924C15.9541 8.33595 15.9934 7.95707 16.0393 7.97634C16.0917 7.9956 15.9934 8.51576 15.62 8.83685C15.2466 9.15793 14.7553 9.19004 14.7684 9.26068C14.7946 9.3249 15.8362 8.96528 15.8166 9.04876C15.7969 9.12582 14.467 9.63956 14.4539 9.69093C14.4539 9.72946 14.6832 9.74231 15.0435 9.65882C15.3973 9.58176 15.7379 9.30563 15.7838 9.36985C15.7969 9.45975 15.5283 9.67809 15.1221 9.78084C14.7094 9.88358 14.5063 10.0184 14.4932 10.0505C14.4867 10.0827 15.227 9.96064 15.227 9.99917C15.227 10.0377 14.2574 10.2239 14.2509 10.2753C14.2378 10.3203 15.168 10.0891 15.1549 10.1469C15.1287 10.1918 13.8905 10.5514 13.9036 10.5707C13.9102 10.5964 14.9387 10.3524 14.9191 10.3909C14.8929 10.4359 13.1896 10.9046 13.1765 10.9367C13.1634 10.9624 14.6832 10.6028 14.6701 10.6349C14.657 10.667 13.884 10.8533 13.884 10.8725C13.884 10.8918 14.5063 10.7762 14.4932 10.8083C14.4867 10.834 12.921 11.2257 12.8882 11.2835C12.8555 11.3477 13.7006 11.123 13.6875 11.2386C13.6744 11.3542 11.8728 11.945 11.8663 11.8358C11.8532 11.7266 12.9603 11.4505 12.9537 11.4184C12.9406 11.3863 12.3183 11.4826 12.3052 11.4248C12.2986 11.3606 12.7179 11.2321 12.6851 11.2065C12.6524 11.1743 12.3379 11.2964 12.3641 11.2257C12.3969 11.1551 12.993 10.8854 12.9799 10.8661C12.9734 10.8468 12.7638 10.9303 12.7834 10.8661C12.8096 10.7955 14.074 10.4359 14.0543 10.3909C14.0347 10.3524 13.4713 10.4808 13.4189 10.4936C13.3992 10.4551 14.205 10.1597 14.1919 10.1083C14.1657 10.0634 13.7595 10.2817 13.7333 10.2239C13.7202 10.1597 14.4474 9.88358 14.4015 9.83863C14.3557 9.79368 14.0281 9.95422 13.9823 9.90927C13.9364 9.86432 14.6701 9.36985 14.5588 9.357C14.4474 9.35058 14.3098 9.51113 14.2967 9.40838C14.3098 9.27994 14.8667 9.06803 14.7422 8.96528C14.5457 8.90749 13.884 9.01023 13.6088 9.17078C13.3337 9.33132 12.4166 10.2239 12.1938 10.3652C11.9711 10.5001 11.2112 10.8147 11.067 10.8789C10.8443 10.956 10.805 11.0716 10.5757 11.1872C10.163 11.2964 10.1695 11.4184 9.973 11.489C9.90094 11.5083 9.16067 11.855 9.15412 11.8294ZM8.11905 12.2789C7.99458 12.3431 7.88321 12.4972 7.95527 12.5614C7.99458 12.6385 8.11905 12.388 8.21732 12.4009L8.7414 12.4266C9.0231 12.4458 9.16067 12.3688 9.3179 12.3816C9.47512 12.3945 9.82233 12.2981 9.98611 12.2981C10.1499 12.2981 10.1826 12.3174 10.1957 12.2468C10.2154 12.1826 9.68476 12.2275 9.44892 12.2211C9.21308 12.2082 8.91828 12.266 8.7414 12.266C8.57763 12.2596 8.29593 12.2082 8.11905 12.2789Z" fill="#FFE400"/>
<path d="M8.90437 12.2018C8.90437 12.1486 8.85451 12.1055 8.79301 12.1055C8.7315 12.1055 8.68164 12.1486 8.68164 12.2018C8.68164 12.255 8.7315 12.2981 8.79301 12.2981C8.85451 12.2981 8.90437 12.255 8.90437 12.2018Z" fill="#FFE400"/>
<path fill-rule="evenodd" clip-rule="evenodd" d="M11.5195 12.0156C11.6309 11.9963 11.9323 12.099 12.1419 12.144C12.5219 12.2917 13.2294 12.2211 13.2294 12.2917C13.2294 12.3623 13.1835 12.4458 13.0197 12.4587C12.856 12.4715 12.4432 12.3944 12.4563 12.3944C12.4694 12.3944 12.7839 12.5421 12.6922 12.5807C12.6005 12.6192 12.3319 12.4972 12.286 12.5293C12.2402 12.5614 12.535 12.6192 12.4825 12.6385C12.4432 12.6577 12.2402 12.6128 12.1746 12.6192C12.1091 12.632 12.2271 12.7027 12.1484 12.7284C12.0698 12.7605 11.9388 12.6898 11.8864 12.7091C11.8274 12.7284 12.0043 12.8375 11.9257 12.8504C11.8471 12.8632 11.6637 12.799 11.5588 12.7862C11.454 12.7862 11.6571 12.8889 11.5916 12.9018C11.5261 12.9082 11.3427 12.8183 11.2968 12.8183C11.2509 12.8183 11.2968 12.9467 11.2313 12.9467C11.1658 12.9467 11.0872 12.8375 11.0479 12.8375C11.0085 12.8375 11.0479 12.966 10.9823 12.966C10.9168 12.966 10.8906 12.8311 10.8382 12.8375C10.7727 12.8504 10.8382 13.0109 10.7465 12.9981C10.6613 12.9917 10.6482 12.8311 10.5762 12.8375C10.5107 12.8504 10.5893 12.9981 10.5238 12.9981C10.4583 12.9981 10.4452 12.8504 10.3796 12.8375C10.3141 12.8311 10.3403 12.9788 10.301 12.9788C10.2617 12.9788 10.2224 12.8375 10.1962 12.8375C10.1766 12.8375 10.1962 12.9788 10.1176 12.966C10.039 12.9531 10.039 12.8119 10.0193 12.8183C9.99313 12.8311 9.99313 12.9339 9.94072 12.9339C9.88831 12.9339 9.88176 12.8311 9.86211 12.844C9.8359 12.8504 9.75729 12.9788 9.70488 12.9596C9.64592 12.9403 9.71798 12.8375 9.69178 12.8375C9.66557 12.8375 9.60006 12.9082 9.56076 12.9018C9.52145 12.8953 9.56075 12.8119 9.54765 12.8119C9.53455 12.8119 9.43628 12.8632 9.39043 12.8632C9.34457 12.8632 9.2201 12.9274 9.18734 12.8697C9.15459 12.8054 9.27251 12.8054 9.29871 12.7476C9.31837 12.6898 9.2332 12.5165 9.32492 12.4587C9.41008 12.3944 9.69178 12.5421 10.111 12.4394C10.871 12.2403 11.4606 12.0091 11.5195 12.0156Z" fill="#FFE400"/>
</g>
<defs>
<clipPath id="clip0">
<path d="M0 0.5H18V14.5H0V0.5Z" fill="white"/>
</clipPath>
</defs>
</svg>
