<?xml version="1.0" encoding="UTF-8"?>
<svg width="118px" height="58px" viewBox="0 0 118 58" version="1.1" xmlns="http://www.w3.org/2000/svg" xmlns:xlink="http://www.w3.org/1999/xlink">
    <!-- Generator: Sketch 51.1 (57501) - http://www.bohemiancoding.com/sketch -->
    <title>amcham</title>
    <desc>Created with Sketch.</desc>
    <defs>
        <linearGradient x1="0%" y1="50.0001245%" x2="100%" y2="50.0001245%" id="linearGradient-1">
            <stop stop-color="#72C7F9" offset="0%"></stop>
            <stop stop-color="#385CF4" offset="100%"></stop>
        </linearGradient>
    </defs>
    <g id="home-L-4" stroke="none" stroke-width="1" fill="none" fill-rule="evenodd">
        <g id="DM_home_1320_l_1" transform="translate(-1158.000000, -11158.000000)">
            <g id="Stacked-Group" transform="translate(0.000000, 7447.000000)">
                <g id="association" transform="translate(164.000000, 3597.000000)">
                    <g id="amcham" transform="translate(994.000000, 114.000000)">
                        <g id="AmCham">
                            <path d="M41,27.7645598 L42.833191,30 C42.833191,30 52.2541987,22.2360518 64.1141475,20.833894 L64.1141475,23.9026166 L69,15.0009175 C69,15.0009175 48.715343,14.6483749 41,27.7645598" id="Shape" fill="#000000" fill-rule="nonzero"></path>
                            <path d="M57.9135197,0 L64,8.55981863 C64,8.55981863 45.6860767,8.63201953 37.9339867,23 L37,20.2804325 C37,20.2804325 38.7356587,7.91001046 57.6955895,2.85594698 L57.9135197,0 Z" id="Shape" fill="#000000" fill-rule="nonzero"></path>
                            <path d="M40,27.7645512 L41.8347578,30 C41.8347578,30 51.2478632,22.2360217 63.1339031,20.8338585 L63.1339031,23.9025929 L68,15.0008593 C68,15.0008593 47.7219373,14.6563278 40,27.7645512" id="Shape" fill="#D80118"></path>
                            <path d="M57.9135197,0 L64,8.55981863 C64,8.55981863 45.6938599,8.63201953 37.9339867,23 L37,20.2804325 C37,20.2804325 38.7356587,7.91001046 57.6955895,2.85594698 L57.9135197,0 Z" id="Shape" fill="#D80100" fill-rule="nonzero"></path>
                            <path d="M71.2888563,45 L71.2888563,45.1263823 C71.1295155,45.1310533 70.9735791,45.1771199 70.8343109,45.2606635 C70.5598989,45.4682515 70.3132195,45.715422 70.101173,45.9952607 C69.7588411,46.4179533 69.3915063,46.8163617 69.0014663,47.1879937 L70.6656891,49.0442338 C70.8680488,49.2858544 71.0942086,49.5030356 71.340176,49.6919431 C71.5082692,49.8087125 71.7047141,49.8691844 71.9046921,49.8657188 L72,49.8657188 L72,50 L69.71261,50 L69.71261,49.8657188 C69.9692082,49.8657188 70.101173,49.7867299 70.101173,49.6129542 C70.101173,49.4391785 70.0278592,49.4075829 69.8958944,49.2496051 L68.3489736,47.5197472 L68.3489736,49.028436 C68.3305088,49.209566 68.3305088,49.3923298 68.3489736,49.5734597 C68.3798641,49.6644544 68.4432069,49.7383877 68.5249267,49.778831 C68.652829,49.8445006 68.7940293,49.8743834 68.9354839,49.8657188 L68.9354839,50 L67,50 L67,49.8657188 C67.1503223,49.8763533 67.3008872,49.8493167 67.4398827,49.7867299 C67.5248833,49.7488018 67.5913232,49.6743555 67.6231672,49.5813586 C67.645774,49.3978558 67.645774,49.2119388 67.6231672,49.028436 L67.6231672,45.9636651 C67.6456597,45.77751 67.6456597,45.5889987 67.6231672,45.4028436 C67.5882557,45.3138269 67.5225038,45.2429851 67.4398827,45.2053712 C67.3008872,45.1427844 67.1503223,45.1157478 67,45.1263823 L67,45 L69.0087977,45 L69.0087977,45.1263823 C68.8608886,45.1164029 68.7128425,45.1434379 68.5762463,45.2053712 C68.4954787,45.2432476 68.4321238,45.3143509 68.4002933,45.4028436 C68.361904,45.5867386 68.3471034,45.775437 68.356305,45.9636651 L68.356305,47.4249605 C68.7257318,47.0901972 69.0781488,46.734231 69.4120235,46.3586098 C69.8519062,45.8767773 70.0718475,45.5687204 70.0718475,45.3554502 C70.0718475,45.1421801 69.9472141,45.1342812 69.6832845,45.1263823 L69.6832845,45 L71.2888563,45 Z" id="Shape" fill="#D80118"></path>
                            <path d="M73,47 L74.3243902,47 L74.3243902,47.1271772 C74.2323397,47.1256115 74.1415184,47.1502764 74.0609756,47.1987143 C74.0017003,47.2430774 73.9705501,47.3199835 73.9804878,47.3974286 C73.9837546,47.4984611 74.0035769,47.5980517 74.0390244,47.6915258 L74.7707317,49.5435431 L75.2682927,48.0015201 C75.3464498,47.7931198 75.4076591,47.5776856 75.4512195,47.3576857 C75.4512195,47.2305086 75.3487805,47.1589714 75.1439024,47.1351257 L75.1439024,47.0079486 L76,47.0079486 L76,47.1351257 C75.9085479,47.1495676 75.8279335,47.2079488 75.7804878,47.2940972 C75.6720198,47.5211786 75.5814521,47.7578321 75.5097561,48.0015201 L74.704878,50.5371146 C74.596399,50.960416 74.4096757,51.3552748 74.1560976,51.6976061 C74.0029469,51.8837863 73.7858636,51.9930681 73.5560976,51.9996519 C73.444639,52.0041674 73.3354533,51.9646311 73.2487805,51.8883718 C73.1695,51.8184298 73.1237417,51.7131671 73.1243902,51.6022233 C73.1202126,51.5086973 73.1551745,51.4181315 73.2195122,51.3558175 C73.2847886,51.2898145 73.3719184,51.2553965 73.4609756,51.2604347 C73.5641768,51.2719494 73.6639441,51.3071722 73.7536585,51.3637661 C73.8001415,51.3855173 73.849563,51.398939 73.9,51.4035089 C74.0902439,51.4035089 74.2585366,51.1571032 74.4195122,50.6642917 L74.5146341,50.362246 L73.4902439,47.7312686 C73.3439024,47.3656343 73.1829268,47.1828172 73,47.16692 L73,47 Z" id="Shape" fill="#D80118"></path>
                            <path d="M76.9215686,47.0805369 L76.9215686,47.9127517 C77.0126188,47.6783997 77.1344868,47.4690753 77.2810458,47.295302 C77.3811258,47.1622043 77.5141202,47.0855363 77.6535948,47.0805369 C77.7461351,47.0830772 77.8337375,47.1381842 77.8954248,47.2326622 C77.9607748,47.3198613 77.9983545,47.4388427 78,47.5637584 C77.9994966,47.6557128 77.9710841,47.7432386 77.9215686,47.8053691 C77.8804608,47.8817899 77.8143676,47.9253592 77.745098,47.9217002 C77.6517236,47.9087539 77.5653584,47.8480335 77.503268,47.7516779 C77.4622359,47.6878177 77.4072035,47.6438656 77.3464052,47.6263982 C77.2648081,47.6302642 77.1884721,47.682521 77.1372549,47.7695749 C77.0487474,47.8923378 76.9758478,48.0344899 76.9215686,48.1901566 L76.9215686,50.0872483 C76.9028229,50.3051418 76.9372963,50.5254017 77.0196078,50.7136465 C77.1368872,50.821046 77.2780167,50.8685602 77.4183007,50.8478747 L77.4183007,51 L76,51 L76,50.8478747 C76.1196488,50.861646 76.2380759,50.8065178 76.3267974,50.6957494 C76.4085948,50.5138191 76.4431394,50.2994102 76.4248366,50.0872483 L76.4248366,48.2975391 C76.4410219,48.1040617 76.4160568,47.908301 76.3529412,47.7337808 C76.3106048,47.6654805 76.2484356,47.6261954 76.1830065,47.6263982 C76.1332611,47.6147116 76.0824252,47.6147116 76.0326797,47.6263982 L76.0326797,47.4832215 L76.8235294,47 L76.9215686,47.0805369 Z" id="Shape" fill="#D80118"></path>
                            <path d="M79.806846,47.9313978 C79.8025713,48.2396735 79.8653651,48.5447589 79.99022,48.8223264 C80.0739852,49.0407336 80.269317,49.1858539 80.4889976,49.1928897 C80.6346933,49.1921363 80.7677663,49.1038778 80.8337408,48.9642443 C80.9246398,48.7887343 80.9678456,48.5893078 80.9584352,48.3886886 C80.9614548,48.1142568 80.9009612,47.8433222 80.7823961,47.6002562 C80.6986635,47.3899438 80.5108346,47.249228 80.2982885,47.2375773 C80.153546,47.2344122 80.0175812,47.3119601 79.9388753,47.4425697 C79.8473463,47.5831682 79.8009911,47.7520265 79.806846,47.9235135 L79.806846,47.9313978 Z M79.806846,50.4307286 C79.6442366,50.5982644 79.5405717,50.8211224 79.5134474,51.0614745 C79.5134474,51.242814 79.6234719,51.3768475 79.8508557,51.4635751 C80.0854181,51.5571137 80.3342105,51.6025762 80.5843521,51.5976086 C80.8689495,51.6101432 81.1510881,51.5363749 81.398533,51.3847318 C81.5812199,51.28665 81.7014223,51.0913399 81.7139364,50.8722507 C81.7139773,50.7587459 81.654342,50.6549622 81.5599022,50.6041837 C81.2761283,50.5188993 80.9812529,50.4842734 80.6870416,50.5016875 C80.380343,50.5069471 80.0737438,50.4858551 79.7701711,50.4386129 L79.806846,50.4307286 Z M81.1344743,47.2769989 L81.8679707,47.2769989 C81.9486553,47.2769989 82,47.3164205 82,47.3952637 L82,47.474107 C82,47.5371816 81.9559902,47.5687189 81.8826406,47.5687189 L81.4132029,47.5687189 C81.6778859,48.0589682 81.5791549,48.6824564 81.1784841,49.0509718 C80.9616179,49.267059 80.6745672,49.3831189 80.3789731,49.3742291 C80.237042,49.3738448 80.0960167,49.3499099 79.9608802,49.3032702 C79.8865061,49.3735377 79.8200392,49.452921 79.7628362,49.5397999 C79.7240147,49.5975167 79.701133,49.6658372 79.6968215,49.736908 C79.6968215,49.8236356 79.7408313,49.8788259 79.8361858,49.9103632 C80.0017904,49.93279 80.1693587,49.93279 80.3349633,49.9103632 L80.8630807,49.9103632 C81.139235,49.8855168 81.4146605,49.9665126 81.6405868,50.1390086 C81.7907605,50.2638115 81.8798593,50.4553553 81.8826406,50.659374 C81.8774836,51.0558576 81.6762485,51.4193731 81.3545232,51.6133772 C81.0202255,51.8619188 80.6240651,51.9965365 80.2176039,51.9997091 C79.9211105,52.0053327 79.6282074,51.9293367 79.3667482,51.778948 C79.1173594,51.6291459 79,51.4793437 79,51.3137729 C79.0043199,51.2012465 79.0373039,51.0921559 79.0953545,50.9983999 C79.2542166,50.774458 79.4256866,50.5611821 79.608802,50.3597697 C79.3887531,50.2809264 79.2860636,50.1626616 79.2860636,50.0049751 C79.2897117,49.8678982 79.3333299,49.7355169 79.4107579,49.6265275 C79.5231937,49.4627111 79.6565324,49.3167316 79.806846,49.1928897 C79.6376452,49.0991419 79.4955809,48.9573451 79.396088,48.7829048 C79.154016,48.3152151 79.2320384,47.7313782 79.5867971,47.3558421 C79.8063355,47.1158399 80.1101273,46.9869407 80.4229829,47.0010475 C80.5420872,47.0027545 80.6604639,47.0213107 80.7750611,47.0562378 C80.8932379,47.0994854 81.0027409,47.1663629 81.0977995,47.2533459 L81.1344743,47.2769989 Z" id="Shape" fill="#D80118"></path>
                            <path d="M83.0145631,47 L84.3325243,47 L84.3325243,47.1271796 C84.2409206,47.1256139 84.1505402,47.1502793 84.0703883,47.1987182 C84.0138975,47.2452868 83.9835776,47.3205095 83.9902913,47.3974363 C83.9935422,47.4984708 84.0132683,47.5980633 84.0485437,47.6915392 L84.776699,49.5435924 L85.2718447,48.0015395 C85.3500295,47.7905658 85.410947,47.5724488 85.4538835,47.3497439 C85.4538835,47.2225643 85.3519417,47.1510258 85.1480583,47.1271796 L85.1480583,47 L86,47 L86,47.1271796 C85.9089919,47.1416218 85.8287688,47.2000041 85.7815534,47.2861541 C85.6769645,47.514929 85.5869453,47.7513013 85.5121359,47.9935908 L84.711165,50.5371831 C84.6032126,50.9604928 84.4173958,51.3553592 84.1650485,51.6976971 C84.0131741,51.8846642 83.7968149,51.9941149 83.5679612,51.9997487 C83.4571382,52.003551 83.3487044,51.9640947 83.2621359,51.8884666 C83.1804724,51.8209337 83.1342404,51.7140602 83.1383495,51.6023124 C83.1341922,51.5087847 83.1689843,51.4182171 83.2330097,51.3559019 C83.2991961,51.2921187 83.3850428,51.2580415 83.473301,51.2605172 C83.5760011,51.2720322 83.6752842,51.3072557 83.7645631,51.3638506 C83.8108204,51.3856023 83.860002,51.3990243 83.9101942,51.4035943 C84.0995146,51.4035943 84.2669903,51.1571838 84.4271845,50.6643627 L84.5291262,50.3623112 L83.4878641,47.6915392 C83.342233,47.3258978 83.1820388,47.1430771 83,47.1271796 L83.0145631,47 Z" id="Shape" fill="#D80118"></path>
                            <path d="M86.2063037,47 L89,47 L89,47.1191589 L86.765043,49.7897196 L88.0200573,49.7897196 C88.252166,49.8130999 88.4850621,49.751508 88.6561605,49.6214953 C88.7796606,49.4705237 88.8399683,49.2910308 88.8280802,49.1098131 L88.9570201,49.1098131 L88.9570201,50 L86,50 L86,49.8808411 L88.226361,47.2242991 L87.0057307,47.2242991 C86.843011,47.2109589 86.680155,47.2485427 86.5501433,47.3294393 C86.4381563,47.4668672 86.3756216,47.627128 86.3696275,47.7920561 L86.2492837,47.7920561 L86.2063037,47 Z" id="Shape" fill="#D80118"></path>
                            <path d="M92.4644013,45.4084794 L92.4644013,47.4325288 C93.5647249,47.4325288 94.0825243,47.0781232 94.0825243,46.3535608 C94.0902996,46.0619178 93.979861,45.7790106 93.7750809,45.5659929 C93.5669457,45.3482727 93.2712592,45.2302619 92.9660194,45.2430901 C92.7749329,45.249092 92.5873649,45.2947382 92.4158576,45.3769766 L92.4644013,45.4084794 Z M93.710356,47.574291 L94.8106796,48.9761618 C94.9912732,49.221828 95.2003072,49.4464495 95.433657,49.6455945 C95.597103,49.7687085 95.7939589,49.8426215 96,49.8582378 L96,49.9921243 L94.7783172,49.9921243 L92.933657,47.6294207 L92.4644013,47.6294207 L92.4644013,49.0312915 C92.4440242,49.2118891 92.4440242,49.3941158 92.4644013,49.5747134 C92.5013227,49.6637264 92.5703749,49.7365456 92.6585761,49.779481 C92.7993822,49.8459579 92.9554745,49.8758043 93.1116505,49.8661135 L93.1116505,50 L91,50 L91,49.8661135 C91.1479258,49.870261 91.2947901,49.8405895 91.4288026,49.779481 C91.5184582,49.7384532 91.5881255,49.6649853 91.6229773,49.5747134 C91.6579442,49.3956973 91.6715188,49.2133446 91.6634304,49.0312915 L91.6634304,45.9755282 C91.6822214,45.8001136 91.6822214,45.6232723 91.6634304,45.4478577 C91.6320312,45.3629627 91.5721816,45.2908318 91.4935275,45.2430901 C91.3797983,45.1801768 91.2520938,45.1450452 91.1213592,45.1407063 L91.0323625,45.1407063 L91.0323625,45.0068197 L93.2572816,45.0068197 C93.7327358,44.966291 94.2057239,45.107525 94.5760518,45.4006037 C94.8350986,45.6341364 94.9818135,45.9626161 94.9805825,46.3063067 C95.0210356,46.936361 94.5760518,47.3616477 93.7588997,47.5821667 L93.710356,47.574291 Z" id="Shape" fill="#D80118"></path>
                            <path d="M98.1965942,48.2626945 C98.2039136,48.0034096 98.1221765,47.7494157 97.964933,47.5428188 C97.8340904,47.3769161 97.6330137,47.2815657 97.4214203,47.2850856 C97.1984321,47.2845821 96.9865536,47.3821231 96.8422673,47.5517062 C96.6745649,47.7521029 96.577518,48.0019088 96.566056,48.2626945 L98.1965942,48.2626945 Z M98.9984983,49.5513609 C98.9384491,49.9526495 98.7547292,50.3253654 98.4728056,50.6178435 C98.2220971,50.8609035 97.8868653,50.9978393 97.5372509,50.9999997 C97.118075,51.0002784 96.7214583,50.8106488 96.4591354,50.4845331 C96.1316582,50.075175 95.9695634,49.5584266 96.0047231,49.0358944 C95.9816925,48.5107764 96.1388376,47.9935181 96.4502254,47.5694809 C96.7249178,47.1988381 97.16448,46.9862598 97.6263513,47.0006902 C98.0075703,46.9895625 98.3737408,47.1493541 98.6242764,47.4361706 C98.8821262,47.7373059 99.0158623,48.124788 98.9984983,48.5204278 L96.5393258,48.5204278 L96.5393258,48.6715128 C96.5381918,49.0809709 96.6625468,49.4809942 96.8957276,49.8179816 C97.1179115,50.2052033 97.558265,50.4135498 97.9994743,50.3402022 C98.4406835,50.2668546 98.7894898,49.9273164 98.8737576,49.4891494 L98.9984983,49.5513609 Z" id="Shape" fill="#D80118"></path>
                            <path d="M100.305803,48.0031596 L100.305803,49.2590837 C100.294902,49.4643398 100.322279,49.6697802 100.386853,49.8672986 C100.44452,50.006498 100.551916,50.1256315 100.693041,50.206951 C100.842116,50.2948206 101.017742,50.341584 101.197351,50.3412322 C101.526218,50.3542872 101.837,50.2089051 102.007849,49.9620853 C102.2284,49.6557616 102.335364,49.2970392 102.314037,48.9352291 C102.327817,48.5801622 102.224639,48.229135 102.016855,47.9241706 C101.856088,47.6732858 101.552474,47.5189503 101.224367,47.521327 C101.055761,47.5208524 100.890389,47.5619044 100.747074,47.6398104 C100.576416,47.7368309 100.426963,47.8598926 100.305803,48.0031596 Z M100.305803,47 L100.305803,47.7898894 C100.452966,47.5617827 100.652247,47.3627883 100.891163,47.2053712 C101.08747,47.0796428 101.323526,47.0106264 101.566578,47.0078989 C101.963067,47.0214429 102.329544,47.1967753 102.557187,47.4818325 C102.861005,47.8208741 103.017419,48.2436524 102.998458,48.6745656 C103.018723,49.1712247 102.818572,49.6554181 102.440115,50.0252765 C102.137539,50.3575102 101.68206,50.5543693 101.197351,50.5624013 C101.027835,50.5659853 100.859275,50.5391042 100.702046,50.4834123 C100.553943,50.4345268 100.419018,50.3592161 100.305803,50.2622433 L100.305803,51.1864139 C100.279787,51.3797768 100.330684,51.5750883 100.449891,51.7393365 C100.602352,51.8455538 100.796899,51.8939017 100.990224,51.8736177 L100.990224,52 L99,52 L99,51.8736177 C99.1862971,51.8935686 99.3740353,51.8481429 99.5223211,51.7472354 C99.6357924,51.5781911 99.6832241,51.3812697 99.6574041,51.1864139 L99.6574041,48.1295419 C99.6734781,47.9578449 99.6457925,47.7851621 99.5763543,47.6240126 C99.5244043,47.5412072 99.4227599,47.4920189 99.3151938,47.4976303 C99.2296442,47.5019056 99.144988,47.5151651 99.0630388,47.5371248 L99,47.4107425 L100.17072,47 L100.305803,47 Z" id="Shape" fill="#D80118"></path>
                            <path d="M103,47 L104.295405,47 L104.295405,48.9520548 C104.281365,49.124351 104.333162,49.2960194 104.444201,49.4452055 C104.541513,49.557759 104.708748,49.6205752 104.881838,49.609589 C105.041903,49.610795 105.199326,49.5776289 105.33698,49.5136986 C105.506206,49.4390613 105.657311,49.3416834 105.78337,49.2260274 L105.78337,47.5479452 C105.79752,47.4479132 105.769882,47.3469856 105.704595,47.260274 C105.664785,47.2187366 105.617632,47.1818379 105.564551,47.1506849 C105.444063,47.1168122 105.315919,47.1028201 105.188184,47.109589 L105.188184,47 L106.413567,47 L106.413567,49.0547945 C106.398987,49.1963698 106.42285,49.3387572 106.483589,49.4726027 C106.534623,49.5481549 106.63712,49.5936057 106.746171,49.5890411 C106.834641,49.5843787 106.920988,49.565739 107,49.5342466 L107,49.6506849 L105.923414,50 L105.78337,50 L105.78337,49.3630137 C105.608489,49.5446028 105.398879,49.7040092 105.161926,49.8356164 C104.987247,49.9321772 104.780458,49.9869102 104.56674,49.9931507 C104.372319,49.9907256 104.184465,49.9377085 104.032823,49.8424658 C103.891675,49.7459703 103.78847,49.6200774 103.73523,49.4794521 C103.687725,49.2854081 103.667183,49.0879124 103.673961,48.890411 L103.673961,47.5205479 C103.686765,47.4007268 103.643188,47.2813728 103.551422,47.1849315 C103.432986,47.1054371 103.277546,47.0682013 103.122538,47.0821918 L103.026258,47.0821918 L103,47 Z" id="Shape" fill="#D80118"></path>
                            <path d="M107.953595,47.4925745 L107.953595,49.4065157 C108.04465,49.5212712 108.154779,49.6168603 108.27837,49.688414 C108.387723,49.7473177 108.50844,49.7778107 108.630785,49.7774346 C108.897512,49.7808615 109.142257,49.6191711 109.259605,49.3620055 C109.418141,49.0857583 109.49967,48.7665482 109.494549,48.4421268 C109.502446,48.1186186 109.418059,47.8002462 109.252695,47.5296664 C109.115326,47.2864002 108.8681,47.1395772 108.603145,47.1439108 C108.489722,47.1445193 108.378182,47.1750922 108.27837,47.2329314 C108.157561,47.2997383 108.047832,47.3874613 107.953595,47.4925745 Z M107,45.393174 L107.849943,45 L107.953595,45 L107.953595,47.28486 C108.059032,47.0965775 108.203221,46.9367077 108.375111,46.8175023 C108.522233,46.7182165 108.691971,46.6643194 108.865729,46.6617164 C109.182921,46.6668729 109.478521,46.8352025 109.660392,47.1142373 C109.891047,47.4226025 110.011168,47.8094742 109.998987,48.2047387 C110.014559,48.6810829 109.850073,49.1439504 109.54292,49.4881179 C109.279039,49.8149383 108.895456,50.0018728 108.492583,49.9999859 C108.320153,49.9964774 108.149551,49.9613525 107.988145,49.8961286 C107.8016,49.819492 107.625077,49.7172584 107.462977,49.5919751 L107.462977,46.0979197 C107.473306,45.9233571 107.447342,45.7485134 107.386966,45.5860518 C107.342271,45.4977517 107.25185,45.4477447 107.158932,45.4599394 C107.113317,45.4501471 107.066346,45.4501471 107.02073,45.4599394 L107,45.393174 Z" id="Shape" fill="#D80118"></path>
                            <path d="M112.42,45.0150602 L112.42,49.2319277 C112.391795,49.4086313 112.437224,49.5875677 112.55,49.7439759 C112.669039,49.8328459 112.832661,49.8793916 113,49.871988 L113,50 L111,50 L111,49.871988 C111.3,49.871988 111.49,49.8192771 111.56,49.7138554 C111.643918,49.5613963 111.681502,49.3967365 111.67,49.2319277 L111.67,46.2198795 C111.67,45.9864458 111.67,45.8358434 111.67,45.7680723 C111.657314,45.6973737 111.61532,45.6314936 111.55,45.5798193 C111.478848,45.5255465 111.381262,45.4956087 111.28,45.496988 C111.206319,45.4996969 111.134459,45.5151573 111.07,45.5421687 L111.01,45.4141566 L112.26,45 L112.42,45.0150602 Z" id="Shape" fill="#D80118"></path>
                            <path d="M114.03,45.0001179 C114.152204,44.9975767 114.26954,45.0362311 114.35,45.1055371 C114.437713,45.1709642 114.484885,45.2611304 114.48,45.3540252 C114.484555,45.4513505 114.437825,45.5460849 114.35,45.6175732 C114.26316,45.6789718 114.149102,45.7138623 114.03,45.7154625 C113.8434,45.7073099 113.680056,45.6183341 113.611379,45.4874342 C113.542702,45.3565343 113.581183,45.2075195 113.71,45.1055371 C113.79046,45.0362311 113.907796,44.9975767 114.03,45.0001179 Z M113.03,47.0708522 L114.25,46.701885 L114.4,46.701885 L114.4,49.2319458 C114.373352,49.4037621 114.418811,49.5775493 114.53,49.7289221 C114.650086,49.8274461 114.822722,49.8799969 115,49.871991 L115,50 L113,50 L113,49.871991 C113.177764,49.8808793 113.354212,49.8436772 113.5,49.7665718 C113.62,49.6988023 113.68,49.5180837 113.68,49.2319458 L113.68,47.7259572 C113.694585,47.5837273 113.660139,47.4410718 113.58,47.3118104 C113.507331,47.2253607 113.374783,47.1783921 113.24,47.1913313 C113.17754,47.1801288 113.11246,47.1801288 113.05,47.1913313 L113.03,47.0708522 Z" id="Shape" fill="#D80118"></path>
                            <path d="M118,49.4265404 C117.916382,49.8282311 117.732767,50.1993059 117.467972,50.5017381 C117.242976,50.8128202 116.893656,50.9966021 116.522145,50.9993502 C116.08482,51.0134698 115.669709,50.7967414 115.415864,50.4217647 C115.132967,50.0222056 114.987101,49.5335637 115.002065,49.0355595 C114.978923,48.4974293 115.150989,47.9701531 115.483424,47.560495 C115.789074,47.2026141 116.225323,46.998959 116.682598,47.0006813 C116.986765,46.9906783 117.284945,47.0910791 117.527086,47.2850311 C117.728635,47.4227104 117.854478,47.6544367 117.864882,47.9070463 C117.865073,47.9960001 117.827999,48.0805222 117.763543,48.1380805 C117.692477,48.1997117 117.602193,48.2313783 117.510197,48.2269398 C117.290629,48.2269398 117.155511,48.0847649 117.121732,47.809301 C117.109974,47.6534449 117.054084,47.5048759 116.961279,47.3827763 C116.852066,47.2819899 116.709339,47.2308643 116.564369,47.2406014 C116.27473,47.2303896 116.00282,47.3870696 115.854999,47.6493543 C115.676749,47.9501282 115.585768,48.2990889 115.593207,48.6534645 C115.574787,49.0888518 115.690286,49.5188835 115.922558,49.8797229 C116.11352,50.1719219 116.430042,50.3451092 116.767046,50.3417913 C117.291293,50.3527393 117.742417,49.9540045 117.822657,49.4087686 L118,49.4265404 Z" id="Shape" fill="#D80118"></path>
                            <path d="M7.54104847,24.3906734 C7.48565776,24.2539675 7.37487636,23.9162233 7.28783383,23.9242649 C7.2007913,23.9323064 6.9396637,24.58367 6.9396637,24.58367 C6.9396637,24.58367 5.35707221,28.9019697 5.00098912,30.067991 C5.52324431,30.067991 9.50346192,30.067991 9.7487636,30.067991 C9.44807122,29.1673401 8.07121662,25.7175253 7.54896142,24.4389226 L7.54104847,24.3906734 Z M7.86547972,20.0482492 L8.09495549,20.0482492 C8.09495549,20.0482492 13.8714144,35.2628171 14.0454995,35.5442705 C14.2101507,35.8310123 14.4480172,36.0671865 14.7339268,36.2278002 C15.1365102,36.406903 15.5633061,36.523468 16,36.5735859 L16,36.9676206 C15.6043521,36.9676206 15.0187933,37.0078283 14.5598417,36.9676206 C14.1008902,36.927413 13.4203759,36.8952469 12.7873393,36.7907071 C12.2176063,36.8952469 11.8219585,36.9193715 11.3313551,36.9756622 C10.7039999,37.0081126 10.0754265,37.0081126 9.44807122,36.9756622 L9.44807122,36.5735859 C10.0587016,36.5590164 10.6639121,36.4533481 11.2443126,36.2599663 C11.4969853,36.1486678 11.6613783,35.8964956 11.6636993,35.6166442 C11.6011223,35.252647 11.4920571,34.8985084 11.3392681,34.5632043 C11.1018793,33.8555499 9.93076162,30.8882267 9.93076162,30.8882267 L4.78733927,30.8882267 C4.78733927,30.8882267 3.62413452,33.7751347 3.45004946,34.4586644 C3.3357765,34.791439 3.28999006,35.1445225 3.31552918,35.4960213 C3.31552918,35.841807 3.63204748,36.0187205 3.85361029,36.1715095 C4.35645988,36.3823115 4.89253193,36.4994397 5.43620178,36.5172952 L5.43620178,36.9193715 C5.10385757,36.9193715 4.39960435,36.9676206 3.99604352,36.9193715 C3.59248269,36.8711223 3.20474777,36.8711223 2.61918892,36.758541 C2.05736894,36.8711223 1.52720079,36.8630808 1.115727,36.9193715 C0.704253215,36.9756622 0.324431256,36.9193715 0,36.9193715 L0,36.5092536 C0.487523228,36.4855494 0.969490358,36.3935431 1.4322453,36.2358417 C1.87998052,35.9901778 2.21309822,35.5735253 2.35806133,35.0778619 C2.60336301,34.5149551 7.89713155,20 7.89713155,20 L7.86547972,20.0482492 Z" id="Shape" fill="#282828"></path>
                            <path d="M20.1627907,25.0011634 L20.3643411,25.2016493 C20.3100775,25.8111263 20.3643411,26.6451476 20.3643411,26.9498861 L20.5348837,27.0621582 C21.156036,26.4626223 21.8309105,25.9255742 22.5503876,25.4582712 C23.1050748,25.1352744 23.7362093,24.9796866 24.372093,25.0091828 C25.0958495,25.0218931 25.7903303,25.3069905 26.3255814,25.8111263 C26.6831225,26.2491738 26.9781129,26.7379854 27.2015504,27.2626441 C27.1627907,27.150372 27.255814,27.3107607 27.3178295,27.2626441 C27.7371223,26.805378 28.1964479,26.3892638 28.6899225,26.0196316 C29.3706988,25.4481444 30.1976805,25.0942328 31.0697674,25.0011634 C32.1000525,24.9728398 33.0796489,25.4630979 33.6976744,26.3163507 C34.2015504,27.1182942 34.3565891,27.6315381 34.3565891,29.4118526 L34.3565891,32.4752767 C34.3565891,34.3598439 34.2868217,35.5467203 34.4496124,35.8113617 C34.6976744,36.2203528 34.9224806,36.5170719 36,36.5411302 L36,36.9020048 C35.2868217,36.9020048 34.9612403,36.942102 34.5658915,36.9020048 C34.1705426,36.8619076 33.8682171,36.9020048 33.3565891,36.7897327 C33.2015504,36.8458688 32.8449612,36.8939854 32.6589147,36.942102 C32.4728682,36.9902186 30.9457364,36.942102 30.9457364,36.942102 L30.9457364,36.5892468 C31.3362067,36.5500682 31.7196304,36.4556267 32.0852713,36.3085666 C32.4031008,36.1722362 32.6666667,35.9637309 32.6744186,35.6589924 C32.6744186,35.4745454 32.6744186,35.2259429 32.6744186,34.9292238 C32.6744186,34.1272803 32.6744186,28.9627643 32.6046512,28.1367625 C32.5344249,26.9408313 31.5689321,26.0126093 30.4108527,26.0276511 C29.4858063,26.0661986 28.6120993,26.4778273 27.9767442,27.1744303 C27.4341085,27.7919268 27.2790698,27.9763738 27.2790698,29.917077 L27.3255814,33.9749111 C27.3255814,35.6269146 27.3255814,35.8033422 27.4651163,35.9717504 C27.8707917,36.3776298 28.4052956,36.6170507 28.9689922,36.6453829 L28.9689922,36.9902186 C28.5736434,36.9902186 28.248062,36.9902186 27.875969,36.9902186 C27.503876,36.9902186 26.9689922,36.9340825 26.2790698,36.813791 C26.1162791,36.813791 25.6744186,36.8699271 25.379845,36.9180437 C24.8663037,36.9914804 24.347299,37.0156415 23.8294574,36.9902186 L23.8294574,36.629344 C24.4930468,36.6403363 25.1309294,36.3641692 25.5891473,35.8674977 C25.7906977,35.4905843 25.7131783,34.7447768 25.7131783,32.940404 L25.7131783,29.7967855 C25.7131783,28.3452678 25.7131783,27.7438101 25.3100775,27.0380999 C24.8338706,26.3670044 24.0678176,25.9827681 23.2635659,26.0116122 C22.3865484,26.1255134 21.5835469,26.5781076 21.0155039,27.2786829 C20.5578317,27.7518533 20.3424031,28.4204404 20.4341085,29.0830558 L20.4341085,34.6966602 C20.3751527,35.089057 20.4070336,35.4903255 20.5271318,35.8674977 C20.9272941,36.3176023 21.4866026,36.5808692 22.0775194,36.5972663 L22.0775194,36.9581408 C21.7884284,36.977887 21.4983933,36.977887 21.2093023,36.9581408 C20.8527132,36.9100242 20.3023256,36.9581408 19.5891473,36.8458688 C19.0232558,36.9340825 18.5503876,36.8458688 18.124031,36.9260631 C17.6976744,37.0062575 17.3488372,36.9260631 17,36.9661603 L17,36.6052857 C17.616691,36.6191811 18.2074622,36.3488616 18.6124031,35.8674977 C18.7581042,35.4912127 18.8062054,35.082066 18.751938,34.6806213 L18.751938,28.866531 C18.756605,28.4316955 18.6665196,28.0013587 18.4883721,27.6074798 C18.2403101,27.2546246 17.9457364,27.3267995 17.2325581,27.3107607 L17.2325581,26.9819638 C18.34251,26.5614479 19.3448035,25.88391 20.1627907,25.0011634" id="Shape" fill="#282828"></path>
                            <path d="M56.0976526,20.6920524 C56.4297523,20.7917807 56.6750834,21.0852031 56.7247076,21.4420265 C56.7858837,21.8090351 56.7782366,22.3196557 56.8164717,22.662729 C56.8547068,23.0058023 56.9235299,23.8594962 56.9158829,24.0190652 L56.4647092,24.0190652 C55.7000079,22.0962592 54.2470756,20.6840739 52.580027,20.6760955 C50.0106309,20.6760955 48.9171082,21.4739403 47.8159385,22.9180393 C46.6797943,24.4780561 46.0986051,26.4015469 46.1718309,28.3593409 C46.1093421,30.4115155 46.7551902,32.4188802 47.9918197,34.0160605 C49.2153417,35.4601595 50.3776875,36.4095949 52.6794382,36.3457673 C54.7211904,36.2978966 55.6082438,34.3192415 56.6482374,32.2049528 L57,32.2049528 C57,32.5400476 57,33.4495907 57,33.8644699 C57,34.2793492 56.9311769,34.7660346 56.9464709,34.933582 C56.9464709,35.2926121 56.6329434,35.6516423 56.0976526,35.9468449 C54.9579714,36.5757906 53.6995905,36.9353458 52.4117927,37 C49.6206333,37 48.5118166,36.5053362 46.898297,34.9974096 C45.1126623,33.4187613 44.0581615,31.1196526 44.0000794,28.6784788 C43.9902078,26.3249193 44.9009473,24.069001 46.5218149,22.432094 C48.1426826,20.7951871 50.333403,19.9189551 52.587674,20.0059058 C53.7758358,20.1182638 54.9510969,20.3480092 56.0976526,20.6920524" id="Shape" fill="#282828"></path>
                            <path d="M62.2738971,19.0077593 L62.401348,19.0775925 C62.5238315,19.7195088 62.571927,20.3727928 62.5447304,21.0251649 C62.5447304,21.7312569 62.5447304,22.4140712 62.5447304,23.0891261 L62.5447304,27.2558448 L62.6721814,27.2558448 C62.6721814,27.2558448 63.46875,26.5652713 63.9546569,26.2238642 C64.7398157,25.6605041 65.6878409,25.3535906 66.6629902,25.3470686 C67.7634607,25.2904898 68.821671,25.7666841 69.4908088,26.6195861 C70.1439951,27.5972519 70.2873775,29.0249544 70.2873775,30.9725268 L70.2873775,34.8521531 C70.2118014,35.1983963 70.2199829,35.5570211 70.3112745,35.8996522 C70.6917318,36.3956563 71.3258895,36.6415462 71.9522059,36.5359109 L72,36.9393921 C71.4908984,37.0202026 70.9717241,37.0202026 70.4626225,36.9393921 C70.0802696,36.8928366 69.9289216,36.8695588 69.3553922,36.7686885 C69.2040441,36.8307625 68.3278186,36.8928366 68.1366422,36.9393921 C67.9454657,36.9859476 67.0294118,36.8773181 66.7107843,36.9393921 C66.7107843,36.8230033 66.7107843,36.5359109 66.7107843,36.5359109 C66.7107843,36.5359109 67.3480392,36.4350407 67.9534314,36.2798556 C68.2800245,36.1945038 68.4313725,35.7755042 68.4393382,35.5039303 C68.4393382,34.8211161 68.4393382,29.8241574 68.4393382,29.2965282 C68.4686138,28.650612 68.3317043,28.00781 68.0410539,27.4265484 C67.5281943,26.5815414 66.5585411,26.1032246 65.5557598,26.2005864 C64.6592548,26.2285332 63.8181219,26.6297247 63.2457108,27.3024003 C62.6642157,27.9774553 62.4491422,28.0783256 62.4889706,30.6078419 L62.4889706,32.6097291 C62.4889706,34.479709 62.3933824,35.5039303 62.5447304,35.7755042 C62.7757353,36.1945038 63.1740196,36.5514294 64.2892157,36.5514294 L64.2892157,36.9549106 C63.9629289,36.9743965 63.6357231,36.9743965 63.3094363,36.9549106 C62.7338151,36.9425238 62.1593713,36.8984846 61.588848,36.8230033 C61.0551471,36.9161143 60.5612745,36.9005958 60.1072304,36.9549106 C59.7384321,36.9746617 59.3687983,36.9746617 59,36.9549106 L59,36.5514294 C59.6133578,36.5048739 60.3541667,36.4583184 60.5931373,36.0238003 C60.8321078,35.5892821 60.7046569,34.417635 60.7046569,32.4157478 L60.7046569,24.2607733 C60.7046569,22.3132009 60.8400735,21.335535 60.5931373,20.9398132 C60.346201,20.5440913 59.9001225,20.5596098 59.1593137,20.5440913 L59.1593137,20.1949249 C59.6968419,20.1052967 60.2287367,19.9861312 60.752451,19.8379993 C61.3126391,19.6147708 61.8467201,19.3338411 62.3455882,19" id="Shape" fill="#282828"></path>
                            <path d="M79.2180117,30.4403854 C78.9264994,30.6123709 77.959906,31.1205097 77.2081112,31.5113858 C75.5280799,32.3634955 74.8146419,33.1608827 74.8146419,34.2866057 C74.8146419,35.4123286 75.796578,35.7641171 76.7248145,35.7641171 C77.5312321,35.6557528 78.2624365,35.2255432 78.7577291,34.5680364 C79.2870541,33.9660873 79.2410258,33.6533865 79.2410258,32.6449263 L79.2180117,30.4403854 Z M80.9133858,26.8052382 L80.9133858,34.036445 C80.8567215,34.5639636 81.0024065,35.0933788 81.3199687,35.5139564 C81.5270958,35.8110222 82.0334066,35.9361025 82.8082156,35.1074453 L83,35.3654235 C82.7473339,35.7793794 82.4031911,36.1274012 81.9950498,36.3817012 C81.6390928,36.6447008 81.2146442,36.7943197 80.775301,36.8116649 C80.3530866,36.7660007 79.9814622,36.5076599 79.7856935,36.123723 C79.5807986,35.7067174 79.4188357,35.2692081 79.3023968,34.8181971 C78.6983441,35.3602718 78.0602678,35.8616555 77.3922242,36.3191611 C76.8417771,36.7265111 76.1848725,36.9578144 75.5050657,36.9836503 C74.8324427,37.0641698 74.1584686,36.8447314 73.6562641,36.3817012 C73.1677128,35.9461121 72.937913,35.2821145 73.0502254,34.6305766 C73.2573526,32.8090942 76.1801468,31.5035682 77.2924963,30.9719768 L79.2180117,29.9400641 C79.2180117,29.9400641 79.2180117,27.7120707 79.2180117,27.1413916 C79.2753071,26.7505725 79.2023791,26.3514613 79.0108845,26.0078511 C78.6737101,25.5796422 78.140843,25.3630282 77.6070227,25.4371721 C76.9032326,25.4691575 76.2431857,25.7941636 75.7812353,26.336187 C75.4667088,26.6723404 75.0140977,27.6651655 74.6918999,28.1342168 C74.4063155,28.6052787 73.9078522,28.8988968 73.3647518,28.9159689 C73.0885823,28.9159689 72.9581689,28.7048958 73.0118686,28.4000125 C73.3180446,27.4319393 73.9770431,26.6204796 74.8529988,26.1329315 C75.8562783,25.4470413 77.0285637,25.0623796 78.2360756,25.0228435 C78.9674005,24.9305138 79.7061787,25.1201211 80.3073471,25.5544349 C80.7110138,25.8338756 80.9410981,26.3087465 80.9133858,26.8052382 Z" id="Shape" fill="#282828"></path>
                            <path d="M87.3049127,25 L87.4835566,25.1117281 C87.515958,25.4166146 87.5322202,25.7229497 87.5322777,26.0294948 C87.5322777,26.4205432 87.5322777,26.6918829 87.5322777,27.0270672 L87.727162,27.0988924 C88.1494113,26.7716887 88.6528624,26.3008345 89.3511977,25.7900774 C89.9952318,25.3193687 90.7736176,25.0597141 91.5761267,25.0478835 C92.352412,25.0087506 93.1124512,25.275937 93.6873731,25.7900774 C94.1847525,26.1960514 94.5538073,26.7331946 94.7511165,27.3383098 C95.2444357,26.8555707 95.7620701,26.3974424 96.3020706,25.9656501 C97.045295,25.4209674 97.9344503,25.1019358 98.8599269,25.0478835 C99.9429047,24.9950867 100.973873,25.507776 101.572067,26.3966014 C102.124239,27.2425429 102.19732,27.8809892 102.19732,30.7460173 L102.19732,32.2224245 C102.19732,34.281414 102.107998,35.3268699 102.375964,35.7658018 C102.743579,36.2864155 103.355655,36.5871923 104,36.5638598 L104,36.9788499 C103.662102,37.0029077 103.322876,37.0029077 102.984978,36.9788499 C102.554608,36.9229858 102.059277,36.8830829 101.498985,36.7793354 C101.336581,36.8351995 100.516443,36.9229858 100.313439,36.9788499 C99.7968523,37.00705 99.2790713,37.00705 98.7624848,36.9788499 L98.7624848,36.5638598 C98.7624848,36.5638598 100.516443,36.5159763 100.532684,35.5822485 C100.532684,34.832074 100.532684,29.7564254 100.532684,28.9025034 C100.538076,28.3027712 100.401879,27.7099807 100.134795,27.1707176 C99.6805883,26.3896768 98.7941156,25.9524878 97.8855055,26.0614171 C96.8824613,26.1900554 95.9732841,26.7072208 95.3601299,27.4979214 C94.8566788,28.2959794 94.8891596,29.3254741 94.8891596,30.6901532 L94.816078,32.6453952 C94.816078,34.4410256 94.7511165,35.382734 95.0190824,35.7977241 C95.3682501,36.3643453 95.9935039,36.4441511 96.6431181,36.5159763 L96.6431181,36.9309664 C96.1980701,36.9828786 95.7483367,36.9828786 95.3032887,36.9309664 C94.8972797,36.8830829 94.7673569,36.8830829 94.0121803,36.7553937 L92.9727974,36.9309664 C92.0552172,36.9309664 91.3487617,36.9309664 91.3487617,36.9309664 L91.3487617,36.5159763 C91.998376,36.4680928 92.7373122,36.2526172 92.9727974,35.837627 C93.2082826,35.4226369 93.0864799,34.3532392 93.0864799,32.3900167 L93.0864799,31.0013958 C93.0864799,29.4052799 93.3057247,28.0805037 92.7048315,27.1148536 C92.295525,26.4167603 91.5264717,25.9989019 90.7072676,26.0294948 C89.9217448,26.0631793 89.1677558,26.342812 88.5554202,26.8275527 C87.8465654,27.3601008 87.4392157,28.193415 87.4591961,29.0700956 L87.4591961,32.4857836 C87.4591961,34.3612198 87.3861145,35.3747534 87.6215997,35.8057047 C88.0620375,36.2776238 88.6833813,36.5467781 89.3349574,36.5478986 L89.3349574,36.9628887 C89.0429894,36.9830096 88.7499461,36.9830096 88.4579781,36.9628887 C87.8740517,36.947084 87.2913373,36.9018011 86.7121397,36.8272189 C86.0950061,36.9309664 85.5753147,36.9070247 85.0881039,36.9628887 C84.6008932,37.0187528 84.3735282,36.9628887 84,36.9628887 L84,36.5478986 C84.6267442,36.575842 85.2296577,36.3091952 85.6240357,35.8296464 C85.798528,35.4697135 85.8606882,35.0670649 85.8026797,34.6724624 L85.8026797,28.9424063 C85.8465157,28.5094886 85.7589246,28.073508 85.5509541,27.6894553 C85.2992286,27.2984069 84.9744214,27.3782127 84.1948843,27.3622515 L84.1948843,26.9632226 C84.8158782,26.7823524 85.4067393,26.5135084 85.9488429,26.1651646 C86.418306,25.8327755 86.8510382,25.4529542 87.2399513,25.0319223" id="Shape" fill="#282828"></path>
                            <path d="M37.0080863,22 L37.0080863,26.3933934 C39.0132306,32.6245056 43.3025148,37.8490168 49,41 L49,35.0905191 C49,35.0905191 41.8113208,31.5040755 37,22" id="Shape" fill="#000000" fill-rule="nonzero"></path>
                            <path d="M36,34 L36.1341554,38.3221256 C36.1341554,38.3221256 40.3403206,59.3628028 68,57.9300103 L64.5435265,52.7925387 C64.5435265,52.7925387 46.6140567,54.5578024 36,34" id="Shape" fill="#000000" fill-rule="nonzero"></path>
                            <path d="M48,42 L48,36.0849057 C48,36.0849057 40.8113208,32.5 36,23 L36,27.3915094 C38.0053177,33.6243758 42.297875,38.8500243 48,42" id="Shape" fill="#D80100"></path>
                            <path d="M36.1184308,38.3414451 C36.1184308,38.3414451 40.3266716,59.3685898 68,57.9293493 L64.5418209,52.8050207 C64.5418209,52.8050207 46.6429805,54.5605777 36,34 L36.1184308,38.3414451 Z" id="Shape" fill="#D80100"></path>
                            <path d="M49,47.3223528 C49,47.3223528 55.4351051,52.3145036 63.302843,51.984314 L61.737124,49.138395 L68,39.8537807 C68,39.8537807 57.1965389,41.1981237 49,37 L49,47.3223528 Z" id="Shape" fill="url(#linearGradient-1)"></path>
                            <polygon id="Shape" fill="#FFFFFF" fill-rule="nonzero" points="55.7837838 39 56.0027027 40.0247525 57 40.4108911 56.0594595 40.9529703 55.9621622 42 55.1675676 41.3168317 54.1054054 41.5841584 54.5594595 40.6113861 54 39.7277228 55.0783784 39.8168317"></polygon>
                            <polygon id="Shape" fill="#FFFFFF" fill-rule="nonzero" points="53.7837838 43 54.0027027 44.0247525 55 44.4108911 54.0594595 44.9529703 53.9702703 46 53.1675676 45.3168317 52.1054054 45.5841584 52.5594595 44.6188119 52 43.7351485 53.0783784 43.8168317"></polygon>
                            <polygon id="Shape" fill="#FFFFFF" fill-rule="nonzero" points="60.7789757 45 60.9973046 46.0247525 62 46.4034653 61.0539084 46.9455446 60.9649596 48 60.1644205 47.3094059 59.1132075 47.5767327 59.5579515 46.6113861 59 45.7277228 60.0754717 45.8168317"></polygon>
                            <polygon id="Shape" fill="#FFFFFF" fill-rule="nonzero" points="57.787062 43 58.0053908 44.0247525 59 44.4108911 58.0539084 44.9529703 57.9649596 46 57.1644205 45.3168317 56.1132075 45.5841584 56.5579515 44.6188119 56 43.7351485 57.0754717 43.8168317"></polygon>
                            <polygon id="Shape" fill="#FFFFFF" fill-rule="nonzero" points="56.787062 47 57.0053908 48.0247525 58 48.4034653 57.0539084 48.9529703 56.9649596 50 56.1644205 49.3168317 55.1132075 49.5841584 55.5579515 48.6113861 55 47.7277228 56.0754717 47.8168317"></polygon>
                            <polygon id="Shape" fill="#FFFFFF" fill-rule="nonzero" points="60.7837838 40 61.0027027 41.0247525 62 41.4034653 61.0594595 41.9529703 60.9621622 43 60.1675676 42.3168317 59.1054054 42.5841584 59.5594595 41.6113861 59 40.7277228 60.0783784 40.8168317"></polygon>
                        </g>
                    </g>
                </g>
            </g>
        </g>
    </g>
</svg>