<svg xmlns="http://www.w3.org/2000/svg" width="76" height="27" viewBox="0 0 76 27">
    <path fill="#FFF" fill-rule="evenodd" d="M8.883 13.64l4.592 13.336H9.558l-3.749-10.56v-5.753L8.772.304h3.991L8.883 13.64zm8.972 13.336c.142-.817.29-1.789.445-2.722.154-.934.313-1.905.48-2.722h3.43l-.596-3.81H19.34c.319-1.905.614-3.78.867-5.612.088-.623.174-1.311.252-1.937L18.944.304h-.033c-.831 4.627-1.662 8.91-2.493 13.336-.831 4.425-1.662 8.981-2.493 13.336h3.93zM57.96 24.2a.256.256 0 0 0 .016.157c-.033-.024-.023.107-.016.142.008.035 0-.033.016-.035v-.273h-.016v.009zm-.207-1.067c0 .032-.017.046-.022.076l.045-.05s-.013-.026-.023-.026zm.058 0l-.032.038h.015l.017-.038zm0 0c.02-.025.036-.044.033-.052a.098.098 0 0 0-.033.052zM41.424.304h-6.062v4.083h6.062V.304zm-7.325 26.484V.304H30.31v26.672H34.1v-.188zm-5.883.188l-.025-.14a.16.16 0 0 0 .063-.04c0-.025-.018-.016-.02-.055-.003-.038.025 0 .018-.03-.008-.03-.056 0-.071-.048-.015-.05.015-.06.04-.052 0-.038-.043-.017-.058-.036a.43.43 0 0 1 .046-.144c-.028 0-.016-.04 0-.057.015-.016-.02 0-.026 0-.005 0 0-.033 0-.065 0-.033.03 0 .033-.025.003-.024-.015-.087-.033-.092.03-.02 0-.068.036-.082-.023-.049 0-.063 0-.114 0-.052-.038 0-.046-.041-.007-.04.028-.052.03-.057.003-.006 0-.076.043-.068a.274.274 0 0 1 .013-.12c-.028-.207.046-.272.023-.438a1.036 1.036 0 0 0-.106-.3c-.028-.062-.043-.147-.076-.239-.033-.093-.053-.112-.076-.174-.058-.158-.053-.297-.108-.425-.043 0-.069-.032-.099-.068a1.45 1.45 0 0 0-.045-.207.803.803 0 0 0-.016-.122c0-.033-.035-.044-.042-.074a.378.378 0 0 1 0-.092.168.168 0 0 1-.02-.163c0-.03-.02 0-.02-.039-.031-.25-.019-.454-.039-.69.015 0 0-.023.013-.028 0-.063-.048-.084-.05-.13.171.051.153-.21.156-.395.03 0 .035-.03.05-.047a4.497 4.497 0 0 0-.11-.666 1.662 1.662 0 0 1-.069-.477c.03.076.071.145.124.205.073.22.114-.022.038-.15 0-.05.033-.095 0-.166a.669.669 0 0 1-.205-.076 6.665 6.665 0 0 0-.116-.466 1.774 1.774 0 0 0-.104-.31.137.137 0 0 0 0-.073c0-.02-.015.046-.027 0-.013-.047.017-.022.015-.047a.123.123 0 0 0-.028-.087v.052a1.796 1.796 0 0 1-.098-.468s0-.038.022-.046c.023-.009.023 0 .036 0 .012 0-.02-.025-.023-.063h-.053a6.995 6.995 0 0 1-.222-1.14c.12 0 .042-.218.037-.36 0-.019-.017 0-.022-.038a.238.238 0 0 0-.048-.122c-.018-.036-.028-.087-.048-.123a1.237 1.237 0 0 1-.079-.141 1.813 1.813 0 0 1-.146-.545c.013 0 .015-.027.03-.032a.793.793 0 0 0 0-.387 1.864 1.864 0 0 0-.129-.272c-.062-.12-.11-.25-.139-.384.016 0 .02 0 .03-.016a.477.477 0 0 0-.012-.204 1.044 1.044 0 0 1-.116-.373 2.648 2.648 0 0 1-.101-.528c0-.035.025-.049 0-.103-.025-.055-.025-.038-.048-.03-.056-.112-.124-.351-.066-.444.046.123.101.241.164.354.12.13.054-.256.048-.354.023.027.061 0 .069-.024.073.092.07-.11.11-.11.041 0 0 .042.016.047a1.4 1.4 0 0 0-.038-.207c-.015 0-.015-.021-.028-.019-.012.003 0 .057-.02.08a.144.144 0 0 1-.053-.039c-.098 0-.152-.253-.253-.177-.053-.052-.144-.043-.171-.144a2.737 2.737 0 0 1-.089-.58c.144.071.026-.272.04-.367.039.027.046.09.074.133.056.087.134.106.19.196 0 .076 0 .163-.036.193a.545.545 0 0 0 .086.381c.026.001.051.014.068.036.033-.022.076-.03.094-.071a1.139 1.139 0 0 0-.04-.242c.012 0 .032-.02.037-.041.005-.022.023.073.048.07.018-.084.068-.127.033-.271-.03-.041-.053 0-.078 0-.11 0-.134-.409-.2-.58.073 0 0-.193.02-.248.023 0 .025.071.048.074.023.002-.012-.101.028-.098a.685.685 0 0 0-.02-.128c0-.016-.02 0-.023-.02a.232.232 0 0 0-.126-.17.068.068 0 0 0 .043-.02c0-.092.045-.163 0-.29a.772.772 0 0 1-.084-.074c-.048.03-.015.152-.035.217a.543.543 0 0 1-.068-.177c-.058-.23-.094-.487-.172-.734-.043.087.02.25.015.372 0 .039-.017.06-.017.096.012.072.018.146.017.22-.023 0-.045 0-.043-.057 0 0 0 .016-.025 0a.677.677 0 0 1-.124-.204c-.043 0-.09 0-.106-.093a.5.5 0 0 1-.144-.092c-.098-.335-.134-.664-.197-.98.03-.016.073-.019.081-.06-.03 0-.063.044-.091.038-.02-.1-.043-.234.028-.207a.973.973 0 0 0 0-.23c-.015 0-.025 0-.03-.017a5.108 5.108 0 0 1-.167-.754.134.134 0 0 0 .028.043h.06c.02-.095-.045-.185-.065-.272h.025a.748.748 0 0 0-.015-.138.195.195 0 0 1-.089-.18c.023.016.03.076.06.068.013-.063-.032-.13-.05-.18-.017-.049.023 0 .03-.032-.035-.142-.04-.25.023-.272a1.026 1.026 0 0 0-.083-.482.577.577 0 0 0-.04-.15c0 .05.015.076-.016.087-.03.011.016.076 0 .085-.015.008-.045-.134-.098-.145-.053-.01 0 .082.018.112-.036-.044-.086-.063-.111-.142a1.162 1.162 0 0 0-.026-.128 3.345 3.345 0 0 1-.088-.544c.048 0 .09.057.126 0 .03.076.083.098.119.155.035.057.02.087.053.104.033.016 0-.05.025-.057.03.046.073.04.111.065.018-.125-.1-.4-.058-.495.043.027.03.106.073.15.043.043 0-.033.026 0 .025.032.015.048.033.043 0-.055-.023-.1 0-.13.022-.03 0 0 .025 0a.39.39 0 0 0-.104-.311c-.035-.117-.053-.215-.09-.33 0 0 0-.035.025-.04.025-.006.037.106.073.109a.522.522 0 0 0-.212-.45 3.659 3.659 0 0 1-.109-.331c0 .049 0 .076-.035.084-.036.008.025.128 0 .15-.04-.058-.038-.177-.089-.205 0-.016.02 0 .013-.027-.008-.027-.015 0-.025 0 .003.03.003.06 0 .09 0 0 0-.022-.016 0 .03.144.047.29.051.438 0-.019 0 0-.018 0-.096-.432-.179-.952-.265-1.431h.046c.012 0 0 .076.027.084.016-.068-.04-.188 0-.196.04-.008.038.07.074.085 0-.071-.033-.077-.046-.131a.12.12 0 0 0 0-.098s0 .022.02 0a1.066 1.066 0 0 0-.045-.272h-.025c.001-.092.01-.183.027-.272.033 0 .04-.044.056-.071 0-.16-.101-.12-.134-.185-.033-.066-.03-.18-.073-.291-.05.024-.046.111-.056.18-.04-.033-.06-.137-.093-.205 0-.022.015-.022 0-.052a.49.49 0 0 1-.084-.201c.038 0 0-.057 0-.109a.19.19 0 0 1 .03-.057.944.944 0 0 0 .026.245.03.03 0 0 1 .028.019c0-.087.018-.16.018-.253.015.046.03.095.058.103a1.292 1.292 0 0 0-.069-.272c-.02 0-.022.03-.043.02a.428.428 0 0 1-.032-.273h.03s0 .09.028.093a.966.966 0 0 1-.04-.34c.037.024.06.1.093.144h.03a.972.972 0 0 0-.131-.395h.033a.45.45 0 0 0-.059-.234c-.027.022-.053.13-.103.065.098.052.045-.139.076-.201a.31.31 0 0 1 0-.123 1.298 1.298 0 0 0-.127-.397c.018.049 0 .052 0 .068a.435.435 0 0 1-.015.136c-.015.022-.078 0-.1-.06h-.064c0-.035-.015-.043-.02-.079-.005-.035-.02.08-.013.12a.026.026 0 0 1-.022-.019c0-.019 0 .093-.02.087-.02-.005 0-.019 0-.04-.023.021-.026-.025-.044-.025 0 .049.016.092 0 .117-.022-.044-.043-.041-.068-.06a.23.23 0 0 1-.015.087c-.035 0-.078-.063-.116-.022-.036-.038-.068-.076-.104-.111L23.2.329h-2.963L24.347 27l3.87-.024zM4.842 19.55a5.052 5.052 0 0 0-.043-1.65c-.076-.097-.17-.086-.252-.214.103-.03.02-.272 0-.544.037 0 .065-.038.08-.112-.063-.909-.267-.988-.414-.631-.096-.947-.402-3.25-.08-3.117.03-.22-.082-.272-.084-.715.068 0 .07-.213.109-.305a26.46 26.46 0 0 1-.316-2.964c.098-.226.144-.44.278-.44-.046-.817.252-.651.252-1.362a5.277 5.277 0 0 0-.475-1.632c.061-.273.016-.319-.038-.727.086-.1.182-.169.155-.59a2.573 2.573 0 0 1-.225-.665V1.36a.375.375 0 0 0 .035-.078c-.015 0-.028-.058-.035-.12V.304H3.2c-.21-.195-.422-.38-.674-.272.006.09.006.182 0 .272H0v26.672h3.789v-.305a.157.157 0 0 1 .145-.026c.05.016.089.055.107.107.084-.353.308-.228.367-.25a1.236 1.236 0 0 1-.023-.207c.172-.065.235-.033.23.31.04-.248.06-.499.058-.75-.046-.118-.121-.05-.154-.238a.655.655 0 0 0 .252-.615c-.199-.223-.326-.509-.363-.816.065.052.03-.19.073-.201.015.18-.05.127 0 .37l.288-.074c-.066-.345.04-.201.035-.378-.144-.057-.177 0-.28.163a1.608 1.608 0 0 0-.23-.78c.154.154.253-.15.404 0-.038-.243.028-.194 0-.374-.025-.133-.141-.348-.103-.435.032.198.128 0 .095-.207-.11-.272-.068.024-.146.128-.08-.199-.23-.272-.215-.683a.298.298 0 0 1-.242.027.324.324 0 0 1-.19-.166v-.025c.076-.087.084-.402.185-.23.043-.978.505-.747.583-1.634.036.041.106-.133.119.063.066.44-.015.457.025.816.106.074.253.06.235-.427-.048-.308-.149-.294-.202-.588zm35.571-8.088h-5.051v4.082h5.051v-4.082zm24.918 6.594c-.109-.027-.283-.054-.142-.092.238-.013.476-.007.713.016.098-.022.252-.014.252.022a1.22 1.22 0 0 0-.32.016c.106.012.214.012.32 0-.04.03.15.03.215.016-.015 0-.139 0-.106-.022l.252-.016c0-.013-.138 0-.106-.022h.106c.071 0 .215-.024.107-.043a3.755 3.755 0 0 1-.445.03c.126-.025.414 0 .505-.022a.47.47 0 0 0 .142 0s-.033 0-.036.016h.571c.02-.019.164-.019.177-.038.078 0 .076.014.07.027a.267.267 0 0 0-.179.028.45.45 0 0 1 .142.016c.141 0 .1-.038.18-.054a.558.558 0 0 0-.107 0s.06-.014 0-.017c.015 0 .194 0 .177-.016a1.388 1.388 0 0 0-.215 0c.238-.025.488-.027.606-.06h.152c.212-.022.04-.141.197-.141h.023L65.967.27h-3.965l3.11 17.775h.135c.046.036-.002.02.084.011zm3.167.45c-.164 0-.055.026-.141.032A1.345 1.345 0 0 0 68 18.5c-.25.044-.505.057-.758.038.06-.011.12-.017.18-.017-.125-.076-.36-.032-.759-.021.043-.036.018-.047-.141-.06a.839.839 0 0 0-.215.032c-.065 0-.118-.016-.141 0-.076 0 .038-.03-.07 0-.11.03.05-.024.07-.032.118.009.237.009.356 0 .078 0 .015-.02.035-.027l.677-.017a2.345 2.345 0 0 0-.427 0c-.037-.019.134 0 .107-.027a1.355 1.355 0 0 0-.213 0c.094-.021.19-.036.286-.044.02-.021-.025-.035-.036-.054h.071c.273-.02.546-.02.819 0h-.253c.07.02.143.025.215.016.086 0 .048-.04.179-.021a.202.202 0 0 1 .07-.039c.165 0-.057.055.18.06-.023.047-.116.052.035.082-.02 0-.146.02-.07.022-.215 0-.422.027-.783.027-.04.046.184 0 .07.044h.357c.04 0-.043.062-.213.065 0-.016.076-.022.106-.033-.025-.019-.128.033-.141 0-.086 0 .02.025-.106.017.272.04.548.032.818-.022a2.192 2.192 0 0 0-.252-.017c.075 0 .11-.038-.036-.038 0-.016.192 0 .18-.027a.704.704 0 0 0 .176 0c-.068 0-.025.022.036.027 0 .017-.089.017-.18.017-.03.016.056.016.071.027.119-.027.223.027.286-.016a.469.469 0 0 0-.106 0 .991.991 0 0 1 .179-.025v-.068a1.09 1.09 0 0 1-.253 0c.036-.035.099-.079-.035-.125a.2.2 0 0 0 .07 0c.064.017.128.03.193.038l-.016-.093h-.032c-.17 0-.404.03-.571.044-.046 0-.121-.014-.106-.033a1.587 1.587 0 0 1-.253 0c.084-.008.169-.008.253 0 .02 0-.068 0-.071-.016-.119.03-.306-.016-.427 0a.3.3 0 0 0 .106 0 .624.624 0 0 0-.141.022 1.756 1.756 0 0 1-.253-.027.22.22 0 0 0 .106.032c-.025.014-.166 0-.212.022.043.035-.028.033-.141.065a.654.654 0 0 0-.142 0c-.149-.027.177-.027.215-.043a5.646 5.646 0 0 0-.392-.05c-.037 0 0 .017-.07.028-.218 0-.447.014-.677 0 .086 0 .35 0 .32-.027a2.673 2.673 0 0 0-.356 0c0-.022.14-.025.253-.017a1.863 1.863 0 0 0-.505-.021c.065.04-.172.073-.4.07a.602.602 0 0 1 .218.025c-.018.019-.202.013-.106.038a.55.55 0 0 1-.104-.02l1.516 8.71h3.283l-1.263-8.437a.5.5 0 0 1-.169-.049zm3.88-.387c.104 0 .172.016.177.038a5.65 5.65 0 0 0-.713 0c-.053 0-.159 0-.141.022.119.009.238.009.356 0 .058.03-.172.013-.07.038a3.21 3.21 0 0 1-.392 0c-.04 0 0 0 0 .016.09 0 .139 0 .391.016v.06c-.252 0-.376.025-.285.055-.083 0-.184-.014-.16 0a5.212 5.212 0 0 1-.578-.05c-.058 0 .033.022 0 .039a.823.823 0 0 0-.214 0c-.015-.022-.04-.09.106-.093a.495.495 0 0 0-.109 0 .47.47 0 0 1 .177-.022s0 .022.035.028c.175.006.35-.005.523-.033a2.612 2.612 0 0 0-.285 0c-.043-.016-.04-.046.141-.044-.108-.024-.485 0-.606-.027.094-.017.19-.024.286-.022a1.384 1.384 0 0 0-.463.033h-.285c-.104 0-.109.016-.106.033.047.009.094.009.141 0a.705.705 0 0 1 .212-.022 1.83 1.83 0 0 1-.391.038.351.351 0 0 0 .18.054c0 .02-.122.02-.142.033a.55.55 0 0 0 .273.044c-.084 0-.225.021-.225.016v-.027a.916.916 0 0 1-.253.016l1.263 8.627h.038l1.538-8.662h-.053a2.167 2.167 0 0 0-.356 0s0 .027-.035.032c-.119 0-.036-.035-.142-.038.18 0 .313-.032.164-.06.042.01.085.01.127 0v.033h.136c.08 0 0-.04.035-.054h.165v-.038h-.172c.144-.03-.063-.014-.106-.039.084.009.17.003.252-.016h-.214c0-.024-.101 0-.142 0 0 0 .056-.022.036-.038.106.015.214.015.32 0a1 1 0 0 0-.252 0c-.033-.016-.033-.016 0-.033a.486.486 0 0 1 .141 0c0-.032-.164 0-.177-.038.172 0 .043-.013.107-.032.083-.01.168-.01.252 0h-.21c-.34 0-.23.051-.295.114v.003zm-3.928-.243a.375.375 0 0 0-.09-.013c.04.008.09.024.09.013zM71.936.304l-1.718 11.023-.641 4.697.278 1.85c.078 0 .131-.013.086-.027.201.018.404.018.606 0 0 0 0 .022-.036.028.084.006.169.006.253 0a.183.183 0 0 0-.07-.017c.118.003.237-.002.355-.016.033.022.076.033.036.054a1.56 1.56 0 0 0-.286 0 1.75 1.75 0 0 0-.391 0s.033 0 .035-.016a1.68 1.68 0 0 0-.285.016c.222.051.45.068.677.05.068 0 .027-.022.141-.017-.025.03.177.036.035.076a.57.57 0 0 0-.176 0c.098 0 .136.02.141.038a.887.887 0 0 0-.215 0c-.03.022.076.022.142.028a1.54 1.54 0 0 1 .356-.044.282.282 0 0 0 .07-.016c-.136 0-.08-.076-.252-.071.105-.025.213-.036.32-.033h-.214a3.855 3.855 0 0 1 1.28-.021.4.4 0 0 1-.14.016c.083.014.167.023.252.027-.035 0 .131-.013.141-.022a.394.394 0 0 0-.106 0c.02 0 .177 0 .106-.032.052 0 .103.008.152.024L76 .304h-4.064zM57.993 24.118c0 .04-.03 0-.027-.038v.122c0 .038 0 .05.022.025.023-.025.01-.063.005-.11zm-.068-.196a2.34 2.34 0 0 0-.03.291h.015c.013-.019 0-.073.023-.092 0 .04.02 0 .027-.03 0-.142-.02-.237-.032-.17h-.003zM49.506 4.115h11.872V.305H49.506v3.81zm8.316 20.177c-.036-.024 0-.174 0-.253-.038-.02-.016-.142-.023-.207-.046 0-.03.16-.063.196a.167.167 0 0 1 0-.06c-.048.215-.066-.563-.086-.378-.043.035-.036-.109-.056-.15-.02-.04-.023.098-.053.104v-.11c0-.056.104-.124.197-.217-.028-.199.058-.36.015-.528 0-.033.033-.038.036-.092 0 .038.025 0 .05.016a.446.446 0 0 0 .023-.19c0 .021-.023.086-.038.057-.015-.03.02-.077-.013-.074.026-.038 0-.1.036-.128a.496.496 0 0 1 .02-.25c.028.027-.018.068 0 .084.023-.109.037-.22.043-.332 0 0-.028.05-.03.022v.12h-.038a.54.54 0 0 1 .015-.166c0 .03 0 .046.028.016.027-.03-.018-.057-.028-.038.018-.139 0-.245.028-.381a.052.052 0 0 0-.02.032.151.151 0 0 1 0-.12c.02 0 .015.06.032.028v-.046c-.017 0-.017.019-.035 0-.001-.128.01-.256.033-.381l.017.013c.018.014 0 .052 0 .074a.428.428 0 0 1 .059-.199c-.026.027-.03-.016-.046-.04a1.146 1.146 0 0 0 0-.325c-.02-.013 0 .052-.02.058a2.17 2.17 0 0 0 0-.215c-.04 0-.046.078-.086.076 0 .087-.043.092-.035.201.022 0 .017 0 .045.03.028.03 0 .063.02.063-.04.25 0 .416-.038.585-.022-.041 0-.174-.022-.207 0 .087-.079.272 0 .324 0-.065.03-.046.027-.093.03.068 0 .183.016.272 0 .03-.026.028-.038.044-.03.201-.043.384-.06.544 0 0 0-.084-.026-.051.028-.142.038-.286.03-.43h-.035a.15.15 0 0 1 0 .06c-.018-.03 0-.123-.02-.147 0-.292.037-.624.037-.97 0-.037-.012-.032-.015-.062.043-.33.063-.79.104-1.089-.03 0-.038-.03-.063-.03-.028.066-.036.177-.066.235-.023-.06 0-.218.04-.213 0-.032.006-.065.018-.095.018 0 0 .035.028.027.028-.008.035-.065.023-.106 0 .025-.015.07-.038.068-.015-.07.033-.109.033-.188.012 0 .02.03.025.052.005.022.015-.043.035-.033 0-.076-.017-.106 0-.157.018-.052 0 .04-.02.035-.02-.006-.015-.117-.033-.16-.017-.044.068-.03.07 0 .042-.147.058-.3.049-.452a.103.103 0 0 0-.03.106c0 .049-.026.054-.03.103-.023-.013 0-.06 0-.095-.018.033-.016-.02-.028-.027a.833.833 0 0 1 0-.106c-.036.076-.046-.055-.04-.112a.18.18 0 0 0 .014-.155c-.035.092 0 .22-.078.245a.613.613 0 0 0-.02-.158c-.018 0-.02.038-.033.057-.046-.076.018-.337 0-.468-.023 0-.025.122-.04.188-.02 0-.03-.022-.026-.063 0 0-.012.033-.025.033-.013 0 0-.104 0-.134-.005-.111 0-.224.015-.334-.025 0-.045.125-.033.187-.05.074-.033.232-.07.33 0 0 0-.038-.023-.014.02-.097.035-.195.045-.294-.015 0-.012.022-.025.022v-.169c0-.021.02 0 .02-.032a.114.114 0 0 1 0 .038c.038-.033.015-.13.036-.202-.028.033-.02.098-.038.14a.413.413 0 0 1 0-.18c0-.03-.02 0-.023 0v-.096c0-.035 0 .03.023 0a.259.259 0 0 1 .02-.13h.04c.026 0 0 .12.03.1 0-.076.02-.084.02-.155.024.057-.017.093-.017.19v.273a.07.07 0 0 0 .05.016c.04-.121.058-.25.051-.378.009-.064.022-.127.04-.188 0-.065.02-.188.028-.272.023-.272.033-.574.061-.857.025-.02.033-.082.048-.128.018 0 .023-.02.04 0 .006-.1.006-.202 0-.302 0-.038.013-.041 0-.082.028 0 0 .095.03.098a.744.744 0 0 1 0-.18c0-.035-.022.025-.02.058-.02-.077.02-.205 0-.3-.02 0-.03.02-.047.02-.018 0-.023.065 0 .094.022.03-.013 0-.023 0a.592.592 0 0 0-.03-.1.203.203 0 0 0-.02-.158.33.33 0 0 0-.02.177.026.026 0 0 1-.026.022 1.733 1.733 0 0 0-.013-.17c0 .055-.028 0-.038.058a3.684 3.684 0 0 1 .023-.525c-.018-.017 0 .038-.025.022 0-.273.012-.645 0-.901l-.05-.678c0 .022-.02 0-.026.022 0 .114-.033.12-.035.237-.018 0-.023-.025-.046-.017a1.33 1.33 0 0 1 .015-.272c-.038.016-.027-.07-.05-.016v-.11c0-.02-.04 0-.066.017a.879.879 0 0 1 0-.253.594.594 0 0 0 .111-.215s0 .027.015.025c.038-.071.016-.134.013-.226 0 0-.03.027-.023 0-.02.027 0 .068-.017.117-.018.049.017 0 .03 0 .013 0 0 .022 0 .024h-.035c-.018 0-.013.036 0 .06h-.036c0 .074-.055.07 0 .095 0 .068-.03.055-.035.104a1.41 1.41 0 0 1 0-.324 2.907 2.907 0 0 1 .055-.582c.099.038.046-.156.071-.232-.06-.087 0-.25 0-.362 0 .03-.012-.024 0-.049.013-.024 0 .05-.03.033a.15.15 0 0 0 0 .049 4.338 4.338 0 0 1 0-.841c-.015 0-.023.098-.025.13.002.12-.005.24-.02.36 0 .024-.016.024-.03.022 0-.156.012-.4.014-.575-.033.123 0 .302-.043.441 0 .017 0 0 .018 0 0 .08-.139-.198-.149-.125v-4.86h-3.781v21.5h3.811l.048-.137c0-.272.015-.087.03-.419 0-.024.026.06.036 0 .01-.06-.018-.032-.033-.04.015-.103.022-.207.023-.31 0-.028.02 0 .03 0 .01 0 0-.063-.025-.052a1.73 1.73 0 0 0 0-.324c0-.028.013-.066.038-.057-.056-.098-.015-.3-.033-.46.018-.014.028-.039.048-.044.02-.005-.013 0-.023-.014.023-.073.372-.144.374-.215a3.2 3.2 0 0 0-.384.047c-.023-.017.356-.055.361-.098-.022 0-.017.024-.04 0 0 .046-.369.057-.384.081-.033-.019.323-.06.31-.114.016 0 .066.03.079-.04a.08.08 0 0 0 .058 0 2.548 2.548 0 0 1 0-.374V24.2c-.008.021-.03.046-.05.092zm-.091-1.089v.036-.036z" opacity=".5"/>
</svg>
