<?xml version="1.0" encoding="UTF-8"?>
<svg width="130px" height="18px" viewBox="0 0 130 18" version="1.1" xmlns="http://www.w3.org/2000/svg" xmlns:xlink="http://www.w3.org/1999/xlink">
    <!-- Generator: Sketch 51.1 (57501) - http://www.bohemiancoding.com/sketch -->
    <title>photobook@1x</title>
    <desc>Created with Sketch.</desc>
    <defs></defs>
    <g id="home-L-4" stroke="none" stroke-width="1" fill="none" fill-rule="evenodd">
        <g id="DM_home_1320_l_1" transform="translate(-945.000000, -4760.000000)" fill="#8E8E8E">
            <g id="клиенты" transform="translate(61.000000, 4075.000000)">
                <g id="logos" transform="translate(0.000000, 103.000000)">
                    <g id="photobook" transform="translate(884.000000, 582.000000)">
                        <g id="Group-9">
                            <path d="M96.3337143,12.0262857 C96.3337143,9.48571429 91.2525714,10.3028571 91.2525714,6.856 C91.2525714,6.08342857 91.5348571,5.44457143 92.0994286,4.92457143 C92.664,4.40457143 93.4217143,4.13714286 94.3874286,4.13714286 C95.576,4.13714286 96.6605714,4.568 97.2548571,5.22171429 L96.5714286,6.17257143 C96.0068571,5.608 95.3085714,5.32571429 94.4617143,5.32571429 C93.3177143,5.32571429 92.5897143,5.92 92.5897143,6.856 C92.5897143,9.42628571 97.6708571,8.46057143 97.6708571,12.0114286 C97.6708571,12.8582857 97.344,13.5417143 96.6902857,14.0617143 C96.0514286,14.5817143 95.2491429,14.8342857 94.2834286,14.8342857 C93.6148571,14.8342857 92.9611429,14.7005714 92.3222857,14.4182857 C91.6834286,14.136 91.2525714,13.7497143 91,13.2742857 L91.728,12.4125714 C92.3222857,13.1851429 93.3622857,13.6457143 94.2982857,13.6457143 C95.4422857,13.6457143 96.3337143,13.0365714 96.3337143,12.0262857 Z M108.219429,14.6857143 L106.956571,14.6857143 L106.956571,9.976 L101.236571,9.976 L101.236571,14.6857143 L99.9737143,14.6857143 L99.9737143,4.28571429 L101.236571,4.28571429 L101.236571,8.78742857 L106.956571,8.78742857 L106.956571,4.28571429 L108.219429,4.28571429 L108.219429,14.6857143 Z M110.522286,9.48571429 C110.522286,7.97028571 111.027429,6.70742857 112.022857,5.68228571 C113.018286,4.65714286 114.296,4.13714286 115.826286,4.13714286 C117.356571,4.13714286 118.619429,4.64228571 119.614857,5.63771429 C120.625143,6.63314286 121.130286,7.92571429 121.130286,9.48571429 C121.130286,11.016 120.625143,12.2937143 119.614857,13.3188571 C118.604571,14.3291429 117.341714,14.8342857 115.826286,14.8342857 C114.296,14.8342857 113.033143,14.3291429 112.022857,13.3337143 C111.027429,12.3382857 110.522286,11.0457143 110.522286,9.48571429 Z M111.859429,9.48571429 C111.859429,10.6594286 112.245714,11.6548571 113.003429,12.4571429 C113.761143,13.2445714 114.712,13.6457143 115.826286,13.6457143 C117,13.6457143 117.950857,13.2445714 118.678857,12.4571429 C119.421714,11.6697143 119.793143,10.6742857 119.793143,9.48571429 C119.793143,8.28228571 119.406857,7.30171429 118.649143,6.51428571 C117.891429,5.72685714 116.940571,5.32571429 115.826286,5.32571429 C114.682286,5.32571429 113.746286,5.712 112.988571,6.49942857 C112.230857,7.28685714 111.859429,8.28228571 111.859429,9.48571429 Z M124.696,10.6891429 L124.696,14.6857143 L123.433143,14.6857143 L123.433143,4.28571429 C123.626286,4.28571429 124.057143,4.28571429 124.755429,4.27085714 C125.453714,4.256 125.929143,4.256 126.152,4.256 C127.518857,4.256 128.499429,4.568 129.093714,5.17714286 C129.702857,5.78628571 130,6.544 130,7.48 C130,8.38628571 129.673143,9.15885714 129.019429,9.79771429 C128.380571,10.4365714 127.459429,10.7485714 126.256,10.7485714 C125.676571,10.7485714 125.156571,10.7337143 124.696,10.6891429 Z M126.270857,5.44457143 C125.869714,5.44457143 125.349714,5.45942857 124.696,5.47428571 L124.696,9.48571429 C125.260571,9.53028571 125.765714,9.56 126.211429,9.56 C127.741714,9.56 128.662857,8.77257143 128.662857,7.46514286 C128.662857,6.20228571 127.875429,5.44457143 126.270857,5.44457143 Z" id="SHOP-Copy-2"></path>
                            <path d="M4.41503906,1.13671875 L4.33984375,2.39355469 C4.72656443,1.8850886 5.15266694,1.50553511 5.61816406,1.25488281 C6.08366118,1.00423052 6.59211964,0.87890625 7.14355469,0.87890625 C7.81673514,0.87890625 8.39859781,1.05973126 8.88916016,1.42138672 C9.3797225,1.78304217 9.68587179,2.20019295 9.80761719,2.67285156 C9.92936259,3.14551018 9.99023438,3.94758549 9.99023438,5.07910156 L9.99023438,11.0839844 C9.99023438,12.3802148 9.91324947,13.3022434 9.75927734,13.8500977 C9.60530522,14.397952 9.2902042,14.8347965 8.81396484,15.1606445 C8.33772548,15.4864925 7.7630242,15.6494141 7.08984375,15.6494141 C6.55273169,15.6494141 6.05501531,15.5240898 5.59667969,15.2734375 C5.13834406,15.0227852 4.71940294,14.6503931 4.33984375,14.15625 L4.33984375,17.421875 L0,17.421875 L0,1.13671875 L4.41503906,1.13671875 Z M5.65039062,5.28320312 C5.65039062,4.40233935 5.61816438,3.86881604 5.55371094,3.68261719 C5.48925749,3.49641834 5.31022282,3.40332031 5.01660156,3.40332031 C4.7301418,3.40332031 4.54573609,3.51074111 4.46337891,3.72558594 C4.38102172,3.94043076 4.33984375,4.4596313 4.33984375,5.28320312 L4.33984375,11.1914062 C4.33984375,12.0507855 4.38281207,12.5878896 4.46875,12.8027344 C4.55468793,13.0175792 4.74088398,13.125 5.02734375,13.125 C5.30664202,13.125 5.48030565,13.0265309 5.54833984,12.8295898 C5.61637404,12.6326488 5.65039062,12.1546262 5.65039062,11.3955078 L5.65039062,5.28320312 Z M15.0087891,0 L15.0087891,3.91015625 C15.3811868,3.56640453 15.7840148,3.30859461 16.2172852,3.13671875 C16.6505556,2.96484289 17.1142553,2.87890625 17.6083984,2.87890625 C18.3675168,2.87890625 19.013832,3.07226369 19.5473633,3.45898438 C20.0808946,3.84570506 20.4067377,4.29150138 20.5249023,4.79638672 C20.643067,5.30127206 20.7021484,6.2233006 20.7021484,7.5625 L20.7021484,17.3916016 L16.3623047,17.3916016 L16.3623047,7.35839844 C16.3623047,6.52766512 16.3211267,5.99414181 16.2387695,5.7578125 C16.1564123,5.52148319 15.9720066,5.40332031 15.6855469,5.40332031 C15.4205716,5.40332031 15.2415369,5.52506389 15.1484375,5.76855469 C15.0553381,6.01204549 15.0087891,6.49543909 15.0087891,7.21875 L15.0087891,17.3916016 L10.6689453,17.3916016 L10.6689453,0 L15.0087891,0 Z M31.2636719,8.14257812 L31.2636719,11.6337891 C31.2636719,12.9156965 31.1992194,13.8556285 31.0703125,14.4536133 C30.9414056,15.051598 30.6656922,15.6101862 30.2431641,16.1293945 C29.8206359,16.6486029 29.2781609,17.031737 28.6157227,17.2788086 C27.9532844,17.5258801 27.1923871,17.6494141 26.3330078,17.6494141 C25.3733676,17.6494141 24.5605502,17.5437836 23.8945312,17.3325195 C23.2285123,17.1212555 22.7111021,16.8025737 22.3422852,16.3764648 C21.9734682,15.9503559 21.7102872,15.4347361 21.5527344,14.8295898 C21.3951815,14.2244436 21.3164062,13.3167378 21.3164062,12.1064453 L21.3164062,8.45410156 C21.3164062,7.12922515 21.459634,6.09440477 21.7460938,5.34960938 C22.0325535,4.60481398 22.5481734,4.00683819 23.2929688,3.55566406 C24.0377641,3.10448993 24.9902286,2.87890625 26.1503906,2.87890625 C27.1243538,2.87890625 27.9604457,3.02392433 28.6586914,3.31396484 C29.3569371,3.60400536 29.8958314,3.98176851 30.2753906,4.44726562 C30.6549498,4.91276274 30.9145501,5.39257565 31.0541992,5.88671875 C31.1938484,6.38086185 31.2636719,7.13280745 31.2636719,8.14257812 Z M26.9238281,7.06835938 C26.9238281,6.33788697 26.8844405,5.87776788 26.8056641,5.68798828 C26.7268876,5.49820869 26.558595,5.40332031 26.3007812,5.40332031 C26.0429675,5.40332031 25.8710942,5.49820869 25.7851562,5.68798828 C25.6992183,5.87776788 25.65625,6.33788697 25.65625,7.06835938 L25.65625,13.5029297 C25.65625,14.1761101 25.6992183,14.6147451 25.7851562,14.8188477 C25.8710942,15.0229502 26.0393868,15.125 26.2900391,15.125 C26.5478529,15.125 26.7179358,15.031902 26.800293,14.8457031 C26.8826502,14.6595043 26.9238281,14.2584666 26.9238281,13.6425781 L26.9238281,7.06835938 Z M36.5185547,1.23535156 L36.5185547,3.48046875 L37.6894531,3.48046875 L37.6894531,5.73632812 L36.5185547,5.73632812 L36.5185547,13.3632812 C36.5185547,14.301437 36.566894,14.8242182 36.6635742,14.9316406 C36.7602544,15.039063 37.1630824,15.0927734 37.8720703,15.0927734 L37.8720703,17.3916016 L36.1210938,17.3916016 C35.1328076,17.3916016 34.427411,17.3504236 34.0048828,17.2680664 C33.5823547,17.1857092 33.2099625,16.9959325 32.8876953,16.6987305 C32.5654281,16.4015285 32.3649092,16.0613626 32.2861328,15.6782227 C32.2073564,15.2950827 32.1679688,14.3945383 32.1679688,12.9765625 L32.1679688,5.73632812 L31.2333984,5.73632812 L31.2333984,3.48046875 L32.1679688,3.48046875 L32.1679688,1.23535156 L36.5185547,1.23535156 Z M47.7138672,8.14257812 L47.7138672,11.6337891 C47.7138672,12.9156965 47.6494147,13.8556285 47.5205078,14.4536133 C47.3916009,15.051598 47.1158875,15.6101862 46.6933594,16.1293945 C46.2708312,16.6486029 45.7283562,17.031737 45.065918,17.2788086 C44.4034798,17.5258801 43.6425824,17.6494141 42.7832031,17.6494141 C41.8235629,17.6494141 41.0107455,17.5437836 40.3447266,17.3325195 C39.6787076,17.1212555 39.1612974,16.8025737 38.7924805,16.3764648 C38.4236635,15.9503559 38.1604826,15.4347361 38.0029297,14.8295898 C37.8453768,14.2244436 37.7666016,13.3167378 37.7666016,12.1064453 L37.7666016,8.45410156 C37.7666016,7.12922515 37.9098293,6.09440477 38.1962891,5.34960938 C38.4827488,4.60481398 38.9983687,4.00683819 39.7431641,3.55566406 C40.4879595,3.10448993 41.4404239,2.87890625 42.6005859,2.87890625 C43.5745491,2.87890625 44.410641,3.02392433 45.1088867,3.31396484 C45.8071324,3.60400536 46.3460267,3.98176851 46.7255859,4.44726562 C47.1051451,4.91276274 47.3647454,5.39257565 47.5043945,5.88671875 C47.6440437,6.38086185 47.7138672,7.13280745 47.7138672,8.14257812 Z M43.3740234,7.06835938 C43.3740234,6.33788697 43.3346358,5.87776788 43.2558594,5.68798828 C43.1770829,5.49820869 43.0087904,5.40332031 42.7509766,5.40332031 C42.4931628,5.40332031 42.3212895,5.49820869 42.2353516,5.68798828 C42.1494136,5.87776788 42.1064453,6.33788697 42.1064453,7.06835938 L42.1064453,13.5029297 C42.1064453,14.1761101 42.1494136,14.6147451 42.2353516,14.8188477 C42.3212895,15.0229502 42.4895821,15.125 42.7402344,15.125 C42.9980482,15.125 43.1681311,15.031902 43.2504883,14.8457031 C43.3328455,14.6595043 43.3740234,14.2584666 43.3740234,13.6425781 L43.3740234,7.06835938 Z M52.7324219,0 L52.7324219,4.11425781 C53.0904966,3.69889115 53.4897439,3.38916118 53.9301758,3.18505859 C54.3706077,2.98095601 54.8486302,2.87890625 55.3642578,2.87890625 C55.9586618,2.87890625 56.4742817,2.97200428 56.9111328,3.15820312 C57.347984,3.34440197 57.6809884,3.60579259 57.9101562,3.94238281 C58.1393241,4.27897304 58.2771808,4.60839683 58.3237305,4.93066406 C58.3702802,5.2529313 58.3935547,5.94042442 58.3935547,6.99316406 L58.3935547,13.4169922 C58.3935547,14.4625703 58.3237312,15.2413711 58.184082,15.753418 C58.0444329,16.2654648 57.7167995,16.7094708 57.2011719,17.0854492 C56.6855443,17.4614277 56.0732457,17.6494141 55.3642578,17.6494141 C54.8557917,17.6494141 54.3813499,17.5384126 53.940918,17.3164062 C53.5004861,17.0943999 53.0976581,16.7613954 52.7324219,16.3173828 L52.453125,17.3916016 L48.3925781,17.3916016 L48.3925781,0 L52.7324219,0 Z M54.0537109,7.18652344 C54.0537109,6.44888954 54.0071619,5.96728628 53.9140625,5.74169922 C53.8209631,5.51611215 53.6383477,5.40332031 53.3662109,5.40332031 C53.1012357,5.40332031 52.9293624,5.50178938 52.8505859,5.69873047 C52.7718095,5.89567156 52.7324219,6.39159759 52.7324219,7.18652344 L52.7324219,13.3310547 C52.7324219,14.0973346 52.7771805,14.5878896 52.8666992,14.8027344 C52.9562179,15.0175792 53.1334622,15.125 53.3984375,15.125 C53.6705743,15.125 53.8478186,15.0139985 53.9301758,14.7919922 C54.012533,14.5699859 54.0537109,14.0364626 54.0537109,13.1914062 L54.0537109,7.18652344 Z M68.890625,8.14257812 L68.890625,11.6337891 C68.890625,12.9156965 68.8261725,13.8556285 68.6972656,14.4536133 C68.5683587,15.051598 68.2926453,15.6101862 67.8701172,16.1293945 C67.447589,16.6486029 66.905114,17.031737 66.2426758,17.2788086 C65.5802376,17.5258801 64.8193402,17.6494141 63.9599609,17.6494141 C63.0003207,17.6494141 62.1875033,17.5437836 61.5214844,17.3325195 C60.8554654,17.1212555 60.3380552,16.8025737 59.9692383,16.3764648 C59.6004213,15.9503559 59.3372404,15.4347361 59.1796875,14.8295898 C59.0221346,14.2244436 58.9433594,13.3167378 58.9433594,12.1064453 L58.9433594,8.45410156 C58.9433594,7.12922515 59.0865871,6.09440477 59.3730469,5.34960938 C59.6595066,4.60481398 60.1751265,4.00683819 60.9199219,3.55566406 C61.6647173,3.10448993 62.6171817,2.87890625 63.7773438,2.87890625 C64.751307,2.87890625 65.5873989,3.02392433 66.2856445,3.31396484 C66.9838902,3.60400536 67.5227846,3.98176851 67.9023438,4.44726562 C68.2819029,4.91276274 68.5415032,5.39257565 68.6811523,5.88671875 C68.8208015,6.38086185 68.890625,7.13280745 68.890625,8.14257812 Z M64.5507812,7.06835938 C64.5507812,6.33788697 64.5113936,5.87776788 64.4326172,5.68798828 C64.3538408,5.49820869 64.1855482,5.40332031 63.9277344,5.40332031 C63.6699206,5.40332031 63.4980473,5.49820869 63.4121094,5.68798828 C63.3261714,5.87776788 63.2832031,6.33788697 63.2832031,7.06835938 L63.2832031,13.5029297 C63.2832031,14.1761101 63.3261714,14.6147451 63.4121094,14.8188477 C63.4980473,15.0229502 63.6663399,15.125 63.9169922,15.125 C64.174806,15.125 64.3448889,15.031902 64.4272461,14.8457031 C64.5096033,14.6595043 64.5507812,14.2584666 64.5507812,13.6425781 L64.5507812,7.06835938 Z M79.3876953,8.14257812 L79.3876953,11.6337891 C79.3876953,12.9156965 79.3232428,13.8556285 79.1943359,14.4536133 C79.065429,15.051598 78.7897157,15.6101862 78.3671875,16.1293945 C77.9446593,16.6486029 77.4021843,17.031737 76.7397461,17.2788086 C76.0773079,17.5258801 75.3164105,17.6494141 74.4570312,17.6494141 C73.497391,17.6494141 72.6845736,17.5437836 72.0185547,17.3325195 C71.3525357,17.1212555 70.8351255,16.8025737 70.4663086,16.3764648 C70.0974916,15.9503559 69.8343107,15.4347361 69.6767578,14.8295898 C69.5192049,14.2244436 69.4404297,13.3167378 69.4404297,12.1064453 L69.4404297,8.45410156 C69.4404297,7.12922515 69.5836574,6.09440477 69.8701172,5.34960938 C70.156577,4.60481398 70.6721968,4.00683819 71.4169922,3.55566406 C72.1617876,3.10448993 73.114252,2.87890625 74.2744141,2.87890625 C75.2483773,2.87890625 76.0844692,3.02392433 76.7827148,3.31396484 C77.4809605,3.60400536 78.0198549,3.98176851 78.3994141,4.44726562 C78.7789733,4.91276274 79.0385735,5.39257565 79.1782227,5.88671875 C79.3178718,6.38086185 79.3876953,7.13280745 79.3876953,8.14257812 Z M75.0478516,7.06835938 C75.0478516,6.33788697 75.0084639,5.87776788 74.9296875,5.68798828 C74.8509111,5.49820869 74.6826185,5.40332031 74.4248047,5.40332031 C74.1669909,5.40332031 73.9951176,5.49820869 73.9091797,5.68798828 C73.8232418,5.87776788 73.7802734,6.33788697 73.7802734,7.06835938 L73.7802734,13.5029297 C73.7802734,14.1761101 73.8232418,14.6147451 73.9091797,14.8188477 C73.9951176,15.0229502 74.1634102,15.125 74.4140625,15.125 C74.6718763,15.125 74.8419592,15.031902 74.9243164,14.8457031 C75.0066736,14.6595043 75.0478516,14.2584666 75.0478516,13.6425781 L75.0478516,7.06835938 Z M89.4121094,3.13671875 L87.6503906,8.81933594 L89.9384766,17.3916016 L85.7597656,17.3916016 L84.40625,11.1826172 L84.40625,17.3916016 L80.0664062,17.3916016 L80.0664062,0 L84.40625,0 L84.40625,7.3046875 L85.7597656,3.13671875 L89.4121094,3.13671875 Z" id="photobook"></path>
                        </g>
                    </g>
                </g>
            </g>
        </g>
    </g>
</svg>