<?xml version="1.0" encoding="UTF-8"?>
<svg width="159px" height="28px" viewBox="0 0 159 28" version="1.1" xmlns="http://www.w3.org/2000/svg" xmlns:xlink="http://www.w3.org/1999/xlink">
    <!-- Generator: Sketch 51.1 (57501) - http://www.bohemiancoding.com/sketch -->
    <title>socialshopwave@1x</title>
    <desc>Created with Sketch.</desc>
    <defs></defs>
    <g id="home-L-4" stroke="none" stroke-width="1" fill="none" fill-rule="evenodd">
        <g id="DM_home_1320_l_1" transform="translate(-1204.000000, -4755.000000)" fill="#8E8E8E">
            <g id="клиенты" transform="translate(61.000000, 4075.000000)">
                <g id="logos" transform="translate(0.000000, 103.000000)">
                    <g id="socialshopwave" transform="translate(1143.000000, 577.000000)">
                        <path d="M4.671,11.691 L4.401,12.285 C4.05,13.122 3.483,13.581 2.781,13.581 C2.052,13.581 1.377,12.987 1.377,12.366 C1.377,12.069 1.512,11.61 1.755,11.124 L3.51,7.56 C3.942,6.696 4.428,6.318 5.103,6.318 C5.778,6.318 6.372,6.804 6.372,7.398 C6.372,7.506 6.345,7.695 6.291,7.938 C6.264,8.127 6.237,8.316 6.237,8.478 C6.237,9.045 6.426,9.558 6.858,10.152 L7.614,11.205 C8.37,12.285 8.748,13.257 8.748,14.202 C8.748,15.525 8.019,16.821 6.885,17.55 C6.534,17.766 6.21,17.874 5.427,18.036 C5.022,18.144 4.752,18.171 4.617,18.171 L1.35,18.171 C0.486,18.144 0,17.739 0,16.983 C0,16.065 0.864,15.282 1.917,15.282 L3.753,15.282 C4.995,15.282 5.589,14.85 5.589,13.932 C5.589,13.581 5.508,13.338 5.265,12.825 L4.671,11.691 Z M14.683,18.171 C13.117,18.171 12.523,18.063 11.929,17.658 C10.822,16.902 10.147,15.525 10.147,14.04 C10.147,10.773 12.955,7.911 16.168,7.911 C18.787,7.911 20.623,9.693 20.623,12.204 C20.623,14.283 19.489,16.497 17.896,17.523 C17.113,18.036 16.33,18.171 14.683,18.171 Z M17.491,12.339 C17.491,11.394 16.843,10.719 15.952,10.719 C14.602,10.719 13.333,12.231 13.333,13.824 C13.333,14.85 13.873,15.309 15.007,15.309 C15.655,15.309 15.952,15.255 16.276,14.985 C16.951,14.472 17.491,13.311 17.491,12.339 Z M25.451,18.171 C23.264,18.171 21.725,16.47 21.725,13.986 C21.725,10.719 24.371,7.911 27.449,7.911 C29.528,7.911 30.932,9.18 30.932,11.07 C30.932,12.339 30.203,13.257 29.177,13.257 C28.475,13.257 27.962,12.771 27.989,12.15 L27.989,11.556 C28.016,11.043 27.638,10.665 27.125,10.665 C25.964,10.665 24.83,12.069 24.83,13.554 C24.83,14.283 25.127,14.85 25.613,15.066 C25.937,15.174 26.72,15.282 27.341,15.282 L30.149,15.282 C31.013,15.309 31.499,15.714 31.499,16.47 C31.499,17.415 30.635,18.171 29.582,18.171 L25.451,18.171 Z M36.111,15.282 L37.92,15.282 C38.784,15.309 39.27,15.714 39.27,16.47 C39.27,17.415 38.406,18.171 37.353,18.171 L34.95,18.171 C33.357,18.171 32.439,17.523 32.439,16.389 C32.439,16.038 32.493,15.849 32.709,15.282 L34.896,9.936 L35.031,9.585 C35.436,8.613 36.138,8.1 37.002,8.1 C37.758,8.1 38.352,8.64 38.352,9.369 C38.352,9.639 38.271,9.963 38.136,10.26 L38.001,10.638 L36.111,15.282 Z M37.866,7.533 C36.867,7.533 36.03,6.696 36.03,5.697 C36.03,4.698 36.84,3.861 37.839,3.861 C38.892,3.861 39.702,4.671 39.702,5.724 C39.702,6.723 38.892,7.533 37.866,7.533 Z M49.174,15.282 L50.956,15.282 C51.82,15.309 52.306,15.714 52.306,16.47 C52.306,17.415 51.442,18.171 50.389,18.171 L48.364,18.171 C47.581,18.171 47.122,17.901 46.852,17.28 L46.609,17.496 C46.042,18.009 45.61,18.171 44.935,18.171 L43.342,18.171 C41.479,18.171 40.183,16.632 40.183,14.391 C40.183,11.043 42.964,7.911 45.907,7.911 C47.014,7.911 47.824,8.289 48.364,9.072 C48.823,8.37 49.309,8.1 50.065,8.1 C50.821,8.1 51.442,8.64 51.442,9.315 C51.442,9.693 51.388,9.882 51.091,10.611 L49.174,15.282 Z M46.096,14.634 L47.095,12.204 L47.176,11.988 C47.257,11.826 47.284,11.664 47.284,11.502 C47.284,10.989 46.744,10.557 46.096,10.557 C44.773,10.557 43.288,12.42 43.288,14.04 C43.288,14.877 43.72,15.363 44.395,15.363 L44.908,15.363 C45.313,15.363 45.961,14.958 46.096,14.634 Z M56.864,15.282 L58.565,15.282 C59.429,15.309 59.915,15.714 59.915,16.47 C59.915,17.415 59.051,18.171 57.998,18.171 L55.325,18.171 C54.056,18.171 53.192,17.523 53.192,16.551 C53.192,16.2 53.354,15.66 53.597,15.093 L58.916,1.998 L59.051,1.647 C59.456,0.675 60.131,0.162 60.995,0.162 C61.724,0.162 62.318,0.729 62.318,1.404 C62.318,1.674 62.237,2.025 62.129,2.322 L61.967,2.673 L56.864,15.282 Z M65.58,11.691 L65.31,12.285 C64.959,13.122 64.392,13.581 63.69,13.581 C62.961,13.581 62.286,12.987 62.286,12.366 C62.286,12.069 62.421,11.61 62.664,11.124 L64.419,7.56 C64.851,6.696 65.337,6.318 66.012,6.318 C66.687,6.318 67.281,6.804 67.281,7.398 C67.281,7.506 67.254,7.695 67.2,7.938 C67.173,8.127 67.146,8.316 67.146,8.478 C67.146,9.045 67.335,9.558 67.767,10.152 L68.523,11.205 C69.279,12.285 69.657,13.257 69.657,14.202 C69.657,15.525 68.928,16.821 67.794,17.55 C67.443,17.766 67.119,17.874 66.336,18.036 C65.931,18.144 65.661,18.171 65.526,18.171 L62.259,18.171 C61.395,18.144 60.909,17.739 60.909,16.983 C60.909,16.065 61.773,15.282 62.826,15.282 L64.662,15.282 C65.904,15.282 66.498,14.85 66.498,13.932 C66.498,13.581 66.417,13.338 66.174,12.825 L65.58,11.691 Z M77.671,8.667 C78.832,8.019 79.183,7.911 79.966,7.911 C81.613,7.911 82.828,8.964 82.828,10.368 C82.828,10.8 82.693,11.421 82.531,11.853 L81.127,15.282 L82.963,15.282 C83.827,15.309 84.313,15.714 84.313,16.47 C84.313,17.415 83.449,18.171 82.396,18.171 L79.426,18.171 C78.265,18.171 77.455,17.442 77.455,16.443 C77.455,16.146 77.509,15.876 77.59,15.633 L77.752,15.282 L78.94,12.312 C79.129,11.907 79.183,11.691 79.183,11.475 C79.183,11.016 78.751,10.719 78.184,10.719 C77.266,10.719 76.537,11.475 75.889,12.987 L74.431,16.632 L74.296,16.983 C73.891,17.928 73.216,18.414 72.379,18.414 C71.623,18.414 71.056,17.901 71.056,17.199 C71.056,16.929 71.137,16.605 71.245,16.308 L71.407,15.957 L77.131,1.809 C77.671,0.513 78.238,0 79.183,0 C79.939,0 80.506,0.54 80.506,1.242 C80.506,1.512 80.425,1.836 80.317,2.133 L80.182,2.484 L77.671,8.667 Z M89.762,18.171 C88.196,18.171 87.602,18.063 87.008,17.658 C85.901,16.902 85.226,15.525 85.226,14.04 C85.226,10.773 88.034,7.911 91.247,7.911 C93.866,7.911 95.702,9.693 95.702,12.204 C95.702,14.283 94.568,16.497 92.975,17.523 C92.192,18.036 91.409,18.171 89.762,18.171 Z M92.57,12.339 C92.57,11.394 91.922,10.719 91.031,10.719 C89.681,10.719 88.412,12.231 88.412,13.824 C88.412,14.85 88.952,15.309 90.086,15.309 C90.734,15.309 91.031,15.255 91.355,14.985 C92.03,14.472 92.57,13.311 92.57,12.339 Z M100.098,17.145 L96.6690001,25.596 C96.1290001,26.919 95.5620001,27.405 94.6170001,27.405 C93.8880001,27.405 93.2940001,26.865 93.2940001,26.163 C93.2940001,25.893 93.3750001,25.569 93.4830001,25.272 L93.6450001,24.921 L99.9900001,9.288 C100.314,8.505 100.908,8.1 101.691,8.1 C102.285,8.1 102.636,8.289 102.987,8.883 C103.608,8.235 104.364,7.911 105.282,7.911 C107.118,7.911 108.333,9.45 108.333,11.772 C108.333,13.905 107.442,16.011 106.065,17.28 C105.282,17.982 104.553,18.198 102.96,18.198 C101.205,18.198 100.827,18.036 100.098,17.145 Z M101.178,14.472 C101.61,15.174 101.907,15.363 102.609,15.363 L102.798,15.39 C103.473,15.39 103.824,15.201 104.229,14.688 C104.823,13.905 105.282,12.636 105.282,11.799 C105.282,10.962 104.85,10.503 104.04,10.503 C103.554,10.503 103.014,10.746 102.663,11.124 C102.474,11.313 102.501,11.259 102.231,11.907 L102.042,12.339 L101.178,14.472 Z M112.603047,11.0069375 L112.835469,10.95225 C112.908386,10.8702183 112.985859,10.7790734 113.067891,10.6788125 C113.149922,10.5785516 113.270689,10.4919639 113.430195,10.4190469 C113.589701,10.3461298 113.715026,10.2048552 113.806172,9.99521875 C114.198101,9.60328971 114.526223,9.37998465 114.790547,9.32529688 C115.173361,9.4893602 115.398945,9.66937142 115.467305,9.86533594 C115.535664,10.0613005 115.569844,10.3825863 115.569844,10.8292031 C115.569844,10.9476933 115.524271,11.0958038 115.433125,11.2735391 C115.341979,11.4512743 115.278177,11.5902703 115.241719,11.6905313 C115.20526,11.7907922 115.118673,11.9457385 114.981953,12.155375 C114.981953,12.1736043 114.959167,12.205505 114.913594,12.2510781 C114.868021,12.2966513 114.813334,12.3900748 114.749531,12.5313516 C114.685729,12.6726283 114.60142,12.7979526 114.496602,12.9073281 C114.391783,13.0167037 114.312032,13.1420279 114.257344,13.2833047 C114.202656,13.4245814 114.07961,13.6547224 113.888203,13.9737344 C113.687681,14.5206121 113.587422,14.8350621 113.587422,14.9170938 C113.587422,15.0173547 113.614765,15.0674844 113.669453,15.0674844 C113.705912,15.0674844 113.769713,15.0401409 113.860859,14.9854531 L113.983906,14.9444375 L114.147969,14.9444375 L114.339375,14.8077188 C114.357604,14.7621456 114.375833,14.6983442 114.394063,14.6163125 C114.412292,14.5980832 114.535337,14.5433963 114.763203,14.45225 L114.790547,14.4249063 C114.772318,14.3793331 114.763203,14.3292034 114.763203,14.2745156 C114.763203,14.1833693 114.852069,14.1241251 115.029805,14.0967813 C115.20754,14.0694374 115.341979,14.0101932 115.433125,13.9190469 C115.433125,13.8005567 115.455911,13.732198 115.501484,13.7139688 C115.547058,13.6957395 115.599466,13.631938 115.658711,13.5225625 C115.717956,13.413187 115.815937,13.3493855 115.952656,13.3311563 C116.089376,13.312927 116.157734,13.25824 116.157734,13.1670938 C116.157734,12.866311 116.326352,12.6293342 116.663594,12.4561563 C116.736511,12.437927 116.772969,12.3923545 116.772969,12.3194375 C116.772969,12.1462596 116.78664,12.0482788 116.813984,12.0254922 C116.841328,12.0027056 116.923359,11.9502973 117.060078,11.8682656 L117.333516,11.5127969 L117.456563,11.2256875 C117.493021,11.1527705 117.538593,11.0935263 117.593281,11.0479531 C117.647969,11.00238 117.716328,10.8998419 117.798359,10.7403359 C117.880391,10.5808299 117.94875,10.4737346 118.003438,10.4190469 L118.153828,10.186625 C118.281433,9.94964465 118.440937,9.83115625 118.632344,9.83115625 C118.732605,9.83115625 118.953631,9.9747095 119.29543,10.2618203 C119.637228,10.5489311 119.808125,10.9750336 119.808125,11.5401406 C119.808125,11.7588917 119.751159,11.8910519 119.637227,11.936625 C119.523294,11.9821981 119.438985,12.1371445 119.384297,12.4014688 C119.329609,12.665793 119.240743,12.9096057 119.117695,13.1329141 C118.994648,13.3562225 118.933125,13.4769895 118.933125,13.4952188 L118.987813,13.6592813 L118.987813,13.7139688 C118.987813,13.9236052 118.933126,14.0922233 118.82375,14.2198281 C118.841979,14.2289428 118.869323,14.3064159 118.905781,14.45225 L118.769063,14.671 C118.805521,15.0264705 118.869322,15.2042031 118.960469,15.2042031 C119.015157,15.2042031 119.085794,15.1859741 119.172383,15.1495156 C119.258972,15.1130571 119.343281,15.0902709 119.425313,15.0811563 C119.507344,15.0720416 119.644062,15.0082402 119.835469,14.88975 L120.724141,14.3292031 L120.888203,14.1377969 L121.01125,14.0557656 C121.157084,13.9828486 121.257343,13.8803106 121.312031,13.7481484 C121.366719,13.6159863 121.453307,13.5407918 121.571797,13.5225625 C121.608255,13.312926 121.717629,13.1169645 121.899922,12.9346719 L122.296406,12.1827188 C122.396667,11.9821969 122.460469,11.8682658 122.487813,11.8409219 C122.487813,11.5310245 122.369324,11.0935289 122.132344,10.5284219 L122.132344,10.4463906 C122.132344,10.264098 122.191588,10.0863654 122.310078,9.9131875 C122.428568,9.74000955 122.542499,9.65342188 122.651875,9.65342188 L122.938984,9.68076563 L123.308125,9.59873438 C123.381042,9.59873438 123.579282,9.73317313 123.902852,10.0020547 C124.226421,10.2709362 124.388203,10.6058938 124.388203,11.0069375 C124.388203,11.2621471 124.342631,11.4831735 124.251484,11.6700234 C124.160338,11.8568733 124.101094,12.0346059 124.07375,12.2032266 C124.046406,12.3718472 123.955261,12.5017287 123.800313,12.592875 L123.745625,12.6612344 C123.718281,13.0896219 123.540549,13.4131864 123.212422,13.6319375 C123.121276,13.7686569 123.025573,13.9349964 122.925313,14.1309609 C122.825052,14.3269255 122.733907,14.4431352 122.651875,14.4795938 C122.633646,14.4795938 122.563008,14.5821318 122.439961,14.7872109 C122.316913,14.9922901 122.22349,15.1153357 122.159688,15.1563516 C122.095885,15.1973674 121.970561,15.2566116 121.783711,15.3340859 C121.596861,15.4115603 121.503438,15.5095411 121.503438,15.6280313 L121.476094,15.8194375 C121.157082,16.0473032 120.952006,16.2159213 120.860859,16.3252969 C120.742369,16.3435261 120.651224,16.3617551 120.587422,16.3799844 C120.213722,16.7536842 119.694196,16.9405313 119.028828,16.9405313 C118.709816,16.9405313 118.368023,16.7833063 118.003438,16.4688516 C117.638852,16.1543969 117.456563,15.833111 117.456563,15.5049844 L117.333516,15.0674844 C117.333516,14.3383141 117.360859,13.8324597 117.415547,13.5499063 C117.442891,13.5134477 117.456563,13.4769898 117.456563,13.4405313 C117.456563,13.3311557 117.424662,13.2764688 117.360859,13.2764688 C117.315286,13.3220419 117.267435,13.3972365 117.217305,13.5020547 C117.167174,13.6068729 117.105651,13.6775102 117.032734,13.7139688 L116.827656,13.8917031 C116.782083,14.1104542 116.734232,14.2334999 116.684102,14.2608438 C116.633971,14.2881876 116.554219,14.358825 116.444844,14.4727578 C116.335468,14.5866907 116.212423,14.6892287 116.075703,14.780375 C116.084818,14.8350628 115.897971,15.1084975 115.515156,15.6006875 L115.515156,15.6827188 C115.515156,15.6918334 115.469584,15.7191769 115.378438,15.76475 L115.159688,15.9835 C115.022968,16.1202194 114.674339,16.3594749 114.113789,16.7012734 C113.553239,17.043072 113.227396,17.2139688 113.13625,17.2139688 C112.890155,17.2139688 112.678243,17.1273811 112.500508,16.9542031 C112.322773,16.7810252 112.220235,16.5941781 112.192891,16.3936563 C112.165547,16.1931344 112.124532,16.0108446 112.069844,15.8467813 C112.015156,15.6827179 111.987813,15.5596723 111.987813,15.4776406 C111.987813,15.4411821 112.006041,15.3500372 112.0425,15.2042031 C112.078959,15.0583691 112.101745,14.9239303 112.110859,14.8008828 C112.119974,14.6778353 112.133646,14.607198 112.151875,14.5889688 L112.151875,14.3292031 C112.151875,14.3109739 112.204283,14.2380579 112.309102,14.1104531 C112.41392,13.9828483 112.466328,13.8506882 112.466328,13.7139688 C112.466328,13.659281 112.507343,13.5726933 112.589375,13.4542031 C112.671407,13.3357129 112.728372,13.2331749 112.760273,13.1465859 C112.792175,13.059997 112.862812,12.9620162 112.972188,12.8526406 C112.990417,12.7614943 113.031432,12.6316128 113.095234,12.4629922 C113.159037,12.2943716 113.190938,12.1918335 113.190938,12.155375 C113.190938,12.1371457 113.181823,12.1189168 113.163594,12.1006875 C113.035989,12.1006875 112.849142,12.2191759 112.603047,12.4561563 L112.356953,12.592875 C112.238463,12.6566774 112.033387,12.8070665 111.741719,13.0440469 C111.604999,13.2172248 111.481954,13.3038125 111.372578,13.3038125 C110.944191,13.3038125 110.73,13.1078509 110.73,12.7159219 C110.73,12.5245147 110.782408,12.3923545 110.887227,12.3194375 C110.992045,12.2465205 111.053568,12.1758832 111.071797,12.1075234 C111.090026,12.0391637 111.201679,11.9844768 111.406758,11.9434609 C111.611837,11.9024451 111.832863,11.6905332 112.069844,11.3077188 C112.27948,11.3077188 112.402526,11.275818 112.438984,11.2120156 C112.475443,11.1482132 112.53013,11.0798545 112.603047,11.0069375 Z M136.197656,13.5499063 L136.416406,13.3585 C136.553126,13.3585 136.635156,13.2969772 136.6625,13.1739297 C136.689844,13.0508822 136.787825,12.9529014 136.956445,12.8799844 C137.125066,12.8070673 137.282291,12.6589568 137.428125,12.4356484 C137.573959,12.21234 137.724348,12.1006875 137.879297,12.1006875 C137.933985,12.1006875 137.997786,12.14626 138.070703,12.2374063 C138.14362,12.3285525 138.180078,12.4014685 138.180078,12.4561563 C138.180078,12.756939 138.088933,13.0668317 137.906641,13.3858438 L137.851953,13.7686563 L137.75625,13.9463906 C137.619531,14.0193077 137.530664,14.0967808 137.489648,14.1788125 C137.448633,14.2608442 137.341537,14.3611036 137.168359,14.4795938 L137.031641,14.671 C136.831119,14.7348024 136.69668,14.8396191 136.62832,14.9854531 C136.559961,15.1312872 136.464258,15.2133176 136.341211,15.2315469 C136.218163,15.2497761 136.083725,15.3409211 135.937891,15.5049844 C135.846744,15.5505575 135.73737,15.5915727 135.609766,15.6280313 L135.582422,15.76475 C135.491276,15.8558963 135.347722,15.9288122 135.151758,15.9835 C134.955793,16.0381878 134.809961,16.0905961 134.714258,16.1407266 C134.618554,16.190857 134.552474,16.2159219 134.516016,16.2159219 C134.342838,16.2159219 134.183334,16.1817425 134.0375,16.1133828 C133.891666,16.0450231 133.741277,16.0017293 133.586328,15.9835 C133.53164,15.9288122 133.49974,15.869568 133.490625,15.8057656 C133.48151,15.7419632 133.435938,15.6576542 133.353906,15.5528359 C133.271875,15.4480177 133.230859,15.3044645 133.230859,15.1221719 L133.285547,14.8624063 C133.285547,14.8259477 133.262761,14.7803753 133.217187,14.7256875 C133.171614,14.6709997 133.148828,14.6254273 133.148828,14.5889688 C133.148828,14.5525102 133.157943,14.5251668 133.176172,14.5069375 C133.194401,14.4887082 133.203516,14.4613648 133.203516,14.4249063 C133.203516,14.3793331 133.194401,14.3292034 133.176172,14.2745156 C133.157943,14.2198279 133.148828,14.1742554 133.148828,14.1377969 L133.230859,13.467875 C133.230859,13.4131872 133.21263,13.3858438 133.176172,13.3858438 C133.139713,13.3858438 133.073633,13.4314162 132.97793,13.5225625 C132.882226,13.6137088 132.770574,13.6592813 132.642969,13.6592813 C132.570052,13.713969 132.510808,13.8279002 132.465234,14.0010781 C132.392317,14.0922244 132.301172,14.1742548 132.191797,14.2471719 L132.137109,14.3292031 C132.11888,14.3930055 132.050521,14.4454139 131.932031,14.4864297 C131.813541,14.5274455 131.731511,14.5798538 131.685937,14.6436563 L131.549219,14.780375 L131.289453,14.7530313 C131.271224,14.7712605 131.221094,14.8510123 131.139062,14.9922891 C131.057031,15.1335658 130.952214,15.2497756 130.824609,15.3409219 L129.785547,16.1885781 C129.676171,16.2614952 129.516668,16.3526401 129.307031,16.4620156 L129.225,16.5440469 C128.49583,17.0271222 127.980861,17.2686563 127.680078,17.2686563 C127.433983,17.2686563 127.146877,17.2002976 126.81875,17.0635781 C126.490623,16.9268587 126.312891,16.7627978 126.285547,16.5713906 L126.148828,16.0108438 C126.066796,15.8832389 126.025781,15.7055063 126.025781,15.4776406 C126.025781,15.3682651 126.034896,15.2953491 126.053125,15.2588906 L126.053125,15.1768594 L126.025781,14.7256875 C126.025781,14.616312 126.112369,14.561625 126.285547,14.561625 L126.258203,14.1924844 C126.258203,14.1560259 126.337955,14.0124726 126.497461,13.7618203 C126.656967,13.511168 126.764062,13.3676148 126.81875,13.3311563 L126.955469,13.1534219 C126.946354,13.0440463 127.010156,12.9278366 127.146875,12.8047891 C127.283594,12.6817416 127.392968,12.5564173 127.475,12.4288125 C127.557032,12.3012077 127.711978,12.1599331 127.939844,12.0049844 L128.35,11.5948281 C128.669012,11.2758161 129.015363,11.0206103 129.389062,10.8292031 C129.44375,10.8109739 129.555403,10.7198289 129.724023,10.5557656 C129.892644,10.3917023 130.084048,10.2709353 130.298242,10.1934609 C130.512436,10.1159866 130.722069,10.0180058 130.927148,9.89951563 C131.132228,9.78102545 131.29401,9.72178125 131.4125,9.72178125 L131.521875,9.72178125 C131.558334,9.72178125 131.799868,9.6078501 132.246484,9.37998438 L132.328516,9.37998438 C132.364974,9.37998438 132.451562,9.41644234 132.588281,9.48935938 L132.615625,9.48935938 L132.834375,9.37998438 C132.870834,9.36175512 132.916406,9.35264063 132.971094,9.35264063 C133.536201,9.35264063 133.846093,9.74456379 133.900781,10.5284219 C133.919011,10.6924852 133.964583,10.7745156 134.0375,10.7745156 C134.128646,10.7745156 134.258528,10.6081761 134.427148,10.2754922 C134.595769,9.94280823 134.953513,9.77646875 135.500391,9.77646875 C135.89232,9.77646875 136.088281,10.0271173 136.088281,10.5284219 C136.088281,11.1208728 135.823961,11.681414 135.295312,12.2100625 C135.258854,12.2829795 135.231511,12.36501 135.213281,12.4561563 L135.021875,13.0167031 L135.021875,13.0440469 C135.021875,13.0987346 134.983138,13.1739292 134.905664,13.2696328 C134.82819,13.3653364 134.789453,13.4496455 134.789453,13.5225625 L134.816797,13.8643594 L134.762109,14.2471719 C134.762109,14.4203498 134.79401,14.534281 134.857812,14.5889688 C135.149481,14.5160517 135.361393,14.3952847 135.493555,14.2266641 C135.625717,14.0580434 135.71914,13.9646199 135.773828,13.9463906 L135.910547,13.8917031 C135.992579,13.7549837 136.088281,13.6410525 136.197656,13.5499063 Z M131.658594,13.5499063 C131.695052,13.3493844 131.806705,13.1967167 131.993555,13.0918984 C132.180405,12.9870802 132.292057,12.8799849 132.328516,12.7706094 C132.501694,12.6430046 132.750063,12.4151423 133.073633,12.0870156 C133.397202,11.758889 133.558984,11.5583702 133.558984,11.4854531 C133.558984,11.4581092 133.540755,11.4444375 133.504297,11.4444375 L133.476953,11.4444375 L133.367578,11.5127969 L133.121484,11.4854531 L132.861719,11.5127969 L132.670312,11.4170938 L132.492578,11.4444375 L132.219141,11.38975 C132.073307,11.38975 131.947982,11.4193721 131.843164,11.4786172 C131.738346,11.5378623 131.537827,11.6039423 131.241602,11.6768594 C130.945376,11.7497764 130.678777,11.8751007 130.441797,12.0528359 C130.204817,12.2305712 130.031641,12.3194375 129.922266,12.3194375 C129.858463,12.4561569 129.644273,12.6521185 129.279687,12.9073281 C129.060936,12.9802452 128.919662,13.1397488 128.855859,13.3858438 C128.618879,13.577251 128.500391,13.6866249 128.500391,13.7139688 L128.404687,13.9463906 C128.33177,14.010193 128.240626,14.0626014 128.13125,14.1036172 C128.021874,14.144633 127.958073,14.2403352 127.939844,14.3907266 C127.921614,14.5411179 127.860092,14.6778353 127.755273,14.8008828 C127.650455,14.9239303 127.598047,15.0219111 127.598047,15.0948281 C127.598047,15.5414449 127.684635,15.76475 127.857812,15.76475 C127.93073,15.76475 128.083397,15.7168989 128.31582,15.6211953 C128.548243,15.5254917 128.682682,15.4594116 128.719141,15.4229531 C128.755599,15.3864946 128.828515,15.3500366 128.937891,15.3135781 L129.197656,15.1768594 C129.234115,15.1404009 129.27513,15.1176146 129.320703,15.1085 C129.366276,15.0993854 129.411849,15.0697633 129.457422,15.0196328 C129.502995,14.9695024 129.585025,14.9148154 129.703516,14.8555703 C129.822006,14.7963252 129.913151,14.7165734 129.976953,14.6163125 C130.131902,14.5251662 130.38255,14.3838916 130.728906,14.1924844 L131.016016,13.9737344 C131.216537,13.8825881 131.339583,13.8051149 131.385156,13.7413125 C131.430729,13.6775101 131.521874,13.6137087 131.658594,13.5499063 Z M139.120391,11.1983438 L139.175078,11.0889688 C139.475861,11.0889688 139.671822,10.9659231 139.762969,10.7198281 L139.817656,10.6651406 C140.145783,10.5557651 140.380481,10.4304408 140.521758,10.2891641 C140.663035,10.1478873 140.91824,10.0180058 141.287383,9.89951563 C141.656525,9.78102545 141.850208,9.72178125 141.868437,9.72178125 C141.923125,9.72178125 142.089465,9.80381168 142.367461,9.967875 C142.645457,10.1319383 142.784453,10.4418311 142.784453,10.8975625 C142.784453,11.2256891 142.693308,11.5310246 142.511016,11.8135781 L142.511016,12.2374063 L142.483672,12.3467813 C142.328723,12.4561568 142.25125,12.5792024 142.25125,12.7159219 L142.25125,12.8252969 L142.278594,13.2217813 L141.895781,14.0557656 C141.740833,14.1286827 141.663359,14.1924841 141.663359,14.2471719 C141.663359,14.2836304 141.702096,14.3269242 141.77957,14.3770547 C141.857045,14.4271851 141.895781,14.4978225 141.895781,14.5889688 C141.895781,14.6892297 141.868438,14.8760768 141.81375,15.1495156 C141.831979,15.1677449 141.850208,15.1768594 141.868437,15.1768594 L141.923125,15.1768594 C141.959584,15.1039423 142.032499,15.0492554 142.141875,15.0127969 L142.278594,14.9170938 C142.296823,14.8168328 142.328724,14.7439169 142.374297,14.6983438 L142.538359,14.6983438 C142.611276,14.6983438 142.647734,14.6254278 142.647734,14.4795938 C142.647734,14.424906 142.848253,14.1902078 143.249297,13.7754922 C143.650341,13.3607766 143.894153,13.0941777 143.980742,12.9756875 C144.067331,12.8571973 144.160755,12.7592165 144.261016,12.6817422 C144.361277,12.6042678 144.420521,12.524516 144.43875,12.4424844 C144.456979,12.3604527 144.509388,12.2829795 144.595977,12.2100625 C144.682566,12.1371455 144.753203,12.0619509 144.807891,11.9844766 C144.862578,11.9070022 144.940052,11.8363649 145.040312,11.7725625 C145.140573,11.7087601 145.243111,11.5993862 145.34793,11.4444375 C145.452748,11.2894888 145.673774,11.070741 146.011016,10.7881875 C146.065703,10.7426144 146.129505,10.6605839 146.202422,10.5420938 C146.275339,10.4236036 146.409778,10.3028366 146.605742,10.1797891 C146.801707,10.0567416 146.988554,9.90635245 147.166289,9.72861719 C147.344024,9.55088192 147.647081,9.46201563 148.075469,9.46201563 C148.321564,9.46201563 148.560819,9.5782254 148.793242,9.81064844 C149.025665,10.0430715 149.141875,10.2823269 149.141875,10.5284219 C149.141875,10.6560267 149.119089,10.7540075 149.073516,10.8223672 C149.027942,10.8907269 148.952748,11.0069367 148.84793,11.171 C148.743111,11.3350633 148.645131,11.4170938 148.553984,11.4170938 L148.307891,11.3350625 C148.134713,11.5082404 147.95698,11.5948281 147.774687,11.5948281 L147.514922,11.5401406 C147.350859,11.6495162 147.218698,11.7087604 147.118437,11.717875 C147.018177,11.7269896 146.933868,11.7816766 146.865508,11.8819375 C146.797148,11.9821984 146.721954,12.039164 146.639922,12.0528359 C146.55789,12.0665079 146.466745,12.1098017 146.366484,12.1827188 L146.147734,12.2920938 C146.056588,12.5199595 145.860626,12.6885776 145.559844,12.7979531 C145.450468,12.9073287 145.350209,13.0349316 145.259062,13.1807656 C145.259062,13.2081095 145.215769,13.2445675 145.12918,13.2901406 C145.042591,13.3357138 144.953724,13.4177442 144.862578,13.5362344 C144.771432,13.6547246 144.698516,13.7139688 144.643828,13.7139688 L144.520781,13.7139688 C144.447864,13.7960004 144.393177,13.9236033 144.356719,14.0967813 C144.32026,14.2699592 144.169871,14.3884476 143.905547,14.45225 C143.869088,14.4704793 143.814401,14.5365593 143.741484,14.6504922 C143.668567,14.764425 143.563751,14.8532913 143.427031,14.9170938 C143.372343,15.1267302 143.253855,15.2953483 143.071562,15.4229531 L142.9075,15.7100625 C142.861927,15.8012088 142.773061,15.8900751 142.640898,15.9766641 C142.508736,16.063253 142.438099,16.1156614 142.428984,16.1338906 C142.41987,16.1521199 142.360626,16.2728869 142.25125,16.4961953 C142.141874,16.7195037 142.021107,16.863057 141.888945,16.9268594 C141.756783,16.9906618 141.626902,17.0931998 141.499297,17.2344766 C141.371692,17.3757533 141.262318,17.4463906 141.171172,17.4463906 C140.85216,17.4463906 140.510366,17.1866276 140.145781,16.6670938 C139.781196,16.1475599 139.598906,15.8194382 139.598906,15.6827188 C139.598906,15.1722995 139.669544,14.7735405 139.81082,14.4864297 C139.952097,14.1993189 140.036406,13.9258841 140.06375,13.6661172 C140.091094,13.4063503 140.141224,13.1807666 140.214141,12.9893594 L140.296172,12.5655313 L140.405547,12.374125 C140.469349,12.301208 140.524036,12.1781623 140.569609,12.0049844 L140.637969,11.7862344 C140.637969,11.6221711 140.587839,11.5401406 140.487578,11.5401406 C140.359973,11.5401406 140.250599,11.6221711 140.159453,11.7862344 L140.104766,11.8409219 C139.8769,11.7862341 139.758411,11.7588906 139.749297,11.7588906 C139.685494,11.7588906 139.62625,11.9001653 139.571562,12.1827188 C139.535104,12.273865 139.443959,12.3331092 139.298125,12.3604531 C139.152291,12.387797 138.992787,12.5336289 138.819609,12.7979531 L138.75125,12.8526406 C138.669218,12.8708699 138.614531,12.8890989 138.587187,12.9073281 C138.459583,13.1169646 138.368438,13.2217813 138.31375,13.2217813 C138.259062,13.2217813 138.202097,13.1693729 138.142852,13.0645547 C138.083606,12.9597365 138.008412,12.8799846 137.917266,12.8252969 C137.826119,12.7706091 137.780547,12.7022504 137.780547,12.6202188 C137.780547,12.4105823 137.985623,12.1417048 138.395781,11.8135781 C138.486928,11.7406611 138.541614,11.6723024 138.559844,11.6085 C138.578073,11.5446976 138.701119,11.5036824 138.928984,11.4854531 C138.965443,11.4672239 139.029244,11.3715217 139.120391,11.1983438 Z M150.095859,11.5127969 L150.382969,11.280375 C150.60172,11.2621457 150.720208,11.1482146 150.738437,10.9385781 C150.756667,10.7289417 150.907056,10.5466518 151.189609,10.3917031 L151.353672,10.1592813 C151.490391,10.0225618 151.864085,9.84482922 152.474766,9.62607813 C152.629714,9.53493184 152.734531,9.45290141 152.789219,9.37998438 C152.807448,9.36175512 152.825677,9.35264063 152.843906,9.35264063 L153.062656,9.40732813 C153.181146,9.40732813 153.333814,9.3754274 153.520664,9.311625 C153.707514,9.2478226 153.887525,9.21592188 154.060703,9.21592188 L154.634922,9.18857813 C154.67138,9.18857813 154.746575,9.2159216 154.860508,9.27060938 C154.974441,9.32529715 155.113437,9.35264063 155.2775,9.35264063 C155.478022,9.35264063 155.66259,9.44378555 155.831211,9.62607813 C155.999832,9.8083707 156.084141,9.97698881 156.084141,10.1319375 C156.084141,10.414491 155.938309,10.7015975 155.646641,10.9932656 C155.354972,11.2849338 155.122553,11.4489946 154.949375,11.4854531 C154.794426,11.6404018 154.675938,11.7383826 154.593906,11.7793984 C154.511875,11.8204143 154.427566,11.8842157 154.340977,11.9708047 C154.254388,12.0573937 154.18375,12.1006875 154.129062,12.1006875 C154.092604,12.1006875 154.06526,12.0892944 154.047031,12.0665078 C154.028802,12.0437212 154.001459,12.0323281 153.965,12.0323281 C153.819166,12.0323281 153.659662,12.2100607 153.486484,12.5655313 L153.240391,12.5381875 C153.085442,12.6384484 152.985183,12.7478223 152.939609,12.8663125 C152.894036,12.9848027 152.798334,13.0440469 152.6525,13.0440469 C152.315259,13.3812881 152.087396,13.5499063 151.968906,13.5499063 C151.950677,13.5499063 151.886876,13.5316773 151.7775,13.4952188 C151.704583,13.586365 151.668125,13.6820672 151.668125,13.7823281 C151.668125,13.8917037 151.595209,13.9555051 151.449375,13.9737344 L151.271641,14.1377969 L151.134922,14.1104531 L150.861484,14.3975625 C150.724765,14.3975625 150.58349,14.443135 150.437656,14.5342813 C150.419427,14.6436568 150.392084,14.7826528 150.355625,14.9512734 C150.319166,15.1198941 150.300937,15.2133176 150.300937,15.2315469 C150.300937,15.4958711 150.542472,15.6280313 151.025547,15.6280313 L151.681797,15.5323281 C151.854975,15.5323281 152.016757,15.4867557 152.167148,15.3956094 C152.31754,15.3044631 152.479322,15.2588906 152.6525,15.2588906 C152.707188,15.2588906 152.789218,15.2406616 152.898594,15.2042031 L153.035312,15.2588906 C153.099115,15.1221712 153.217603,14.9991255 153.390781,14.88975 C153.563959,14.7803745 153.700677,14.7256875 153.800937,14.7256875 L153.937656,14.6436563 C153.974115,14.5342807 154.028802,14.4613648 154.101719,14.4249063 L154.211094,14.3292031 C154.284011,14.2562861 154.352369,14.2198281 154.416172,14.2198281 L154.607578,14.2198281 L154.662266,14.1924844 C154.771641,13.955504 154.924309,13.816508 155.120273,13.7754922 C155.316238,13.7344764 155.439284,13.6683963 155.489414,13.57725 C155.539545,13.4861037 155.628411,13.4314168 155.756016,13.4131875 C155.88362,13.3949582 155.990716,13.3334354 156.077305,13.2286172 C156.163894,13.123799 156.270989,13.0258182 156.398594,12.9346719 C156.526199,12.8435256 156.615065,12.7751669 156.665195,12.7295938 C156.715326,12.6840206 156.75862,12.6612344 156.795078,12.6612344 C156.849766,12.6612344 156.877109,12.7022496 156.877109,12.7842813 C156.877109,12.8663129 156.895338,12.9073281 156.931797,12.9073281 C156.968255,12.9073281 156.986484,12.8890991 156.986484,12.8526406 C156.986484,12.8161821 156.97737,12.7706096 156.959141,12.7159219 L156.959141,12.6202188 C156.959141,12.4834993 157.032057,12.3923544 157.177891,12.3467813 L157.793125,11.9502969 C157.811354,11.7588897 157.863763,11.6472371 157.950352,11.6153359 C158.036941,11.5834347 158.103021,11.5469768 158.148594,11.5059609 C158.194167,11.4649451 158.244297,11.4444375 158.298984,11.4444375 C158.417475,11.4444375 158.476719,11.5127962 158.476719,11.6495156 L158.408359,12.0049844 L158.476719,12.374125 C158.476719,12.4288128 158.433425,12.5040073 158.346836,12.5997109 C158.260247,12.6954145 158.194167,12.8412464 158.148594,13.0372109 C158.103021,13.2331755 158.043776,13.3402707 157.970859,13.3585 L157.888828,13.3585 C157.724765,13.5316779 157.594883,13.634216 157.49918,13.6661172 C157.403476,13.6980184 157.328282,13.754984 157.273594,13.8370156 L156.80875,14.3702188 C156.717604,14.461365 156.640131,14.5433955 156.576328,14.6163125 C156.512526,14.6892295 156.462396,14.7256875 156.425937,14.7256875 L156.316562,14.6163125 C156.316562,14.5980832 156.298334,14.5889688 156.261875,14.5889688 C156.170729,14.5889688 156.113763,14.6436557 156.090977,14.7530313 C156.06819,14.8624068 156.020339,14.958109 155.947422,15.0401406 C155.673983,15.1677454 155.49625,15.2862338 155.414219,15.3956094 L155.332187,15.4229531 L155.086094,15.4229531 C154.967604,15.4229531 154.885573,15.5118194 154.84,15.6895547 C154.794427,15.86729 154.664545,15.969828 154.450352,15.9971719 C154.236158,16.0245158 154.08349,16.0792027 153.992344,16.1612344 C153.974114,16.1794636 153.933099,16.1976926 153.869297,16.2159219 C153.805494,16.2341511 153.677892,16.3070671 153.486484,16.4346719 L152.338047,16.8448281 C152.246901,16.8904013 152.187656,16.9131875 152.160312,16.9131875 L151.7775,16.967875 C151.722812,16.967875 151.668125,16.931417 151.613437,16.8585 C151.55875,16.785583 151.522292,16.749125 151.504062,16.749125 L151.257969,16.8311563 C151.075676,16.885844 150.902501,16.9131875 150.738437,16.9131875 C150.647291,16.9131875 150.547032,16.8812868 150.437656,16.8174844 C150.328281,16.753682 150.241693,16.7081095 150.177891,16.6807656 C149.913566,16.6807656 149.726719,16.4756896 149.617344,16.0655313 L149.453281,16.092875 C149.416823,16.092875 149.293777,15.7693105 149.084141,15.1221719 C149.029453,15.0492548 148.942865,14.9968465 148.824375,14.9649453 C148.705885,14.9330441 148.646641,14.8441778 148.646641,14.6983438 C148.646641,14.2881854 148.735507,14.0124721 148.913242,13.8711953 C149.090977,13.7299186 149.188958,13.6228233 149.207187,13.5499063 L149.398594,12.8389688 C149.435052,12.8116249 149.480625,12.7204799 149.535312,12.5655313 L149.849766,11.9913125 C149.886224,11.9275101 149.968255,11.7680065 150.095859,11.5127969 Z M152.980625,10.6924844 L152.816562,10.7745156 C152.780104,10.7927449 152.673009,10.8724967 152.495273,11.0137734 C152.317538,11.1550502 152.144363,11.2689813 151.975742,11.3555703 C151.807122,11.4421593 151.633946,11.667743 151.456211,12.0323281 C151.278476,12.3969133 151.189609,12.6065466 151.189609,12.6612344 C151.189609,12.7159221 151.216953,12.7432656 151.271641,12.7432656 L151.736484,12.5381875 C151.909662,12.4561558 152.071445,12.3513392 152.221836,12.2237344 C152.372227,12.0961296 152.588696,11.9411832 152.87125,11.7588906 L152.980625,11.6495156 C152.998854,11.6130571 153.083163,11.546977 153.233555,11.4512734 C153.383946,11.3555698 153.495599,11.2621463 153.568516,11.171 L153.705234,11.1163125 C153.860183,10.8702175 154.017408,10.7198284 154.176914,10.6651406 C154.33642,10.6104529 154.416172,10.5557659 154.416172,10.5010781 C154.416172,10.3917026 154.329584,10.3370156 154.156406,10.3370156 C154.083489,10.3370156 153.974115,10.3825881 153.828281,10.4737344 L153.513828,10.4737344 C153.47737,10.4737344 153.37711,10.5284213 153.213047,10.6377969 L152.980625,10.6924844 Z" id="socialshop"></path>
                    </g>
                </g>
            </g>
        </g>
    </g>
</svg>