<svg width="24" height="31" viewBox="0 0 24 31" fill="none" xmlns="http://www.w3.org/2000/svg">
<path fill-rule="evenodd" clip-rule="evenodd" d="M1.11632 20.2932L3.90092 28.7629L17.2371 30.2949C18.9857 28.4038 23.6464 23.0509 23.793 19.5724C23.9735 15.2877 20.5239 14.9854 20.5239 14.9854L19.3825 19.6183L18.3598 19.111C18.3598 19.111 18.2312 5.64834 18.3676 2.4061C18.4798 -0.248964 13.9748 -0.679405 13.8486 2.29491C13.7065 5.65513 13.1476 11.5439 13.0649 12.6231C12.1684 12.6228 5.87258 13.7539 5.02904 14.2789C4.84442 13.3374 4.11002 8.55567 3.95158 6.80875C3.79314 5.06183 -0.562605 4.98329 -0.322565 7.54553C-0.184864 9.01161 1.11632 20.2932 1.11632 20.2932Z" fill="#101113"/>
</svg>
