<svg width="31" height="36" viewBox="0 0 31 36" fill="none" xmlns="http://www.w3.org/2000/svg">
<path fill-rule="evenodd" clip-rule="evenodd" d="M24.5446 13.8378C24.28 13.8378 24.0244 13.8255 23.7758 13.8041L24.7523 11.9882C30.4694 11.7036 30.4164 2.62355 24.3742 2.62355C21.7413 2.62355 20.1861 4.33681 19.774 6.29827L25.4751 6.26869L26.03 7.34037L14.9532 23.1942L15.368 31.0234C23.7432 31.4695 23.1655 35.3887 13.9287 35.3887C3.82734 35.3887 3.67434 31.479 12.1033 31.0248L12.4674 23.2721L0.75 7.64195L1.51636 6.39348L17.9135 6.30814C18.3508 3.41304 20.5536 0.788574 24.3987 0.788574C32.9392 0.788234 32.8854 13.8378 24.5446 13.8378ZM3.51488 8.26517C3.51488 8.26517 10.4607 17.4431 11.34 18.6423C12.2318 19.8588 15.2415 19.7412 16.0616 18.6331C16.815 17.6152 23.2114 8.10402 23.2114 8.10402L3.51488 8.26517ZM15.3544 17.2493C14.672 18.2666 12.6935 18.2955 11.7878 17.0838C11.0778 16.1335 6.9873 10.6112 6.9873 10.6112C12.498 8.04656 13.6982 13.0833 19.6064 10.8577C19.6064 10.8577 15.8865 16.4568 15.3544 17.2493Z" fill="#101113"/>
</svg>
