<svg width="574" height="90" viewBox="0 0 574 90" fill="none" xmlns="http://www.w3.org/2000/svg">
<path fill-rule="evenodd" clip-rule="evenodd" d="M552.187 1.7038H573.488V76.2568H556.447L533.016 42.1748V76.2568H511.716V1.7038H528.756L552.187 35.7858V1.7038ZM11.0753 66.7776C3.7273 59.3226 0.000305176 50.0566 0.000305176 38.9806C0.000305176 27.9036 3.7273 18.6376 11.0753 11.1826C18.4253 3.7276 27.7983 -0.0004 38.9803 -0.0004C52.7203 -0.0004 65.1803 7.0286 71.6783 18.1056L53.1453 28.7566C50.6953 23.9626 45.2643 20.8746 38.9803 20.8746C33.7623 20.8746 29.5013 22.5786 26.2003 25.9866C22.8973 29.3946 21.3003 33.7616 21.3003 38.9806C21.3003 44.1986 22.8973 48.5656 26.2003 51.9736C29.5013 55.3816 33.7623 57.0856 38.9803 57.0856C45.3703 57.0856 50.6953 54.1036 53.1453 49.0976L71.6783 59.7486C65.1803 70.9316 52.7203 77.9606 38.9803 77.9606C37.0519 77.9606 35.1773 77.8497 33.3577 77.628C31.7724 79.4645 23.6263 88.3115 9.81841 88.2501L5.73341 88.1781L8.0984 84.8821C11.3854 80.2241 12.9624 76.0231 13.7594 73.0581C14.2637 71.1808 14.3627 70.3061 14.3905 69.7782C13.2436 68.856 12.1383 67.8558 11.0753 66.7776ZM129.734 51.9737C126.326 55.3817 121.959 57.0857 116.741 57.0857C111.522 57.0857 107.155 55.3817 103.641 51.9737C100.233 48.4597 98.5283 44.1987 98.5283 38.9807C98.5283 33.7617 100.233 29.5017 103.641 26.0927C107.155 22.5787 111.522 20.8747 116.741 20.8747C121.959 20.8747 126.326 22.5787 129.734 26.0927C133.249 29.5017 134.953 33.7617 134.953 38.9807C134.953 44.1987 133.249 48.4597 129.734 51.9737ZM88.6233 66.7777C96.2933 74.2327 105.664 77.9607 116.741 77.9607C127.817 77.9607 137.19 74.2327 144.753 66.7777C152.42 59.2157 156.253 49.9497 156.253 38.9807C156.253 28.0107 152.42 18.7447 144.753 11.2887C137.19 3.7277 127.817 -0.0003 116.741 -0.0003C105.664 -0.0003 96.2933 3.7277 88.6233 11.2887C81.0603 18.7447 77.2273 28.0107 77.2273 38.9807C77.2273 49.9497 81.0603 59.2157 88.6233 66.7777ZM245.878 76.2568V1.7038H224.578L207.004 32.0578L189.431 1.7038H168.131V76.2568H189.431V39.9388L206.045 67.8428H207.964L224.578 39.9388V76.2568H245.878ZM282.592 56.6599H310.281V76.2569H261.29V1.7039H309.748V21.0879H282.592V29.1809H307.086V48.3529H282.592V56.6599ZM369.938 38.9805C369.938 48.7785 363.654 55.5945 355.027 55.5945H346.506V22.3655H355.027C363.654 22.3655 369.938 29.1815 369.938 38.9805ZM380.8 12.4605C373.878 5.3245 365.358 1.7035 355.027 1.7035H324.14V76.2565H355.027C365.358 76.2565 373.878 72.7415 380.8 65.6055C387.723 58.4705 391.238 49.5235 391.238 38.9805C391.238 28.4365 387.723 19.5955 380.8 12.4605ZM424.301 76.2564H402.999V1.7034H424.301V76.2564ZM461.773 49.6301H474.129L467.952 26.7321L461.773 49.6301ZM481.262 76.2561L478.708 66.6711H457.193L454.637 76.2561H431.738L455.491 1.7041H480.413L504.163 76.2561H481.262Z" fill="#525DF9"/>
</svg>
