<svg xmlns="http://www.w3.org/2000/svg" width="76" height="98" viewBox="0 0 76 98">
    <path fill="#7540EE" fill-rule="evenodd" d="M54.765 96.504c5.215-4.489 8.196-11.097 8.94-19.825 0-1.995.87-2.867 2.609-2.618 2.608.374 2.608.748 3.725-1.87 1.118-2.618-3.353-4.115-.372-8.603C72.647 59.099 76 49.748 76 40.77S73.765 16.832 62.96 4.489l-4.47 7.48c3.974 4.24 6.085 10.35 6.334 18.329.372 11.97-5.589 16.458-8.197 15.71-2.607-.748-7.45-2.619-13.411-2.619-5.961 0-7.079 1.122-11.55 1.122-4.47 0-9.313-5.236-10.803-10.099-1.49-4.862-5.216-16.458 8.568-26.183V0c-5.215 2.494-10.307 6.11-15.274 10.847-7.451 7.107-9.314 15.71-10.059 18.703-.745 2.992 0 11.221 2.235 14.961L0 47.504l11.176 14.588c.994 1.246 1.49 2.493 1.49 3.74 0 1.247-1.49 2.743-4.47 4.489l2.98 3.74 5.216-1.87 1.118.748c.248 4.738 1.614 8.728 4.098 11.97 2.98 0 4.967-.25 5.96-.749 4.223 7.232 8.32 11.845 12.295 13.84l4.47-3.74V74.06c-5.464-1.496-10.058-4.987-13.784-10.473 7.451-3.242 14.033-1.746 19.745 4.488l.373.748h4.47c2.236-3.49 5.464-5.236 9.687-5.236-.746 4.488-3.23 7.605-7.451 9.35-.497 5.238-1.242 9.477-2.236 12.718-.993 3.242-1.987 6.11-2.98 8.604l2.608 2.244z"/>
</svg>
