<svg xmlns="http://www.w3.org/2000/svg" width="212" height="36" viewBox="0 0 212 36">
    <g fill="none" fill-rule="evenodd">
        <path fill="#333" fill-rule="nonzero" d="M129.412 23.642h5.66c1.715 0 3.242-.2 4.58-.601l1.465-4.723 4.09-13.198a10.512 10.512 0 0 0-1.067-1.468C142.04 1.217 138.966 0 134.92 0h-14.23v36h8.722V23.642zm7.492-15.36c.82.865 1.231 2.022 1.231 3.472 0 1.46-.36 2.619-1.082 3.475-.791.952-2.248 1.428-4.37 1.428h-3.27V6.985h3.294c1.978 0 3.377.432 4.197 1.297zm50.988 21.27l2.637-6.985h7.617l-3.615-10.596L199.051 0 212 36h-9.549l-2.212-6.448h-12.347zM179.745 36h-9.067l-6.238-20.863L157.898 36h-9.044l-4.691-8.43 4.62-14.907 5.106 10.601L161.129 0h7.063l6.743 23.264L184.417 0h9.19l-13.862 36z"/>
        <path fill="#FF005B" d="M0 36L5.959 0h9.03l7.03 19.194L29 0h9.031l5.959 36h-9.078l-3.026-20.721L23.601 36h-3.63l-7.868-20.721L9.077 36H0zm68.275-13.369l-4.097-11.984-4.096 11.984h8.193zm2.42 7.114H57.662L55.566 36h-9.729l13.36-36h9.962l13.36 36H72.79l-2.094-6.255zm24.378-1.67h2.095c1.582 0 2.994-.255 4.236-.765 1.241-.509 2.289-1.21 3.142-2.1.853-.892 1.505-1.95 1.955-3.176.45-1.225.675-2.57.675-4.034 0-1.432-.233-2.77-.698-4.01-.466-1.242-1.125-2.308-1.979-3.2-.853-.89-1.9-1.591-3.142-2.1-1.241-.51-2.638-.764-4.19-.764h-2.094v20.148zM85.949 0h13.5c2.39 0 4.632.493 6.726 1.48 2.095.987 3.926 2.3 5.493 3.94 1.568 1.638 2.801 3.548 3.701 5.729.9 2.18 1.35 4.464 1.35 6.851 0 2.355-.442 4.623-1.327 6.804-.884 2.18-2.11 4.098-3.677 5.753a18.134 18.134 0 0 1-5.493 3.963c-2.095.987-4.353 1.48-6.773 1.48h-13.5V0z"/>
    </g>
</svg>
