<svg xmlns="http://www.w3.org/2000/svg" width="62" height="62" viewBox="0 0 62 62">
    <path fill="#FFF" fill-rule="nonzero" stroke="#595959" stroke-width=".946" d="M6.511 57.527H56.49c-.466-4.877-3.306-7.442-9.24-9.872-.399-.163-.806-.325-1.354-.54a829.742 829.742 0 0 0-1.338-.525c-4.212-1.67-6.074-2.863-6.879-5.01l-.028-.122c-.105-1.13-.14-2.11-.138-3.36.001-.288.003-.497.008-1.047.006-.583.008-.876.008-1.236v-.287l.255-.133c.92-.478 2.522-3.738 2.778-6.128l.041-.39.39-.032c.852-.068 1.637-1.059 1.913-3.33.135-1.131-.276-1.963-.812-2.285l-.326-.196.12-.36c.918-2.733 1.517-6.158 1.293-9.009-.309-3.925-2.084-6.358-5.72-6.859l-.23-.031-.116-.201c-.77-1.335-2.84-2.1-5.731-2.1-10.304.188-13.247 6.852-10.262 18.23l.09.343-.304.183c-.536.322-.947 1.154-.812 2.284.28 2.273 1.064 3.263 1.912 3.331l.39.032.042.39c.254 2.37 1.908 5.64 2.85 6.128l.257.132v.288c0 .346.002.629.006 1.19.005.573.007.793.007 1.093a34.08 34.08 0 0 1-.141 3.36l-.028.123c-.805 2.147-2.673 3.34-6.9 5.009a176.403 176.403 0 0 1-1.345.526c-.551.215-.96.377-1.361.54-5.956 2.43-8.807 4.995-9.273 9.87z"/>
</svg>
