<svg width="292" height="130" viewBox="0 0 292 130" fill="none" xmlns="http://www.w3.org/2000/svg">
<path fill-rule="evenodd" clip-rule="evenodd" d="M64.3239 60.0996C64.5974 62.2597 64.6888 64.06 64.6888 65.5893C64.6888 83.8601 51.4414 96.9996 32.984 96.9996C14.4366 96.9996 0 83.2295 0 65.5005C0 47.8604 14.3449 34 32.7105 34C46.3233 34 58.292 40.3011 62.586 52.0886L48.0594 56.2312C44.4956 49.3897 38.6489 47.5894 32.7105 47.5894C22.7514 47.5894 15.167 55.3295 15.167 65.5005C15.167 75.7604 22.9332 83.5005 33.1658 83.5005C41.207 83.5005 47.0555 79.3595 49.3386 72.7002H30.6077V60.0996H64.3239ZM106.623 73.0594C106.623 66.0404 101.232 61.3606 95.5669 61.3606C89.6287 61.3606 84.2371 66.0404 84.2371 73.0594C84.2371 80.1686 89.6287 84.7599 95.5669 84.7599C101.232 84.7599 106.623 80.1686 106.623 73.0594ZM120.695 73.0594C120.695 87.37 109.182 96.9101 95.5669 96.9101C81.6805 96.9101 70.1674 87.37 70.1674 73.0594C70.1674 58.8392 81.6805 49.3005 95.5669 49.3005C109.182 49.3005 120.695 58.8392 120.695 73.0594ZM151.939 82.7805C163.36 82.7805 170.853 75.9405 170.853 65.5016C170.853 55.0611 163.36 48.2197 151.939 48.2197H143.351V82.7805H151.939ZM152.487 35.3497C172.68 35.3497 186.02 47.5905 186.02 65.5016C186.02 83.4097 172.68 95.6502 152.487 95.6502H128.275V35.3497H152.487ZM206.116 67.9305H225.029C223.66 63.0716 220.004 60.8196 215.802 60.8196C211.69 60.8196 207.487 63.341 206.116 67.9305ZM239.467 76.7482H205.843C207.03 82.1508 210.776 85.4786 215.71 85.4786C219.09 85.4786 223.019 84.6705 225.488 80.2603L238.462 82.8704C234.533 92.4091 226.218 97 215.71 97C202.463 97 191.498 87.3709 191.498 73.0588C191.498 58.8403 202.463 49.1209 215.802 49.1209C228.776 49.1209 239.192 58.2999 239.467 73.0588V76.7482ZM258.651 67.9305H277.563C276.192 63.0716 272.539 60.8196 268.336 60.8196C264.224 60.8196 260.021 63.341 258.651 67.9305ZM292 76.7482H258.377C259.564 82.1508 263.31 85.4786 268.245 85.4786C271.625 85.4786 275.553 84.6705 278.022 80.2603L290.996 82.8704C287.067 92.4091 278.752 97 268.245 97C254.997 97 244.032 87.3709 244.032 73.0588C244.032 58.8403 254.997 49.1209 268.336 49.1209C281.311 49.1209 291.727 58.2999 292 73.0588V76.7482Z" fill="white"/>
</svg>
