<svg xmlns="http://www.w3.org/2000/svg" fill="none" viewBox="0 0 292 130">
  <defs/>
  <path fill="#fff" fill-rule="evenodd" d="M64.3 60.1c.3 2.2.4 4 .4 5.5A30.4 30.4 0 0133 97C14.4 97 0 83.2 0 65.5A31.8 31.8 0 0132.7 34c13.6 0 25.6 6.3 29.9 18L48 56.3c-3.6-6.8-9.5-8.6-15.4-8.6-10 0-17.5 7.7-17.5 17.9 0 10.3 7.7 18 18 18 8 0 13.9-4.1 16.1-10.8H30.6V60.1h33.7zm42.3 13c0-7-5.4-11.7-11-11.7-6 0-11.4 4.6-11.4 11.7 0 7 5.4 11.7 11.4 11.7 5.6 0 11-4.6 11-11.7zm14 0c0 14.3-11.4 23.8-25 23.8-14 0-25.4-9.5-25.4-23.8s11.5-23.8 25.4-23.8c13.6 0 25 9.5 25 23.8zm31.3 9.7c11.5 0 19-6.9 19-17.3s-7.5-17.3-19-17.3h-8.5v34.6h8.5zm.6-47.5c20.2 0 33.5 12.3 33.5 30.2 0 18-13.3 30.2-33.5 30.2h-24.2V35.3h24.2zM206 68h19a9.1 9.1 0 00-9.3-7 10 10 0 00-9.7 7zm33.4 8.8h-33.7c1.2 5.5 5 8.8 10 8.8 3.3 0 7.2-.8 9.7-5.2l13 2.6c-4 9.5-12.3 14.1-22.8 14.1a23.5 23.5 0 01-24.2-24c0-14.2 11-23.9 24.3-23.9 13 0 23.4 9.2 23.7 24v3.6zm19.2-8.8h18.9a9.1 9.1 0 00-9.3-7 10 10 0 00-9.6 7zm33.3 8.8h-33.6c1.2 5.5 5 8.8 9.8 8.8 3.4 0 7.4-.8 9.8-5.2l13 2.6c-4 9.5-12.2 14.1-22.8 14.1A23.5 23.5 0 01244 73c0-14.2 11-23.9 24.3-23.9 13 0 23.4 9.2 23.7 24v3.6z" clip-rule="evenodd"/>
</svg>
