<svg xmlns="http://www.w3.org/2000/svg" width="95" height="60" viewBox="0 0 95 60">
    <g fill="none" fill-rule="nonzero">
        <path fill="#0D0080" d="M15.258 18.31v-3.118h-2.423v3.118h-2.526v-8.057h2.526v2.963h2.423v-2.963h2.526v8.057h-2.526zm4.382 0v-8.057h2.526v8.057H19.64zm9.846-5.303c-.154-.831-.773-1.196-1.546-1.196-1.444 0-1.907 1.196-1.907 2.287 0 1.82.927 2.444 1.958 2.444.67 0 1.443-.313 1.495-1.144h-1.495v-1.611h3.66v4.47h-1.907v-.572c-.464.364-1.289.78-2.423.78-1.65 0-3.918-1.247-3.918-4.21 0-2.391 1.496-4.419 4.279-4.419 1.598 0 3.556.78 4.02 2.495l-2.216.676zm8.917 5.303v-3.118H35.98v3.118h-2.525v-8.057h2.525v2.963h2.423v-2.963h2.527v8.057H38.403zm-24.022 7.33v6.082h-2.525V25.64H9.794v-1.976h6.598v1.976h-2.011zm2.785 6.082v-8.058h6.34v1.768h-3.814v1.195h3.556v1.768h-3.556v1.611h4.123v1.716h-6.65.001zm15.464-2.08c-.464.885-1.443 2.34-3.918 2.34-2.938 0-4.123-2.339-4.123-4.263 0-2.546 1.753-4.365 4.175-4.365 2.165 0 3.402 1.299 3.866 2.234l-2.114 1.04c-.205-.363-.515-1.351-1.649-1.351-1.186 0-1.7 1.091-1.7 2.183 0 1.871.876 2.391 1.7 2.391 1.031 0 1.392-.78 1.598-1.351l2.165 1.143zm6.031 2.08v-3.12h-2.423v3.12h-2.525v-8.058h2.525v2.963h2.423v-2.962h2.526v8.057H38.66zm9.38 0l-2.628-4.627v4.627h-2.371v-8.058h2.68l2.68 4.575v-4.575h2.372v8.058h-2.732zm8.3.26c-2.578 0-4.28-1.611-4.28-4.314 0-2.131 1.237-4.314 4.33-4.314 2.938 0 4.279 2.079 4.279 4.262 0 2.183-1.392 4.366-4.33 4.366zm0-2.027c.824 0 1.752-.572 1.752-2.39 0-1.613-.877-2.185-1.753-2.185-1.03 0-1.753.833-1.753 2.34 0 1.404.619 2.235 1.753 2.235zm5.567 1.767v-8.058h2.526v6.031h3.093v2.027h-5.619zm10.309.26c-2.578 0-4.279-1.611-4.279-4.314 0-2.131 1.238-4.314 4.33-4.314 2.939 0 4.279 2.079 4.279 4.262 0 2.183-1.34 4.366-4.33 4.366zm.051-2.027c.825 0 1.753-.572 1.753-2.39 0-1.613-.876-2.185-1.753-2.185-1.03 0-1.752.833-1.752 2.34 0 1.404.619 2.235 1.752 2.235zm11.392-3.482c-.154-.832-.772-1.195-1.546-1.195-1.443 0-1.907 1.195-1.907 2.287 0 1.819.928 2.443 1.959 2.443.67 0 1.443-.312 1.494-1.144h-1.494v-1.611h3.66v4.47h-1.908v-.572c-.463.364-1.289.78-2.422.78-1.65 0-3.918-1.247-3.918-4.21 0-2.392 1.495-4.418 4.279-4.418 1.598 0 3.556.779 4.02 2.495l-2.217.675zm8.04 1.87v3.379h-2.525v-3.38l-3.195-4.677h2.938l1.597 2.703 1.547-2.704H95l-3.3 4.679zm-76.544 8.733c1.804 0 2.732 1.091 2.732 2.65 0 1.612-.928 2.808-2.784 2.808h-2.216v2.65h-2.526v-8.108H15.156zm-2.268 3.742h1.443c.619 0 1.031-.364 1.031-1.04 0-.467-.258-1.039-1.03-1.039h-1.444v2.08zm10.36 4.366l-.36-1.143h-2.784l-.36 1.143h-2.732l3.04-8.057h2.888l2.989 8.057h-2.68zm-1.752-5.77l-.876 2.86h1.7l-.824-2.86zm9.64-2.338c1.34 0 2.835.52 2.835 2.599 0 1.04-.465 1.767-1.65 2.235l1.959 3.274h-2.835l-1.547-2.859h-.721v2.86h-2.526v-8.109h4.484zm-.928 3.586c.515 0 1.237-.104 1.237-.935 0-.884-.722-.936-1.237-.936h-1.031v1.871h1.031zm10.772 4.522l-1.753-3.222-1.237 1.3v1.922h-2.526v-8.108h2.526v3.066l2.526-3.066h3.093l-2.784 3.066 2.99 4.99H40.98v.052zm-30.825 10.97c0-1.092.928-2.028 2.01-2.028 1.083 0 2.01.936 2.01 2.027 0 1.091-.927 2.028-2.01 2.028a2.021 2.021 0 0 1-2.01-2.028zm.619 0c0 .779.618 1.454 1.391 1.454.774 0 1.392-.675 1.392-1.455s-.618-1.455-1.392-1.455c-.772 0-1.391.675-1.391 1.455zm4.587 1.922v-3.378h-.515v-.52h.515v-.52c0-.988.052-2.132 1.444-1.923v.571c-.928-.104-.825.78-.825 1.352v.52h.773v.52h-.773v3.378h-.618zm5.774-3.38v3.38h-.568v-3.38h-.618v-.519h.567v-1.56h.567v1.56h.927v.52h-.875zm1.7-3.326h.568v3.274c.309-.364.721-.52 1.288-.52 1.134 0 1.598.52 1.598 1.768v2.235h-.567v-2.235c0-.78-.36-1.144-.98-1.144-.773 0-1.288.468-1.288 1.3v2.079h-.567v-6.758h-.052zm8.3 5.043h-3.402a1.397 1.397 0 0 0 1.392 1.195c.463 0 .824-.208 1.082-.52h.721a2.009 2.009 0 0 1-1.804 1.144c-1.082 0-2.01-.936-2.01-2.027 0-1.091.927-2.028 2.01-2.028 1.083 0 2.01.936 2.01 2.028v.208zm-3.35-.573h2.731c-.155-.675-.67-1.142-1.391-1.142-.671 0-1.238.519-1.341 1.142zm7.06-4.104h.672v3.014l2.731-3.015h.773l-2.525 2.807 3.04 3.587h-.824l-2.629-3.067-.618.676v2.39h-.67v-6.392h.05zm6.084 8.16h-.722l1.083-2.236-1.7-3.483h.72l1.393 2.755 1.39-2.755h.723l-1.701 3.483-1.186 2.235zm4.02-5.198c.309-.364.773-.572 1.34-.572v.572c-.67 0-1.34.416-1.34 1.247v2.183h-.567v-3.95h.566v.52zm5.928-.52v3.587c0 1.56-.927 2.235-2.01 2.235-.877 0-1.65-.572-1.907-1.352h.67c.258.468.67.78 1.236.78.774 0 1.393-.416 1.393-1.663v-.26a1.911 1.911 0 0 1-1.444.676c-1.083 0-2.01-.936-2.01-2.028 0-1.091.927-2.027 2.01-2.027.567 0 1.083.26 1.444.676v-.572h.618v-.052zm-.618 1.975c0-.78-.67-1.455-1.444-1.455-.773 0-1.392.675-1.392 1.455s.568 1.455 1.392 1.455c.774-.05 1.444-.675 1.444-1.455zm2.576 3.742h-.72l1.082-2.235-1.702-3.483h.722l1.392 2.755L55 54.177h.722l-1.701 3.483-1.187 2.235zm6.238-1.818h-2.99v-.572l2.165-2.807h-2.165v-.572h2.938v.572l-2.165 2.807h2.217v.572zm3.763-6.341h2.061c1.186 0 2.011.779 2.011 1.975 0 .987-.567 1.715-1.443 1.923l1.907 2.495h-.876l-1.908-2.391h-1.185v2.39h-.67v-6.392h.103zm2.061 3.326c.826 0 1.341-.52 1.341-1.351 0-.832-.515-1.352-1.34-1.352h-1.444v2.703h1.443zm6.908 1.35h-3.402a1.397 1.397 0 0 0 1.392 1.196c.464 0 .825-.208 1.082-.52h.722a2.009 2.009 0 0 1-1.804 1.144c-1.082 0-2.01-.936-2.01-2.027 0-1.091.928-2.028 2.01-2.028 1.082 0 2.01.936 2.01 2.028v.208zm-3.402-.572h2.732c-.154-.675-.67-1.142-1.391-1.142-.62 0-1.186.519-1.34 1.142zm8.35.311c0 1.092-.927 2.028-2.01 2.028-.567 0-1.134-.26-1.443-.728v2.39h-.567v-5.717h.567v.624c.36-.416.876-.728 1.444-.728 1.082.104 2.01.988 2.01 2.131zm-.618 0c0-.78-.619-1.455-1.391-1.455-.774 0-1.444.675-1.444 1.455s.67 1.455 1.444 1.455c.772 0 1.391-.675 1.391-1.455zm4.845 1.926h-.619v-.468c-.309.364-.721.52-1.289.52-1.133 0-1.597-.52-1.597-1.768v-2.235h.566v2.235c0 .78.361 1.144.98 1.144.773 0 1.289-.468 1.289-1.3v-2.08h.619v3.95h.05v.002zm1.236-6.341h.62v3.066c.36-.415.876-.727 1.442-.727 1.083 0 2.01.935 2.01 2.026 0 1.092-.927 2.028-2.01 2.028-.618 0-1.134-.26-1.443-.728v.624h-.619v-6.29zm3.454 4.418c0-.78-.618-1.455-1.392-1.455-.773 0-1.443.675-1.443 1.455s.67 1.455 1.443 1.455c.825 0 1.392-.675 1.392-1.455zm1.495-4.418h.567v6.393h-.567v-6.393zm1.7 1.195c0-.208.207-.415.413-.415s.413.207.413.415a.413.413 0 0 1-.12.296.404.404 0 0 1-.293.12c-.206.052-.412-.156-.412-.416zm.155 1.248h.619v3.95h-.619v-3.95zm4.796 1.247c-.258-.468-.67-.728-1.237-.728-.773 0-1.392.675-1.392 1.455s.619 1.455 1.392 1.455c.516 0 .98-.311 1.237-.779h.67c-.258.78-1.03 1.352-1.907 1.352-1.083 0-2.01-.936-2.01-2.028 0-1.091.927-2.027 2.01-2.027.876 0 1.598.572 1.907 1.351h-.67v-.051z"/>
        <path fill="#00CFBC" d="M7.753 58.032H0V0h55.825v3.897H3.876v50.239h3.877v3.897z"/>
    </g>
</svg>
