<svg xmlns="http://www.w3.org/2000/svg" width="24" height="24" viewBox="0 0 24 24">
    <g fill="none" fill-rule="nonzero">
        <path fill="#B7CA9D" d="M24 16.494L13.504 14.94 3 16.496l10.5 3.926L24 16.494"/>
        <path fill="#4B612C" d="M5.102 16.313l1.774.56.162-.186V4.161l-.162-.213-1.774.684v11.68"/>
        <path fill="#759C3E" d="M13.158 15.76l-6.282 1.112V3.948l6.282 1.425V15.76"/>
        <path fill="#4B612C" d="M10.357 17.95l-2.448-.762V1.235L10.357 0l.214.236v17.45l-.214.263"/>
        <path fill="#759C3E" d="M18.747 15.964l-8.39 1.985V0l8.39 3.3v12.664"/>
        <path fill="#4B612C" d="M13.497 20.252L3 16.496v2.179l10.497 5.295v-3.718"/>
        <path fill="#759C3E" d="M24 18.672L13.497 23.97v-3.718L24 16.494v2.178"/>
        <path fill="#B7CA9D" d="M21.05 12.885h-2.545l-7.255.499 2.25.418 7.55-.917"/>
        <path fill="#4B612C" d="M11.25 18.2l2.249.68.065-.07-.002-5.119-.065-.063-2.247-.244v4.815"/>
        <path fill="#759C3E" d="M21.05 12.885l-7.553.743.002 5.252 7.551-2.293v-3.702"/>
    </g>
</svg>
