<svg width="22" height="21" viewBox="0 0 22 21" fill="none" xmlns="http://www.w3.org/2000/svg">
<path d="M8.65943 0.263931C4.89144 1.06793 1.71144 4.19993 0.799437 8.00393C0.499437 9.25193 0.475437 11.3159 0.751437 12.6359C1.51944 16.3799 4.49544 19.4639 8.35943 20.5319C9.47543 20.8439 12.2954 20.8439 13.4594 20.5319C18.3554 19.2359 21.5954 14.7839 21.2834 9.79193C21.1874 8.33993 20.9354 7.35593 20.3474 6.08393C18.9554 3.08393 16.2554 0.911931 13.0394 0.239931C11.9594 0.0119314 9.77543 0.0239314 8.65943 0.263931ZM11.6474 4.40393C11.8154 4.67993 15.8234 14.2799 15.9794 14.7839C16.0754 15.1079 15.5834 15.6599 15.1994 15.6599C15.0674 15.6599 13.7834 14.7239 12.2234 13.4639C10.7234 12.2519 9.43943 11.2319 9.35543 11.1839C9.27143 11.1239 8.93543 11.8319 8.33543 13.3199L7.45943 15.5399H5.83944L6.03144 15.0959C6.12744 14.8439 7.15944 12.3599 8.32343 9.56393C9.48743 6.76793 10.5074 4.40393 10.6034 4.30793C10.8794 4.04393 11.4434 4.09193 11.6474 4.40393Z" fill="#96969C"/>
<path d="M10.4234 8.10001C10.0754 8.96401 9.79939 9.70801 9.79939 9.76801C9.79939 9.88801 13.5194 12.828 13.5914 12.756C13.6394 12.696 11.2754 6.78001 11.1314 6.62402C11.0834 6.57602 10.7594 7.23601 10.4234 8.10001Z" fill="#96969C"/>
</svg>
