<svg width="24" height="25" viewBox="0 0 24 25" fill="none" xmlns="http://www.w3.org/2000/svg">
<g clip-path="url(#clip0)">
<rect x="3.25977" y="7.4043" width="2.81481" height="10.8125" fill="#759C3E"/>
<rect x="17.9258" y="7.4043" width="2.81481" height="10.8125" fill="#4B612C"/>
<path d="M12.0007 7.11239L6.07472 8.35437L3.33398 7.91602L12.0007 5.21289L20.5932 7.91602L17.8525 8.35437L12.0007 7.11239Z" fill="#3C4929"/>
<path d="M12.0007 19.751L3.33398 17.121L6.07472 16.6826L12.0007 18.1438L17.9266 16.6826L20.7414 17.121L12.0007 19.751Z" fill="#B7CA9D"/>
<path fill-rule="evenodd" clip-rule="evenodd" d="M2 5.43197L12 0.537109V24.5L2 19.459V5.43197ZM3.33327 17.1211V7.91588L9.03698 6.16249V18.8745L3.33327 17.1211Z" fill="#4B612C"/>
<path fill-rule="evenodd" clip-rule="evenodd" d="M22 5.43197L12 0.537109V24.5L22 19.459V5.43197ZM20.6667 17.1211V7.91588L14.963 6.16249V18.8745L20.6667 17.1211Z" fill="#759C3E"/>
</g>
<defs>
<clipPath id="clip0">
<path d="M0 0.5H24V24.5H0V0.5Z" fill="white"/>
</clipPath>
</defs>
</svg>
