<svg width="24" height="25" viewBox="0 0 24 25" fill="none" xmlns="http://www.w3.org/2000/svg">
<path d="M0.922339 18.5543C0.663587 18.9435 0.404835 19.43 0.146083 19.7868C-0.0803247 20.1435 0.0490516 20.5976 0.404835 20.8246L5.35347 23.8734C5.70925 24.1005 6.19441 23.9707 6.38847 23.614C6.58254 23.2896 6.84129 22.8356 7.13238 22.3815C9.10537 19.1381 11.046 19.5273 14.6038 21.2463L19.5201 23.5815C19.9083 23.7761 20.3611 23.614 20.5228 23.2248C20.5228 23.2248 20.5228 23.2248 20.5228 23.1923L22.8839 17.8407C23.0456 17.4515 22.8839 17.0299 22.4958 16.8353C21.4608 16.3487 19.3908 15.3757 17.5471 14.4676C10.9166 11.289 5.25643 11.4836 0.922339 18.5543Z" fill="url(#paint0_linear)"/>
<path d="M23.0779 6.45634C23.3366 6.06713 23.5954 5.58062 23.8541 5.22385C24.0806 4.86708 23.9512 4.413 23.5954 4.18596L18.6468 1.13716C18.291 0.910124 17.8382 1.00743 17.5794 1.33177L17.5471 1.3642C17.353 1.68854 17.0943 2.14262 16.8032 2.59669C14.8302 5.84009 12.8895 5.45089 9.3317 3.73188L4.44776 1.39664C4.05963 1.20204 3.60681 1.3642 3.44509 1.75341C3.44509 1.75341 3.44509 1.75341 3.44509 1.78584L1.08398 7.13746C0.922262 7.52666 1.08398 7.94831 1.47211 8.14291C2.50712 8.62942 4.57713 9.60244 6.42074 10.5106C13.0836 13.7216 18.7438 13.4945 23.0779 6.45634Z" fill="url(#paint1_linear)"/>
<defs>
<linearGradient id="paint0_linear" x1="22.7683" y1="25.4761" x2="7.79248" y2="16.8945" gradientUnits="userSpaceOnUse">
<stop offset="0.18" stop-color="#0052CC"/>
<stop offset="1" stop-color="#2684FF"/>
</linearGradient>
<linearGradient id="paint1_linear" x1="1.24386" y1="-0.463196" x2="16.2235" y2="8.12221" gradientUnits="userSpaceOnUse">
<stop offset="0.18" stop-color="#0052CC"/>
<stop offset="1" stop-color="#2684FF"/>
</linearGradient>
</defs>
</svg>
