<svg xmlns="http://www.w3.org/2000/svg" width="24" height="24" viewBox="0 0 24 24">
    <g fill="#0069FF" fill-rule="nonzero">
        <path d="M11.995 24v-4.608c4.93 0 8.742-4.84 6.86-9.98A6.93 6.93 0 0 0 14.707 5.3C9.525 3.434 4.647 7.214 4.646 12.102c0 0 0 .002-.002.002H0C0 4.314 7.588-1.752 15.818.796c3.597 1.114 6.455 3.949 7.578 7.516C25.965 16.475 19.85 24 11.996 24"/>
        <path d="M12.006 19.404H7.374v-4.592H12.006v4.592zm-4.633 3.53H3.816l-.001-.001v-3.529h3.559v3.529zm-3.556-3.53H.833v-2.957s0-.002.002-.002H3.817v2.96z"/>
    </g>
</svg>
