<svg width="24" height="25" viewBox="0 0 24 25" fill="none" xmlns="http://www.w3.org/2000/svg">
<g clip-path="url(#clip0)">
<g clip-path="url(#clip1)">
<path d="M11.9745 0.5C6.29193 0.5 1.6853 5.00836 1.6853 10.5697C1.6853 16.131 6.29193 20.6394 11.9745 20.6394L11.9963 24.4304C17.2831 21.4186 22.3111 17.3985 22.3111 10.5697C22.3111 5.00836 17.657 0.5 11.9745 0.5Z" fill="url(#paint0_linear)"/>
<g filter="url(#filter0_i)">
<path d="M11.9745 0.5C6.29193 0.5 1.6853 5.00836 1.6853 10.5697C1.6853 16.131 6.29193 20.6394 11.9745 20.6394L11.9963 24.4304C17.2831 21.4186 22.3111 17.3985 22.3111 10.5697C22.3111 5.00836 17.657 0.5 11.9745 0.5Z" fill="black"/>
</g>
<g filter="url(#filter1_i)">
<path d="M11.9745 0.5C6.29193 0.5 1.6853 5.00836 1.6853 10.5697C1.6853 16.131 6.29193 20.6394 11.9745 20.6394L11.9963 24.4304C17.2831 21.4186 22.3111 17.3985 22.3111 10.5697C22.3111 5.00836 17.657 0.5 11.9745 0.5Z" fill="black"/>
</g>
<mask id="mask0" mask-type="alpha" maskUnits="userSpaceOnUse" x="1" y="0" width="22" height="25">
<path d="M11.9745 0.5C6.29193 0.5 1.6853 5.00836 1.6853 10.5697C1.6853 16.131 6.29193 20.6394 11.9745 20.6394L11.9963 24.4304C17.2831 21.4186 22.3111 17.3985 22.3111 10.5697C22.3111 5.00836 17.657 0.5 11.9745 0.5Z" fill="#3B8B7F"/>
</mask>
<g mask="url(#mask0)">
<path d="M11.9745 0.5C6.29193 0.5 1.6853 5.00836 1.6853 10.5697C1.6853 16.131 6.29193 20.6394 11.9745 20.6394L11.9963 24.4304C17.2831 21.4186 22.3111 17.3985 22.3111 10.5697C22.3111 5.00836 17.657 0.5 11.9745 0.5Z" fill="#3B8B7F"/>
<path d="M6.38452 14.1211L15.1711 23.2301L26.8187 14.6915L18.4014 7.10205L16.6016 10.1947L6.38452 14.1211Z" fill="url(#paint1_linear)" fill-opacity="0.21"/>
</g>
<g filter="url(#filter2_d)">
<path d="M6.16431 10.8518V13.6186C6.16431 14.349 6.76027 14.9466 7.48867 14.9466H14.3396C15.068 14.9466 15.6639 14.349 15.6639 13.6186V11.8713L18.3763 14.5912V10.8518H6.16431Z" fill="black"/>
</g>
<path d="M6.16431 10.8518V13.6186C6.16431 14.349 6.76027 14.9466 7.48867 14.9466H14.3396C15.068 14.9466 15.6639 14.349 15.6639 13.6186V11.8713L18.3763 14.5912V10.8518H6.16431Z" fill="#F6F6F6"/>
<path d="M18.3763 10.8519V7.10186L15.6639 9.81601V8.08513C15.6639 7.35468 15.068 6.75708 14.3396 6.75708H7.48867C6.76027 6.75708 6.16431 7.35468 6.16431 8.08513V10.8519H18.3763Z" fill="#E2E2E2"/>
</g>
</g>
<defs>
<filter id="filter0_i" x="1.6853" y="0.5" width="20.6258" height="25.9304" filterUnits="userSpaceOnUse" color-interpolation-filters="sRGB">
<feFlood flood-opacity="0" result="BackgroundImageFix"/>
<feBlend mode="normal" in="SourceGraphic" in2="BackgroundImageFix" result="shape"/>
<feColorMatrix in="SourceAlpha" type="matrix" values="0 0 0 0 0 0 0 0 0 0 0 0 0 0 0 0 0 0 127 0" result="hardAlpha"/>
<feOffset dy="2"/>
<feGaussianBlur stdDeviation="2"/>
<feComposite in2="hardAlpha" operator="arithmetic" k2="-1" k3="1"/>
<feColorMatrix type="matrix" values="0 0 0 0 1 0 0 0 0 1 0 0 0 0 1 0 0 0 0.2 0"/>
<feBlend mode="normal" in2="shape" result="effect1_innerShadow"/>
</filter>
<filter id="filter1_i" x="1.6853" y="-1.5" width="20.6258" height="25.9304" filterUnits="userSpaceOnUse" color-interpolation-filters="sRGB">
<feFlood flood-opacity="0" result="BackgroundImageFix"/>
<feBlend mode="normal" in="SourceGraphic" in2="BackgroundImageFix" result="shape"/>
<feColorMatrix in="SourceAlpha" type="matrix" values="0 0 0 0 0 0 0 0 0 0 0 0 0 0 0 0 0 0 127 0" result="hardAlpha"/>
<feOffset dy="-2"/>
<feGaussianBlur stdDeviation="2"/>
<feComposite in2="hardAlpha" operator="arithmetic" k2="-1" k3="1"/>
<feColorMatrix type="matrix" values="0 0 0 0 0 0 0 0 0 0 0 0 0 0 0 0 0 0 0.1 0"/>
<feBlend mode="normal" in2="shape" result="effect1_innerShadow"/>
</filter>
<filter id="filter2_d" x="3.16431" y="9.85181" width="20.212" height="12.0948" filterUnits="userSpaceOnUse" color-interpolation-filters="sRGB">
<feFlood flood-opacity="0" result="BackgroundImageFix"/>
<feColorMatrix in="SourceAlpha" type="matrix" values="0 0 0 0 0 0 0 0 0 0 0 0 0 0 0 0 0 0 127 0"/>
<feOffset dx="1" dy="3"/>
<feGaussianBlur stdDeviation="2"/>
<feColorMatrix type="matrix" values="0 0 0 0 0 0 0 0 0 0 0 0 0 0 0 0 0 0 0.1 0"/>
<feBlend mode="normal" in2="BackgroundImageFix" result="effect1_dropShadow"/>
<feBlend mode="normal" in="SourceGraphic" in2="effect1_dropShadow" result="shape"/>
</filter>
<linearGradient id="paint0_linear" x1="7.06245" y1="16.7828" x2="18.6273" y2="6.83854" gradientUnits="userSpaceOnUse">
<stop stop-color="#058D80"/>
<stop offset="1" stop-color="#058D7F"/>
</linearGradient>
<linearGradient id="paint1_linear" x1="12.5246" y1="11.5054" x2="20.481" y2="22.644" gradientUnits="userSpaceOnUse">
<stop/>
<stop offset="1" stop-color="#D8D8D8" stop-opacity="0"/>
</linearGradient>
<clipPath id="clip0">
<rect width="24" height="24" fill="white" transform="translate(0 0.5)"/>
</clipPath>
<clipPath id="clip1">
<rect width="20.6294" height="24" fill="white" transform="translate(1.6853 0.5)"/>
</clipPath>
</defs>
</svg>
