<svg width="24" height="25" viewBox="0 0 24 25" fill="none" xmlns="http://www.w3.org/2000/svg">
<path d="M12 0.5C5.373 0.5 0 5.872 0 12.5C0 19.127 5.373 24.5 12 24.5C18.627 24.5 24 19.127 24 12.5C24 5.872 18.627 0.5 12 0.5ZM12 22.959C10.115 22.959 8.586 21.699 8.586 20.146H15.414C15.414 21.699 13.886 22.959 12 22.959ZM17.64 19.214H6.36V17.17H17.64V19.215V19.214ZM17.599 16.116H6.392C6.355 16.073 6.317 16.031 6.281 15.987C5.126 14.586 4.855 13.854 4.591 13.107C4.586 13.083 5.991 13.395 6.986 13.619C6.986 13.619 7.499 13.737 8.248 13.874C7.528 13.031 7.102 11.959 7.102 10.864C7.102 8.458 8.946 6.356 8.281 4.657C8.929 4.709 9.621 6.024 9.668 8.079C10.357 7.127 10.645 5.389 10.645 4.324C10.645 3.221 11.372 1.939 12.099 1.895C11.451 2.963 12.267 3.879 12.993 6.151C13.265 7.005 13.23 8.441 13.44 9.351C13.51 7.461 13.835 4.7 15.035 3.747C14.505 4.947 15.114 6.449 15.529 7.171C16.2 8.335 16.607 9.218 16.607 10.887C16.6032 11.9855 16.2099 13.0471 15.497 13.883C16.289 13.734 16.837 13.6 16.837 13.6L19.41 13.098C19.41 13.098 19.036 14.636 17.599 16.116Z" fill="#E3703B"/>
</svg>
