<svg width="24" height="25" viewBox="0 0 24 25" fill="none" xmlns="http://www.w3.org/2000/svg">
<g clip-path="url(#clip0)">
<path fill-rule="evenodd" clip-rule="evenodd" d="M18.9629 8.38215C19.2222 8.45907 19.4795 8.54268 19.7345 8.63287C22.3268 9.55255 24.002 10.9935 24.002 12.4822C24.002 14.0365 22.2125 15.5544 19.4603 16.4938C19.3149 16.5438 19.1664 16.5916 19.0138 16.6374C19.0674 16.8568 19.1159 17.0774 19.1592 17.2991C19.7013 20.1268 19.2838 22.451 17.996 23.2187C16.7497 23.9616 14.7349 23.2323 12.6952 21.4231C12.4729 21.2254 12.2569 21.0225 12.0461 20.8124C11.8789 20.9799 11.7117 21.1391 11.5455 21.2889C9.43931 23.1855 7.27704 23.973 5.98819 23.2063C4.74089 22.4655 4.34935 20.3016 4.85097 17.5779C4.90498 17.2814 4.96833 16.987 5.03999 16.6936C4.82189 16.6312 4.60484 16.5604 4.39089 16.4855C1.74361 15.5523 0.00195312 14.0157 0.00195312 12.4833C0.00195312 10.9987 1.62522 9.56712 4.16553 8.65472C4.45009 8.55277 4.74608 8.45705 5.05349 8.36654C4.98806 8.09501 4.92887 7.82243 4.87694 7.54778C4.35039 4.77521 4.71908 2.55924 5.97158 1.81226C7.276 1.03407 9.44866 1.87052 11.6151 3.85345C11.75 3.97721 11.8826 4.10346 12.0129 4.23214C12.2075 4.03881 12.4069 3.85044 12.6111 3.66723C14.6788 1.81122 16.7269 1.03615 17.9783 1.78001C19.2838 2.55612 19.667 4.91358 19.0813 7.83908C19.046 8.02114 19.0055 8.20216 18.9629 8.38215ZM18.768 15.621C18.9053 15.5794 19.0395 15.5357 19.1716 15.4909C21.551 14.6805 23.0168 13.4383 23.0168 12.4832C23.0168 11.5854 21.6602 10.4202 19.4349 9.63266C19.2049 9.55047 18.9667 9.47244 18.7201 9.39962C18.4247 10.3848 18.0293 11.4252 17.5508 12.4874C18.0257 13.5037 18.4324 14.5505 18.768 15.621ZM18.2998 20.7687C18.459 19.8854 18.4247 18.7545 18.1833 17.504H18.1843C18.1469 17.3095 18.1032 17.1097 18.0543 16.9058C16.9824 17.1547 15.8942 17.3275 14.798 17.4229C14.1858 18.3443 13.5126 19.2237 12.7828 20.055C12.9846 20.2547 13.1864 20.4451 13.3872 20.622C15.134 22.169 16.7549 22.7558 17.5123 22.3043C17.8681 22.092 18.1563 21.5625 18.2998 20.7687ZM6.51357 22.2928C6.86937 22.504 7.45925 22.4967 8.19895 22.2273H8.19999C9.02292 21.9277 9.9582 21.3326 10.8914 20.494C11.0475 20.3536 11.1994 20.209 11.3492 20.0602C10.6469 19.2851 9.95092 18.3998 9.28509 17.4364C8.11988 17.3386 7.02958 17.1784 6.0454 16.9537C5.97882 17.2263 5.9216 17.4999 5.86958 17.7756C5.43991 20.1049 5.7541 21.8423 6.51357 22.2928ZM1.92765 13.9543C2.5914 14.539 3.55894 15.0737 4.73143 15.4857V15.4868C4.92781 15.5552 5.12589 15.6187 5.32547 15.6772C5.65212 14.5967 6.04828 13.5386 6.51148 12.5093C6.035 11.445 5.6407 10.3921 5.34004 9.38609C5.06122 9.4662 4.78552 9.55567 4.51191 9.65346C2.33547 10.4337 1.02982 11.5833 1.02982 12.4832C1.02982 12.9067 1.33152 13.4289 1.92765 13.9543ZM6.49588 2.72778C5.74162 3.17825 5.44095 4.96975 5.89247 7.34594C5.94137 7.6011 5.99652 7.85503 6.05789 8.10749C7.05351 7.87548 8.13549 7.70278 9.26636 7.59459C9.89121 6.68151 10.5755 5.81058 11.3148 4.98744C11.1931 4.86884 11.0735 4.7544 10.9538 4.64412C9.0791 2.93273 7.30112 2.24921 6.49588 2.72778ZM15.5335 8.74211C15.786 9.14921 16.0299 9.56163 16.2649 9.9791C16.5031 10.4025 16.7341 10.8322 16.9557 11.266C17.2605 10.5336 17.5185 9.81992 17.7255 9.1364C17.0358 8.97411 16.3002 8.84198 15.5335 8.74211ZM13.4507 7.49887C12.9836 6.85905 12.5092 6.26917 12.0358 5.7417C11.5552 6.27541 11.0766 6.86321 10.6084 7.49783C11.5553 7.45235 12.5038 7.4527 13.4507 7.49887ZM7.10033 11.266C7.31672 10.8332 7.54352 10.4067 7.77969 9.98638C8.01585 9.56503 8.26137 9.14993 8.51626 8.74003C7.75368 8.83782 7.02334 8.96682 6.3367 9.12496C6.55693 9.85042 6.81177 10.5649 7.10033 11.266ZM6.32214 15.9341C7.05382 16.0954 7.79351 16.218 8.53811 16.3014V16.3003C8.02007 15.4732 7.54098 14.6223 7.10241 13.7504C6.79654 14.4963 6.53437 15.2288 6.32214 15.9341ZM10.6178 17.5186C11.0707 18.1347 11.5533 18.7284 12.0639 19.2976V19.2987C12.5341 18.766 13.0075 18.1678 13.4757 17.5124C12.5235 17.5535 11.5701 17.5556 10.6178 17.5186ZM17.7734 15.8884C17.5591 15.1955 17.2875 14.4662 16.9661 13.7119C16.525 14.5889 16.046 15.4462 15.5304 16.2816C16.3231 16.1838 17.0764 16.0517 17.7734 15.8884ZM14.2258 16.4096C14.6294 15.7854 15.0144 15.1455 15.3785 14.4953H15.3795C15.7468 13.8409 16.0901 13.173 16.4126 12.4926C16.088 11.8195 15.7416 11.1578 15.3754 10.5086C15.0112 9.8605 14.6253 9.22587 14.2174 8.60478C12.7586 8.49142 11.2932 8.49142 9.8344 8.60478C9.00842 9.84932 8.27707 11.1541 7.64652 12.5082C8.28173 13.8643 9.01723 15.1712 9.84688 16.4179C10.5481 16.4647 11.2753 16.4886 12.0244 16.4886C12.7755 16.4886 13.5121 16.4616 14.2258 16.4096ZM18.1105 7.6258C18.6161 5.09876 18.3029 3.17409 17.4977 2.69552C16.7414 2.24817 15.083 2.87447 13.3082 4.46414C13.1188 4.63268 12.9347 4.80746 12.7547 4.98536C13.4898 5.80873 14.169 6.68042 14.7876 7.59459C15.9216 7.70487 17.0046 7.88069 18.0023 8.11789C18.0408 7.95455 18.0772 7.79018 18.1105 7.6258Z" fill="#53C1DE"/>
<path d="M12.0243 10.2734C13.2103 10.2734 14.1705 11.2618 14.1705 12.4821C14.1705 13.7025 13.2092 14.6908 12.0243 14.6908C10.8382 14.6908 9.87695 13.7025 9.87695 12.4821C9.87695 11.2628 10.8382 10.2734 12.0243 10.2734Z" fill="#53C1DE"/>
</g>
<defs>
<clipPath id="clip0">
<path d="M0 0.5H24V24.5H0V0.5Z" fill="white"/>
</clipPath>
</defs>
</svg>
