<svg width="24" height="25" viewBox="0 0 24 25" fill="none" xmlns="http://www.w3.org/2000/svg">
<g clip-path="url(#clip0)">
<path d="M5.06011 15.6599C5.06011 17.0537 3.93362 18.1802 2.53982 18.1802C1.14602 18.1802 0.0195312 17.0537 0.0195312 15.6599C0.0195312 14.2661 1.14602 13.1396 2.53982 13.1396H5.06011V15.6599ZM6.32025 15.6599C6.32025 14.2661 7.44675 13.1396 8.84054 13.1396C10.2343 13.1396 11.3608 14.2661 11.3608 15.6599V21.9607C11.3608 23.3545 10.2343 24.4809 8.84054 24.4809C7.44675 24.4809 6.32025 23.3545 6.32025 21.9607V15.6599Z" fill="#E01E5A"/>
<path d="M8.8401 5.54058C7.44631 5.54058 6.31981 4.41408 6.31981 3.02029C6.31981 1.62649 7.44631 0.5 8.8401 0.5C10.2339 0.5 11.3604 1.62649 11.3604 3.02029V5.54058H8.8401ZM8.8401 6.81982C10.2339 6.81982 11.3604 7.94631 11.3604 9.3401C11.3604 10.7339 10.2339 11.8604 8.8401 11.8604H2.52029C1.12649 11.8604 0 10.7339 0 9.3401C0 7.94631 1.12649 6.81982 2.52029 6.81982H8.8401Z" fill="#36C5F0"/>
<path d="M18.9413 9.3401C18.9413 7.94631 20.0678 6.81982 21.4616 6.81982C22.8554 6.81982 23.9819 7.94631 23.9819 9.3401C23.9819 10.7339 22.8554 11.8604 21.4616 11.8604H18.9413V9.3401ZM17.6812 9.3401C17.6812 10.7339 16.5547 11.8604 15.1609 11.8604C13.7671 11.8604 12.6406 10.7339 12.6406 9.3401V3.02029C12.6406 1.62649 13.7671 0.5 15.1609 0.5C16.5547 0.5 17.6812 1.62649 17.6812 3.02029V9.3401Z" fill="#2EB67D"/>
<path d="M15.1609 19.4404C16.5547 19.4404 17.6812 20.5669 17.6812 21.9607C17.6812 23.3545 16.5547 24.4809 15.1609 24.4809C13.7671 24.4809 12.6406 23.3545 12.6406 21.9607V19.4404H15.1609ZM15.1609 18.1802C13.7671 18.1802 12.6406 17.0537 12.6406 15.6599C12.6406 14.2661 13.7671 13.1396 15.1609 13.1396H21.4807C22.8745 13.1396 24.001 14.2661 24.001 15.6599C24.001 17.0537 22.8745 18.1802 21.4807 18.1802H15.1609Z" fill="#ECB22E"/>
</g>
<defs>
<clipPath id="clip0">
<path d="M0 0.5H24V24.5H0V0.5Z" fill="white"/>
</clipPath>
</defs>
</svg>
