<svg width="39" height="48" viewBox="0 0 39 48" fill="none" xmlns="http://www.w3.org/2000/svg">
  <path fill-rule="evenodd" clip-rule="evenodd" d="M24.0792 47.6902L0.755859 43.69L5.41719 3.98943L12.9528 5.0419C15.1781 -1.48156 25.35 0.184296 25.4249 6.78404L38.3769 8.59289L34.8348 38.3569L24.0792 47.6902ZM17.8032 8.56762L18.4684 5.81242L22.5866 6.38792C21.8038 2.81066 16.0298 3.3811 15.5971 6.77141C15.2871 9.20324 14.1825 18.8811 13.2199 26.5201C12.8363 29.5608 17.863 30.7623 18.2875 26.8672C18.3899 25.9244 19.801 12.8224 19.801 12.8224L22.5876 13.2873C22.5876 13.2873 21.3681 26.5272 21.2819 27.5175C20.6587 34.6584 9.51308 33.0618 10.2214 26.3852C11.2565 16.624 11.9056 11.7922 12.434 7.84611L7.73823 7.21504L4.02437 41.3077L21.665 44.5323L23.0578 34.3846L32.342 35.7664L35.1276 10.8964L17.8032 8.56762Z" fill="black"/>
</svg>
  