<svg xmlns="http://www.w3.org/2000/svg" width="62" height="62" viewBox="0 0 62 62">
    <g fill="none" fill-rule="nonzero" stroke="#595959">
        <path fill="#FFF" d="M11.067 54.839c13.866-5.186 20.8-16.424 20.8-33.712l2.166-1.296 2.6.864c0 11.237-1.589 22.042-4.766 32.415l-.867.865c-3.756 1.44-7.222 2.305-10.4 2.593-3.178.288-6.356-.288-9.533-1.729z"/>
        <path d="M5 51.904c4.975 3.17 9.887 4.754 14.733 4.754 7.27 0 16.9-5.618 23.4-4.754 4.334.576 8.234 2.161 11.7 4.754"/>
        <path fill="#FFF" d="M30.29 22.03c1.647-1.345 2.896-2.064 3.813-2.15.934-.088 2.2.403 3.853 1.447 3.112.634 5.787 2.184 7.81 4.54 2.871 3.34 4.255 8.114 3.866 13.991a.548.548 0 1 0 .977.376c3.855-5.022 5.258-7.942 5.258-11.585 0-4.601-3.1-8.301-8.076-10.63-2.856-1.335-5.864-1.956-8.9-1.988l-1.57-.016 1.248-.865a.656.656 0 0 1 .16-.14c1.187-.738 2.488-1.188 3.883-1.239 3.582.01 8.078 1.738 10.666 4.586a.548.548 0 0 0 .948-.453c-.655-4.128-1.913-7.054-3.74-8.939-1.61-1.66-3.693-2.465-6.003-2.465-2.133 0-4.213.569-6.187 1.551a17.16 17.16 0 0 0-3.28 2.116l-.334.274-.32-.291C31.73 7.752 27.904 6.5 24.333 6.5c-6.633 0-11.64 5.636-11.835 13.051a1.345 1.345 0 0 1-.045.302l-.002.007a.747.747 0 0 0-.018.09.552.552 0 0 0 .44.528c.246.052.5-.076.602-.296 2.193-5.169 7.928-7.454 12.784-5.936l2.503.783-2.616.193c-3.174.235-5.703.892-7.816 2.19-3.702 2.273-5.897 6.044-5.897 10.817 0 3.895.915 7.455 3.14 12.013a.548.548 0 0 0 .583.285.543.543 0 0 0 .447-.462c.777-7.18 3.544-12.016 7.922-15.181 1.738-1.259 3.65-2.175 5.765-2.854zm8.975-6.176a5.122 5.122 0 0 0 .005-.003z"/>
    </g>
</svg>
