<svg width="229" height="50" viewBox="0 0 229 50" fill="none" xmlns="http://www.w3.org/2000/svg">
<path fill-rule="evenodd" clip-rule="evenodd" d="M166.611 15.5021H173V37.4665H167.889L160.862 27.4254V37.4665H154.473V15.5021H159.584L166.611 25.5431V15.5021ZM4.3216 34.6738C2.1178 32.4774 1 29.7475 1 26.4844C1 23.2209 2.1178 20.491 4.3216 18.2947C6.52601 16.0983 9.33715 15 12.6909 15C16.8117 15 20.5487 17.0708 22.4976 20.3343L16.9392 23.4722C16.2044 22.0599 14.5755 21.1501 12.6909 21.1501C11.1259 21.1501 9.84792 21.6521 8.85788 22.6562C7.86725 23.6602 7.38828 24.9468 7.38828 26.4844C7.38828 28.0217 7.86725 29.3083 8.85788 30.3123C9.84792 31.3164 11.1259 31.8184 12.6909 31.8184C14.6073 31.8184 16.2044 30.9398 16.9392 29.465L22.4976 32.6029C20.5487 35.8976 16.8117 37.9685 12.6909 37.9685C12.1125 37.9685 11.5503 37.9358 11.0045 37.8705C10.5291 38.4115 8.08589 41.018 3.94464 40.9999L2.71947 40.9787L3.42877 40.0076C4.41461 38.6353 4.88758 37.3976 5.12662 36.5241C5.27787 35.971 5.30756 35.7133 5.3159 35.5578C4.97192 35.2861 4.64042 34.9914 4.3216 34.6738ZM39.9096 30.3123C38.8875 31.3164 37.5778 31.8184 36.0128 31.8184C34.4475 31.8184 33.1378 31.3164 32.0838 30.3123C31.0617 29.2771 30.5504 28.0217 30.5504 26.4844C30.5504 24.9468 31.0617 23.6918 32.0838 22.6874C33.1378 21.6521 34.4475 21.1501 36.0128 21.1501C37.5778 21.1501 38.8875 21.6521 39.9096 22.6874C40.9639 23.6918 41.4749 24.9468 41.4749 26.4844C41.4749 28.0217 40.9639 29.2771 39.9096 30.3123ZM27.5797 34.6738C29.8801 36.8702 32.6906 37.9685 36.0128 37.9685C39.3347 37.9685 42.1458 36.8702 44.4141 34.6738C46.7136 32.4459 47.8632 29.716 47.8632 26.4844C47.8632 23.2525 46.7136 20.5226 44.4141 18.3259C42.1458 16.0984 39.3347 15 36.0128 15C32.6906 15 29.8801 16.0984 27.5797 18.3259C25.3115 20.5226 24.1619 23.2525 24.1619 26.4844C24.1619 29.716 25.3115 32.4459 27.5797 34.6738ZM74.7435 37.4665V15.5021H68.3552L63.0844 24.4448L57.8139 15.5021H51.4256V37.4665H57.8139V26.7667L62.7968 34.9876H63.3723L68.3552 26.7667V37.4665H74.7435ZM85.7547 31.693H94.0592V37.4665H79.3658V15.5021H93.8993V21.2129H85.7547V23.5972H93.1009V29.2456H85.7547V31.693ZM111.951 26.4844C111.951 29.371 110.067 31.3791 107.479 31.3791H104.924V21.5893H107.479C110.067 21.5893 111.951 23.5974 111.951 26.4844ZM115.209 18.6712C113.133 16.5688 110.578 15.502 107.479 15.502H98.2157V37.4664H107.479C110.578 37.4664 113.133 36.4308 115.209 34.3285C117.286 32.2264 118.34 29.5905 118.34 26.4844C118.34 23.3779 117.286 20.7732 115.209 18.6712ZM128.256 37.4664H121.867V15.502H128.256V37.4664ZM139.495 29.6219H143.2L141.348 22.8758L139.495 29.6219ZM145.34 37.4663L144.574 34.6424H138.121L137.354 37.4663H130.486L137.61 15.5022H145.085L152.208 37.4663H145.34Z" fill="#5163F0"/>
</svg>
