<svg width="229" height="50" viewBox="0 0 229 50" fill="none" xmlns="http://www.w3.org/2000/svg">
<g clip-path="url(#clip0)">
<path d="M170.746 17.5672V6.56368C170.746 4.59319 172.843 3.36119 174.457 4.34703L198.976 18.716L194.701 28.2414H194.54L189.943 17.8122C189.862 17.6493 189.702 17.4852 189.458 17.4852H170.746V17.5672ZM186.797 21.7544H180.91V37.0271C180.91 37.2745 180.667 37.6027 180.344 37.6027H176.957C176.715 37.6027 176.392 37.3565 176.392 37.0271V21.7544H170.746V44.5C170.746 46.4705 172.843 47.7025 174.457 46.7166L193.088 35.7963L186.797 21.7544ZM206.719 23.3146L202.767 21.0159L197.121 33.4144L206.8 27.7491C208.413 26.7632 208.413 24.3004 206.719 23.3146ZM81.0565 23.0684C81.0565 20.1121 78.6362 17.6493 75.6529 17.6493H68.3127C68.0715 17.6493 67.8291 17.8955 67.8291 18.1416V34.8105C67.8291 35.0566 67.9895 35.3028 68.3115 35.3028H71.2165C71.4576 35.3028 71.7 35.0566 71.7 34.8105V28.4055H73.3943L76.7008 35.0566C76.7816 35.1399 76.8624 35.3028 77.1036 35.3028H80.4113C80.8141 35.3028 80.9757 34.8925 80.8141 34.5643L77.4268 28.1593C79.5238 27.1747 81.0565 25.3671 81.0565 23.0684ZM75.3297 25.121H71.7V21.18H75.3297C76.3788 21.18 77.1844 22.0005 77.1844 23.0684C77.1844 24.1363 76.3776 25.121 75.3297 25.121ZM160.423 18.0596V20.8518C160.423 21.0979 160.18 21.3441 159.938 21.3441H156.308V35.2219C156.308 35.4681 156.067 35.7143 155.826 35.7143H152.759C152.518 35.7143 152.277 35.4681 152.277 35.2208V21.4262H148.647C148.405 21.4262 148.163 21.18 148.163 20.9338V18.1416C148.163 17.8955 148.404 17.6493 148.646 17.6493H159.938C160.261 17.5661 160.423 17.8134 160.423 18.0596ZM92.0252 26.8453C92.0252 29.7196 94.1234 32.1015 97.026 32.1015C98.2367 32.1015 99.527 31.6901 100.414 30.8695C100.503 30.7902 100.618 30.7463 100.737 30.7463C100.856 30.7463 100.971 30.7902 101.06 30.8695L103.076 33.0041C103.154 33.0961 103.197 33.2123 103.197 33.3323C103.197 33.4523 103.154 33.5685 103.076 33.6605C101.382 35.3849 99.205 36.2066 96.9452 36.2066C91.8648 36.2066 87.7503 32.1015 87.7503 26.9274C87.7503 21.7544 91.8648 17.5672 96.9452 17.5672C99.4462 17.5672 101.383 18.3878 103.076 19.948C103.317 20.1942 103.317 20.4403 103.076 20.6877L101.06 22.7402C100.971 22.8199 100.856 22.864 100.736 22.864C100.617 22.864 100.502 22.8199 100.413 22.7402C99.4462 21.9197 98.2367 21.4262 97.026 21.4262C94.1222 21.5094 92.0252 23.971 92.0252 26.8453ZM17.902 18.3069L12.3368 26.6812V34.7284C12.3368 34.9746 12.0956 35.2208 11.8533 35.2208H8.9495C8.70832 35.2208 8.46594 34.9746 8.46594 34.7284V26.7632L3.05997 18.3057C2.89838 17.9775 3.05997 17.5672 3.46394 17.5672H6.68967C6.85126 17.5672 7.01285 17.7314 7.09365 17.8134L10.5618 22.9864L14.0299 17.8134C14.1107 17.7302 14.1915 17.5672 14.4326 17.5672H17.6596C17.9008 17.5672 18.1419 17.9775 17.9008 18.3057L17.902 18.3069ZM116.787 17.8955C116.75 17.8209 116.693 17.7582 116.622 17.7146C116.55 17.671 116.468 17.6483 116.384 17.6493H116.143C115.98 17.6493 115.82 17.8134 115.739 17.8955L107.834 35.3028C107.798 35.3712 107.78 35.4477 107.782 35.525C107.784 35.6023 107.807 35.6777 107.847 35.7439C107.888 35.8101 107.945 35.8648 108.013 35.9027C108.082 35.9407 108.159 35.9606 108.237 35.9604H111.06C111.261 35.9647 111.458 35.9022 111.619 35.783C111.78 35.6637 111.896 35.4946 111.948 35.3028L112.835 33.2503H119.771L120.659 35.3028C120.9 35.7963 121.062 35.9604 121.546 35.9604H124.368C124.772 35.9604 124.934 35.6322 124.772 35.3028L116.787 17.8955ZM114.368 29.7196L116.303 25.4504L118.239 29.7196H114.368ZM31.8564 17.5661C26.9364 17.5661 22.9836 21.5903 22.9836 26.6812C22.9836 31.6901 26.9352 35.7143 31.8564 35.7143C36.7764 35.7143 40.7281 31.6901 40.7281 26.6812C40.7281 21.6723 36.7764 17.5684 31.8564 17.5684V17.5661ZM31.8564 31.6901C29.1939 31.6901 26.9364 29.3913 26.9364 26.6812C26.9364 23.8902 29.1939 21.5915 31.8564 21.5915C34.5986 21.5915 36.7764 23.8902 36.7764 26.6812C36.7764 29.3913 34.5178 31.6901 31.8564 31.6901ZM60.0862 18.0596V28.4055C60.0881 29.3243 59.9057 30.2345 59.5494 31.0835C59.1931 31.9325 58.6701 32.7036 58.0104 33.3525C57.3506 34.0013 56.5672 34.515 55.7053 34.864C54.8435 35.213 53.9201 35.3904 52.9883 35.3861C49.1174 35.3861 45.9701 32.1836 45.9701 28.4055V18.0596C45.9701 17.8134 46.2125 17.5672 46.4549 17.5672H49.5202C49.7614 17.5672 50.0026 17.8134 50.0026 18.0596V28.2414C50.0026 29.9657 51.2941 31.4439 53.0679 31.4439C54.843 31.4439 56.1333 30.0478 56.1333 28.2414V18.0596C56.1333 17.8134 56.2949 17.5672 56.6168 17.5672H59.6822C59.9234 17.5672 60.0862 17.8134 60.0862 18.0596ZM141.791 30.8695C141.791 33.4976 139.532 36.2066 135.822 36.2066C132.515 36.2066 130.66 34.8105 130.095 34.2361C129.854 33.9899 129.773 33.9079 129.934 33.4964L131.144 31.3618C131.385 31.0336 131.87 31.1157 132.032 31.1977C132.112 31.2798 133.967 32.5938 135.661 32.5938C136.71 32.5938 137.435 31.9362 137.435 31.0336C137.435 29.9657 136.548 29.1452 134.854 28.4055C132.677 27.5017 129.934 25.7774 129.934 22.6582C129.934 20.1133 131.87 17.4852 135.822 17.4852C138.484 17.4852 140.5 18.8801 141.226 19.4557C141.548 19.6198 141.468 20.1121 141.387 20.2762L140.096 22.2479C139.936 22.4941 139.451 22.7402 139.21 22.5761C138.968 22.412 137.112 21.0159 135.58 21.0159C134.693 21.0159 133.967 21.6723 133.967 22.3299C133.967 23.3146 134.693 23.971 136.709 24.8748C138.645 25.7786 141.791 27.3388 141.791 30.8683V30.8695Z" fill="url(#paint0_linear)"/>
</g>
<defs>
<linearGradient id="paint0_linear" x1="208" y1="25.4881" x2="86.5371" y2="25.4881" gradientUnits="userSpaceOnUse">
<stop stop-color="#FF005B"/>
<stop offset="1" stop-color="#2B2527"/>
</linearGradient>
<clipPath id="clip0">
<rect x="3" y="4" width="205" height="44" fill="white"/>
</clipPath>
</defs>
</svg>
