<svg xmlns="http://www.w3.org/2000/svg" width="130" height="42" viewBox="0 0 130 42">
    <g fill="none" fill-rule="nonzero">
        <g fill="#000">
            <path d="M52.33 3.979h3.856c2.259 0 3.746 1.16 3.746 3.205 0 2.1-1.652 3.26-3.856 3.26h-1.212v2.543h-2.533V3.979zm3.691 4.476c.882 0 1.432-.442 1.432-1.216 0-.773-.55-1.16-1.432-1.16h-1.157v2.376h1.157zM60.538 9.505c.22-2.1 2.148-3.647 4.242-3.426 1.817.221 3.25 1.603 3.415 3.426-.22 2.1-2.148 3.648-4.242 3.427-1.762-.166-3.195-1.603-3.415-3.427zm5.288 0c.055-.829-.606-1.547-1.432-1.547h-.055c-.826 0-1.432.663-1.432 1.492v.11c-.055.83.606 1.548 1.432 1.548h.055c.826 0 1.432-.663 1.432-1.492v-.11zM68.966 9.505c0-1.99 1.598-3.647 3.58-3.647h.11c1.213-.055 2.314.553 2.975 1.547l-1.652 1.16c-.276-.441-.771-.662-1.267-.662-.771 0-1.432.663-1.432 1.436v.111c-.055.774.495 1.492 1.322 1.547h.11c.55 0 .991-.276 1.322-.718l1.652 1.216a3.494 3.494 0 0 1-3.084 1.602c-1.983 0-3.58-1.602-3.636-3.592 0 .056 0 .056 0 0zM76.017 9.505c0-1.99 1.597-3.647 3.58-3.647h.11c1.212-.055 2.314.553 2.975 1.547l-1.652 1.16c-.276-.441-.772-.662-1.267-.662-.771 0-1.432.663-1.432 1.436v.111c-.056.774.495 1.492 1.266 1.547h.11c.551 0 .992-.276 1.323-.718l1.652 1.216a3.494 3.494 0 0 1-3.085 1.602 3.58 3.58 0 0 1-3.58-3.592c0 .056 0 .056 0 0zM83.564 6.024h2.368v3.481l2.314-3.481h2.258v6.963h-2.368V9.505l-2.314 3.482h-2.258zM91.771 6.024h2.369v3.481l2.313-3.481h2.259v6.963h-2.369V9.505l-2.313 3.482H91.77V6.024zm1.432-2.487l1.267-.221c.166.442.386.773.827.773.44 0 .716-.276.826-.718l1.267.221c-.11 1.16-1.157 2.045-2.314 1.88-.991-.111-1.762-.885-1.873-1.935zM99.703 9.505c0-1.99 1.598-3.647 3.58-3.647h.111c1.212-.055 2.314.553 2.975 1.547l-1.653 1.16c-.275-.441-.771-.662-1.267-.662-.771 0-1.432.663-1.432 1.436v.111c-.055.774.496 1.492 1.267 1.547h.11c.55 0 .992-.276 1.322-.718l1.653 1.216a3.494 3.494 0 0 1-3.085 1.602 3.58 3.58 0 0 1-3.58-3.592c0 .056 0 .056 0 0zM107.305 6.024h2.424V8.62l1.873-2.597h2.754l-2.369 2.873 2.424 4.09h-2.7l-1.321-2.21-.716.828v1.382h-2.424V6.024zM115.017 6.024h2.369v3.481l2.313-3.481h2.259v6.963h-2.369V9.505l-2.314 3.482h-2.258zM122.95 9.505c-.056-1.934 1.431-3.537 3.304-3.647h.165c2.424 0 3.526 1.768 3.526 3.813v.497h-4.627c.165.719.771 1.216 1.487 1.16.606 0 1.157-.275 1.542-.717l1.322 1.105c-.716.94-1.817 1.437-2.974 1.437-2.203 0-3.746-1.437-3.746-3.648zm4.736-.552c-.11-.774-.55-1.271-1.211-1.271s-1.102.497-1.212 1.27h2.423zM52.22 19.01h2.369v3.482l2.314-3.481h2.258v6.963h-2.424v-3.482l-2.313 3.482h-2.259V19.01zM60.428 19.01h2.424v2.487h1.983v-2.486h2.423v6.963h-2.423v-2.487h-1.983v2.487h-2.424zM70.123 21h-2.038v-1.99h6.5V21h-2.038v4.974h-2.424zM74.805 22.492c-.055-1.934 1.432-3.537 3.305-3.647h.165c2.424 0 3.526 1.768 3.526 3.813v.497h-4.627c.165.719.77 1.16 1.487 1.106.606 0 1.157-.277 1.542-.719l1.322 1.105c-.716.94-1.817 1.437-3.03 1.437-2.148.055-3.69-1.381-3.69-3.592zm4.737-.553c-.11-.773-.55-1.27-1.211-1.27-.662 0-1.102.497-1.212 1.27h2.423zM82.847 19.01h2.424v.94a2.513 2.513 0 0 1 2.093-1.105c1.653 0 3.085 1.381 3.085 3.647s-1.432 3.647-3.085 3.647c-.826 0-1.597-.331-2.093-.994v2.929h-2.424V19.01zm5.234 3.482a1.427 1.427 0 0 0-1.212-1.603c-.772-.11-1.488.443-1.598 1.216v.332c-.11.774.44 1.492 1.212 1.602.771.111 1.487-.442 1.598-1.215v-.332zM91.496 19.01h2.423v2.487h1.984v-2.486h2.423v6.963h-2.423v-2.487h-1.984v2.487h-2.423zM99.428 22.492c-.055-1.934 1.432-3.537 3.305-3.647h.165c2.424 0 3.526 1.768 3.526 3.813v.497h-4.627c.165.719.77 1.16 1.487 1.106.606 0 1.157-.277 1.542-.719l1.322 1.105c-.716.94-1.817 1.437-3.03 1.437-2.148.055-3.69-1.381-3.69-3.592zm4.682-.553c-.11-.773-.55-1.27-1.212-1.27-.66 0-1.101.497-1.212 1.27h2.424zM108.847 21h-2.038v-1.99h6.5V21h-2.038v4.974h-2.424zM113.915 20.89h4.187v2.155h-4.187zM53.708 33.6h-2.039v-1.99h6.5v1.99h-2.038v4.974h-2.423V33.6zM58.39 35.092c-.055-1.934 1.432-3.537 3.305-3.647h.165c2.369 0 3.47 1.768 3.47 3.813v.497h-4.627c.166.719.772 1.16 1.488 1.16.606 0 1.156-.276 1.542-.718l1.322 1.106c-.716.94-1.818 1.436-3.03 1.436-2.093 0-3.635-1.436-3.635-3.647zm4.737-.553c-.11-.773-.55-1.27-1.212-1.27-.66 0-1.101.497-1.212 1.27h2.424zM67.864 35.037l-2.313-3.426h2.644l1.047 1.713 1.046-1.713h2.59l-2.314 3.426 2.313 3.537h-2.644l-1.102-1.769-1.101 1.769h-2.59zM73.593 31.61h2.424v2.487H78v-2.486h2.424v6.963H78v-2.542h-1.983v2.542h-2.424zM81.525 35.092c-.11-2.155 1.488-3.979 3.636-4.09 2.148-.11 3.966 1.493 4.076 3.648.11 2.155-1.487 3.979-3.635 4.09h-.276a3.698 3.698 0 0 1-3.8-3.593v-.055zm5.289 0c.055-.829-.606-1.547-1.433-1.547h-.055c-.826 0-1.432.663-1.432 1.492v.11c-.055.83.606 1.548 1.432 1.548h.055c.827 0 1.433-.663 1.433-1.492v-.11zM89.403 38.574l.11-1.88c.11 0 .275.056.385.056.441 0 .882-.166.882-3.758v-1.326h6.004v6.963H94.36V33.6h-1.267v.11c0 4.2-1.101 4.919-2.589 4.919-.385 0-.716 0-1.101-.055zM97.83 35.092c-.11-2.155 1.488-3.979 3.636-4.09 2.148-.11 3.966 1.493 4.076 3.648.11 2.155-1.487 3.979-3.635 4.09h-.276a3.698 3.698 0 0 1-3.8-3.593v-.055zm5.289 0c.055-.829-.606-1.547-1.433-1.547h-.055c-.826 0-1.432.663-1.432 1.492v.11c-.055.83.606 1.548 1.432 1.548h.055c.827 0 1.433-.663 1.433-1.492v-.11zM106.534 31.61h5.233v1.99h-2.81v4.974h-2.423zM112.538 31.61h2.369v3.482l2.313-3.481h2.259v6.963h-2.369v-3.482l-2.313 3.482h-2.259zM120.746 31.61h2.368v3.482l2.314-3.481h2.258v6.963h-2.368v-3.482l-2.314 3.482h-2.258z"/>
        </g>
        <path fill="#51BAFF" d="M0 0h41.424v41.558H0z"/>
        <path fill="#FFF" d="M10.852 19.232c-.992-.277-1.708-1.16-1.708-2.156.055-1.27 1.102-2.32 2.424-2.265 1.267-.056 2.368.994 2.424 2.265 0 1.05-.717 1.935-1.708 2.156 1.212.165 2.313.773 3.03 1.713a9.533 9.533 0 0 1 3.635-1.271 5.021 5.021 0 0 1-3.635-4.808c0-2.874 2.313-5.14 5.178-5.14 2.864 0 5.122 2.321 5.122 5.14 0 2.266-1.487 4.2-3.635 4.808 1.377.22 2.699.663 3.856 1.437.77-.995 1.873-1.714 3.14-1.88-.992-.276-1.708-1.16-1.708-2.155.11-1.326 1.267-2.32 2.589-2.265 1.212.055 2.148 1.05 2.258 2.265 0 1.05-.716 1.935-1.707 2.156 1.597.22 2.974 1.215 3.635 2.707-1.046-1.27-2.644-2.044-4.296-1.989-1.322 0-2.644.442-3.636 1.326 1.653 1.05 2.92 2.598 3.69 4.421-4.075-5.14-11.512-5.968-16.635-1.879a10.066 10.066 0 0 0-1.873 1.88 9.672 9.672 0 0 1 3.856-4.532 5.642 5.642 0 0 0-3.47-1.216c-1.653 0-3.25.718-4.297 1.99.496-1.493 1.873-2.487 3.47-2.708zM16.8 30.56c.497-.386.772-.663.772-1.215 0-.608-.496-1.106-1.102-1.106h-.165c-.55 0-1.102.277-1.377.719l.661.553c.275-.332.44-.443.661-.443.165 0 .33.11.386.277v.055c0 .221-.11.387-.441.608l-1.267.94v.718h2.7v-.774H16.25l.55-.331zM19.445 28.295c-.992 0-1.598.829-1.598 1.768 0 .995.606 1.769 1.598 1.769.991 0 1.597-.83 1.597-1.769 0-.995-.606-1.768-1.597-1.768zm0 2.708c-.386 0-.606-.387-.606-.94 0-.552.275-.94.606-.94.386 0 .606.388.606.94.055.553-.22.94-.606.94zM21.318 28.626l.22.719.551-.11v2.541h.936V28.35h-.716zM23.576 28.35v.829h1.598l-1.488 2.597h.992l1.542-2.708v-.718z"/>
    </g>
</svg>
