<svg width="74" height="81" viewBox="0 0 74 81" fill="none" xmlns="http://www.w3.org/2000/svg">
<path fill-rule="evenodd" clip-rule="evenodd" d="M4.54215 44.0591L19.2249 25.1394L59.0774 25.7689L73.7601 43.4304L38.7311 80.0936L4.54215 44.0591ZM21.6998 29.8561L10.8633 43.8626L34.0457 68.6869L25.532 46.2634L17.792 45.304L17.9847 42.7612L25.4454 42.1668L29.0685 29.8249L21.6998 29.8561ZM47.1107 29.7492L33.7235 29.8054L30.1745 41.9406L50.0185 41.9219L47.1107 29.7492ZM49.6597 46.6082L30.4616 46.6019L39.0798 71.5697L49.6597 46.6082ZM22.2154 17.5758L22.7801 4.4125L29.0381 5.39842L25.1069 18.0758L22.2154 17.5758ZM8.39457 2.73238L14.8444 0.879883L18.4776 17.8862L15.53 19.2809L8.39457 2.73238ZM11.148 23.0514L0.865234 17.7778L4.57335 12.6033L12.4724 20.624L11.148 23.0514Z" fill="#F2F2F2"/>
</svg>
