<svg width="191" height="206" viewBox="0 0 191 206" fill="none" xmlns="http://www.w3.org/2000/svg">
<path opacity="0.4" fill-rule="evenodd" clip-rule="evenodd" d="M9.6343 112.29L48.1061 63.0885L152.528 64.7254L191 110.655L99.2166 206L9.6343 112.29ZM54.591 75.3544L26.197 111.779L86.9397 176.336L64.632 118.023L44.3517 115.528L44.8565 108.915L64.4051 107.369L73.8984 75.2733L54.591 75.3544ZM121.173 75.0765L86.0956 75.2226L76.7965 106.781L128.792 106.732L121.173 75.0765ZM127.852 118.919L77.5486 118.903L100.13 183.833L127.852 118.919ZM55.9419 43.4187L57.4216 9.18679L73.8187 11.7507L63.5181 44.7189L55.9419 43.4187ZM19.7285 4.81754L36.6283 0L46.1482 44.226L38.4248 47.8529L19.7285 4.81754ZM26.9429 57.6583L0 43.9441L9.71605 30.4874L30.4133 51.3458L26.9429 57.6583Z" fill="#EC1C24"/>
</svg>
