<svg width="210" height="206" viewBox="0 0 210 206" fill="none" xmlns="http://www.w3.org/2000/svg">
<path fill-rule="evenodd" clip-rule="evenodd" d="M28.6343 112.29L67.1061 63.0885L171.528 64.7254L210 110.655L118.217 206L28.6343 112.29ZM73.591 75.3544L45.197 111.779L105.94 176.336L83.632 118.023L63.3517 115.528L63.8565 108.915L83.4051 107.369L92.8984 75.2733L73.591 75.3544ZM140.173 75.0765L105.096 75.2226L95.7965 106.781L147.792 106.732L140.173 75.0765ZM146.852 118.919L96.5486 118.903L119.13 183.833L146.852 118.919ZM74.9419 43.4187L76.4216 9.18679L92.8187 11.7507L82.5181 44.7189L74.9419 43.4187ZM38.7285 4.81754L55.6283 0L65.1482 44.226L57.4248 47.8529L38.7285 4.81754ZM45.9429 57.6583L19 43.9441L28.7161 30.4874L49.4133 51.3458L45.9429 57.6583Z" fill="#EC1C24"/>
</svg>
