<svg width="352" height="323" viewBox="0 0 352 323" fill="none" xmlns="http://www.w3.org/2000/svg">
<path opacity="0.3" fill-rule="evenodd" clip-rule="evenodd" d="M240.01 248.373C244.747 244.129 249.063 239.437 252.899 234.363L285.589 256.132C281.21 264.775 276.072 273.012 270.234 280.745L240.01 248.373ZM269.453 205.946L299.98 215.407C298.378 223.291 296.17 231.039 293.376 238.583L261.599 221.487C264.486 216.445 267.071 211.236 269.342 205.888L269.453 205.946ZM277.061 183.935C277.043 182.235 277.056 180.41 276.883 178.804L302.432 173.557C303.082 180.813 303.162 188.109 302.669 195.378L274.645 191.711C275.541 189.014 276.309 186.426 276.951 183.877L277.061 183.935ZM203.228 155.94L267.823 140.42C258.46 119.346 241.945 100.482 216.562 87.0796C131.684 42.2642 49.6957 100.128 35.6585 171.188L60.4229 178.629L59.3437 196.409L16.3055 197.107C15.8345 101.515 116.124 8.05574 227.68 66.9569C260.386 84.226 281.304 108.02 292.583 134.333L313.181 129.395L312.376 144.255L215.116 193.035L203.228 155.94ZM177.365 159.648C220.093 182.209 185.338 247.366 143.629 225.344C97.8174 201.155 134.362 136.943 177.255 159.59L177.365 159.648ZM257.16 296.172C250.65 302.846 243.53 308.898 235.893 314.246L203.242 265.801C212.049 264.779 220.537 261.888 228.139 257.321L257.16 296.172Z" fill="#96969C"/>
</svg>
