<svg width="394" height="415" viewBox="0 0 394 415" fill="none" xmlns="http://www.w3.org/2000/svg">
<path fill-rule="evenodd" clip-rule="evenodd" d="M287.233 287.739C102.427 337.258 18.1216 58.2808 214.988 5.53065C394.785 -42.6459 471.336 238.409 287.233 287.739ZM243.256 212.297L242.982 213.403C244.535 213.512 246.103 213.568 247.684 213.568C284.168 213.568 313.744 183.991 313.744 147.507C313.744 111.023 284.168 81.4465 247.684 81.4465C211.199 81.4465 181.623 111.023 181.623 147.507C181.623 154.664 182.761 161.555 184.866 168.009L186.829 166.508C186.834 166.522 186.838 166.536 186.842 166.55L198.46 158.007C198.435 157.895 198.41 157.783 198.386 157.671L199.505 156.815C198.926 153.802 198.623 150.69 198.623 147.507C198.623 120.412 220.588 98.4465 247.684 98.4465C274.779 98.4465 296.744 120.412 296.744 147.507C296.744 174.602 274.779 196.568 247.684 196.568C247.505 196.568 247.326 196.567 247.148 196.565L246.624 198.683C246.613 198.683 246.602 198.683 246.592 198.683C248.289 191.897 250.048 184.715 251.699 177.911C252.882 177.717 254.09 177.461 255.319 177.132C294.092 166.743 280.143 107.212 238.846 118.278C231.609 120.217 226.331 123.964 222.806 128.676L226.763 133.244L237.164 130.625L241.169 134.996L167.642 203.474C163.062 246.132 208.283 263.323 230.58 240.339L227.339 263.881L216.745 262.41L215.642 270.382L246.228 274.607L247.33 266.635L236.736 265.163L240.459 237.947L233.45 236.983C236.354 233.132 238.71 228.426 240.298 222.822C241.114 219.956 242.077 216.354 243.133 212.293C243.174 212.294 243.215 212.295 243.256 212.297ZM221.188 60.5766L230.557 59.1883L228.679 46.6589L234.544 45.8015C235.545 45.6353 236.313 45.8376 236.836 46.3606C237.358 46.8837 237.675 47.5895 237.809 48.4716L238.443 52.7396C238.678 54.2834 239.032 55.4128 239.48 56.1343C239.928 56.8558 240.499 57.3662 241.137 57.6542L250.703 56.2387L250.528 55.1122C249.804 54.6941 249.178 54.0712 248.681 53.2609C248.183 52.4506 247.838 51.4465 247.674 50.2661L247.041 45.9981C246.764 44.1084 246.153 42.5889 245.22 41.4871C244.287 40.3853 242.884 39.7157 241.046 39.5195C242.705 38.667 244.006 37.5277 244.95 36.1015C245.894 34.6754 246.192 32.8359 245.867 30.5766C245.374 27.2145 243.789 25.0122 241.13 23.9394C238.471 22.8666 234.769 22.6598 230.061 23.3603L216.007 25.4428L221.188 60.5766ZM191.753 76.0639L174.109 45.2387L197.568 31.8118L201.686 38.9972L186.43 47.7269L189.028 52.2845L201.408 45.1927L205.182 51.7564L192.801 58.8483L195.719 63.9324L210.976 55.2027L215.205 62.6133L191.753 76.0639ZM147.23 72.6425L139.272 82.9109L167.357 104.741L175.503 94.2182C177.55 91.5784 178.888 89.0521 179.575 86.5726C180.262 84.0931 180.402 81.7602 180.018 79.5676C179.635 77.375 178.806 75.3273 177.544 73.4721C176.275 71.5931 174.742 69.9636 172.908 68.5423C170.879 66.9689 168.763 65.8272 166.558 65.1173C164.353 64.4073 162.151 64.1814 159.95 64.4394C157.75 64.6974 155.571 65.5109 153.407 66.8559C151.242 68.2009 149.184 70.1298 147.23 72.6425ZM159.702 128.801L157.234 137.955L122.961 128.724L126.655 115.008C127.898 110.416 129.533 107.095 131.59 105.065C133.624 103.041 136.303 102.476 139.55 103.366C141.747 103.95 143.317 104.958 144.238 106.394C145.182 107.825 145.7 109.471 145.815 111.328C146.731 109.705 147.892 108.705 149.283 108.282C150.674 107.858 152.294 107.908 154.16 108.403L158.314 109.534C159.466 109.838 160.514 109.94 161.467 109.786C162.397 109.639 163.204 109.321 163.913 108.825L165.011 109.117L162.485 118.44C161.973 118.909 161.268 119.225 160.433 119.347C159.575 119.475 158.42 119.351 156.907 118.94L152.753 117.808C151.901 117.578 151.119 117.609 150.424 117.871C149.73 118.134 149.262 118.769 148.986 119.736L147.457 125.451L159.702 128.801ZM123.225 166.732C122.848 164.181 122.908 161.741 123.454 159.402C124.007 157.086 124.934 155.027 126.253 153.194C127.573 151.361 129.286 149.856 131.381 148.632C133.475 147.408 135.857 146.591 138.551 146.175C141.269 145.753 143.792 145.842 146.155 146.382C148.494 146.928 150.583 147.873 152.399 149.223C154.214 150.573 155.712 152.263 156.9 154.317C158.088 156.37 158.886 158.681 159.263 161.233C159.641 163.784 159.58 166.223 159.058 168.556C158.529 170.866 157.608 172.949 156.265 174.788C154.922 176.627 153.215 178.156 151.144 179.374C149.074 180.592 146.668 181.415 143.95 181.837C141.256 182.253 138.733 182.164 136.37 181.624C134.007 181.084 131.911 180.115 130.12 178.759C128.328 177.402 126.8 175.695 125.612 173.641C124.424 171.588 123.633 169.3 123.225 166.732ZM275.376 61.3353L266.896 57.6652L293.726 30.5571L302.063 34.1639L300.697 72.276L291.874 68.4682L292.189 61.6506L280.103 56.4216L275.376 61.3353ZM342.99 64.2341L314.011 84.7512L319.47 92.4698L329.437 85.4124L332.43 89.6348C333.581 91.2648 334.817 92.6424 336.151 93.8151C337.486 94.9878 338.856 95.8194 340.31 96.2969C341.764 96.7745 343.271 96.8806 344.856 96.609C346.441 96.3374 348.101 95.5865 349.796 94.3927C353.374 91.8527 355.192 89.1212 355.261 86.1441C355.313 83.1972 354.062 79.8599 351.443 76.175L342.99 64.2341ZM334.719 122.252L332.484 113.057L367.01 104.673L370.356 118.493C371.467 123.117 371.619 126.826 370.799 129.57C369.979 132.315 367.906 134.095 364.627 134.897C362.426 135.436 360.553 135.3 359.04 134.506C357.527 133.713 356.264 132.521 355.275 130.925C355.241 132.795 354.71 134.239 353.705 135.247C352.683 136.286 351.243 137.004 349.381 137.477L345.192 138.498C344.02 138.786 343.065 139.221 342.321 139.777C341.56 140.363 340.998 141.024 340.64 141.783L339.54 142.053L337.254 132.667C337.482 131.994 337.932 131.389 338.61 130.876C339.289 130.362 340.392 129.914 341.898 129.536L346.087 128.515C346.95 128.309 347.613 127.928 348.093 127.34C348.579 126.776 348.704 126.003 348.46 124.998L347.072 119.248L334.719 122.252ZM369.809 176.789C371.077 174.766 371.917 172.475 372.382 169.928C372.84 167.356 372.829 164.936 372.312 162.626C371.843 160.304 370.947 158.197 369.685 156.342C368.399 154.493 366.73 152.926 364.676 151.64C362.599 150.36 360.248 149.485 357.57 149.004C354.867 148.53 352.339 148.518 349.976 149.024C347.606 149.506 345.5 150.402 343.658 151.712C341.816 153.022 340.272 154.685 339.028 156.702C337.783 158.718 336.943 161.009 336.478 163.557C336.013 166.104 336.031 168.548 336.5 170.871C336.969 173.193 337.859 175.276 339.145 177.125C340.431 178.973 342.1 180.541 344.153 181.827C346.2 183.089 348.581 183.982 351.284 184.456C353.939 184.943 356.49 184.948 358.854 184.443C361.218 183.937 363.324 183.041 365.172 181.755C366.997 180.475 368.54 178.812 369.809 176.789ZM329.055 213.037C325.257 210.663 322.89 208.109 321.96 205.4C321.03 202.69 321.792 199.349 324.236 195.43C326.516 191.758 329.166 189.467 332.203 188.525C335.247 187.608 338.412 188.188 341.775 190.271L343.55 191.377L338.541 199.426L337.165 198.571C335.848 197.75 334.707 197.393 333.693 197.512C332.703 197.624 331.882 198.176 331.266 199.208C330.585 200.283 330.464 201.259 330.903 202.136C331.318 203.019 332.265 203.888 333.708 204.802L353.26 216.957L348.252 225.007L329.055 213.037ZM335.172 239.578L313.499 211.414L292.04 227.927L297.245 234.694L311.177 223.972L314.768 228.621L303.479 237.308L308.097 243.314L319.404 234.596L322.611 238.761L308.679 249.483L313.731 256.061L335.172 239.578ZM273.591 243.302C271.504 243.886 269.933 244.97 268.889 246.5C267.846 248.029 267.339 249.848 267.385 251.927L257.917 251.327C257.803 247.379 258.868 243.931 261.113 240.983C263.357 238.035 266.691 235.918 271.121 234.654C273.678 233.918 276.136 233.668 278.494 233.903C280.852 234.138 283.02 234.807 284.968 235.892C286.917 236.977 288.627 238.508 290.105 240.407C291.56 242.313 292.679 244.589 293.441 247.241C294.19 249.846 294.453 252.351 294.214 254.787C293.991 257.193 293.329 259.385 292.245 261.334C291.16 263.282 289.677 264.98 287.772 266.434C285.896 267.906 283.686 268.983 281.129 269.719C276.604 271.008 272.612 270.956 269.159 269.585C265.706 268.215 262.996 265.906 261.047 262.628L269.004 256.824C270.063 258.682 271.435 259.998 273.121 260.77C274.807 261.543 276.667 261.631 278.707 261.059C281.002 260.393 282.665 259.08 283.659 257.08C284.653 255.079 284.756 252.705 283.969 249.958C283.169 247.162 281.827 245.201 279.938 244.05C277.994 242.887 275.91 242.629 273.591 243.302ZM236.431 34.3802C236.267 33.1997 235.739 32.372 234.901 31.908C234.039 31.4504 232.735 31.3408 230.947 31.6158L226.578 32.2509L227.584 39.1479L232.418 38.4393C233.938 38.2106 235.035 37.738 235.693 37.0517C236.351 36.3654 236.592 35.4591 236.431 34.3802ZM168.758 88.9353C170.559 86.6164 171.263 84.3876 170.844 82.2553C170.426 80.1231 169.084 78.1617 166.796 76.3775C164.186 74.3477 161.859 73.4665 159.862 73.7212C157.864 73.9758 155.968 75.2745 154.167 77.5934L151.816 80.6207L166.425 91.9325L168.758 88.9353ZM139.291 113.535C138.139 113.231 137.179 113.361 136.395 113.954C135.634 114.54 135.009 115.728 134.554 117.457L133.401 121.719L140.135 123.536L141.4 118.836C141.794 117.353 141.803 116.152 141.418 115.286C141.051 114.39 140.336 113.816 139.291 113.535ZM135.429 170.782C133.591 169.54 132.474 167.748 132.117 165.369C131.773 163.039 132.294 160.986 133.693 159.26C135.092 157.533 137.201 156.458 140.044 156.028C142.91 155.591 145.259 155.982 147.096 157.224C148.934 158.466 150.021 160.24 150.372 162.595C150.728 164.973 150.207 167.026 148.832 168.746C147.457 170.466 145.324 171.548 142.458 171.984C139.615 172.414 137.266 172.024 135.429 170.782ZM285.759 50.5959L292.627 53.576L293.112 43.0148L285.759 50.5959ZM344.181 80.2887L341.684 76.7751L335.62 81.0778L338.117 84.5915C339.139 86.0264 340.109 86.8885 341.016 87.1303C341.922 87.372 342.921 87.1042 344.037 86.3206C345.065 85.5863 345.606 84.7525 345.638 83.8258C345.664 82.8752 345.196 81.6999 344.181 80.2887ZM359.951 125.82C361.124 125.532 361.884 124.945 362.282 124.048C362.655 123.158 362.656 121.831 362.215 120.088L361.169 115.803L354.421 117.458L355.564 122.201C355.942 123.707 356.504 124.755 357.242 125.322C357.981 125.889 358.898 126.077 359.951 125.82ZM363.542 168.343C363.956 165.988 363.503 163.916 362.141 162.164C360.779 160.412 358.687 159.264 355.876 158.767C353.011 158.26 350.657 158.61 348.783 159.801C346.909 160.991 345.78 162.773 345.366 165.128C344.945 167.46 345.415 169.502 346.754 171.26C348.092 173.018 350.184 174.167 353.049 174.674C355.883 175.164 358.244 174.838 360.118 173.647C361.962 172.439 363.121 170.675 363.542 168.343ZM44.9181 228.476L1.92534 233.439L0 200.771L26.5314 205.498L28.5202 191.448L89.2857 209.978L46.1604 214.056L44.9181 228.476ZM163.487 290.345L100.044 343.749L112.327 355.724L82.7733 391.184L124.466 414.605L154.16 353.263L139.509 340.555L163.487 290.345ZM197.865 314.228L205.865 356.813L220.335 356.736L229.203 399.107L196.854 404.005L199.135 377.144L184.965 376.44L197.865 314.228Z" fill="#EC1C24"/>
</svg>
