<svg width="291" height="294" viewBox="0 0 291 294" fill="none" xmlns="http://www.w3.org/2000/svg">
<path fill-rule="evenodd" clip-rule="evenodd" d="M185.113 287.739C0.3069 337.258 -83.9981 58.2808 112.868 5.53065C292.665 -42.6459 369.217 238.409 185.113 287.739ZM196.003 136.562L208.501 127.005C210.606 133.459 211.744 140.35 211.744 147.507C211.744 183.991 182.168 213.568 145.684 213.568C109.199 213.568 79.623 183.991 79.623 147.507C79.623 111.023 109.199 81.4465 145.684 81.4465C147.212 81.4465 148.728 81.4985 150.231 81.6006C151.1 78.2872 151.896 75.3336 152.587 72.9074C156.527 59.0046 165.193 50.631 175.226 47.1076L191.607 30.5571L199.943 34.1639L199.471 47.3443C211.132 51.4753 221.158 61.3283 224.436 75.8697L240.871 64.2341L249.324 76.175C251.943 79.8599 253.194 83.1972 253.142 86.1441C253.073 89.1212 251.255 91.8527 247.677 94.3927C245.982 95.5865 244.322 96.3374 242.737 96.609C241.152 96.8806 239.645 96.7745 238.191 96.2969C236.737 95.8194 235.366 94.9878 234.032 93.8151C232.698 92.6424 231.462 91.2648 230.311 89.6348L227.318 85.4124L225.565 86.6535C225.554 88.4683 225.449 90.3359 225.243 92.2551L151.716 160.733L155.721 165.104L166.122 162.486L170.079 167.054C166.554 171.765 161.276 175.512 154.039 177.451C112.741 188.517 98.7931 128.987 137.566 118.598C138.795 118.268 140.003 118.012 141.186 117.819C142.724 111.481 144.356 104.816 145.943 98.4472C145.857 98.4468 145.77 98.4465 145.684 98.4465C118.588 98.4465 96.623 120.412 96.623 147.507C96.623 174.602 118.588 196.568 145.684 196.568C172.779 196.568 194.744 174.602 194.744 147.507C194.744 144.324 194.441 141.213 193.862 138.199L194.434 137.762C194.431 137.749 194.428 137.735 194.425 137.722L196.003 136.562ZM128.438 59.1883L119.069 60.5766L113.888 25.4428L127.942 23.3603C132.65 22.6598 136.352 22.8666 139.011 23.9394C141.67 25.0122 143.255 27.2145 143.748 30.5766C144.072 32.8359 143.775 34.6754 142.831 36.1015C141.887 37.5277 140.586 38.667 138.927 39.5195C140.765 39.7157 142.168 40.3853 143.101 41.4871C144.034 42.5889 144.645 44.1084 144.922 45.9981L145.555 50.2661C145.719 51.4465 146.064 52.4506 146.562 53.2609C147.059 54.0712 147.685 54.6941 148.409 55.1122L148.584 56.2387L139.018 57.6542C138.379 57.3662 137.809 56.8558 137.361 56.1343C136.913 55.4128 136.559 54.2834 136.324 52.7396L135.69 48.4716C135.556 47.5895 135.239 46.8837 134.717 46.3606C134.194 45.8376 133.426 45.6353 132.425 45.8015L126.56 46.6589L128.438 59.1883ZM71.9902 45.2387L89.6341 76.0639L113.086 62.6133L108.856 55.2027L93.6001 63.9324L90.6823 58.8483L103.062 51.7564L99.2891 45.1927L86.909 52.2845L84.3107 47.7269L99.5671 38.9972L95.4487 31.8118L71.9902 45.2387ZM37.1525 82.9109L45.1113 72.6425C47.0646 70.1298 49.1233 68.2009 51.2875 66.8559C53.4517 65.5109 55.6308 64.6974 57.8312 64.4394C60.0316 64.1814 62.2342 64.4073 64.439 65.1173C66.6438 65.8272 68.7602 66.9689 70.7884 68.5423C72.6227 69.9636 74.1559 71.5931 75.4244 73.4721C76.6865 75.3273 77.5157 77.375 77.8992 79.5676C78.2827 81.7602 78.1428 84.0931 77.4556 86.5726C76.7685 89.0521 75.4308 91.5784 73.3841 94.2182L65.2383 104.741L37.1525 82.9109ZM55.1145 137.955L57.5832 128.801L45.3378 125.451L46.8667 119.736C47.1431 118.769 47.6104 118.134 48.3051 117.871C48.9997 117.609 49.7819 117.578 50.6343 117.808L54.788 118.94C56.3006 119.351 57.4559 119.475 58.3141 119.347C59.1486 119.225 59.8543 118.909 60.3662 118.44L62.8918 109.117L61.7935 108.825C61.0848 109.321 60.2776 109.639 59.348 109.786C58.3946 109.94 57.3472 109.838 56.1949 109.534L52.0412 108.403C50.1746 107.908 48.5546 107.858 47.1635 108.282C45.7726 108.705 44.6123 109.705 43.6956 111.328C43.5807 109.471 43.063 107.825 42.1187 106.394C41.1983 104.958 39.6278 103.95 37.4311 103.366C34.1837 102.476 31.5044 103.041 29.4712 105.065C27.4142 107.095 25.7792 110.416 24.5362 115.008L20.8418 128.724L55.1145 137.955ZM21.3351 159.402C20.789 161.741 20.7285 164.181 21.1061 166.732C21.5139 169.3 22.3053 171.588 23.4931 173.641C24.6808 175.695 26.2093 177.402 28.0008 178.759C29.7923 180.115 31.8879 181.084 34.2511 181.624C36.6143 182.164 39.1373 182.253 41.831 181.837C44.5484 181.415 46.9544 180.592 49.0251 179.374C51.0959 178.156 52.8028 176.627 54.1461 174.788C55.4893 172.949 56.4102 170.866 56.9389 168.556C57.4612 166.223 57.5217 163.784 57.1441 161.233C56.7665 158.681 55.9687 156.37 54.7809 154.317C53.5931 152.263 52.0948 150.573 50.2796 149.223C48.4643 147.873 46.3751 146.928 44.0356 146.382C41.6724 145.842 39.1494 145.753 36.432 146.175C33.7383 146.591 31.3561 147.408 29.2616 148.632C27.1671 149.856 25.4537 151.361 24.1343 153.194C22.8148 155.027 21.8876 157.086 21.3351 159.402ZM230.365 113.057L232.599 122.252L244.953 119.248L246.34 124.998C246.584 126.003 246.46 126.776 245.974 127.34C245.494 127.928 244.831 128.309 243.968 128.515L239.779 129.536C238.273 129.914 237.17 130.362 236.491 130.876C235.813 131.389 235.363 131.994 235.135 132.667L237.42 142.053L238.521 141.783C238.879 141.024 239.441 140.363 240.202 139.777C240.946 139.221 241.9 138.786 243.073 138.498L247.262 137.477C249.124 137.004 250.564 136.286 251.586 135.247C252.591 134.239 253.122 132.795 253.156 130.925C254.145 132.521 255.408 133.713 256.921 134.506C258.434 135.3 260.307 135.436 262.508 134.897C265.787 134.095 267.86 132.315 268.68 129.57C269.5 126.826 269.348 123.117 268.237 118.493L264.891 104.673L230.365 113.057ZM270.263 169.928C269.798 172.475 268.958 174.766 267.689 176.789C266.421 178.812 264.878 180.475 263.053 181.755C261.204 183.041 259.098 183.937 256.735 184.443C254.371 184.948 251.82 184.943 249.165 184.456C246.462 183.982 244.081 183.089 242.034 181.827C239.981 180.541 238.311 178.973 237.026 177.125C235.74 175.276 234.85 173.193 234.381 170.871C233.911 168.548 233.894 166.104 234.359 163.557C234.824 161.009 235.664 158.718 236.908 156.702C238.153 154.685 239.696 153.022 241.539 151.712C243.381 150.402 245.487 149.506 247.857 149.024C250.22 148.518 252.748 148.53 255.45 149.004C258.129 149.485 260.48 150.36 262.557 151.64C264.61 152.926 266.28 154.493 267.566 156.342C268.828 158.197 269.724 160.304 270.193 162.626C270.71 164.936 270.721 167.356 270.263 169.928ZM219.841 205.4C220.771 208.109 223.138 210.663 226.936 213.037L246.132 225.007L251.141 216.957L231.589 204.802C230.146 203.888 229.199 203.019 228.784 202.136C228.345 201.259 228.466 200.283 229.147 199.208C229.763 198.176 230.584 197.624 231.574 197.512C232.588 197.393 233.729 197.75 235.045 198.571L236.422 199.426L241.431 191.377L239.656 190.271C236.292 188.188 233.128 187.608 230.084 188.525C227.047 189.467 224.397 191.758 222.116 195.43C219.673 199.349 218.911 202.69 219.841 205.4ZM211.379 211.414L233.053 239.578L211.612 256.061L206.56 249.483L220.492 238.761L217.285 234.596L205.978 243.314L201.36 237.308L212.649 228.621L209.058 223.972L195.125 234.694L189.921 227.927L211.379 211.414ZM166.77 246.5C167.814 244.97 169.385 243.886 171.472 243.302C173.791 242.629 175.875 242.887 177.818 244.05C179.708 245.201 181.05 247.162 181.85 249.958C182.637 252.705 182.533 255.079 181.539 257.08C180.545 259.08 178.883 260.393 176.587 261.059C174.548 261.631 172.688 261.543 171.002 260.77C169.316 259.998 167.943 258.682 166.884 256.824L158.928 262.628C160.877 265.906 163.587 268.215 167.04 269.585C170.493 270.956 174.485 271.008 179.01 269.719C181.567 268.983 183.777 267.906 185.653 266.434C187.558 264.98 189.041 263.282 190.125 261.334C191.21 259.385 191.872 257.193 192.094 254.787C192.334 252.351 192.071 249.846 191.322 247.241C190.56 244.589 189.44 242.313 187.986 240.407C186.508 238.508 184.797 236.977 182.849 235.892C180.901 234.807 178.733 234.138 176.375 233.903C174.017 233.668 171.559 233.918 169.002 234.654C164.572 235.918 161.238 238.035 158.993 240.983C156.749 243.931 155.684 247.379 155.798 251.327L165.266 251.927C165.219 249.848 165.726 248.029 166.77 246.5ZM113.523 270.382L114.626 262.41L125.22 263.881L128.968 236.658L138.34 237.947L134.616 265.163L145.211 266.635L144.109 274.607L113.523 270.382ZM134.311 34.3802C134.148 33.1997 133.62 32.372 132.782 31.908C131.92 31.4504 130.615 31.3408 128.828 31.6158L124.459 32.2509L125.465 39.1479L130.299 38.4393C131.819 38.2106 132.916 37.738 133.574 37.0517C134.231 36.3654 134.473 35.4591 134.311 34.3802ZM190.884 45.3754L190.993 43.0148L188.864 45.2093C189.538 45.2463 190.212 45.3017 190.884 45.3754ZM239.565 76.7751L242.062 80.2887C243.077 81.6999 243.545 82.8752 243.519 83.8258C243.487 84.7525 242.946 85.5863 241.918 86.3206C240.802 87.1042 239.803 87.372 238.897 87.1303C237.99 86.8885 237.02 86.0264 235.998 84.5915L233.501 81.0778L239.565 76.7751ZM68.7251 82.2553C69.1435 84.3876 68.4401 86.6164 66.6389 88.9353L64.3054 91.9325L49.6971 80.6207L52.0481 77.5934C53.8493 75.2745 55.7453 73.9758 57.7427 73.7212C59.74 73.4665 62.0672 74.3477 64.6766 76.3775C66.9652 78.1617 68.3068 80.1231 68.7251 82.2553ZM34.2755 113.954C35.0602 113.361 36.02 113.231 37.1723 113.535C38.2167 113.816 38.9314 114.39 39.299 115.286C39.6841 116.152 39.6745 117.353 39.2812 118.836L38.0161 123.536L31.2815 121.719L32.4345 117.457C32.8894 115.728 33.5146 114.54 34.2755 113.954ZM29.9978 165.369C30.3546 167.748 31.4722 169.54 33.3095 170.782C35.1469 172.024 37.4956 172.414 40.3385 171.984C43.2051 171.548 45.3378 170.466 46.713 168.746C48.0881 167.026 48.6091 164.973 48.2524 162.595C47.902 160.24 46.8145 158.466 44.9772 157.224C43.1399 155.982 40.7911 155.591 37.9245 156.028C35.0817 156.458 32.9727 157.533 31.5738 159.26C30.1749 160.986 29.6538 163.039 29.9978 165.369ZM260.162 124.048C259.765 124.945 259.004 125.532 257.832 125.82C256.779 126.077 255.862 125.889 255.123 125.322C254.385 124.755 253.823 123.707 253.445 122.201L252.302 117.458L259.049 115.803L260.096 120.088C260.537 121.831 260.536 123.158 260.162 124.048ZM260.022 162.164C261.384 163.916 261.837 165.988 261.423 168.343C261.002 170.675 259.843 172.439 257.999 173.647C256.125 174.838 253.764 175.164 250.93 174.674C248.065 174.167 245.973 173.018 244.634 171.26C243.296 169.502 242.826 167.46 243.246 165.128C243.661 162.773 244.79 160.991 246.664 159.801C248.538 158.61 250.892 158.26 253.757 158.767C256.567 159.264 258.66 160.412 260.022 162.164Z" fill="#27AE60"/>
</svg>
