<svg width="394" height="415" viewBox="0 0 394 415" fill="none" xmlns="http://www.w3.org/2000/svg">
<path d="M213.391 151.526C215.944 119.847 237.938 115.08 248.615 116.656C250.034 118.925 245.266 120.044 242.705 120.32C223.083 125.757 216.227 148.453 215.518 152.235C214.95 155.261 213.863 153.023 213.391 151.526Z" fill="#EC1C24"/>
<path fill-rule="evenodd" clip-rule="evenodd" d="M287.232 287.739C264.132 293.929 242.601 294.986 222.994 291.994C85.7432 271.049 42.729 51.6871 214.987 5.53065C229.083 1.75359 242.545 0.000187734 255.296 0.000122077C405.186 -0.00135276 456.902 242.276 287.232 287.739ZM230.557 59.1883L221.188 60.5766L216.007 25.4428L230.061 23.3603C234.769 22.6598 238.471 22.8666 241.13 23.9394C243.789 25.0122 245.374 27.2145 245.867 30.5766C246.192 32.8359 245.894 34.6754 244.95 36.1015C244.006 37.5277 242.705 38.667 241.046 39.5195C242.884 39.7157 244.287 40.3853 245.22 41.4871C246.153 42.5889 246.764 44.1084 247.041 45.9981L247.674 50.2661C247.838 51.4465 248.183 52.4506 248.681 53.2609C249.178 54.0712 249.804 54.6941 250.528 55.1122L250.703 56.2387L241.137 57.6542C240.499 57.3662 239.928 56.8558 239.48 56.1343C239.032 55.4128 238.678 54.2834 238.443 52.7396L237.809 48.4716C237.675 47.5895 237.358 46.8837 236.836 46.3606C236.313 45.8376 235.545 45.6353 234.544 45.8015L228.679 46.6589L230.557 59.1883ZM174.109 45.2387L191.753 76.0639L215.205 62.6133L210.976 55.2027L195.719 63.9324L192.801 58.8483L205.182 51.7564L201.408 45.1927L189.028 52.2845L186.43 47.7269L201.686 38.9972L197.568 31.8118L174.109 45.2387ZM139.272 82.9109L147.23 72.6425C149.184 70.1298 151.242 68.2009 153.407 66.8559C155.571 65.5109 157.75 64.6974 159.95 64.4394C162.151 64.1814 164.353 64.4073 166.558 65.1173C168.763 65.8272 170.879 66.9689 172.908 68.5423C174.742 69.9636 176.275 71.5931 177.544 73.4721C178.806 75.3273 179.635 77.375 180.018 79.5676C180.402 81.7602 180.262 84.0931 179.575 86.5726C178.888 89.0521 177.55 91.5784 175.503 94.2182L167.357 104.741L139.272 82.9109ZM157.234 137.955L159.702 128.801L147.457 125.451L148.986 119.736C149.262 118.769 149.73 118.134 150.424 117.871C151.119 117.609 151.901 117.578 152.753 117.808L156.907 118.94C158.42 119.351 159.575 119.475 160.433 119.347C161.268 119.225 161.973 118.909 162.485 118.44L165.011 109.117L163.913 108.825C163.204 109.321 162.397 109.639 161.467 109.786C160.514 109.94 159.466 109.838 158.314 109.534L154.16 108.403C152.294 107.908 150.674 107.858 149.283 108.282C147.892 108.705 146.731 109.705 145.815 111.328C145.7 109.471 145.182 107.825 144.238 106.394C143.317 104.958 141.747 103.95 139.55 103.366C136.303 102.476 133.624 103.041 131.59 105.065C129.533 107.095 127.898 110.416 126.655 115.008L122.961 128.724L157.234 137.955ZM123.454 159.402C122.908 161.741 122.848 164.181 123.225 166.732C123.633 169.3 124.424 171.588 125.612 173.641C126.8 175.695 128.328 177.402 130.12 178.759C131.911 180.115 134.007 181.084 136.37 181.624C138.733 182.164 141.256 182.253 143.95 181.837C146.668 181.415 149.074 180.592 151.144 179.374C153.215 178.156 154.922 176.627 156.265 174.788C157.608 172.949 158.529 170.866 159.058 168.556C159.58 166.223 159.641 163.784 159.263 161.233C158.886 158.681 158.088 156.37 156.9 154.317C155.712 152.263 154.214 150.573 152.399 149.223C150.583 147.873 148.494 146.928 146.155 146.382C143.792 145.842 141.269 145.753 138.551 146.175C135.857 146.591 133.475 147.408 131.381 148.632C129.286 149.856 127.573 151.361 126.253 153.194C124.934 155.027 124.007 157.086 123.454 159.402ZM266.896 57.6652L275.376 61.3353L280.103 56.4216L292.189 61.6506L291.874 68.4682L300.697 72.276L302.063 34.1639L293.726 30.5571L266.896 57.6652ZM314.011 84.7512L342.99 64.2341L351.443 76.175C354.062 79.8599 355.313 83.1972 355.261 86.1441C355.192 89.1212 353.374 91.8527 349.796 94.3927C348.101 95.5865 346.441 96.3374 344.856 96.609C343.271 96.8806 341.764 96.7745 340.31 96.2969C338.856 95.8194 337.486 94.9878 336.151 93.8151C334.817 92.6424 333.581 91.2648 332.43 89.6348L329.437 85.4124L319.47 92.4698L314.011 84.7512ZM332.484 113.057L334.719 122.252L347.072 119.248L348.46 124.998C348.704 126.003 348.579 126.776 348.093 127.34C347.613 127.928 346.95 128.309 346.087 128.515L341.898 129.536C340.392 129.914 339.289 130.362 338.61 130.876C337.932 131.389 337.482 131.994 337.254 132.667L339.54 142.053L340.64 141.783C340.998 141.024 341.56 140.363 342.321 139.777C343.065 139.221 344.02 138.786 345.192 138.498L349.381 137.477C351.243 137.004 352.683 136.286 353.705 135.247C354.71 134.239 355.241 132.795 355.275 130.925C356.264 132.521 357.527 133.713 359.04 134.506C360.553 135.3 362.426 135.436 364.627 134.897C367.906 134.095 369.979 132.315 370.799 129.57C371.619 126.826 371.467 123.117 370.356 118.493L367.01 104.673L332.484 113.057ZM372.382 169.928C371.917 172.475 371.077 174.766 369.809 176.789C368.54 178.812 366.997 180.475 365.172 181.755C363.324 183.041 361.218 183.937 358.854 184.443C356.49 184.948 353.939 184.943 351.284 184.456C348.581 183.982 346.2 183.089 344.153 181.827C342.1 180.541 340.431 178.973 339.145 177.125C337.859 175.276 336.969 173.193 336.5 170.871C336.031 168.548 336.013 166.104 336.478 163.557C336.943 161.009 337.783 158.718 339.028 156.702C340.272 154.685 341.816 153.022 343.658 151.712C345.5 150.402 347.606 149.506 349.976 149.024C352.339 148.518 354.867 148.53 357.57 149.004C360.248 149.485 362.599 150.36 364.676 151.64C366.73 152.926 368.399 154.493 369.685 156.342C370.947 158.197 371.843 160.304 372.312 162.626C372.829 164.936 372.84 167.356 372.382 169.928ZM321.96 205.4C322.89 208.109 325.257 210.663 329.055 213.037L348.252 225.007L353.26 216.957L333.708 204.802C332.265 203.888 331.318 203.019 330.903 202.136C330.464 201.259 330.585 200.283 331.266 199.208C331.882 198.176 332.703 197.624 333.693 197.512C334.707 197.393 335.848 197.75 337.165 198.571L338.541 199.426L343.55 191.377L341.775 190.271C338.412 188.188 335.247 187.608 332.203 188.525C329.166 189.467 326.516 191.758 324.236 195.43C321.792 199.349 321.03 202.69 321.96 205.4ZM313.499 211.414L335.172 239.578L313.731 256.061L308.679 249.483L322.611 238.761L319.404 234.596L308.097 243.314L303.479 237.308L314.768 228.621L311.177 223.972L297.245 234.694L292.04 227.927L313.499 211.414ZM268.889 246.5C269.933 244.97 271.504 243.886 273.591 243.302C275.91 242.629 277.994 242.887 279.938 244.05C281.827 245.201 283.169 247.162 283.969 249.958C284.756 252.705 284.653 255.079 283.659 257.08C282.665 259.08 281.002 260.393 278.707 261.059C276.667 261.631 274.807 261.543 273.121 260.77C271.435 259.998 270.063 258.682 269.004 256.824L261.047 262.628C262.996 265.906 265.706 268.215 269.159 269.585C272.612 270.956 276.604 271.008 281.129 269.719C283.686 268.983 285.896 267.906 287.772 266.434C289.677 264.98 291.16 263.282 292.245 261.334C293.329 259.385 293.991 257.193 294.214 254.787C294.453 252.351 294.19 249.846 293.441 247.241C292.679 244.589 291.56 242.313 290.105 240.407C288.627 238.508 286.917 236.977 284.968 235.892C283.02 234.807 280.852 234.138 278.494 233.903C276.136 233.668 273.678 233.918 271.121 234.654C266.691 235.918 263.357 238.035 261.113 240.983C258.868 243.931 257.803 247.379 257.917 251.327L267.385 251.927C267.339 249.848 267.846 248.029 268.889 246.5ZM215.642 270.382L216.745 262.41L227.339 263.881L231.087 236.658L240.459 237.947L236.736 265.163L247.33 266.635L246.228 274.607L215.642 270.382ZM236.431 34.3802C236.267 33.1997 235.739 32.372 234.901 31.908C234.039 31.4504 232.735 31.3408 230.947 31.6158L226.578 32.2509L227.584 39.1479L232.418 38.4393C233.938 38.2106 235.035 37.738 235.693 37.0517C236.351 36.3654 236.592 35.4591 236.431 34.3802ZM258.14 187.679C205.812 201.7 181.941 122.708 237.683 107.772C288.593 94.1311 310.268 173.711 258.14 187.679ZM170.844 82.2553C171.263 84.3876 170.559 86.6164 168.758 88.9353L166.425 91.9325L151.816 80.6207L154.167 77.5934C155.968 75.2745 157.864 73.9758 159.862 73.7212C161.859 73.4665 164.186 74.3477 166.796 76.3775C169.084 78.1617 170.426 80.1231 170.844 82.2553ZM136.395 113.954C137.179 113.361 138.139 113.231 139.291 113.535C140.336 113.816 141.051 114.39 141.418 115.286C141.803 116.152 141.794 117.353 141.4 118.836L140.135 123.536L133.401 121.719L134.554 117.457C135.009 115.728 135.634 114.54 136.395 113.954ZM132.117 165.369C132.474 167.748 133.591 169.54 135.429 170.782C137.266 172.024 139.615 172.414 142.458 171.984C145.324 171.548 147.457 170.466 148.832 168.746C150.207 167.026 150.728 164.973 150.372 162.595C150.021 160.24 148.934 158.466 147.096 157.224C145.259 155.982 142.91 155.591 140.044 156.028C137.201 156.458 135.092 157.533 133.693 159.26C132.294 160.986 131.773 163.039 132.117 165.369ZM292.627 53.576L285.759 50.5959L293.112 43.0148L292.627 53.576ZM341.684 76.7751L344.181 80.2887C345.196 81.6999 345.664 82.8752 345.638 83.8258C345.606 84.7525 345.065 85.5863 344.037 86.3206C342.921 87.1042 341.922 87.372 341.016 87.1303C340.109 86.8885 339.139 86.0264 338.117 84.5915L335.62 81.0778L341.684 76.7751ZM362.282 124.048C361.884 124.945 361.124 125.532 359.951 125.82C358.898 126.077 357.981 125.889 357.242 125.322C356.504 124.755 355.942 123.707 355.564 122.201L354.421 117.458L361.169 115.803L362.215 120.088C362.656 121.831 362.655 123.158 362.282 124.048ZM362.141 162.164C363.503 163.916 363.956 165.988 363.542 168.343C363.121 170.675 361.962 172.439 360.118 173.647C358.244 174.838 355.883 175.164 353.049 174.674C350.184 174.167 348.092 173.018 346.754 171.26C345.415 169.502 344.945 167.46 345.366 165.128C345.78 162.773 346.909 160.991 348.783 159.801C350.657 158.61 353.011 158.26 355.876 158.767C358.687 159.264 360.779 160.412 362.141 162.164ZM44.9181 228.476L1.92534 233.439L0 200.771L26.5314 205.498L28.5202 191.448L89.2857 209.978L46.1604 214.056L44.9181 228.476ZM163.487 290.345L100.044 343.749L112.327 355.724L82.7733 391.184L124.466 414.605L154.16 353.263L139.509 340.555L163.487 290.345ZM197.865 314.228L205.865 356.813L220.335 356.736L229.203 399.107L196.854 404.005L199.135 377.144L184.965 376.44L197.865 314.228ZM313.744 147.507C313.744 183.991 284.168 213.568 247.684 213.568C211.199 213.568 181.623 183.991 181.623 147.507C181.623 111.023 211.199 81.4465 247.684 81.4465C284.168 81.4465 313.744 111.023 313.744 147.507ZM296.744 147.507C296.744 174.602 274.779 196.568 247.684 196.568C220.588 196.568 198.623 174.602 198.623 147.507C198.623 120.412 220.588 98.4465 247.684 98.4465C274.779 98.4465 296.744 120.412 296.744 147.507Z" fill="#EC1C24"/>
</svg>
