<svg width="58" height="87" viewBox="0 0 58 87" fill="none" xmlns="http://www.w3.org/2000/svg">
<path fill-rule="evenodd" clip-rule="evenodd" d="M45.8959 78.5144C45.174 83.8145 40.9455 85.7429 34.1323 84.7054C27.3191 83.6679 15.9086 81.3705 9.41155 80.3797C2.91336 79.3896 0.894231 75.2933 1.64401 70.0733C4.01978 53.5386 11.3952 13.4175 11.9921 10.0042C13.0193 4.1202 15.8243 1.67079 20.9635 2.45362C25.1082 3.08493 44.189 6.14879 49.4827 7.06947C55.5195 8.12218 57.0055 12.4037 56.172 17.8751C55.7104 20.9023 48.0724 62.546 45.8959 78.5144ZM44.7554 12.314C44.4796 14.5194 43.2162 17.5633 40.5503 17.1135C37.8843 16.6638 28.2352 15.1919 26.8836 14.9639C23.7034 14.4275 23.3357 10.9709 23.6667 9.00891C19.8422 8.39434 17.7965 8.26806 17.7965 8.26806L8.00889 73.4495L39.1658 78.6259L50.486 13.3237C50.4871 13.3229 49.5217 13.0789 44.7554 12.314Z" fill="#96969C"/>
</svg>
