<svg width="211" height="207" viewBox="0 0 211 207" fill="none" xmlns="http://www.w3.org/2000/svg">
<path fill-rule="evenodd" clip-rule="evenodd" d="M182.188 87.9373C173.1 91.9244 164.859 113.052 164.859 113.052L159.818 111.525C159.818 111.525 165.582 93.8994 159.562 82.4629C153.54 71.0224 138.385 65.021 138.385 65.021L140.528 59.7678C140.528 59.7678 159.179 63.089 166.967 58.8536C177.694 53.0206 181.796 37.7072 181.796 37.7072L187.065 38.8311C187.065 38.8311 182.783 56.2403 187.715 65.4915C192.558 74.576 210.637 80.9389 210.637 80.9389L209.157 86.7211C209.153 86.72 193.37 83.031 182.188 87.9373ZM129.213 129.283L149.465 130.386L158.872 169.893L103.37 206.849L85.1733 202.186L128.995 156.447L146.059 161.755L141.067 140.778L116.139 137.865L74.9595 199.569L69.128 198.075L89.9034 107.652L126.556 102.929L103.052 72.713L79.9044 98.7156L62.3245 196.335L43.6052 191.54L44.33 137.544L28.0217 129.692L24.7453 109.863L11.0659 132.52L34.0329 189.087L24.1376 186.553L0.636719 132.295L23.5404 93.1796L53.6079 108.678L55.0146 86.2191L107.114 58.8644L142.638 104.816L129.213 129.283ZM89.3509 30.4355C83.9917 32.7827 79.1365 45.2294 79.1365 45.2294L76.1623 44.3287C76.1623 44.3287 79.3925 33.7861 75.8393 27.0465C72.2844 20.3065 63.5154 16.9254 63.5154 16.9254L64.7777 13.8316C64.7777 13.8316 75.9453 15.9513 80.538 13.4596C86.8623 10.0248 89.1118 0.848633 89.1118 0.848633L92.2181 1.50965C92.2181 1.50965 89.8511 11.6815 92.7614 17.1317C95.6179 22.4835 106.128 26.321 106.128 26.321L105.256 29.7269C105.255 29.7247 95.9443 27.5484 89.3509 30.4355ZM66.8504 51.0247L65.9782 54.4324C65.9782 54.4324 56.6694 52.2566 50.0755 55.1454C44.7168 57.4909 39.8604 69.9354 39.8604 69.9354L36.8863 69.0346C36.8863 69.0346 40.1137 58.495 36.561 51.7537C33.0061 45.0136 24.2366 41.6342 24.2366 41.6342L25.4989 38.5405C25.4989 38.5405 36.6687 40.6589 41.2597 38.1668C47.5858 34.7325 49.8341 25.5541 49.8341 25.5541L52.9398 26.2168C52.9398 26.2168 50.3463 36.5103 53.2561 41.9622C56.1131 47.3123 66.8504 51.0247 66.8504 51.0247Z" fill="#EC1C24"/>
</svg>
