<svg width="21" height="21" viewBox="0 0 21 21" fill="none" xmlns="http://www.w3.org/2000/svg">
<path d="M18.8125 0.4375H2.1875C1.221 0.4375 0.4375 1.221 0.4375 2.1875V18.8125C0.4375 19.779 1.221 20.5625 2.1875 20.5625H18.8125C19.779 20.5625 20.5625 19.779 20.5625 18.8125V2.1875C20.5625 1.221 19.779 0.4375 18.8125 0.4375Z" fill="white"/>
<path fill-rule="evenodd" clip-rule="evenodd" d="M0 1.75433C0 0.78544 0.784898 0 1.75433 0H19.2457C20.2146 0 21 0.784898 21 1.75433V19.2457C21 20.2146 20.2151 21 19.2457 21H1.75433C0.78544 21 0 20.2151 0 19.2457V1.75433ZM8.3125 8.00625H11.1562V9.43513C11.5662 8.6135 12.6166 7.875 14.1947 7.875C17.2196 7.875 17.9375 9.51038 17.9375 12.5112V18.0688H14.875V13.1946C14.875 11.4857 14.4651 10.5219 13.4225 10.5219C11.9766 10.5219 11.375 11.5609 11.375 13.1946V18.0688H8.3125V8.00625ZM3.0625 17.9375H6.125V7.875H3.0625V17.9375ZM6.5625 4.59375C6.5625 5.68094 5.68094 6.5625 4.59375 6.5625C3.50656 6.5625 2.625 5.68094 2.625 4.59375C2.625 3.50656 3.50656 2.625 4.59375 2.625C5.68094 2.625 6.5625 3.50656 6.5625 4.59375Z" fill="#0077B5"/>
</svg>
