<svg xmlns="http://www.w3.org/2000/svg" width="46" height="46" viewBox="0 0 46 46">
    <g fill="none" fill-rule="nonzero">
        <rect width="44.854" height="44.854" x=".573" y=".573" stroke="#fff" stroke-width="1.146" rx="9.517"/>
        <path fill="#fff" d="M34.533 25.596c-1.741 2.829-4.267 5.021-7.584 6.584-3.063 1.427-6.348 2.144-9.861 2.144h-5.131l1.38-3.968 1.79-5.152 1.38-3.967 1.08-3.108h5.615L18.93 30.354c4.689 0 7.556-.752 9.961-5.183.828-1.654 1.242-3.034 1.242-4.138 0-1.81-.499-3.109-1.491-3.895-.892-.695-2.261-1.045-4.108-1.045l-10.92-.002-4.361-3.974h17.696c2.6 0 4.765.555 6.496 1.67 2.043 1.32 3.062 3.216 3.062 5.7 0 1.929-.658 3.96-1.974 6.11z"/>
    </g>
</svg>
