<svg xmlns="http://www.w3.org/2000/svg" width="494" height="100" viewBox="0 0 494 100">
  <path fill="#FFF" fill-rule="evenodd" d="M80.1543775,43.9779426 C80.6704533,43.6416534 81.1988586,43.3248337 81.7255025,43.004474 C82.3419753,45.5372622 82.7100976,48.1691672 82.7100976,50.8913392 C82.7100976,69.2721956 67.828444,84.2246726 49.5385765,84.2246726 C31.2487091,84.2246726 16.3670555,69.2704256 16.3670555,50.8913392 C16.3670555,32.5122529 31.2469478,17.5580059 49.5385765,17.5580059 C58.2783996,17.5580059 66.211524,21.0023147 72.1419923,26.5740947 C71.6400073,26.9086139 71.1450678,27.2519828 70.6871165,27.6413702 C65.0983502,22.5014562 57.6936311,19.3279488 49.5385765,19.3279488 C32.2192133,19.3279488 18.1284064,33.4874913 18.1284064,50.8913392 C18.1284064,68.2951871 32.2192133,82.4547298 49.5385765,82.4547298 C66.8579397,82.4547298 80.9487467,68.2951871 80.9487467,50.8913392 C80.9487467,48.5125361 80.6546011,46.2063006 80.1543775,43.9779426 Z M49.7572816,0 C77.192819,0 99.5145631,22.4306307 99.5145631,50 C99.5145631,77.5693693 77.192819,100 49.7572816,100 C22.3217441,100 0,77.5693693 0,50 C0,42.7423423 1.56713024,35.8522522 4.34636578,29.6234234 C4.8502143,29.972973 5.33433919,30.345946 5.80770576,30.7369369 C3.23467157,36.6414414 1.79305519,43.1531531 1.79305519,50 C1.79305519,76.5765766 23.3097175,98.1981982 49.7572816,98.1981982 C76.2048456,98.1981982 97.7215079,76.5765766 97.7215079,50 C97.7215079,23.4234234 76.2048456,1.8018018 49.7572816,1.8018018 C36.9154202,1.8018018 25.2462171,6.91351351 16.6287938,15.2018018 C16.209219,14.7747748 15.786058,14.354955 15.3575177,13.9369369 C24.301277,5.31891892 36.4169509,0 49.7572816,0 Z M49.7572816,67.7777778 C40.597219,67.7777778 33.171521,60.3158569 33.171521,51.1111111 C33.171521,41.9063653 40.597219,34.4444444 49.7572816,34.4444444 C58.9173442,34.4444444 66.3430421,41.9063653 66.3430421,51.1111111 C66.3430421,60.3158569 58.9173442,67.7777778 49.7572816,67.7777778 Z M77.4002157,40 C74.3468616,40 71.8716289,37.5126931 71.8716289,34.4444444 C71.8716289,31.3761958 74.3468616,28.8888889 77.4002157,28.8888889 C80.4535699,28.8888889 82.9288026,31.3761958 82.9288026,34.4444444 C82.9288026,37.5126931 80.4535699,40 77.4002157,40 Z M9.95145631,27.7777778 C6.89810211,27.7777778 4.42286947,25.2904708 4.42286947,22.2222222 C4.42286947,19.1539736 6.89810211,16.6666667 9.95145631,16.6666667 C13.0048105,16.6666667 15.4800431,19.1539736 15.4800431,22.2222222 C15.4800431,25.2904708 13.0048105,27.7777778 9.95145631,27.7777778 Z M171.977,49.919 L172.581619,49.919 L172.581619,68 L167,68 L167,65.4389618 C164.446016,66.8302501 161.463263,67.637 158.061,67.637 C148.506,67.637 140.666,60.973 140.666,50.683 C140.666,40.344 148.506,33.778 158.061,33.778 C164.872,33.778 169.135,37.208 171.585,41.079 L165.803,44.215 C164.333,41.912 161.54,39.952 158.061,39.952 C152.132,39.952 147.82,44.509 147.82,50.683 C147.82,56.857 152.132,61.414 158.061,61.414 C160.952,61.414 163.696,60.14 165.019,58.915 L165.803,58.3094263 L167,57.102 L167,54.995 L160.005797,54.995 L160.005797,49.919 L171.977,49.919 Z M198.163,67.588 C188.216,67.588 183.414,62.002 183.414,53.966 L183.414,34.317 L190.47,34.317 L190.47,53.721 C190.47,58.278 193.116,61.414 198.163,61.414 C203.21,61.414 205.807,58.278 205.807,53.721 L205.807,34.317 L212.912,34.317 L212.912,53.917 C212.912,62.051 208.11,67.588 198.163,67.588 Z M254.092,67 L246.154,67 L244.145,61.463 L230.131,61.463 L228.073,67 L220.135,67 L232.777,34.317 L241.499,34.317 L254.092,67 Z M242.234,55.338 L237.138,41.275 L232.042,55.338 L242.234,55.338 Z M289.49,67 L281.503,67 L275.084,55.387 L269.988,55.387 L269.988,67 L263.03,67 L263.03,34.317 L278.318,34.317 C285.129,34.317 289.294,38.776 289.294,44.852 C289.294,50.634 285.668,53.721 282.14,54.554 L289.49,67 Z M277.289,49.262 C280.082,49.262 282.189,47.596 282.189,44.852 C282.189,42.108 280.082,40.442 277.289,40.442 L269.988,40.442 L269.988,49.262 L277.289,49.262 Z M313.324,67 L300.437,67 L300.437,34.317 L313.324,34.317 C323.565,34.317 330.67,40.834 330.67,50.683 C330.67,60.532 323.565,67 313.324,67 Z M313.324,60.875 C319.792,60.875 323.565,56.22 323.565,50.683 C323.565,44.901 320.037,40.442 313.324,40.442 L307.395,40.442 L307.395,60.875 L313.324,60.875 Z M367.979,67 L359.992,67 L353.573,55.387 L348.477,55.387 L348.477,67 L341.519,67 L341.519,34.317 L356.807,34.317 C363.618,34.317 367.783,38.776 367.783,44.852 C367.783,50.634 364.157,53.721 360.629,54.554 L367.979,67 Z M355.778,49.262 C358.571,49.262 360.678,47.596 360.678,44.852 C360.678,42.108 358.571,40.442 355.778,40.442 L348.477,40.442 L348.477,49.262 L355.778,49.262 Z M409.404001,67 L401.466001,67 L399.457001,61.463 L385.443001,61.463 L383.385001,67 L375.447001,67 L388.089001,34.317 L396.811001,34.317 L409.404001,67 Z M397.546001,55.338 L392.450001,41.275 L387.354001,55.338 L397.546001,55.338 Z M425.300001,67 L418.342001,67 L418.342001,34.317 L425.300001,34.317 L425.300001,67 Z M461.444001,67 L437.668001,67 L437.668001,34.317 L444.626001,34.317 L444.626001,60.875 L461.444001,60.875 L461.444001,67 Z M480.808001,67.588 C474.536001,67.588 470.028001,65.481 466.990001,62.394 L470.763001,57.102 C473.066001,59.503 476.643001,61.512 481.151001,61.512 C484.973001,61.512 486.835001,59.748 486.835001,57.886 C486.835001,52.104 468.019001,56.073 468.019001,43.774 C468.019001,38.335 472.723001,33.827 480.416001,33.827 C485.610001,33.827 489.922001,35.395 493.156001,38.384 L489.285001,43.48 C486.639001,41.03 483.111001,39.903 479.779001,39.903 C476.790001,39.903 475.124001,41.226 475.124001,43.186 C475.124001,48.38 493.891001,44.901 493.891001,57.102 C493.891001,63.08 489.628001,67.588 480.808001,67.588 Z"/>
</svg>
