<svg xmlns="http://www.w3.org/2000/svg" width="87" height="35" viewBox="0 0 87 35">
    <g fill="none" fill-rule="nonzero" >
        <path fill="#AE3292" d="M3.716 21.442l.024 1.8v1.453h5.067c.25.993.25 2.03 0 3.023H3.74v6.348a10.55 10.55 0 0 1-1.87.137c-.627.008-1.252-.04-1.87-.144V18.433l.164-.138H10.23c.105.474.154.958.145 1.442 0 .578-.16 1.005-.482 1.281-.322.276-.83.418-1.525.424H3.716M15.715 30.277c.435 1.218 1.312 1.826 2.633 1.825a2.53 2.53 0 0 0 1.605-.48c.416-.327.746-.744.965-1.217.243-.524.401-1.08.471-1.65.08-.597.12-1.2.121-1.802 0-.546-.02-1.154-.06-1.825a7.405 7.405 0 0 0-.348-1.884 3.513 3.513 0 0 0-.917-1.474c-.419-.399-1.03-.598-1.835-.598-.772 0-1.364.191-1.775.574a3.52 3.52 0 0 0-.917 1.416 6.808 6.808 0 0 0-.376 1.796 22.532 22.532 0 0 0-.072 1.68c-.004.642.032 1.283.11 1.92.078.584.21 1.16.395 1.72zm-1.956 3.229c-1.722-1.387-2.583-3.673-2.583-6.856-.021-1.222.146-2.44.495-3.615a7.162 7.162 0 0 1 1.424-2.61 5.938 5.938 0 0 1 2.256-1.59 7.907 7.907 0 0 1 2.994-.539 8.004 8.004 0 0 1 3.007.538c.878.35 1.657.9 2.268 1.604a7.294 7.294 0 0 1 1.424 2.621c.35 1.17.516 2.383.496 3.6a11.87 11.87 0 0 1-.496 3.602 7.162 7.162 0 0 1-1.424 2.609 5.922 5.922 0 0 1-2.268 1.591 8.004 8.004 0 0 1-3.007.538c-1.834 0-3.363-.491-4.586-1.474v-.019zM27.15 33.257a4.11 4.11 0 0 1 .475-1.544c.239-.476.561-.904.952-1.264 1.655 1.016 3.225 1.523 4.71 1.523.648 0 1.124-.148 1.427-.444.297-.286.462-.686.452-1.1 0-.734-.487-1.31-1.46-1.732l-2.737-1.17a6.849 6.849 0 0 1-2.458-1.743 3.866 3.866 0 0 1-.86-2.587 4.466 4.466 0 0 1 .429-1.967c.29-.6.705-1.129 1.216-1.552a5.657 5.657 0 0 1 1.844-1.018 7.314 7.314 0 0 1 2.365-.363 11.56 11.56 0 0 1 5.236 1.335c-.078 1.203-.495 2.14-1.252 2.81-1.577-.765-2.97-1.147-4.176-1.147-.619 0-1.083.14-1.392.42a1.268 1.268 0 0 0-.464.96c0 .61.456 1.1 1.368 1.475l2.784 1.201c1.176.5 2.053 1.14 2.632 1.922.58.783.886 1.739.868 2.716a5.027 5.027 0 0 1-.395 2.013 4.32 4.32 0 0 1-1.17 1.58c-.571.474-1.23.829-1.937 1.043a8.863 8.863 0 0 1-2.716.375 10.59 10.59 0 0 1-5.753-1.732M47.45 31.342c2.03 0 3.044-1.693 3.044-5.08 0-3.386-1.015-5.088-3.044-5.103h-1.303c-.377 0-.703-.008-.98-.024v10.23c.277-.015.603-.023.98-.023h1.303zm4.243 1.716a4.72 4.72 0 0 1-1.937.871c-.87.191-1.76.283-2.651.275-.473 0-1.16-.008-2.063-.023-.901-.016-2.027-.039-3.377-.068l-.16-.16V18.55l.16-.16c.891-.03 1.817-.052 2.78-.068.96-.016 1.972-.024 3.031-.024a7.678 7.678 0 0 1 3.273.618 5.36 5.36 0 0 1 2.095 1.7c.54.758.918 1.618 1.107 2.528.22 1.027.329 2.074.322 3.124a13.144 13.144 0 0 1-.53 3.958 5.713 5.713 0 0 1-2.05 2.831zM61.032 29.449l-.023 1.665v.024a34.587 34.587 0 0 1 1.652-.046h5.182c.007.442-.015.884-.067 1.323-.18 1.19-.941 1.786-2.285 1.786h-5.958a1.982 1.982 0 0 1-1.513-.58 2.2 2.2 0 0 1-.55-1.577V18.457l.157-.162h9.655c.093.481.138.97.135 1.46a4.797 4.797 0 0 1-.312 1.647h-6.092l.023 1.665v1.622c.386-.016.892-.024 1.517-.024h3.414c.141.481.21.982.202 1.485a5.492 5.492 0 0 1-.202 1.53h-4.935v1.762M69.44 34.02l1.287-15.534a15.192 15.192 0 0 1 2.522-.19c.854-.008 1.706.053 2.548.183l1.43 5.596c.566 2.528.865 3.907.899 4.136h.166c.065-.381.364-1.76.898-4.136l1.456-5.596a15.19 15.19 0 0 1 2.523-.183c.853-.008 1.705.053 2.547.183L87 34.02a8.004 8.004 0 0 1-1.856.183 11.65 11.65 0 0 1-1.806-.115l-.388-6.35c-.113-2.528-.178-4.287-.194-5.277h-.145l-2.4 9.298a14.675 14.675 0 0 1-4.004 0l-2.375-9.298h-.17c0 1.356-.064 3.115-.194 5.277l-.363 6.35c-.598.085-1.202.124-1.806.115a8.001 8.001 0 0 1-1.856-.183"/>
        <path fill="#242424" d="M42.292 10.341a.797.797 0 0 0-.787.806.797.797 0 1 0 1.355-.58.8.8 0 0 0-.568-.226M44.687 10.341a.797.797 0 0 0-.788.806c.006.44.368.79.809.785a.797.797 0 0 0 .546-1.366.8.8 0 0 0-.567-.225"/>
        <path fill="#242424" d="M34.957 10.44c-.761.181-1.507.419-2.232.71 0 .425.031.848.094 1.267a13.93 13.93 0 0 0 2.336.505c.062.294.145.583.248.865.06.178.122.357.191.531h3.46a5.65 5.65 0 0 1-1.045-2.854 5.76 5.76 0 0 1 2.44-5.404 5.921 5.921 0 0 1 5.973-.463 5.785 5.785 0 0 1 3.263 4.963 5.652 5.652 0 0 1-1.05 3.758h3.631c.095-.217.178-.438.248-.664.784 0 1.567-.054 2.344-.161.081-.417.166-.838.215-1.26a15.298 15.298 0 0 0-2.145-1.038l-.024-.897-.117-.889c.69-.362 1.352-.771 1.984-1.225-.109-.415-.24-.823-.392-1.225a15.062 15.062 0 0 0-2.393.064c-.124-.272-.298-.522-.444-.784-.146-.262-.347-.49-.52-.735.443-.635.84-1.3 1.187-1.991a11.441 11.441 0 0 0-.917-.892c-.727.33-1.425.716-2.088 1.156-.248-.18-.496-.325-.762-.49-.265-.164-.538-.274-.806-.411.095-.766.135-1.537.12-2.308-.407-.145-.82-.269-1.24-.37a14.65 14.65 0 0 0-1.305 1.985c-.298-.054-.603-.054-.905-.084-.303-.029-.605 0-.908 0A15.607 15.607 0 0 0 42.406 0c-.417.063-.83.154-1.235.272a13.638 13.638 0 0 0-.225 2.354 6.281 6.281 0 0 0-.851.34 6.601 6.601 0 0 0-.801.424 15.457 15.457 0 0 0-1.86-1.408c-.354.24-.69.507-1.004.796.24.753.544 1.484.91 2.185-.21.216-.405.446-.583.688-.186.234-.357.48-.51.735-.76-.19-1.531-.322-2.31-.397-.2.377-.373.768-.518 1.169a13.816 13.816 0 0 0 1.833 1.519c-.086.287-.15.58-.194.877-.055.294-.089.592-.101.891M35.12 16.705h15.963v-.796H35.119z"/>
    </g>
</svg>
