<svg xmlns="http://www.w3.org/2000/svg" width="62" height="62" viewBox="0 0 62 62">
    <g fill="#FFF" fill-rule="nonzero" stroke="#595959">
        <g transform="translate(7 19)">
            <path d="M11.994 5.954L.83 36.081l31.287-10.316c-.136-.166-.28-.333-.229-.31-4.626-2.108-8.214-4.374-11.463-7.633-3.695-3.708-6.576-7.688-8.214-11.305a9.396 9.396 0 0 1-.217-.563z"/>
            <ellipse cx="22.983" cy="14.983" rx="14.732" ry="5.458" transform="rotate(45 22.983 14.983)"/>
        </g>
        <path d="M24.077 9.296c2.08.024 3.5.749 4.466 1.83.983 1.097 1.495 2.606 1.495 4.134 0 2.49-.722 4.522-1.564 6.272.133-.916.372-1.727.372-2.684 0-.753.04-2.114-.55-3.443-.589-1.33-2.067-2.537-4.22-2.537V9.296zM54.5 7.5l-.615 5.368c-1.516 0-2.618.753-3.102 1.542s-.475 1.598-.475 1.598v1.644c0 1.467-1.059 2.392-2.385 2.392h-2.385a1.2 1.2 0 0 0-.983 1.874l.1.126.05.054a5.06 5.06 0 0 1 .438.572c.233.356.395.802.395.963 0 1.145-.404 1.623-1.127 2.107-.722.484-3.281 1.188-3.919 1.331-.637.143-1.462.338-2.352.58-1.366.37-2.725.966-3.987 1.6 1.997-2.493 4.739-3.848 6.938-4.467.514-.144.87-.615.87-1.151V21.24c0-.996.255-1.907.767-2.523.511-.616 1.287-1.065 2.81-1.065h1.193c.634 0 1.156-.498 1.19-1.133 0 0 .043-.796.202-1.75.16-.953.517-2.065.753-2.38.954-1.926 2.83-3.556 5.624-4.889zM47.897 33.201c1.816 0 4.043.562 5.69 1.575 1.646 1.012 2.661 2.326 2.647 4.053 0 .092.005.207.007.353h-2.84c-.093-.681-.339-1.35-.8-1.788-.537-.511-1.199-.843-1.93-1.098-1.462-.509-3.255-.703-5.133-.703-3.068 0-5.167.316-6.988.615.273-.262 3.214-3.007 9.347-3.007zM37.788 4.708l-.488.49-3.472 3.484 3.96 3.973 3.961-3.973-3.96-3.974zM12.75 9.493l-.489.49-3.472 3.483 3.961 3.973 3.96-3.973-3.96-3.973zM54.48 23.145l-2.274 2.282 2.275 2.281 2.272-2.281-2.272-2.282zM7.98 24.34l-2.274 2.283 2.275 2.282 2.272-2.282-2.272-2.282zM46.135 47.767l-3.961 3.973 3.96 3.974 3.961-3.974-3.96-3.973z"/>
    </g>
</svg>
