<svg xmlns="http://www.w3.org/2000/svg" width="62" height="62" viewBox="0 0 62 62">
    <g fill="none" fill-rule="nonzero" stroke="#595959">
        <path d="M29 7c-7.227 0-12.555 2.492-16 6.398-3.445 3.91-5 9.16-5 14.602 0 4.406 1.363 8.508 3.676 11.867C13.77 42.914 15 46.52 15 50.2V55m24 0v-3.234h2c4.992 0 9-3.71 9-8.168V37.77l3.484-.696c1.364-.758 1.84-2.508 1.09-3.86L49.922 25.2c-.594-4.683-2.117-9.203-5.363-12.582C41.242 9.172 36.199 7 29 7"/>
        <g stroke-linecap="round" stroke-linejoin="round">
            <path d="M21.257 21.763L16.355 28.2l4.902 6.437M37.743 34.637l4.902-6.437-4.902-6.437M31.632 17.7L27.368 38"/>
        </g>
    </g>
</svg>
