<svg width="398" height="418" viewBox="0 0 398 418" fill="none" xmlns="http://www.w3.org/2000/svg">
<path fill-rule="evenodd" clip-rule="evenodd" d="M287.233 290.739C102.427 340.258 18.1216 61.2807 214.988 8.53052C394.785 -39.646 471.336 241.409 287.233 290.739ZM228.983 89.0251C188.248 99.9402 177.071 138.029 186.842 169.55L198.46 161.007C193.108 137.121 202.72 110.082 232.946 101.983C301.514 83.61 324.672 182.439 260.301 199.688C255.513 200.971 250.936 201.605 246.592 201.683C248.289 194.897 250.048 187.715 251.699 180.911C252.882 180.717 254.09 180.461 255.319 180.132C294.092 169.743 280.143 110.212 238.846 121.278C231.609 123.217 226.331 126.964 222.806 131.676L226.763 136.243L237.164 133.625L241.169 137.996L167.642 206.474C162.193 257.224 227.231 271.929 240.298 225.822C241.114 222.956 242.077 219.354 243.133 215.293C249.552 215.498 256.403 214.718 263.633 212.781C345.163 190.935 315.833 65.7539 228.983 89.0251ZM44.9181 231.476L1.92534 236.439L0 203.771L26.5314 208.498L28.5202 194.447L89.2857 212.978L46.1604 217.056L44.9181 231.476ZM100.044 346.749L163.487 293.345L139.509 343.555L154.16 356.262L124.466 417.605L82.7733 394.184L112.327 358.724L100.044 346.749ZM197.865 317.228L205.865 359.813L220.335 359.736L229.203 402.107L196.854 407.004L199.135 380.144L184.965 379.44L197.865 317.228Z" fill="#EC1C24"/>
<g clip-path="url(#clip0)">
<path d="M160.902 181.046L126.474 184.947L124.969 171.719L144.907 162.296L123.367 157.57L121.936 144.894L156.364 140.993L157.404 150.167L137.578 152.395L158.191 157.095L159.109 165.257L139.786 174.564L159.897 172.285L160.902 181.046Z" fill="black"/>
<path d="M160.462 128.998L157.328 137.45L129.569 112.673L132.664 104.356L169.87 103.766L166.602 112.552L159.94 112.571L155.457 124.618L160.462 128.998ZM149.495 119.449L152.037 112.599L141.727 112.65L149.495 119.449Z" fill="black"/>
<path d="M195.872 76.7731L187.992 84.7801L171.487 82.4116L171.633 86.9496L178.887 94.0608L172.417 100.645L147.704 76.3711L154.173 69.7867L163.259 78.7206L162.282 61.5194L170.511 53.1452L171.149 73.4471L195.872 76.7731Z" fill="black"/>
<path d="M200.249 75.0033L186.883 43.037L211.22 32.8589L214.336 40.3079L198.517 46.9096L200.509 51.6497L213.329 46.2991L216.178 53.123L203.34 58.5031L205.551 63.7816L221.363 57.1566L224.564 64.8315L200.249 75.0033Z" fill="black"/>
<path d="M250.245 62.8258L241.328 61.4837L259.845 29.2083L268.627 30.5119L276.885 66.8074L267.605 65.4131L266.185 58.9031L253.487 57.0068L250.245 62.8258ZM257.334 50.1052L264.562 51.1784L262.382 41.0909L257.334 50.1052Z" fill="black"/>
<path d="M292.484 75.2645L314.656 48.6513L325.61 57.7811C329.003 60.6033 331.027 63.4194 331.703 66.2233C332.38 69.0271 331.359 72.0868 328.611 75.3853C327.314 76.9517 325.946 78.0647 324.529 78.718C323.112 79.3713 321.642 79.6409 320.154 79.5668C318.66 79.4695 317.155 79.0519 315.604 78.2736C314.052 77.4954 312.543 76.5066 311.042 75.2671L307.17 72.0507L299.549 81.2074L292.484 75.2645ZM319.819 63.4623L316.586 60.7714L311.935 66.346L315.168 69.0368C316.487 70.1512 317.604 70.6978 318.525 70.6998C319.445 70.7018 320.329 70.1915 321.174 69.169C321.969 68.2347 322.268 67.3087 322.055 66.4206C321.871 65.5494 321.131 64.5535 319.819 63.4623Z" fill="black"/>
<path d="M317.885 99.4045L313.383 91.6058L350.166 86.0036L354.614 93.6925L331.374 122.731L326.686 114.609L330.9 109.45L324.488 98.3317L317.885 99.4045ZM332.248 97.0238L335.903 103.333L342.443 95.3369L332.248 97.0238Z" fill="black"/>
<path d="M332.952 135.964L331.789 126.798L366.169 122.437L367.909 136.175C368.5 140.793 368.24 144.37 367.141 146.953C366.042 149.536 363.852 151.019 360.583 151.447C358.373 151.74 356.59 151.397 355.216 150.447C353.842 149.497 352.754 148.221 351.962 146.567C351.725 148.372 351.065 149.718 349.955 150.588C348.851 151.481 347.38 152.024 345.507 152.277L341.343 152.796C340.185 152.932 339.199 153.246 338.409 153.731C337.619 154.217 337.005 154.804 336.568 155.493L335.463 155.64L334.274 146.282C334.578 145.653 335.082 145.12 335.786 144.683C336.512 144.239 337.626 143.941 339.115 143.741L343.28 143.222C344.146 143.114 344.835 142.805 345.351 142.319C345.868 141.832 346.088 141.077 345.949 140.094L345.235 134.365L332.952 135.964ZM357.029 142.175C358.187 142.039 359 141.547 359.476 140.723C359.952 139.899 360.059 138.627 359.843 136.893L359.299 132.636L352.564 133.495L353.157 138.212C353.356 139.701 353.771 140.784 354.44 141.426C355.127 142.038 355.994 142.303 357.029 142.175Z" fill="black"/>
<path d="M361.084 196.761L353.485 194.767L356.124 184.657L330.207 177.895L332.54 168.961L358.457 175.723L361.096 165.613L368.695 167.607L361.084 196.761Z" fill="black"/>
<path d="M352.939 213.795L345.647 223.162L321.145 219.08L338.396 232.493L333.016 239.432L305.649 218.158L312.826 208.921L337.371 212.792L320.185 199.437L325.565 192.498L352.939 213.795Z" fill="black"/>
<path d="M300.135 221.998L316.959 252.292L293.895 265.089L289.964 258.033L304.949 249.714L302.455 245.233L290.305 251.971L286.711 245.521L298.884 238.776L296.102 233.776L281.117 242.095L277.077 234.819L300.135 221.998Z" fill="black"/>
<path d="M262.074 237.968L271.221 236.736L275.821 271.076L262.085 272.916C257.473 273.529 253.878 273.298 251.302 272.223C248.725 271.147 247.219 268.963 246.768 265.701C246.474 263.491 246.794 261.714 247.715 260.323C248.636 258.932 249.935 257.837 251.559 257.029C249.76 256.815 248.414 256.155 247.521 255.051C246.629 253.947 246.062 252.482 245.809 250.61L245.244 246.457C245.084 245.306 244.771 244.32 244.285 243.53C243.8 242.74 243.212 242.126 242.5 241.695L242.353 240.59L251.693 239.331C252.315 239.612 252.848 240.116 253.292 240.843C253.735 241.57 254.057 242.678 254.257 244.167L254.822 248.319C254.93 249.185 255.239 249.874 255.749 250.384C256.259 250.894 256.985 251.098 257.974 250.982L263.69 250.221L262.074 237.968ZM256.021 262.077C256.18 263.229 256.672 264.042 257.496 264.518C258.32 264.994 259.592 265.101 261.343 264.856L265.594 264.289L264.688 257.566L259.984 258.205C258.495 258.405 257.418 258.842 256.777 259.512C256.135 260.181 255.87 261.048 256.021 262.077Z" fill="black"/>
</g>
<defs>
<clipPath id="clip0">
<rect x="158.01" y="302.644" width="246.82" height="247.709" transform="rotate(-105 158.01 302.644)" fill="white"/>
</clipPath>
</defs>
</svg>
