<svg width="208" height="207" viewBox="0 0 208 207" fill="none" xmlns="http://www.w3.org/2000/svg">
<path d="M69.9783 173.477C108.626 191.991 154.964 175.67 173.478 137.023C191.992 98.3755 175.671 52.037 137.024 33.5229C98.3767 15.0087 52.0382 31.3298 33.524 69.9771C15.0099 108.624 31.331 154.963 69.9783 173.477Z" fill="#FF0000"/>
<path d="M44.5522 148.143C46.6808 151.872 49.3342 154.922 52.6105 157.25C58.2623 161.128 66.5284 163.803 78.4279 158.852C93.6709 152.509 99.4129 138.582 93.6838 124.814C88.1183 111.44 74.2328 105.796 60.4648 111.525C57.4162 112.794 55.4573 114.186 54.1868 115.291C53.4245 115.955 52.8588 116.536 52.4325 117.175L51.9408 117.38L48.4227 106.153L76.942 94.2852L71.0083 80.0255L29.2127 97.4176L42.4665 140.358L58.2013 133.811C58.4065 132.918 58.7101 131.984 59.153 131.107C59.9813 129.493 61.6782 127.749 64.9235 126.399C70.4306 124.107 75.862 126.346 77.949 131.362C80.0361 136.377 77.7967 141.809 72.2895 144.1C68.3558 145.737 65.4392 145.105 63.3093 144.145C62.1542 143.587 61.114 142.751 60.287 141.596L44.5522 148.143ZM137.09 134.441C153.317 127.689 160.74 109.486 151.369 86.9655C141.998 64.4451 123.852 56.8821 107.626 63.6344C91.3995 70.3866 83.9758 88.5893 93.347 111.11C102.718 133.63 120.864 141.193 137.09 134.441ZM130.747 119.198C123.863 122.062 114.811 118.33 109.082 104.562C103.353 90.7942 107.085 81.742 113.969 78.8774C120.755 76.0538 129.905 79.7452 135.634 93.5131C141.363 107.281 137.533 116.374 130.747 119.198Z" fill="#F2F2F2"/>
<path d="M134.269 65.0674L140.067 62.6545L145.814 27.4226L140.016 29.8355L134.269 65.0674ZM121.4 44.8536C122.915 48.4927 127.105 50.2206 130.744 48.7062C134.383 47.1919 136.111 43.0012 134.597 39.3621C133.083 35.723 128.892 33.9952 125.253 35.5095C121.614 37.0238 119.886 41.2145 121.4 44.8536ZM128.997 44.5073C127.757 45.0231 126.382 44.4228 125.799 43.0231C125.217 41.6235 125.76 40.2243 127 39.7085C128.24 39.1926 129.616 39.793 130.198 41.1926C130.78 42.5923 130.237 43.9914 128.997 44.5073ZM145.486 53.1278C147 56.7669 151.191 58.4948 154.83 56.9805C158.469 55.4661 160.197 51.2755 158.683 47.6363C157.168 43.9972 152.978 42.2694 149.338 43.7837C145.699 45.298 143.972 49.4887 145.486 53.1278ZM153.083 52.7815C151.843 53.2974 150.467 52.697 149.885 51.2973C149.302 49.8977 149.846 48.4985 151.086 47.9827C152.325 47.4668 153.701 48.0672 154.284 49.4668C154.866 50.8665 154.322 52.2656 153.083 52.7815Z" fill="#F2F2F2"/>
</svg>
