<svg width="84" height="87" viewBox="0 0 84 87" fill="none" xmlns="http://www.w3.org/2000/svg">
<path fill-rule="evenodd" clip-rule="evenodd" d="M72.4832 25.3766C69.176 28.1917 68.403 38.0595 68.403 38.0595H66.0934C66.0934 38.0595 66.272 29.9677 62.2917 25.9523C58.3106 21.9352 51.1876 21.3456 51.1876 21.3456L51.4193 18.8802C51.4193 18.8802 59.6686 17.9081 62.3986 15.1537C66.1589 11.3603 65.9343 4.44476 65.9343 4.44476L68.2883 4.24768C68.2883 4.24768 68.7041 12.0613 71.9497 15.3017C75.1367 18.4837 83.5327 18.8545 83.5327 18.8545L83.6465 21.457C83.645 21.457 76.5524 21.9127 72.4832 25.3766ZM55.5065 49.3487L64.1458 47.2471L73.115 62.5597L54.5198 85.0175L46.2908 85.3719L58.8675 60.7229L66.7034 60.7813L61.9423 52.6507L51.1104 54.5872L41.6716 85.5706L39.0344 85.6843L36.26 45.2857L51.0418 38.6764L37.3372 29.0283L30.9279 42.818L35.9581 85.8183L27.4928 86.1836L20.9338 63.5373L13.0916 62.3205L9.19631 54.4524L6.33527 65.6467L23.1638 86.3698L18.6889 86.563L1.92983 66.8719L6.57005 47.6358L21.1584 50.3061L18.894 40.7468L37.2818 22.7298L58.0306 37.4301L55.5065 49.3487ZM26.2136 13.102C24.2628 14.7604 23.8073 20.5736 23.8073 20.5736H22.4446C22.4446 20.5736 22.4602 15.7613 20.1124 13.3956C17.7638 11.03 13.654 10.727 13.654 10.727L13.7905 9.27501C13.7905 9.27501 18.7466 8.74766 20.3573 7.12589C22.5749 4.89109 22.3526 0.773579 22.3526 0.773579L23.7402 0.656738C23.7402 0.656738 24.0397 5.20501 25.9538 7.11343C27.8328 8.98758 32.7312 9.26099 32.7312 9.26099L32.7983 10.794C32.7976 10.7932 28.6136 11.0619 26.2136 13.102ZM19.3878 24.5486L19.4549 26.0824C19.4549 26.0824 15.2717 26.3511 12.8717 28.3919C10.9209 30.0495 10.4646 35.862 10.4646 35.862H9.10193C9.10193 35.862 9.11675 31.0513 6.76895 28.6848C4.42037 26.3192 0.310547 26.0169 0.310547 26.0169L0.447048 24.565C0.447048 24.565 5.40395 24.0368 7.01387 22.4151C9.23219 20.1803 9.00911 16.062 9.00911 16.062L10.3967 15.9459C10.3967 15.9459 10.6167 20.5736 12.5308 22.4828C14.4098 24.3562 19.3878 24.5486 19.3878 24.5486Z" fill="white"/>
</svg>
