<svg width="243" height="110" viewBox="0 0 243 110" fill="none" xmlns="http://www.w3.org/2000/svg">
<path d="M126.687 41.6567C127.102 41.7715 127.516 41.8976 127.919 42.041L142.123 28.9762L142.696 25.6225L139.327 26.4136L126.687 41.6567Z" fill="white"/>
<path d="M125.798 41.4276L142.297 16.5304L142.04 12.0074L137.977 14.1457L124.759 41.2154C125.109 41.2785 125.454 41.3529 125.798 41.4276Z" fill="white"/>
<path d="M92.56 37.4264L94.5216 40.1665L109.456 44.6036C109.993 44.2255 110.548 43.8755 111.12 43.5488L95.882 36.6524L92.56 37.4264Z" fill="white"/>
<path d="M135.671 46.9422L156.543 45.3714L159.743 42.4478L155.819 40.556L133.85 45.3026C134.498 45.8128 135.099 46.3574 135.671 46.9422Z" fill="white"/>
<path d="M149.812 37.4267L146.49 36.6586L131.252 43.5548C131.824 43.8817 132.379 44.2314 132.916 44.6098L147.85 40.1727L149.812 37.4267Z" fill="white"/>
<path d="M130.271 43.0262L152.929 30.2826L154.634 26.241L150.179 26.2353L128.835 42.3842C129.319 42.5791 129.798 42.7913 130.271 43.0262Z" fill="white"/>
<path d="M123.818 41.0775L131.338 20.6233L130.334 17.2697L127.666 19.58L122.873 40.9741C123.188 41.0028 123.503 41.0372 123.818 41.0775Z" fill="white"/>
<path d="M106.701 46.9422C107.273 46.3574 107.88 45.8128 108.522 45.3026L86.5526 40.556L82.6294 42.4478L85.8288 45.3714L106.701 46.9422Z" fill="white"/>
<path d="M105.885 47.8193H78.9186V55.1913L103.69 50.869C104.327 49.7856 105.062 48.765 105.885 47.8193Z" fill="white"/>
<path d="M112.108 43.0262C112.575 42.7913 113.053 42.5791 113.544 42.3842L92.1991 26.2353L87.7447 26.241L89.4493 30.2826L112.108 43.0262Z" fill="white"/>
<path d="M136.488 47.8193C137.311 48.765 138.047 49.7856 138.683 50.8747L163.455 55.1973V47.825H136.488V47.8193Z" fill="white"/>
<path d="M114.454 42.0351C114.856 41.8919 115.271 41.7658 115.685 41.651L103.045 26.4136L99.6769 25.6225L100.249 28.9762L114.454 42.0351Z" fill="white"/>
<path d="M119.791 5.78745C119.803 5.02502 120.433 4.40588 121.215 4.40588C121.998 4.40588 122.628 5.02502 122.64 5.78745V8.9175H119.791V5.78745ZM118.016 22.6415L120.351 40.9232C120.631 40.9115 120.912 40.9002 121.192 40.9002C121.49 40.9002 121.782 40.9059 122.074 40.9232L124.409 22.6472L124.391 11.073H125.506V8.9175H124.391V3.84409H123.562V2.06121L121.221 0.765625L118.862 2.03828V3.84409H118.034V8.92324H116.924V11.0787H118.034L118.016 22.6415Z" fill="white"/>
<path d="M119.505 40.9741L114.712 19.58L112.043 17.2697L111.039 20.6233L118.559 41.0775C118.868 41.0372 119.184 41.0028 119.505 40.9741Z" fill="white"/>
<path d="M117.612 41.2213L104.394 14.1517L100.331 12.0134L100.074 16.5366L116.567 41.4335C116.917 41.3474 117.262 41.2787 117.612 41.2213Z" fill="white"/>
<path d="M195.722 109.159H198.408V108.391H196.639V106.608H198.029V105.851H196.639V104.71H198.256V103.942H195.722V109.159ZM187.946 106.551C187.946 108.018 189.166 109.233 190.818 109.233C191.472 109.233 192.126 109.033 192.564 108.654L192.412 107.783C191.992 108.213 191.484 108.448 190.865 108.448C189.598 108.448 188.892 107.6 188.892 106.556C188.892 105.507 189.645 104.664 190.795 104.664C191.472 104.664 191.927 104.791 192.389 105.186L192.535 104.389C192.097 104.045 191.466 103.873 190.818 103.873C189.184 103.868 187.946 105.077 187.946 106.551ZM183.993 109.159H184.758V103.942H183.97V107.364L182.102 103.942H181.337V109.159H182.125V105.725L183.993 109.159ZM177.431 109.159H178.324L176.806 103.942H176.088L174.576 109.159H175.393L175.639 108.247H177.18L177.431 109.159ZM176.993 107.542H175.831L176.398 105.398L176.993 107.542ZM171.044 109.159H172.054L170.717 106.602C171.283 106.407 171.686 105.914 171.686 105.318C171.686 104.556 171.003 103.942 170.145 103.942H168.312V109.159H169.182V106.7H169.818L171.044 109.159ZM170.133 104.739C170.484 104.739 170.758 105.008 170.758 105.335C170.758 105.668 170.484 105.931 170.127 105.931H169.188V104.739H170.133ZM164.873 106.763V106.006H163.484V104.716H165.101V103.948H162.567V109.165H163.484V106.763H164.873ZM153.576 109.159H154.557L153.127 106.402L154.44 103.942H153.535L152.665 105.61L151.813 103.942H150.826L152.145 106.465L150.709 109.153H151.62L152.613 107.261L153.576 109.159ZM144.287 107.462C144.287 108.586 145.081 109.233 146.068 109.233C147.055 109.233 147.872 108.586 147.872 107.462V103.942H146.955V107.468C146.955 108.087 146.558 108.437 146.068 108.437C145.595 108.437 145.192 108.087 145.192 107.468V103.942H144.282V107.462H144.287ZM138.531 109.159H141.216V108.391H139.447V106.608H140.837V105.851H139.447V104.71H141.065V103.942H138.531V109.159ZM134.362 109.159H135.127V103.942H134.339V107.364L132.471 103.942H131.706V109.159H132.494V105.725L134.362 109.159ZM127.555 109.159H128.32V103.942H127.531V107.364L125.663 103.942H124.899V109.159H125.687V105.725L127.555 109.159ZM120.759 106.551C120.759 107.594 119.942 108.442 118.903 108.442C117.863 108.442 117.052 107.594 117.052 106.551C117.052 105.502 117.863 104.659 118.903 104.659C119.942 104.659 120.759 105.502 120.759 106.551ZM116.1 106.551C116.1 108.035 117.35 109.233 118.903 109.233C120.461 109.233 121.705 108.035 121.705 106.551C121.705 105.06 120.461 103.868 118.903 103.868C117.356 103.868 116.1 105.06 116.1 106.551ZM113.14 104.728V103.948H109.719V104.728H110.98V109.165H111.891V104.728H113.14ZM104.126 109.159H106.812V108.391H105.043V106.608H106.432V105.851H105.043V104.71H106.66V103.942H104.126V109.159ZM100.185 109.159H101.195L99.8582 106.602C100.424 106.407 100.827 105.914 100.827 105.318C100.827 104.556 100.144 103.942 99.286 103.942H97.447V109.159H98.3227V106.7H98.959L100.185 109.159ZM99.2744 104.739C99.6246 104.739 99.8991 105.008 99.8991 105.335C99.8991 105.668 99.6246 105.931 99.2685 105.931H98.3286V104.739H99.2744ZM90.9491 109.159H92.6421C93.6229 109.159 94.4111 108.46 94.4111 107.542C94.4111 106.895 94.0025 106.379 93.3778 106.172C93.687 105.989 93.8624 105.673 93.8624 105.249C93.8624 104.51 93.1733 103.948 92.321 103.948H90.9491V109.159ZM92.6128 106.665C93.0974 106.665 93.4885 107.043 93.4885 107.514C93.4885 108.012 93.1033 108.379 92.6071 108.379H91.8248V106.665H92.6128ZM92.2976 104.728C92.6537 104.728 92.9398 105.003 92.9398 105.341C92.9398 105.691 92.6596 105.954 92.3676 105.954H91.8189V104.733H92.2976V104.728ZM84.7254 106.946H87.7847V106.201H84.7254V106.946ZM78.8579 108.821C79.2199 109.096 79.5995 109.239 80.1948 109.239C81.1056 109.239 81.8881 108.683 81.8881 107.668C81.8881 106.952 81.526 106.545 80.7554 106.126L80.2767 105.857C79.8912 105.639 79.7455 105.49 79.7455 105.221C79.7455 104.945 79.9672 104.607 80.5277 104.607C80.8548 104.607 81.1815 104.705 81.532 104.957L81.6077 104.189C81.2284 103.965 80.9014 103.868 80.4693 103.868C79.5119 103.868 78.8929 104.498 78.8929 105.329C78.8929 105.851 79.1733 106.252 79.7395 106.579L80.2883 106.883C80.802 107.181 80.9889 107.365 80.9889 107.731C80.9889 108.184 80.6212 108.494 80.1307 108.494C79.6286 108.494 79.325 108.322 78.9629 108.001L78.8579 108.821ZM75.2323 109.159H76.2425L74.9053 106.602C75.4718 106.407 75.8745 105.914 75.8745 105.318C75.8745 104.556 75.1914 103.942 74.3334 103.942H72.4941V109.159H73.3642V106.7H74.0005L75.2323 109.159ZM74.3216 104.739C74.672 104.739 74.9463 105.008 74.9463 105.335C74.9463 105.668 74.672 105.931 74.3159 105.931H73.3758V104.739H74.3216ZM66.6734 109.159H69.3591V108.391H67.5901V106.608H68.9796V105.851H67.5901V104.71H69.2072V103.942H66.6734V109.159ZM60.9462 109.159H63.48V108.379H61.8627V103.942H60.9462V109.159ZM55.2247 109.159H57.7584V108.379H56.1414V103.942H55.2247V109.159ZM50.916 109.159H51.8268V103.942H50.916V109.159ZM46.4498 109.159L47.9211 103.942H47.0628L46.0702 107.68L45.0603 103.942H44.1086L45.5856 109.159H46.4498Z" fill="white"/>
<path d="M237.845 95.1717H242.138V93.8474H239.398V86.3434H237.845V95.1717ZM233.058 95.1717H234.578L232.008 86.3434H230.787L228.23 95.1717H229.621L230.028 93.6355H232.633L233.058 95.1717ZM232.312 92.4373H230.344L231.307 88.8028L232.312 92.4373ZM223.449 95.1717H224.99V86.3434H223.449V95.1717ZM218.65 95.1717H220.36L218.101 90.8435C219.064 90.5168 219.747 89.6856 219.747 88.6766C219.747 87.3924 218.591 86.3434 217.144 86.3434H214.032V95.1717H215.509V91.0099H216.589L218.65 95.1717ZM217.108 87.6963C217.698 87.6963 218.159 88.1491 218.159 88.7053C218.159 89.2729 217.698 89.7143 217.091 89.7143H215.497V87.6963H217.108ZM208.859 90.7577C208.859 92.5231 207.475 93.9622 205.712 93.9622C203.949 93.9622 202.577 92.5231 202.577 90.7577C202.577 88.9803 203.949 87.5529 205.712 87.5529C207.475 87.5588 208.859 88.9803 208.859 90.7577ZM200.972 90.7577C200.972 93.2685 203.091 95.2979 205.712 95.2979C208.345 95.2979 210.453 93.2685 210.453 90.7577C210.453 88.2352 208.345 86.2172 205.712 86.2172C203.097 86.2172 200.972 88.2352 200.972 90.7577ZM194.012 92.8384H194.117L195.904 89.1811V95.1717H197.422V86.3434H196.009L194.17 90.104L192.337 86.3434H190.883V95.1717H192.232V89.1695L194.012 92.8384ZM187.397 95.1717V93.8761H184.402V90.8608H186.755V89.5766H184.402V87.6446H187.135V86.3434H182.844V95.1717H187.397ZM175.528 92.8384H175.633L177.42 89.1811V95.1717H178.932V86.3434H177.519L175.68 90.104L173.841 86.3434H172.393V95.1717H173.742V89.1695L175.528 92.8384ZM157.792 95.1717H162.083V93.8474H159.345V86.3434H157.792V95.1717ZM152.999 95.1717H154.517L151.948 86.3434H150.727L148.17 95.1717H149.56L149.968 93.6355H152.578L152.999 95.1717ZM152.257 92.4373H150.289L151.253 88.8028L152.257 92.4373ZM143.64 95.1717H144.936V86.3434H143.599V92.1334L140.44 86.3434H139.144V95.1717H140.481V89.3587L143.64 95.1717ZM133.977 90.7577C133.977 92.5231 132.594 93.9622 130.831 93.9622C129.067 93.9622 127.696 92.5231 127.696 90.7577C127.696 88.9803 129.067 87.5529 130.831 87.5529C132.594 87.5588 133.977 88.9803 133.977 90.7577ZM126.096 90.7577C126.096 93.2685 128.215 95.2979 130.836 95.2979C133.47 95.2979 135.577 93.2685 135.577 90.7577C135.577 88.2352 133.47 86.2172 130.836 86.2172C128.215 86.2172 126.096 88.2352 126.096 90.7577ZM120.993 95.1717H122.535V86.3434H120.993V95.1717ZM117.49 87.6676V86.3434H111.699V87.6676H113.83V95.1717H115.371V87.6676H117.49ZM107.326 95.1717H108.844L106.275 86.3434H105.055L102.498 95.1717H103.887L104.296 93.6355H106.905L107.326 95.1717ZM106.584 92.4373H104.617L105.58 88.8028L106.584 92.4373ZM97.9672 95.1717H99.2632V86.3434H97.9262V92.1334L94.7678 86.3434H93.4716V95.1717H94.8085V89.3587L97.9672 95.1717ZM81.4972 95.1717H82.7935V86.3434H81.4566V92.1334L78.2979 86.3434H77.0019V95.1717H78.3388V89.3587L81.4972 95.1717ZM72.238 95.1717H73.75L71.1812 86.3434H69.9609L67.4037 95.1717H68.7932L69.2021 93.6355H71.8059L72.238 95.1717ZM71.4964 92.4373H69.5289L70.4921 88.8028L71.4964 92.4373ZM62.6339 95.1717H64.1753V86.3434H62.6339V95.1717ZM54.8107 95.1717H59.1018V93.8474H56.3636V86.3434H54.8107V95.1717ZM50.0174 95.1717H51.5297L48.9606 86.3434H47.7406L45.1834 95.1717H46.5669L46.9815 93.6355H49.5853L50.0174 95.1717ZM49.2761 92.4373H47.3085L48.2718 88.8028L49.2761 92.4373ZM41.0383 95.1717H42.7488L40.4895 90.8435C41.4528 90.5168 42.1357 89.6856 42.1357 88.6766C42.1357 87.3924 40.9798 86.3434 39.526 86.3434H36.4201V95.1717H37.8973V91.0099H38.9773L41.0383 95.1717ZM39.5028 87.6963C40.0925 87.6963 40.5536 88.1491 40.5536 88.7053C40.5536 89.2729 40.0925 89.7143 39.4853 89.7143H37.8914V87.6963H39.5028ZM32.9114 87.6676V86.3434H27.1199V87.6676H29.2509V95.1717H30.792V87.6676H32.9114ZM19.0512 94.5928C19.6702 95.0629 20.3124 95.2979 21.3108 95.2979C22.8521 95.2979 24.1715 94.3519 24.1715 92.6379C24.1715 91.4284 23.5584 90.7347 22.2565 90.0237L21.4449 89.5709C20.7911 89.2041 20.546 88.9519 20.546 88.4988C20.546 88.0287 20.9196 87.4671 21.8713 87.4671C22.42 87.4671 22.9747 87.6276 23.5644 88.0574L23.6928 86.7618C23.0506 86.3834 22.496 86.2172 21.766 86.2172C20.1489 86.2172 19.0981 87.2893 19.0981 88.688C19.0981 89.5709 19.5709 90.2532 20.5341 90.8091L21.4624 91.3252C22.3325 91.8295 22.6417 92.1448 22.6417 92.764C22.6417 93.5321 22.0289 94.0482 21.1938 94.0482C20.3475 94.0482 19.8338 93.7557 19.2147 93.2168L19.0512 94.5928ZM9.71599 92.2996C9.71599 94.2028 11.0645 95.3035 12.7343 95.3035C14.404 95.3035 15.7937 94.2087 15.7937 92.2996V86.349H14.2407V92.3169C14.2407 93.3659 13.5691 93.9565 12.7403 93.9565C11.9402 93.9565 11.263 93.3659 11.263 92.3169V86.349H9.72191V92.2996H9.71599ZM5.06279 95.1717H6.57506L4.00602 86.3434H2.78601L0.228821 95.1717H1.61827L2.02691 93.6355H4.63071L5.06279 95.1717ZM4.32146 92.4373H2.35393L3.31722 88.8028L4.32146 92.4373Z" fill="white"/>
<path d="M218.574 77.7441V76.4485H215.579V73.4332H217.932V72.1489H215.579V70.217H218.312V68.9214H214.021V77.7441H218.574ZM209.192 77.7441H210.903L208.644 73.4158C209.607 73.0891 210.29 72.2577 210.29 71.249C210.29 69.9648 209.134 68.9157 207.686 68.9157H204.574V77.7441H206.051V73.582H207.132L209.192 77.7441ZM207.651 70.2687C208.241 70.2687 208.702 70.7215 208.702 71.2777C208.702 71.845 208.241 72.2864 207.633 72.2864H206.04V70.2687H207.651ZM201.065 70.24V68.9157H195.274V70.24H197.405V77.7441H198.946V70.24H201.065ZM190.481 77.7441H191.777V68.9157H190.44V74.7057L187.281 68.9157H185.985V77.7441H187.322V71.931L190.481 77.7441ZM177.958 77.7441H182.506V76.4485H179.51V73.4332H181.858V72.1489H179.51V70.217H182.249V68.9214H177.958V77.7441ZM166.631 73.3298C166.631 75.8122 168.698 77.8702 171.501 77.8702C172.604 77.8702 173.707 77.5319 174.455 76.8842L174.198 75.4108C173.491 76.1445 172.633 76.5346 171.576 76.5346C169.434 76.5346 168.237 75.0955 168.237 73.3298C168.237 71.5527 169.51 70.1253 171.46 70.1253C172.604 70.1253 173.375 70.3374 174.157 71.0081L174.402 69.6608C173.655 69.0819 172.592 68.7896 171.501 68.7896C168.721 68.7896 166.631 70.8363 166.631 73.3298ZM154.75 77.7441H156.303V68.9157H154.75V72.1316H152.001V68.9157H150.459V77.7441H152.001V73.4445H154.75V77.7441ZM141.994 77.1649C142.613 77.6293 143.255 77.8702 144.253 77.8702C145.795 77.8702 147.12 76.9243 147.12 75.2103C147.12 74.0007 146.501 73.307 145.205 72.6017L144.393 72.1489C143.739 71.7819 143.494 71.5297 143.494 71.0769C143.494 70.6124 143.868 70.0451 144.814 70.0451C145.368 70.0451 145.917 70.2113 146.507 70.6411L146.635 69.3398C145.993 68.9615 145.438 68.801 144.709 68.801C143.092 68.801 142.035 69.873 142.035 71.2717C142.035 72.1546 142.508 72.8369 143.471 73.3928L144.399 73.909C145.275 74.4135 145.578 74.7288 145.578 75.3477C145.578 76.1159 144.96 76.632 144.125 76.632C143.278 76.632 142.765 76.3454 142.146 75.8006L141.994 77.1649ZM137.732 77.7441H139.244L136.675 68.9157H135.455L132.898 77.7441H134.282L134.696 76.2076H137.3L137.732 77.7441ZM136.985 75.0094H135.017L135.981 71.3751L136.985 75.0094ZM128.367 77.7441H129.663V68.9157H128.327V74.7057L125.168 68.9157H123.872V77.7441H125.209V71.931L128.367 77.7441ZM118.711 73.3298C118.711 75.0955 117.327 76.5346 115.564 76.5346C113.807 76.5346 112.429 75.0955 112.429 73.3298C112.429 71.5527 113.801 70.1253 115.564 70.1253C117.321 70.1253 118.711 71.5527 118.711 73.3298ZM110.824 73.3298C110.824 75.8409 112.943 77.8702 115.564 77.8702C118.197 77.8702 120.305 75.8409 120.305 73.3298C120.305 70.8076 118.197 68.7896 115.564 68.7896C112.943 68.7896 110.824 70.8076 110.824 73.3298ZM103.858 75.4108H103.964L105.75 71.7535V77.7441H107.262V68.9157H105.849L104.01 72.6707L102.171 68.9157H100.723V77.7441H102.072V71.7419L103.858 75.4108ZM88.7549 77.7441H90.0509V68.9157H88.7139V74.7057L85.5555 68.9157H84.2593V77.7441H85.5964V71.931L88.7549 77.7441ZM78.8297 77.7441H80.3827V68.9157H78.8297V72.1316H76.0799V68.9157H74.5385V77.7441H76.0799V73.4445H78.8297V77.7441ZM69.3776 73.3298C69.3776 75.0955 67.994 76.5346 66.2307 76.5346C64.4736 76.5346 63.0957 75.0955 63.0957 73.3298C63.0957 71.5527 64.4676 70.1253 66.2307 70.1253C67.9881 70.1253 69.3776 71.5527 69.3776 73.3298ZM61.4902 73.3298C61.4902 75.8409 63.6094 77.8702 66.2307 77.8702C68.8639 77.8702 70.9715 75.8409 70.9715 73.3298C70.9715 70.8076 68.8639 68.7896 66.2307 68.7896C63.6094 68.7896 61.4902 70.8076 61.4902 73.3298ZM53.5501 77.1649C53.9706 77.595 54.7704 77.8702 55.6052 77.8702C56.9539 77.8702 58.0163 77.0217 58.0163 75.3364V68.9157H56.475V75.3248C56.475 76.1962 56.0256 76.5346 55.3716 76.5346C54.7294 76.5346 54.2157 76.2477 53.7952 75.7892L53.5501 77.1649ZM42.5334 77.7441H44.238L41.9787 73.4158C42.942 73.0891 43.6252 72.2577 43.6252 71.249C43.6252 69.9648 42.469 68.9157 41.0155 68.9157H37.9036V77.7441H39.3806V73.582H40.4608L42.5334 77.7441ZM40.9861 70.2687C41.5758 70.2687 42.0369 70.7215 42.0369 71.2777C42.0369 71.845 41.5758 72.2864 40.9686 72.2864H39.3747V70.2687H40.9861ZM32.4741 77.7441H34.0152V68.9157H32.4741V77.7441ZM24.0086 77.1649C24.6274 77.6293 25.2637 77.8702 26.2679 77.8702C27.8093 77.8702 29.1346 76.9243 29.1346 75.2103C29.1346 74.0007 28.5215 73.307 27.2196 72.6017L26.408 72.1489C25.7542 71.7819 25.5091 71.5297 25.5091 71.0769C25.5091 70.6124 25.8827 70.0451 26.8341 70.0451C27.3831 70.0451 27.9378 70.2113 28.5274 70.6411L28.6557 69.3398C28.0135 68.9615 27.4588 68.801 26.7291 68.801C25.112 68.801 24.0612 69.873 24.0612 71.2717C24.0612 72.1546 24.5339 72.8369 25.4972 73.3928L26.4198 73.909C27.2956 74.4135 27.5992 74.7288 27.5992 75.3477C27.5992 76.1159 26.9861 76.632 26.1513 76.632C25.3046 76.632 24.7909 76.3454 24.1719 75.8006L24.0086 77.1649Z" fill="white"/>
</svg>
