<svg xmlns="http://www.w3.org/2000/svg" fill="none" viewBox="0 0 243 110">
  <defs/>
  <path fill="#fff" d="M126.7 41.7l1.2.3 14.2-13 .6-3.4-3.4.8-12.6 15.3zM125.8 41.4l16.5-24.9-.3-4.5-4 2.1-13.2 27.1 1 .2zM92.6 37.4l2 2.8 14.9 4.4 1.6-1-15.2-7-3.3.8zM135.7 47l20.8-1.6 3.2-3-3.9-1.8-22 4.7 1.9 1.6zM149.8 37.4l-3.3-.7-15.2 6.9 1.6 1 15-4.4 2-2.8zM130.3 43l22.6-12.7 1.7-4h-4.4l-21.4 16 1.5.7zM123.8 41l7.5-20.4-1-3.3-2.6 2.3-4.8 21.4h1zM106.7 47l1.8-1.7-22-4.7-3.9 1.8 3.2 3 20.9 1.5zM105.9 47.8h-27v7.4l24.8-4.3c.6-1.1 1.4-2.1 2.2-3zM112.1 43l1.4-.6-21.3-16.2h-4.5l1.7 4L112.1 43zM136.5 47.8l2.2 3 24.8 4.4v-7.4h-27zM114.5 42l1.2-.3L103 26.4l-3.3-.8.5 3.4 14.3 13zM119.8 5.8c0-.8.6-1.4 1.4-1.4.8 0 1.4.6 1.4 1.4v3.1h-2.8V5.8zM118 22.6l2.4 18.3a20.2 20.2 0 011.7 0l2.3-18.3V11.1h1.1V8.9h-1.1V4h-.8V2L121.2.8 119 2v1.8h-.9V9h-1v2.2h1v11.5zM119.5 41l-4.8-21.4-2.7-2.3-1 3.3 7.6 20.5 1-.1zM117.6 41.2l-13.2-27-4-2.2-.3 4.5 16.5 25c.3-.2.7-.2 1-.3zM195.7 109.2h2.7v-.8h-1.8v-1.8h1.4v-.7h-1.4v-1.2h1.7v-.8h-2.6v5.3zm-7.8-2.6c0 1.4 1.3 2.6 3 2.6.6 0 1.2-.2 1.7-.5l-.2-1a2 2 0 01-1.5.7c-1.3 0-2-.8-2-1.8s.7-2 1.9-2c.7 0 1.1.2 1.6.6l.1-.8c-.4-.4-1-.5-1.7-.5-1.6 0-2.9 1.2-2.9 2.7zm-4 2.6h.9v-5.3h-.8v3.5l-1.9-3.5h-.8v5.3h.8v-3.5l1.9 3.5zm-6.5 0h1l-1.6-5.3h-.7l-1.5 5.3h.8l.2-1h1.6l.2 1zm-.4-1.7h-1.2l.6-2.1.6 2.1zm-6 1.7h1l-1.3-2.6c.6-.2 1-.7 1-1.3 0-.7-.7-1.4-1.6-1.4h-1.8v5.3h.9v-2.5h.6l1.2 2.5zm-.9-4.5c.4 0 .7.3.7.6 0 .4-.3.6-.7.6h-1v-1.2h1zm-5.2 2v-.7h-1.4v-1.3h1.6v-.8h-2.5v5.3h.9v-2.4h1.4zm-11.3 2.5h1l-1.5-2.8 1.3-2.5h-.9l-.8 1.7-.9-1.7h-1l1.3 2.6-1.4 2.7h1l1-2 .9 2zm-9.3-1.7c0 1 .8 1.7 1.8 1.7s1.8-.6 1.8-1.7v-3.6h-1v3.6c0 .6-.3 1-.8 1s-1-.4-1-1v-3.6h-.8v3.6zm-5.8 1.7h2.7v-.8h-1.8v-1.8h1.4v-.7h-1.4v-1.2h1.7v-.8h-2.6v5.3zm-4.1 0h.7v-5.3h-.8v3.5l-1.8-3.5h-.8v5.3h.8v-3.5l1.9 3.5zm-6.8 0h.7v-5.3h-.8v3.5l-1.8-3.5h-.8v5.3h.8v-3.5l1.9 3.5zm-6.8-2.6c0 1-.9 1.8-1.9 1.8-1 0-1.8-.8-1.8-1.8 0-1.1.8-2 1.8-2s1.9.9 1.9 2zm-4.7 0c0 1.4 1.3 2.6 2.8 2.6 1.6 0 2.8-1.2 2.8-2.6 0-1.5-1.2-2.7-2.8-2.7a2.7 2.7 0 00-2.8 2.7zm-3-1.9v-.8h-3.4v.8h1.3v4.5h.9v-4.5h1.2zm-9 4.5h2.7v-.8H105v-1.8h1.4v-.7H105v-1.2h1.7v-.8H104v5.3zm-4 0h1l-1.2-2.6c.5-.2 1-.7 1-1.3 0-.7-.8-1.4-1.6-1.4h-1.9v5.3h1v-2.5h.6l1.2 2.5zm-.8-4.5c.3 0 .6.3.6.6 0 .4-.3.6-.6.6h-1v-1.2h1zm-8.4 4.5h1.7c1 0 1.8-.7 1.8-1.7 0-.6-.4-1.1-1-1.3.3-.2.5-.5.5-1 0-.7-.7-1.3-1.6-1.3H91v5.3zm1.7-2.5c.5 0 .9.3.9.8s-.4.9-.9.9h-.8v-1.7h.8zm-.3-2c.4 0 .6.3.6.6 0 .4-.2.7-.5.7h-.6v-1.3h.5zm-7.6 2.2h3v-.7h-3v.7zm-5.8 2c.3.2.7.3 1.3.3 1 0 1.7-.5 1.7-1.5 0-.7-.4-1.2-1.1-1.6l-.5-.2c-.4-.3-.6-.4-.6-.7 0-.3.3-.6.8-.6.4 0 .7.1 1 .4l.1-.8a2 2 0 00-1.1-.3c-1 0-1.6.6-1.6 1.4 0 .6.3 1 .8 1.3l.6.3c.5.3.7.5.7.8 0 .5-.4.8-.9.8s-.8-.2-1.1-.5l-.1.8zm-3.7.3h1l-1.3-2.6c.6-.2 1-.7 1-1.3 0-.7-.7-1.4-1.6-1.4h-1.8v5.3h.9v-2.5h.6l1.2 2.5zm-.9-4.5c.4 0 .6.3.6.6 0 .4-.2.6-.6.6h-1v-1.2h1zm-7.6 4.5h2.7v-.8h-1.8v-1.8H69v-.7h-1.4v-1.2h1.6v-.8h-2.5v5.3zm-5.8 0h2.6v-.8h-1.6v-4.5h-1v5.3zm-5.7 0h2.6v-.8H56v-4.5h-.9v5.3zm-4.3 0h1v-5.3h-1v5.3zm-4.5 0l1.5-5.3h-.8l-1 3.8-1-3.8h-1l1.5 5.3h.8zM237.8 95.2h4.3v-1.4h-2.7v-7.5h-1.6v8.9zm-4.7 0h1.5l-2.6-8.9h-1.2l-2.6 8.9h1.4l.4-1.6h2.6l.5 1.6zm-.8-2.8h-2l1-3.6 1 3.6zm-8.9 2.8h1.6v-8.9h-1.6v8.9zm-4.8 0h1.8l-2.3-4.4c1-.3 1.6-1.1 1.6-2.1 0-1.3-1.1-2.4-2.6-2.4h-3v8.9h1.4V91h1l2.2 4.2zm-1.5-7.5c.6 0 1 .4 1 1s-.4 1-1 1h-1.6v-2h1.6zm-8.2 3c0 1.8-1.4 3.3-3.2 3.3a3.2 3.2 0 01-3.1-3.2c0-1.8 1.3-3.2 3.1-3.2s3.2 1.4 3.2 3.2zm-8 0c0 2.6 2.2 4.6 4.8 4.6 2.6 0 4.8-2 4.8-4.5 0-2.6-2.2-4.6-4.8-4.6-2.6 0-4.7 2-4.7 4.6zm-6.9 2.1h.1l1.8-3.6v6h1.5v-8.9H196l-1.8 3.8-1.9-3.8H191v8.9h1.3v-6l1.8 3.6zm-6.6 2.4v-1.3h-3v-3h2.4v-1.3h-2.4v-2h2.7v-1.3h-4.3v8.9h4.6zm-11.9-2.4h.1l1.8-3.6v6h1.5v-8.9h-1.4l-1.8 3.8-1.9-3.8h-1.4v8.9h1.3v-6l1.8 3.6zm-17.7 2.4h4.3v-1.4h-2.8v-7.5h-1.5v8.9zm-4.8 0h1.5l-2.6-8.9h-1.2l-2.5 8.9h1.4l.4-1.6h2.6l.4 1.6zm-.7-2.8h-2l1-3.6 1 3.6zm-8.7 2.8h1.3v-8.9h-1.3v5.8l-3.2-5.8h-1.3v8.9h1.4v-5.8l3.1 5.8zm-9.6-4.4c0 1.7-1.4 3.2-3.2 3.2a3.2 3.2 0 01-3.1-3.2c0-1.8 1.4-3.2 3.1-3.2 1.8 0 3.2 1.4 3.2 3.2zm-7.9 0c0 2.5 2.1 4.5 4.7 4.5 2.7 0 4.8-2 4.8-4.5 0-2.6-2.1-4.6-4.8-4.6-2.6 0-4.7 2-4.7 4.6zm-5.1 4.4h1.5v-8.9H121v8.9zm-3.5-7.5v-1.4h-5.8v1.4h2.1v7.5h1.6v-7.5h2zm-10.2 7.5h1.5l-2.5-8.9H105l-2.6 8.9h1.4l.4-1.6h2.6l.4 1.6zm-.7-2.8h-2l1-3.6 1 3.6zM98 95.2h1.3v-8.9h-1.4v5.8l-3.1-5.8h-1.3v8.9h1.3v-5.8l3.2 5.8zm-16.5 0h1.3v-8.9h-1.3v5.8l-3.2-5.8H77v8.9h1.3v-5.8l3.2 5.8zm-9.3 0h1.5l-2.5-8.9H70l-2.6 8.9h1.4l.4-1.6h2.6l.4 1.6zm-.7-2.8h-2l1-3.6 1 3.6zm-8.9 2.8h1.6v-8.9h-1.6v8.9zm-7.8 0h4.3v-1.4h-2.7v-7.5h-1.6v8.9zm-4.8 0h1.5L49 86.3h-1.3l-2.5 8.9h1.4l.4-1.6h2.6l.4 1.6zm-.7-2.8h-2l1-3.6 1 3.6zM41 95.2h1.7l-2.2-4.4c1-.3 1.6-1.1 1.6-2.1 0-1.3-1.1-2.4-2.6-2.4h-3v8.9h1.4V91h1l2.1 4.2zm-1.5-7.5c.6 0 1 .4 1 1s-.4 1-1 1h-1.6v-2h1.6zm-6.6 0v-1.4h-5.8v1.4h2.2v7.5h1.5v-7.5h2.1zm-13.8 6.9c.6.5 1.2.7 2.2.7 1.6 0 2.9-1 2.9-2.7 0-1.2-.6-1.9-2-2.6l-.8-.4c-.6-.4-.9-.6-.9-1.1 0-.5.4-1 1.4-1 .5 0 1 .1 1.7.6v-1.3c-.5-.4-1.1-.6-1.8-.6-1.7 0-2.7 1-2.7 2.5 0 .9.5 1.6 1.4 2.1l1 .5c.8.5 1.1.8 1.1 1.5S22 94 21.2 94c-.9 0-1.4-.2-2-.8l-.1 1.4zm-9.4-2.3c0 1.9 1.4 3 3 3 1.7 0 3-1 3-3v-6h-1.5v6c0 1-.6 1.7-1.5 1.7-.8 0-1.4-.6-1.4-1.7v-6H9.7v6zm-4.6 2.9h1.5L4 86.3H2.8L.2 95.2h1.4l.4-1.6h2.6l.5 1.6zm-.8-2.8h-2l1-3.6 1 3.6zM218.6 77.7v-1.3h-3v-3h2.3v-1.3h-2.3v-1.9h2.7V69H214v8.8h4.6zm-9.4 0h1.7l-2.3-4.3c1-.3 1.7-1.1 1.7-2.2 0-1.2-1.2-2.3-2.6-2.3h-3.1v8.8h1.5v-4.1h1l2 4.1zm-1.5-7.4c.5 0 1 .4 1 1 0 .5-.5 1-1 1H206v-2h1.7zm-6.6 0v-1.4h-5.8v1.3h2.1v7.5h1.5v-7.5h2.2zm-10.6 7.4h1.3V69h-1.4v5.8l-3.1-5.8H186v8.8h1.3V72l3.2 5.8zm-12.5 0h4.5v-1.3h-3v-3h2.4v-1.3h-2.4v-1.9h2.7V69H178v8.8zm-11.4-4.4c0 2.5 2.1 4.6 4.9 4.6 1.1 0 2.2-.4 3-1l-.3-1.5c-.7.7-1.6 1.1-2.6 1.1-2.2 0-3.4-1.4-3.4-3.2 0-1.7 1.3-3.2 3.3-3.2 1.1 0 1.9.2 2.7 1l.2-1.4c-.7-.6-1.8-1-2.9-1-2.8 0-4.9 2.1-4.9 4.6zm-11.8 4.4h1.5V69h-1.6v3.2H152V69h-1.5v8.8h1.5v-4.3h2.8v4.3zm-12.8-.5c.6.4 1.3.7 2.3.7 1.5 0 2.8-1 2.8-2.7 0-1.2-.6-1.9-1.9-2.6l-.8-.5c-.7-.3-1-.6-1-1 0-.5.5-1 1.4-1 .6 0 1.1.1 1.7.5l.1-1.3c-.6-.3-1.2-.5-1.9-.5-1.6 0-2.7 1-2.7 2.5 0 .9.5 1.5 1.5 2l.9.6c.9.5 1.2.8 1.2 1.4 0 .8-.6 1.3-1.5 1.3-.8 0-1.3-.3-2-.8l-.1 1.4zm-4.3.5h1.5l-2.5-8.8h-1.2l-2.6 8.8h1.4l.4-1.5h2.6l.4 1.5zM137 75h-2l1-3.6 1 3.6zm-8.6 2.7h1.3V69h-1.4v5.8l-3.1-5.8h-1.3v8.8h1.3V72l3.2 5.8zm-9.7-4.4c0 1.8-1.4 3.2-3.1 3.2a3.2 3.2 0 01-3.2-3.2c0-1.7 1.4-3.2 3.2-3.2 1.7 0 3.1 1.5 3.1 3.2zm-7.9 0c0 2.5 2.1 4.6 4.8 4.6 2.6 0 4.7-2 4.7-4.6 0-2.5-2.1-4.5-4.7-4.5-2.7 0-4.8 2-4.8 4.5zm-7 2.1h.2l1.8-3.6v6h1.5v-8.9h-1.5l-1.8 3.8-1.8-3.8h-1.5v8.8h1.4v-6l1.8 3.7zm-15 2.3H90V69h-1.4v5.8L85.6 69h-1.3v8.8h1.3V72l3.2 5.8zm-10 0h1.6V69h-1.6v3.2h-2.7V69h-1.6v8.8h1.6v-4.3h2.7v4.3zm-9.4-4.4c0 1.8-1.4 3.2-3.2 3.2a3.2 3.2 0 01-3.1-3.2c0-1.7 1.4-3.2 3.1-3.2 1.8 0 3.2 1.5 3.2 3.2zm-8 0c0 2.5 2.2 4.6 4.8 4.6 2.7 0 4.8-2 4.8-4.6 0-2.5-2.1-4.5-4.8-4.5-2.6 0-4.7 2-4.7 4.5zm-7.8 3.9a3 3 0 002 .7c1.4 0 2.4-.9 2.4-2.6V69h-1.5v6.4c0 .9-.5 1.2-1.1 1.2a2 2 0 01-1.6-.7l-.2 1.4zm-11 .5h1.6L42 73.4c1-.3 1.6-1.1 1.6-2.2 0-1.2-1.1-2.3-2.6-2.3H38v8.8h1.5v-4.1h1l2.1 4.1zM41 70.3c.6 0 1 .4 1 1 0 .5-.4 1-1 1h-1.6v-2H41zm-8.5 7.4H34V69h-1.5v8.8zm-8.5-.5c.6.4 1.3.7 2.3.7 1.5 0 2.8-1 2.8-2.7 0-1.2-.6-1.9-1.9-2.6l-.8-.5c-.6-.3-.9-.6-.9-1 0-.5.4-1 1.3-1 .6 0 1.1.1 1.7.5l.2-1.3c-.7-.3-1.2-.5-2-.5-1.6 0-2.6 1-2.6 2.5 0 .9.4 1.5 1.4 2l1 .6c.8.5 1.1.8 1.1 1.4 0 .8-.6 1.3-1.4 1.3-.9 0-1.4-.3-2-.8l-.2 1.4z"/>
</svg>
