<svg width="18" height="12" viewBox="0 0 18 12" fill="none" xmlns="http://www.w3.org/2000/svg">
<path d="M11.8781 1.47283H16.0575V2.46751H11.8781V1.47283ZM12.2866 7.7997C12.2728 8.32983 12.4585 8.84581 12.807 9.24553C13.18 9.56436 13.664 9.72334 14.1543 9.68781C14.5362 9.69225 14.9136 9.59012 15.2404 9.39296C15.4864 9.24287 15.6836 9.02528 15.807 8.76685H17.665C17.4169 9.51549 16.9306 10.1624 16.2804 10.6088C15.63 11.0071 14.8795 11.2117 14.117 11.1985C13.5675 11.2008 13.0224 11.1009 12.5095 10.9036C12.0602 10.7213 11.6549 10.4455 11.3203 10.0946C10.9857 9.74366 10.7296 9.32557 10.569 8.86809C10.383 8.35805 10.2947 7.81754 10.3088 7.27483C10.2977 6.74448 10.3859 6.21674 10.569 5.71887C10.7466 5.2535 11.0122 4.82543 11.3488 4.45687C11.6926 4.11209 12.0997 3.83679 12.5477 3.64603C13.0473 3.44876 13.5799 3.34869 14.117 3.35118C14.6993 3.33248 15.2771 3.45915 15.7982 3.71974C16.265 3.94873 16.6649 4.29441 16.9589 4.7233C17.2795 5.15936 17.5184 5.6496 17.665 6.17003C17.7226 6.71172 17.7226 7.258 17.665 7.7997H12.2875H12.2866ZM13.188 5.12917C12.9926 5.23396 12.8168 5.37073 12.6676 5.53414C12.5317 5.67624 12.4411 5.85652 12.4083 6.04924C12.368 6.20633 12.3431 6.36693 12.3337 6.52882H15.696C15.663 6.08501 15.4794 5.6658 15.1756 5.34053C14.8528 5.05954 14.4322 4.9172 14.0051 4.94444C13.7219 4.94037 13.4419 5.00369 13.188 5.12917ZM9.30612 9.35655C9.11606 9.72689 8.83542 10.0439 8.48906 10.2775C8.12135 10.5157 7.71597 10.6898 7.29012 10.7926C6.8505 10.9081 6.39846 10.9702 5.94375 10.9773H0.947266V0.764127H5.83185C6.28567 0.75347 6.7386 0.802315 7.1791 0.910664C7.55189 0.976591 7.90837 1.11412 8.22884 1.31564C8.52547 1.50037 8.75904 1.77035 8.89759 2.09007C9.03258 2.45774 9.09297 2.8494 9.07343 3.24105C9.10007 3.70287 8.96952 4.16024 8.7022 4.53946C8.43044 4.90536 8.06898 5.19666 7.65246 5.38672C8.22085 5.51993 8.72263 5.84587 9.07343 6.30768C9.39404 6.7917 9.56189 7.3592 9.55656 7.93824C9.59258 8.42449 9.50649 8.91204 9.30612 9.35655ZM5.63735 6.42758H3.17641V9.27307H5.59117C5.80343 9.26951 6.0148 9.24465 6.22172 9.20024C6.40669 9.16566 6.58208 9.09179 6.73606 8.98362C6.89003 8.87546 7.01901 8.73551 7.11427 8.57324C7.20663 8.36453 7.25637 8.13807 7.26258 7.91071C7.27974 7.69754 7.24856 7.48325 7.17137 7.2838C7.09417 7.08436 6.97296 6.90491 6.81676 6.75884C6.46851 6.52655 6.05562 6.41058 5.63735 6.42758ZM6.52013 4.61318C6.78656 4.38404 6.92599 4.04124 6.89136 3.69221C6.89717 3.48986 6.85899 3.28866 6.77945 3.10251C6.69905 2.95508 6.58455 2.82902 6.44553 2.73483C6.29384 2.65114 6.13123 2.58897 5.9624 2.55011C5.76453 2.53073 5.56524 2.53073 5.36737 2.55011H3.17641V4.95421H5.48904C5.86115 4.9551 6.22261 4.8352 6.51924 4.61318H6.52013Z" fill="#96969C"/>
</svg>
