<svg width="16" height="16" viewBox="0 0 16 16" fill="none" xmlns="http://www.w3.org/2000/svg">
<path fill-rule="evenodd" clip-rule="evenodd" d="M8 0.5C5.963 0.5 5.708 0.509 4.90775 0.545C4.10975 0.581 3.5645 0.7085 3.0875 0.89375C2.58659 1.08169 2.13295 1.37712 1.7585 1.75925C1.37737 2.13378 1.08229 2.58676 0.89375 3.08675C0.7085 3.5645 0.58175 4.109 0.545 4.90775C0.509 5.70725 0.5 5.963 0.5 8C0.5 10.037 0.509 10.2927 0.545 11.0922C0.58175 11.891 0.7085 12.4348 0.89375 12.9132C1.08229 13.4132 1.37737 13.8662 1.7585 14.2407C2.13295 14.6229 2.58659 14.9183 3.0875 15.1063C3.5645 15.2923 4.10975 15.419 4.90775 15.4542C5.708 15.491 5.963 15.4993 8 15.4993C10.037 15.4993 10.292 15.491 11.0922 15.4542C11.8902 15.419 12.4355 15.2923 12.9125 15.1063C13.4134 14.9183 13.8671 14.6229 14.2415 14.2407C14.6226 13.8662 14.9177 13.4132 15.1063 12.9132C15.2915 12.4355 15.4183 11.891 15.455 11.0922C15.491 10.2927 15.5 10.037 15.5 8C15.5 5.963 15.491 5.70725 15.455 4.90775C15.4183 4.109 15.2915 3.5645 15.1063 3.08675C14.9177 2.58676 14.6226 2.13378 14.2415 1.75925C13.8671 1.37712 13.4134 1.08169 12.9125 0.89375C12.4355 0.7085 11.8902 0.581 11.0922 0.54575C10.292 0.5075 10.037 0.5 8 0.5ZM8 1.8515C10.0025 1.8515 10.2395 1.859 11.0308 1.895C11.762 1.928 12.1588 2.05025 12.4235 2.153C12.773 2.2895 13.0235 2.45225 13.2853 2.714C13.5478 2.9765 13.7105 3.227 13.8463 3.5765C13.9497 3.84125 14.0712 4.238 14.105 4.96925C14.141 5.7605 14.1485 5.99675 14.1485 7.99925C14.1485 10.0017 14.141 10.2395 14.105 11.0308C14.0712 11.762 13.9497 12.1587 13.8463 12.4227C13.7105 12.773 13.5478 13.0228 13.2853 13.2853C13.0433 13.5342 12.7489 13.7261 12.4235 13.847C12.1588 13.9497 11.762 14.072 11.0308 14.105C10.2395 14.141 10.0025 14.1485 8 14.1485C5.9975 14.1485 5.7605 14.141 4.96925 14.105C4.238 14.072 3.84125 13.9497 3.5765 13.847C3.25113 13.7264 2.95674 13.5347 2.71475 13.286C2.46567 13.0437 2.27398 12.7488 2.15375 12.4227C2.05025 12.1587 1.92875 11.762 1.895 11.0308C1.859 10.2395 1.8515 10.0025 1.8515 8C1.8515 5.9975 1.859 5.7605 1.895 4.96925C1.92875 4.238 2.05025 3.84125 2.15375 3.57725C2.2895 3.227 2.45225 2.97725 2.71475 2.714C2.95674 2.46528 3.25113 2.27364 3.5765 2.153C3.84125 2.05025 4.238 1.928 4.96925 1.895C5.7605 1.859 5.9975 1.8515 8 1.8515Z" fill="#96969C"/>
<path fill-rule="evenodd" clip-rule="evenodd" d="M7.99969 10.4999C7.66782 10.5057 7.33813 10.4453 7.02986 10.3223C6.72159 10.1992 6.4409 10.016 6.20417 9.78339C5.96745 9.55073 5.77943 9.27326 5.65109 8.96716C5.52274 8.66106 5.45664 8.33247 5.45664 8.00056C5.45664 7.66864 5.52274 7.34005 5.65109 7.03395C5.77943 6.72785 5.96745 6.45038 6.20417 6.21772C6.4409 5.98506 6.72159 5.80188 7.02986 5.67886C7.33813 5.55583 7.66782 5.49543 7.99969 5.50118C8.65507 5.51253 9.27976 5.78085 9.73922 6.24834C10.1987 6.71583 10.4561 7.34508 10.4561 8.00056C10.4561 8.65603 10.1987 9.28528 9.73922 9.75277C9.27976 10.2203 8.65507 10.4886 7.99969 10.4999ZM7.99969 4.14893C6.97827 4.14893 5.99869 4.55469 5.27644 5.27694C4.55419 5.99919 4.14844 6.97877 4.14844 8.00018C4.14844 9.0216 4.55419 10.0012 5.27644 10.7234C5.99869 11.4457 6.97827 11.8514 7.99969 11.8514C9.0211 11.8514 10.0007 11.4457 10.7229 10.7234C11.4452 10.0012 11.8509 9.0216 11.8509 8.00018C11.8509 6.97877 11.4452 5.99919 10.7229 5.27694C10.0007 4.55469 9.0211 4.14893 7.99969 4.14893ZM12.9032 3.99668C12.9032 4.11487 12.8799 4.2319 12.8347 4.3411C12.7895 4.45029 12.7232 4.5495 12.6396 4.63308C12.556 4.71665 12.4568 4.78294 12.3476 4.82817C12.2384 4.8734 12.1214 4.89668 12.0032 4.89668C11.885 4.89668 11.768 4.8734 11.6588 4.82817C11.5496 4.78294 11.4504 4.71665 11.3668 4.63308C11.2832 4.5495 11.2169 4.45029 11.1717 4.3411C11.1265 4.2319 11.1032 4.11487 11.1032 3.99668C11.1032 3.75798 11.198 3.52907 11.3668 3.36028C11.5356 3.1915 11.7645 3.09668 12.0032 3.09668C12.2419 3.09668 12.4708 3.1915 12.6396 3.36028C12.8084 3.52907 12.9032 3.75798 12.9032 3.99668Z" fill="#96969C"/>
</svg>
