<svg width="17" height="17" viewBox="0 0 17 17" fill="none" xmlns="http://www.w3.org/2000/svg">
<path fill-rule="evenodd" clip-rule="evenodd" d="M6.18233 16.591V6.22761H9.13702V7.69894C9.56374 6.85288 10.6535 6.09278 12.294 6.09278C15.4357 6.09278 16.182 7.77647 16.182 10.8674V16.5893H13.0012V11.5702C13.0012 9.81071 12.5745 8.81634 11.4916 8.81634C9.98875 8.81634 9.36483 9.88655 9.36483 11.5686V16.591H6.18233ZM3.90936 16.4561H0.728564V6.09109H3.90936V16.4561ZM3.76571 1.27597C4.14941 1.65636 4.36498 2.17228 4.36498 2.71023C4.36498 3.24818 4.14941 3.7641 3.76571 4.14449C3.38201 4.52488 2.8616 4.73858 2.31896 4.73858C1.77633 4.73858 1.25592 4.52488 0.872213 4.14449C0.488511 3.7641 0.272949 3.24818 0.272949 2.71023C0.272949 2.17228 0.488511 1.65636 0.872213 1.27597C1.25592 0.895585 1.77633 0.681885 2.31896 0.681885C2.8616 0.681885 3.38201 0.895585 3.76571 1.27597Z" fill="#96969C"/>
</svg>
