<svg width="16" height="17" viewBox="0 0 16 17" fill="none" xmlns="http://www.w3.org/2000/svg">
<path d="M8.0633 13.6801C7.70186 13.6751 7.29089 13.6452 6.8845 13.5657C6.74415 13.5384 6.60402 13.5092 6.46481 13.4769C6.42559 13.4678 6.39601 13.4744 6.36299 13.4937C5.719 13.8676 5.07411 14.24 4.43012 14.6141C4.35582 14.6571 4.28151 14.6856 4.19735 14.6501C4.11731 14.6164 4.07763 14.5512 4.07098 14.4678C4.04185 14.097 4.01479 13.7261 3.98613 13.3552C3.96365 13.0657 3.94117 12.7764 3.9148 12.4871C3.91205 12.4561 3.89026 12.4187 3.86526 12.3994C3.13299 11.8283 2.60528 11.1068 2.25715 10.2524C2.07069 9.79493 1.94685 9.32065 1.87966 8.8327C1.81429 8.35955 1.79228 7.8839 1.83723 7.40712C1.92873 6.43645 2.26013 5.55213 2.82338 4.75528C3.46232 3.85136 4.29803 3.18003 5.30298 2.71327C5.69974 2.52897 6.11186 2.38569 6.53797 2.28659C7.18883 2.13533 7.84818 2.07406 8.51716 2.11574C8.99349 2.14536 9.46249 2.21757 9.92117 2.34537C10.8823 2.61326 11.7421 3.06909 12.4881 3.73131C13.0881 4.26391 13.5635 4.889 13.9039 5.61409C14.0834 5.9968 14.2155 6.39522 14.3013 6.80891C14.4061 7.3144 14.4387 7.82422 14.3944 8.33769C14.3215 9.18237 14.0644 9.96988 13.6213 10.6947C12.9459 11.7996 11.9962 12.5932 10.8137 13.1192C10.331 13.3341 9.82691 13.4828 9.30677 13.5753C8.913 13.6455 8.51532 13.6792 8.0633 13.6801Z" fill="#96969C"/>
<path d="M9.30494 14.995C9.30012 14.9628 9.28819 14.9533 9.25654 14.9574C9.17742 14.9681 9.09807 14.9776 9.01849 14.9854C8.81759 15.0048 8.61692 15.0319 8.41533 15.0389C8.12178 15.0489 7.82777 15.0446 7.53376 15.0446C7.48881 15.0446 7.47298 15.0601 7.47275 15.1041C7.47252 15.2027 7.47252 15.3016 7.4645 15.3995C7.46014 15.4528 7.47872 15.4661 7.52665 15.4656C7.69842 15.4645 7.8702 15.4651 8.04197 15.4651C8.04243 15.4727 8.04266 15.4802 8.04312 15.4877C8.41143 15.4574 8.77998 15.4278 9.1483 15.3963C9.20701 15.3913 9.2648 15.3783 9.32305 15.3692C9.35608 15.364 9.36617 15.3469 9.35975 15.3134C9.34002 15.2075 9.32122 15.1013 9.30494 14.995Z" fill="#96969C"/>
<path d="M6.73612 14.9444C6.68658 14.9319 6.63659 14.9202 6.58705 14.9077C6.49875 14.8854 6.41046 14.8628 6.32033 14.8398C6.28937 14.8485 6.2568 14.8537 6.22745 14.8662C5.8089 15.0469 5.39082 15.2289 4.97205 15.4091C4.92939 15.4276 4.92618 15.4499 4.94338 15.4877C4.98398 15.5772 5.02503 15.6667 5.06034 15.7583C5.08007 15.8096 5.1053 15.8114 5.15093 15.7916C5.53186 15.6251 5.91348 15.4597 6.29579 15.2963C6.32239 15.2849 6.3584 15.2847 6.3873 15.2909C6.47444 15.3098 6.56022 15.3351 6.64691 15.3567C6.68016 15.3651 6.69897 15.3547 6.7063 15.3166C6.72626 15.2127 6.74713 15.1089 6.77533 15.007C6.78772 14.9626 6.76891 14.9526 6.73612 14.9444Z" fill="#96969C"/>
<path d="M0.632973 10.1533C0.606599 10.0432 0.584812 9.93184 0.565318 9.82022C0.540779 9.67875 0.517387 9.53683 0.49904 9.39423C0.477711 9.22725 0.458906 9.05959 0.445375 8.8917C0.43322 8.74249 0.428862 8.5926 0.423129 8.44293C0.421753 8.40716 0.406387 8.3976 0.373592 8.39874C0.321991 8.40056 0.27039 8.39919 0.218789 8.39919C0.218789 8.40033 0.218789 8.4017 0.218789 8.40284C0.167187 8.40284 0.115586 8.40511 0.0639853 8.40215C0.016971 8.39942 -0.000229338 8.41605 0.00275206 8.46389C0.0128429 8.63223 0.0172004 8.80103 0.0293553 8.96938C0.0392168 9.10902 0.0536651 9.24866 0.0720122 9.38762C0.0924233 9.54116 0.117421 9.69447 0.144254 9.8471C0.169022 9.98651 0.198377 10.125 0.227962 10.2635C0.230255 10.2747 0.25296 10.2915 0.262592 10.2893C0.375885 10.2649 0.48849 10.2378 0.600866 10.2104C0.630909 10.2034 0.641688 10.1895 0.632973 10.1533Z" fill="#96969C"/>
<path d="M11.7359 14.2259C11.6983 14.1537 11.6981 14.1539 11.627 14.1904C11.236 14.3908 10.8303 14.5567 10.4097 14.6854C10.2954 14.7202 10.1799 14.7514 10.0654 14.7856C10.0356 14.7945 9.99891 14.7993 10.012 14.8478C10.0402 14.9535 10.0656 15.0599 10.095 15.1654C10.0994 15.1811 10.1179 15.1929 10.126 15.2023C10.1478 15.1982 10.1574 15.1972 10.1663 15.1943C10.414 15.1159 10.6667 15.0501 10.908 14.9558C11.2259 14.8316 11.5348 14.6851 11.8481 14.5487C11.8825 14.5337 11.8877 14.5161 11.8696 14.4829C11.8235 14.3981 11.7806 14.3116 11.7359 14.2259Z" fill="#96969C"/>
<path d="M13.9713 12.8741C13.9006 12.8131 13.8341 12.7477 13.7662 12.6839C13.7103 12.6313 13.7101 12.6308 13.6564 12.6869C13.3344 13.0229 12.984 13.3265 12.6044 13.5969C12.512 13.6628 12.4182 13.7268 12.3207 13.7947C12.3976 13.9124 12.4716 14.0257 12.5469 14.1407C12.5668 14.1289 12.5803 14.1222 12.5923 14.1136C12.8397 13.93 13.0954 13.7564 13.3319 13.5596C13.5566 13.3723 13.7607 13.1607 13.9749 12.9605C14.0091 12.9279 14.0075 12.9053 13.9713 12.8741Z" fill="#96969C"/>
<path d="M15.9929 8.27094C15.9929 8.21968 15.9913 8.16843 15.9934 8.1174C15.9947 8.08141 15.9823 8.06546 15.9445 8.06569C15.8452 8.06592 15.7459 8.06683 15.6468 8.06159C15.5909 8.05863 15.5741 8.07981 15.5725 8.13244C15.5682 8.26866 15.564 8.40534 15.5512 8.54111C15.5347 8.71424 15.5152 8.88737 15.4865 9.05891C15.4551 9.24661 15.4122 9.4325 15.3728 9.61884C15.359 9.68331 15.3386 9.74641 15.3257 9.81111C15.323 9.82455 15.3379 9.85234 15.3501 9.85621C15.4585 9.89084 15.5677 9.92296 15.6778 9.95234C15.6906 9.95576 15.72 9.94118 15.7232 9.92979C15.7597 9.79698 15.7984 9.6644 15.8252 9.52954C15.8654 9.32771 15.9023 9.12497 15.9303 8.92131C15.9599 8.70581 15.9773 8.48872 16 8.27231C15.9977 8.27162 15.9954 8.27117 15.9929 8.27094Z" fill="#96969C"/>
<path d="M6.16805 1.12276C6.20268 1.11296 6.21185 1.1018 6.20428 1.06899C6.18617 0.989948 6.16988 0.910217 6.15199 0.83117C6.14259 0.789482 6.13112 0.748478 6.12057 0.70679C6.0809 0.714536 6.04879 0.718408 6.01806 0.727293C5.77175 0.798139 5.52154 0.857823 5.28097 0.94416C4.97228 1.0551 4.67162 1.18836 4.36706 1.31115C4.33082 1.32573 4.32279 1.34372 4.34137 1.38017C4.38884 1.47289 4.43333 1.56697 4.4776 1.66105C4.4948 1.6975 4.51223 1.70319 4.55282 1.68634C4.82413 1.57289 5.09337 1.45307 5.37064 1.35602C5.63163 1.26468 5.90133 1.1977 6.16805 1.12276Z" fill="#96969C"/>
<path d="M2.39635 3.12422C2.43305 3.16431 2.45506 3.15976 2.49176 3.12376C2.8376 2.7848 3.21096 2.47954 3.61735 2.21461C3.69968 2.16085 3.78224 2.10731 3.8687 2.05105C3.80013 1.93829 3.735 1.8294 3.66689 1.72279C3.66161 1.71436 3.62996 1.71231 3.61827 1.7196C3.50841 1.78771 3.39833 1.85605 3.29169 1.92895C2.89585 2.19866 2.52616 2.50004 2.18628 2.83719C2.15555 2.86772 2.15578 2.8864 2.18628 2.9151C2.25806 2.98276 2.32962 3.05132 2.39635 3.12422Z" fill="#96969C"/>
<path d="M1.93355 3.67801C1.83654 3.60169 1.74159 3.52264 1.64 3.43973C1.61592 3.46774 1.59436 3.48916 1.5767 3.51353C1.44277 3.69737 1.3047 3.8787 1.17719 4.06686C0.974916 4.36528 0.804289 4.68193 0.650173 5.00723C0.63045 5.04869 0.635266 5.06873 0.681593 5.08673C0.769888 5.12136 0.854972 5.16373 0.941433 5.20291C1.0084 5.23321 1.00932 5.23366 1.04028 5.16669C1.19669 4.82931 1.37924 4.50652 1.59161 4.20104C1.69985 4.04545 1.81682 3.89578 1.92965 3.74316C1.9441 3.72311 1.96841 3.70557 1.93355 3.67801Z" fill="#96969C"/>
<path d="M15.1505 5.64325C15.1785 5.72139 15.2115 5.79815 15.234 5.87788C15.3065 6.13576 15.3842 6.39272 15.4423 6.65378C15.4897 6.86745 15.5136 7.0866 15.5448 7.30369C15.5503 7.34174 15.5652 7.34493 15.5966 7.34196C15.7009 7.3324 15.8055 7.3242 15.9103 7.31736C15.9553 7.3144 15.9684 7.29686 15.961 7.2513C15.9346 7.08705 15.9151 6.92167 15.8872 6.75765C15.8624 6.61254 15.8365 6.46698 15.7993 6.3246C15.7466 6.12186 15.6851 5.92139 15.6239 5.72116C15.5959 5.62981 15.5594 5.54097 15.5246 5.44483C15.4012 5.49267 15.2904 5.538 15.1776 5.5781C15.1377 5.59245 15.1398 5.61364 15.1505 5.64325Z" fill="#96969C"/>
<path d="M1.35195 11.8994C1.15174 11.5966 0.996015 11.2706 0.868733 10.9314C0.855202 10.8952 0.842817 10.8841 0.80383 10.8993C0.704985 10.9383 0.604535 10.9733 0.504314 11.0089C0.468079 11.0216 0.459823 11.0399 0.474271 11.0775C0.652008 11.5429 0.880429 11.9811 1.17513 12.3846C1.25104 12.4885 1.33177 12.5887 1.4157 12.6976C1.51363 12.6165 1.6017 12.5411 1.69274 12.4693C1.73196 12.4383 1.7299 12.4169 1.70008 12.3777C1.58106 12.2203 1.46043 12.0636 1.35195 11.8994Z" fill="#96969C"/>
<path d="M11.1463 1.55262C11.1626 1.55854 11.1997 1.54874 11.2057 1.53622C11.2582 1.42391 11.3061 1.30933 11.3577 1.18973C10.7688 0.934592 10.1647 0.752123 9.52969 0.636172C9.50675 0.76693 9.48634 0.885615 9.46478 1.0043C9.45951 1.03369 9.4657 1.05145 9.49781 1.05806C9.62417 1.08403 9.75191 1.10613 9.87644 1.13893C10.1037 1.19884 10.3317 1.25853 10.5551 1.33119C10.7548 1.39657 10.9486 1.47995 11.1463 1.55262Z" fill="#96969C"/>
<path d="M3.11602 14.5266C3.01075 14.1979 2.90525 13.8689 2.79953 13.5404C2.76903 13.4457 2.74472 13.3505 2.65528 13.2842C2.5241 13.1867 2.40094 13.0789 2.27412 12.9757C2.2599 12.9641 2.2443 12.9543 2.22802 12.9427C2.13514 13.0452 2.04593 13.1434 1.94754 13.2518C1.96772 13.2671 1.98171 13.2769 1.99478 13.2878C2.10303 13.3776 2.2122 13.4664 2.31884 13.5582C2.34796 13.5833 2.38145 13.6133 2.39268 13.6475C2.48488 13.925 2.57203 14.204 2.66101 14.4824C2.6883 14.5678 2.71651 14.653 2.74541 14.7419C2.88186 14.6974 3.00937 14.6562 3.13964 14.6138C3.13092 14.5806 3.1245 14.5532 3.11602 14.5266Z" fill="#96969C"/>
<path d="M13.3459 2.90735C13.4122 2.8315 13.48 2.75678 13.5507 2.68502C13.5864 2.64834 13.5871 2.62602 13.5465 2.59025C13.2794 2.35493 13.0035 2.13055 12.706 1.93396C12.5031 1.80001 12.293 1.67677 12.0859 1.5492C12.0625 1.53485 12.0402 1.52141 12.0205 1.55854C11.9627 1.66697 11.9022 1.77404 11.84 1.88657C11.9802 1.97041 12.1155 2.04763 12.2469 2.13101C12.6108 2.362 12.9548 2.61941 13.2723 2.911C13.3016 2.93788 13.3193 2.93788 13.3459 2.90735Z" fill="#96969C"/>
<path d="M0.00366941 7.6151C0.0018347 7.64722 0.016971 7.65747 0.0479317 7.65861C0.156638 7.66203 0.265344 7.66749 0.373821 7.67273C0.407075 7.67433 0.421065 7.66111 0.423817 7.62717C0.435742 7.48001 0.443999 7.33217 0.46441 7.18615C0.494682 6.96928 0.525872 6.75196 0.571969 6.53805C0.615085 6.33736 0.676547 6.14054 0.733882 5.94304C0.744661 5.90568 0.73113 5.89406 0.70338 5.88472C0.620818 5.85715 0.538027 5.82959 0.454777 5.80385C0.35341 5.77218 0.347447 5.77127 0.317863 5.87447C0.257088 6.08655 0.196313 6.29909 0.147923 6.51413C0.109165 6.68704 0.0853138 6.86335 0.0605453 7.03899C0.0366941 7.20938 0.0199524 7.38092 0 7.552C0.00137603 7.55223 0.00252272 7.55245 0.00389875 7.55245C0.00389875 7.57341 0.0048161 7.59414 0.00366941 7.6151Z" fill="#96969C"/>
<path d="M15.4072 10.6558C15.3159 10.6241 15.2278 10.5831 15.1391 10.5449C15.0966 10.5264 15.0703 10.5264 15.0487 10.5783C14.8375 11.0857 14.563 11.5579 14.2359 12C14.1749 12.0825 14.1756 12.0841 14.2563 12.1468C14.3371 12.2094 14.4192 12.2704 14.5031 12.334C14.5228 12.3108 14.5393 12.2951 14.5515 12.2764C14.7288 12.0051 14.9164 11.7397 15.0792 11.4599C15.2141 11.2285 15.3196 10.98 15.4386 10.7394C15.4585 10.6991 15.4604 10.6745 15.4072 10.6558Z" fill="#96969C"/>
<path d="M15.1508 4.78444C15.2049 4.75938 15.2076 4.73523 15.1813 4.68557C14.9363 4.22336 14.6458 3.79168 14.3125 3.38801C14.2538 3.31694 14.1914 3.24906 14.1284 3.17661C14.0226 3.27092 13.9238 3.35931 13.8174 3.4543C14.221 3.90809 14.5625 4.40036 14.8418 4.94162C14.9512 4.88535 15.0492 4.83114 15.1508 4.78444Z" fill="#96969C"/>
<path d="M4.19735 15.7476C4.13176 15.7724 4.06846 15.8032 4.00401 15.831C3.87031 15.8891 3.73638 15.9467 3.59419 16.0082C3.58249 15.977 3.57309 15.9547 3.56575 15.9317C3.50589 15.7469 3.44512 15.5622 3.38755 15.3765C3.37632 15.3403 3.3582 15.3371 3.32861 15.3467C3.22747 15.379 3.12634 15.4118 3.02497 15.4435C2.98942 15.4547 2.97589 15.4731 2.98805 15.5112C3.07519 15.7802 3.16165 16.0497 3.24766 16.3192C3.30155 16.488 3.42012 16.5406 3.58501 16.4686C3.75702 16.3934 3.92948 16.3187 4.10171 16.244C4.20216 16.2005 4.30284 16.1572 4.41017 16.111C4.35628 15.9886 4.30651 15.8727 4.25262 15.7588C4.2478 15.7481 4.21294 15.7417 4.19735 15.7476Z" fill="#96969C"/>
<path d="M8.68893 0.94416C8.72586 0.946665 8.74008 0.93892 8.74352 0.901105C8.75292 0.797455 8.76461 0.693806 8.77769 0.590612C8.78342 0.545963 8.76599 0.528422 8.72241 0.526144C8.62518 0.520677 8.5284 0.50997 8.43116 0.506781C7.92501 0.489923 7.41978 0.502908 6.91638 0.563731C6.88312 0.567832 6.86913 0.582183 6.87395 0.616125C6.88771 0.717269 6.90101 0.818641 6.91271 0.920013C6.91798 0.965573 6.93633 0.986986 6.98656 0.980608C7.10375 0.965345 7.22094 0.947577 7.33882 0.941654C7.61127 0.927986 7.88418 0.920696 8.11467 0.912495C8.33438 0.924113 8.51165 0.932542 8.68893 0.94416Z" fill="#96969C"/>
</svg>
