<svg width="16" height="16" viewBox="0 0 16 16" fill="none" xmlns="http://www.w3.org/2000/svg">
<path fill-rule="evenodd" clip-rule="evenodd" d="M13.7571 8.29965C11.7739 9.3722 10.0668 9.18539 9.14 9.15559C8.45878 9.12177 8.20595 9.41487 8.17374 9.86579C7.99718 9.73857 7.82882 9.60034 7.66967 9.45191C7.64565 9.42891 7.62094 9.40662 7.59559 9.38508C7.44663 9.22323 7.19782 9.13546 6.8097 9.15559C5.89659 9.18458 4.22657 9.36656 2.28117 8.34716V2.82096C2.28117 1.82008 2.53562 1.50605 3.45196 1.50605H12.5831C13.4503 1.50605 13.7571 1.87886 13.7571 2.82096V8.29965ZM14.6324 7.7521L14.4633 7.87047V2.17518C14.4633 1.38446 13.8682 0.745117 13.1363 0.745117H2.81986C2.08873 0.745117 1.49448 1.38365 1.49448 2.17518V7.8753C1.43468 7.83532 1.37562 7.79425 1.31733 7.7521C0.876878 7.44531 0.588611 7.86322 0.858358 8.2618C1.38336 8.90436 2.38102 9.70233 3.91012 10.3304C2.29164 15.8405 7.85729 16.7158 7.77355 13.8919L7.77918 11.1123C7.92493 11.1469 8.05296 11.1807 8.17132 11.2089L8.17615 13.8919C8.09161 16.7166 13.6613 15.8405 12.0396 10.3304C13.5695 9.70233 14.5663 8.90437 15.0913 8.261C15.3603 7.86322 15.072 7.44531 14.6324 7.7521ZM6.01254 5.16253C5.0342 5.16253 4.23946 5.90494 4.23946 6.82127C4.23946 7.7368 5.0334 8.48002 6.01254 8.48002C6.99168 8.48002 7.78562 7.7368 7.78562 6.82127C7.78562 5.90494 6.99168 5.16253 6.01254 5.16253ZM10.1385 5.16253C9.15932 5.16253 8.36538 5.90494 8.36538 6.82127C8.36538 7.7368 9.15932 8.48002 10.1385 8.48002C11.1168 8.48002 11.9115 7.7368 11.9115 6.82127C11.9115 5.90494 11.1168 5.16253 10.1385 5.16253Z" fill="#96969C"/>
</svg>
