<svg width="16" height="17" viewBox="0 0 16 17" fill="none" xmlns="http://www.w3.org/2000/svg">
<g clip-path="url(#clip0)">
<path d="M11.1161 6.15879C9.6309 6.23639 8.33938 6.68662 7.29084 7.70382C6.23143 8.73151 5.74783 9.99082 5.88001 11.5519C5.29949 11.48 4.77074 11.4009 4.23898 11.3561C4.05533 11.3407 3.83739 11.3626 3.68183 11.4504C3.16547 11.7418 2.67046 12.0707 2.08374 12.4375C2.19139 11.9506 2.26107 11.5242 2.38443 11.1141C2.47515 10.8127 2.43313 10.6449 2.15545 10.4486C0.372537 9.18985 -0.379001 7.30603 0.183426 5.36659C0.703773 3.57239 1.98161 2.48428 3.7179 1.91707C6.08777 1.14296 8.7511 1.93259 10.1922 3.81413C10.7126 4.49378 11.0318 5.2566 11.1161 6.15879ZM4.28057 5.55447C4.29425 5.19974 3.98688 4.88016 3.62178 4.86949C3.24797 4.85851 2.94054 5.14417 2.92962 5.51251C2.91858 5.88583 3.20412 6.18498 3.58062 6.19455C3.95388 6.204 4.26677 5.91797 4.28057 5.55447ZM7.84694 4.86924C7.4805 4.87599 7.17085 5.18809 7.17736 5.54423C7.18404 5.91337 7.4878 6.20216 7.86461 6.19762C8.2424 6.19308 8.52892 5.90123 8.52537 5.52429C8.52224 5.15429 8.21983 4.86243 7.84694 4.86924Z" fill="#96969C"/>
<path d="M14.4538 15.4185C13.9836 15.2091 13.5521 14.8949 13.0928 14.8469C12.6353 14.7992 12.1543 15.0631 11.6756 15.112C10.2175 15.2612 8.91122 14.8548 7.83409 13.8587C5.78552 11.964 6.07824 9.05864 8.44835 7.50587C10.5548 6.12584 13.6441 6.58589 15.1293 8.50075C16.4253 10.1717 16.273 12.3897 14.6908 13.7934C14.233 14.1997 14.0682 14.534 14.362 15.0695C14.4162 15.1684 14.4224 15.2936 14.4538 15.4185ZM9.10046 10.2353C9.39986 10.2356 9.64638 10.0013 9.65773 9.70559C9.66969 9.39251 9.41789 9.12991 9.10438 9.12863C8.794 9.12722 8.53398 9.39349 8.54478 9.70191C8.55496 9.99659 8.8032 10.235 9.10046 10.2353ZM12.5515 9.12985C12.261 9.12783 12.0142 9.36564 12.0023 9.65916C11.9898 9.97303 12.2337 10.2308 12.5443 10.2316C12.8448 10.2326 13.0822 10.0054 13.0931 9.70639C13.1047 9.39178 12.8607 9.132 12.5515 9.12985Z" fill="#96969C"/>
</g>
<defs>
<clipPath id="clip0">
<rect y="0.5" width="16" height="16" fill="white"/>
</clipPath>
</defs>
</svg>
