<svg width="18" height="15" viewBox="0 0 18 15" fill="none" xmlns="http://www.w3.org/2000/svg">
<g clip-path="url(#clip0)">
<path d="M0 0.5H18V14.5H0V0.5Z" fill="#000066"/>
<path fill-rule="evenodd" clip-rule="evenodd" d="M8.43289 11.9478L7.20383 12.0587L7.37258 13.3245L6.52602 12.3999L5.67945 13.3245L5.8482 12.0587L4.61914 11.9478L5.67945 11.2974L4.99602 10.2328L6.14914 10.6849L6.52602 9.46868L6.9057 10.6849L8.05883 10.2328L7.37539 11.2974L8.43289 11.9478ZM13.6866 13.1145L13.3885 12.6537L13.8891 12.8491L14.0523 12.3212L14.2154 12.8491L14.716 12.6537L14.4207 13.1145L14.882 13.3974L14.3476 13.447L14.4207 13.9983L14.0551 13.5928L13.6838 13.9983L13.757 13.447L13.2226 13.4003L13.6866 13.1145ZM13.6838 4.88659L13.3885 4.42576L13.8891 4.62118L14.0523 4.09326L14.2154 4.62118L14.716 4.42576L14.4207 4.88659L14.882 5.17243L14.3476 5.2191L14.4207 5.77034L14.0551 5.36784L13.6838 5.76743L13.757 5.2191L13.2226 5.17243L13.6838 4.88659ZM10.711 8.22909L10.4157 7.76826L10.9163 7.96368L11.0795 7.43576L11.2454 7.96368L11.746 7.76826L11.4479 8.22909L11.9091 8.51201L11.3748 8.56159L11.4507 9.11284L11.0795 8.70743L10.7138 9.11284L10.7841 8.56159L10.2498 8.51493L10.711 8.22909ZM16.3332 7.40659L16.0323 6.94576L16.5329 7.14118L16.696 6.61326L16.862 7.14118L17.3626 6.94576L17.0673 7.40659L17.5257 7.68951L16.9913 7.73909L17.0645 8.28743L16.6988 7.88493L16.3276 8.28743L16.4007 7.73909L15.8663 7.68951L16.3332 7.40659ZM15.2448 9.83326L14.9551 10.0228L15.0366 9.67576L14.7751 9.44826L15.1154 9.41909L15.2448 9.09243L15.377 9.42201L15.7173 9.44826L15.4557 9.67576L15.5373 10.0228" fill="white"/>
<path d="M0 0.5H9V7.5H0V0.5Z" fill="#000066"/>
<path d="M1.05469 0.5L4.48594 3.13958L7.90312 0.5H9V1.40417L5.625 4.01458L9 6.61042V7.5H7.875L4.5 4.88958L1.13906 7.5H0V6.625L3.36094 4.02917L0 1.43333V0.5H1.05469Z" fill="white"/>
<path d="M5.9625 4.59792L9 6.91667V7.5L5.18906 4.59792H5.9625ZM3.375 4.88958L3.45937 5.4L0.759375 7.5H0L3.375 4.88958ZM9 0.5V0.54375L5.49844 3.28542L5.52656 2.64375L8.29688 0.5H9ZM0 0.5L3.36094 3.06667H2.51719L0 1.1125V0.5Z" fill="#C8102E"/>
<path d="M3.38906 0.5V7.5H5.63906V0.5H3.38906ZM0 2.83333V5.16667H9V2.83333H0Z" fill="white"/>
<path d="M0 3.31458V4.71458H9V3.31458H0ZM3.83906 0.5V7.5H5.18906V0.5H3.83906Z" fill="#C8102E"/>
</g>
<defs>
<clipPath id="clip0">
<path d="M0 0.5H18V14.5H0V0.5Z" fill="white"/>
</clipPath>
</defs>
</svg>
