<svg width="18" height="15" viewBox="0 0 18 15" fill="none" xmlns="http://www.w3.org/2000/svg">
<g clip-path="url(#clip0)">
<path fill-rule="evenodd" clip-rule="evenodd" d="M-0.5625 0.5H19.6875V14.5H-0.5625V0.5Z" fill="white"/>
<path fill-rule="evenodd" clip-rule="evenodd" d="M-0.5625 0.5H19.6875V7.5H-0.5625V0.5Z" fill="#DF0000"/>
<path fill-rule="evenodd" clip-rule="evenodd" d="M4.10555 1.67233C3.57281 1.79105 3.09567 2.09624 2.75426 2.53666C2.41284 2.97707 2.22793 3.52588 2.23057 4.09096C2.23321 4.65604 2.42324 5.20298 2.76875 5.63994C3.11426 6.0769 3.59422 6.37729 4.12805 6.49066C3.82223 6.58243 3.50196 6.61069 3.1856 6.57381C2.86923 6.53694 2.563 6.43566 2.28446 6.27579C2.00592 6.11592 1.76055 5.90059 1.56243 5.64216C1.36431 5.38373 1.21733 5.08729 1.12993 4.76983C0.956332 4.13168 1.03344 3.44822 1.34439 2.86887C1.65534 2.28952 2.17484 1.86142 2.7893 1.67816C3.2393 1.54399 3.65555 1.54108 4.10836 1.67233H4.10555Z" fill="white"/>
<path fill-rule="evenodd" clip-rule="evenodd" d="M3.74141 3.70816L3.87922 4.14566L3.51359 3.87733L3.15359 4.1515L3.28578 3.70816L2.92578 3.43691L3.37297 3.43108L3.51359 2.99358L3.65422 3.43108H4.09859L3.74141 3.70816ZM4.23359 5.22483L4.37422 5.66525L4.00859 5.39691L3.64578 5.66816L3.78078 5.22775L3.42078 4.95358L3.86797 4.95066L4.00578 4.51025L4.14641 4.94775H4.59641L4.23359 5.22483ZM5.87891 5.21316L6.01672 5.6565L5.65109 5.38525L5.29109 5.6565L5.42328 5.21608L5.06328 4.94483L5.51047 4.939L5.65109 4.5015L5.79172 4.939H6.23609L5.87891 5.21316ZM6.36828 3.70816L6.50609 4.14858L6.14047 3.88025L5.78047 4.1515L5.91547 3.71108L5.55266 3.43691L6.00266 3.434L6.13766 2.99358L6.27828 3.43108H6.72828L6.36828 3.70816ZM5.06609 2.70775L5.20672 3.15108L4.84109 2.87983L4.47828 3.154L4.61328 2.71066L4.25328 2.4365L4.69766 2.43358L4.83828 1.99316L4.97891 2.43066H5.42891L5.06609 2.70775Z" fill="white"/>
</g>
<defs>
<clipPath id="clip0">
<path d="M0 0.5H18V14.5H0V0.5Z" fill="white"/>
</clipPath>
</defs>
</svg>
