<svg width="18" height="15" viewBox="0 0 18 15" fill="none" xmlns="http://www.w3.org/2000/svg">
<path fill-rule="evenodd" clip-rule="evenodd" d="M0 0.5H25.65V1.57734H0V0.5ZM0 2.65469H25.65V3.73203H0V2.65469ZM0 4.80664H25.65V5.88672H0V4.80664ZM0 6.96133H25.65V8.03867H0V6.96133ZM0 9.11602H25.65V10.1934H0V9.11602ZM0 11.268H25.65V12.3453H0V11.268ZM0 13.4227H25.65V14.5H0V13.4227Z" fill="#C8102E"/>
<path fill-rule="evenodd" clip-rule="evenodd" d="M0 1.57715H25.65V2.65449H0V1.57715ZM0 3.73184H25.65V4.80645H0V3.73184ZM0 5.88379H25.65V6.96113H0V5.88379ZM0 8.03848H25.65V9.11582H0V8.03848ZM0 10.1932H25.65V11.2705H0V10.1932ZM0 12.3451H25.65V13.4225H0V12.3451Z" fill="white"/>
<path fill-rule="evenodd" clip-rule="evenodd" d="M0 0.5H10.2595V8.03867H0V0.5Z" fill="#192F5D"/>
<path fill-rule="evenodd" clip-rule="evenodd" d="M0.854492 0.822266L0.949414 1.12031H1.25L1.00742 1.30352L1.09971 1.6043L0.854492 1.41836L0.611914 1.60156L0.704199 1.30352L0.458984 1.12031H0.764844L0.854492 0.822266ZM2.56572 0.822266L2.65801 1.12031H2.96123L2.71602 1.30352L2.8083 1.6043L2.56572 1.41836L2.32051 1.60156L2.41279 1.30352L2.17022 1.12031H2.4708L2.56572 0.822266ZM4.27432 0.822266L4.36924 1.12031H4.66719L4.42461 1.30352L4.5169 1.6043L4.27168 1.41836L4.0291 1.60156L4.12139 1.30352L3.87617 1.12031H4.1794L4.27432 0.822266ZM5.98555 0.822266L6.07783 1.12031H6.38106L6.13584 1.30352L6.23076 1.6043L5.98555 1.41836L5.74033 1.60156L5.83525 1.30352L5.59004 1.12031H5.89063L5.98555 0.822266ZM7.69414 0.822266L7.78906 1.12031H8.08965L7.84707 1.30352L7.93936 1.6043L7.69414 1.41836L7.45156 1.60156L7.54385 1.30352L7.30127 1.12031H7.60186L7.69414 0.822266ZM9.40537 0.822266L9.49766 1.12031H9.80088L9.55566 1.30352L9.65059 1.6043L9.40537 1.41836L9.16016 1.60156L9.25508 1.30352L9.00986 1.12031H9.31309L9.40537 0.822266ZM1.71143 1.57695L1.80371 1.875H2.10693L1.86172 2.0582L1.95137 2.35625L1.71406 2.17305L1.46885 2.35625L1.55586 2.0582L1.31855 1.875H1.61914L1.71143 1.57695ZM3.42002 1.57695L3.51494 1.875H3.81553L3.57031 2.0582L3.66523 2.35625L3.42002 2.17305L3.17481 2.35625L3.26973 2.0582L3.02451 1.875H3.32773L3.42002 1.57695ZM5.13125 1.57695L5.22354 1.875H5.52676L5.28154 2.0582L5.37383 2.35625L5.13125 2.17305L4.88604 2.35625L4.97832 2.0582L4.73574 1.875H5.03633L5.13125 1.57695ZM6.83984 1.57695L6.93477 1.875H7.23535L6.99014 2.0582L7.08506 2.35625L6.83984 2.17305L6.59727 2.35625L6.68955 2.0582L6.44434 1.875H6.7502L6.83984 1.57695ZM8.55107 1.57695L8.64336 1.875H8.94658L8.70137 2.0582L8.79365 2.35625L8.55107 2.17305L8.30586 2.35625L8.39815 2.0582L8.15557 1.875H8.45615L8.55107 1.57695ZM0.854492 2.32891L0.949414 2.63242H1.25L1.00742 2.81562L1.09971 3.11367L0.854492 2.92773L0.611914 3.11367L0.704199 2.81289L0.458984 2.62969H0.764844L0.854492 2.32891ZM2.56572 2.32891L2.65801 2.62969H2.96123L2.71602 2.81289L2.8083 3.11094L2.56572 2.925L2.32051 3.11094L2.41279 2.81016L2.17022 2.62695H2.4708L2.56572 2.32891ZM4.27432 2.32891L4.36924 2.62969H4.66719L4.42461 2.81289L4.5169 3.11094L4.27168 2.925L4.0291 3.11094L4.12139 2.81016L3.87617 2.62695H4.1794L4.27432 2.32891ZM5.98555 2.32891L6.07783 2.62969H6.38106L6.13584 2.81289L6.23076 3.11094L5.98555 2.925L5.74033 3.11094L5.83525 2.81016L5.59004 2.62695H5.89063L5.98555 2.32891ZM7.69414 2.32891L7.78906 2.62969H8.08965L7.84707 2.81289L7.93936 3.11094L7.69414 2.925L7.45156 3.11094L7.54385 2.81016L7.30127 2.62695H7.60186L7.69414 2.32891ZM9.40537 2.32891L9.49766 2.62969H9.80088L9.55566 2.81289L9.65059 3.11094L9.40537 2.925L9.16016 3.11094L9.25508 2.81016L9.00986 2.62695H9.31309L9.40537 2.32891ZM1.71143 3.08359L1.80371 3.38164H2.10693L1.86172 3.56484L1.954 3.86562L1.71143 3.67969L1.46621 3.86289L1.5585 3.56484L1.31592 3.38164H1.6165L1.71143 3.08359ZM3.42002 3.08359L3.51494 3.38164H3.81553L3.57031 3.56484L3.66523 3.86562L3.42002 3.67969L3.17481 3.86289L3.26973 3.56484L3.02451 3.38164H3.32773L3.42002 3.08359ZM5.13125 3.08359L5.22354 3.38164H5.52676L5.28154 3.56484L5.37383 3.86562L5.13125 3.67969L4.88604 3.86289L4.97832 3.56484L4.73574 3.38164H5.03633L5.13125 3.08359ZM6.83984 3.08359L6.93477 3.38164H7.23535L6.99277 3.56484L7.08506 3.86562L6.83984 3.67969L6.59727 3.86289L6.68955 3.56484L6.44434 3.38164H6.7502L6.83984 3.08359ZM8.55107 3.08359L8.64336 3.38164H8.94658L8.70137 3.56484L8.79365 3.86562L8.55107 3.67969L8.30586 3.86289L8.39815 3.56484L8.15557 3.38164H8.45615L8.55107 3.08359ZM0.854492 3.83828L0.949414 4.13633H1.25L1.00742 4.31953L1.09971 4.62031L0.854492 4.43437L0.611914 4.61758L0.704199 4.31953L0.458984 4.13633H0.764844L0.854492 3.83828ZM2.56572 3.83828L2.65801 4.13633H2.96123L2.71602 4.31953L2.8083 4.61758L2.56572 4.43437L2.32051 4.61758L2.41279 4.31953L2.17022 4.13633H2.4708L2.56572 3.83828ZM4.27432 3.83828L4.36924 4.13633H4.66719L4.42461 4.31953L4.5169 4.62031L4.27168 4.43437L4.0291 4.61758L4.12139 4.31953L3.87617 4.13633H4.1794L4.27432 3.83828ZM5.98555 3.83828L6.07783 4.13633H6.38106L6.13584 4.31953L6.23076 4.62031L5.98555 4.43437L5.74033 4.61758L5.83525 4.31953L5.59004 4.13633H5.89063L5.98555 3.83828ZM7.69414 3.83828L7.78906 4.13633H8.08965L7.84707 4.31953L7.93936 4.62031L7.69414 4.43437L7.45156 4.61758L7.54385 4.31953L7.30127 4.13633H7.60186L7.69414 3.83828ZM9.40537 3.83828L9.49766 4.13633H9.80088L9.55566 4.31953L9.65059 4.62031L9.40537 4.43437L9.16016 4.61758L9.25508 4.31953L9.00986 4.13633H9.31309L9.40537 3.83828ZM1.71143 4.59297L1.80371 4.89101H2.10693L1.86172 5.07422L1.954 5.37226L1.71143 5.18633L1.46621 5.37226L1.5585 5.07148L1.31592 4.88828H1.6165L1.71143 4.59297ZM3.42002 4.59297L3.51494 4.89101H3.81553L3.57031 5.07422L3.66523 5.37226L3.42002 5.18633L3.17481 5.37226L3.26973 5.07148L3.02451 4.88828H3.32773L3.42002 4.59297ZM5.13125 4.59297L5.22354 4.89101H5.52676L5.28154 5.07422L5.37383 5.37226L5.13125 5.18633L4.88604 5.37226L4.97832 5.07148L4.73574 4.88828H5.03633L5.13125 4.59297ZM6.83984 4.59297L6.93477 4.89101H7.23535L6.99277 5.07422L7.08506 5.37226L6.83984 5.18633L6.59727 5.37226L6.68955 5.07148L6.44434 4.88828H6.7502L6.83984 4.59297ZM8.55107 4.59297L8.64336 4.89101H8.94658L8.70137 5.07422L8.79365 5.37226L8.55107 5.18633L8.30586 5.37226L8.39815 5.07148L8.15557 4.88828H8.45615L8.55107 4.59297ZM0.854492 5.34492L0.949414 5.6457H1.25L1.00742 5.8289L1.09971 6.12422L0.854492 5.94101L0.611914 6.12422L0.704199 5.82617L0.458984 5.64297H0.764844L0.854492 5.34492ZM2.56572 5.34492L2.65801 5.6457H2.96123L2.71602 5.8289L2.81094 6.12422L2.56572 5.94101L2.32051 6.12422L2.41543 5.82617L2.17022 5.64297H2.4708L2.56572 5.34492ZM4.27432 5.34492L4.36924 5.6457H4.66719L4.42461 5.8289L4.5169 6.12422L4.27168 5.94101L4.0291 6.12422L4.12139 5.82617L3.87617 5.64297H4.1794L4.27432 5.34492ZM5.98555 5.34492L6.07783 5.6457H6.38106L6.13584 5.8289L6.23076 6.12422L5.98555 5.94101L5.74033 6.12422L5.83525 5.82617L5.59004 5.64297H5.89063L5.98555 5.34492ZM7.69414 5.34492L7.78906 5.6457H8.08965L7.84707 5.8289L7.93936 6.12422L7.69414 5.94101L7.45156 6.12422L7.54385 5.82617L7.30127 5.64297H7.60186L7.69414 5.34492ZM9.40537 5.34492L9.49766 5.6457H9.80088L9.55566 5.8289L9.65059 6.12422L9.40537 5.94101L9.16016 6.12422L9.25508 5.82617L9.00986 5.64297H9.31309L9.40537 5.34492ZM1.71143 6.09961L1.80371 6.39765H2.10693L1.86172 6.58086L1.954 6.88164L1.71143 6.6957L1.46621 6.8789L1.5585 6.58086L1.31592 6.39765H1.6165L1.71143 6.09961ZM3.42002 6.09961L3.51494 6.39765H3.81553L3.57031 6.58086L3.66523 6.88164L3.42002 6.6957L3.17481 6.8789L3.26973 6.58086L3.02451 6.39765H3.32773L3.42002 6.09961ZM5.13125 6.09961L5.22354 6.39765H5.52676L5.28154 6.58086L5.37383 6.88164L5.13125 6.6957L4.88604 6.8789L4.97832 6.58086L4.73574 6.39765H5.03633L5.13125 6.09961ZM6.83984 6.09961L6.93477 6.39765H7.23535L6.99277 6.58086L7.08506 6.88164L6.83984 6.6957L6.59727 6.8789L6.68955 6.58086L6.44434 6.39765H6.7502L6.83984 6.09961ZM8.55107 6.09961L8.64336 6.39765H8.94658L8.70137 6.58086L8.79365 6.88164L8.55107 6.6957L8.30586 6.8789L8.39815 6.58086L8.15557 6.39765H8.45615L8.55107 6.09961ZM0.854492 6.85429L0.949414 7.15234H1.25L1.00742 7.33554L1.09971 7.63359L0.854492 7.45039L0.611914 7.63359L0.704199 7.33281L0.458984 7.14961H0.764844L0.854492 6.85429ZM2.56572 6.85429L2.65801 7.15234H2.96123L2.71602 7.33554L2.81094 7.63359L2.56572 7.45039L2.32051 7.63359L2.41543 7.33281L2.17022 7.14961H2.4708L2.56572 6.85429ZM4.27432 6.85429L4.36924 7.15234H4.66719L4.42988 7.33554L4.52217 7.63359L4.27695 7.45039L4.03438 7.63359L4.12666 7.33281L3.88145 7.14961H4.18467L4.27432 6.85429ZM5.98555 6.85429L6.07783 7.15234H6.38106L6.13584 7.33554L6.23076 7.63359L5.98555 7.45039L5.74033 7.63359L5.83525 7.33281L5.59004 7.14961H5.89063L5.98555 6.85429ZM7.69414 6.85429L7.78906 7.15234H8.08965L7.84707 7.33554L7.93936 7.63359L7.69414 7.45039L7.45156 7.63359L7.54385 7.33281L7.30127 7.14961H7.60186L7.69414 6.85429ZM9.40537 6.85429L9.49766 7.15234H9.80088L9.55566 7.33554L9.65059 7.63359L9.40537 7.45039L9.16016 7.63359L9.25508 7.33281L9.00986 7.14961H9.31309L9.40537 6.85429Z" fill="white"/>
</svg>
