<svg width="19" height="15" viewBox="0 0 19 15" fill="none" xmlns="http://www.w3.org/2000/svg">
<g clip-path="url(#clip0)">
<path d="M0.375 0.5H18.375V14.5H0.375V0.5Z" fill="#012169"/>
<path d="M2.48438 0.5L9.34688 5.77917L16.1812 0.5H18.375V2.30833L11.625 7.52917L18.375 12.7208V14.5H16.125L9.375 9.27917L2.65313 14.5H0.375V12.75L7.09687 7.55833L0.375 2.36667V0.5H2.48438Z" fill="white"/>
<path d="M12.3 8.69583L18.375 13.3333V14.5L10.7531 8.69583H12.3ZM7.125 9.27917L7.29375 10.3L1.89375 14.5H0.375L7.125 9.27917ZM18.375 0.5V0.5875L11.3719 6.07083L11.4281 4.7875L16.9688 0.5H18.375ZM0.375 0.5L7.09687 5.63333H5.40937L0.375 1.725V0.5Z" fill="#C8102E"/>
<path d="M7.15312 0.5V14.5H11.6531V0.5H7.15312ZM0.375 5.16667V9.83333H18.375V5.16667H0.375Z" fill="white"/>
<path d="M0.375 6.12917V8.92917H18.375V6.12917H0.375ZM8.05312 0.5V14.5H10.7531V0.5H8.05312Z" fill="#C8102E"/>
</g>
<defs>
<clipPath id="clip0">
<rect x="0.375" y="0.5" width="18" height="14" fill="white"/>
</clipPath>
</defs>
</svg>
