<svg xmlns="http://www.w3.org/2000/svg" width="62" height="62" viewBox="0 0 62 62">
    <g fill="#FFF" fill-rule="nonzero" stroke="#595959" stroke-width="1.141">
        <path d="M31.5 6.57C17.753 6.57 6.57 17.753 6.57 31.5S17.753 56.43 31.5 56.43 56.43 45.247 56.43 31.5 45.247 6.57 31.5 6.57z"/>
        <path d="M31.5 34.256a2.756 2.756 0 0 0 2.756-2.756c0-1.17-.743-2.196-1.838-2.585l-.38-.134V12.652a.537.537 0 1 0-1.076 0v16.129l-.38.134a2.745 2.745 0 0 0-1.838 2.585c0 .404.095.8.277 1.18l.174.364-6.945 6.945a.537.537 0 1 0 .761.761l6.945-6.945.364.174c.38.182.776.277 1.18.277z"/>
    </g>
</svg>
