<svg xmlns="http://www.w3.org/2000/svg" width="120" height="39" viewBox="0 0 120 39">
    <g fill="#fff" fill-rule="nonzero">
        <path d="M20.629 0c1.452.158 2.91.276 4.354.49.812.12 1.53.533 2.102 1.149.527.57.665 1.448.336 2.012-.264.453-.654.603-1.16.56-.489-.041-.66-.362-.831-.764-.095-.22-.355-.476-.576-.515-.986-.177-1.985-.389-2.98-.395-4.364-.026-8.666.457-12.822 1.872-1.78.606-3.469 1.419-4.88 2.696-1.174 1.064-2 2.338-1.648 4.013.116.553.547 1.038.82 1.561.183.348.49.711.483 1.061-.022.917-.964 1.293-1.81.802-1.245-.721-1.765-1.874-1.95-3.231-.38-2.803.876-4.853 2.994-6.495 2.393-1.853 5.18-2.847 8.057-3.597C14.228.41 17.406.116 20.628 0"/>
        <path d="M5.729 25.632c.16-.578.338-1.41.623-2.204 1.691-4.709 3.587-9.33 6.091-13.673 1.033-1.791 2.09-3.579 3.558-5.063.287-.29.685-.488 1.063-.662.404-.187.868-.115 1.097.254.193.31.262.746.248 1.12-.009.247-.223.521-.411.719-1.926 2.02-3.291 4.413-4.55 6.875-2.12 4.142-3.886 8.429-5.196 12.9-.04.135-.077.272-.125.404-.274.753-.738 1.086-1.363.985-.627-.102-1.027-.643-1.035-1.655M38.153 15.069a3.27 3.27 0 0 1-.37.928c-1.35 2.208-2.802 4.341-4.614 6.201a3.984 3.984 0 0 1-1.017.751c-.968.498-1.628.052-1.598-1.15.137-1.758.929-3.358 2.01-4.834.975-1.33 2.18-2.362 3.785-2.853.283-.087.58-.161.875-.175.783-.04 1.115.363.929 1.132zM20.86 17.147c.75-1.195 1.69-2.215 2.898-2.957.31-.19.66-.335 1.012-.425.189-.049.513-.006.605.121.098.137.076.477-.033.627-.41.57-.81 1.175-1.337 1.62-.704.596-1.507 1.081-2.301 1.558-.275.166-.648.167-.976.243l-.11-.138c.078-.218.12-.458.242-.65zm40.38-7.773c.654-1.418 1.377-2.794 2.236-4.084a20.19 20.19 0 0 1 1.102-1.502c.196-.243.399-.48.609-.714.028-.032.056-.067.085-.104.202-.257.424-.593.781-.371.036.022.059.08.071.157.036.22-.014.598-.12.793-.494.9-.992 1.804-1.537 2.675-.182.29-.369.576-.563.857-.157.228-.323.45-.497.667-.519.65-1.096 1.262-1.643 1.892a1.417 1.417 0 0 1-.256.221c-.094.067-.192.13-.283.2a36.58 36.58 0 0 1-.13-.102c.047-.196.062-.406.144-.585zm11.56 8.171a.787.787 0 0 1 .082-.234c.206-.348.428-.68.668-.995a8.71 8.71 0 0 1 1.655-1.668 8.178 8.178 0 0 1 1.004-.654c.057-.031.121-.052.181-.078.182-.078.373-.14.565-.17a.879.879 0 0 1 .434.045c.038.018.068.04.086.067.092.147.095.422.02.589-.137.3-.34.577-.552.832-.105.127-.213.25-.323.372-.33.364-.68.702-1.058 1.005a6.927 6.927 0 0 1-1.67 1.003 2.553 2.553 0 0 1-.25.09c-.253.078-.52.127-.777.197-.065.01-.13-.007-.118-.15.022-.132.035-.167.052-.251zm20.718 3.449c.16-1.327.571-2.037.515-3.417-.012-.283 1.296-1.513 1.288-1.79-.07.204-1.136.764-1.23.957-.871 1.768-3.104 3.94-4.64 5.21-.43.356-.92.66-1.426.893-.224.103-.669.075-.809-.08-.168-.185-.198-.586-.143-.864.073-.373.24-.746.446-1.07.73-1.147 1.506-2.266 2.244-3.409.897-1.39.718-2.519-.586-3.517-.572-.438-1.205-.799-1.82-1.18-.424-.262-.622-.582-.477-1.105a6.01 6.01 0 0 0 .238-1.35c.045-1.117-.683-1.62-1.735-1.238-1.162.42-1.887 1.79-1.559 3.007.171.632.221 1.221-.081 1.842-1.2 2.465-2.59 4.782-4.635 6.665-1.072.987-2.234 1.785-3.607 2.255-.994.34-2.014.57-3.062.274-.738-.207-1.142-.813-1.136-1.603.004-.64.283-.93 1.137-1.177a6.94 6.94 0 0 1 .409-.11c1.539-.346 2.919-1.015 4.168-1.983 1.228-.95 2.258-2.035 2.71-3.568.513-1.733-.593-3.19-2.392-3.18-.954.005-1.795.345-2.585.83-2.1 1.291-3.471 3.215-4.668 5.321a12.859 12.859 0 0 1-1.971 2.6c-.603.616-1.384 1.085-2.15 1.503-.545.299-1.023-.078-.914-.695.096-.546.313-1.083.546-1.592.486-1.058 1.033-2.089 1.525-3.145.369-.794.564-1.634.486-2.524-.112-1.29-1.052-2.124-2.337-2.085-1.11.033-2.042.506-2.895 1.163-1.385 1.07-2.493 2.402-3.533 3.799-.125.169-.276.453-.477.428-.176-.113-.111-.305-.085-.402.447-1.635 1.172-3.028 2.61-4.099 2.597-1.935 4.818-4.264 6.404-7.137.537-.974.899-1.998.86-3.132-.05-1.503-1.272-2.344-2.68-1.84-.894.32-1.585.926-2.176 1.639-1.9 2.293-3.3 4.88-4.406 7.636-.448 1.116-.852 2.249-1.85 3.036-.316.25-.412.624-.327 1.058.055.283.02.6-.045.886-.314 1.366-1.1 2.47-1.972 3.529-1.22 1.48-2.476 2.916-4.155 3.905-1.141.672-2.326 1.198-3.685 1.148-1.22-.046-1.948-.748-1.94-1.922a6.072 6.072 0 0 1 .242-1.566c.443-1.598 1.304-2.97 2.388-4.208.79-.903 1.695-1.668 2.864-2.016.276-.082.709-.028.903.148.13.118.047.61-.09.85-.252.44-.612.818-.93 1.22-.434.55-.46 1.135-.062 1.537.415.42 1.17.455 1.622-.049.538-.597 1.092-1.233 1.421-1.952.9-1.963-.18-3.748-2.324-3.97-1.154-.12-2.128.381-3.057.977-2.115 1.359-3.43 3.361-4.514 5.574a14.04 14.04 0 0 1-1.563 2.502c-.413.524-.995.954-1.579 1.293-.723.42-1.257.1-1.285-.744a8.732 8.732 0 0 1 .165-1.948c.322-1.663 1.068-3.171 1.79-4.687.197-.41.377-.847.452-1.291.17-1-.41-1.45-1.387-1.19a3.5 3.5 0 0 1-1.239.086c-1.06-.111-2.11-.199-3.143.159-2.206.764-3.905 2.196-5.153 4.131-1.003 1.556-2.077 3.027-3.422 4.308-1.057 1.005-2.227 1.793-3.6 2.265-1.012.349-2.048.586-3.113.278-.725-.21-1.128-.84-1.11-1.624.013-.616.293-.905 1.113-1.143.135-.04.27-.079.408-.11a10.53 10.53 0 0 0 4.217-2.005c1.208-.941 2.225-2.016 2.68-3.528.438-1.458-.265-2.882-1.679-3.114-.698-.115-1.498-.018-2.172.214-1.705.588-2.98 1.806-4.064 3.21-1.35 1.75-2.468 3.626-2.765 5.875-.344 2.61 1.337 4.523 3.97 4.581 2.407.053 4.468-.862 6.38-2.22.368-.26.717-.547 1.123-.86.012.237.016.394.027.55.088 1.184.712 2.07 1.711 2.386a3.343 3.343 0 0 0 2.382-.117c1.327-.573 2.369-1.514 3.293-2.612.702-.833.757-.812 1.3.102.83 1.398 1.998 1.874 3.504 1.27.786-.316 1.482-.858 2.225-1.302.002.005.044.079.073.156.7 1.884 2.158 2.65 4.057 2.766 1.924.116 3.53-.719 5.062-1.736.629-.418 1.21-.909 1.873-1.413-.093.31-.175.557-.239.807-.07.274-.149.55-.175.829-.047.485-.062.98.509 1.208.474.189.855.03 1.243-.534.371-.539.72-1.093 1.083-1.637 1.869-2.802 3.822-5.539 6.308-7.84.439-.406.935-.758 1.429-1.086 1.129-.75 1.196.325 1.017.912-.01.031-.028.064-.044.096-.475.987-.952 1.973-1.426 2.961-.527 1.097-.887 2.238-.798 3.473.108 1.496 1.45 2.638 2.848 2.42.414-.065.843-.165 1.213-.352.75-.376 1.464-.823 2.098-1.187.373.6.67 1.327 1.178 1.85 1.14 1.174 2.645 1.251 4.152 1.043 2.814-.391 5.087-1.834 7.016-3.85 1.642-1.714 2.81-3.755 3.84-5.881.685-1.416.871-1.458 2.203-.594.722.469.79.873.309 1.578-.638.933-1.3 1.856-1.864 2.833a9.744 9.744 0 0 0-.937 2.18c-.592 2.084.726 3.656 2.869 3.477.944-.078 1.78-.493 2.488-1.082.945-.786 1.816-1.662 2.704-2.485.55-.542.583-.55.585-.542z"/>
        <path d="M108.222 28.422c-1.402 2.69-2.977 5.259-5.27 7.302-.687.612-1.47 1.03-2.42 1.045-.926.014-1.503-.621-1.225-1.507.206-.655.574-1.281.973-1.847.966-1.367 2.358-2.272 3.694-3.225 1.148-.819 2.319-1.607 3.494-2.387.261-.173.747-.365.875-.382.128-.017.154.06.147.164-.088.28-.135.58-.268.837zM95.825 14.807c1.273-3.787 2.864-7.416 5.338-10.594.39-.5.81-.981 1.248-1.44.11-.115.364-.178.517-.136.114.031.328.216.306.506-.262.804-.48 1.66-.815 2.468-1.3 3.13-3.173 5.908-5.316 8.513-.258.314-.482.66-.759.955-.124.132-.545.475-.935.955-.003-.178.363-1.068.416-1.227zm21.766 1.831c-.043.077-.08.158-.124.234-1.055 1.822-2.342 3.455-3.93 4.84-.216.19-.485.318-.852.552-.017-.361-.067-.586-.03-.796.075-.433.197-.86.299-1.29.43-1.803.873-3.603 1.283-5.411.141-.623-.15-1.2-.615-1.39-.5-.205-1.091.025-1.445.59-.187.299-.356.611-.5.933-1.13 2.547-2.642 4.845-4.58 6.84-.558.572-1.26 1.026-1.951 1.441-.625.376-1.177.079-1.264-.647-.056-.465-.059-.966.05-1.418.618-2.54 1.532-4.958 3.057-7.113.24-.34.439-.729.56-1.125.136-.44-.049-.841-.419-1.118-.347-.26-.745-.254-1.079-.006-.335.25-.69.527-.905.874-.724 1.17-1.46 2.342-2.063 3.577-.972 1.987-2.13 3.833-3.661 5.43-.651.677-1.354 1.3-2.306 1.54-.75.19-1.4-.01-1.78-.597-.73-1.124-1.116-3.167.294-4.822.827-.97 1.803-.888 2.652-1.838 2.673-2.99 4.803-6.332 6.297-10.063.467-1.165.846-2.366.802-3.653-.048-1.4-1.17-2.365-2.545-2.18-1.086.148-1.88.812-2.543 1.6-3.133 3.71-5.068 8.048-6.475 12.649-.262.855-.453 1.86-.78 3.17-.284 1.764-.158 2.972-.056 4.763.418 1.696 1.583 2.916 3.029 3.118 1.226.17 2.368-.134 3.363-.839.8-.566 1.524-1.243 2.275-1.865.035.154.068.362.128.561.335 1.111.916 2.012 2.143 2.246.92.176 1.785-.066 2.588-.534 1.23-.714 2.171-1.745 3.076-2.817.129-.153.304-.266.517-.447.188 1.425-.393 2.656-1.463 3.289-1.352.8-2.71 1.59-4.053 2.404-2.077 1.26-4.059 2.642-5.738 4.423-.79.838-1.414 1.762-1.705 2.89-.405 1.572.117 2.969 1.45 3.688.487.263 1.055.373 1.586.553h.955c2.6-.645 4.389-2.341 5.855-4.486 1.69-2.474 3.145-5.06 4.037-7.945.116-.378.458-.781.804-.978 3.204-1.818 5.649-4.371 7.447-7.57.154-.274.266-.502.43-.838.166-.335 0-.532 0-.532-.725-1.063-1.479-1.023-2.115.113z"/>
    </g>
</svg>
