<svg xmlns="http://www.w3.org/2000/svg" width="160" height="116" viewBox="0 0 160 116">
    <g fill="none" fill-rule="evenodd">
        <path fill="#000" fill-rule="nonzero" d="M28.02 98.71c-.59-2.742-2.934-3.472-5.56-3.707-8.48-.752-9.982 5.329-9.982 7.896 0 4.39 1.339 8.022 9.659 8.022 1.537 0 5.775-1.516 5.775-3.98h11.972C39.398 114.25 26.596 116 21.012 116 9.443 116-.464 113.932.017 103c.341-7.807 8.025-13.284 23.32-12.945 8.521.194 16.713 2.739 16.745 8.656H28.02zm119.91 0c-.585-2.742-2.933-3.472-5.556-3.707-8.48-.752-9.982 5.329-9.982 7.896 0 4.39 1.335 8.022 9.663 8.022 1.537 0 5.771-1.516 5.771-3.98h11.972c-.485 7.308-13.284 9.059-18.872 9.059-11.568 0-21.472-2.068-20.995-13 .342-7.807 8.03-13.284 23.324-12.945 8.522.194 16.71 2.739 16.745 8.656h-12.07zM42.225 90.58h15.542l13.26 17.837h.105V90.58h9.962v24.768h-14.89L52.29 97.508h-.104v17.84h-9.962V90.58zm41.946 0h18.876c9.074 0 14.41 2.43 14.41 6.104 0 2.168-2.236 4.847-7.215 5.637v.071c5.996.343 8.208 3.98 8.208 6.16 0 4.366-5.2 6.796-15.348 6.796H84.17V90.58zm10.925 9.621h3.132c4.82 0 7.377-.361 7.377-2.28 0-2.06-2.13-2.743-6.47-2.743h-4.043v5.023h.004zm0 9.953h3.132c5.809 0 7.94-.585 7.94-2.504 0-2.06-2.69-2.746-7.029-2.746h-4.043v5.25z"/>
        <path d="M139.285 87.68c12.254 0 19.06-10.392 18.305-20.187-1.208-12.766-13.16-17.664-19.664-16.626 5.443-2.968 12.707-16.923 1.665-27.908-8.774-8.165-19.967-5.197-23.9-1.633 2.117-6.828-1.363-20.932-15.58-23.158C87.256-3.318 81.658 5.444 79.993 9.597c-2.424-5.935-8.324-12.318-19.366-11.43C46.56-.346 42.174 12.865 44.292 20.734c-5.599-3.712-15.127-5.346-23.447 1.634-10.74 10.536-4.995 24.788.91 28.203-6.509-.592-16.792 3.712-19.061 14.993-2.42 13.952 8.471 22.117 19.06 22.117h117.53z"/>
        <path fill="#D9782D" fill-rule="nonzero" d="M49.265 32.318L70.588 80.6 26.6 50.775c-11.037-7.233-8.8-19.636-2.683-25.1 8.648-7.234 20.877-4.725 25.35 6.643z"/>
        <path fill="#B01842" fill-rule="nonzero" d="M79.783 19.267L71.601 73.52 48.307 21.938C43.272 9.04 54.6.592 62.158.444c8.658-.892 19.515 5.334 17.625 18.823z"/>
        <path fill="#543B92" fill-rule="nonzero" d="M114.078 21.868L91 73.52l-7.377-46.621c-.631-7.103 4.082-7.25 5.81-8.584-.313-1.038-2.668-1.038-2.668-1.038h-4.396C81.899 5.139 91.945-.187 100.11.404c8.789.3 18.678 9.918 13.968 21.464z"/>
        <path fill="#397DB7" fill-rule="nonzero" d="M133.765 50.485L89.412 80.6l20.897-47.914c6.315-15.13 21.051-12.165 26.312-6.378 5.711 5.634 7.366 17.058-2.856 24.177z"/>
        <path fill="#6CB35D" fill-rule="nonzero" d="M138.026 85.32H87.059l41.402-27.915c10.165-6.508 20.927-.578 23.766 7.955 2.992 9.547-3.738 19.96-14.201 19.96z"/>
        <path fill="#ECB73B" fill-rule="nonzero" d="M5.46 64.878c3.998-9.79 15.065-13.246 24.9-7.343L72.941 85.32h-51.65c-10.76 0-19.21-9.215-15.83-20.442z"/>
    </g>
</svg>
