<svg width="49" height="48" viewBox="0 0 49 48" fill="none" xmlns="http://www.w3.org/2000/svg">
<path fill-rule="evenodd" clip-rule="evenodd" d="M48.2073 15.3932C47.1678 24.4979 46.486 25.0268 36.2597 24.4989L29.283 31.1051L28.7675 23.9537C23.5826 23.2714 23.2017 21.711 22.3102 15.7974C20.7997 5.76963 21.1603 5.64644 33.9061 4.3814C48.299 2.95161 49.5802 3.36372 48.2073 15.3932ZM28.3837 47.3681C28.3837 47.3681 16.1692 47.7218 6.07958 30.1958C-4.01007 12.6702 2.79004 0.897461 2.79004 0.897461L12.2586 3.11438L12.0973 15.8949L8.47471 19.7177L15.8668 32.1811L21.0113 31.0719L31.8854 37.2918L28.3837 47.3681Z" fill="#96969C"/>
</svg>
