<svg width="37" height="44" viewBox="0 0 37 44" fill="none" xmlns="http://www.w3.org/2000/svg">
<path fill-rule="evenodd" clip-rule="evenodd" d="M22.9464 43.134L0.236328 39.2172L4.775 0.34375L36.8688 4.8508L33.4194 35.3602L22.9464 43.134ZM7.03545 3.50116L3.41882 36.8835L20.5957 40.0409L21.9514 31.4701L30.9922 32.3681L33.7041 7.10581L7.03545 3.50116ZM26.9321 13.9243L27.3613 10.756L30.5931 11.2111L30.1886 14.4022L26.9321 13.9243ZM29.3884 20.7131L26.0845 20.1812L26.5571 16.6938L29.8462 17.099L29.3884 20.7131ZM28.5768 27.1095L25.2133 26.6153L25.6948 23.0606L29.0366 23.4811L28.5768 27.1095ZM19.9958 12.9061L20.4758 9.7858L25.5384 10.4987L24.9952 13.6398L19.9958 12.9061ZM23.9257 19.8339L19.0521 19.0493L19.5469 15.8305L24.5118 16.4425L23.9257 19.8339ZM22.8147 26.2635L18.0511 25.5639L18.5735 22.1646L23.4176 22.7741L22.8147 26.2635ZM9.5327 11.3699L9.84548 8.28774L18.2425 9.47115L17.7664 12.5791L9.5327 11.3699ZM16.8316 18.6911L8.91998 17.4171L9.21006 14.5556L17.3116 15.5544L16.8316 18.6911ZM15.8296 25.2379L8.23967 24.1238L8.56626 20.9065L16.3432 21.8851L15.8296 25.2379Z" fill="#96969C"/>
</svg>
