<svg width="44" height="52" viewBox="0 0 44 52" fill="none" xmlns="http://www.w3.org/2000/svg">
<path fill-rule="evenodd" clip-rule="evenodd" d="M32.4278 50.8323L31.1219 36.4068L38.4213 36.7304L37.0335 51.0451L32.4278 50.8323ZM40.0374 25.4528L39.7986 34.0702L25.9325 32.4158L29.6192 25.1723C28.1032 24.2204 25.825 22.3815 26.4111 20.1893C27.192 17.2724 28.4007 13.1933 28.4007 13.1933L30.891 11.9109C33.078 13.4713 37.0725 13.456 38.923 11.995L41.0665 13.1596C41.0665 13.1596 42.4434 17.3659 43.3339 20.1641C44.0004 22.2623 41.4025 24.4663 40.0374 25.4528ZM34.5955 0.506219C38.9417 0.506219 38.8638 4.99447 38.8638 9.24822L30.2531 9.22991C30.2536 5.40807 30.2487 0.506219 34.5955 0.506219ZM16.8636 29.0708L17.7748 51.1069C17.7748 51.1069 13.726 52.4105 13.4522 49.0612C13.209 46.0878 11.3422 33.6096 11.3422 33.6096L9.90166 33.5255C9.90166 33.5255 8.53512 45.0088 7.95595 48.7812C7.38368 52.507 3.38719 50.9649 3.38719 50.9649L4.71525 28.9615C4.71525 28.9615 -0.0957422 25.2104 0.636364 21.9377C1.28016 19.0613 2.16274 14.0605 2.16274 14.0605C3.36598 12.8563 5.40936 12.0662 7.71422 11.7006L10.841 16.1795L13.9593 11.7298C16.1512 12.0989 18.1314 12.8583 19.4136 14.0259C19.4136 14.0259 20.1516 19.1657 20.755 22.0278C21.3573 24.8893 16.8636 29.0708 16.8636 29.0708ZM6.60668 4.64024C6.60668 -1.6068 15.5908 -0.499581 14.8957 5.06077C14.2262 10.4109 6.60668 10.9674 6.60668 4.64024Z" fill="#96969C"/>
</svg>
