<svg xmlns="http://www.w3.org/2000/svg" width="170" height="41" viewBox="0 0 170 41">
    <path fill="#0110F1" fill-rule="evenodd" d="M18.283 17.073h5.408v23.258h-5.408v-2.435C16.065 39.966 13.68 41 11.128 41c-3.223 0-5.887-1.162-7.993-3.486C1.045 35.142 0 32.18 0 28.63c0-3.487 1.045-6.392 3.135-8.716 2.09-2.324 4.706-3.486 7.849-3.486 2.712 0 5.145 1.114 7.299 3.343v-2.699zM5.503 28.631c0 2.228.6 4.043 1.796 5.444 1.228 1.417 2.776 2.125 4.642 2.125 1.994 0 3.606-.684 4.834-2.053 1.228-1.417 1.843-3.216 1.843-5.397 0-2.18-.615-3.98-1.843-5.396-1.228-1.385-2.824-2.078-4.786-2.078-1.85 0-3.398.7-4.642 2.101-1.229 1.417-1.843 3.168-1.843 5.254zm24.984-11.558h5.384v2.078c.99-1.035 1.867-1.743 2.633-2.125.781-.398 1.707-.597 2.776-.597 1.42 0 2.903.461 4.45 1.385l-2.464 4.919c-1.021-.733-2.018-1.099-2.992-1.099-2.935 0-4.403 2.213-4.403 6.639V40.33h-5.384V17.073zm24.457 0v23.258h-5.385V17.073h5.385zm-6.198-9.67c0-.94.343-1.752 1.029-2.436.686-.685 1.507-1.027 2.465-1.027.973 0 1.802.342 2.488 1.027.686.668 1.03 1.488 1.03 2.46a3.38 3.38 0 0 1-1.03 2.483c-.67.684-1.491 1.027-2.464 1.027a3.394 3.394 0 0 1-2.49-1.027c-.685-.685-1.028-1.52-1.028-2.508zm30.2 9.67h5.408v23.258h-5.408v-2.435C76.728 39.966 74.343 41 71.79 41c-3.223 0-5.887-1.162-7.993-3.486-2.09-2.372-3.135-5.333-3.135-8.883 0-3.487 1.045-6.392 3.135-8.716 2.09-2.324 4.706-3.486 7.849-3.486 2.712 0 5.145 1.114 7.299 3.343v-2.699zm-12.78 11.558c0 2.228.6 4.043 1.796 5.444 1.228 1.417 2.776 2.125 4.642 2.125 1.994 0 3.606-.684 4.834-2.053 1.228-1.417 1.843-3.216 1.843-5.397 0-2.18-.615-3.98-1.843-5.396-1.228-1.385-2.824-2.078-4.786-2.078-1.85 0-3.398.7-4.642 2.101-1.229 1.417-1.843 3.168-1.843 5.254zM108.333 0h5.408v40.331h-5.408v-2.435c-2.122 2.07-4.523 3.104-7.203 3.104-3.19 0-5.839-1.162-7.945-3.486-2.09-2.372-3.135-5.333-3.135-8.883 0-3.47 1.045-6.368 3.135-8.692 2.074-2.34 4.682-3.51 7.825-3.51 2.728 0 5.17 1.114 7.323 3.343V0zM95.553 28.63c0 2.23.598 4.044 1.795 5.445 1.228 1.417 2.776 2.125 4.642 2.125 1.995 0 3.606-.684 4.834-2.053 1.229-1.417 1.843-3.216 1.843-5.397 0-2.18-.614-3.98-1.843-5.396-1.228-1.385-2.823-2.078-4.786-2.078-1.85 0-3.398.7-4.642 2.101-1.229 1.417-1.843 3.168-1.843 5.254zm24.983-11.557h5.409v2.15c1.882-1.863 4.004-2.794 6.365-2.794 2.712 0 4.826.851 6.341 2.555 1.309 1.448 1.963 3.812 1.963 7.092V40.33h-5.408v-12.99c0-2.292-.32-3.876-.958-4.752-.622-.891-1.755-1.337-3.398-1.337-1.787 0-3.055.59-3.805 1.767-.734 1.162-1.1 3.192-1.1 6.09V40.33h-5.409V17.073zm44.056 0H170v23.258h-5.408v-2.435c-2.218 2.07-4.603 3.104-7.155 3.104-3.223 0-5.887-1.162-7.993-3.486-2.09-2.372-3.135-5.333-3.135-8.883 0-3.487 1.045-6.392 3.135-8.716 2.09-2.324 4.706-3.486 7.85-3.486 2.711 0 5.144 1.114 7.298 3.343v-2.699zm-12.779 11.558c0 2.228.598 4.043 1.795 5.444 1.228 1.417 2.776 2.125 4.642 2.125 1.994 0 3.606-.684 4.834-2.053 1.229-1.417 1.843-3.216 1.843-5.397 0-2.18-.614-3.98-1.843-5.396-1.228-1.385-2.824-2.078-4.786-2.078-1.85 0-3.398.7-4.642 2.101-1.229 1.417-1.843 3.168-1.843 5.254z"/>
</svg>
