<svg xmlns="http://www.w3.org/2000/svg" width="72" height="72" viewBox="0 0 72 72">
    <g fill="none" fill-rule="evenodd">
        <rect width="72" height="72" fill="#242424" rx="10"/>
        <path fill="#EC2227" d="M53.492 15.224l-17.764 8.357-17.764-8.357c-1.246-.697-2.964.304-2.964 2.094V52.21c0 1.337.777 2.427 1.832 2.46a.567.567 0 0 0 .146 0c.036 0 3.951-.415 11.747-1.245l-2.205-3.237c-.964-1.386.205-2.589 1.441-2.121.248.094.518-.03.76.035L25.8 37.954a8.174 8.174 0 0 1-.054-.182c-.164-.876.308-1.722 1.105-2.004a1.667 1.667 0 0 1 2.054.86l3.351 8.517c.16-.884.92-1.517 1.794-1.494.873.024 1.6.698 1.714 1.59.121-.92.889-1.602 1.79-1.591.868 0 1.541.79 1.692 1.643l1.975-5.733c.282-.792 1.074-1.262 1.88-1.118.807.145 1.398.863 1.404 1.706l-1.759 13.265 11.629 1.246c.154.006.203.006.252 0 1.054-.034 1.773-1.117 1.773-2.456V17.31c-.002-1.789-1.662-2.783-2.908-2.086z"/>
    </g>
</svg>
