<?xml version="1.0" encoding="utf-8"?>
<!-- Generator: Adobe Illustrator 21.0.0, SVG Export Plug-In . SVG Version: 6.00 Build 0)  -->
<svg version="1.1" id="Слой_1" xmlns="http://www.w3.org/2000/svg" xmlns:xlink="http://www.w3.org/1999/xlink" x="0px" y="0px"
	 viewBox="0 0 474 359.3" style="enable-background:new 0 0 474 359.3;" xml:space="preserve">
<style type="text/css">
	.st0{enable-background:new    ;}
	.st1{clip-path:url(#SVGID_2_);enable-background:new    ;}
	.st2{fill:#BD9C15;}
	.st3{clip-path:url(#SVGID_4_);enable-background:new    ;}
	.st4{fill:#BA9A16;}
	.st5{clip-path:url(#SVGID_6_);enable-background:new    ;}
	.st6{clip-path:url(#SVGID_8_);enable-background:new    ;}
	.st7{clip-path:url(#SVGID_10_);enable-background:new    ;}
	.st8{clip-path:url(#SVGID_12_);enable-background:new    ;}
	.st9{clip-path:url(#SVGID_14_);enable-background:new    ;}
	.st10{clip-path:url(#SVGID_16_);enable-background:new    ;}
	.st11{clip-path:url(#SVGID_18_);enable-background:new    ;}
	.st12{clip-path:url(#SVGID_20_);enable-background:new    ;}
	.st13{clip-path:url(#SVGID_22_);enable-background:new    ;}
	.st14{clip-path:url(#SVGID_24_);enable-background:new    ;}
	.st15{clip-path:url(#SVGID_26_);enable-background:new    ;}
	.st16{fill:#F3C91D;}
	.st17{clip-path:url(#SVGID_28_);enable-background:new    ;}
	.st18{fill:#1E1E1C;}
</style>
<g>
	<g>
		<g class="st0">
			<g class="st0">
				<g>
					<defs>
						<path id="SVGID_1_" d="M241.9,37.6l-8.4-8.4c0,0,0,0,0.6,0.6L241.9,37.6L241.9,37.6z"/>
					</defs>
					<clipPath id="SVGID_2_">
						<use xlink:href="#SVGID_1_"  style="overflow:visible;"/>
					</clipPath>
					<g class="st1">
						<path class="st2" d="M233.5,29.9l8.4,8.4c0,0,0-0.6-0.6-0.6L233.5,29.9C232.9,29.2,233.5,29.9,233.5,29.9"/>
					</g>
				</g>
			</g>
			<g class="st0">
				<g>
					<defs>
						<path id="SVGID_3_" d="M178.8,102.7l8.4,8.4c0.6,0.6,0.6,0.6,1.3,0.6l-8.4-8.4C179.4,103.3,178.8,103.3,178.8,102.7z"/>
					</defs>
					<clipPath id="SVGID_4_">
						<use xlink:href="#SVGID_3_"  style="overflow:visible;"/>
					</clipPath>
					<g class="st3">
						<path class="st2" d="M178.8,102.7l8.4,8.4c0.6,0.6,0.6,0.6,1.3,0.6l-8.4-8.4C179.4,103.3,178.8,103.3,178.8,102.7"/>
					</g>
				</g>
			</g>
			<g>
				<polygon class="st4" points="241.9,43.4 250.3,51.8 241.9,38.2 233.5,29.9 				"/>
			</g>
			<g>
				<polygon class="st4" points="180,103.3 188.4,111.7 204.5,114.9 195.5,106.5 				"/>
			</g>
			<g class="st0">
				<g>
					<defs>
						<polygon id="SVGID_5_" points="192.3,136.2 200.7,144.5 200.7,144.5 192.3,136.2 						"/>
					</defs>
					<clipPath id="SVGID_6_">
						<use xlink:href="#SVGID_5_"  style="overflow:visible;"/>
					</clipPath>
					<g class="st5">
						<path class="st2" d="M192.3,136.2l8.4,8.4l0,0L192.3,136.2L192.3,136.2"/>
					</g>
				</g>
			</g>
			<g class="st0">
				<g>
					<defs>
						<path id="SVGID_7_" d="M223.8,107.8l8.4,8.4c-0.6-0.6-0.6-0.6-1.3-1.3l-8.4-8.4C223.2,107.2,223.2,107.8,223.8,107.8z"/>
					</defs>
					<clipPath id="SVGID_8_">
						<use xlink:href="#SVGID_7_"  style="overflow:visible;"/>
					</clipPath>
					<g class="st6">
						<path class="st2" d="M223.8,107.8l8.4,8.4c-0.6-0.6-0.6-0.6-1.3-1.3l-8.4-8.4C223.2,107.2,223.2,107.8,223.8,107.8"/>
					</g>
				</g>
			</g>
			<g class="st0">
				<g>
					<defs>
						<path id="SVGID_9_" d="M266.4,80.8l-8.4-8.4c-3.2-3.2-7.7-5.2-12.2-5.8c-10.3-1.3-21.3,4.5-26.4,15.5
							c-3.9,8.4-2.6,18,2.6,23.8l8.4,8.4c-5.8-6.4-6.4-16.1-2.6-23.8c5.2-11,16.1-16.7,26.4-15.5C259.3,75.6,263.1,77.5,266.4,80.8z
							"/>
					</defs>
					<clipPath id="SVGID_10_">
						<use xlink:href="#SVGID_9_"  style="overflow:visible;"/>
					</clipPath>
					<g class="st7">
						<path class="st2" d="M222.6,106.5l8.4,8.4c-5.8-6.4-6.4-16.1-2.6-23.8c5.2-11,16.1-16.7,26.4-15.5c4.5,0.6,8.4,2.6,12.2,5.8
							l-8.4-8.4c-3.2-3.2-7.7-5.2-12.2-5.8c-10.3-1.3-21.3,4.5-26.4,15.5C216.1,91.1,217.4,100.7,222.6,106.5"/>
					</g>
				</g>
			</g>
			<g class="st0">
				<g>
					<defs>
						<path id="SVGID_11_" d="M298.6,52.4l-8.4-8.4c0.6,0.6,1.3,2.6,0.6,3.9l8.4,8.4C299.2,54.3,299.2,53.1,298.6,52.4z"/>
					</defs>
					<clipPath id="SVGID_12_">
						<use xlink:href="#SVGID_11_"  style="overflow:visible;"/>
					</clipPath>
					<g class="st8">
						<path class="st2" d="M290.2,47.9l8.4,8.4c0.6-1.3,0.6-2.6-0.6-3.9l-8.4-8.4C290.8,44.7,290.8,46.6,290.2,47.9"/>
					</g>
				</g>
			</g>
			<g>
				<polygon class="st4" points="281.8,62.7 290.2,71.1 298.6,55.6 290.2,47.9 				"/>
			</g>
			<g>
				<polygon class="st4" points="192.3,136.8 201.3,144.5 220.6,158.1 212.3,149.7 				"/>
			</g>
			<g class="st0">
				<g>
					<defs>
						<path id="SVGID_13_" d="M286.3,73.7l8.4,8.4c-1.3-3.9-2.6-7.7-4.5-11l-8.4-8.4C283.8,66.6,285,69.8,286.3,73.7z"/>
					</defs>
					<clipPath id="SVGID_14_">
						<use xlink:href="#SVGID_13_"  style="overflow:visible;"/>
					</clipPath>
					<g class="st9">
						<path class="st2" d="M286.3,73.7l8.4,8.4c-1.3-3.9-2.6-7.7-4.5-11l-8.4-8.4C283.8,66.6,285,69.8,286.3,73.7"/>
					</g>
				</g>
			</g>
			<g>
				
					<rect x="217.9" y="141" transform="matrix(0.6879 -0.7258 0.7258 0.6879 -35.8206 210.2451)" class="st4" width="17.4" height="11.6"/>
			</g>
			<g class="st0">
				<g>
					<defs>
						<path id="SVGID_15_" d="M212.3,149.7l8.4,8.4c0.6,0,0.6,0.6,1.3,0.6c0.6,0,1.9,0,2.6-1.3l-8.4-8.4c-0.6,0.6-1.9,1.3-2.6,1.3
							C212.9,150.3,212.3,150.3,212.3,149.7z"/>
					</defs>
					<clipPath id="SVGID_16_">
						<use xlink:href="#SVGID_15_"  style="overflow:visible;"/>
					</clipPath>
					<g class="st10">
						<path class="st2" d="M212.3,149.7l8.4,8.4c0.6,0,0.6,0.6,1.3,0.6c0.6,0,1.9,0,2.6-1.3l-8.4-8.4c-0.6,0.6-1.9,1.3-2.6,1.3
							C212.9,150.3,212.3,150.3,212.3,149.7"/>
					</g>
				</g>
			</g>
			<g class="st0">
				<g>
					<defs>
						<path id="SVGID_17_" d="M228.4,136.8l8.4,8.4c0.6,0,1.9,0,2.6,0.6c3.2,0.6,6.4,0.6,9.7,0l-8.4-8.4c-3.2,0-6.4,0-9.7,0
							C230.3,136.8,229,136.8,228.4,136.8z"/>
					</defs>
					<clipPath id="SVGID_18_">
						<use xlink:href="#SVGID_17_"  style="overflow:visible;"/>
					</clipPath>
					<g class="st11">
						<path class="st2" d="M228.4,136.8l8.4,8.4c0.6,0,1.9,0,2.6,0.6c3.2,0.6,6.4,0.6,9.7,0l-8.4-8.4c-3.2,0-6.4,0-9.7,0
							C230.3,136.8,229,136.8,228.4,136.8"/>
					</g>
				</g>
			</g>
			<g class="st0">
				<g>
					<defs>
						<path id="SVGID_19_" d="M312.1,85.9l-8.4-8.4c0.6,0.6,0.6,1.3,0.6,2.6l8.4,8.4C313.4,87.2,312.7,86.6,312.1,85.9z"/>
					</defs>
					<clipPath id="SVGID_20_">
						<use xlink:href="#SVGID_19_"  style="overflow:visible;"/>
					</clipPath>
					<g class="st12">
						<path class="st2" d="M304.4,80.1l8.4,8.4c0-1.3,0-1.9-0.6-2.6l-8.4-8.4C304.4,78.2,304.4,78.8,304.4,80.1"/>
					</g>
				</g>
			</g>
			<g class="st0">
				<g>
					<defs>
						<path id="SVGID_21_" d="M273.5,120.1l8.4,8.4c1.3-1.3,2.6-3.2,3.9-5.2c1.3-1.9,2.6-3.9,3.2-5.2l-8.4-8.4
							c-0.6,1.9-1.9,3.9-3.2,5.2C276,116.8,274.7,118.8,273.5,120.1z"/>
					</defs>
					<clipPath id="SVGID_22_">
						<use xlink:href="#SVGID_21_"  style="overflow:visible;"/>
					</clipPath>
					<g class="st13">
						<path class="st2" d="M273.5,120.1l8.4,8.4c1.3-1.3,2.6-3.2,3.9-5.2c1.3-1.9,2.6-3.9,3.2-5.2l-8.4-8.4
							c-0.6,1.9-1.9,3.9-3.2,5.2C276,116.8,274.7,118.8,273.5,120.1"/>
					</g>
				</g>
			</g>
			<g class="st0">
				<g>
					<defs>
						<path id="SVGID_23_" d="M249,151l8.4,8.4c0.6,0.6,1.3,0.6,1.9,0.6c0.6,0,1.3,0,1.9-0.6l-8.4-8.4c-0.6,0.6-1.3,0.6-1.9,0.6
							C249.6,151.6,249.6,151.6,249,151z"/>
					</defs>
					<clipPath id="SVGID_24_">
						<use xlink:href="#SVGID_23_"  style="overflow:visible;"/>
					</clipPath>
					<g class="st14">
						<path class="st2" d="M249,151l8.4,8.4c0.6,0.6,1.3,0.6,1.9,0.6c0.6,0,1.3,0,1.9-0.6l-8.4-8.4c-0.6,0.6-1.3,0.6-1.9,0.6
							C249.6,151.6,249.6,151.6,249,151"/>
					</g>
				</g>
			</g>
			<g>
				<polygon class="st4" points="281.2,109.7 289.6,118.1 306.3,116.2 297.9,107.8 				"/>
			</g>
			<g>
				<polygon class="st4" points="300.5,105.2 309.5,113 312.7,88.5 304.4,80.1 				"/>
			</g>
			<g class="st0">
				<g>
					<defs>
						<path id="SVGID_25_" d="M297.9,107.8l8.4,8.4c1.3,0,2.6-1.3,3.2-3.2l-8.4-8.4C300.5,106.5,299.2,107.8,297.9,107.8z"/>
					</defs>
					<clipPath id="SVGID_26_">
						<use xlink:href="#SVGID_25_"  style="overflow:visible;"/>
					</clipPath>
					<g class="st15">
						<path class="st2" d="M297.9,107.8l8.4,8.4c1.3,0,2.6-1.3,3.2-3.2l-8.4-8.4C300.5,106.5,299.2,107.8,297.9,107.8"/>
					</g>
				</g>
			</g>
			<g>
				<polygon class="st4" points="277.3,136.2 286.3,143.9 281.8,128.4 273.5,120.1 				"/>
			</g>
			<g>
				<polygon class="st4" points="252.2,151.6 261.2,159.4 284.4,147.8 275.4,139.4 				"/>
			</g>
			<g>
				<path class="st16" d="M184.6,72.4c-1.3,0-2.6,1.3-3.2,3.2l-3.9,25.1c0,1.9,0.6,3.2,1.9,3.2l16.1,3.2c1.3,3.9,2.6,7.7,4.5,11
					l-8.4,15.5c-0.6,1.3-0.6,3.2,0.6,3.9l19.3,13.5c0.6,0,0.6,0.6,1.3,0.6c0.6,0,1.9,0,2.6-1.3l12.2-12.9c0.6,0,1.9,0,2.6,0.6
					c3.2,0.6,6.4,0.6,9.7,0l8.4,13.5c0.6,0.6,1.3,1.3,1.9,1.3c0.6,0,1.3,0,1.9-0.6l23.2-11.6c1.3-0.6,1.9-2.6,1.9-3.9l-3.9-16.1
					c1.3-1.3,2.6-3.2,3.9-5.2c1.3-1.9,2.6-3.9,3.2-5.2l16.7-1.9c1.3,0,2.6-1.3,3.2-3.2l3.9-25.1c0-1.9-0.6-3.2-1.9-3.2l-16.1-3.2
					c-1.3-3.9-2.6-7.7-4.5-11l8.4-15.5c0.6-1.3,0.6-3.2-0.6-3.9l-19.3-13.5c-0.6,0-0.6-0.6-1.3-0.6c-1.3,0-1.9,0-2.6,1.3l-12.2,12.9
					c-0.6,0-1.9,0-2.6-0.6c-3.2-0.6-5.8-0.6-9,0l-8.4-13.5c-0.6-0.6-1.3-1.3-1.9-1.3s-1.3,0-1.9,0.6l-23.2,11.6
					c-1.3,0.6-1.9,2.6-1.9,3.9l3.9,16.1c-1.3,1.3-2.6,3.2-3.9,5.2c-1.3,1.9-2.6,3.9-3.2,5.2L184.6,72.4z M222.6,106.5
					c-5.8-6.4-6.4-16.1-2.6-23.8c5.2-11,16.1-16.7,26.4-15.5c5.2,0.6,9.7,2.6,13.5,7.1c5.8,6.4,6.4,15.5,2.6,23.8
					c-5.2,11-16.1,16.7-26.4,15.5C230.9,113,226.4,111,222.6,106.5"/>
			</g>
			<g class="st0">
				<g>
					<defs>
						<path id="SVGID_27_" d="M275.4,139.4l8.4,8.4c1.3-0.6,1.9-2.6,1.9-3.9l-8.4-8.4C278,137.4,276.7,138.7,275.4,139.4z"/>
					</defs>
					<clipPath id="SVGID_28_">
						<use xlink:href="#SVGID_27_"  style="overflow:visible;"/>
					</clipPath>
					<g class="st17">
						<path class="st2" d="M275.4,139.4l8.4,8.4c1.3-0.6,1.9-2.6,1.9-3.9l-8.4-8.4C278,137.4,276.7,138.7,275.4,139.4"/>
					</g>
				</g>
			</g>
		</g>
	</g>
	<g>
		<g>
			<path class="st18" d="M316.9,290.8v-99.8c0,0,7.7-14.8,23.8-20.6v6.4v114.7L316.9,290.8L316.9,290.8z"/>
		</g>
	</g>
	<path class="st18" d="M271.1,239.9l32.2-41.2h-25.8l-30.9,39.9h-1.3v-67.6c-15.5,5.8-23.8,20.6-23.8,20.6v99.8h23.8l0,0V265
		l8.4-10.3l23.8,36.7h27.7L271.1,239.9z"/>
	<g>
		<g>
			<path class="st18" d="M445.1,243.7c0,30.3-18,49.6-45.7,49.6c-28.3,0-46.4-18.7-46.4-49.6c0-30.3,18-49,46.4-49
				C427,194.8,445.1,213.5,445.1,243.7z M376.8,243.7c0,18,8.4,29.6,21.9,29.6c12.9,0,21.9-11.6,21.9-29.6s-9-29.6-21.9-29.6
				C385.8,214.1,376.8,225.7,376.8,243.7z"/>
		</g>
	</g>
	<g>
		<g>
			<g>
				<path class="st18" d="M212.5,264.4c-3.9,18-20,29-43.8,29c-29,0-46.4-18-46.4-49s17.4-50.2,45.7-50.2s44.4,18,44.4,48.3v7.7
					h-64.4v1.3c0.6,14.2,8.4,23.2,21.9,23.2c9.7,0,16.7-3.2,19.3-9.7L212.5,264.4L212.5,264.4z M148.1,234.1h40.6
					c-0.6-12.9-8.4-20.6-20-20.6C157.1,213.5,148.7,221.8,148.1,234.1z"/>
			</g>
		</g>
	</g>
	<path class="st18" d="M68.9,196.7H52.8H28.9v101.1v32.2c15.5-5.8,23.8-20.6,23.8-20.6v-18h15.5c27.7,0,47.7-19.3,47.7-47
		C115.9,216,96.6,196.7,68.9,196.7z M63.1,271.4H52.8V216h10.3c19.3,0,30.3,9.7,30.3,27.7S82.4,271.4,63.1,271.4z"/>
	<g>
		<path class="st18" d="M323.6,329.6v-18.4h-6.7v-2.3h16v2.3h-6.7v18.4H323.6z"/>
		<path class="st18" d="M371.1,319.2c0,6.6-3.6,10.9-9.5,10.9c-6,0-9.5-4.2-9.5-10.9c0-6.7,3.7-10.9,9.5-10.9
			C367.5,308.3,371.1,312.5,371.1,319.2z M354.8,319.2c0,5.1,2.6,8.5,6.9,8.5c4.3,0,6.8-3.3,6.8-8.5c0-5.2-2.6-8.5-6.8-8.5
			C357.4,310.7,354.8,314,354.8,319.2z"/>
		<path class="st18" d="M410.9,319.2c0,6.6-3.6,10.9-9.5,10.9c-6,0-9.5-4.2-9.5-10.9c0-6.7,3.7-10.9,9.5-10.9
			C407.3,308.3,410.9,312.5,410.9,319.2z M394.5,319.2c0,5.1,2.6,8.5,6.9,8.5c4.3,0,6.8-3.3,6.8-8.5c0-5.2-2.6-8.5-6.8-8.5
			C397.2,310.7,394.5,314,394.5,319.2z"/>
		<path class="st18" d="M445.1,329.6h-12.6v-20.7h2.6v18.4h10V329.6z"/>
	</g>
</g>
</svg>
