<svg xmlns="http://www.w3.org/2000/svg" width="170" height="37" viewBox="0 0 170 37">
    <defs>
        <linearGradient id="a" x1="0%" y1="41.255%" y2="50%">
            <stop offset="0%" stop-color="#373B4B"/>
            <stop offset="100%" stop-color="#F40D4F"/>
        </linearGradient>
    </defs>
    <path fill="url(#a)" fill-rule="nonzero" d="M139.107 11.409V2.156c0-1.657 1.739-2.693 3.077-1.864l20.333 12.083-3.545 8.01h-.134l-3.812-8.77c-.067-.137-.2-.275-.402-.275h-15.517v.069zm13.31 3.521h-4.882v12.843c0 .208-.201.484-.469.484h-2.809c-.2 0-.468-.207-.468-.484V14.93h-4.682v19.127c0 1.657 1.739 2.693 3.077 1.864l15.45-9.183-5.217-11.808zm16.521 1.312l-3.277-1.933-4.682 10.426 8.026-4.764c1.338-.829 1.338-2.9-.067-3.729zM64.73 16.035c0-2.486-2.007-4.557-4.481-4.557h-6.087c-.2 0-.401.207-.401.414v14.017c0 .207.133.414.4.414h2.409c.2 0 .401-.207.401-.414v-5.386h1.405l2.742 5.593c.067.07.134.207.334.207h2.743c.334 0 .468-.345.334-.621l-2.809-5.386c1.739-.828 3.01-2.348 3.01-4.281zm-4.749 1.726h-3.01v-3.314h3.01c.87 0 1.538.69 1.538 1.588 0 .898-.669 1.726-1.538 1.726zm70.565-5.938v2.348c0 .207-.201.414-.402.414h-3.01v11.67c0 .207-.2.414-.4.414h-2.543c-.2 0-.4-.207-.4-.415v-11.6h-3.01c-.201 0-.402-.207-.402-.414v-2.348c0-.207.2-.414.401-.414h9.364c.268-.07.402.138.402.345zm-56.72 7.388c0 2.417 1.74 4.42 4.147 4.42 1.004 0 2.074-.346 2.81-1.036a.397.397 0 0 1 .535 0l1.672 1.795a.43.43 0 0 1 0 .552c-1.405 1.45-3.21 2.141-5.084 2.141-4.213 0-7.625-3.452-7.625-7.803 0-4.35 3.412-7.871 7.625-7.871 2.074 0 3.68.69 5.084 2.002.2.207.2.414 0 .622l-1.672 1.726a.397.397 0 0 1-.536 0c-.802-.69-1.805-1.105-2.809-1.105-2.408.07-4.147 2.14-4.147 4.557zm-61.468-7.18l-4.615 7.042v6.767c0 .207-.2.414-.401.414H4.934c-.2 0-.401-.207-.401-.414v-6.698L.05 12.03c-.134-.276 0-.621.335-.621H3.06c.134 0 .268.138.335.207l2.876 4.35 2.876-4.35c.067-.07.134-.207.334-.207h2.676c.2 0 .4.345.2.621zm82.002-.346a.366.366 0 0 0-.334-.207h-.2c-.135 0-.268.138-.335.207l-6.555 14.638a.377.377 0 0 0 .334.553h2.341a.745.745 0 0 0 .736-.553l.736-1.726h5.752l.736 1.726c.2.415.334.553.736.553h2.34c.335 0 .469-.276.335-.553L94.36 11.685zm-2.006 9.943l1.605-3.59 1.605 3.59h-3.21zM23.93 11.408c-4.08 0-7.358 3.384-7.358 7.665 0 4.212 3.277 7.596 7.358 7.596 4.08 0 7.357-3.384 7.357-7.596S28.01 11.41 23.93 11.41zm0 11.877c-2.208 0-4.08-1.933-4.08-4.212 0-2.347 1.872-4.28 4.08-4.28 2.274 0 4.08 1.933 4.08 4.28 0 2.279-1.873 4.212-4.08 4.212zm23.41-11.462v8.7a5.858 5.858 0 0 1-5.886 5.87c-3.21 0-5.82-2.693-5.82-5.87v-8.7c0-.207.201-.414.402-.414h2.542c.2 0 .4.207.4.414v8.562c0 1.45 1.071 2.693 2.542 2.693 1.472 0 2.542-1.174 2.542-2.693v-8.562c0-.207.134-.414.401-.414h2.542c.2 0 .335.207.335.414zm67.755 10.772c0 2.21-1.873 4.488-4.95 4.488-2.742 0-4.28-1.174-4.749-1.657-.2-.207-.267-.276-.133-.622l1.003-1.795c.2-.276.602-.207.736-.138.067.069 1.605 1.174 3.01 1.174.87 0 1.471-.553 1.471-1.312 0-.898-.736-1.588-2.14-2.21-1.806-.76-4.08-2.21-4.08-4.833 0-2.14 1.605-4.35 4.882-4.35 2.208 0 3.88 1.173 4.482 1.657.267.138.2.552.133.69l-1.07 1.658c-.133.207-.535.414-.735.276-.201-.138-1.74-1.312-3.01-1.312-.736 0-1.338.552-1.338 1.105 0 .828.602 1.38 2.274 2.14 1.605.76 4.214 2.072 4.214 5.04z"/>
</svg>
