<svg xmlns="http://www.w3.org/2000/svg" width="72" height="31" viewBox="0 0 72 31">
    <g fill="none" fill-rule="nonzero" >
        <path fill="#1C75BC" d="M11.756 5.46h7.75a6.598 6.598 0 0 1 3.474.897c1.905 1.174 2.839 3.732 1.919 5.748-.456 1.068-1.477 1.747-2.5 2.248.884.416 1.825.807 2.48 1.542 2.087 2.197 1.581 6.059-.903 7.79-1.118.788-2.518 1.117-3.896 1.095h-8.331c0-6.439-.022-12.877 0-19.316l.007-.004zm4.871 3.855v3.393c.853.05 1.732.115 2.564-.117 1.406-.348 1.565-2.66.18-3.135-.884-.28-1.833-.203-2.746-.141h.002zm-.002 7.274v4.41c.859-.016 1.72.038 2.575-.044.708-.084 1.465-.389 1.802-1.029.512-.982.312-2.398-.748-2.976-1.085-.586-2.408-.41-3.617-.365l-.012.004zM28.274 5.48c1.639-.026 3.282-.02 4.923 0-.012 6.427-.012 12.854 0 19.282a96.757 96.757 0 0 1-4.929 0c.032-6.432.034-12.86.006-19.282zm8.213-.037c4.334 0 8.67-.023 13.005 0v3.74c-1.335.083-2.672.032-4.009.025-.025.411-.047.824-.05 1.239v14.324c-1.622.035-3.244.028-4.866 0-.06-5.188-.017-10.377-.02-15.565-1.357 0-2.713.04-4.058-.017a47.414 47.414 0 0 1-.002-3.748v.002zm20.58-.015l1.55.013c-.387 1.101-.807 2.19-1.21 3.285l-1.246.048c.296-1.118.56-2.243.906-3.348v.002zm3.391.052c.42-.024.84-.041 1.26-.056v19.356h-1.184a1142.83 1142.83 0 0 1 0-16.9l-.407.478-1.141.016c.42-.997 1.001-1.92 1.472-2.894zm2.823-.034c2.906-.035 5.813 0 8.719-.016v.47a16.313 16.313 0 0 1-1.277 3.325c-.996 1.836-2.377 3.44-3.507 5.195-1.948 3.117-2.547 6.843-1.67 10.379l-1.28-.026a14.196 14.196 0 0 1-.388-4.279c.178-2.654 1.308-5.155 2.767-7.363 1.306-2.115 3.121-3.986 3.805-6.409-2.383-.096-4.768-.016-7.153-.037a49.53 49.53 0 0 1-.016-1.239z"/>
        <path fill="#DB5740" d="M5.654 3.811A16.511 16.511 0 0 1 16.32.001c3.426.029 6.758 1.1 9.544 3.066a18.208 18.208 0 0 1-1.586 2.109c-1.595-1.098-3.29-2.109-5.199-2.563-3.535-.94-7.3-.517-10.53 1.183a14.619 14.619 0 0 0-6.635 7.244 14.688 14.688 0 0 0-.125 10.926 15.743 15.743 0 0 0 3.8 5.619C2.24 24.978.322 20.864 0 16.708v-1.882c.32-4.22 2.359-8.29 5.654-11.015zm.82 2.335C7.73 5.01 9.132 3.909 10.769 3.397c.31.778.634 1.55.943 2.33-.842.461-1.749.818-2.526 1.364a12.59 12.59 0 0 0-5.36 7.982c-.642 2.895-.107 5.983 1.286 8.588 2.465 4.698 8.003 7.556 13.318 6.931.727-.082 1.444-.237 2.17-.318-2.576.926-5.44.916-8.082.253a14.344 14.344 0 0 1-8.304-5.977 14.254 14.254 0 0 1-2.331-7.919 14.667 14.667 0 0 1 4.59-10.485zm-2.03 10.238c.87.05 1.732.16 2.593.276.018 1.062-.11 2.13.057 3.186a10.348 10.348 0 0 0 4.888 7.194 10.788 10.788 0 0 0 7.307 1.377 11.072 11.072 0 0 0 7.79-5.393c.456-.745.724-1.581 1.095-2.367-.921 4.965-5.623 8.818-10.686 9.115a12.31 12.31 0 0 1-8.994-3.127c-2.89-2.538-4.414-6.463-4.05-10.26z"/>
    </g>
</svg>
