<svg xmlns="http://www.w3.org/2000/svg" width="122" height="24" viewBox="0 0 122 24">
    <g fill="none" fill-rule="nonzero" >
        <path fill="#E74B42" d="M22.746 2.702S.302 17.692.04 17.83c0-1.629-.092-3.266 0-4.885a3.324 3.324 0 0 1 1.581-2.571C3.96 8.813 16.018.783 16.599.406a2.482 2.482 0 0 1 2.623-.06 30.477 30.477 0 0 1 3.524 2.356z"/>
        <path fill="#242424" d="M45.973 4.494h3.786v4.78a10.306 10.306 0 0 1-3.385.533 4.067 4.067 0 0 1-3.125-1.168 4.792 4.792 0 0 1-1.104-3.384 4.482 4.482 0 0 1 1.196-3.383A4.628 4.628 0 0 1 46.734.696c.514 0 1.026.054 1.53.16.437.089.866.222 1.278.398l-.752 1.878a4.592 4.592 0 0 0-2.081-.474 1.97 1.97 0 0 0-1.605.686 2.97 2.97 0 0 0-.535 1.911c-.046.672.134 1.34.51 1.895.37.451.935.691 1.513.643.325.004.65-.03.97-.101V6.347h-1.589V4.494zm13.013.567a4.61 4.61 0 0 1-1.212 3.384 4.612 4.612 0 0 1-3.402 1.201H51.54V.823h3.034a4.543 4.543 0 0 1 3.26 1.049 4.14 4.14 0 0 1 1.153 3.189zm-2.458.084c.05-.64-.118-1.28-.476-1.81a1.753 1.753 0 0 0-1.454-.617h-.694v5h.527c.595.049 1.18-.186 1.58-.635.383-.568.565-1.251.517-1.938zm7.522-.65h3.786v4.779a10.306 10.306 0 0 1-3.385.533 4.067 4.067 0 0 1-3.117-1.168 4.792 4.792 0 0 1-1.103-3.384 4.482 4.482 0 0 1 1.212-3.383A4.628 4.628 0 0 1 64.836.696a7.434 7.434 0 0 1 1.563.16c.438.089.866.222 1.278.398l-.752 1.878a4.592 4.592 0 0 0-2.08-.474 1.97 1.97 0 0 0-1.606.686 2.97 2.97 0 0 0-.56 1.911c-.045.672.134 1.34.51 1.895.364.441.913.68 1.48.643.325.004.65-.03.969-.101V6.347h-1.563l-.025-1.853zm16.205.566a4.61 4.61 0 0 1-1.212 3.384 4.612 4.612 0 0 1-3.401 1.201h-2.808V.823h3.008a4.543 4.543 0 0 1 3.285 1.049A4.14 4.14 0 0 1 80.28 5.06h-.025zm-2.457.084c.05-.64-.118-1.28-.476-1.81a1.754 1.754 0 0 0-1.43-.617H75.2v5h.526c.596.049 1.18-.186 1.58-.635.383-.568.566-1.251.518-1.938h-.025zm7.17 4.653a3.625 3.625 0 0 1-2.607-.905 3.46 3.46 0 0 1-.936-2.597 3.77 3.77 0 0 1 .836-2.673 3.228 3.228 0 0 1 2.507-.93 3.318 3.318 0 0 1 2.373.845c.59.623.892 1.467.836 2.327v1.023H83.8c-.005.347.142.678.4.905.31.231.687.348 1.07.33.382.003.764-.036 1.137-.118.392-.094.773-.23 1.137-.406V9.29c-.358.187-.741.321-1.137.397a7.804 7.804 0 0 1-1.412.119l-.025-.009zM84.827 4.3a.971.971 0 0 0-.693.263c-.211.23-.328.532-.326.846h2.064c.008-.29-.09-.574-.276-.795a.914.914 0 0 0-.743-.305l-.026-.009zm6.235 5.372l-2.59-6.869h2.448l1.153 4.06v.483c.005.07.005.141 0 .211.004-.232.04-.463.109-.685l1.203-4.069h2.44L93.394 9.68 91.06 9.67zm8.19 0H96.92V.823h5.181v1.895h-2.858v1.691h2.624v1.946h-2.624l.008 3.316zm7.43.119a3.625 3.625 0 0 1-2.633-.914 3.46 3.46 0 0 1-.936-2.597 3.77 3.77 0 0 1 .836-2.673 3.228 3.228 0 0 1 2.507-.93 3.318 3.318 0 0 1 2.374.845c.589.623.892 1.467.836 2.327v1.04h-4.18c.006.354.17.686.444.905.308.231.686.348 1.07.33.382.003.763-.036 1.136-.118.392-.094.773-.23 1.137-.406V9.29c-.358.187-.741.321-1.137.397-.472.084-.95.123-1.429.119l-.025-.017zm-.142-5.499a.971.971 0 0 0-.694.262c-.21.23-.327.533-.326.846h2.081c.008-.29-.09-.573-.276-.795a.913.913 0 0 0-.752-.296l-.033-.017zm9.694 3.265c.049.655-.23 1.29-.743 1.692a3.478 3.478 0 0 1-2.132.567 9.183 9.183 0 0 1-1.312-.084 5.536 5.536 0 0 1-1.136-.296V7.523c.386.168.786.301 1.195.397.38.1.77.154 1.162.161.507 0 .76-.118.76-.355a.398.398 0 0 0-.209-.322 9.712 9.712 0 0 0-1.203-.55 3.08 3.08 0 0 1-1.304-.846 2.023 2.023 0 0 1-.368-1.286c-.03-.592.25-1.157.736-1.488a3.46 3.46 0 0 1 2.047-.516c.425-.002.85.05 1.262.152a7.46 7.46 0 0 1 1.229.431l-.635 1.531a7.04 7.04 0 0 0-.995-.423 3.257 3.257 0 0 0-.836-.152c-.384 0-.576.096-.576.288.009.128.085.241.2.296.377.192.765.362 1.162.508a4.43 4.43 0 0 1 1.061.583c.225.176.403.406.518.669.118.31.17.641.15.972l-.033-.017zm4.63.356c.39-.014.774-.094 1.137-.237v1.692c-.29.13-.592.229-.903.296a5.08 5.08 0 0 1-1.002.085c-.614.05-1.22-.161-1.672-.584a2.637 2.637 0 0 1-.518-1.794V4.596h-.836V3.63l1.045-.744.602-1.447h1.537V2.82h1.672v1.777h-1.672v2.673c.006.44.22.66.644.66l-.034-.017zm-72.91 15.227h-5.908v-1.074l2.265-2.301c.468-.467.911-.959 1.329-1.472a3.53 3.53 0 0 0 .476-.846c.105-.27.156-.557.15-.846a1.252 1.252 0 0 0-.359-.948 1.358 1.358 0 0 0-.986-.245 2.605 2.605 0 0 0-.978.186c-.391.173-.757.401-1.086.677l-.76-.939a4.901 4.901 0 0 1 1.42-.846c.47-.176.97-.265 1.471-.262.71-.038 1.41.191 1.964.643.492.435.763 1.073.735 1.734-.02.371-.108.735-.259 1.074-.154.4-.362.776-.618 1.117-.45.55-.94 1.068-1.463 1.548l-1.52 1.49v.058h4.178l-.05 1.252zm6.52-4.433a6.359 6.359 0 0 1-.702 3.469 2.764 2.764 0 0 1-2.232 1.14c-.88 0-1.708-.424-2.231-1.14a6.246 6.246 0 0 1-.752-3.384c-.085-1.2.17-2.4.735-3.46a2.763 2.763 0 0 1 2.244-1.114c.88.01 1.704.442 2.219 1.165a6.289 6.289 0 0 1 .752 3.324h-.033zm-4.538 0a6.518 6.518 0 0 0 .409 2.623c.203.478.668.789 1.183.789.514 0 .98-.31 1.182-.79a6.442 6.442 0 0 0 .376-2.537 6.484 6.484 0 0 0-.376-2.538 1.287 1.287 0 0 0-1.182-.789c-.515 0-.98.31-1.183.79a6.56 6.56 0 0 0-.41 2.452zm9.243 4.433h-1.37v-5.718c0-.683.016-1.224.05-1.625a7.158 7.158 0 0 1-.343.322l-1.346 1.116-.71-.905 2.582-2.047h1.179l-.042 8.857zm2.457-3.773c0-3.468 1.393-5.202 4.179-5.202.375-.007.75.027 1.12.101v1.184a3.776 3.776 0 0 0-1.054-.135 2.746 2.746 0 0 0-2.114.761 3.736 3.736 0 0 0-.769 2.445h.075a1.94 1.94 0 0 1 .794-.761 2.532 2.532 0 0 1 1.204-.27 2.375 2.375 0 0 1 1.855.735 2.89 2.89 0 0 1 .669 2.005 3.06 3.06 0 0 1-.77 2.2 2.765 2.765 0 0 1-2.105.846 2.915 2.915 0 0 1-1.672-.457 2.92 2.92 0 0 1-1.07-1.337 5.346 5.346 0 0 1-.342-2.115zm3.059 2.724c.425.026.839-.149 1.12-.473.285-.39.424-.87.392-1.354a1.8 1.8 0 0 0-.392-1.201 1.37 1.37 0 0 0-1.104-.44 1.812 1.812 0 0 0-.835.194c-.245.124-.453.31-.602.542-.143.206-.221.45-.226.702a2.26 2.26 0 0 0 .46 1.438c.274.38.714.6 1.178.592h.009zm6.752-7.808h2.6c.909-.071 1.82.113 2.632.533.56.37.88 1.016.836 1.692.018.464-.12.92-.393 1.294-.283.356-.69.589-1.137.652v.059c.52.065 1.001.31 1.363.694.307.4.462.898.434 1.404.03.722-.28 1.416-.835 1.87a3.521 3.521 0 0 1-2.29.676h-3.218l.008-8.874zm1.421 3.663h1.38c.455.034.91-.065 1.311-.288.295-.233.45-.604.41-.98a.985.985 0 0 0-.443-.906 2.762 2.762 0 0 0-1.421-.28h-1.237v2.454zm0 1.176v2.8h1.521c.48.035.957-.087 1.362-.347.323-.268.494-.679.46-1.1.028-.4-.149-.786-.468-1.023a2.483 2.483 0 0 0-1.42-.33h-1.455zm5.95-4.458a.792.792 0 0 1 .21-.584.83.83 0 0 1 .593-.203.83.83 0 0 1 .577.203.792.792 0 0 1 .208.584.784.784 0 0 1-.208.575.78.78 0 0 1-.577.211.83.83 0 0 1-.594-.211.775.775 0 0 1-.208-.575zm1.497 8.46H78.9v-6.684h1.413v6.683zm5.975-1.912a1.76 1.76 0 0 1-.71 1.505 3.361 3.361 0 0 1-2.031.525 4.738 4.738 0 0 1-2.131-.406v-1.21a5.189 5.189 0 0 0 2.173.541c.869 0 1.303-.265 1.303-.795a.63.63 0 0 0-.142-.423 1.673 1.673 0 0 0-.476-.355 8.15 8.15 0 0 0-.92-.415 4.233 4.233 0 0 1-1.554-.896 1.705 1.705 0 0 1-.401-1.168 1.537 1.537 0 0 1 .685-1.336 3.237 3.237 0 0 1 1.872-.474 5.244 5.244 0 0 1 2.215.482l-.46 1.074a4.882 4.882 0 0 0-1.805-.448c-.74 0-1.111.214-1.111.643a.645.645 0 0 0 .292.533c.4.247.827.448 1.27.6.42.149.82.345 1.196.584.482.316.762.867.735 1.447v-.008zm6.87 1.911H91.72V19.02c.031-.41-.078-.82-.309-1.159a1.187 1.187 0 0 0-.978-.38 1.545 1.545 0 0 0-1.303.533 2.981 2.981 0 0 0-.418 1.793v3.325H87.3v-9.416h1.413v2.394c-.003.41-.028.82-.076 1.227h.092c.2-.328.491-.59.836-.753a2.556 2.556 0 0 1 1.195-.262 2.124 2.124 0 0 1 1.807.62c.473.482.695 1.16.6 1.833l-.008 4.348zm2.833-3.485l.836-1.007 2.005-2.157h1.622l-2.666 2.876 2.833 3.824H98.95l-2.13-2.935-.778.643v2.3h-1.396v-9.466h1.396v4.602l-.092 1.32h.042zm8.065 3.663a3.187 3.187 0 0 1-2.424-.914 3.487 3.487 0 0 1-.836-2.538 3.829 3.829 0 0 1 .836-2.58 2.783 2.783 0 0 1 2.223-.939 2.716 2.716 0 0 1 2.073.846c.532.608.806 1.405.76 2.217v.77h-4.42c-.018.547.167 1.08.517 1.497a1.81 1.81 0 0 0 1.388.524c.368.004.735-.033 1.095-.11a5.71 5.71 0 0 0 1.086-.372v1.16a4.293 4.293 0 0 1-1.045.354 6.342 6.342 0 0 1-1.253.051v.034zm-.26-5.871a1.412 1.412 0 0 0-1.077.431c-.297.35-.467.792-.485 1.252h3.009a1.868 1.868 0 0 0-.393-1.26 1.346 1.346 0 0 0-1.053-.457v.034zm5.308 2.208l.835-1.007 2.006-2.157h1.621l-2.666 2.876 2.834 3.824h-1.672l-2.131-2.935-.777.643v2.3h-1.396v-9.466h1.396v4.602l-.084 1.32h.034z"/>
        <path fill="#407EB9" d="M22.656 2.743C24.46 3.884 28.26 6.51 28.26 6.51a2.802 2.802 0 0 0-2.248.163S1.415 23.146 1.23 23.215a.823.823 0 0 1-.865-.05.866.866 0 0 1-.36-.808v-4.472c.26-.13 18.633-12.438 22.651-15.142z"/>
        <path fill="#00965C" d="M17.232 12.371l5.203-3.457c1.07.718 11.987 7.977 13.396 8.902v4.563a.81.81 0 0 1-.297.769.778.778 0 0 1-.806.095c-.221-.086-10.12-6.628-14.84-9.809-.925-.657-1.544-1.279-2.656-1.063z"/>
        <path fill="#FEC641" d="M35.833 17.829c-1.379-.937-12.041-8.2-13.087-8.92a42.085 42.085 0 0 1 3.462-2.383 2.455 2.455 0 0 1 2.218-.165 68.382 68.382 0 0 1 6.584 4.585c.556.698.851 1.581.83 2.488-.007 1.465 0 2.93-.007 4.395z"/>
        <path fill="#4B4B4B" d="M20.678 16.978v5.815c0 .667-.528 1.207-1.18 1.207h-3.86a1.194 1.194 0 0 1-1.163-1.198v-5.824c0-.32.124-.627.345-.853.222-.226.522-.354.835-.354h3.86c.645.01 1.163.547 1.163 1.207z"/>
        <path fill="#787878" d="M21.367 16.114c0 .568-.459 1.029-1.025 1.029h-6.22c-.567 0-1.026-.46-1.026-1.029 0-.568.46-1.028 1.025-1.028h6.195a1.024 1.024 0 0 1 1.051 1.028z"/>
    </g>
</svg>
