<svg xmlns="http://www.w3.org/2000/svg" width="150" height="43" viewBox="0 0 150 43">
    <g fill="none" fill-rule="nonzero">
        <path fill="#ED0000" d="M49.705 14.969h1.064v6.723h9.163V14.97h1.064v14.524h-1.064v-6.805h-9.166v6.805h-1.064zM63.528 14.761h1.248v1.39h-1.248v-1.39zm.121 4.15h1.002v10.582H63.65V18.91zM66.65 31.237l.592-.83a6.758 6.758 0 0 0 4.213 1.503c2.392 0 4.09-1.389 4.09-4.107v-1.546c-.889 1.308-2.291 2.448-4.357 2.448-2.734 0-4.95-2.249-4.95-5.022s2.216-5.022 4.95-5.022a5.169 5.169 0 0 1 4.357 2.367v-2.105h1.002v8.93c0 1.537-.492 2.74-1.328 3.591-.889.902-2.25 1.41-3.785 1.41a7.803 7.803 0 0 1-4.785-1.617zm8.943-7.575c0-2.448-2.15-4.026-4.316-4.026-2.167 0-4.014 1.536-4.014 4.047a4.05 4.05 0 0 0 1.175 2.882 3.934 3.934 0 0 0 2.854 1.162c2.166.003 4.3-1.614 4.3-4.065zM78.77 14.346h1.003v6.538a4.076 4.076 0 0 1 3.765-2.22c2.638 0 4.173 1.826 4.173 4.358v6.47H86.71v-6.284c0-2.177-1.206-3.608-3.314-3.608-2.045 0-3.62 1.575-3.62 3.776v6.117h-1.001l-.003-15.147zM32.532 3.163L4.15 10.606 0 21.882 8.3 38.79 27.347 43l13.192-15.104-8.007-24.733zM21.563 28.888h-.928v-5.954h-8.004v5.954h-.942V16.184h.93v5.881h8.005v-5.881h.93l.01 12.704zm10.625 0h-8.28V16.184h.93v11.832h7.353l-.003.872z"/>
        <path fill="#242424" d="M89.784 14.969h3.15v11.619h7.14v2.905h-10.29zM100.168 23.954c0-3.197 2.538-5.789 5.953-5.789 3.415 0 5.91 2.553 5.91 5.789 0 3.235-2.537 5.788-5.952 5.788s-5.911-2.553-5.911-5.788zm8.795 0c0-1.64-1.165-3.07-2.884-3.07-1.779 0-2.843 1.389-2.843 3.07 0 1.68 1.165 3.07 2.885 3.07 1.784 0 2.842-1.39 2.842-3.07zM112.212 26.257c0-2.427 1.82-3.548 4.417-3.548a7.691 7.691 0 0 1 2.668.457v-.187c0-1.308-.797-2.032-2.353-2.032a7.967 7.967 0 0 0-3.027.601l-.777-2.405a9.557 9.557 0 0 1 4.254-.903c1.699 0 2.926.457 3.703 1.245.777.788 1.186 2.054 1.186 3.549v6.459h-2.994V28.29a4.187 4.187 0 0 1-3.315 1.41c-2.066 0-3.762-1.203-3.762-3.443zm7.139-.698v-.547c-.625-.279-1.3-.42-1.983-.415-1.328 0-2.147.538-2.147 1.576 0 .85.697 1.347 1.699 1.347 1.45.003 2.43-.806 2.43-1.96zM123.22 23.912c0-3.714 2.392-5.747 4.991-5.747a4.188 4.188 0 0 1 3.41 1.66v-5.479h3.112v15.147h-3.112v-1.597a4.01 4.01 0 0 1-3.415 1.804c-2.553 0-4.987-2.036-4.987-5.788zm8.448 0c0-1.847-1.207-3.07-2.668-3.07s-2.668 1.202-2.668 3.112c0 1.846 1.227 3.07 2.668 3.07 1.44 0 2.665-1.224 2.665-3.112h.003zM140.39 13.51h-2.307V12.7h2.31v-2.316h.82v2.319h2.31v.811h-2.31v2.319h-.82zM146.74 13.51h-2.31V12.7h2.31v-2.316h.82v2.319h2.31v.811h-2.31v2.319h-.82z"/>
        <path fill="#FFF" d="M25.9 7.045l-1.84.448-.152-.646 1.841-.448-.436-1.85.655-.159.436 1.85 1.841-.449.151.647-1.84.448.435 1.834-.655.16zM30.955 5.816l-1.841.448-.152-.647 1.841-.448-.438-1.861.655-.16.436 1.85 1.84-.448.152.646-1.841.448.438 1.873-.655.16z"/>
        <path fill="#D6D6D6" d="M6.042 5.603L34.68.04l.337 1.733L6.379 7.336z"/>
    </g>
</svg>
