<svg xmlns="http://www.w3.org/2000/svg" width="110" height="42" viewBox="0 0 110 42">
    <g fill="none" fill-rule="evenodd">
        <path fill="#67AE24" d="M33.346 4.063l.043.038-.043-.038zm-.467-.295h.033-.033zm1.151 1.097l.029.06-.029-.06zM32.61 3.64l.057.023-.057-.023zm1.538 1.472v.038-.038zM32.001 3.44h.038-.038zm1.576.83l-.028-.028.028.028zm.897 2.35v.22c.005-.075.005-.15 0-.22zm-.075-.662c0 .066 0 .136.028.202l-.028-.202zm-.147-.567v.056-.056zM26.82 3.34h.085-.085zm4.841.019h.076-.076zm-6.153.126h.179-.18zm8.933 4.248c.019-.275.027-.534.024-.778.015.26.007.519-.024.778zm-20.17 12.312l-.316 4.66 6.607-1.829.807-11.763c-3.445.92-6.857 8.392-7.098 8.932zM31.298 3.294h.09-.09z"/>
        <path fill="#36A862" fill-rule="nonzero" d="M13.14 38.53c-.109 1.785 1.277 3.325 3.114 3.462a3.398 3.398 0 0 0 2.432-.79 3.201 3.201 0 0 0 1.135-2.233l.701-9.322-6.904 1.845-.478 7.037z"/>
        <path fill="#219349" fill-rule="nonzero" d="M13.253 31.305l-.119 1.636 6.44-1.666.127-1.628-6.448 1.658z"/>
        <path fill="#35A32C" fill-rule="nonzero" d="M14.208 19.795l-.253 3.264c.955-4.672 6.505-8.997 7.16-8.954l.228-3.4c-3.364.907-6.677 8.067-7.135 9.09z"/>
        <path fill="#E2003F" fill-rule="nonzero" d="M12.617 32.016c-.837.23-1.73.115-2.483-.319a3.269 3.269 0 0 1-1.526-1.99 3.226 3.226 0 0 1 .299-2.501 3.209 3.209 0 0 1 2.004-1.52l3.193-.894 6.673-1.864L33.99 19.28c3.713-1.338 6.163-3.576 7.055-6.927l-.668 9.686a3.244 3.244 0 0 1-2.383 2.978L20.34 29.855l-6.754 1.865-.968.296zm-9.28-4.02a3.26 3.26 0 0 0-2.357.935 3.308 3.308 0 0 0 2.323 5.658 3.308 3.308 0 0 0 3.303-3.314 3.26 3.26 0 0 0-.95-2.326 3.241 3.241 0 0 0-2.32-.953z"/>
        <path fill="#0084C8" d="M24.66 3.688l-7.427 1.964a3.258 3.258 0 0 0-2.463 2.99l-.815 11.946s3.575-8.205 7.231-9.175L34.45 7.947c.316-4.465-2.027-5.282-9.79-4.259z"/>
        <path fill="#0073B8" d="M32.063 8.235l2.388-.557v-.066c.304-4.134-1.937-4.9-9.352-3.956l-1.293.325c11.721-.53 8.257 4.254 8.257 4.254z"/>
        <path fill="#F5A803" d="M30.449 20.31l2.986-.837-3 .818.014.02zM41.04 3.506c.087-1.801-1.239-3.35-3-3.505a6.327 6.327 0 0 0-1.245.148l-12.17 3.266c7.607-1.02 9.903-.206 9.593 4.247l-.784 11.812c3.657-1.341 6.07-3.582 6.948-6.938l-.657 9.7 1.315-18.73z"/>
        <path fill="#242424" fill-rule="nonzero" d="M51.652 10.694c.022.444-.15.875-.472 1.18a1.61 1.61 0 0 1-1.125.437 1.638 1.638 0 0 1-1.148-.438 1.517 1.517 0 0 1-.472-1.179c-.024-.45.149-.887.472-1.198a1.643 1.643 0 0 1 1.148-.437c.417-.005.82.152 1.125.437.323.311.496.749.472 1.198zm-.283 14.738h-2.622v-11.41h2.622v11.41zm7.397-15.256c2.18 0 3.85.4 5.012 1.198 1.162.799 1.743 2.048 1.743 3.746a5.124 5.124 0 0 1-.472 2.277 3.928 3.928 0 0 1-1.356 1.545 6.25 6.25 0 0 1-2.164.885c-.961.2-1.942.296-2.924.285H57.24v5.315h-2.73V10.542a13.538 13.538 0 0 1 2.111-.294c.781-.051 1.496-.076 2.145-.076v.004zm.194 2.377c-.693 0-1.263.022-1.71.067v5.134h1.322a6.67 6.67 0 0 0 3.033-.556c.705-.371 1.06-1.071 1.063-2.101a2.514 2.514 0 0 0-.284-1.241 2.038 2.038 0 0 0-.78-.785 3.66 3.66 0 0 0-1.18-.404 8.45 8.45 0 0 0-1.464-.123v.01zm12.754-2.377c2.166 0 3.823.4 4.97 1.198 1.146.799 1.719 2.02 1.719 3.66 0 2.048-1.003 3.436-3.01 4.165.275.336.59.743.945 1.222.356.479.71.998 1.063 1.56.362.56.709 1.134 1.04 1.72.33.586.623 1.162.878 1.726h-3.051a30.959 30.959 0 0 0-.889-1.578c-.318-.53-.633-1.046-.944-1.55-.315-.501-.63-.976-.945-1.426-.315-.45-.611-.847-.888-1.189h-2.258v5.705h-2.73V10.542c.699-.15 1.407-.248 2.12-.294a29.3 29.3 0 0 1 1.994-.076l-.014.004zm.193 2.377c-.576 0-1.11.022-1.6.067v4.873h1.19c.586.004 1.171-.032 1.752-.11a3.663 3.663 0 0 0 1.266-.394c.325-.173.592-.438.77-.761.187-.379.276-.799.26-1.222a2.447 2.447 0 0 0-.26-1.179 1.943 1.943 0 0 0-.746-.76 3.523 3.523 0 0 0-1.158-.404 8.384 8.384 0 0 0-1.46-.12l-.014.01zm23.015 5.315a9.438 9.438 0 0 1-.572 3.423 7.07 7.07 0 0 1-1.559 2.472 6.42 6.42 0 0 1-2.305 1.493 7.872 7.872 0 0 1-2.834.499 7.985 7.985 0 0 1-2.834-.5 6.393 6.393 0 0 1-2.277-1.511 7.194 7.194 0 0 1-1.569-2.472 9.27 9.27 0 0 1-.585-3.423 9.18 9.18 0 0 1 .585-3.408 7.174 7.174 0 0 1 1.592-2.472 6.57 6.57 0 0 1 2.33-1.503 8.034 8.034 0 0 1 5.587 0 6.368 6.368 0 0 1 2.306 1.503 7.35 7.35 0 0 1 1.568 2.472c.41 1.092.61 2.254.586 3.422l-.02.005zm-11.715 0c-.01.764.092 1.524.302 2.258.184.626.489 1.21.898 1.716.383.47.867.846 1.417 1.099a4.27 4.27 0 0 0 1.86.394 4.229 4.229 0 0 0 1.843-.394 3.971 3.971 0 0 0 1.417-1.099c.403-.51.701-1.094.879-1.72.21-.734.311-1.495.302-2.259a7.872 7.872 0 0 0-.302-2.253 4.965 4.965 0 0 0-.879-1.72 3.985 3.985 0 0 0-1.417-1.1 4.229 4.229 0 0 0-1.842-.394 4.27 4.27 0 0 0-1.861.395 3.92 3.92 0 0 0-1.417 1.112 5.084 5.084 0 0 0-.879 1.721 7.742 7.742 0 0 0-.302 2.24l-.02.004zM97.6 25.432V10.324h9.485v2.334h-6.755v3.855h6v2.334h-6v6.58l-2.73.005zm-46.406 9.721h-.449v-3.152h-1.62v3.152h-.449v-3.518h2.513l.005 3.518zm.883-3.527c.402-.04.806-.056 1.21-.048.835 0 1.124.238 1.124 1.103s-.284 1.103-1.077 1.103c-.27 0-.54-.017-.808-.047v1.426h-.449v-3.537zm1.2 1.773c.51 0 .68-.147.68-.713s-.175-.713-.68-.713h-.751v1.426h.75zm4.436 0c0 1.379-.36 1.83-1.38 1.83s-1.384-.451-1.384-1.83.364-1.83 1.384-1.83 1.375.447 1.375 1.83h.005zm-2.296 0c0 1.08.222 1.426.911 1.426.69 0 .917-.347.917-1.426s-.222-1.426-.917-1.426c-.694 0-.911.328-.911 1.426zm4.922-1.573c1.171.042 1.601.427 1.606 1.516.005 1.089-.43 1.45-1.606 1.493v.475h-.449v-.475c-1.176-.043-1.606-.428-1.606-1.493 0-1.065.425-1.478 1.606-1.516v-.476h.449v.476zm-.43.375c-.883.033-1.162.295-1.162 1.141 0 .846.279 1.084 1.162 1.112v-2.253zm.411 2.253c.883-.033 1.162-.294 1.167-1.112.005-.818-.284-1.108-1.167-1.14v2.252zm4.469.7c-.473.028-1.002.028-1.498.028a.597.597 0 0 1-.477-.15.606.606 0 0 1-.198-.463v-2.325a.606.606 0 0 1 .198-.463.597.597 0 0 1 .477-.15c.496 0 1.03 0 1.498.028v.352h-1.417c-.208 0-.298.1-.298.337v.766h1.507v.361h-1.507v.95c0 .239.09.343.298.343h1.417v.385zm2.943-.034c-.335.09-.68.13-1.025.119-1.011 0-1.375-.476-1.375-1.826s.364-1.825 1.375-1.825c.318-.01.635.024.944.1l-.047.342a7.694 7.694 0 0 0-.907-.048c-.685 0-.902.352-.902 1.427 0 1.074.217 1.426.902 1.426.329.006.657-.013.983-.057l.052.342zm2.834 0c-.334.09-.68.13-1.025.119-1.011 0-1.375-.476-1.375-1.826s.364-1.825 1.375-1.825c.318-.01.636.024.945.1l-.048.342a7.684 7.684 0 0 0-.907-.048c-.685 0-.902.352-.902 1.427 0 1.074.217 1.426.902 1.426.327.006.654-.013.978-.057l.057.342zm2.834.057v-2.586c-.002-.135.006-.27.024-.404H73.4c-.054.13-.116.257-.184.38l-1.564 2.586h-.472v-3.518h.43v2.568c0 .14-.008.279-.024.418.06-.132.125-.26.199-.385l1.54-2.582h.472v3.5l-.397.023zm3.954-1.764c0 1.379-.359 1.83-1.38 1.83-1.02 0-1.379-.465-1.379-1.844s.364-1.83 1.384-1.83 1.36.447 1.36 1.83l.015.014zm-2.296 0c0 1.08.222 1.427.912 1.427.69 0 .916-.348.916-1.427 0-1.079-.222-1.426-.916-1.426-.694 0-.902.314-.902 1.412l-.01.014zm5.55 1.74h-.448V33.47h-1.616v1.683h-.448v-3.518h.448v1.427h1.616v-1.427h.449v3.518zm1.304-1.103l-.344 1.103h-.473l1.13-3.404a.165.165 0 0 1 .17-.123h.472a.165.165 0 0 1 .165.123l1.129 3.404h-.472l-.345-1.103h-1.432zm.88-1.787a3.263 3.263 0 0 1-.086-.285h-.142l-.085.285-.444 1.402h1.2l-.444-1.402zm4.284 2.89h-.45v-3.152h-.694a.334.334 0 0 0-.373.357c-.108 1.203-.142 1.678-.364 2.134a.945.945 0 0 1-.892.661l-.043-.347a.753.753 0 0 0 .5-.442c.2-.437.251-.818.35-2.096a.639.639 0 0 1 .203-.48.63.63 0 0 1 .492-.167h1.266l.005 3.532zm2.073-2.106c.865 0 1.148.28 1.148 1.084s-.302 1.07-1.058 1.07c-.415.007-.83-.007-1.242-.043v-3.523h.448v1.427l.704-.015zm-.741 1.75h.741c.553 0 .7-.129.7-.675 0-.547-.128-.7-.7-.7h-.741v1.375zm5.082.356h-.448V33.47h-1.616v1.683h-.449v-3.518h.45v1.427h1.615v-1.427h.448v3.518zm1.304-1.103l-.359 1.103h-.472l1.129-3.404a.165.165 0 0 1 .17-.123h.472a.165.165 0 0 1 .166.123l1.143 3.404h-.473l-.345-1.103h-1.43zm.879-1.787c-.029-.09-.062-.195-.085-.285h-.142l-.085.285-.453 1.407h1.2l-.435-1.407zm2.437 1.293c-.472-.067-.656-.404-.652-.95 0-.752.326-1.032 1.11-1.032.398-.009.795.007 1.19.047v3.532h-.448v-1.426h-.76a.44.44 0 0 0-.473.376l-.288 1.05h-.472l.326-1.079a.668.668 0 0 1 .472-.475l-.005-.043zm1.21-1.578h-.742c-.472 0-.666.147-.67.67-.006.523.16.694.651.694h.76v-1.364zm-48.447 8.405v-2.568c-.003-.135.005-.27.023-.404h-.023c-.055.132-.116.26-.185.385l-1.554 2.587h-.472V36.86h.425v2.543c0 .14-.008.28-.024.419.06-.132.125-.261.199-.385l1.54-2.582h.472v3.528h-.401zm3.826 0h-.449v-1.688h-1.616v1.688h-.448V36.86h.448v1.426h1.616V36.86h.449v3.523zm2.14-3.128v3.128h-.45v-3.124h-1.128v-.4h2.707v.4l-1.13-.004zm3.84 3.128c-.472.028-1.001.028-1.497.028a.597.597 0 0 1-.478-.15.606.606 0 0 1-.198-.463v-2.33a.606.606 0 0 1 .198-.462.597.597 0 0 1 .478-.15c.496 0 1.03 0 1.497.028v.351h-1.417c-.208 0-.298.1-.298.338v.765h1.507v.362h-1.507v.95c0 .238.09.343.298.343h1.417v.39zm.69-3.523c.402-.04.805-.056 1.209-.048.836 0 1.124.243 1.124 1.103s-.283 1.103-1.077 1.103a7.15 7.15 0 0 1-.784-.062v1.427h-.472V36.86zm1.2 1.773c.505 0 .68-.147.68-.713s-.175-.718-.68-.718h-.728v1.426l.728.005zm4.317 1.75h-.449v-1.688h-1.615v1.688h-.449V36.86h.449v1.426h1.615V36.86h.45v3.523zm3.028-.024c-.472.028-1.001.028-1.497.028a.597.597 0 0 1-.478-.15.606.606 0 0 1-.198-.463v-2.306a.606.606 0 0 1 .198-.462.597.597 0 0 1 .478-.15c.496 0 1.03 0 1.497.028v.351h-1.417c-.208 0-.298.1-.298.338v.765h1.507v.362H68.2v.95c0 .238.09.343.298.343h1.417v.366zm1.956-3.104v3.128h-.45v-3.124h-1.123v-.4h2.706v.4l-1.133-.004zm4.039 1.297c.666.062.83.723 1.237 1.83h-.472c-.373-1.055-.539-1.654-1.181-1.654h-.383c.02.124.029.25.029.376v1.279h-.444V36.86h.444v1.103c0 .135-.009.27-.029.404h.383c.604 0 .812-.651 1.105-1.507h.473c-.326.95-.53 1.612-1.148 1.678l-.014.014zm4.43.067c0 1.379-.359 1.83-1.379 1.83s-1.384-.451-1.384-1.83.364-1.83 1.384-1.83 1.38.456 1.38 1.835v-.005zm-2.295 0c0 1.079.222 1.426.911 1.426.69 0 .917-.347.917-1.426 0-1.08-.222-1.426-.917-1.426-.694 0-.911.337-.911 1.43v-.004zm5.564 1.764h-.448v-1.688h-1.616v1.688h-.449V36.86h.449v1.426h1.616V36.86h.448v3.523zm2.754-3.328c1.172.043 1.602.428 1.606 1.516.005 1.089-.43 1.45-1.606 1.493v.475h-.43v-.475c-1.176-.043-1.606-.428-1.606-1.493 0-1.065.425-1.478 1.606-1.516v-.476h.45l-.02.476zm-.43.38c-.883.033-1.162.295-1.162 1.141 0 .846.279 1.084 1.162 1.113v-2.254zm.411 2.254c.884-.029 1.162-.295 1.167-1.113.005-.818-.283-1.108-1.167-1.14v2.253zm4.469.694c-.472.028-1.001.028-1.497.028a.597.597 0 0 1-.478-.15.606.606 0 0 1-.198-.463v-2.33a.606.606 0 0 1 .198-.462.597.597 0 0 1 .478-.15c.496 0 1.03 0 1.497.028v.351h-1.417c-.208 0-.298.1-.298.338v.765h1.507v.362h-1.507v.95c0 .238.09.343.298.343h1.417v.39zm.704-3.5c.402-.04.805-.056 1.21-.047.835 0 1.123.243 1.123 1.103s-.283 1.103-1.077 1.103c-.27 0-.54-.016-.807-.048v1.427h-.45v-3.537zm1.2 1.774c.51 0 .68-.147.68-.713s-.175-.718-.68-.718h-.751v1.426l.75.005zm3.94 1.726c-.473.028-1.002.028-1.498.028a.597.597 0 0 1-.478-.15.606.606 0 0 1-.198-.463v-2.33a.606.606 0 0 1 .198-.462.597.597 0 0 1 .478-.15c.496 0 1.03 0 1.497.028v.351h-1.417c-.208 0-.297.1-.297.338v.765h1.506v.362h-1.54v.95c0 .238.09.343.298.343h1.417l.033.39zm3.212.023h-.45v-1.711h-1.615v1.688h-.449V36.86h.45v1.426h1.615V36.86h.449v3.546zm3.779.77h-.308l-.033-.793h-2.555V36.86h.449v3.157h1.577V36.86h.45v3.157h.429l-.01 1.16zm2.81-.793v-2.568c-.002-.135.006-.27.024-.404h-.024c-.054.132-.116.26-.184.385l-1.554 2.587h-.473V36.86h.43v2.543c0 .14-.008.28-.023.419.059-.132.125-.26.198-.385l1.54-2.582h.472v3.528h-.406zm1.89-1.598c-.473-.066-.657-.404-.652-.95 0-.752.326-1.032 1.11-1.032a9.73 9.73 0 0 1 1.195.047v3.533h-.449v-1.427h-.76a.44.44 0 0 0-.473.376l-.293 1.05h-.472l.326-1.079a.673.673 0 0 1 .472-.475l-.004-.043zm1.204-1.578h-.741c-.473 0-.666.147-.671.67-.005.523.16.694.652.694h.76v-1.364z"/>
    </g>
</svg>
