<svg xmlns="http://www.w3.org/2000/svg" width="107" height="43" viewBox="0 0 107 43">
    <g fill="none" fill-rule="nonzero" opacity=".6">
        <path fill="#FF4C53" d="M0 0h41.643v20.498c-3.586-3.47-6.86-7.286-10.752-10.418l-.399-.653c-7.305 4.608-14.668 9.123-21.978 13.72L5.205 21.63c.77 2.526 1.279 5.145 2.314 7.583C12.146 33.098 15.946 37.87 20.347 42H0V0z"/>
        <path fill="#FFF" stroke="#FFF" stroke-width=".578" d="M30.492 9.427l.4.653c1.468 5.518 2.932 11.04 4.39 16.567H23.927c-.319 1.429-.7 3.447-2.5 3.593a59.47 59.47 0 0 1-9.253-.047c-1.782-.367-1.891-2.496-2.314-3.902-.815.939-1.532 1.966-2.313 2.916-1.041-2.432-1.55-5.051-2.314-7.583l3.303 1.517c7.287-4.591 14.65-9.106 21.955-13.714zM12.082 26.67c.104.397.324 1.167.428 1.58 2.534.42 5.142.14 7.704.182 1.1.186 1.568-.823 1.637-1.75-3.256-.07-6.512-.041-9.769-.012z"/>
        <path fill="#E42C31" stroke="#E42C31" stroke-width=".578" d="M30.891 10.08c3.893 3.133 7.166 6.947 10.752 10.418V42H20.347c-4.401-4.13-8.201-8.902-12.828-12.793.81-.95 1.527-1.977 2.313-2.916.44 1.406.579 3.535 2.314 3.902a59.47 59.47 0 0 0 9.254.047c1.799-.146 2.18-2.164 2.499-3.593H35.28a5253.72 5253.72 0 0 0-4.39-16.567z"/>
        <path fill="#E42C31" stroke="#E42C31" stroke-width=".578" d="M12.082 26.67c3.257 0 6.513-.058 9.77 0-.07.933-.539 1.942-1.638 1.75-2.562-.04-5.17.24-7.704-.18-.104-.38-.324-1.173-.428-1.57z"/>
        <path fill="#242424" d="M53.17 16.368c2.551-1.96 6.282-1.4 8.59.683l-1.221 1.359c-1.544-1.254-3.736-1.89-5.564-.91-2.892 1.505-3.181 6.207-.445 8.015 1.954 1.406 4.627.642 6.2-.957l1.492 1.109c-2.157 2.444-5.98 3.389-8.774 1.475-3.707-2.274-3.707-8.283-.278-10.774zm9.295 3.891h2.73v7.735h1.897v-7.729h2.73V18.69h-7.38c.023.38.023 1.172.023 1.57zm9.665.677c1.735-.514 4.262-1.097 4.87 1.336-2.39-.648-6.363-.374-6.611 2.84.26 2.917 4.14 3.652 6.136 2.007a2.778 2.778 0 0 0 2.134 1.003c-.121-2.444.411-5.022-.375-7.379-1.394-2.619-5.038-2.286-7.091-.682l.937.875zm4.378 2.84v1.943c-1.348.863-4.326 1.167-4.216-1.132.815-1.592 2.822-1.341 4.222-.81h-.006zm5.032.683c1.238 1.208 3.06 1.044 4.627.957V28h1.885v-9.333h-1.874c0 1.75 0 3.5-.052 5.215-1.237 0-2.77.227-3.51-1.033-.614-1.283-.26-2.8-.353-4.182h-1.868c.075 1.936-.411 4.305 1.156 5.792h-.011zM90.227 28h1.874c0-1.423-.104-2.917.44-4.235 1.191 1.37 2.273 2.823 3.389 4.252l2.267-.04c-1.417-1.71-2.776-3.465-4.158-5.192 1.353-1.377 2.712-2.742 4.048-4.118h-2.475a252.238 252.238 0 0 1-3.511 3.54v-3.546h-1.874V28zm10.226-7c1.77-.648 4.135-1.015 4.968 1.22-2.088-.2-4.847-.584-6.23 1.434-1.075 1.517 0 3.64 1.667 4.084 1.313.583 2.7.052 3.944-.444.746.303 1.47.642 2.198.992v-6.82c-1.128-3.19-5.038-3.138-7.461-1.569l.914 1.103zm4.39 2.782v1.96c-1.354.87-4.356 1.167-4.223-1.166.85-1.57 2.817-1.324 4.223-.817v.023z"/>
    </g>
</svg>
