<svg xmlns="http://www.w3.org/2000/svg" width="162" height="20" viewBox="0 0 162 20">
    <g fill="none" fill-rule="evenodd" opacity=".6">
        <path fill="#00467E" fill-rule="nonzero" d="M88.125 7.885v4.978c0 1.644-.457 3.16-1.695 4.348a5.726 5.726 0 0 1-2.438 1.36 9.252 9.252 0 0 1-4.965.066 5.414 5.414 0 0 1-2.025-1.022c-.146-.115-.24-.167-.412-.026-1.361 1.111-3 1.374-4.68 1.344a7.905 7.905 0 0 1-3.225-.692c-2.228-1.034-3.203-2.882-3.236-5.211-.053-3.537 0-7.078 0-10.619 0-.474.124-.596.618-.6h3.15c.54 0 .653.122.653.663v10.04c0 .856.191 1.653 1.027 2.075a2.866 2.866 0 0 0 2.798-.048c.623-.348.75-.993.833-1.637.036-.428.051-.857.044-1.285V2.556c0-.649.094-.741.75-.741h2.925c.645 0 .75.115.75.74v9.597c0 .397.042.793.128 1.181.11.77.721 1.374 1.5 1.482.398.075.806.087 1.207.033 1.208-.178 1.876-.96 1.876-2.222v-10c0-.774.06-.837.84-.837h2.924c.556 0 .657.104.66.652-.005 1.83-.007 3.644-.007 5.444zm40.125 10.47a.476.476 0 0 1-.536.37h-3.15c-.461 0-.57-.132-.57-.644V9.63a.583.583 0 0 0-.259.322c-.75 1.392-1.522 2.781-2.25 4.181a1 1 0 0 1-1.035.604 23.34 23.34 0 0 0-2.16 0 .958.958 0 0 1-.968-.563c-.806-1.433-1.638-2.855-2.463-4.281l-.188-.315c0 .218-.022.34-.022.459v7.904c0 .685-.113.792-.81.792H111c-.502 0-.66-.14-.66-.618V2.47c0-.496.139-.637.638-.637h3.285c.411-.03.798.2.963.574 1.208 2.178 2.438 4.345 3.66 6.512l.405.71c.109-.177.199-.318.282-.466a558.855 558.855 0 0 0 3.75-6.707 1.07 1.07 0 0 1 1.068-.63c1.065.026 2.13 0 3.195 0 .567 0 .657.096.66.644v4.197c.109.192 0 .37-.041.555a9.257 9.257 0 0 0 .045 6.037c.063.151.098.311.105.474-.086.791-.111 1.587-.075 2.382-.007.737.053 1.489-.03 2.24zm18.27-6.251c.18-.663.375-1.323.532-1.997a7.927 7.927 0 0 0-.517-4.674c0-.944 0-1.892.026-2.84 0-.704.079-.782.81-.786.825 0 1.65.023 2.475 0 .47-.035.92.187 1.174.578a1591.21 1591.21 0 0 0 6.352 8.448l.342.448c.124-.133.067-.285.067-.414V2.556c0-.656.087-.741.75-.741h2.835c.521 0 .634.118.634.626v15.64c0 .508-.124.63-.626.634h-2.79a1.024 1.024 0 0 1-.908-.456 3223.84 3223.84 0 0 0-6.615-8.752l-.266-.34v8.822c0 .618-.105.74-.75.74h-2.88c-.27 0-.517-.022-.593-.34a5.14 5.14 0 0 1-.022-.974c.045-1.608-.075-3.211-.09-4.815-.02-.168 0-.338.06-.496z"/>
        <path fill="#00467E" d="M99.184 1.581c2.823.07 5.201.941 7.091 2.938 3.589 3.792 3.09 11.481-3.488 13.814-3.716 1.315-7.218.741-10.207-1.914A7.801 7.801 0 0 1 90 10.696c-.221-5.4 3.941-8.889 8.745-9.092l.439-.023zm.071 4.123c-2.647-.004-4.567 1.974-4.567 4.615a4.386 4.386 0 0 0 1.29 3.25 4.5 4.5 0 0 0 3.277 1.309c2.595 0 4.5-1.9 4.5-4.567 0-2.667-1.875-4.607-4.5-4.607z"/>
        <path fill="#F68E1E" d="M128.276 13.663c-.945-2.344-.814-4.685 0-7.037.41-.938.944-1.818 1.587-2.619a9.98 9.98 0 0 1 6.288-3.47c2.7-.496 5.488.112 7.725 1.685a8.428 8.428 0 0 1 2.659 3.185c.461.46.506 1.086.634 1.663.375 1.715.045 3.363-.544 4.978a7.662 7.662 0 0 1-1.125 1.815 7.528 7.528 0 0 1-4.125 2.193c-.236.044-.469.085-.701.151-.75.167-1.538.078-2.303.141a6.968 6.968 0 0 1-2.508-.485c-.196-.104-.375-.204-.585-.304a3.547 3.547 0 0 1-.675-.54 11.815 11.815 0 0 0-.308-.304 2.864 2.864 0 0 1-.375-.604 5.807 5.807 0 0 1-.563-2.4 10.817 10.817 0 0 1 .608-4.1c.574-1.481 1.44-2.73 3.037-3.307a4.117 4.117 0 0 1 2.385-.163c1.238.292 1.97 1.11 2.36 2.278.113.321.192.654.235.992 0 .278.117.54.09.822.03.449.004.899-.075 1.341 0 .26-.063.515-.09.774a.551.551 0 0 1-.141.404c-.1.11-.241.177-.391.185h-4.537c-.308.048-.645-.122-.927.111-.053.16-.07.33-.052.496v.252c0 .17.071.326.078.497a1.1 1.1 0 0 0 .14.47c.034.103.08.202.134.296.462.841 1.279 1.03 2.134 1.082a10.004 10.004 0 0 0 3.585-.452 3.653 3.653 0 0 0 2.591-2.696c.353-1.274.54-2.549.109-3.841a6.508 6.508 0 0 0-.405-1.015 6.75 6.75 0 0 0-.99-1.407 6.02 6.02 0 0 0-.941-.815 6.8 6.8 0 0 0-3.627-1.34h-1.357c-.304.044-.611.066-.915.125a5.531 5.531 0 0 0-1.429.504 5.096 5.096 0 0 0-1.252.8c-.37.32-.703.678-.998 1.066a5.693 5.693 0 0 0-.536.819c-.253.467-.46.957-.619 1.463-.08.207-.14.422-.18.64-.083.346-.14.698-.168 1.052-.067.713-.083 1.43-.05 2.145.028.277.07.553.128.826.04.217.1.43.18.637.904 2.533 2.693 4.096 5.367 4.652.206.066.427.026.637.081.94.08 1.888.033 2.816-.137.255-.04.507-.115.75-.174a9.826 9.826 0 0 0 1.733-.644l.24-.108c.273-.048.487-.303.795-.226.079.074.132.172.15.278.022.1-.049.207.026.3.084.393.21.777.375 1.145.045.088 0 .151-.064.214-.065.049-.136.091-.21.126-.18.085-.375.174-.54.27-.255.138-.532.223-.795.341-.16.05-.314.114-.461.193-.232.115-.491.167-.727.278-.375.14-.777.233-1.167.344-.159.023-.317.055-.472.096-.19.023-.38.056-.567.1-.23.034-.461.045-.693.034h-1.2a4.176 4.176 0 0 1-.626-.03 14.712 14.712 0 0 1-2.318-.444c-.259-.085-.51-.197-.75-.29a12.111 12.111 0 0 1-2.014-1.058c-.409-.29-.802-.6-1.192-.912A9.085 9.085 0 0 1 129.57 16c-.157-.207-.296-.426-.45-.637a3.303 3.303 0 0 0-.304-.433 2.945 2.945 0 0 1-.27-.597.525.525 0 0 1-.097-.322c-.128-.085-.135-.226-.173-.348zM139.5 7.778l-.045-.06a1.135 1.135 0 0 0-1.579-.181 3.122 3.122 0 0 0-.87.882c-.082.151-.116.288.139.288.802-.04 1.609.052 2.411-.04a1.607 1.607 0 0 0-.056-.89z"/>
        <path fill="#F68E1E" fill-rule="nonzero" d="M47.25 10.244v-7.73c0-.618.079-.7.694-.7H51c.536 0 .656.127.656.66v5.374c0 .3.068.404.375.4 1.905-.015 3.809-.015 5.712 0 .31 0 .404-.074.4-.392v-5.33c0-.589.113-.707.698-.711h3.06c.551 0 .664.11.664.652v15.592c0 .534-.124.656-.66.66h-3.15c-.473 0-.611-.138-.611-.612v-5.555c0-.319-.064-.426-.413-.422-1.89.02-3.779.02-5.666 0-.326 0-.431.07-.427.41v5.464c0 .596-.11.707-.698.707h-3.105c-.484 0-.608-.122-.608-.607.016-2.618.023-5.237.023-7.86zm-30.78 0V2.467c0-.534.12-.66.656-.66h11.877c.536 0 .656.126.656.656v2.593c0 .54-.109.637-.664.637h-7.421c-.81 0-.664-.104-.679.692 0 .474.023.948 0 1.422-.023.349.079.452.442.449h6.072c.87 0 .934.063.934.937v2.355c0 .47-.14.604-.616.604h-6.375c-.375 0-.465.092-.446.44.03.608.03 1.215 0 1.823-.041.34.094.415.439.415h7.556c.664 0 .75.085.75.74v2.534c0 .492-.112.622-.588.622h-11.97c-.492 0-.62-.137-.62-.648v-7.819l-.003-.015zm23.805-8.64c1.512.018 3.004.343 4.384.955.529.237.589.37.345.878-.409.856-.829 1.707-1.241 2.56-.233.48-.35.533-.833.322a8.002 8.002 0 0 0-3.248-.741c-2.314-.012-4.26 1.711-4.5 3.985-.21 1.985.35 3.678 2.134 4.793 1.305.814 2.734.74 4.174.418a7.6 7.6 0 0 0 1.721-.633c.312-.16.495-.074.638.23.431.925.873 1.851 1.316 2.77.146.307.169.566-.21.74-3.33 1.378-6.727 1.582-10.08.06-2.366-1.07-3.66-3.037-4.151-5.515-.48-2.426-.236-4.76 1.177-6.87 1.609-2.39 3.945-3.597 6.788-3.915a6.636 6.636 0 0 1 1.586-.037zM7.47 1.81h6.656c.75 0 .814.082.814.822V4.99c0 .607-.112.711-.75.707-1.365 0-2.73 0-4.091-.018-.319 0-.439.066-.439.418v11.948c0 .567-.101.67-.679.67H6c-.668 0-.784-.11-.784-.77V6.22c0-.43-.105-.545-.529-.538-1.365.023-2.73 0-4.09 0C.1 5.685 0 5.593 0 5.063V2.47c0-.551.101-.655.679-.655L7.47 1.81z"/>
    </g>
</svg>
