<svg xmlns="http://www.w3.org/2000/svg" width="117" height="46" viewBox="0 0 117 46">
    <g fill="none" fill-rule="nonzero" opacity=".6">
        <path fill="#00B8DD" d="M31.07.336l-7.537 12.916 12.238 7.253S35.082.895 31.07.336z"/>
        <path fill="#D42D2C" d="M7.203 6.674C-1.414 14.766 0 23.708 1.436 28.053l9.715-4.717-8.718 6.97c3.047 4.682 14.579 15.57 14.579 15.57l5.502-14.401 1.015-18.223L31.066.336S16.653-2.2 7.203 6.674z"/>
        <path fill="#000" d="M48.117 31.652l-12.83-18.4S31.07 5.555 23.623 5.555c-8.524 0-13.37 6.808-13.37 6.808s-4.486 4.073-3.857 13.093c.628 9.02 13.189 14.776 13.189 14.776l25.75.885s4.397 0 4.666-4.512c.13-2.193-1.884-4.953-1.884-4.953z"/>
        <path fill="#0077BE" d="M22.514 31.475l-5.502 14.387s-9.884-9.32-13.782-14.42l19.284.033z"/>
        <path fill="#000" d="M56.993 12.208h-2.8v-1.844h7.638v1.844h-2.803v7.254h-2.035zM62.311 15.987c0-1.985 1.436-3.62 3.489-3.62 2.358 0 3.435 1.805 3.435 3.775 0 .156 0 .354-.026.52h-4.913c.13.826.878 1.417 1.723 1.363a2.328 2.328 0 0 0 1.712-.708l1.145.998a3.76 3.76 0 0 1-4.102 1.083 3.677 3.677 0 0 1-2.466-3.408l.003-.003zm4.978-.56c-.118-.88-.646-1.478-1.485-1.478-.84 0-1.371.583-1.53 1.479h3.015zM70.193 17.427c0-1.518 1.17-2.219 2.842-2.219a5.09 5.09 0 0 1 1.723.287v-.117c0-.817-.513-1.274-1.515-1.274-.668 0-1.33.128-1.948.375l-.5-1.503a6.3 6.3 0 0 1 2.74-.56c1.076 0 1.883.287 2.382.779.5.492.765 1.284.765 2.219v4.048h-1.935v-.765a2.732 2.732 0 0 1-2.132.881c-1.331.004-2.422-.75-2.422-2.151zm4.594-.442v-.354a3.143 3.143 0 0 0-1.278-.259c-.854 0-1.382.354-1.382.988 0 .53.449.842 1.077.842.951.014 1.583-.492 1.583-1.217zM78.426 12.494h2.003v.988a2.522 2.522 0 0 1 2.081-1.115 2.116 2.116 0 0 1 1.988 1.104 2.923 2.923 0 0 1 2.319-1.104c1.486 0 2.383.881 2.383 2.558v4.537h-1.988v-3.893c0-.934-.42-1.415-1.17-1.415s-1.21.481-1.21 1.415v3.893H82.83v-3.893c0-.934-.42-1.415-1.17-1.415s-1.21.481-1.21 1.415v3.893h-2.003l-.021-6.968zM90.668 9.975h2.002v9.487h-2.002zM93.797 15.987c0-1.985 1.436-3.62 3.489-3.62 2.358 0 3.434 1.805 3.434 3.775 0 .156 0 .354-.025.52h-4.913c.13.826.878 1.417 1.723 1.363a2.328 2.328 0 0 0 1.712-.708l1.145.998a3.76 3.76 0 0 1-4.102 1.083 3.677 3.677 0 0 1-2.466-3.408l.003-.003zm4.978-.56c-.118-.88-.646-1.478-1.486-1.478s-1.37.583-1.528 1.479h3.014zM101.679 17.427c0-1.518 1.17-2.219 2.842-2.219a5.09 5.09 0 0 1 1.723.287v-.117c0-.817-.513-1.274-1.515-1.274-.668 0-1.33.128-1.948.375l-.496-1.507a6.3 6.3 0 0 1 2.739-.56c1.076 0 1.884.288 2.383.78.499.491.764 1.284.764 2.218v4.052h-1.938v-.765a2.732 2.732 0 0 1-2.132.881c-1.331.004-2.422-.75-2.422-2.151zm4.594-.442v-.354a3.143 3.143 0 0 0-1.278-.259c-.854 0-1.382.354-1.382.988 0 .53.449.842 1.077.842.951.014 1.583-.492 1.583-1.217zM109.564 15.958c0-2.324 1.54-3.595 3.23-3.595a2.724 2.724 0 0 1 2.2 1.037V9.975h2.002v9.487h-2.002V18.45a2.602 2.602 0 0 1-2.2 1.128c-1.662.004-3.23-1.27-3.23-3.62zm5.437 0c0-1.153-.775-1.92-1.712-1.92-.937 0-1.726.753-1.726 1.945 0 1.193.79 1.922 1.726 1.922.937 0 1.712-.765 1.712-1.947zM54.437 28.945a4.794 4.794 0 0 1 3.092-4.371 4.909 4.909 0 0 1 5.278 1.15l-1.21 1.377c-.718-.637-1.317-1.012-2.368-1.012-1.554 0-2.674 1.27-2.674 2.856 0 1.585 1.076 2.855 2.674 2.855 1.051 0 1.697-.414 2.422-1.061L62.94 32.1c-.948.998-2.003 1.546-3.78 1.546a4.7 4.7 0 0 1-3.374-1.363 4.566 4.566 0 0 1-1.349-3.34zM63.747 30.02a3.764 3.764 0 0 1 2.256-3.587 3.863 3.863 0 0 1 4.218.727 3.73 3.73 0 0 1 .887 4.13 3.823 3.823 0 0 1-3.557 2.35 3.733 3.733 0 0 1-2.672-1.023 3.627 3.627 0 0 1-1.132-2.597zm5.66 0c.02-.5-.166-.986-.515-1.348a1.886 1.886 0 0 0-1.34-.573c-1.146 0-1.831.87-1.831 1.921-.02.5.165.986.515 1.348.35.362.833.57 1.34.574 1.145 0 1.83-.87 1.83-1.922zM72.802 26.538h2.003v.988a2.521 2.521 0 0 1 2.067-1.115c1.514 0 2.397.987 2.397 2.583v4.494h-2.002v-3.892c0-.934-.449-1.416-1.21-1.416-.76 0-1.249.482-1.249 1.416v3.892h-2.002l-.004-6.95zM81.308 28.216h-.83v-1.62h.83v-.443a2.276 2.276 0 0 1 .567-1.688 2.216 2.216 0 0 1 1.618-.545c.487-.013.972.053 1.436.195v1.634a2.544 2.544 0 0 0-.908-.17c-.46 0-.718.234-.718.754v.273h1.619v1.61h-1.594v5.272h-2.002l-.018-5.272z"/>
        <ellipse cx="13.573" cy="21.744" fill="#FFF" rx="4.038" ry="3.981"/>
        <path fill="#FFF" d="M24.541 21.263h-3.589v-2.368h9.791v2.368h-3.589v9.299h-2.613zM32.462 18.895h2.602v9.331h5.9v2.332h-8.502z"/>
    </g>
</svg>
