<svg xmlns="http://www.w3.org/2000/svg" xmlns:xlink="http://www.w3.org/1999/xlink" width="50" height="41" viewBox="0 0 50 41">
    <defs>
        <path id="a" d="M24.315 40.04C10.908 40.04 0 29.158 0 15.782c0-4.654 1.324-9.175 3.83-13.076L5.13.684 4.39 2.97a3.737 3.737 0 0 0 3.097 4.852l2.034.25-2.014.365a7.225 7.225 0 0 0-5.945 7.112c0 3.987 3.25 7.23 7.246 7.23a7.204 7.204 0 0 0 7.242-7.007l.01-.304h32.57v.31c0 13.377-10.907 24.26-24.315 24.26v.002z"/>
        <linearGradient id="b" x1="50%" x2="50%" y1="33.87%" y2="100%">
            <stop offset="0%" stop-color="#37B0FF"/>
            <stop offset="100%" stop-color="#0043F4"/>
        </linearGradient>
    </defs>
    <g fill="none" fill-rule="evenodd">
        <g>
            <use fill="#FFF" xlink:href="#a"/>
            <path stroke="#020302" stroke-width=".5" d="M24.065 39.789v-.002h.25c13.27 0 24.065-10.77 24.065-24.008v-.061H16.302l-.002.062a7.454 7.454 0 0 1-7.492 7.25c-4.134 0-7.496-3.356-7.496-7.481a7.475 7.475 0 0 1 6.15-7.358l.395-.072-.4-.05a3.987 3.987 0 0 1-3.305-5.176l.147-.452-.258.4A23.888 23.888 0 0 0 .25 15.781c0 13.156 10.66 23.874 23.815 24.008z"/>
        </g>
        <path fill="#000" fill-rule="nonzero" d="M27.162 9.14h1.133V.385h-1.133V9.14zM32.63.392h-.072c-.39 0-.78.002-1.17-.001-.052 0-.08.017-.107.061L29.06 3.948l-.469.738c.013.02.024.037.036.05 1.057 1.46 2.115 2.915 3.172 4.37.023.035.048.045.086.045H33.2c.016 0 .033-.003.057-.003l-3.333-4.524L32.63.394V.392zm9.832 1.169h2.714v7.578h1.142V1.556h2.713V.383h-6.569V1.56zM41.46.227l-.009-.004h-.011l-.012.003-.005.003-.005.004-.007.008-.007.009-5.986 5.982-.01.007V.397h-1.14v8.916c.027-.02.05-.03.065-.048l1.332-1.39 4.62-4.832.048-.044v6.14h1.137V.227h-.01zM24.453.36c-.365.003-.73.007-1.095.007-.042 0-.061.013-.076.053l-.935 2.47-.27.708-.001.005-.867 2.29-.15.395-.004-.007-.568 1.489c.185.454.366.908.548 1.362.006.019.027.032.044.048.014-.016.034-.03.041-.049l.73-1.883L24.394.67l.12-.31h-.058m-9.98.09c.24-.003.466-.004.692-.005.158-.002.312-.002.466-.005.038 0 .055.01.068.047.408 1.032.815 2.064 1.22 3.095l1.058 2.684c.007.018.017.035.027.065.055-.14.103-.267.15-.394l1.141-3.005c.312-.823.627-1.646.935-2.469.017-.041.034-.053.079-.053l1.092-.006c.016-.002.032-.002.057-.002l-.118.31-2.545 6.58c-.243.63-.486 1.258-.73 1.883-.006.02-.027.034-.04.051-.014-.013-.035-.027-.041-.047-.572-1.418-1.14-2.836-1.713-4.254l-1.569-3.902-.229-.569"/>
        <path fill="url(#b)" fill-rule="nonzero" d="M49.945 17.206c0 13.805-13.103 23.743-23.995 23.743-13.597 0-24.62-9.938-24.62-23.743 0-4.961 1.423-9.585 3.879-13.473-.134.41-.202.846-.202 1.3 0 2.153 1.589 3.93 3.64 4.186-3.616.666-6.36 3.879-6.36 7.743 0 .7.092 1.377.26 2.023.789 6.588 6.31 11.693 13.011 11.693 7.24 0 13.11-5.958 13.11-13.31l21.277-.16v-.002z"/>
        <path fill="#000" d="M23.936 20.85a.392.392 0 1 1 .39-.39.393.393 0 0 1-.39.393m-.939-2.35a2.116 2.116 0 1 0 0 4.233 2.113 2.113 0 0 0 2.113-2.115A2.112 2.112 0 0 0 23 18.506"/>
    </g>
</svg>
