<svg xmlns="http://www.w3.org/2000/svg" width="129" height="33" viewBox="0 0 129 33">
    <g fill="#FFF" fill-rule="nonzero" opacity=".5">
        <path d="M64.515 24.245a5.549 5.549 0 0 0 3.632 1.415c1.126 0 1.774-.482 1.774-1.283 0-2.014-6.33-1.509-6.33-5.73 0-2.528 2.197-3.888 4.88-3.888a6.511 6.511 0 0 1 4.303 1.461l-1.172 2.24a5.368 5.368 0 0 0-3.231-1.112c-1.103 0-1.774.428-1.774 1.236 0 2.037 6.33 1.462 6.33 5.676 0 2.27-1.896 3.966-4.826 3.966a7.26 7.26 0 0 1-5.004-1.89l1.418-2.091zM29 10.03h3.23v17.884H29V10.03zm13.64 4.75c3.91 0 7.032 2.808 7.032 6.735 0 3.926-3.13 6.733-7.032 6.733-3.901 0-6.94-2.768-6.94-6.733 0-3.966 3.085-6.734 6.94-6.734zm0 10.754a3.784 3.784 0 0 0 2.704-1.084 3.849 3.849 0 0 0 1.152-2.694v-.234a3.842 3.842 0 0 0-1.824-3.522 3.774 3.774 0 0 0-3.94 0 3.842 3.842 0 0 0-1.824 3.522c-.105 2.1 1.496 3.888 3.578 3.997h.154v.015zm12.206-12.69h-5.829v-2.798h14.866v2.799h-5.821v15.108h-3.2l-.016-15.108zm21.143 2.232h2.891v.965c.016.305.016.611 0 .917a4.67 4.67 0 0 1 4.049-2.17c3.454 0 5.652 2.753 5.652 6.734s-2.483 6.734-5.83 6.734a4.613 4.613 0 0 1-3.685-1.812c.053.368.078.74.077 1.112V33h-3.17l.016-17.923zm6.253 10.474c1.75 0 3.208-1.438 3.208-3.989 0-2.55-1.334-4.043-3.185-4.043-1.673 0-3.23 1.213-3.23 4.067 0 1.998 1.095 3.965 3.177 3.965h.03zM91.672 10h3.154v13.46c0 1.407.478 1.764 1.303 1.764.16.012.32.012.478 0v2.807a8.137 8.137 0 0 1-1.002.078c-1.75 0-3.932-.45-3.932-4.136V10zm13.556 4.75c3.91 0 7.032 2.808 7.032 6.734 0 3.927-3.13 6.734-7.001 6.734-3.871 0-7.002-2.776-7.002-6.734 0-3.957 3.116-6.702 6.97-6.702v-.031zm0 10.754c2.096.005 3.8-1.703 3.809-3.817v-.195a3.842 3.842 0 0 0-1.823-3.522 3.774 3.774 0 0 0-3.94 0 3.842 3.842 0 0 0-1.824 3.522c-.105 2.1 1.496 3.888 3.577 3.997h.2v.015zm10.024-10.458h3.207v12.908h-3.184l-.023-12.908zm7.471 2.73h-1.65v-2.52h1.758v-3.685h3.085v3.685h2.907v2.55h-2.907v5.024c-.055.68.194 1.348.679 1.823a2.255 2.255 0 0 0 1.827.634c.194.006.388-.01.578-.047v2.807a8.091 8.091 0 0 1-.972.078c-1.773 0-5.305-.529-5.305-4.844v-5.505zM116.513 10.05c.821 0 1.487.66 1.487 1.475 0 .815-.666 1.475-1.487 1.475-.821 0-1.487-.66-1.487-1.475 0-.391.157-.766.436-1.043a1.493 1.493 0 0 1 1.051-.432zM30.355 5.143c-.679 0-1.272.456-1.44 1.109h-3.26L23.8 4.402H0v.764h23.475l1.865 1.85h3.567c.196.74.93 1.209 1.69 1.079a1.477 1.477 0 0 0 1.23-1.578 1.482 1.482 0 0 0-1.48-1.35l.008-.024zm-6.471 3.684c-.324.002-.638.11-.894.306l-1.418-1.414H0v.764h21.24l1.264 1.254a1.467 1.467 0 0 0 .403 1.713c.5.421 1.22.467 1.77.113a1.47 1.47 0 0 0 .62-1.649 1.485 1.485 0 0 0-1.413-1.064v-.023zm3.081-5.877a1.483 1.483 0 0 0 1.508-1.33A1.477 1.477 0 0 0 27.256.023a1.487 1.487 0 0 0-1.7 1.077H0v.765h25.54a1.485 1.485 0 0 0 1.425 1.085z"/>
    </g>
</svg>
