<svg xmlns="http://www.w3.org/2000/svg" width="132" height="29" viewBox="0 0 132 29">
    <path fill="#FFF" fill-rule="nonzero" d="M50.42 22.899v-1.937h-8.101V5.443h-2.17V22.9h10.27zm8.14.314c-3.841 0-6.245-2.984-6.245-6.647 0-3.664 2.404-6.621 6.245-6.621 3.842 0 6.246 2.957 6.246 6.62 0 3.664-2.404 6.648-6.246 6.648zm0-1.754c2.692 0 4.182-2.303 4.182-4.893 0-2.565-1.49-4.868-4.182-4.868-2.691 0-4.207 2.303-4.207 4.868 0 2.59 1.516 4.893 4.207 4.893zm15.197 1.754c2.3 0 3.659-.942 4.626-2.199l-1.307-1.203c-.836 1.125-1.908 1.648-3.215 1.648-2.691 0-4.364-2.093-4.364-4.893s1.673-4.868 4.364-4.868c1.307 0 2.379.497 3.215 1.649l1.307-1.204c-.967-1.256-2.326-2.198-4.626-2.198-3.763 0-6.298 2.878-6.298 6.62 0 3.769 2.535 6.648 6.298 6.648zm17.418-.314h-1.96v-1.44c-1.046 1.152-2.483 1.754-4.182 1.754-2.142 0-4.416-1.44-4.416-4.188 0-2.826 2.274-4.16 4.416-4.16 1.725 0 3.163.549 4.182 1.727v-2.277c0-1.701-1.36-2.67-3.188-2.67-1.516 0-2.744.55-3.868 1.754l-.915-1.36c1.36-1.414 2.98-2.094 5.044-2.094 2.665 0 4.887 1.203 4.887 4.265V22.9zm-5.436-1.1c1.385 0 2.718-.523 3.476-1.57v-2.381c-.758-1.047-2.09-1.57-3.476-1.57-1.83 0-3.11 1.151-3.11 2.774 0 1.596 1.28 2.747 3.11 2.747zm11.512 1.1V5.443h-1.96V22.9h1.96zm5.083-14.446c.731 0 1.333-.576 1.333-1.309a1.34 1.34 0 0 0-1.333-1.334c-.706 0-1.307.602-1.307 1.334 0 .733.601 1.309 1.307 1.309zm.993 14.446v-12.64h-1.96v12.64h1.96zm13.132 0v-1.701h-7.109l7.004-9.448V10.26h-9.512v1.727h6.951l-6.951 9.395v1.518h9.617zm9.212.314c-3.737 0-6.429-2.696-6.429-6.647 0-3.664 2.613-6.621 6.22-6.621 3.815 0 6.063 2.983 6.063 6.778v.497h-10.219c.157 2.381 1.83 4.37 4.548 4.37 1.437 0 2.9-.576 3.894-1.596l.94 1.282c-1.254 1.256-2.953 1.937-5.017 1.937zm3.92-7.433c-.026-1.884-1.28-4.213-4.155-4.213-2.692 0-4.025 2.277-4.13 4.213h8.285zM14.156 28.35C6.338 28.35 0 22.005 0 14.176 0 6.347 6.338 0 14.156 0 21.973 0 28.31 6.347 28.31 14.175c0 7.83-6.338 14.176-14.155 14.176zm0-4.361c5.412 0 9.8-4.394 9.8-9.814s-4.388-9.813-9.8-9.813c-5.413 0-9.8 4.393-9.8 9.813 0 5.42 4.387 9.814 9.8 9.814z" opacity=".5"/>
</svg>
