<svg xmlns="http://www.w3.org/2000/svg" width="240" height="31" viewBox="0 0 240 31">
    <g fill="#2AAAE2" fill-rule="evenodd">
        <path d="M68.582 7.614c0-1.755 1.002-2.785 2.817-2.895 2.225-.135 3.297.54 4.135 2.649 1.706 4.293 3.398 8.591 5.102 12.885.135.342.294.677.474.998.158.283.371.259.526-.007a6 6 0 0 0 .39-.805c1.735-4.376 3.468-8.752 5.194-13.131.946-2.398 3.229-3.293 5.575-2.19.905.425 1.367 1.13 1.37 2.086.012 5.824.003 11.648.012 17.472 0 .323-.104.429-.43.424a109.717 109.717 0 0 0-3.064 0c-.305.004-.404-.094-.4-.392.037-3.332.064-6.664.09-9.996.015-1.736.021-3.473.03-5.21.002-.25.012-.562-.267-.628-.34-.08-.428.271-.518.497-.678 1.696-1.334 3.4-2.004 5.1-1.218 3.088-2.453 6.169-3.657 9.262-.845 2.169-3.93 1.901-4.814.634-.276-.396-.475-.824-.648-1.265-1.767-4.514-3.527-9.03-5.298-13.542-.11-.28-.19-.75-.543-.684-.383.071-.284.54-.283.858.027 4.875.061 9.75.088 14.626.005.85.083.728-.736.734-.86.006-1.721-.023-2.58.01-.439.018-.575-.098-.572-.544.021-2.894.011-5.789.011-8.683V7.614zM197.05 25.097c-.223.001-.363-.117-.505-.255-2.18-2.107-4.369-4.205-6.534-6.327-.518-.508-.965-1.076-.945-1.878.027-1.042.53-1.592 1.615-1.614 1.29-.026 2.58-.015 3.87-.01a5.61 5.61 0 0 0 1.013-.095c.745-.133 1.24-.555 1.434-1.259.365-1.326.373-2.679.084-4.01-.25-1.157-.923-1.615-2.452-1.648-2.221-.047-4.444-.028-6.666-.005-.887.01-1.29.492-1.292 1.456-.005 5-.013 9.999.012 14.998.003.553-.16.68-.69.656-.912-.04-1.827-.02-2.74-.006-.322.005-.48-.048-.479-.426.014-5.508.016-11.016.01-16.524-.003-1.824.747-2.58 1.865-2.987.506-.184 1.056-.223 1.59-.22 3.494.023 6.988-.085 10.48.057 2.257.091 3.802 1.267 4.287 3.444.454 2.04.456 4.12-.114 6.145-.634 2.257-2.057 3.255-4.451 3.266-.834.004-1.668.001-2.675.001 1.41 1.285 2.7 2.46 3.99 3.633 1.282 1.169 2.566 2.336 3.962 3.606-1.667 0-3.168-.003-4.669.002zM154.947 5.492c-.002-.416.08-.585.55-.566.948.037 1.9.03 2.849.002.4-.011.518.103.515.5-.018 2.404.004 4.808-.02 7.212-.005.464.12.59.598.586a623.2 623.2 0 0 1 9.463.003c.523.004.61-.169.606-.625-.02-2.369 0-4.738-.019-7.106-.003-.42.09-.59.558-.572.93.036 1.865.039 2.795 0 .49-.021.592.14.591.593-.015 6.14-.01 12.281-.01 18.422 0 1.154 0 1.154-1.18 1.154-.736 0-1.471-.021-2.205.008-.418.017-.553-.1-.55-.527.02-2.561-.002-5.123.022-7.684.004-.485-.09-.658-.634-.653-3.155.028-6.31.022-9.464.004-.443-.003-.574.109-.57.552.021 2.561-.005 5.123.023 7.685.006.52-.155.65-.663.627-.912-.041-1.828-.03-2.742-.004-.401.012-.515-.109-.513-.505.017-3.193.01-6.386.01-9.579 0-3.175.007-6.351-.01-9.527zm-40.541 5.293c1.105-1.803 2.22-3.602 3.306-5.416.2-.335.42-.45.809-.441 1.18.025 2.362.009 3.571.009 0 .272-.18.436-.293.618a5634.098 5634.098 0 0 1-8.105 13.022 1.49 1.49 0 0 0-.24.839c.01 1.737-.005 3.473.012 5.21.004.367-.107.485-.484.477a59.575 59.575 0 0 0-2.903 0c-.396.01-.523-.1-.518-.501.022-1.754.005-3.509.015-5.263a1.405 1.405 0 0 0-.23-.788 5733.858 5733.858 0 0 1-8.132-13.068c-.094-.151-.325-.315-.193-.492.067-.09.33-.052.505-.052 1.004-.004 2.008.015 3.011-.01.389-.011.61.11.81.441 1.947 3.21 3.91 6.41 5.871 9.613.09.147.193.287.322.478l2.866-4.676zm32.688-5.858c.453-.003.585.126.561.558-.035.647-.045 1.3.003 1.945.036.489-.153.572-.605.568-2.204-.022-4.407-.014-6.611-.008-.95.002-.84-.124-.84.797-.004 5.243-.008 10.486.008 15.73.002.457-.106.61-.59.59a33.031 33.031 0 0 0-2.687-.002c-.477.018-.637-.098-.635-.602.02-5.296.005-10.592.024-15.888.002-.498-.11-.648-.64-.64-2.275.03-4.55.003-6.826.022-.415.003-.564-.096-.541-.522a19.76 19.76 0 0 0 0-2.05c-.02-.404.118-.499.515-.497 3.153.016 6.306.009 9.459.009 3.135 0 6.27.01 9.405-.01zm76.344.53c-.003-.415.109-.544.538-.53.93.032 1.864.033 2.795 0 .44-.015.571.1.57.546-.017 4.948-.01 9.895-.01 14.842 0 .28.007.562 0 .842-.012.486.241.755.71.837.228.04.462.06.693.06 3.549.004 7.097.01 10.646-.006.419-.001.562.1.54.524-.038.682-.03 1.368-.003 2.052.015.369-.11.483-.485.478-1.47-.017-2.939-.007-4.409-.007-2.921 0-5.842.004-8.764-.005a6.184 6.184 0 0 1-1.174-.108c-1.015-.2-1.633-.981-1.636-2.053-.006-2.894-.002-5.789-.002-8.684 0-2.93.009-5.86-.01-8.789zm-13.252-.113c-.001-.33.087-.42.416-.414.985.019 1.971.034 2.955-.005.496-.02.536.196.535.59-.01 6.154-.006 12.308-.006 18.461 0 1.12 0 1.12-1.16 1.12-.753 0-1.505-.016-2.257.006-.355.01-.488-.058-.485-.456.02-3.208.012-6.416.011-9.625 0-3.225.006-6.451-.009-9.677zM40.128 15.5v7.75h-8.015V15.5h-.054V7.75h8.015V0h16.03v7.75h-8.015v7.75h-7.961zM8.015 0h8.015v7.75H24.098v15.5h-8.015V15.5H8.068V7.75H0V0h8.015zm32.113 23.25h8.014V31h-8.014v-7.75zm-16.03 0h8.015V31h-8.015v-7.75zm-16.243 0h8.014V31H7.855v-7.75z"/>
    </g>
</svg>
