<svg xmlns="http://www.w3.org/2000/svg" width="210" height="32" viewBox="0 0 210 32">
    <g fill="none" fill-rule="evenodd">
        <path fill="#008CE9" d="M42.05.147v7.935h-8.41v7.936h.057v7.935h8.41v-7.935h8.354V8.082h8.41V.147h-16.82zM0 .147v7.935h8.466v7.936h8.41v7.935h8.41V8.082H16.82V.147H0zm42.107 31.741h8.41v-7.935h-8.41v7.935zm-16.82 0h8.41v-7.935h-8.41v7.935zm-17.045 0h8.41v-7.935h-8.41v7.935z"/>
        <path fill="#4E4E4E" d="M93.451 3.365l-1.535 5.862c-.638 2.438-1.293 4.872-1.9 7.317-.121.488-.338.636-.817.607-.524-.033-1.058-.058-1.577.005-.687.083-.947-.185-1.105-.824-1.02-4.106-2.08-8.203-3.128-12.302-.058-.225-.064-.474-.32-.745v1.33c0 6.774-.007 13.548.013 20.322.002.59-.121.853-.773.781a7.354 7.354 0 0 0-1.426-.001c-.542.046-.672-.17-.667-.668.022-2.446.01-4.891.01-7.337V1.132c0-.965 0-.965 1.023-.965 1.128 0 2.258.038 3.383-.015.622-.03.856.159.988.76.83 3.773 1.705 7.536 2.569 11.302.048.213.12.421.187.654.328-.234.273-.59.34-.878A971.588 971.588 0 0 0 91.294.838c.122-.547.346-.701.894-.683 1.202.039 2.407.038 3.608 0 .562-.017.723.15.72.702-.022 4.597-.013 9.195-.013 13.793 0 3.448-.015 6.896.015 10.344.005.594-.184.775-.764.723a7.84 7.84 0 0 0-1.427 0c-.584.055-.762-.134-.756-.723.03-3.3.014-6.602.014-9.904V3.385l-.134-.02zm49.227 4.725c1.766-.867 3.668-.69 5.525-.553 3.188.234 4.802 1.97 4.873 5.314.087 4.107.018 8.217.034 12.325.001.426-.153.554-.568.538-.65-.024-1.306-.046-1.953.006-.594.047-.702-.189-.699-.713.02-4.035.01-8.07.013-12.105.001-1.857-.775-2.655-2.655-2.684a34.739 34.739 0 0 0-2.48.025c-1.469.082-2.177.83-2.179 2.252-.003 4.108-.027 8.217.021 12.325.009.782-.24.974-.967.899a8.548 8.548 0 0 0-1.577-.001c-.536.044-.67-.15-.667-.658.023-3.13.011-6.26.011-9.39 0-4.916.012-9.831-.014-14.746-.003-.612.164-.825.793-.768.572.052 1.154.04 1.728.002.52-.034.69.13.682.653-.028 2.176-.014 4.353-.008 6.529 0 .237-.066.485.087.75zm-32.916 14.337c.42-1.568.841-3.137 1.26-4.706.852-3.19 1.714-6.38 2.543-9.576.133-.51.338-.733.901-.683a11.37 11.37 0 0 0 1.803.002c.618-.044.713.156.55.711-.872 2.958-1.714 5.924-2.56 8.889-1.05 3.67-2.091 7.342-3.137 11.013-.162.567-.402 1.102-.66 1.634-.723 1.495-1.942 2.175-3.608 2.163-.651-.005-1.303-.017-1.954.005-.373.012-.549-.083-.53-.486.032-.658-.203-1.433.079-1.95.334-.613 1.215-.19 1.85-.275.857-.114 1.383-.529 1.62-1.309.17-.561.289-1.137.447-1.703.069-.243.114-.467-.245-.44-.477.037-.493-.314-.591-.606-1.9-5.613-3.8-11.226-5.698-16.84l-.272-.803s2.057-.005 2.667 0c.66-.01.851.202 1.018.758 1.352 4.5 2.737 8.991 4.113 13.485.075.244.168.482.253.723l.15-.006zm93.782-11.124l.001 10.274c0 1.106.27 1.386 1.419 1.401 1.429.019 2.858.021 4.286 0 .456-.008.636.128.598.582-.056.678.276 1.544-.124 1.99-.416.465-1.322.134-2.011.15-1.303.03-2.607.016-3.91.005-2.153-.017-3.389-1.2-3.421-3.34-.034-2.201-.01-4.403-.01-6.605 0-3.963.003-7.926-.002-11.889-.002-1.08.145-.951-1.018-.957-1.278-.007-2.557-.018-3.835.007-.47.009-.656-.106-.667-.607-.048-2.148-.065-2.147 2.157-2.147 1.93 0 3.86.02 5.79-.013.582-.01.767.134.762.728-.03 3.474-.014 6.947-.015 10.421zm-78.542 5.015c0-1.81-.024-3.62.014-5.429.012-.567-.176-.717-.727-.687-.774.043-1.553-.001-2.33.015-.378.008-.55-.11-.534-.504.024-.586.025-1.174 0-1.76-.017-.407.179-.494.545-.486.827.016 1.654-.013 2.48.012.424.012.57-.124.56-.544-.025-1.1.007-2.201-.016-3.301-.009-.406.104-.572.546-.551.675.032 1.355.04 2.029-.002.526-.032.625.186.612.641-.03 1.027.026 2.056-.023 3.08-.028.575.185.695.728.681 1.377-.035 2.757.003 4.135-.02.446-.006.64.114.61.577a12.386 12.386 0 0 0 0 1.613c.032.476-.185.573-.62.567-1.403-.02-2.807.011-4.21-.017-.488-.01-.642.131-.64.616.019 3.57.005 7.141.011 10.712.002.916.406 1.368 1.353 1.413 1.15.055 2.305.051 3.457.032.48-.008.684.118.65.614-.039.56-.02 1.125-.005 1.687.01.315-.117.437-.438.433-1.678-.024-3.363.044-5.034-.076-1.816-.13-3.095-1.767-3.14-3.886-.04-1.81-.009-3.62-.009-5.43h-.004zm40.1-7.95c2.037-1.356 4.276-.764 6.42-.89.284-.017.414.125.395.4a.478.478 0 0 0 0 .074c.183 2.442.183 2.441-2.297 2.442-.627 0-1.254-.01-1.88.005-1.503.035-2.473.909-2.49 2.376-.037 3.229-.007 6.458-.021 9.687-.002.438.187.537.588.53.952-.02 1.906.012 2.857-.014.466-.013.659.1.671.604.051 2.127.068 2.126-2.099 2.126-2.406 0-4.813-.017-7.22.013-.565.007-.762-.144-.71-.698.048-.51.03-1.027.005-1.54-.02-.392.149-.515.53-.502.575.02 1.153-.008 1.729.008.36.01.48-.133.479-.478-.008-3.938-.01-7.877 0-11.815.001-.405-.18-.498-.546-.487-.55.017-1.103-.01-1.654.008-.37.013-.558-.085-.539-.49a19.36 19.36 0 0 0 0-1.761c-.017-.397.154-.501.532-.498 1.554.014 3.11.034 4.662-.007.693-.02.489.45.587.906zm20.857 6.821c0 2.371.018 4.743-.014 7.114-.007.562.18.707.73.694 1.401-.034 2.805.009 4.208-.022.505-.01.658.159.627.63-.035.536-.029 1.077-.001 1.613.02.395-.146.497-.525.496-2.555-.011-5.11-.022-7.665.006-.61.006-.536-.336-.536-.705.003-4.645-.015-9.29.02-13.934.004-.71-.185-.917-.911-.885-1.325.06-2.656-.004-3.983.027-.507.012-.66-.165-.631-.635a16.67 16.67 0 0 0 .003-1.612c-.014-.378.133-.512.525-.51 2.53.012 5.06.017 7.59-.004.495-.004.572.2.57.614-.015 2.37-.007 4.742-.007 7.113zm-1.665-11.725c-1.683 0-1.683 0-1.683-1.619 0-1.68 0-1.68 1.765-1.68 1.774 0 1.774 0 1.774 1.687 0 1.612 0 1.612-1.631 1.612h-.225z"/>
    </g>
</svg>
