<?xml version="1.0" encoding="UTF-8"?>
<svg width="90px" height="31px" viewBox="0 0 90 31" version="1.1" xmlns="http://www.w3.org/2000/svg" xmlns:xlink="http://www.w3.org/1999/xlink">
    <!-- Generator: Sketch 51.1 (57501) - http://www.bohemiancoding.com/sketch -->
    <title>nappyClub@1x</title>
    <desc>Created with Sketch.</desc>
    <defs></defs>
    <g id="home-L-4" stroke="none" stroke-width="1" fill="none" fill-rule="evenodd">
        <g id="DM_home_1320_l_1" transform="translate(-385.000000, -4891.000000)" fill="#8E8E8E" fill-rule="nonzero">
            <g id="клиенты" transform="translate(61.000000, 4075.000000)">
                <g id="logos" transform="translate(0.000000, 103.000000)">
                    <g id="nappyClub" transform="translate(324.000000, 713.000000)">
                        <path d="M65.310848,24.2900313 L66.9537873,25.9329706 C67.1686234,26.1478067 67.1686234,26.4961248 66.9537873,26.7109609 C66.7389512,26.925797 66.3906331,26.925797 66.175797,26.7109609 L64.4757512,25.0109151 C63.73447,25.6203837 62.9506914,26.1874711 62.1295326,26.709014 C64.4133459,29.1983097 66.3018171,29.7758407 67.8930675,28.6266043 C69.4157612,27.5268811 69.1686796,25.5971015 66.9182723,22.6767658 C66.4125239,23.2396735 65.8758485,23.7779649 65.310848,24.2900313 Z M67.6462078,21.8230119 C70.3680206,25.2980152 70.7491973,27.9210324 68.5372503,29.5185497 C66.3553433,31.0943714 63.8644231,30.284318 61.1702635,27.2878147 C57.3402749,29.4811005 52.7894893,30.7229438 47.9876132,30.7229438 C38.5130231,30.7229438 30.0221528,25.8879216 26.1123499,18.4645651 C25.8291826,17.9269289 26.0354705,17.2615362 26.5731067,16.9783689 C27.1107429,16.6952016 27.7761356,16.9014895 28.0593029,17.4391257 C31.5780584,24.1200191 39.3092556,28.5224548 47.9876132,28.5224548 C56.5614232,28.5224548 64.2166298,24.2257124 67.7943164,17.6659968 C68.0852687,17.1325334 68.7535897,16.9359394 69.2870531,17.2268918 C69.8205164,17.5178441 70.0171104,18.1861651 69.7261581,18.7196284 C69.1290065,19.8145104 68.4317545,20.8514046 67.6462078,21.8230119 Z M0,13.8807351 L0,2.79809255 C0,1.78884342 0.485574843,1.28422643 1.4567391,1.28422643 C1.67890085,1.28422643 1.90581982,1.34770026 2.13750279,1.47464984 C2.36918577,1.60159942 2.55167304,1.75076293 2.6849701,1.92214486 L8.87373097,10.1674786 L8.91181565,10.1674786 L8.91181565,2.79809255 C8.91181565,1.78884342 9.39739049,1.28422643 10.3685547,1.28422643 C11.3460665,1.28422643 11.834815,1.78884342 11.834815,2.79809255 L11.834815,13.8807351 C11.834815,14.3314061 11.7031068,14.6963806 11.4396864,14.9756697 C11.1762661,15.2549588 10.8192257,15.3946012 10.3685547,15.3946012 C10.1908253,15.3946012 9.97184061,15.32478 9.71159398,15.1851355 C9.43230491,15.0391434 9.2418834,14.8963273 9.14032374,14.7566828 L2.96108405,6.60656077 L2.92299936,6.60656077 L2.92299936,13.8807351 C2.92299936,14.3314061 2.79129115,14.6963806 2.52787078,14.9756697 C2.26445042,15.2549588 1.90741009,15.3946012 1.4567391,15.3946012 C1.01241558,15.3946012 0.658548948,15.2549588 0.395128578,14.9756697 C0.131708209,14.6963806 0,14.3314061 0,13.8807351 Z M12.7678897,13.3856342 L16.690612,2.77905021 C17.0905032,1.69997881 17.7855417,1.16045121 18.7757484,1.16045121 C19.77865,1.16045121 20.4736885,1.69997881 20.8608847,2.77905021 L24.6883953,13.3856342 C24.7899549,13.6649233 24.840734,13.9061239 24.840734,14.1092432 C24.840734,14.4837444 24.7074389,14.7915925 24.4408448,15.0327967 C24.1742507,15.2740009 23.8600552,15.3946012 23.498249,15.3946012 C22.7619414,15.3946012 22.2858876,15.0581899 22.0700734,14.3853571 L21.489282,12.5477712 L16.0717359,12.5477712 L15.4814233,14.3663148 C15.2592616,15.0518425 14.7927289,15.3946012 14.0818113,15.3946012 C13.6882676,15.3946012 13.3486826,15.2660667 13.063046,15.0089938 C12.7774095,14.7519209 12.6345933,14.4266175 12.6345933,14.0330738 C12.6345933,13.969599 12.679025,13.753788 12.7678897,13.3856342 Z M18.756706,4.20722579 L16.9095989,9.86280111 L20.6133343,9.86280111 L18.7947907,4.20722579 L18.756706,4.20722579 Z M25.7547664,13.8807351 L25.7547664,2.92186777 C25.7547664,1.90627116 26.2625571,1.39848048 27.2781537,1.39848048 L30.7248174,1.39848048 C32.1593476,1.39848048 33.339961,1.81106041 34.2666929,2.63623265 C35.2378571,3.49314228 35.723432,4.63249764 35.723432,6.05433288 C35.723432,7.05088705 35.4584287,7.92999967 34.9284142,8.69169713 C34.3983997,9.45339458 33.6668638,10.005617 32.7337844,10.3483808 C32.1307739,10.5705426 31.5023829,10.6816218 30.8485926,10.6816218 L28.6777657,10.6816218 L28.6777657,13.8807351 C28.6777657,14.3314061 28.5460575,14.6963806 28.2826372,14.9756697 C28.0192168,15.2549588 27.6653502,15.3946012 27.2210266,15.3946012 C26.7703557,15.3946012 26.4133153,15.2549588 26.149895,14.9756697 C25.8864746,14.6963806 25.7547664,14.3314061 25.7547664,13.8807351 Z M28.6777657,3.96919653 L28.6777657,8.10138455 L30.6676904,8.10138455 C31.2770484,8.10138455 31.76421,7.9093762 32.1291901,7.52535373 C32.4941701,7.14133127 32.6766574,6.6446485 32.6766574,6.03529054 C32.6766574,5.42593258 32.4925833,4.92924981 32.1244295,4.54522735 C31.7562757,4.16120488 31.2707009,3.96919653 30.6676904,3.96919653 L28.6777657,3.96919653 Z M36.5993797,13.8807351 L36.5993797,2.92186777 C36.5993797,1.90627116 37.1071703,1.39848048 38.1227669,1.39848048 L41.5694307,1.39848048 C43.0039609,1.39848048 44.1845742,1.81106041 45.1113061,2.63623265 C46.0824704,3.49314228 46.5680452,4.63249764 46.5680452,6.05433288 C46.5680452,7.05088705 46.303042,7.92999967 45.7730275,8.69169713 C45.243013,9.45339458 44.5114771,10.005617 43.5783977,10.3483808 C42.9753872,10.5705426 42.3469962,10.6816218 41.6932059,10.6816218 L39.522379,10.6816218 L39.522379,13.8807351 C39.522379,14.3314061 39.3906708,14.6963806 39.1272504,14.9756697 C38.8638301,15.2549588 38.5099634,15.3946012 38.0656399,15.3946012 C37.6149689,15.3946012 37.2579286,15.2549588 36.9945082,14.9756697 C36.7310879,14.6963806 36.5993797,14.3314061 36.5993797,13.8807351 Z M39.522379,3.96919653 L39.522379,8.10138455 L41.5123037,8.10138455 C42.1216616,8.10138455 42.6088233,7.9093762 42.9738033,7.52535373 C43.3387834,7.14133127 43.5212707,6.6446485 43.5212707,6.03529054 C43.5212707,5.42593258 43.3371965,4.92924981 42.9690428,4.54522735 C42.600889,4.16120488 42.1153141,3.96919653 41.5123037,3.96919653 L39.522379,3.96919653 Z M50.3289076,13.9759468 L50.3289076,8.76786649 L46.6442146,3.57882854 C46.4664852,3.33127686 46.3776218,3.03929722 46.3776218,2.70288084 C46.3776218,2.31568464 46.5109169,1.982447 46.777511,1.70315793 C47.0441051,1.42386887 47.3773427,1.28422643 47.7772339,1.28422643 C48.3167696,1.28422643 48.7198284,1.47782163 48.9864226,1.86501783 L51.7951679,5.94007884 L54.6039132,1.86501783 C54.8705073,1.47782163 55.2735662,1.28422643 55.8131019,1.28422643 C56.2193405,1.28422643 56.554165,1.41910833 56.8175853,1.68887618 C57.0810057,1.95864403 57.2127139,2.2966422 57.2127139,2.70288084 C57.2127139,3.03929722 57.1238506,3.33127686 56.9461211,3.57882854 L53.251907,8.76786649 L53.251907,13.9759468 C53.251907,14.9217211 52.7663321,15.3946012 51.7951679,15.3946012 C50.8176561,15.3946012 50.3289076,14.9217211 50.3289076,13.9759468 Z M62.2738386,1.57966748 C64.3863081,1.57966748 66.0762836,2.84714915 66.0762836,3.46328607 C66.0762836,3.90338387 65.7770171,4.13223472 65.5129584,4.13223472 C64.9848411,4.13223472 64.3334963,2.74152568 62.2562347,2.74152568 C59.6156479,2.74152568 58.189731,5.5757555 58.189731,8.12832274 C58.189731,10.7160978 59.4572127,13.1630416 62.4850856,13.1630416 C64.6855746,13.1630416 65.3545232,11.9307677 65.8122249,11.9307677 C66.1290953,11.9307677 66.3403423,12.1244108 66.3403423,12.5645086 C66.3403423,13.1102298 64.7207824,14.3248998 62.4146699,14.3248998 C58.5770171,14.3248998 56.8166259,11.473066 56.8166259,8.12832274 C56.8166259,4.8363912 58.5770171,1.57966748 62.2738386,1.57966748 Z M69.4210269,1.43883619 L69.4210269,13.5151198 C69.4210269,14.0432372 69.192176,14.3248998 68.7872861,14.3248998 C68.3823961,14.3248998 68.1535452,14.0432372 68.1535452,13.5151198 L68.1535452,1.43883619 C68.1535452,0.91071883 68.3823961,0.629056238 68.7872861,0.629056238 C69.192176,0.629056238 69.4210269,0.91071883 69.4210269,1.43883619 Z M72.1848411,11.1385917 L72.1848411,5.55815159 C72.1848411,5.03003423 72.4136919,4.74837164 72.8185819,4.74837164 C73.2234719,4.74837164 73.4523227,5.03003423 73.4523227,5.55815159 L73.4523227,10.8217213 C73.4523227,12.4236773 74.3149144,13.268665 75.7408313,13.268665 C77.1667482,13.268665 78.0293398,12.4236773 78.0293398,10.8217213 L78.0293398,5.55815159 C78.0293398,5.03003423 78.2581907,4.74837164 78.6630807,4.74837164 C79.0679707,4.74837164 79.2968215,5.03003423 79.2968215,5.55815159 L79.2968215,11.1385917 C79.2968215,13.1630416 77.7476773,14.3248998 75.7408313,14.3248998 C73.7339853,14.3248998 72.1848411,13.1630416 72.1848411,11.1385917 Z M82.0606357,13.5151198 L82.0606357,1.43883619 C82.0606357,0.91071883 82.2894866,0.629056238 82.6943765,0.629056238 C83.0992665,0.629056238 83.3281174,0.91071883 83.3281174,1.43883619 L83.3281174,6.13908069 L83.3809291,6.13908069 C84.1026895,5.20607335 84.9124694,4.74837164 86.003912,4.74837164 C88.7149144,4.74837164 90,7.17771149 90,9.5366357 C90,12.1772225 88.6621027,14.3248998 85.9687042,14.3248998 C84.8772616,14.3248998 83.9442543,13.8495941 83.3809291,12.9341907 L83.3281174,12.9341907 L83.3281174,13.5151198 C83.3281174,14.0432372 83.0992665,14.3248998 82.6943765,14.3248998 C82.2894866,14.3248998 82.0606357,14.0432372 82.0606357,13.5151198 Z M83.3105134,9.5366357 C83.3105134,11.2442152 83.997066,13.268665 85.9687042,13.268665 C87.9403423,13.268665 88.6268949,11.2442152 88.6268949,9.5366357 C88.6268949,7.82905624 87.9403423,5.80460636 85.9687042,5.80460636 C83.997066,5.80460636 83.3105134,7.82905624 83.3105134,9.5366357 Z" id="Oval-2"></path>
                    </g>
                </g>
            </g>
        </g>
    </g>
</svg>