<svg xmlns="http://www.w3.org/2000/svg" width="136" height="34" viewBox="0 0 136 34">
    <path fill="#8E8E8E" fill-rule="nonzero" d="M52.074 7.924c-.886 0-1.605.721-1.605 1.611v9.771a.505.505 0 1 1-.915.315l-8.39-10.875a2.116 2.116 0 0 0-1.67-.822h-.785a1.21 1.21 0 0 0-1.203 1.21v15.813c-.023.59.277 1.146.783 1.448a1.6 1.6 0 0 0 1.642 0c.506-.302.806-.858.783-1.448V14.846a.527.527 0 1 1 .943-.325l8.848 11.459c.281.365.715.578 1.175.578h.518c.394 0 .772-.157 1.05-.437.279-.28.435-.66.434-1.055V9.536c0-.429-.168-.84-.47-1.142a1.6 1.6 0 0 0-1.138-.47zm14.69 10.619h-5.319a.764.764 0 0 1-.726-.984c.521-1.64 1.77-2.713 3.413-2.713 1.77 0 2.918 1.134 3.367 2.717a.763.763 0 0 1-.73.98h-.005zm-1.214-6.207c-4.297-.804-8.233 2.637-8.233 7.029v.218c0 4.336 3.127 7.292 7.187 7.292 2.022 0 3.562-.632 4.78-1.667a1.207 1.207 0 0 0 0-1.811 1.447 1.447 0 0 0-1.812-.084 4.763 4.763 0 0 1-2.915.928c-1.74 0-3.162-.905-3.777-2.557a.764.764 0 0 1 .71-1.015h8.484a.896.896 0 0 0 .893-.878c0-3.603-1.77-6.782-5.309-7.434l-.008-.02zm19.367.188c-.886 0-1.603.72-1.603 1.609v6.303c0 2.182-1.3 3.486-3.157 3.486-1.909 0-2.996-1.251-2.996-3.433v-6.376c0-.89-.719-1.612-1.605-1.612-.887 0-1.605.722-1.605 1.612v7.332c0 3.276 1.83 5.405 4.987 5.405 2.04 0 3.312-1.015 4.207-2.233a.093.093 0 0 1 .169.056v.64c0 .33.13.646.362.88.232.234.548.365.877.365h.728c.685 0 1.24-.558 1.24-1.246v-11.2c0-.427-.168-.836-.47-1.138a1.6 1.6 0 0 0-1.134-.47v.02zm12.788-.24c-1.77.253-2.995 1.395-3.766 2.988a.093.093 0 0 1-.177-.04v-1.21c0-.842-.68-1.523-1.517-1.523h-.185a1.52 1.52 0 0 0-1.516 1.522v10.926c-.024.59.277 1.146.783 1.448a1.6 1.6 0 0 0 1.642 0c.505-.302.806-.858.783-1.448v-3.74c0-3.195 1.44-5.001 3.625-5.45.674-.14 1.263-.68 1.324-1.373v-1.218a.895.895 0 0 0-1.011-.883h.015zm27.979 9.19c0 1.755-1.59 2.955-3.714 2.955-1.516 0-2.702-.746-2.702-2.078v-.05c0-1.358 1.19-2.185 3.208-2.185a9.407 9.407 0 0 1 2.78.41c.257.083.43.324.428.595v.352zm-3.049-9.186a11.735 11.735 0 0 0-4.077.665 1.387 1.387 0 0 0-.81 1.728 1.38 1.38 0 0 0 1.68.898 8.976 8.976 0 0 1 2.752-.416c2.043 0 3.233.898 3.418 2.537 0 .16-.023.617-.506.574a11.761 11.761 0 0 0-3.324-.424c-3.263 0-5.678 1.494-5.678 4.608v.05c0 2.825 2.334 4.342 4.985 4.342 2.005 0 3.418-.784 4.371-1.835a.096.096 0 0 1 .167.064c0 .81.654 1.466 1.461 1.466h.253a1.466 1.466 0 0 0 1.458-1.466v-6.853c0-3.753-2.022-5.938-6.15-5.938zm11.81-5.163h-.1a1.55 1.55 0 0 0-1.1.457 1.56 1.56 0 0 0-.453 1.103v16.313c0 .86.695 1.559 1.552 1.56h.101c.413 0 .808-.164 1.1-.457.291-.293.455-.69.455-1.103V8.685c0-.862-.696-1.56-1.555-1.56zm-24.808 11.418h-5.324a.763.763 0 0 1-.73-.984c.525-1.64 1.769-2.713 3.417-2.713 1.77 0 2.917 1.134 3.367 2.717a.763.763 0 0 1-.73.98zm-1.219-6.207c-4.297-.804-8.233 2.637-8.233 7.029v.218c0 4.336 3.13 7.292 7.184 7.292 2.007 0 3.567-.632 4.78-1.667a1.205 1.205 0 0 0 0-1.811 1.447 1.447 0 0 0-1.812-.084c-.84.62-1.86.945-2.902.928-1.744 0-3.162-.905-3.777-2.557a.764.764 0 0 1 .713-1.015h8.481a.897.897 0 0 0 .882-.878c0-3.603-1.784-6.782-5.308-7.434l-.008-.02zm-83.38-1.21a1.392 1.392 0 0 0-1.971 0l-3.049 3.164a1.393 1.393 0 0 1-1.974 0l-4.77-4.79a1.385 1.385 0 0 0-.986-.411H8.612a1.399 1.399 0 0 0-1.276 1.395c0 .728.554 1.334 1.276 1.396h2.51c.371 0 .727.147.99.41l3.96 3.982a1.407 1.407 0 0 1 0 1.981l-2.384 2.284a1.395 1.395 0 0 1-.985.409H10.87a1.399 1.399 0 0 0-1.277 1.395c0 .727.555 1.334 1.277 1.396h2.988a1.4 1.4 0 0 0 .988-.394l3.198-3.11a1.394 1.394 0 0 1 1.974 0l4.25 4.27c.545.547 1.429.547 1.974 0a1.405 1.405 0 0 0 0-1.982l-4.25-4.268a1.403 1.403 0 0 1 0-1.981l3.034-3.164a1.403 1.403 0 0 0 0-1.982h.013zM16.938 32.14c-7.495-.03-13.84-5.563-14.915-13.009a14.6 14.6 0 0 1-.149-2.068V17a15.147 15.147 0 0 1 .582-4.171C4.603 5.317 12.095.683 19.745 2.133c7.651 1.45 12.944 8.508 12.216 16.288-.729 7.78-7.239 13.725-15.024 13.72zm0-32.14C9.386.018 2.753 5.036.655 12.316A16.734 16.734 0 0 0 0 17v.066C.036 26.446 7.635 34.024 16.98 34c9.346-.024 16.906-7.642 16.893-17.022C33.861 7.598 26.283 0 16.937 0z"/>
</svg>
