<?xml version="1.0" encoding="UTF-8"?>
<svg width="129px" height="38px" viewBox="0 0 129 38" version="1.1" xmlns="http://www.w3.org/2000/svg" xmlns:xlink="http://www.w3.org/1999/xlink">
    <!-- Generator: Sketch 51.1 (57501) - http://www.bohemiancoding.com/sketch -->
    <title>nuntiux</title>
    <desc>Created with Sketch.</desc>
    <defs></defs>
    <g id="home-L-4" stroke="none" stroke-width="1" fill="none" fill-rule="evenodd">
        <g id="DM_home_1320_l_1" transform="translate(-656.000000, -5033.000000)">
            <g id="клиенты" transform="translate(61.000000, 4075.000000)">
                <g id="logos" transform="translate(0.000000, 103.000000)">
                    <g id="nuntiux" transform="translate(587.000000, 847.000000)">
                        <path d="M53.482,29 L53.482,21.512 C53.482,18.21 55.848,15.974 59.306,15.974 C62.79,15.974 65.182,18.21 65.182,21.512 L65.182,29 L62.504,29 L62.504,21.512 C62.504,19.51 61.256,18.184 59.332,18.184 C57.408,18.184 56.16,19.51 56.16,21.512 L56.16,29 L53.482,29 Z M79.556,16.208 L79.556,23.722 C79.556,26.998 77.19,29.234 73.732,29.234 C70.248,29.234 67.882,26.998 67.882,23.722 L67.882,16.208 L70.534,16.208 L70.534,23.722 C70.534,25.724 71.782,27.024 73.706,27.024 C75.63,27.024 76.904,25.724 76.904,23.722 L76.904,16.208 L79.556,16.208 Z M82.126,29 L82.126,21.512 C82.126,18.21 84.492,15.974 87.95,15.974 C91.434,15.974 93.826,18.21 93.826,21.512 L93.826,29 L91.148,29 L91.148,21.512 C91.148,19.51 89.9,18.184 87.976,18.184 C86.052,18.184 84.804,19.51 84.804,21.512 L84.804,29 L82.126,29 Z M103.702,16.208 L103.702,18.444 L100.816,18.444 L100.816,29 L98.138,29 L98.138,18.444 L95.772,18.444 L95.772,16.208 L98.138,16.208 L98.138,12.906 L100.816,12.906 L100.816,16.208 L103.702,16.208 Z M108.742,12.75 C108.742,13.66 108.04,14.31 107.052,14.31 C106.038,14.31 105.362,13.66 105.362,12.75 C105.362,11.814 106.038,11.19 107.052,11.19 C108.04,11.19 108.742,11.814 108.742,12.75 Z M105.726,16.208 L108.378,16.208 L108.378,29 L105.726,29 L105.726,16.208 Z M123.142,16.208 L123.142,23.722 C123.142,26.998 120.776,29.234 117.318,29.234 C113.834,29.234 111.468,26.998 111.468,23.722 L111.468,16.208 L114.12,16.208 L114.12,23.722 C114.12,25.724 115.368,27.024 117.292,27.024 C119.216,27.024 120.49,25.724 120.49,23.722 L120.49,16.208 L123.142,16.208 Z M136.84,29 L134.254607,29 L130.99,24.008 L127.747303,29 L125.14,29 L129.390562,22.578 L125.20573,16.208 L127.791124,16.208 L130.99,21.07 L134.188876,16.208 L136.79618,16.208 L132.611348,22.578 L136.84,29 Z" fill="#8E8E8E"></path>
                        <path d="M55.001,35.035 L54.4485,35.035 L54.4485,34.359 L55.001,34.359 L55.001,35.035 Z M54.4485,35.6395 L55.001,35.6395 L55.001,39 L54.4485,39 L54.4485,35.6395 Z M56.049,35.6395 L56.569,35.6395 L56.569,36.1725 L56.582,36.1725 C56.8116678,35.7651646 57.1756642,35.5615 57.674,35.5615 C57.8950011,35.5615 58.0791659,35.591833 58.2265,35.6525 C58.3738341,35.713167 58.4929995,35.7976661 58.584,35.906 C58.6750005,36.0143339 58.7389165,36.1432493 58.77575,36.29275 C58.8125835,36.4422507 58.831,36.6079991 58.831,36.79 L58.831,39 L58.2785,39 L58.2785,36.725 C58.2785,36.516999 58.2178339,36.3523339 58.0965,36.231 C57.9751661,36.1096661 57.8083344,36.049 57.596,36.049 C57.4269992,36.049 57.2807506,36.0749997 57.15725,36.127 C57.0337494,36.1790003 56.9308337,36.2526662 56.8485,36.348 C56.7661663,36.4433338 56.7044169,36.554916 56.66325,36.68275 C56.6220831,36.810584 56.6015,36.9503326 56.6015,37.102 L56.6015,39 L56.049,39 L56.049,35.6395 Z M61.3675,39 L60.776,39 L59.528,35.6395 L60.1455,35.6395 L61.088,38.441 L61.101,38.441 L62.0175,35.6395 L62.596,35.6395 L61.3675,39 Z M65.6265,36.998 C65.6178333,36.8679993 65.5885836,36.7445006 65.53875,36.6275 C65.4889164,36.5104994 65.4217504,36.4097504 65.33725,36.32525 C65.2527496,36.2407496 65.1530839,36.1735836 65.03825,36.12375 C64.9234161,36.0739164 64.7966674,36.049 64.658,36.049 C64.5149993,36.049 64.3860839,36.0739164 64.27125,36.12375 C64.1564161,36.1735836 64.0578337,36.2418329 63.9755,36.3285 C63.8931662,36.4151671 63.8281669,36.5159161 63.7805,36.63075 C63.7328331,36.7455839 63.7046667,36.8679993 63.696,36.998 L65.6265,36.998 Z M66.1595,37.934 C66.085833,38.3110019 65.9233346,38.5948324 65.672,38.7855 C65.4206654,38.9761676 65.1043352,39.0715 64.723,39.0715 C64.454332,39.0715 64.2214176,39.0281671 64.02425,38.9415 C63.8270823,38.8548329 63.661334,38.7335008 63.527,38.5775 C63.392666,38.4214992 63.291917,38.2351678 63.22475,38.0185 C63.157583,37.8018323 63.1196667,37.5656679 63.111,37.31 C63.111,37.0543321 63.1499996,36.8203344 63.228,36.608 C63.3060004,36.3956656 63.415416,36.2115008 63.55625,36.0555 C63.697084,35.8994992 63.8639157,35.7781671 64.05675,35.6915 C64.2495843,35.6048329 64.4608322,35.5615 64.6905,35.5615 C64.9895015,35.5615 65.2375823,35.6232494 65.43475,35.74675 C65.6319176,35.8702506 65.7900827,36.0273324 65.90925,36.218 C66.0284173,36.4086676 66.1107498,36.6166655 66.15625,36.842 C66.2017502,37.0673345 66.2201667,37.2818323 66.2115,37.4855 L63.696,37.4855 C63.6916666,37.6328341 63.7089998,37.7725827 63.748,37.90475 C63.7870002,38.0369173 63.8498329,38.1539162 63.9365,38.25575 C64.0231671,38.3575838 64.133666,38.438833 64.268,38.4995 C64.402334,38.560167 64.5604991,38.5905 64.7425,38.5905 C64.9765012,38.5905 65.1682492,38.5363339 65.31775,38.428 C65.4672507,38.3196661 65.5658331,38.1550011 65.6135,37.934 L66.1595,37.934 Z M67.3115,37.9405 C67.3158333,38.0618339 67.3439997,38.1647496 67.396,38.24925 C67.4480003,38.3337504 67.5162496,38.4009164 67.60075,38.45075 C67.6852504,38.5005836 67.7805828,38.5363332 67.88675,38.558 C67.9929172,38.5796668 68.1023328,38.5905 68.215,38.5905 C68.3016671,38.5905 68.3926662,38.5840001 68.488,38.571 C68.5833338,38.5579999 68.6710829,38.5341668 68.75125,38.4995 C68.8314171,38.4648332 68.8974997,38.413917 68.9495,38.34675 C69.0015003,38.279583 69.0275,38.1940005 69.0275,38.09 C69.0275,37.9469993 68.9733339,37.838667 68.865,37.765 C68.7566661,37.691333 68.6212508,37.6317502 68.45875,37.58625 C68.2962492,37.5407498 68.1196676,37.4995835 67.929,37.46275 C67.7383324,37.4259165 67.5617508,37.373917 67.39925,37.30675 C67.2367492,37.239583 67.1013339,37.1453339 66.993,37.024 C66.8846661,36.9026661 66.8305,36.7336677 66.8305,36.517 C66.8305,36.3479992 66.8684163,36.2028339 66.94425,36.0815 C67.0200837,35.9601661 67.1175827,35.8615837 67.23675,35.78575 C67.3559173,35.7099163 67.4902492,35.6535835 67.63975,35.61675 C67.7892507,35.5799165 67.9376659,35.5615 68.085,35.5615 C68.2756676,35.5615 68.4511659,35.5777498 68.6115,35.61025 C68.7718341,35.6427502 68.9137494,35.6990829 69.03725,35.77925 C69.1607506,35.8594171 69.259333,35.9677493 69.333,36.10425 C69.406667,36.2407507 69.4499999,36.4108323 69.463,36.6145 L68.9105,36.6145 C68.9018333,36.5061661 68.8736669,36.4162504 68.826,36.34475 C68.7783331,36.2732496 68.717667,36.2158335 68.644,36.1725 C68.570333,36.1291665 68.4890838,36.0977501 68.40025,36.07825 C68.3114162,36.0587499 68.2215004,36.049 68.1305,36.049 C68.0481662,36.049 67.9647504,36.0554999 67.88025,36.0685 C67.7957496,36.0815001 67.7188337,36.1042498 67.6495,36.13675 C67.5801663,36.1692502 67.5238335,36.2125831 67.4805,36.26675 C67.4371664,36.3209169 67.4155,36.3913329 67.4155,36.478 C67.4155,36.5733338 67.449083,36.6524164 67.51625,36.71525 C67.583417,36.7780836 67.6689995,36.8300831 67.773,36.87125 C67.8770005,36.9124169 67.9939993,36.9470832 68.124,36.97525 C68.2540006,37.0034168 68.3839993,37.0326665 68.514,37.063 C68.6526674,37.0933335 68.7880827,37.1301664 68.92025,37.1735 C69.0524173,37.2168336 69.1694161,37.2742496 69.27125,37.34575 C69.3730838,37.4172504 69.4554163,37.5071661 69.51825,37.6155 C69.5810836,37.7238339 69.6125,37.8581659 69.6125,38.0185 C69.6125,38.2221677 69.5702504,38.391166 69.48575,38.5255 C69.4012496,38.659834 69.2907507,38.7681663 69.15425,38.8505 C69.0177493,38.9328337 68.8639175,38.9902498 68.69275,39.02275 C68.5215825,39.0552502 68.3515008,39.0715 68.1825,39.0715 C67.9961657,39.0715 67.8185008,39.0520002 67.6495,39.013 C67.4804991,38.9739998 67.3310006,38.9100838 67.201,38.82125 C67.0709993,38.7324162 66.9670004,38.6154174 66.889,38.47025 C66.8109996,38.3250826 66.7676667,38.148501 66.759,37.9405 L67.3115,37.9405 Z M71.1805,35.6395 L71.85,35.6395 L71.85,36.127 L71.1805,36.127 L71.1805,38.2135 C71.1805,38.2785003 71.1859166,38.3304998 71.19675,38.3695 C71.2075834,38.4085002 71.2281665,38.4388332 71.2585,38.4605 C71.2888335,38.4821668 71.3310831,38.49625 71.38525,38.50275 C71.4394169,38.50925 71.5098329,38.5125 71.5965,38.5125 L71.85,38.5125 L71.85,39 L71.4275,39 C71.2844993,39 71.1620838,38.9902501 71.06025,38.97075 C70.9584161,38.9512499 70.8760836,38.9155003 70.81325,38.8635 C70.7504163,38.8114997 70.7038335,38.7378338 70.6735,38.6425 C70.6431665,38.5471662 70.628,38.4215008 70.628,38.2655 L70.628,36.127 L70.056,36.127 L70.056,35.6395 L70.628,35.6395 L70.628,34.632 L71.1805,34.632 L71.1805,35.6395 Z M72.651,35.6395 L73.171,35.6395 L73.171,36.1335 L73.184,36.1335 C73.4353346,35.7521648 73.7971643,35.5615 74.2695,35.5615 C74.477501,35.5615 74.6659991,35.6048329 74.835,35.6915 C75.0040008,35.7781671 75.1231663,35.925499 75.1925,36.1335 C75.3051672,35.9514991 75.4535824,35.8106672 75.63775,35.711 C75.8219176,35.6113328 76.0244989,35.5615 76.2455,35.5615 C76.4145008,35.5615 76.5672493,35.5799165 76.70375,35.61675 C76.8402507,35.6535835 76.9572495,35.7109996 77.05475,35.789 C77.1522505,35.8670004 77.228083,35.9677494 77.28225,36.09125 C77.3364169,36.2147506 77.3635,36.3631658 77.3635,36.5365 L77.3635,39 L76.811,39 L76.811,36.7965 C76.811,36.6924995 76.8023334,36.5950005 76.785,36.504 C76.7676666,36.4129995 76.7351669,36.333917 76.6875,36.26675 C76.6398331,36.199583 76.5737504,36.1465002 76.48925,36.1075 C76.4047496,36.0684998 76.295334,36.049 76.161,36.049 C75.8879986,36.049 75.6735008,36.1269992 75.5175,36.283 C75.3614992,36.4390008 75.2835,36.6469987 75.2835,36.907 L75.2835,39 L74.731,39 L74.731,36.7965 C74.731,36.6881661 74.7212501,36.5885005 74.70175,36.4975 C74.6822499,36.4064995 74.6486669,36.327417 74.601,36.26025 C74.5533331,36.193083 74.4894171,36.1410835 74.40925,36.10425 C74.3290829,36.0674165 74.2261673,36.049 74.1005,36.049 C73.9401659,36.049 73.8025839,36.0814997 73.68775,36.1465 C73.5729161,36.2115003 73.4797503,36.2894995 73.40825,36.3805 C73.3367496,36.4715005 73.2847501,36.5657495 73.25225,36.66325 C73.2197498,36.7607505 73.2035,36.8419997 73.2035,36.907 L73.2035,39 L72.651,39 L72.651,35.6395 Z M80.719,36.998 C80.7103333,36.8679993 80.6810836,36.7445006 80.63125,36.6275 C80.5814164,36.5104994 80.5142504,36.4097504 80.42975,36.32525 C80.3452496,36.2407496 80.2455839,36.1735836 80.13075,36.12375 C80.0159161,36.0739164 79.8891673,36.049 79.7505,36.049 C79.6074993,36.049 79.4785839,36.0739164 79.36375,36.12375 C79.2489161,36.1735836 79.1503337,36.2418329 79.068,36.3285 C78.9856662,36.4151671 78.9206669,36.5159161 78.873,36.63075 C78.8253331,36.7455839 78.7971667,36.8679993 78.7885,36.998 L80.719,36.998 Z M81.252,37.934 C81.1783329,38.3110019 81.0158346,38.5948324 80.7645,38.7855 C80.5131654,38.9761676 80.1968352,39.0715 79.8155,39.0715 C79.546832,39.0715 79.3139176,39.0281671 79.11675,38.9415 C78.9195823,38.8548329 78.753834,38.7335008 78.6195,38.5775 C78.485166,38.4214992 78.384417,38.2351678 78.31725,38.0185 C78.250083,37.8018323 78.2121667,37.5656679 78.2035,37.31 C78.2035,37.0543321 78.2424996,36.8203344 78.3205,36.608 C78.3985004,36.3956656 78.5079159,36.2115008 78.64875,36.0555 C78.789584,35.8994992 78.9564157,35.7781671 79.14925,35.6915 C79.3420843,35.6048329 79.5533322,35.5615 79.783,35.5615 C80.0820015,35.5615 80.3300823,35.6232494 80.52725,35.74675 C80.7244176,35.8702506 80.8825827,36.0273324 81.00175,36.218 C81.1209172,36.4086676 81.2032498,36.6166655 81.24875,36.842 C81.2942502,37.0673345 81.3126667,37.2818323 81.304,37.4855 L78.7885,37.4855 C78.7841666,37.6328341 78.8014998,37.7725827 78.8405,37.90475 C78.8795002,38.0369173 78.9423329,38.1539162 79.029,38.25575 C79.1156671,38.3575838 79.226166,38.438833 79.3605,38.4995 C79.494834,38.560167 79.6529991,38.5905 79.835,38.5905 C80.0690012,38.5905 80.2607492,38.5363339 80.41025,38.428 C80.5597507,38.3196661 80.6583331,38.1550011 80.706,37.934 L81.252,37.934 Z M82.066,35.6395 L82.586,35.6395 L82.586,36.1725 L82.599,36.1725 C82.8286678,35.7651646 83.1926642,35.5615 83.691,35.5615 C83.9120011,35.5615 84.0961659,35.591833 84.2435,35.6525 C84.3908341,35.713167 84.5099995,35.7976661 84.601,35.906 C84.6920004,36.0143339 84.7559165,36.1432493 84.79275,36.29275 C84.8295835,36.4422507 84.848,36.6079991 84.848,36.79 L84.848,39 L84.2955,39 L84.2955,36.725 C84.2955,36.516999 84.2348339,36.3523339 84.1135,36.231 C83.992166,36.1096661 83.8253344,36.049 83.613,36.049 C83.4439991,36.049 83.2977506,36.0749997 83.17425,36.127 C83.0507494,36.1790003 82.9478337,36.2526662 82.8655,36.348 C82.7831662,36.4433338 82.7214169,36.554916 82.68025,36.68275 C82.6390831,36.810584 82.6185,36.9503326 82.6185,37.102 L82.6185,39 L82.066,39 L82.066,35.6395 Z M86.637,35.6395 L87.3065,35.6395 L87.3065,36.127 L86.637,36.127 L86.637,38.2135 C86.637,38.2785003 86.6424166,38.3304998 86.65325,38.3695 C86.6640834,38.4085002 86.6846665,38.4388332 86.715,38.4605 C86.7453335,38.4821668 86.787583,38.49625 86.84175,38.50275 C86.8959169,38.50925 86.9663329,38.5125 87.053,38.5125 L87.3065,38.5125 L87.3065,39 L86.884,39 C86.7409993,39 86.6185838,38.9902501 86.51675,38.97075 C86.4149161,38.9512499 86.3325836,38.9155003 86.26975,38.8635 C86.2069163,38.8114997 86.1603335,38.7378338 86.13,38.6425 C86.0996665,38.5471662 86.0845,38.4215008 86.0845,38.2655 L86.0845,36.127 L85.5125,36.127 L85.5125,35.6395 L86.0845,35.6395 L86.0845,34.632 L86.637,34.632 L86.637,35.6395 Z M90.1045,35.6395 L90.6245,35.6395 L90.6245,36.1335 L90.6375,36.1335 C90.8888346,35.7521648 91.2506643,35.5615 91.723,35.5615 C91.931001,35.5615 92.1194991,35.6048329 92.2885,35.6915 C92.4575008,35.7781671 92.5766663,35.925499 92.646,36.1335 C92.7586672,35.9514991 92.9070824,35.8106672 93.09125,35.711 C93.2754176,35.6113328 93.4779989,35.5615 93.699,35.5615 C93.8680008,35.5615 94.0207493,35.5799165 94.15725,35.61675 C94.2937507,35.6535835 94.4107495,35.7109996 94.50825,35.789 C94.6057505,35.8670004 94.681583,35.9677494 94.73575,36.09125 C94.7899169,36.2147506 94.817,36.3631658 94.817,36.5365 L94.817,39 L94.2645,39 L94.2645,36.7965 C94.2645,36.6924995 94.2558334,36.5950005 94.2385,36.504 C94.2211666,36.4129995 94.1886669,36.333917 94.141,36.26675 C94.0933331,36.199583 94.0272504,36.1465002 93.94275,36.1075 C93.8582496,36.0684998 93.748834,36.049 93.6145,36.049 C93.3414986,36.049 93.1270008,36.1269992 92.971,36.283 C92.8149992,36.4390008 92.737,36.6469987 92.737,36.907 L92.737,39 L92.1845,39 L92.1845,36.7965 C92.1845,36.6881661 92.1747501,36.5885005 92.15525,36.4975 C92.1357499,36.4064995 92.1021669,36.327417 92.0545,36.26025 C92.0068331,36.193083 91.942917,36.1410835 91.86275,36.10425 C91.7825829,36.0674165 91.6796673,36.049 91.554,36.049 C91.3936658,36.049 91.2560839,36.0814997 91.14125,36.1465 C91.0264161,36.2115003 90.9332503,36.2894995 90.86175,36.3805 C90.7902496,36.4715005 90.7382501,36.5657495 90.70575,36.66325 C90.6732498,36.7607505 90.657,36.8419997 90.657,36.907 L90.657,39 L90.1045,39 L90.1045,35.6395 Z M98.1725,36.998 C98.1638333,36.8679993 98.1345836,36.7445006 98.08475,36.6275 C98.0349164,36.5104994 97.9677504,36.4097504 97.88325,36.32525 C97.7987495,36.2407496 97.6990839,36.1735836 97.58425,36.12375 C97.4694161,36.0739164 97.3426673,36.049 97.204,36.049 C97.0609993,36.049 96.9320839,36.0739164 96.81725,36.12375 C96.7024161,36.1735836 96.6038337,36.2418329 96.5215,36.3285 C96.4391662,36.4151671 96.3741669,36.5159161 96.3265,36.63075 C96.2788331,36.7455839 96.2506667,36.8679993 96.242,36.998 L98.1725,36.998 Z M98.7055,37.934 C98.6318329,38.3110019 98.4693346,38.5948324 98.218,38.7855 C97.9666654,38.9761676 97.6503352,39.0715 97.269,39.0715 C97.000332,39.0715 96.7674176,39.0281671 96.57025,38.9415 C96.3730823,38.8548329 96.207334,38.7335008 96.073,38.5775 C95.938666,38.4214992 95.837917,38.2351678 95.77075,38.0185 C95.703583,37.8018323 95.6656667,37.5656679 95.657,37.31 C95.657,37.0543321 95.6959996,36.8203344 95.774,36.608 C95.8520004,36.3956656 95.9614159,36.2115008 96.10225,36.0555 C96.243084,35.8994992 96.4099157,35.7781671 96.60275,35.6915 C96.7955843,35.6048329 97.0068322,35.5615 97.2365,35.5615 C97.5355015,35.5615 97.7835823,35.6232494 97.98075,35.74675 C98.1779176,35.8702506 98.3360827,36.0273324 98.45525,36.218 C98.5744172,36.4086676 98.6567497,36.6166655 98.70225,36.842 C98.7477502,37.0673345 98.7661667,37.2818323 98.7575,37.4855 L96.242,37.4855 C96.2376666,37.6328341 96.2549998,37.7725827 96.294,37.90475 C96.3330002,38.0369173 96.3958329,38.1539162 96.4825,38.25575 C96.5691671,38.3575838 96.679666,38.438833 96.814,38.4995 C96.948334,38.560167 97.1064991,38.5905 97.2885,38.5905 C97.5225011,38.5905 97.7142492,38.5363339 97.86375,38.428 C98.0132507,38.3196661 98.1118331,38.1550011 98.1595,37.934 L98.7055,37.934 Z M101.853,36.998 C101.844333,36.8679993 101.815084,36.7445006 101.76525,36.6275 C101.715416,36.5104994 101.64825,36.4097504 101.56375,36.32525 C101.47925,36.2407496 101.379584,36.1735836 101.26475,36.12375 C101.149916,36.0739164 101.023167,36.049 100.8845,36.049 C100.741499,36.049 100.612584,36.0739164 100.49775,36.12375 C100.382916,36.1735836 100.284334,36.2418329 100.202,36.3285 C100.119666,36.4151671 100.054667,36.5159161 100.007,36.63075 C99.9593331,36.7455839 99.9311667,36.8679993 99.9225,36.998 L101.853,36.998 Z M102.386,37.934 C102.312333,38.3110019 102.149835,38.5948324 101.8985,38.7855 C101.647165,38.9761676 101.330835,39.0715 100.9495,39.0715 C100.680832,39.0715 100.447918,39.0281671 100.25075,38.9415 C100.053582,38.8548329 99.887834,38.7335008 99.7535,38.5775 C99.619166,38.4214992 99.518417,38.2351678 99.45125,38.0185 C99.384083,37.8018323 99.3461667,37.5656679 99.3375,37.31 C99.3375,37.0543321 99.3764996,36.8203344 99.4545,36.608 C99.5325004,36.3956656 99.6419159,36.2115008 99.78275,36.0555 C99.923584,35.8994992 100.090416,35.7781671 100.28325,35.6915 C100.476084,35.6048329 100.687332,35.5615 100.917,35.5615 C101.216001,35.5615 101.464082,35.6232494 101.66125,35.74675 C101.858418,35.8702506 102.016583,36.0273324 102.13575,36.218 C102.254917,36.4086676 102.33725,36.6166655 102.38275,36.842 C102.42825,37.0673345 102.446667,37.2818323 102.438,37.4855 L99.9225,37.4855 C99.9181666,37.6328341 99.9354998,37.7725827 99.9745,37.90475 C100.0135,38.0369173 100.076333,38.1539162 100.163,38.25575 C100.249667,38.3575838 100.360166,38.438833 100.4945,38.4995 C100.628834,38.560167 100.786999,38.5905 100.969,38.5905 C101.203001,38.5905 101.394749,38.5363339 101.54425,38.428 C101.693751,38.3196661 101.792333,38.1550011 101.84,37.934 L102.386,37.934 Z M103.967,35.6395 L104.6365,35.6395 L104.6365,36.127 L103.967,36.127 L103.967,38.2135 C103.967,38.2785003 103.972417,38.3304998 103.98325,38.3695 C103.994083,38.4085002 104.014666,38.4388332 104.045,38.4605 C104.075333,38.4821668 104.117583,38.49625 104.17175,38.50275 C104.225917,38.50925 104.296333,38.5125 104.383,38.5125 L104.6365,38.5125 L104.6365,39 L104.214,39 C104.070999,39 103.948584,38.9902501 103.84675,38.97075 C103.744916,38.9512499 103.662584,38.9155003 103.59975,38.8635 C103.536916,38.8114997 103.490333,38.7378338 103.46,38.6425 C103.429666,38.5471662 103.4145,38.4215008 103.4145,38.2655 L103.4145,36.127 L102.8425,36.127 L102.8425,35.6395 L103.4145,35.6395 L103.4145,34.632 L103.967,34.632 L103.967,35.6395 Z M105.7755,37.9405 C105.779833,38.0618339 105.808,38.1647496 105.86,38.24925 C105.912,38.3337504 105.98025,38.4009164 106.06475,38.45075 C106.14925,38.5005836 106.244583,38.5363332 106.35075,38.558 C106.456917,38.5796668 106.566333,38.5905 106.679,38.5905 C106.765667,38.5905 106.856666,38.5840001 106.952,38.571 C107.047334,38.5579999 107.135083,38.5341668 107.21525,38.4995 C107.295417,38.4648332 107.3615,38.413917 107.4135,38.34675 C107.4655,38.279583 107.4915,38.1940005 107.4915,38.09 C107.4915,37.9469993 107.437334,37.838667 107.329,37.765 C107.220666,37.691333 107.085251,37.6317502 106.92275,37.58625 C106.760249,37.5407498 106.583668,37.4995835 106.393,37.46275 C106.202332,37.4259165 106.025751,37.373917 105.86325,37.30675 C105.700749,37.239583 105.565334,37.1453339 105.457,37.024 C105.348666,36.9026661 105.2945,36.7336677 105.2945,36.517 C105.2945,36.3479992 105.332416,36.2028339 105.40825,36.0815 C105.484084,35.9601661 105.581583,35.8615837 105.70075,35.78575 C105.819917,35.7099163 105.954249,35.6535835 106.10375,35.61675 C106.253251,35.5799165 106.401666,35.5615 106.549,35.5615 C106.739668,35.5615 106.915166,35.5777498 107.0755,35.61025 C107.235834,35.6427502 107.377749,35.6990829 107.50125,35.77925 C107.624751,35.8594171 107.723333,35.9677493 107.797,36.10425 C107.870667,36.2407507 107.914,36.4108323 107.927,36.6145 L107.3745,36.6145 C107.365833,36.5061661 107.337667,36.4162504 107.29,36.34475 C107.242333,36.2732496 107.181667,36.2158335 107.108,36.1725 C107.034333,36.1291665 106.953084,36.0977501 106.86425,36.07825 C106.775416,36.0587499 106.6855,36.049 106.5945,36.049 C106.512166,36.049 106.42875,36.0554999 106.34425,36.0685 C106.25975,36.0815001 106.182834,36.1042498 106.1135,36.13675 C106.044166,36.1692502 105.987834,36.2125831 105.9445,36.26675 C105.901166,36.3209169 105.8795,36.3913329 105.8795,36.478 C105.8795,36.5733338 105.913083,36.6524164 105.98025,36.71525 C106.047417,36.7780836 106.132999,36.8300831 106.237,36.87125 C106.341,36.9124169 106.457999,36.9470832 106.588,36.97525 C106.718001,37.0034168 106.847999,37.0326665 106.978,37.063 C107.116667,37.0933335 107.252083,37.1301664 107.38425,37.1735 C107.516417,37.2168336 107.633416,37.2742496 107.73525,37.34575 C107.837084,37.4172504 107.919416,37.5071661 107.98225,37.6155 C108.045084,37.7238339 108.0765,37.8581659 108.0765,38.0185 C108.0765,38.2221677 108.03425,38.391166 107.94975,38.5255 C107.86525,38.659834 107.754751,38.7681663 107.61825,38.8505 C107.481749,38.9328337 107.327917,38.9902498 107.15675,39.02275 C106.985582,39.0552502 106.815501,39.0715 106.6465,39.0715 C106.460166,39.0715 106.282501,39.0520002 106.1135,39.013 C105.944499,38.9739998 105.795001,38.9100838 105.665,38.82125 C105.534999,38.7324162 105.431,38.6154174 105.353,38.47025 C105.275,38.3250826 105.231667,38.148501 105.223,37.9405 L105.7755,37.9405 Z M110.894,35.6395 L111.4465,35.6395 L111.4465,36.0945 L111.4595,36.0945 C111.5505,35.9081657 111.693499,35.7727504 111.8885,35.68825 C112.083501,35.6037496 112.297999,35.5615 112.532,35.5615 C112.792001,35.5615 113.018416,35.6091662 113.21125,35.7045 C113.404084,35.7998338 113.564416,35.9287492 113.69225,36.09125 C113.820084,36.2537508 113.9165,36.4411656 113.9815,36.6535 C114.0465,36.8658344 114.079,37.0911655 114.079,37.3295 C114.079,37.5678345 114.047584,37.7931656 113.98475,38.0055 C113.921916,38.2178344 113.826584,38.4030825 113.69875,38.56125 C113.570916,38.7194175 113.410584,38.8439995 113.21775,38.935 C113.024916,39.0260005 112.800668,39.0715 112.545,39.0715 C112.462666,39.0715 112.370584,39.0628334 112.26875,39.0455 C112.166916,39.0281666 112.066167,39.0000002 111.9665,38.961 C111.866833,38.9219998 111.772584,38.868917 111.68375,38.80175 C111.594916,38.734583 111.520167,38.6511672 111.4595,38.5515 L111.4465,38.5515 L111.4465,40.2805 L110.894,40.2805 L110.894,35.6395 Z M113.494,37.2905 C113.494,37.1344992 113.473417,36.9817507 113.43225,36.83225 C113.391083,36.6827493 113.32825,36.5495006 113.24375,36.4325 C113.15925,36.3154994 113.050917,36.2223337 112.91875,36.153 C112.786583,36.0836663 112.631668,36.049 112.454,36.049 C112.267666,36.049 112.109501,36.085833 111.9795,36.1595 C111.849499,36.233167 111.743334,36.3295827 111.661,36.44875 C111.578666,36.5679173 111.519083,36.7033326 111.48225,36.855 C111.445416,37.0066674 111.427,37.1604992 111.427,37.3165 C111.427,37.4811675 111.4465,37.6404159 111.4855,37.79425 C111.5245,37.9480841 111.58625,38.0834994 111.67075,38.2005 C111.75525,38.3175006 111.864666,38.4117496 111.999,38.48325 C112.133334,38.5547504 112.295832,38.5905 112.4865,38.5905 C112.677168,38.5905 112.836416,38.553667 112.96425,38.48 C113.092084,38.406333 113.195,38.3088339 113.273,38.1875 C113.351,38.0661661 113.407333,37.9275008 113.442,37.7715 C113.476667,37.6154992 113.494,37.4551675 113.494,37.2905 Z M115.322,37.323 C115.322,37.5266677 115.349083,37.7075825 115.40325,37.86575 C115.457417,38.0239175 115.532166,38.1560828 115.6275,38.26225 C115.722834,38.3684172 115.834416,38.4496664 115.96225,38.506 C116.090084,38.5623336 116.225499,38.5905 116.3685,38.5905 C116.511501,38.5905 116.646916,38.5623336 116.77475,38.506 C116.902584,38.4496664 117.014166,38.3684172 117.1095,38.26225 C117.204834,38.1560828 117.279583,38.0239175 117.33375,37.86575 C117.387917,37.7075825 117.415,37.5266677 117.415,37.323 C117.415,37.1193323 117.387917,36.9384175 117.33375,36.78025 C117.279583,36.6220825 117.204834,36.4888339 117.1095,36.3805 C117.014166,36.2721661 116.902584,36.1898336 116.77475,36.1335 C116.646916,36.0771664 116.511501,36.049 116.3685,36.049 C116.225499,36.049 116.090084,36.0771664 115.96225,36.1335 C115.834416,36.1898336 115.722834,36.2721661 115.6275,36.3805 C115.532166,36.4888339 115.457417,36.6220825 115.40325,36.78025 C115.349083,36.9384175 115.322,37.1193323 115.322,37.323 Z M114.737,37.323 C114.737,37.0759988 114.771666,36.8452511 114.841,36.63075 C114.910334,36.4162489 115.014333,36.2299175 115.153,36.07175 C115.291667,35.9135825 115.462832,35.7890005 115.6665,35.698 C115.870168,35.6069995 116.104165,35.5615 116.3685,35.5615 C116.637168,35.5615 116.872249,35.6069995 117.07375,35.698 C117.275251,35.7890005 117.445333,35.9135825 117.584,36.07175 C117.722667,36.2299175 117.826666,36.4162489 117.896,36.63075 C117.965334,36.8452511 118,37.0759988 118,37.323 C118,37.5700012 117.965334,37.7996656 117.896,38.012 C117.826666,38.2243344 117.722667,38.4095825 117.584,38.56775 C117.445333,38.7259175 117.275251,38.8494162 117.07375,38.93825 C116.872249,39.0270838 116.637168,39.0715 116.3685,39.0715 C116.104165,39.0715 115.870168,39.0270838 115.6665,38.93825 C115.462832,38.8494162 115.291667,38.7259175 115.153,38.56775 C115.014333,38.4095825 114.910334,38.2243344 114.841,38.012 C114.771666,37.7996656 114.737,37.5700012 114.737,37.323 Z M119.607,35.6395 L120.2765,35.6395 L120.2765,36.127 L119.607,36.127 L119.607,38.2135 C119.607,38.2785003 119.612417,38.3304998 119.62325,38.3695 C119.634083,38.4085002 119.654666,38.4388332 119.685,38.4605 C119.715333,38.4821668 119.757583,38.49625 119.81175,38.50275 C119.865917,38.50925 119.936333,38.5125 120.023,38.5125 L120.2765,38.5125 L120.2765,39 L119.854,39 C119.710999,39 119.588584,38.9902501 119.48675,38.97075 C119.384916,38.9512499 119.302584,38.9155003 119.23975,38.8635 C119.176916,38.8114997 119.130333,38.7378338 119.1,38.6425 C119.069666,38.5471662 119.0545,38.4215008 119.0545,38.2655 L119.0545,36.127 L118.4825,36.127 L118.4825,35.6395 L119.0545,35.6395 L119.0545,34.632 L119.607,34.632 L119.607,35.6395 Z M123.411,36.998 C123.402333,36.8679993 123.373084,36.7445006 123.32325,36.6275 C123.273416,36.5104994 123.20625,36.4097504 123.12175,36.32525 C123.03725,36.2407496 122.937584,36.1735836 122.82275,36.12375 C122.707916,36.0739164 122.581167,36.049 122.4425,36.049 C122.299499,36.049 122.170584,36.0739164 122.05575,36.12375 C121.940916,36.1735836 121.842334,36.2418329 121.76,36.3285 C121.677666,36.4151671 121.612667,36.5159161 121.565,36.63075 C121.517333,36.7455839 121.489167,36.8679993 121.4805,36.998 L123.411,36.998 Z M123.944,37.934 C123.870333,38.3110019 123.707835,38.5948324 123.4565,38.7855 C123.205165,38.9761676 122.888835,39.0715 122.5075,39.0715 C122.238832,39.0715 122.005918,39.0281671 121.80875,38.9415 C121.611582,38.8548329 121.445834,38.7335008 121.3115,38.5775 C121.177166,38.4214992 121.076417,38.2351678 121.00925,38.0185 C120.942083,37.8018323 120.904167,37.5656679 120.8955,37.31 C120.8955,37.0543321 120.9345,36.8203344 121.0125,36.608 C121.0905,36.3956656 121.199916,36.2115008 121.34075,36.0555 C121.481584,35.8994992 121.648416,35.7781671 121.84125,35.6915 C122.034084,35.6048329 122.245332,35.5615 122.475,35.5615 C122.774001,35.5615 123.022082,35.6232494 123.21925,35.74675 C123.416418,35.8702506 123.574583,36.0273324 123.69375,36.218 C123.812917,36.4086676 123.89525,36.6166655 123.94075,36.842 C123.98625,37.0673345 124.004667,37.2818323 123.996,37.4855 L121.4805,37.4855 C121.476167,37.6328341 121.4935,37.7725827 121.5325,37.90475 C121.5715,38.0369173 121.634333,38.1539162 121.721,38.25575 C121.807667,38.3575838 121.918166,38.438833 122.0525,38.4995 C122.186834,38.560167 122.344999,38.5905 122.527,38.5905 C122.761001,38.5905 122.952749,38.5363339 123.10225,38.428 C123.251751,38.3196661 123.350333,38.1550011 123.398,37.934 L123.944,37.934 Z M124.758,35.6395 L125.278,35.6395 L125.278,36.1725 L125.291,36.1725 C125.520668,35.7651646 125.884664,35.5615 126.383,35.5615 C126.604001,35.5615 126.788166,35.591833 126.9355,35.6525 C127.082834,35.713167 127.201999,35.7976661 127.293,35.906 C127.384,36.0143339 127.447916,36.1432493 127.48475,36.29275 C127.521583,36.4422507 127.54,36.6079991 127.54,36.79 L127.54,39 L126.9875,39 L126.9875,36.725 C126.9875,36.516999 126.926834,36.3523339 126.8055,36.231 C126.684166,36.1096661 126.517334,36.049 126.305,36.049 C126.135999,36.049 125.989751,36.0749997 125.86625,36.127 C125.742749,36.1790003 125.639834,36.2526662 125.5575,36.348 C125.475166,36.4433338 125.413417,36.554916 125.37225,36.68275 C125.331083,36.810584 125.3105,36.9503326 125.3105,37.102 L125.3105,39 L124.758,39 L124.758,35.6395 Z M129.329,35.6395 L129.9985,35.6395 L129.9985,36.127 L129.329,36.127 L129.329,38.2135 C129.329,38.2785003 129.334417,38.3304998 129.34525,38.3695 C129.356083,38.4085002 129.376666,38.4388332 129.407,38.4605 C129.437333,38.4821668 129.479583,38.49625 129.53375,38.50275 C129.587917,38.50925 129.658333,38.5125 129.745,38.5125 L129.9985,38.5125 L129.9985,39 L129.576,39 C129.432999,39 129.310584,38.9902501 129.20875,38.97075 C129.106916,38.9512499 129.024584,38.9155003 128.96175,38.8635 C128.898916,38.8114997 128.852333,38.7378338 128.822,38.6425 C128.791666,38.5471662 128.7765,38.4215008 128.7765,38.2655 L128.7765,36.127 L128.2045,36.127 L128.2045,35.6395 L128.7765,35.6395 L128.7765,34.632 L129.329,34.632 L129.329,35.6395 Z M131.3845,35.035 L130.832,35.035 L130.832,34.359 L131.3845,34.359 L131.3845,35.035 Z M130.832,35.6395 L131.3845,35.6395 L131.3845,39 L130.832,39 L130.832,35.6395 Z M135.4095,38.987 C135.314166,39.0433336 135.182001,39.0715 135.013,39.0715 C134.869999,39.0715 134.75625,39.0314171 134.67175,38.95125 C134.58725,38.8710829 134.545,38.7400009 134.545,38.558 C134.393333,38.7400009 134.216751,38.8710829 134.01525,38.95125 C133.813749,39.0314171 133.596001,39.0715 133.362,39.0715 C133.210333,39.0715 133.066251,39.0541668 132.92975,39.0195 C132.793249,38.9848332 132.675167,38.930667 132.5755,38.857 C132.475833,38.783333 132.39675,38.6869173 132.33825,38.56775 C132.27975,38.4485827 132.2505,38.3045008 132.2505,38.1355 C132.2505,37.9448324 132.283,37.7888339 132.348,37.6675 C132.413,37.5461661 132.498583,37.4475837 132.60475,37.37175 C132.710917,37.2959163 132.832249,37.2385002 132.96875,37.1995 C133.105251,37.1604998 133.244999,37.1280001 133.388,37.102 C133.539667,37.0716665 133.683749,37.0489167 133.82025,37.03375 C133.956751,37.0185833 134.076999,36.9969168 134.181,36.96875 C134.285,36.9405832 134.367333,36.8994169 134.428,36.84525 C134.488667,36.7910831 134.519,36.7120005 134.519,36.608 C134.519,36.4866661 134.49625,36.389167 134.45075,36.3155 C134.40525,36.241833 134.34675,36.1855002 134.27525,36.1465 C134.20375,36.1074998 134.123584,36.0815001 134.03475,36.0685 C133.945916,36.0554999 133.858167,36.049 133.7715,36.049 C133.537499,36.049 133.342501,36.0934162 133.1865,36.18225 C133.030499,36.2710838 132.946,36.4389988 132.933,36.686 L132.3805,36.686 C132.389167,36.477999 132.4325,36.3025007 132.5105,36.1595 C132.5885,36.0164993 132.692499,35.9005838 132.8225,35.81175 C132.952501,35.7229162 133.100916,35.6590002 133.26775,35.62 C133.434584,35.5809998 133.613332,35.5615 133.804,35.5615 C133.955667,35.5615 134.106249,35.5723332 134.25575,35.594 C134.405251,35.6156668 134.540666,35.660083 134.662,35.72725 C134.783334,35.794417 134.880833,35.8886661 134.9545,36.01 C135.028167,36.1313339 135.065,36.289499 135.065,36.4845 L135.065,38.2135 C135.065,38.3435007 135.072583,38.438833 135.08775,38.4995 C135.102917,38.560167 135.153833,38.5905 135.2405,38.5905 C135.288167,38.5905 135.3445,38.5796668 135.4095,38.558 L135.4095,38.987 Z M134.5125,37.2645 C134.443166,37.3165003 134.352167,37.3544165 134.2395,37.37825 C134.126833,37.4020835 134.008751,37.4215833 133.88525,37.43675 C133.761749,37.4519167 133.637167,37.4692499 133.5115,37.48875 C133.385833,37.5082501 133.273167,37.5396665 133.1735,37.583 C133.073833,37.6263335 132.992584,37.6880829 132.92975,37.76825 C132.866916,37.8484171 132.8355,37.9578326 132.8355,38.0965 C132.8355,38.1875005 132.853916,38.2644164 132.89075,38.32725 C132.927583,38.3900836 132.97525,38.4409998 133.03375,38.48 C133.09225,38.5190002 133.1605,38.5471666 133.2385,38.5645 C133.3165,38.5818334 133.398833,38.5905 133.4855,38.5905 C133.667501,38.5905 133.823499,38.5655836 133.9535,38.51575 C134.083501,38.4659164 134.189666,38.4030837 134.272,38.32725 C134.354334,38.2514163 134.415,38.1690838 134.454,38.08025 C134.493,37.9914162 134.5125,37.9080004 134.5125,37.83 L134.5125,37.2645 Z M136.1455,34.359 L136.698,34.359 L136.698,39 L136.1455,39 L136.1455,34.359 Z" id="investment-meets-pot" fill="#8E8E8E"></path>
                        <g id="Group-12" fill="#FFFFFF" fill-rule="nonzero">
                            <ellipse id="Oval-4-Copy-2" fill-opacity="0.12" transform="translate(27.500000, 27.000000) rotate(47.000000) translate(-27.500000, -27.000000) " cx="27.5" cy="27" rx="18.5" ry="19"></ellipse>
                            <ellipse id="Oval-4" fill-opacity="0.1" cx="29" cy="27" rx="16" ry="19"></ellipse>
                            <ellipse id="Oval-4-Copy" fill-opacity="0.12" transform="translate(27.500000, 26.000000) rotate(40.000000) translate(-27.500000, -26.000000) " cx="27.5" cy="26" rx="15.5" ry="19"></ellipse>
                        </g>
                        <circle id="Oval-3" fill="#8E8E8E" fill-rule="nonzero" cx="34.0717518" cy="25.1896421" r="4"></circle>
                        <path d="M43.5,26 C38.5,33.3333333 33.3333333,37.3333333 28,38 C25.333375,38.3333281 22.333375,36.9999948 19,34 C23.8339885,34.8748362 27.3339885,35.0415029 29.5,34.5 C34.8333333,33.1666667 39.5,30.3333333 43.5,26 Z" id="Path-2" fill="#8E8E8E" fill-rule="nonzero"></path>
                        <path d="M31,32.5 C25.4393939,33.8333333 21.1060606,33.5 18,31.5 C14.8939394,29.5 13.7272727,26.6666667 14.5,23 C15.8333333,26 17.6666667,28.1666667 20,29.5 C22.3333333,30.8333333 26,31.8333333 31,32.5 Z" id="Path-3" fill="#8E8E8E" fill-rule="nonzero"></path>
                        <path d="M25.5,30 C17.5,28 13.8333333,21.8333333 14.5,11.5 C15.5,17.6666667 17.25,22.1666667 19.75,25 C22.25,27.8333333 24.1666667,29.5 25.5,30 Z" id="Path-4" fill="#8E8E8E" fill-rule="nonzero"></path>
                    </g>
                </g>
            </g>
        </g>
    </g>
</svg>